P1
200 200
0000000000000000000000000000000000000000000000000000000000000000000000000000000000000000000000000000000000000000100000000000000000000000000000000000000000000000000000000000000000000000010000000000000000000000000000000000000000000000000000000000000000000000000000000000000000000000000000000000000000000000010000010100000000000000000000000000000000000000000000000000000000000000000000001010000000000000000000000000000000000000000000000000000000000000000000000000000000000000000000000000000000000000000000001010000100100000000100000000000000000000000000000000000000000000000000000000000010100000000000000000000000000000000000000000000000000000000000000000000000000000000000000000000000000000000000000000000011000000110000000010100000000000000000000000000000100000100000000000000000000000010000100000000000000000000000000000000000000000000000000000000000000000000000000000000000000000000000000000000000000000000000000000000000101000000000000000000000000000001000010100000000000000000000000000001000011100000000000000000000000000000000000000000000000000000000000000000000000000000000011000000000000000000000000000000000000000000100000000000000000000000000000010000100100000000000000000000000000010001111000000000000000000000000000000000000000000000000000000000000000000000000000000000110000000000000000000000000000000000000000000000000000000000000000000000000000000110000000000000000000000000000000110001000000000000000000000000000000000000000000000000000000000000000000000000000000000000000000000000000000000000000000000001100000001100000000000000000000000000000000000000000001100000000000000000000000000000000000000000000000000000000000000000000000000000000000000000000000000000000000000000000000000000000000000000000000100100000100100000000000000000000000000000000000000000011000000000000000000000000000000000000000000000000000000000000000000000000000000000000000000000000000000000000000000000000000000000000000000000000110000000110000000000000000000000000000000000000000000000000000000000000000000000000000000000000000000000000000000000000000000000000000000000000000000000000000000000000000000000000000000000000000000000000000000000000000000000000000000000000000000000000000000000000000000000000110010000000000100000000000000000000000000000000000000000000000000000000000000000000000000000000000000000000000000000000000000000100000000000000000000000000000000000000000000000000000000000000000000001100010000000010100000000000000000000000000000000000000000000000000000000000000000000000000000000000000000000000000000000000000010100000000000000000000000000000000000000000000000000000000000000000000001111000000001000100000000000000000000000000000000000000000000000000000000000000000000011100000000000000000000000000000000000000101000000000000000011000000000000000000000000000000000000011000000000000000100000000001010000000000000000000000000000000000000000000000110000000000000000000000000000000000000000000000000000000000000000100000000000000000100100000000000000000000000000000000001001000000000000000000001000001000000000000000000000000000000000000000000000010010000000000000000000100000100000000000000000000000000000000000000000000000000000100000000000000000000000000000000000000010100000000000110000000011000000000000000000000000000000000000000000000000000101000000000000000000001000001000000000000000000000000000000000000000000000000000001000110000000000000000000000000000000000010000000000001100000000110000000000000000000000000000000000000000000000000000100000000000000000000010000010000000000000000000000000000000000000000000000000000010000000000000000000000000000000000000000000000000000000000000000000000000000000000000000000000000000000000000000000000000000000000000000000000000000000000000000000000000000000000000000000000000000000000011101000000000000000000000011000000000000000000000000000001000000000000000000000000000000000000000000000000000000000000000000000000000000000000000000000000000000000000000000000000000000000000000000000001101000000000000000000000110000000000000000000000000000011110000000000000000000000000000000000000000000000000000000000000000000000000000000000000000000000000000000000000000000000000000000000010111001011011100000000000000000000000000000000000000000000000000011000000000000000000000000000000000000000000000000000000000000000000000000000000000000000000000000000000000000000000000000000000000000100011011000100100000000000000000000000000000000000000000000000000110111000000000000000000000000000000000000000000000000000000000000000000000000000000011000000000000000000000000000000000000000000000001010010000000100100000000000000000000000000000000000000000000000000100010000000000000000000000000000000000000000000000000000000000000000000000000000000001110000000000000000000000000000000000000000000000000011000001001000000000000000000000000000000000000000000000000001110000000000000000000000000000000110000000000000000000000000000000000000000000000010000000000000000000000000000000000000000000000000000000001000000100000000000000000000000000000000000000000000000000000000000000000000000000000000000010010000000000000000000000000000000000001110000000100000100000000000000000000000000000000000000000000001000010000000000000000000000000000000000000000000000000000000000000000000000000000000000000010000100100000000000000000000000000000000000011100000001000101100000000000000000000000000000000000000000000010000001000000000000000000000000000000000000000000000000000000000000000000000000000000000000100000110000000000000000000000000000000000000000000000001101010000000000000000000000000000000000000000000000100000001000000000000000000000000000000000000000000000000000000000000000000000000000000000001000000000000000000000000000000000000000000000000000000000001000000000000000000000000001000000000000000000000010010001000001100000000000000000000000000000000000000000000000000000000000000001110000000000000000000000000000000000000000000000000000001110000000000000000000000000000000000000101000000000000000000000110001100000011000000000000000000000000000000000000000000000000000000000000000001000000000000000000000000000000000000000000000000000000001100000000000000000000000000000000000001010000000000000000000000000000000000000000000000000000000000000000000000000000000000000000000000000001110000000110000000000000011000000000000000000000000000000011000000000000000000000000000000000000001000000000000000000110000000000000000000000000000000000000000001110000000000000000000000000000000000010100000001100000000000001001000000000000000000000000000000000000000000000000000000000000000000000000000000000000000001010000000000000000000000000000000000000000000000000000000000000000010000000000001001000000000000000000000010100000000000000000000000000000000000000000000000000000000000000000000000000000000000000000001000000000000000000000000000000000000000000000000000000000000000001010000000000011000000000000000000000000010000000000000000000000000000000000000000000000000000000000000000000000000000000000000000000000000000000000000000000000000000001000000000000000000000000000000010010000000000100000000000000000000000000000000000000000000000000000000000000000000000000000000000000000000000000000000000000000000000000000010000000000000000000000000101000000000000000100000000000000011000000000000001100000000000000000000000000000000000000000000000000000000000000000000000000000000010000000000000000000000000000000000000001010000000000000000000000001010000000000000010110000000000000000000000000000011000000000000000000000000011000000000000000000000111000000000000000110000000000000100000000000000000000000000000000000100010100000000000000000000000001000000010000000101011000000000000000000000000000110000000000000000000000000110000000000000000000000000000000000000010110000000000001000000000000000000000000000000000010100010000000000000000000000000000000000100000000011000000000000000001100000001101000000000000000000000000000000000000000000000000000000000000000001000100000000000000000000000000000000000000000000000101000000000000000000000000000000000000000000001011000000000000000000010100000001110000000000000000010000000000000000000000000000000000000000000000010000000000010000000000000000000000000000000000000000100000000000000000000000000000000000000000000100000000000000000000000010000000001000000000000000001010000000000000000000000000000000000000000000000101100001110100000000000000000000000000000000000000000000000000000000000000000000000000000000000001001000000000000000000000000000000000000000000000000010010000000000000000000000000000000000000000000000100000111101000011100000000000000000000000000001100000001100000000000000000000000000000000000000001000000000000000000000000000000000000000000000011000011000000000000000000000000000000000000000000000000111101101100000110110000000000000000000000000000100000100100000000000000000000000000000000000000000000000000000000000000000000000000000000000000110000000000000000000000000000000000000000000000000000000110101100001010101100000000000000000000000001001000000110000000000000000000000000000000000000000000000000011000000000000000000000000000000000000000000000000000000000000000000000000000000000000000000001000011000011000110000000000000000000000000001110000000000000000000000000000000000000000000000000000000000110000000000000000000000000000000000000000000000000000000000000000000000000000000000000000000001000100000001000000000000000000000000000001000100011100000000000000000000000000000000000000000000000000000000000000000000000000000000000001110000000000000000000000000000000000000000000000000000000000001110000000000000000000000000000000000000001100000101000001000000000000000000000000000000000000000000000000000000000000000000000000000000000000000000000000000000000000000000000000000000000000000000000000000000000000000000000000000000000000000101000001000100011000000000000000000000000000000000000000000000000000000000000111000000000000000000010000000000000000000000000000000000000000000000000000000000000000000010000000000000000000000000000001010001001000000101000000000000000000000000000000000000000000000000000000000000000000010000000000000100000000000000000000000000000000000000000000000000000000000000000000100000000000000000000000000000111111010010001000000000000000011000000000000000000000000000000000000000000000000000011011000000000001000000000000000000000000000000000000000000000000000000000000000000001000000000000000000000000000011111101110100010011100000000000100000000000000000000000000000000000000000000000000000110001000000000000000000000000000000000000110000000010000000000000000000000000000000000000000000110000000000000000000000011001001000000000000000000001000000000000000000000000000000000000000000000000001000100001111100000000000000110000000000001100000001100000000000000000000000000000000000000000001100000000000000000011100000001010000100000000000010001000000000000000000000000000000000000000000000000001110000011000000000000000001100000000000000000000010100000000000000000000000000000000000000000000000000000000000000110100000000000000101100000000000100000000000000000000000000000000000000000000000000000000000001110000000000000000000000000000000000000000000000000000000000000000000000000010000000000000000000000000000001100000000001101001100000001000000000000000000000000000000000000000000000000000000000000000000000000000000000000000000000000000000000000000000000000000000000000000000000100000000000000000000000000100011000000000001000010000000011000000000000000000000000000000000000000000000000000000000000000000000000000000000110000011000000000000000000000000000000000000011000000000001000000000000000000000000001001000000000000010000000000000000000000000000000000000000000000000000000000000000000000000000000000000000001100010010000110000000000000000000000000000000000000101000000000000000000000000000000000000001110000000000000010001001000000000000000000000000000000000000000000000000000000000000000000000000000000000011000010100000000000000000000000000000000000000000000100000000000000000000000000000000000000000000000000000000001000110000000000000000000000000000000000000000000011000000000000000000000000000000000000000000010000000000000000000000000001110000000000000000000000000000000000000000000000000000000000000000000000000001101001000000000000000000000000000000000000000001001000000000000000000000000000000000000000000000000000000000000000000000100010000000000000000000000000000000000000000000000000000000000000000000000000011011100000000000000000000000000000000000000000010010000000000000000000000000000000000000000000000000000000000000000110001000100000000000000000000000000000000000000000000000001000000000000000000000000001000011000000000000000000000000000110000000000011000000000000000000000011100000000000000000000000000000000000000001100010001000000000000000000000000000000000000000001100000010000000000000000000000000001000100000000000000000000000000001100000000000000000000000000000000000000000000000000000000000000000000000000000000000011100000000000000000000000001100000000000000011000000100000000000000000000000000010001000000000000000000000000000000000000000000000000000000100000000000000000000000000000000000000000000000000000000000000000000000000000000000000100100000000000000000000000000000000000000000000000000011100000000000000000000000000000000000000000000000000000011000000000000000000000000000000000000000000000000000000000000000000000000000000000000000110000000000000000000000000000000000000000000000000000000000000000000000000000000000000000000000000000000000001001000000000000000000000000000000100000000000000000000000000000000000000000000000000000000000000000000000000000000000000000000000000000000000000000000000000000000000000000000000000000000000000000000011000000000000000000000000000000010100000000000000000000000000000000000000000000000000000000000000000000000000000000000000000000000000000000000000000000000000000000000000000000000000000000000000000000010000000000000001110000000000000101000000000000000000000000000000000000000000000000000000000000000000000000000000000000000111000000000000000000000000000000000000000000000000000000000110000000000000000000000000000000100100000000000000111100000000000000000000000000000000000000000000000000000000000000000000000000000000000000000000000110000000000000000000000000000000000000000000000010010000000000000001100000000000010000000000000000000111101110010000000000000000000000000000000000110000000000000000000000000000000000000000000000000010010000000000000000000000000000000000000000000000011000000000000000101000000000000101000000000000000001110101011110000000000000000010010010100000010010000000000000000000000000000000000000000000000000101000000000000000000000000000000000000000000000000000000000000000111110000000000000100000000000000000110000010110110000000000000010110001111000000011000000000000000000000000000000000000000000000000000100000000000000000000000000000000000000000000000000000000000000011111000100000000000000000000000000011100100100011100000000000011000100101010000000000000000000000000000000000000000000000000000000000000000000000000000000000000000000000000000000000000000000000000000011010000110000011100100000000000110101000000010111000000000000001011000000000000000000000000000000000000000000000000000000000000000000000000000000000000000000000000000000000000000000000000000000000001000100110000001011101000000000010010000100001010000000000000000000111010000000000000000000000000000000000000000000000000000000000110000000000000000000000000000000000000000000000000000000000000000001110010001001100100000010000000000011000001111011000000000000000000000011000000000000000000000000000000000000000000000000000000000001100000000000000000000000000000000000000000000000000000000000000000011100010000001000100100000000000000000000000000010000000000000000000000000000000000000000000000000000000000000001100000000000000000000000000000110000000000000000001000000000000000000000000000000000000011001100000010000101010000000000000000000000000000000000000000000000000000000000000000000000000000000000000000011000000000000000000000000000001010000000000000000101000000000000000000000000000000000000011101000000000000000010000000000000000000000000000000000000000000000000000000000000000000000000000000000000000000000000000000000000000000101011100000000000000000100000000000000000000000000000000000000000001100000000000100100000000000000000000000011000111000000000000000000000000000000000000000000000000000000000000000000000000000000000010011000000000000000000000000000000000000000000000000000000000000000000100000000001110000000000000000000000000110000000000000000000110000000000000000000000000000000000000000000000000000000000000000000000100000000000000000000000000000000000000000000000000000000000000000000100000000000000000000000000000000000000000000000000000000010100000000000000000000000000000000000000000000000000000000000000000011000000000000000000000000000000000000000000000000000000000000000110100000100000000000000000000000000000000000000000000000000000000101000000011000000000000000000000000000000000000000000000000000000001010000000100000000000000000000000000000000000000000000000000000000000000000000000000000000000000000000000000000000000000000000000000100000000110000000000000000000000000000000000000000000000000000000110000000100100000000000000000000000000000000000000000000000000000000000000010000000000000000000000000000000000000000000000000000000000000000000000000000000000000000000000000000000000000000000000000010000100001001000000000000000000000000000000000000000000000000000000000000001000000000000000000000000000000000000000000000000000000000000000000000000000000000000000000000000000100000000000000000000000011111000001000000000000000000000000000000000000000000000000000000000000000000000000000000000000000000000000000000000000000000000000000000110000000000000000000000000000000000011100000000000000000000000011100000000000000000000000000000000000001000000000000000000000110000000000000000000000000000000000000000000000000000000000000000000000010010000000000000000000000000000000001100100000000000000000000000000000000000000000000000000000000000000101000000000000000000001100000000000000000000000000000000000000000000000000000000000000000000000100100000000000000000000000000000000000000000000000000000000000000000000000000000000000000000000000000001010000000000000000000000000000000000111000000000000000000000000001110000000000000000000000000000110000000000000000000000000000000000000000001010000001100000110000000000000000000000000000000000000000001000000000000000000000000000100010001100000000000000000000000000000000000000000000000000000000000000000000000000000000000000000000000000000110110001001100001010000000000000000000000000000000000000000000000000000000000000000000100101010010010000000000000000000000000000000000000000000000000000000000000000000000000000000000000000000100000010000110011100000010000000000000000000000000000000000000000000000000000000000001110000010000100010000010000000000000000000000000000000000000000000000000001100000000000000000000000000000000000000110000100000100000000000000000000000000000000000000000000000000000000000000000000000110001000010011100101000110000000000000000000000000000000000000000000000000100100000000000000000000000000000000000001111000000110000000000000000000000000000000000000000000000000000011100000000000000001001010000110111000011100100000000000000000000000000000000000000000000000000110000000000000000000000000000000000000001100010001100000000000000000000000000000000000000000000000000000000000000000000000010000010000010001100001111000000000000000000000000000000000000000000000000000000000000000000000000000000000000000000000010100111000000000000000000000000000000000111000000000000000000000000000000000000011001000000000000101111000001000000000000000000000000000000000000000000000000000000000000000000000000000000000000010101100000001000000000000000000000000000000000000000000000000000000000000000000000000000010000000000010101100000111000000000000000000000000000000000000000000000000000000000000000000000000000000000000001000100011100000000001100000000000000000001000001000000000000000000000000000000000000000000000101000111100000010011000000000000000000000000000000000000000000000000000000000000000000000000000000000001110000000000000111000011000000000000011000010000010000000000000000000000000000000000000000000001010000110000000000110000000000000001000000000000000000000000000000000000000000000000000000000000000000000000000000000001110000000000000000000110000100000100000000000000000000000000000000000000000000001000000000000000000000000000000000101000000000000001100000000000000000000000000000001110000000000000000000000000000000001000000000000000000000000000000000000000000000000000000000000000000000000000000000000000000000000100000000000000001001000000000000000100000000000000000000000000000000000000000000000000000000000000000000000000000000000000000000000111000000000000000000000000000000000000000000000000000000000000000000000000000000000001100000000000001000000000000000000000000000000000000000000000000000000000010000000000000000000000000000000000000000000000000000000000000000000000000000000000000000000000000000000000110100000000000000000000000000000110000000000000000000000000000000000000000000000000000000001000000000000000000000000000000000000000000000000000000000000000000000000000000000000000000000000000000000010000100000000000000000000000000010100000000000000100000000000000000000000000000000000000001000000000000000111000000000000000000000000000000000000000000000000000000000000000000000000000000000000000000100000100000000000000000000001101000001000000000001000000000000000000000000000000000000000010000000000000000001000000000000000000000000000000000000000000000000001100000000000000000000000000000000000000111010000000000000000000000100100101100000000000010000000000000000000000000000000000000000100000000001100010001000000110000000000000000000000000000000000000000011000000000000000000000000000000000000000000000000000000000000000000110000110000000000000000000000000000000000000000000000000001000010000010000000010100000010010000111100000000000000000000000000000000000000000000000000000000000000000000000000110001110000000000000011100000001000000000000000011100000000000000000000000000000000010000010000010000000001100000000010101101100000000000000000000000000000000000000000000000000000000000000000000000001100000000000000000000111000000000000000000000000000000000000010000000000000000000000100000001000000000000001000001010001110001100000000000000000000000000000000000000000000000011000000000000000000000000000000000000000000010010000000100000001100000000000000000001010000000000000000000000000000010010000000000010000001000110000110000000000000000000000000000000000000000000110000110000000000000000000000000000000000000000001000000000110110000100000000000000000000010100000000000000000000000000000111000000000000000001110000100100000000000000000000000000000000110000000000001100000000000000000000000000000000000000000000000001100000010000000000110000000000000000000010000000000000000000000000000000000000000000000000000000001111000000000000000000000000000000001100000000011000000000000000000000000000000000000000000000000000000000001100000110011000000000000000000000000000000000000000000000000000000000010000000000000000000000110000000000000000000000000000000000000000000101000000000000000000000000000100000000000000000000000000000100000000000101000000000000000000000000000000000000000000000011000000001100000000000000000000000000000000000000000000000000000000000000000000010000000000000000000000000001000000000000000000000000000000111000001110010000100000000000000000000000000000000000000001010000000100100000000000000000000000000000000000000000000000000000000000000000001100011000000000000000000000010000000000000000000000000000000111101001100100010100000000000000000000000000000000000000011000000001110000000000000000000000000000000000000000000000000000000000000000000000001001000000000000000000000000000000000000000000000000000000000000001100000101000000000000000000000000000000000000000000000000000100000000000000000000000000000000000000000000000000000000000011000000000001010000000000000000000000011100000000000000000000000000000000000000000000100000000000000000000000000000000000000000000001110000000000000000000000000000000000000000000000000000000000000000101000000000001000000000000000000000000000000000000000000000000000000000000000000000000000000000000000000000000000000000000000000000000100000000000000000000000000000000000000000000000000000000000000000011000000000000000000000000000000000000000000000000000000000000000000000000000011000000000000000000000000000000000000000000000000000100000000000000000000000000000000000000000000000000000000000000000001100000000000000000000000000000000000000000000000000000000000000000000000000001110000000000000000000000000000000000000000000000000001000000000000000000000000000000001100000000000000000000000000000000000000000000000000000000000000000000000000000000000000000000000000001000111001110110000000000000000000000000000000000000000000000110010000000000000000000000000000000011000000000000000000000000000000000000000000000000000000000000000000000000000000000000000000000000000001100010111001000000000000000000000000000000000000000000000010000000000000000000000000000000000000000000000000000000000000000000000000000000000000000000000000000000000000000000000000000000000000000000011000111000111000000000000000000000000000000000000000000000011110000000000000000000000000000000000000000000001100000000000000000000000000000000000000000000000000000000000000000000000000000000000000001000000000000000000000000000000000000000000000000000000000000010000000000000000000000000000000000000000000000011000000000000000000000000000000000000000000000000000000000000000000000000000000000000000000000000000000000000000000000000000000000000000000000000000000000000000000000000000000000000000000000000000000000000000000000000000000000000000000000000000000000000000000000000000000000000000000000000000000010000000000000000000000000000000000000000000000000000000000000000000000000000000000000000000000000000000000000000000000000011000000000000000000000000000000000000000000000000000000000000000000000000000100010100000000000000000000000000000000000000000000000000000000000000000000000000000000000000000000000000000000000000000000110000000000000000000000000000000000000000000000000000000000000000000000000000000110000000000000000000000000000000000000000000000000000000000000000000000000000000000000000000000000000000000000000000000000000000000000000000000000000010000000000000000000000000000000000000000000000000000000000000000000000000000000000000000000000000000000000000000000000000000000000000110000000000000000000000000000000000000000000000000000000000000001010000000000000000000000000000000000000000000000000000000000000000000000000000000000000000000000000000000000000000000000000000000000001010000000000000000000000000000000000000000000000000000000000000010100000000000000000000000000000000000000000000000000000000000000000000000000000000000000000000000000000000000011000000000000000000000001000000000000000000000000000000000000000000000000000000000000000010000000000000000000000000000000001100000000000000000000000000000000000000000000000000000000000000000000000001001000000001100000011000000000000000000000000000000000000000000000000001000000000000000000000000000000000000000000000000000011000000000000000000000000011000000000000000000000000000000000000000000000001100000000011000001001000000000000000000000000000000000000000000000000010000000000000110000000110000000000000000000000000000000000000000000000000000000110000000000000000000100000000000000000000000000000000000000000000010100000000000000000000000000000000000000000000000000100000000000001100000010010000000000000000000000000000000000000000000000000000000000000000000000000010100000000000000000000000000000000000000000000010000000000000000000000000000000000000000000000000000000000000000000000000011000000000000000000000000000000000000000000000000000000000000000000000000000101000000000000000000000000000000000000000000000000000000000000000000000000000000000000000000000000000000000000000000000000000000000000000000000000000000000000000000000000000000000000000000000000000000100000000000000000000000000000000000000000000000000000000000000000000000000000000110000000000000000000000000000000000000000000000000000000000000000000000000000000000000000000000000000000000000000000000000000000000000000000000000000000000000000000000000000000000000000000000000000010010000000000000000000000000000000111000000000000000000000000000000000000000000010000000000000000000000000000000000000000111000000000000000000000000000000000000000000000000000000000000000000000000000101000000000000000000000000000000010001000000000000000000000000000000000000000000100000000000000000000000000000000000000000000000000000000000000000000000000000000000000000000000000000000000000000000000100000000000000000000000000000000100010000000000000000000000000000000000000000001000000000000000000000000000000000000000000001000000000000000000000000000000000000000000000000000000000000000000000000000000000000000000000000000010000011011011000000000000001100110000000000000000000000000000000000000000000000000000000000000000010000000000000000000000001000000000000000000000000000000000000000000000000000000000000000000000000000100000000001110000000000000011001100000000000000000000000000000000000000000000000000000000010011000100000000000000000000000101000000000000000000000000000000000000000000000000000000001100000000000000001000000000011000000000001100000000000000000000000000000000000000000000000000000000000000000011100000000000000000000000000001010000110000000000000000000000000000000000000000000000000100100000000000000000000000001100000000000011000000000000100000000000000000000000000000000000000000000000000000010011000000000000000000000000001000010010000000000000000000000000000000000000000000000001010000000000000000000000001001100000000000000000000000010100000000000000000000000000000000000000000000000000000000000000000000011000000000000000000011000000000000000000000000000000000000000001000000001000000000000000000000000001011000000000000000000000000101000000000000000000000000000001000000000000000000000000000000000000001010000000000000000000000000000000000000000000000000000000000000101000000000000000000000000000000000010110000000000000000000000000100000000000000000000000000000101000000000000000000000000000000000000001000000000000000000000000000000000110000000000000000000000000000110000000000000000000000000000000000100000000101000000000000000000000000000000000011000000000000000000000000000000000000000000000011000000000000000000000000000000000000010100000000000000000000000000000000000000000000000000000000000000000100010000100000000000000000000000000000000000110000000000100010000000000000000000000000000001001000000000000001000000000000000000000010000000000000000000000000000000000000000000000000000000000000000000000100000100000000000000000000000000000000000000000000000000000000000000000000000000000000010100000000000000010000000000000000000000000000000000000000000000000000000000000000000000000000000000000110000100100001110000000000000000000000000000000000000000000000000000000000000000000000000000000010000000000000000000000000000000000000000000000000000000000000000000000000000000000000000000000000000001110000000100011111000000000000000000000000000000000000000000011100100000000000000000000000000000000000000000000000000000000000000000000000000000000000000000000000000000000000000000000000000000000001100100000000100010010000000000000000000000000000000000000000000000010100000000000000000000000000000000000000000000000000000000000000000000000000000000000000000000000000000000000000000000000000000000010011000000110000110010000000000000000000000000000000000000000000000101000000000000000000000000000000000000000000000000000000000001100000011000000000000000000000000000000000000000000000000000000000000100100000000000001001100000000000000000000000000000000000000000000000100000000000000000000000000000000000000111000000000000000000011000000110000000000000001100000000000000000000000000000000000000000000111000000101000100010000000000000000000000000000000000000100000000000000000001110000111000010000000000000010010000000000000000000000001000000000000000000000000000000000000000000000000000000000000000000000000011011110100000000000000000000000000000000000000010100000110000000000000000110010000100000000000000110100000000000000000000000101000000000000011100010000000001000000000000000000000000000000000000000000110100001100000000000000000000011100000000000000011000000000000000000000001001100011000000000000000000000000000000000000000001001000000000000100000000000000101000000000000000000000000000000000000000001101101100000000000000000000000000000000000000000000000010010000000000000011100000000011000000000000000000000000000000000000001100000000000001000100000000001010000000000000000000000000000000000000101010010000000000000000000000000000000000000000000000000000011100000000000000000000000000110000000110000000000000000000000000000000000000000000010001000000000001000000000000000000000000000000000000001001110100000000000000000000000000000000000000000000000000000000000000000000000000000000010100000001100111000000000000000000000000000000000000000000000000000000000000000000000000000000000000000000000000011000000000000000000000000000000000000000000000000000000000000000000000000000000000111011000000000010001000000000000000000000000000000000000000000000000000000000000000000000000000000000000000000001111100000000000000000000000000000000000000000000000000001110000000000000000000000000000101000000000000111100000000000000000000000000000000000000100000100000000000000000000000000000000000000000000000001110000100000000000000000000000000000000000000000000000100010000000000000000000000000000000010100000000010000000000000000000000000000000000000000010001000000000000000000000000000000000000000000000001000000001000000000000000000000000000000000000000000000010000010000000000000000000000000000000000000000000000000000000000000000000000000000000000000010000000000000000000000000000000000000000000000001100000000010000000000000000000000000000000000000000000000100000100000000000000000110000000101000000000000000000000000000000000000000000000000000000000100000000000000000001000000000000000000000000000000011000000000000000000000000000000000000000000000000000001000001000000000011000001100000001000000000000000000000000001000000000000000000000000000000000100100000000000000101000000000000000000000000000000000000000000000000000000000000000000000000000000000000001000100000000000110000000000000011100000000000000000000000101000011000000000000000000000000000010000000000000001010000000000000000000000000000000000000000000000000000000000000000000000000000000000000001110000000000000000000000000000000000000000000011100000001001001001000000000000000000000000000000000000000000001000000000000000000000000000000000000000000000000000000000000000000000000000000000000000000000000000000000000000000000000000000000000000100000000001100010100000000000000000000000000000000000000000000000000000000000000000000000000000000000000000000000000000110000000000000000000000000000000000000000000000000000000000000000000000000111000100000000000000010000000000000000000000000000000000000000000000000000000000000000000000000000000000000000000000000000001100000000000000000000000000001000000000000000000000000000000000000000000000000000000000000000000000000000000000000000000000000000000000000000000000000000000000000000000000001110000000000000000000000000000000000000000000000000000010000000000000000000000011000000000000000000000000000000000000000000000000000000000000000000000000000000000000000000000000000000000000000000000000000000000000000000000000000000000000000000000000000000100000000000000000000001001000000001100000000000000000000000000000000000000000000000000000000000000000000000000000000000000000000000000000000000000000000000000000000000000000000000000000000000000000000000000000000000000000010010000000101000000000000000000000000000000000000000000000000000000000000000000000000000000000000000000000000000000000000000000000000000000000000000000000000000000000000000000000000000000000000000000011000000000100000000000000000000000000000000000000000000000000000000000000000000000000000000000000000000000000000000000000000000000000000000000000000001100000000000000000000000000000000000000000000000000000000000000000000000000000000000000000000000000000000000000000000000000000000000000000000000000000000000000000000000000000000000000000110000000000100100000000000000000000000000000000000000000000000000000000000000000000100000000000000000000000000000000000000000000000000000000000000000000000000000000000000000000000000000000000000000001100000000000110000000000000000000000000000000000000000000000000000000000000000000010100000000000000000000000000000000000000000000000000000000000000000000000000000000000000000000000000000000000000000000000000000000000000000000000000000000000000000000000000000000000000000000000000001010000000000000000000000000000000000000000000000000000000000000000000000000000000000000000000000000000000000000000000000000000000000000000000000000000000000000000000000000000000000000000000000000000101000000000000000000000000000000000000000000000000000000000000000000000000000000000000000000000000000000000000000000000000000000000000000000000000000000000000000000000000000000000000000000000000000000100000000000000000000000110000000000000000000000000000000000000000000000000000000000000000000000000000000000000000000000000000000000000000000000000000000000000000000000000000000000000000000000000000000000000000000000000000001100000000000000000000000000000000000000000000000000000000000000000000000001110000000000000000000000000000000000000000000000000000000000000000000000000000000000000000000000000000000000000000000000000000000000000000000000000000000000000000000000000000000000000000000000000000000000000000000000000000000000001000000000000000000000000000000000000000000000000000000000000000000000000000000000000000000000000000000000000000000000000000000000000000000000000000000000000000000000000000000000000000000000000000000101000000000000000000000000000000000000000000000000000000000000000000000000000000000000000000000000000000000000000000000000000000000000000000000000000000000000000000000000000000000000000000000000000001010000000000000000000000000000000000000000000000000000000000000000000000000000000000000000000000000000000000000000000000000000000000000000000000000000000000000000000000100000000000000000000000000000001000000000000000000000000000000000000000000000000000000000000000000000000000000000000000000000000000000000000000000000000000000000000000000000000000000000000000000000001000000000000000000000000000000000000000000000000000000000000000000000000000110000000000000000000000000000000000000000000000000000000000000000000000000000000000000000000000000000000000000000000000000010000000000000000000000000000000000000000000000011000001000000000000000000001100000000000000000000000000000001000000000000000000000000000000000000000000000000000000000000000000000000000000000000000000000000000000000000000000000000000000000000000000110000010000000000000000000000000000000000000000000000000000101100000000011000000000000000000000000000000000000000000000000000000000000000000000000000000000000110000000000000000000000011000000000000000000000100000000000000000000000000000000000000000000000000010000100000000110000000000000000000000000000000000000000000000000000000000000000000000000000000000001010000000000000000000000110000000000000000000000000000000000000000000000000000000000000000000000000010000000000000000000000000000000000000000000000000000000000000000000000000000000000000000000000000001100000000000000000000000000000000000000000000000000000000000000000000000000000000000000000000000000011110000000000000000000000000000000000000000000000000000000000000000000000000000000000000000000000000000000000000000000000000000000000000000000000000000000000000000000000000000000000000000000000000000000000000000000000000000000000000000000000000000000000000000000000000000000000