P1
200 200
0000000000000000000000000000000000000000000000000000000000000000000000000000000000000000000000000000000000000000100000000000000000000000000000000000000000000000000000000000000000000000010000000000000000000000000000000000000000000000000000000000000000000000000000000000000000000000000000000000000000000000010000010100000000000000000000000000000000000000000000000000000000000000000000001010000000000000000000001010000000000000000000000000000000000000000000000000000000000000000000000000000000000000000000001010000100100000000100000000000000000000000000000000000000000000000000000000000010100000000000000000000000000000000000000000000000000000000000000000000000000000000000000000000000000000000000000000000011000000110000000010100000000000000000000000000000000000100000000000000000000000010000000000000000000000000100000000000000000000000000000000000000000000000000000000000000000000000000000000000000000000000000000000000000101000000000000000000000000000011100010100000000000000000000000000011100000000000000000110000000000000000000000000000000000000000000000000000000000000000000011000000000000000000000000000000000000000000100000000000000000000000000000000000100100000000000000000000000000000000000000000000000000000000000000000000000000000000000000000000000000000000000000000000110000000000000000000000000000000000000000000000000000000000000000000000000000000110000000000000000000000000000000000000000010000000000000000000000000000000000000000000000000000000000000000000000000000000000000000000000000000000000000000001100000001100000000000000000000000000000000000000000001100000000000000000000000000010010000000000000000000000000000000000000000000000000000000000000000000000000000000000000000000000000000000000000000100100000100100000000000000000000000000000000000000000011000000000000000000000000001000100000000000000000000000000000000000000000000000000000000000000000000000000000000000000000000000000000000000000000110000000110000000000000000000000000000000000000000000000000000000000000000000000011010000000000000000000000000000000000000000000000000000000000000000000000000000000000000000000000000000000000000000000000000000000000000000000000000000000000000000000000000000000000000000000001010000101001000011000000000000000000000000000000000000000000000000000000000000000000000000000000000000000000000000000000000000000100000000000000000000000000000000000000000000000000000000000000000000010010000010010000110000000000000000000000000000000000000000000000000000000000000000000000100000000000000000000000000000000000000010100000000000000000000000000000000000000000000000000000000000000000000000100010110000000000000000000000000000000000000000000000000000000000000000000000000000001000000000000000000000000000000000000000101000000000000000000000000000000000000000000000000000000011000000000000011000010000000000000000000000000000000000000000000000000000000110000000000000000000000010000000000000000000000000000000000000000100000000000000000000000000000000000000000000000000000001001000000001000100000000111000000000000000000000000000000000000000000000000010010000000000000000000000000000000000000000000000000000000000000000000000000000000000000000000000000000000000000000000000010100000000010010000000001010000000000000000000000000000000000000000000000000101000000000000000000011100011100000000000000000000000000000000000000000000000000000000000000000000000000000000000000000000010000000000010100000000100100000000000000000000000000000000000000000000000000100000000000000000000000000000000000000000000000000000000000000000000000000000000000000000000000000000000000000000000000000000000000000000000000001110000000000000000000000000000000000000000000000000000000000000000000000000000000000000000000000000000000000000000000000000000000000000000000000000000000000000000000011000000000000000000000000000011001000000000000000000000000000000000000000000000000000000000000000000000000000000000000000000000000000000000000000000000000000000000000000000001100000000000000000000000110000000000000000000000000000011100000000000000000000000000000000000000000000000000000000000000000000000000000000000000000000000000000000000000000000000000000000000000000000101100000000000000000000000000000000000000000000000000000010000000000000000000000000000000000000000000000000000000000000000000000000000000000000000000000000000000000000000000000000000000000000000000011001100000000000000000000000000000000000000000000001110000000000000000000000000000000000000000000000000000000000000000000000000000000000000000000000000000000000000000000000000000000000000000000000000111001100000000000000000000000000000001000000000000010100000000000000000000000000000000000000000000000000000000000000000000000000000000001100000011100000000000000000000000000000000000000000000000000000000011000000000000000000000000000000110000000000001110000000000000000000000000000000000000000110000000000000000000000000000000000000000010010100000100000000000000000000000000000000000000000000000000000000000000000000000000000000000000011000000000000011000000000000000000000000000000000000000010010000000000000000000000000000000000000000011111000110000000000000000000000000000000000000000000000000000000000000000000000000000000000000000100000000000000110000000000000000000000000000000000000000100100000000000000000000000000000000000000000000000001000000000000000000000000000000000000000000000000000000000000000000000000000000000000000001010011100000000000000000000000000000000000011000000000000110000000000000000000000000000000000000000000001110000000000000000000000000000000000000000000000000000000000000110000000000000000000000000000001100110000000000000000000000000000000000001010000000000000000000000000000000000000000000000000000000000010000000000000000000000000000000001000000000000000000000000000010100001100000000000000000000000000001100000000000000000000000000000000000100100010000110000000000000000000000000000000000000000001100000000000000000000000000000000000000101000000000000000000000000000010000011000000000000000000000000000000000000000000000000000000000000000001001000010001100000000000000000000000000000000000000000011000000110000000000000000000000000000001010000000000000000000000000000000000000000000000000000000000000000000000000010000000000000000000000000010010000110000000000000011000000000000000000000000000000000000001100000000000000000000000000000001000000000000000000110000000000000000000000000000000000000000000000000000011011000000000000000000000000011000011000000000000001001000000000000000000000000000000000000000000000000000000000000000000000000000000000000000001010000000000000000000000000000000000000000000000000000110110000000010000000000000000011000100000000000000010100000000000000000000000000000000000000000000000011000010000000000000000000000000000000000001000000000000000000000000000000000000000000000000000000100100000001010000000011000000000000000000000000000010000000000000000000000000000000000000000000000001001100100000000000000000000000000000000000000000000000000000000000000000000001000000000000000000011110000000010010000000110000000000000000000000000000000000000000000000000000000000000000000000000000000111001000000000000000000000000000000000000000000010000000000000000000000000101000000000000000011001000000000011000000011100000000000000000000000000000000000000000000000000000001000000000000000000000001100000000000000000000000000000000000000000000001010000000000000000000000001010000000000001000011100000000000000000000000000000000000000000000000000000011000000000000000000000010000000000000000000000000000001110000000000000000000000000000000000100010100000000000000000000000001000000000000010000010000000000000000000001000000000000000000000000000000000110000000000000000000000100000000000000000000000001000000000000000000000000000000000000000010100010000000000000000000000000000000001110000100000000000000000000001100000000000000000000000000000000000000000000000000000000000000000000000000000000000000000000000000000000000000000000000000000000101000000000000000000000000000000000000000000000000000000000000000000010100000000000000000000000000010000000000000000000000000000000000000000000000000001110011100000000000000000000000000000000000000000100000000000000000000000000000000000000000000000000000000000000000000010000000000000000000000000001010000000000000000000000000000000000000000000000000010100110011100000000000000000000000000000000000000000000000000000000000000000000000000000000000000000000000000000000000000000000000000000000000000010010000000000000000000000000000000000000000000000000111000111101000000000000000000000000000000001100000001100000000000000000000000000000000000000000000000000000000000000000000000000000000000000011000011000000000000000000000000000000000000000000000000000000000100011000000000000000000000000000000100100000100100000000000000000000000000000000000000000000000000000000000000000000000000000000000000110000000000000000000000000000000000000000000000000000000000000001101100000000000000000000000000000001000000000110000000000000000000000000000000000000000000000000011000000000000000000000000000000000000000000000000000000000000000000000000000000000000000000000000000001110000000000000000000000000000000000000110000000000000000000011000000000000000000000000000000000110000000000000000000000000000000010000000000000000000000000000000000000000000000000000000000000000000001000000000000000000000000000000000000000001000000000000000001001000000000000000000000000000000000000000000000000000000011000000000100000000000000000000000000000000000000000000000000000000000000000000000000000000000000000000000000000000100010001000000000000000001100000000000000000000000000000000000000000000000001000000001000000001000000000000000000000000000000000000000000000000000000000000000000010000000000000000000000000000000000000000000110000000000000000000000000000000000000000000000000000000000000000000010000010100000000000000000000000000000000000000000000000000000000000000000000000000000100000000000000000000000000000000001000000000000000000000111000000000000000000000000000000000000000000000000000000100000101100101110001110000000000000000000000000000000000000000000000000000000000000001000000000000000000000000000000000111000000000000000000010001000000000000000000000000000000000000000000000000000000000000001110000000000000000000000000000000000000000000000000000000000000000000000000000000000000000000000000000000000011011111000000000010000110001000000000000000000000000000000000000000000000000000000000000011100000010000000000000000000000000000110000000000000000000000000000000000000000000000000000110000000000000000011100000000000001110000000001000000000000000000000000000000000000000000000000000000011000000000000100000000000000110000000000001100000000000000000000000000000000000000000000000000001100000000000000000010000000000000101100000010010000000000000000000000000000000000000000000000000000000000000000000001000000000000001100000000000000000000000000000000000000000000000000000000000000000000000000000000000000000000000000011001100000000100000000000000000000000000000000000000000000000000000000000000000000000000000000000000000000000000000000000000000000000000000000000000000000000000000000000000000000000000000000000000000011110001100010000000000000000000000000000000000000000000000000000000000000001000000000000000000000000000000000000000000000000000000000000000000000000000000001110000000000000000000000000000000000000000011100010001000000000000000000000000000000000000000000000000000000000000000100100000000000000000000110000011000000000000000000000000000000000000011000000000000000000000000000000000000000000000000000000000000011100000000000000000000000000000000000000000000000000000000000000000101000000000000001100010010000110000000000000000000110000000000000000101000000000000000000000000000000000000000000000000000000000000000000000000000000000000000000000000000000000000000000000000000000001010000000000000011000010100000000000000000000000001010000000000000000100000000000000000000000000000000000000000000000000000000000000000000000000000000000000000000000000000000000011000000000000000110000000000000000000000000010000000000000000000000000010000000000000000000000000000000000000000000000000000000000000000000000000000000000000000000000000000000000000000000000000000001001000000000000001011000000000000000000000000000000000000000000000000000000000000000000000000000000000000000000000000000000000000000000000000000000000000000000000000000000000000000000000000000000000010010000000000000000100000000000000000000000000000000000000000000000110000000000000000000000000000000000000000000000000000000000000000000000000000000000000000000000000000000000000000000000110000000000011000000000000000101000000000000000000000000000000000000000000000001100000000000000000000000000000000000000000000000001100000111000000000000000000000000000000000000000000000000000000000001100000000000000000000000000111100011100000000000000000000000000000000000000000000000000000000000000000000000000001100000000000000011000000000000000000000000000000000000000000000000000000000000000000000000000000000000000000000001101000100000000000000000000000000000000000000000000000000000000000000000000000000000100100000000000000000000000000000000000000000000000000000000000000000000000000000000000000000000000000000000000000001010011001100000000000000000000000000000000000000000000001000000000000000000000000000110000000000000000000000000000000000000000000000000000000000000000000000000000000000000000000000000000000000000001001100100000000000000000000000100000000000000000000000000110000000000000000000000000000000000000000000000000000000000000000000000000000000000000000000000000000000000000000000000000000000000000000000011001101001110000000000000000010100000000000000000000000011000000000000000000000000000000000000000000000000000000000000000000000000000000000000000000000000000000000000000000000000000000000000000000000000000100000000010000000000000101000000000000000000000000100000000000000000000000000000000000000000000000000000000000000000000000000000000000000000000000000000000000000000000000000110000000000000000000000000011110000100000000000000100000000000000000000000000011100000000000000000000000000000000000000000000000000000000000100000000010000000000000000000000000000000000000000000000010010000000000000000000000010001000000000000000000000000000000000000000000000001110100000000000000110000000000000000000000000000000000000000011100000001100000000000000000000000000000000000000000000000011000000000000000000010000011000000000000000000000000000000000000000000000000100001100010000000010010000000000000000000000000000000000000001101100000111000000000000000000000000000000000000000000000000000000000000000000000100000001000010000000000000000000000111000000000000000000001110011111000000011000000000000000000000000000000000000000001110000000000000000000000000000000000000000000000000000000000000000000000000000001000000010111000000000000000000000001000110000000000000010000100110111000000000000000000000000000000000000000000000000001100000000000010000000000000000000000000000000000000000000000000000000000000000000000000011100000000000000110000000101100000000000000000011110001111100000000000000000000000000000000000000000000000000000000000000011100000000000000000000000000000000000000000000000000000000000000000000000000010000000000000010010000000000110000000000000000100100000100000000000000000000000000000000000000000000000000000000100000000111000000000000000000000000000000000000000000000000000000000000000000000000000000000000000000011000000000001110000000000000000110000000000000000000000000000000000000000000000000000000000000001100001000000000000000000000000000000000000000000000000000000000000000000000000011100000000000000000000000000000010011000000000000000101100000000000000000000000000000000000000000001100000000000000000000000101000010000000000000000001000000000000000000000000000000000000000000000000000000000000000000000000000000000110000000000000000010000000000000000000000000000000000000000000000011000000000000000000000001000000111000000000000000101000000000000000000000000000000000000001100000000000000000000000000000000000000000101000001000000000001100000000000000000000000000000000000000000000000000000000000000000000000100000011000000000000000100000000000000000000000000000000011000100100000000000000000000000000000000000000000100000010000000000111000000000000000000000000000000000000000000000000000000000000000000001100000000000000000000000000000000000000000000000000000000000011001101100000000000000000000000000000000000000000000000100000000000000000000000000000000000000000000000000000000000000000000000000000000100010100010100000000000000000000000000000000000000000000000010100000000000000000000000000000000000000000000110000000000000000000000000000000000000000000000000000000000000000000000000000000000000000000001111000010000000000000000000000000000000000000000000000000101000010001000000000000000000000000000000000010010001100000000000000000000000000011000000000000000000000000000000000000000000000000000000100000100000000000000000000000000000000000000000000000000000000001100000001000000000000000000000000000000000100100100100000000000000000000000000110000000000000000000000000000000000000000000000000000001100010000000000000000000000000000000000000000000000000000000111101000010111110000000000000000000000000000000110000110000000000000000000000000000000000000000000000000000000000000000000000000000000000000010000000000000000000000000000000000000000000000000000000000000000000011000100000000000000000000000000000000000000000000000000000000000000000000000000000000000000000000000000000000000000000000000000000000000000000000000000000000000000000000000000000000000000000000000000001001100000000000000000000000000000000000000000000000000000000000110000000000000000000000000000000000000000000000000000000000000000000000000000000000000000000000000000001000000000000000000000000000000100010000100000000000000000000000000000000000000000000000000000010010000000000000000000000000000000000000000000000000000000000000000000000000000000000000000000000000000101000000000000000000000000000111011000100110000000000000000000000010000000000000000000000000000100100000000000000000000000000000000000000000000000000000000000000000000000000000000000000000000000000001010000000000000000000000011000010000000001100000000000000000000000100000000000000000000000000000110000000000000000000000000000000000000000000000000000000000000000000000000000000000000000000000000000001000000000000000000000100010010000000011110000000000000000000000001000000000000000000000000000000000000000000000000000000000000000000000000000000000000000000000000000000000000000000000000000000000000000000000000000000000001110000010000000011000000000000000000000000000000000000000000000000000000000000000000000000000000000000000000000000000000001000000000000000000000000000000000000000000000000000000000000000000000000000011100001000000001100000000000000000000000000000000000000000000000000001100000000000000000000000000000000000000000000000000101100000000000000000000000000000000000000000000000000100000000000000000000000000000000000001010000000000000000000000000000000000000000000000000000100100000000000000000000000000000000000000000000000001011000000000000000000000000000000000000000000000000001000000000000000000000000000000100000010111100000000000000000000000000000000000000000000000000110000000000000000000000000000000000000000000000000001001000000000000000000000000000001000000000000000000010000000000000000000000001101101100000010111100000000000000000000000000000000000000000000000000000000000000000000000000000000000000000000000000000001100000000000000110000000000000010000000000000000000000000000000000000000000011111011000000000001000000000000000000000000000000000000000000000000000000000000000000000000000000000000000000011000000000011000000000000011000000000000000100000000000000000000000000000000000000000011101111100000000010001100000000000000000000000000000000000000000000000000000000000000000000000000000000000000000101000000000000000001100000001000000000000000000000000000000000000000000000000000000000001000000000000000010001000000000000000000000000000000000000000000000000000000000000000000000000000000000000000010010000000000000000011000000000000000000111000111000000000000000000000000000000000000000010000000000000000100010000000000000000001000000000000001001000000000000000000000000000000010000000000000000000011000000000011000000000000000000111000000000000000000000000000000000000000000000000000000000000000000000000101000000000000000000101000000000000100001000000000000000000000000000000100000000000000000000100000000000110000000000000000011110000000001000000000000000000000000000000000000000000000000000000000000000100000000000000000001001000000000000011010000000000000000000000000000001000000000000000000000000000000000000000000000000011010010000000010000000000000000000000000000000000000000000000000000000000000000000000000000000000001100000000000101001000000000000000000000000000000000000000000000000000000000000000000000000000000000110110100000000100000000000000000000000000000000000000000000000000000000000000000000000000000000000000000000000001100000000000000000000000000000000000000000000000000000000000000000000000000000000000000100001000000000000000000000000000000000000000000000000000000000000000000000000000000000000000000000000000000000011100000000000000000000000000000000000000000000000000000000000000000010000000000000000001001000000000000000000000000000000000000000000000000000000000000000000000000000000001110000000000000000000000000101000000000000011100000000000000000000000000000000000000000000000110111000000000000000001110000000000000000000000000000000000001100000000000000000000000000000000000000000000000000000000000000000000011011000000000000000000000000000000000000000000000000000000000000000100001000000000000000000000000000000000000000000000000000000011000000000000000000000000000000000000000010000010000000000000000000000100010000000000000000100000000000000000000000000000000000000000000000100110000000000000000000000000000000000000000000000000000000000000000000000000000000000000000000000000100000100000000000000000000000010100000000000000001000000000000000000000000000000000111000000000000000000000000000000000000000000000000000000000000000000000000000000000000000000000000000000000000000001000001000000000000000000100001000000000000000000010000000000010000000000000000000000000000000000000000000110000000000000000000000000000000100000000000000000000000000000000000011000000000000000000000000000000000000000000000010100001100000000000000000000000000001010000000000000000000000000011110000000000001100000000000000000000000000110000100000000000000000000000000000110000110000000000000000000000000000000000000000000000101001000000000000000000000000000000010100000000000000000000000000111111000000000000100000110000000000000000010001000000000000000011000000000000001100000000000000000000000000000000000000000000000000000100011001000000000110000000000000000010000000000000000000000000000100000000000000111000010010000000000000000011111010000000000001010000000000011000000000000000000000000000000000000000000000000000000000000001100000011010000000000000000000000000000000000000000000000011000000000000100100000011000000000000000000011111000000000001110100000000000101000000000000000000000000000000000000000000000000000000000000001100011100101000000000000000000000000000000000000000000001110100000000000110000000000000000000000000000000010000000000000001000000000000010000000000000000000000000011100000000000000000000000000000000011100011011100000000000000000000000000000000000000000000100000101000000000000000000000000000000000000000000000000000000100010000000000001100011000000000000000000000000000000000000000000000000000000010100001101110000000000000000000000000000000000000000000000100100000000000000000000000000000000000000000000000000000000000111000000000000000001001000000000000000000000000100000000000000000000000000001110110001110100000000000000000000000000000000000000000000001101000000000000000000000000000000000000000000000000000000000000000011000000000000001010000000000000000000000001000000000000000000000000000010010000000100111000000000000000000000000000000000000000000000100001000000000000000000000000000000000000000000000000000000000001001000000000000001000000000000000000000000010000000000000000000000000000001000000000010010000000000000000000000000000000000000000000000000011011000000000000000000000000000000000000000000000000000000001010000000000000000000000000000000000000000000000000000000000000000000010000100000000100100000000000000000000000000000000000000000000000000010110000000000000000000000000000000000000000000000000000000001000000000000000000000000000000000000000000000000000000000000000000000010101000000001110000000000000000000000000000000000000000000000010000000000000000000000000000000001100000000000000000000000000000000000000000000000000000000000000000000000000000000000000000000000000000100001000000000000000000000000000000000000000000000000000000001010000000000000000000000000000000011000000000000000000000000000000000000000000000000000000000000000000000000000000000000000000000000000000101011000000000000000000000000000000000000000000000000000000010100000000000000000000000000000000000000000000000000000000000000000000000000000000000000000000000000000000000000000000000000000000000000000010011000000000000000000000000000000000000000000000000000000010000000000000000000000000000000000000000000001100000000000000000000000000000000000000000000000000000000000000000000000000000000000000000001100100000000000000000000000000000000000000000000000000000000000000000000000000000000000000000000000000000011000000000000000000000000000000000000000000000000000000000000000000000000000000000000000000001110000000000000000000000000000000000000000000000000000000000000000000000000000000000000000000000000000000000000000000000000000000000000000000000000000000000000000000000000000000000000000000000000000001000000000000000000000000000000000000000000000000000000000000000000000000000000000000000000000000000000000000000000000000000011000000000000000000000000000000000000000000000000000000000000000000000000000000000000000000000000000000000000000000000000000000000000000000000000000000000000000000000000000000000000000000000000000000110000000000000000000000000000000000000000000000000000000000000000000000000000000000000000000000000000000000000000000000000000000000000000000000000000000000000000000000000000000000000000000000000000000000000000000000000000000000000010000000000000000000000000000000000000000000000000000000000000000000000000000000000000000000000000000000000000000000000000000000000000110000000000000000000000000000000000000000000000000000000000000001010000000000000000000000000000000000000000000000000000000000000000000000000000000000000000000000000000000000000000000000000000000000001010000000000000000000000000000000000000000000000000000000000000010100000000000000000000000000000000000000000000000000000000000000000000000000000000000000000000000000000000000011000000000000000000000001000000000000000000000000000000000000000000000000000000000000000010000000000000000000000000000000001100000000000000000000000000000000000000000000000000000000000000000000000001001000000001100000011000000000000000000000000000000000000000000000000000000000000000000000000000000000000000000000000000000011000000000000000000000000011000000000000000000000000000000000000000000000001100000000011000001001000000000000000000000000000000000000000000000000111000000000000110000000110000000000000000000000000000000000000000000000000000000110000000000000000000000000000000000000000000000000000000000000000010100000000000000000000000000000000000000000000000000000000000000001100000010010000000000000000000000000000000000000000000000000000000000000000000000000000000000000000000000000000000000000000000000000010000000000000000000000000000000000000000000000000000000000000000000000000011000000000000000000000000000000000000000000000000000000000000000000000000000001100000000000000000000000000000000000000000000000000000000000000000000000000000000000000000000000000000000000000000000000000000000000000000000000000000000000000000000000000000000000000000000000000000110000000000000000000000000000000000000000000000000000000000000000000000000000000110000000000000000000000000000000000000000000000000000000000000000000000000000000000000000000000000000000000000000001101100000000000000000000000000000000000000000000000000000000000000000000000000000010010000000000000000000000000000000000000000000000000000000000000000000000000000000000000000000000000000000000000000000011000000000000000000000000000000000000000000000000000000000000000000000000000000101000000000000000000000000000000000000000000000000000000000000000000000000000001110000000000000000000000000000000000000010000000000000000000000000000000000000000000000000000000000000000000000000000000100000000000000000000000000000000000000000000000000000000000000000000000000000000000000000000000000000000000000000000000101000000000000000000000000000000000000000000000000000000000000000000000000000000000000000000000000000000000000000000000000000000000001100110000000000000000000000000000000000000000000000000000000000001010000000000000000000000000001000000000000000000000000000000000000000000000000000000000000000000000000001110000011000000000000000000011001100000000000000000000000000000000000000000000000000000000000100100000000000000000000000000101000000000000000000000000000000000000000000000000000000001100000000000000000000000000000000000000001100000000000000000000000000000000000000000000000000000000000000011101110000000000000000000000000001010000110000000000000000000000000000000000000000000000000100100000000000000000000000110000000000000011000000000000100000000000000000000000000000000000000000000000000000000000000000000000000000000000001000010010000000000000000000000000000000000000000000000001010000000000000000000000011000000000000000000000000000010100000000000000000000000000000000000000000000000000000000000000000000000000000100000000000011000000000000000000000000000000000000000001000000001000000000000000000000000000000000000000000000000000000101000000000000000000000000000000000000000000000000000000000000000000000000110001000000000000000000000000000000000000000000000000000000101000000000000000000000000000011000000000000000000000000000000000100000000000000000000000000000000000000000000000000000000000000000000000010001110000000000000000000000000110000000000000000000000000000110000000000000000000000000011010000000000000000000000000000000000000000000000000011000000000000000000000000000000000000000000000011000000101000000000000000000000000000010100000000000000000000000000000000000000000000000000000000110100100000000000000000000000000000000000000000000000110000000000000000000000000000000000000000000001001000011000000000000000000000000000000010000000000000000000000000000000000000000000000000000000001110011100000000000000000000000000000000000000000000000000000000000000000000000000000000000000000000010100000011000000000000000000000000000000000000000000000000000000000000000000000000000000000000000000010001100000000000000000000000000000000000000000000000000000000000000000000000000000000000000000000010000000111000000000000000000000000000000000000000000000000000000000000000000000000000000000000000000000011000011000000000000000000000000000000000000000000000000000000000000000000000000000000000000000000000001010000000000000000000000000000000000000000000000000000000000000000000000000000000000000000000000000000101000000000000000000000000000000000000000000000000000000110000000000000000000000000000000000000110100000000000110000000000000000000000000000000000000000000000000000000000000000000000000000000000000001011000000000000000000000000000000000000000000000000000110010000000000000000000000000000000000011000100000000000000000001100000011000000000000001100000000000000000000000000000000000000000000000000000001100000000000000000000000000000000000000000000000000011010100000000010000000000000000000000000000001000001001000000000011000000110000000000000100100000000000000000000000000000000000000000000000000000010000000000000000000000000000000000000000000000010000101101000000000100000000000000000000000010000000000010010000100000000001000000000000000000101000000000000000000000000000000000000000000000000000000000000000000000000000000000000100000000000000001101100111100000000001000000000000000000000000000000000000011111001100000000101000000000000000000100000000001000000000000000000000000000000000000000000100000000000000000000000000000001000000000000000001011000110000000110000000000000000000000000000110110000000000000111000000001001000000000000000000000000000101000000000000000000000000000000000010010010110000000000000000000000000000010000000000000000110110000000000001100000000111000000000000000000010000000000000011101100000001100000000010011100000000000001010000000000000000000000000000000000100101100010000000000000000000000000000000000000000000011010000000000000000000000000000000000000000000000000000000000001011100000000000000000001010000000000000000001000000000000000000000000000000000000001101010100011100000000000000000000000000000000000000010110000000000000000000001100000111011000000000000000000000011000001000000000000000000000000000000000000000000000000000000000000000000000000000111011010011100010000000000000000000000000000000000000000011000010000000001101000011000010010101000000110000000000000000000000000000000000000010001000000000000000000000000000000000000000000000000000001100011100000011000000000000000000000000000000000000000000000001100000000111010000000000000101100000010010000000000001111000100000000000000000000110000000000000000000000000000000000000000000000000000000000001000000110000000000000000000000000000000000000000000000110010000001100000000000000000110000000100100000000000000111001000000000000000000000001000000000000000000000000000000000000000000000000000000001100000001100000000000000000000000000000000000000000000011001110000000111000000000100001000000000110000000000000010010001000000000000000001010001000000000000000000000000000000000000000000000000000000011100000000000000000000000000000000000000000000000000000011000100000001110000110000111100000000000000000000000000100010010000000000000000001000010000000000000000000001000000000000000000000000000000000000000000000000000000000000000000000000000000000000000000010000100000011000001100000010000000000000000000000000001000100100000000000000000001101100000000000000000000101000000000000000000000000000000000000000000000000000000000000000000000000000000000000000000000000000000100000000000000000000000000000000000000000010000100100000000000000000011100000000000000000000001010000000000000000000000000000000000000000000000000000000000000000000000000000000000000000000011100000000000000000000000000000000000000000000000000100001010000000000000000000000000000000000000000000001000000000000000000000000000000000000000000000000000000000000000000000000000000000000000000000000000000000000000000000000000000000001000000000000000000001000000000000000000000000000000000000000000000000000000000000000000000000000000000000000000000000000000110000000000000000000000000000000000000000000000000000000000000000000000000010000000000000000000000000000000000000000000000000000000000000000000000000000000000000000000000000010000000000000000000000001100000000000000000000000000000000000110000000000000000000000000000000000000100000000000000000000000000000000000000000000000000000000000000000000000000000000000000000000000000100000000000000000000000000000000000000000000000000000111000001100000000000000011000000000000000000000000000000000000000000000000000000000000000000000000000000000000000000000000000000000000000000000001000000000000000000000000000000000000000000000000000000000000000000000000000001001000000001100000000000000000000100000000000000000000000000000000000000000000000000000000000000000000000000000000000000000000000000000000000000000000000000000000000000000000000000000000000000000000010010000000101000000000000000000011000000000000000000000000000000000000000000000000000000000000000000000000000000000000000000000000000000000000000000000000000000000000000000000000000000000000000000000011000000000100000000000000000000101000000000000000000000000000000000000000000000000000000000000000000000000000000000000000000000000000000000000000000001100000000000000000000000000000000000000000000000000000000000000000000000000000000000000000000000000000000000000000000000000000000000000000000000000000000000000000000000000000000000000000110000000000100100000000000000000000000000000000000000000000000000000000000000000000100000000000000000000000000000000000000000000000000000000000000000000000000000000000000000000000000000000000000000001100000000000110000000000000000000000000000000000000000000000000000000000000000000010100000000000000000000000000000000000000000000000000000000000000000000000000000000000000000000000000000000000000000000000000000000000000000000000000000000000000000000000000000000000000000000000000001010000000000000000000000000000000000000000000000000000000000000000000000000000000000000000000000000000000000000000000000000000000000000000000000000000000000000000000000000000000000000000000000000000101000000000000000000000000000000000000000000000000000000000000000000000000000000000000000000000000000000000000000000000000000000000000000000000000000000000000000000000000000000000000000000000000000000100000000000000000000000110000000000000000000000000000000000000000000000000000000000000000000000000010000000000000000000000000000000000000000000000000000000000000000000000000000000000000000000000000000000000000000000000000001100000000000000000000000000000000000000000000000000000000000000000000000000100000000000000000000000000000000000000000000000000000000000000000000000000000000000000000000000000000000000000000000000000000000000000000000000000000000000000000000000000000000000000000000000000000001000000000000000000000000000001000000000000000000000000000000000000000000000000000000000000000000000000000000000000000000000000000000000000000000000000000000000000000000000000000000000000000000000000000000000000000000000000000000101000000000000000000000000000000000000000000000000000000000000000000000000000000000000000000110000000000000000000000000000000000000000000000000000000000000000000000000000000000000000000000000000000001010000000000000000000000000000000000000000000000000000000000000000000000000000000000000000000010000000000000000000000000000000000000000000000000000000000000000000000000000000000000000000000000000000001000000000000000000000000000000000000000000000000000000000000000000000000000000000000000000011000000000000000000000000000000000000000000000000000000000000000000000000011100000000000000000000000000000000000000000000000000000000000000000000000000110000000000000000000000000000000000000000000000000000000000000000000000000000000000000000000000000000000000000000000000000000000000000000000000000000000000000000000000000011000000000000000000000000001100000000000000000000000000000000000000000100000000000000000000000000000000000000000000000000000000000000000000000000000000000000000000000000000000000000000000000000000000110000111000000000000000000000000000000000000000000000000000000000000011000000000000000000000000000000000000000000000000000000000000000000000000000000000000000110000000000000000000000011000000000000000000000000000000000000000000000000000000000000000000000000000000000001100000001000000000000000000000000000000000000000000000000000000000000000000000000000000001010000000000000000000000110000000000000000000000000000000000000000000000000000000000000000000000000000000000001100000101000000000000000000000000000000000000000000000000000000000000000000000000000000001100000000000000000000000000000000000000000000000000000000000000000000000000000000000000000000000000000000000000000000000000000000000000000000000000000000000000000000000000000000000000000000000000000000000000000000000000000000000000000000000000000000000000000000000000000000000000000000000000000000000000000000000000000000000000000000000000000000000000000000000000000000000000000