P1
200 200
0000000000000000000000000000000000000000000000000000000000000000000000000000000000000000000000000000000000000000100000000000000000000000000000000000000000000000000000000000000000000000010000000000000000000000000000000000000000000000000000000000000000000000000000000000000000000000000000000000000000000000010000010100000000000000000000000000000000000000000000000000000000000000000000001010000000000000000000000000000000000000000000000000000000000000000000000000000000000000000000000000000000000000000000001010000100100000000100000000000000000000000000000000000000000000000000000000000010100000000000000000000000000000000000000000000000000000000000000000000000000000000000000000000000000000000000000000000011000000110000000010100000000000000000000000000000100000100000000000000000000000010000100000000000000000001000000000000000000000000000000000000000000000000000000000000000000000000000000000000000000000000000000000000000101000000000000000000000000000001000010100000000000000000000000000001000000000000000000010000000000000000000000000000000000000000000000000000000000000000000011000000000000000000000000000000000000000000100000000000000000000000000000010000100100000000000000000000000000010000000000000000000000000000000000000000000000000000000000000000000000000000000000000000110000000000000000000000000000000000000000000000000000000000000000000000000000000110000000000000000000000000000000000000000000000000000000000000000000000000000000000000000000000000000000000000000000000000000000000000000000000000000000000001100000001100000000000000000000000000000000000000000001100000000000000000000000000000110000000000000000000000000000000000000000000000000000000000000000000000000000000000000000000000000000000000000000100100000100100000000000000000000000000000000000000000011000000000000000000000000001011100000000000000000000000000000000000000000000000000000000000000000000000000000000000000000000000000000000000000000110000000110000000000000000000000000000000000000000000000000000000000000000000000010111000000000000000000000000000000000000000000000000000000000000000000000000000000000000000000000000000000000000000000000000000000000000000000000000000000000000000000000000000000000000000000000100000101110000011000000000000000000000000000000000000000000000000000000000000000000000000000000000000000000000000000000000000000100000000000000000000000000000000000000000000000000000000000000000000001110000010100000110000000000000000000000000000000000000000000000000000000000000000000000000000000000000000000000000000000000000010100000000000000000000000000000000000000000000000000000000000000000000000110000110000000000000000000000000000000000000000000000000000000000000000000000000000011100000000000000000000000000000000000000101000000000000000000000000000000000000000000000000000000011000000000000011000011111000000000000000000000000000000000000000000000000000110000000000000000000000000000000000000000000000000000000000000000100000000000000000000000000000000000000000000000000000001001000000000001110000000101000000000000000000000000000000000000000000000000010010000000000000000000100000100000000000000000000000000000000000000000000000000000000000000000000000000000000000000000000010100000000011111000000011011000000000000000000000000000000000000000000000000101000000000000000000001000001000000000000000000000000000000000000000000000000000000000000000000000000000000000000000000000010000000000001000000000100100000000000000000000000000000000000000000000000000100000000000000000000010000010000000000000000000000000000000000000000000000000000000000000000000000000000000000000000000000000000000000000000000011010000000000000000000000000000000000000000000000000000000000000000000000000000000000000000000000000000000000000000000000000000000000000000000000000000000000000000000011000000000000000000000000000011000100000000000000000000000000000000000000000000000000000000000000000000000000000000000000000000000000000000000000000000000000000000000000000001110000000000000000000000110000000000000000000000000000100100000000000000000000000000000000000000000000000000000000000000000000000000000000000000000000000000000000000000000000000000000000000000000001100010000000000000000000000000000000000000000000000010000111000000000000000000000000000000000000000000000000000000000000000000000000000000000000000000000000000000000000000000000000000000000000000000000000010000000000000000000000000000000000000000000001010000000000000000000000000000000000000000000000000000000000000000000000000000000000000000000100000000000000000000000000000000000000000000000000000101000000000000000000000000000000000011000000000000000100000000000000000000000000000000000000000000000000000000000000000000000000000000001100000001100000000000000000000000000000000000000000000000000000100011000000000000000000000000000001010000000000000000000000000000000000000000000000000000000110000000000000000000000000000000000000000010010100100100000000000000000000000000000000000000000000000000000000000000000000000000000000000000010100000000000100000000000000000000000000000000000000000010010000000000000000000000000000000000000000011101000110000000000000000000000000000000000000000000000000000000000000000000000000000000000000001100000100000000110000000000000000000000000000000000000000100100000000000000000000000000000000000000000010001001100000000000000000000000000000000000000000000000000000000000000000000000000000000000000001010010100000000000000000000000000000000000011000000000000110000000000000000000000000000000000000000000001100000000000000000000000000000000000000000000000000000000000000110000000000000000000000000000001101000000000000000000000000000000000000001011000000000000000000000000000000000000000000000000000000000010000000000000000000000000000000001000000000000000000000000000010100001100000000000000000000000000001100000000000000000000000000000000000110110000000110000000000000000000000000000000000000000001100000010000000000000000000000000000000101000000000000000000000000000010000011000000000000000000000000000000000000000000000000000000000000000011111100111001100000000000000000000000000000000000000000011000000110000000000000000000000000000001010000000000000000000000000000000000000000000000000000000000000000000000000111000000000000000000000000010010000010000000000000011000000000000000000000000000000000000001100000000000000000000000000000001000000000000000000110000000000000000000000000000000000000000000000000000010001000000000000000000000000010000010100000000000001001000000000000000000000000000000000000000000000000000000000000000000000000000000000000000001010000000000000000000000000000000000000000000000000000000001000000010000000000000000111000110000000000000010100000000000000000000000000000000000000000000000011100000000000000000000000000000000000000001000000000000000000000000000000000000000000000000000000000100000001010000000011000000000000000000000000000010000000000000000000000000000000000000000000000000000101110000000000000000000000000000000000000000000000000000000000000000000001000000000000000000110010000000010010000000001000000000000000000000000000000000000000000000000000000000000000000000000000001000000000000000000000000000000000000000000000000010000000000000000000000000101000000000000000010000100000000011000000010100000000000000000000000000000000000000000000000000000000000000000000000000000001010000010000000000000000000000000000000000000001010000000000000000000000001010000000000000000100100000000000000000000100000000000000000000000000000000011000000000000000000000111000000000000000000000001000000100000000000000000000000000000000000100010100000000000000000000000001000000010000111000111000000000000000000000000000000000000000000000000000000110000000000000000000000000000000000000000000000000000001000000000000000000000000000000000010100010000000000000000000000000000000000100000000000000000000000000001100000000000000000000000000000000000000000000000000000000000000000000000000000000010000010000000000000000000000000000000000000000101000000000000000000000000000000000000001000000000000000000000000000010100000000000000000000000000010000000000000000000000000000000000000000000000000001010010100100000000000000000000000000000000000000100000000000000000000000000000000000000000000000000000000000000000000010000000000000000000000000001010000000000000000000000000000000000000000000000000100010000010100000000000000000000000000000000000000000000000000000000000000000000000000000000000000000000000000000000000000000000000000000000000000010010000000000000000000000000000000000000000000000000101001000100000000000000000000000000000000001100000001100000000000000000000000000000000000000000000000000000000000000000000000000000000000000011000011000000000000000000000000000000000000000000000000000100000000001000000000000000000000000000000101000000100100000000000000000000000000000000000000000000000000000000000000000000000000000000000000110000000000000000000000000000000000000000000000000000000000000001000010000000000000000000000000000000000000000110000000000000000000000000000000000000000000000000011000000000000000000000000000000000000000000000000000000000000000000000000000000000000000000000000000010001000000000000000000000000000000000000000000000000000000000011000000000000000000000000000000000110000000000000000000000000000000000000000000000000000000000000000000000000000000000000000000000000000011100000000000000000000000000000000000001100000000000000000001001000000000000000000000000000000000000000000000000000000001000000001110000000000000000000000000000000000000000000000000000000000000000000000000000000000000000000000000000000000000001000000000000000001100000000000000000000000000000000000000000000000000000000001000000000000000000000000000000000000000000000000000000000000000000000000000000000000000000000000000000000000000000000000110000000000001000000000000000000000000000000000000000000000000000000111000000100000010000010000000000000000000000000000000000000000000000000000000000000001110000000000000000000000000000000011100000000000000000000111000000000000000000000000000000000000000000000000000000000000001001000100000100000000000000000000000000000000000000000000000000000000000000000000000000000000000000000000000001000011000000000000000010011000000000000000000000000000000000000000000000000000000000000000001001000001000000000000000000000000000000000000000000000000000000000000000000000000000000000000000000000000010000110000000000111000110001000000000000000000000000000000000000000000000000000000000000010100000000000000000000000000000000000110000000000000000000000000000000000000000000000000000110000000000000000100001100000000000000000000011000000000000000000000000000000000000000000000000000000000000010000001110000000000000110000000000001100000000000000000000000000000000000000000000000000001100000000000000000111000000000001100000000000111000000000000000000000000000000000000000000000000000000000000000000000000000000000001100000000000000000000000000000000000000000000000000000000000000000000000000000000000000000000000000010000100000001100000000000000000000000000000000000000000000000000000000000000000000000000000000000000000000000000000000000000000000000000000000000000000000000010000000000000000000000000000000000000000100000001100010000000000000000000000000000000000000000000000000000000000000000000000000000000000000000000000000000000000000000000000000000000000000000000000000100000000000000000000000000000000000000000100100010011000000000000000000000000000000000000000000000000000000000000000110000000000000000000000110000011000000000000000000000000000000000000011000000000001000000000000000000000000000000000000000000010000011100000000000000000000000000000000000000000000000000000000000000001101100000000000001100010010000110000000000000000000110000000000000000101000000000000000000000000000000000000000000000000000000000000010000000000000000000000000000000000000000000000000000000000000000000000000000000000011000010100000000000000000000000011000000000000000000100000000000000000000000000000000000000000000000000000000000000000000000000000000000000000000000000000000000011000000000000000111100000000000000000000000010000000000000000000000000001000000000000000000000000000000000000000000000000000000000000000000000000000000000000000000000000000000000000000000000000000001001000000000000001011000000000000000000000000000000000000000000000000000000000000000000000000000000000000000000000000000000000000000000000000000000000000000000000000000000000000000000000000000000000010010000000000000000100000000000000000000000000000000000000000000000110000000000000000000000000000000000000000000000000000000001000000000000000000000000000000000000000000000000000000000000110000000000011000000000000000101000100000000000000000000000000000000000000000001100000000000000000000000000000000000000000000000001100000010000000000000000000000000000000000000000000000000000000000001100000000000000000000000000100010011000000000000000000000000000000000000000000000000000000000000000000000000000001100000000000000011000000100000000000000000000000000000000000000000000000000000000000000000000000000000000000000000001100001100000000000000000000000000000000000000000000000000000000000000000000000000100100000000000000000000000000000000000000000000000000000000000000000000000000000000000000000000000000000000000000001011011000000000000000000000000000000000000000000000000011000000000000000000000000000110000000000000000000000000000000000000000000000000000000000000000000000000000000000000000000000000000000000000001010000100100000000000000000000100000000000000000000000001010000000000000000000000000000000000000000000000000000000000000000000000000000000000000000000000000000000000000000000000000000000000000000000011011101000100000000000000000010100000000000000000000000010100000000000000000000000000000000000000000000000000000000000000000000000000000000000000000000000000000000000000000000000000000000000000000000000001111000100000000000000000101000000000000000000000000101100000000000000000000000000000000000000000000000000000000000000000000000000000000000000000000000000000000000000000000000110000000000000000000000000101110000000000000000000100000000000000000000000000000100000000000000000000000000000000000000000000000000000000001110000000110000000000000000000000000000000000000000000000010010000000000000000000000000001100000000000000000000000000000000000000000000001000110000000000000110000000000000000000000000000000000000000100010000010010000000000000000000000000000000000000000000000011000000000000000000000000011100000000000000000000000000001000000000000000000010000100010000000010010000000000000000000000000000000000000001000100000101000000000000000000000000000000000000000000000000000000000000000000001110000001101100000000000000000000000110000000000000000000000000110000100000011000000000000000000000000000000000000000010000000000100000000000000000000000000000000000000000000000000000000000000000000000000000010001000000000000000000000010001000000000000000001000101000001000000000000000000000000000000000000000000000000010100000000000010000000000000000000000000000000000000000000000000000000000000000000000000000010000000000000110000000011100100000000000000111111001000010000000000000000000000000000000000000000000000000000000000000010010000000000000000000000000000000000000000000000000000000000000000000000000111000000000000010010000000000001000000000000000100100000100000000000000000000000000000000000000000000000000000000110000000101000000000000000000000000000000000000000000000000000000000000000000000100000000000000000000011000000000010010000000000000000001000000000000000000000000000000000000000000000000000000000000001100001000110000000000000000000000000000000000000000000000000000000000000000000001000000000000000000000000000000011110100000000000000011100000000000000000000000000000000000000000001100000000000000000000000100000010000000000000000001000000000000000000000000000000000000000000000000010000000000000000000000000000000110110000000000000001001000000000000000000000000000000000000000000011000000000000000000000000000000101100000000000000101000000000000000000000000000000000000001100000000000000000000000000000000000000001100000000000000000000100000000000000000000000000000000000000000000000000000000000000000000111000000011000000000000000100000000000000000000000000000000011100100110000000000000000000000000000000000000000100000111000000000101000000000000000000000000000000000000000000000000000000000000000000001010100000010000000000000000000000000000000000000000000000000001001111100000000000000000000000000000000000000000000000000000000000100000000000000000000000000000000000000000000000000000000000000000000011010100001000000000000000000000000000000000000000000000000000100011101000000000000000000000000000000000000110000000000000000000000000000000000000000000000000000000000000000000000000000000000000000000001001000010000000000000000000000000000000000000000000000000001000000000000000000000000000000000000000000010010001100000000000000000000000000011000000000000000000000000000000000000000000000000000000110010010000000000000000000000000000000000000000000000000000010000100000100010000000000000000000000000000000100100100100000000000000000000000000110000000000000000000000000000000000000000000000000000001100000000000000000000000000000000000000000000000000000000000011101000000001110000000000000000000000000000000110000110000000000000000000000000000000000000000000000000000000000000000000000000000000000000000000000000000000000000000000000000000000000000000000000000110000000010000000000000000000000000000000000000000000000000000000000000000000000000000000000000000000000000000000000000000000000000000000000000000000000000000000000000000000000000000000000000000000000000000000101011100000000000000000000000000000000000000000000000000000000000110000000000000000000000000000000000000000000000000000000000000000000000000000000000000000000000000000001000000000000000000000000000000101011000010000000000000000000000000000000000000000000000000000010010000000000000000000000000000000000000000000000000000000000000000000000000000000000000000000000000000101000000000000000000000000000001001000001010000000000000000000000000000000000000000000000000000100100000000000000000000000000000000000000000000000000000000000000000000000000000000000000000000000000001010000000000000000000000011001011000001000000000000000000000000001110000000000000000000000000000110000000000000000000000000000000000000000000000000000000000000000000000000000000000000000000000000000001000000000000000000000101010001000000010001000000000000000000000000000000000000000000000000000000000000000000000000000000000000000000000000000000000000000000000000000000000000000000000000000000000000000000000000000000000010011000110000000000100000000000000000000000000000000000000000000000000000000000000000000000000000000000000000000000000000001100000000000000000000000000000000000000000000000000000000000000000000000000010100000000000011010000000000000000000000000000000000000000000000000001100000000000000000000000000000000000000000000000000100100000000000000000000000000000000000000000000000000000000000000000000000000010000000000000000000000000000000000000000000000000000000000000000000100100000000000000000000000000000000000000000000000001000100000000000000000000000000000000000000000000000011100000000000000000000000000001110000010000010000000000000000000000000000000000000000000000000110000000000000000000000000000000000000000000000000001001000000000000000000000000000000000000000000000000000000000000000000000000001000100000000010000100000000000000000000000000000000000000000000000000000000000000000000000000000000000000000000000000000010010000000000001110000000000000111000000000000000000000000000000000000000000000000000000000011001000000000000000000000000000000000000000000000000000000000000000000000000000000000000000000011000000000011000000000000010000000000000000000000000000000000000000000000000000000000000000000110000000000001100000000000000000000000000000000000000000000000000000000000000000000000000000000000000001101000000000000000001100000010000000000001000001000000000000000000000000000000000000000001001110000000000110001100000000000000000000000000000000000000000000000000000000000000000000000000000000000000010010000000000000000011000000000001000000010000010000000000000000000000000000000000000000000000000000000000110110000000000000000001000000000000000000000000000000000000000000000000000000000000000000000111000000000011000000000000000001001000000100000100000000000000000000000000000000000000000000000000000000000111000000000000000000101000000000000011101000000000000000000000000000001110000000000000000000110000000000110000000000000000100001000000000000000000000000000000000000000000000000000000000000000000000000100000000000000000001001000000000001111010000000000000000000000000000000000000000000000000000000000000000000000000000000010000010000000111000000000000000000000000000000000000000000000000000000000000000000000000000000000001100000000000101111000000000000000000000000000000000000000000000000000000000000000000000000000000000000110110000000000000000000000000000000000000000000000000000000000000000000000000000000000000000000000000000000010000000000000000000000000000000000000000000000000000000000000000000000000000000000000000101100000000000000000000000000000000000000000000000000000000000000000000000000000000010000000000000000000000000100100000000000000100000000000000000000000000000000000000000000000000110000000000000000001001100000000000000000000000000000000000000000000000000000000000000000000000000000000100000000000000000000000000000000000000000001000000000000000000000000000000000000000000000000110111000000000000000001110000000000000000000000000000000000001100000000000000000000000000000000000000000001000000000000000000000000011011000000000000010000000000000000000000000000000000000000000000001101001000000000000000001000000000000000000000000000000000000011000000000000000000000000000000000000000000000000000000000000000000000101011000000000000000000000000000000000000000000000000001000000000000000110000000000000000000000000000000000000000000000000000000000000000000000000000000000000000000000001110001110000000000000000000000101000000000000000011100000000000000000000000000000000010000000000000000000000000000000000000000000000000000000000000000000000000000000000000000000000000000000000000000000000000000000000000000000100001000000000000000000000000000000010000000000000000000000100000110000000000000110000000000000000000000000000000000000000000000000000000000000000000011000000000000000000000000000000000000000000000010100011000000000000000000000000000001010000000000000000000000000010000000000000001010000000000000000000000000100000000000000000000000000000000000110000110000000000000000000000000000000000000000000000101001011000000000000000000000000000010100000000000000000000000000000010000000000000100000110000000000000000010001110000000000000011000000000000001100000000000000000000000000000000000000000000000000000100011110000000000100000000000000000010000000000000000000000000000001100000000000101000010010000000000000000010000000000000000001011000000000011000000000000000000000000000000000000000000000000000000000000011000000011110100000000000000000000000000000000000000000000100000000000000000010000011000000000000000000100000100000000000110110000000000101000000000000000000000000000100000000000000000000000000000000000010010000000000000000000000000000000000000000000000000001011000000000000110000000000000000000000000000011010000000000010001100000000000010000000000000000000000000001000000000000000000000000000000000000100000000000000000000000000000000000000000000000000000100111000000000000000000000000000000000000000000000000000000000011010000000000001100011000000000000000000000010000000000000000000000000000000110000001000000000000000000000000000000000000000000000000001111010000000000000000000000000000000000000000000000000000000000111000000000000000001001000000000000000000000000000000000000000000000000000001000100011000101000000000000000000000000000000000000000000001101000000000000000000000000000000000000000000000000000000000000100011000000000000001010000000000000000000000011100000000000000000000000000010011000000101111000000000000000000000000000000000000000000001100001100000000000000000000000000000000000000000000000000000000001001000000000000001000000000000000000000000000000000000000000000000000000000100000000110011000000000000000000000000000000000000000000000000011011000000000000000000000000000000000000000000000000000000001010000000000000000000000000000000000000000000000000000000000000000000000100000000001100100000000000000000000000000000000000000000000000000110110000000000000000000000000000000000000000000000000000000001000000000000000000000000000000000000000000000000000000000000000000000111011100000001110000000000000000000000000000000000000000000000010000000000000000000000000000000001100000000000000000000000000000000000000000000000000000000000000000000000000000000000000000000000000000101101100000001000000000000000000000000000000000000000000000001010000000000000000000000000000000011000000000000000000000000000000000000000000000000000000000000000000000000000000000000000000000000000000010010100000000000000000000000000000000000000000000000000000010100000000000000000000000000000000000000000000000000000000000000000000000000000000000000000000000000000000000000000000000000000000000000000010001000000000000000000000000000000000000000000000000000000010000000000000000000000000000000000000000000001100000000000000000000000000000000000000000000000000000000000000000000000000000000000000000001000110000000000000000000000000000000000000000000000000000000000000000000000000000000000000000000000000000011000000000000000000000000000000000000000000000000000000000000000000000000000000000000000000010010000000000000000000000000000000000000000000000000000000000000000000000000000000000000000000000000000000000000000000000000000000000000000000000000000000000000000000000000000000000000000000000000000011100000000000000000000000000000000000000000000000000000000000000000000000000000000000000000000000000000000000000000000000000011000000000000000000000000000000000000000000000000000000000000000000000000000000000000000000000000000000000000000000000000000000000000000000000000000000000000000000000000000000000000000000000000000000110000000000000000000000000000000000000000000000000000000000000000000000000000000000000000000000000000000000000000000000000000000000000000000000000000000000000000000000000000000000000000000000000000000000000000000000000000000000000010000000000000000000000000000000000000000000000000000000000000000000000000000000000000000000000000000000000000000000000000000000000000110000000000000000000000000000000000000000000000000000000000000001010000000000000000000000000000000000000000000000000000000000000000000000000000000000000000000000000000000000000000000000000000000000001010000000000000000000000000000000000000000000000000000000000000010100000000000000000000000000000000000000000000000000000000000000000000000000000000000000000000000000000000000011000000000000000000000001000000000000000000000000000000000000000000000000000000000000000010000000000000000000000000000000001100000000000000000000000000000000000000000000000000000000000000000000000001001000000001100000011000000000000000000000000000000000000000000000000001000000000000000000000000000000000000000000000000000011000000000000000000000000011000000000000000000000000000000000000000000000001100000000011000001001000000000000000000000000000000000000000000000000010000000000000110000000110000000000000000000000000000000000000000000000000000000110000000000000000000000000000000000000000000000000000000000000000010100000000000000000000000000000000000000000000000000100000000000001100000010010000000000000000000000000000000000000000000000000000000000000000000000000000000000000000000000000000000000000000000000000010000000000000000000000000000000000000000000000000000000000000000000000000011000000000000000000000000000000000000000000000000000000000000000000000000000011100000000000000000000000000000000000000000000000000000000000000000000000000000000000000000000000000000000000000000000000000000000000000000000000000000000000000000000000000000000000000000000000000001000000000000000000000000000000000000000000000000000000000000000000000000000000000110000000000000000000000000000000000000000000000000000000000000000000000000000000000000000000000000000000000000000000000010000000000000000000000000000000000000000000000000000000000000000000000000000010010000000000000000000000000000000000000000000000000000000000000000000000000000010000000000000000000000000000000000000100100000000000000000000000000000000000000000000000000000000000000000000000000000101000000000000000000000000000000000000000000000000000000000000000000000000000000100000000000000000000000000000000000000010000000000000000000000000000000000000000000000000000000000000000000000000000000100000000000000000000000000000000000000000000000000000000000000000000000000000001000000000000000000000000000000000000001100000000000000000000000000000000000000000000000000000000000000000000000000000000000000000000000000000000010000000000000000000000000001100110000000000000000000000000000000000000000000000000000000000011011000000000000000000000000001000000000000000000000000000000000000000000000000000000000000000000000000000100000000000000000000000000011001100000000000000000000000000000000000000000000000000000000101100100000000000000000000000000101000000000000000000000000000000000000000000000000000000001100000000000000001000000101000000000000001100000000000000000000000000000000000000000000000000000000000000001011110000000000000000000000000001010000110000000000000000000000000000000000000000000000000100100000000000000000000001110000000000000011000000000000100000000000000000000000000000000000000000000000000010001000000000000000000000000000001000010010000000000000000000000000000000000000000000000001010000000000000000000000011100000000000000000000000000010100000000000000000000000000000000000000000000000000000000000000000000000000000000000000000011000000000000000000000000000000000000000001000000001000000000000000000000000000000000000000000000000000000101000000000000000000000000000000000000000000000000000000000000000000000000100001100000000000000000000000000000000000000000000000000000101000000000000000000000000000111000000000000000000000000000000000100000000000000000000000000000000000000000000000000000000000000000000000010110110000000000000000000000000110000000000000000000000000000110000000000000000000000000010011000000000000000000000000000000000000000000000000011000000000000000000000000000000000000000000000011000000100001000000000000000000000000010100000000000000000000000000000000000000000000000000000001000111110000000000000000000000000000000000000000000000110000000000000000000000000000000000000000000001001000010000000000000000000000000000000010000000000000000000000000000000000000000000000000000000001001110010000000000000000000000000000000000000000000000000000000000000000000000000000000000000000000010100000000100000000000000000000000000000000000000000000000000000000000000000000000000000000000000001100000000000000000000000000000000000000000000000000000000000000000000000000000000000000000000000000010000001001000000000000000000000000000000000000000000000000000000000000000000000000000000000000000000000011000011000000000000000000000000000000000000000000000000000000000000000000000000000000000000000000000000011000000000000000000000000000000000000000000000000000000000000000000000000000000000000000000000000001101100000000000000000000000000000000000000000000000000001110000000000000000000000000000000000001010110000000000000000000000000000000000000000000000000000000000000000000000000000000000000000000000000001001000000000000000000000000000000000000000000000000001100010000000000000000000000000000000000011101100000000000000000001100000011000000000000001100000000000000000000000000000000000000000000000000000010010000000000000000000000000000000000000000000000000010010110000000000000000000000000000000000100000000000000000000000011000000110000000000000100100000000000000000000000000000000000000000000000000000011000000000000000000000000000000000000000000000111001100001000000001110000000000000000000000000000000000010000000110000000001000000000000000000101000000000000000000000000000000000000000000000000000000000000000000000000000000000000000000000000000001101110000000000000000000000000000000000000000010000000000011110000000000000101000000000000000000100000000001000000000000000000000000000000000000000000110000000000000000000000000000011100000000000000000000101001000000110000000001000000000000000000011100000000011110000000000001001000000000000100000000000000101000000000000000000000000000000000000001110110000000000000000000000000000000000000000000001000010000000000001100000000010000000000000000000111000000000000000001000000001100000000010001000000000000001010000000000000000000000000000000000001100101010000100000000000000000000000000000000000000010000100000000000000000000011100001000000000000000000000000000000000000000000000000000000100010000000000000001000000000000000000000000000000000010100001000000011100000000000000000000000000000000000000110010000000000000000000001100000111011000000000000000000000000000001000000000000000000001000000000000000000000000000000000000000000000000000000101100010011101001000000000000000000000000000000000000000011100110000000010100000011000001010001000000110000000000000000000000000000000000000000011000000000000000000000000000000000000000000000000000001010110110010110100000000000000000000000000000000000000000000010110000000000000000000000000100000000010010000000000000100100000000000000000000000111000000000000000000000000000000000000000000000000000000000001000001001000000000000000000000000000000000000000000001000011000001000100000000000001001000000100100000000000010001001100000000000000000011100000000000000000000000000000000000000000000000000000000001000000001100000000000000000000000000000000000000000000010011010000000001000000000011101100000000110000000000000010011011000000000000000000100011000000000000000000000000000000000000000000000000000000010100000000000000000000000000000000000000000000000000000101100110000010000000110000111100000000000000000000000001110110111000000000000000001010011000000000000000000001000000000000000000000000000000000010000000000000000000000000000000000000000000000000000000110000000000100100001100000011000000000000000000000000011100111110000000000000000010001100000000000000000000101000000000000000000000000000000000000000000000000000000000000000000000000000000000000000000000110000000110000000000000000000000000000000000000000111001101100000000000000000010110000000000000000000001010000000000000000000000000000000000000000000000000000000000000000000000000000000000000000000001000000000000000000000000000000000000000000000000000000001010000000000000000000010000000000000000000000001000000000000000000000000000000000000000000000000000000000000000000000000000000000000000000000010000000000000000000000000000000000000000000000000000000001000000000000000000000000000000000000000000000000000000000000000000000000000000000000000000000000000000110000000000000000000000000000000000000000000000000000000000000000000000000111000000000000000000000000000000000000000000000000000000000000000000000000000000000000000000000000000000000000000000000000001100000000000000000000000000001000000110000000000000000000000000000000000000000000000000000000000000000000000000000000000000000000000000000000000000000000000000000000000000001110000000000000000000000000000000000000000000000000000010000001100000000000000011000000000000000000000000000000000000000000000000000000000000000000000000000000000000000000000000000000000000000000000000000000000000000000000000000000000000000000000000000000100000000000000000000001001000000001100000000000000000001100000000000000000000000000000000000000000000000000000000000000000000000000000000000000000000000000000000000000000000000000000000000000000000000000000000000000000000010010000000101000000000000000000010100000000000000000000000000000000000000000000000000000000000000000000000000000000000000000000000000000000000000000000000000000000000000000000000000000000000000000000011000000000100000000000000000000100000000000000000000000000000000000000000000000000000000000000000000000000000000000000000000000000000000000000000000001100000000000000000000000000000000000000000000000000000000000000000000000000000000000000000000000000000000000000000000000000000000000000000000000000000000000000000000000000000000000000000110000000000100100000000000000000000000000000000000000000000000000000000000000000000100000000000000000000000000000000000000000000000000000000000000000000000000000000000000000000000000000000000000000001100000000000110000000000000000000000000000000000000000000000000000000000000000000010100000000000000000000000000000000000000000000000000000000000000000000000000000000000000000000000000000000000000000000000000000000000000000000000000000000000000000000000000000000000000000000000000001010000000000000000000000000000000000000000000000000000000000000000000000000000000000000000000000000000000000000000000000000000000000000000000000000000000000000000000000000000000000000000000000000000101000000000000000000000000000000000000000000000000000000000000000000000000000000000000000000000000000000000000000000000000000000000000000000000000000000000000000000000000000000000000000000000000000000100000000000000000000000110000000000000000000000000000000000000000000000000000000000000000000000000000000000000000000000000000000000000000000000000000000000000000000000000000000000000000000000000000000000000000000000000000001100000000000000000000000000000000000000000000000000000000000000000000000001110000000000000000000000000000000000000000000000000000000000000000000000000000000000000000000000000000000000000000000000000000000000000000000000000000000000000000000000000000000000000000000000000000000000000000000000000000000000001000000000000000000000000000000000000000000000000000000000000000000000000000000000000000000000000000000000000000000000000000000000000000000000000000000000000000000000000000000000000000000000000000000101000000000000000000000000000000000000000000000000000000000000000000000000000000000000000000010000000000000000000000000000000000000000000000000000000000000000000000000000000000000000000000000000000001010000000000000000000000000000000000000000000000000000000000000000000000000000000000000000000010000000000000000000000000000000000000000000000000000000000000000000000000100000000000000000000000000000001000000000000000000000000000000000000000000000000000000000000000000000000000000000000000000001000000000000000000000000000000000000000000000000000000000000000000000000001000000000000000000000000000000000000000000000000000000000000000000000000000110000000000000000000000000000000000000000000000000000000000000000000000000000000000000000000000000000000000000000000000000010000000000000000000000000000000000000000000000011000001000000000000000000001100000000000000000000000000000000000000001100000000000000000000000000000000000000000000000000000000000000000000000000000000000000000000000000000000000000000000000000000000110000010000000000000000000000000000000000000000000000000000000000000101000000000000000000000000000000000000000000000000000000000000000000000000000000000000000110000000000000000000000011000000000000000000000100000000000000000000000000000000000000000000000000000000000001000000001000000000000000000000000000000000000000000000000000000000000000000000000000000001010000000000000000000000110000000000000000000000000000000000000000000000000000000000000000000000000000000000011100000010000000000000000000000000000000000000000000000000000000000000000000000000000000001100000000000000000000000000000000000000000000000000000000000000000000000000000000000000000000000000000000000000000000000000000000000000000000000000000000000000000000000000000000000000000000000000000000000000000000000000000000000000000000000000000000000000000000000000000000000000000000000000000000000000000000000000000000000000000000000000000000000000000000000000000000000000000