P1
200 200
0000000000000000000000000000000000000000000000000000000000000000000000000000000000000000000000000000000000000000100000000000000000000000000000000000000000000000000000000000000000000000010000000000000000000000000000000000000000000000000000000000000000000000000000000000000000000000000000000000000000000000010000010100000000000000000000000000000000000000000000000000000000000000000000001010000000000000000000000000000000000000000000000000000000000000000000000000000000000000000000000000000000000000000000001010000100100000000100000000000000000000000000000000000000000000000000000000000010100000000000000000000000000000000000000000000000000000000000000000000000000000000000000000000000000000000000000000000011000000110000000010100000000000000000000000000000000000100000000000000000000000010000000000000000000000000000000000000000000000000000000000000000000000000000000000000000000000000000000000000000000000000000000000000000101000000000000000000000000000011100010100000000000000000000000000011100011000000000000000000000000000000000000000000000000000000000000000000000000000000000011000000000000000000000000000000000000000000100000000000000000000000000000000000100100000000000000000000000000000001001100000000000000000000000000000000000000000000000000000000000000000000000000000000110000000000000000000000000000000000000000000000000000000000000000000000000000000110000000000000000000000000000000100000000000000000000000000000000000000000000000000000000000000000000000000000000000000000000000000000000000000000000000000001100000001100000000000000000000000000000000000000000001100000000000000000001000001000000000000000000000000000000000000000000000000000000000000000000000000000000000000000000000000000000000000000000000100100000100100000000000000000000000000000000000000000011000000000000000000000000000000000000000000000000000000000000000000000000000000000000000000000000000000000000000000000000000000000000000000000000110000000110000000000000000000000000000000000000000000000000000000000000000000000000000000000000000000000000000000000000000000000000000000000000000000000000000000000000000000000000000000000000000000000000000000000000000000000000000000000000000000000000000000000000000000000000100110000000000000000000000000000000000000000000000000000000000000000000000000000000000000000000000000000000000000000000000000000100000000000000000000000000000000000000000000000000000000000000000000001100010000000011100000000000000000000000000000000000000000000000000000000000000000000000100000000000000000000000000000000000000010100000000000000000000000000000000000000000000000000000000000000000000000111000000000101000000000000000000000000000000000000000000000000000000000000000000000001000000000000000000000000000000000000000101000000000000000001000000000000000000000000000000000000011000000000000000000000000001110000000000000000000000000000000000000000000000110000000000000000000000010000000000000000000000000000000000000000100000000000000000111100000000000000000000000000000000001001000000000000000000000000000000000000000000000000000000000000000000000000010010000000000000000000000000000000000000000000000000000000000000000000000000000000010011000000000000000000000000000000000010100000000000110000000111000000000000000000000000000000000000000000000000000101000000000000000000011100011100000000000000000000000000000000000000000000000000001111100000000000000000000000000000000000010000000000001100000000001000000000000000000000000000000000000000000000000000100000000000000000000000000000000000000000000000000000000000000000000000000000000001100001000000000000000000000000000000000000000000000000000001000000000000000000000000000000000000000000000000000000000000000000000000000000000000000000000000000000000000000000000000000000000000000000001110001000000000000000000000011000000000000000000000000000010000000000000000000000000000000000000000000000000000000000000000000000000000000000000000000000000000000000000000000000000000000000000000000011101100100000000000000000000110000000000000000000000000000001011000000000000000000000000000000000000000000000000000000000000000000000000000000000000000000000000000000000000000000000000000000000001101101010001000000000000000000000000000000000000000000000000000101000000000000000000000000000000000000000000000000000000000000000000000000000000000000000000000000000000000000000000000000000000000000111001010000101000000000000000000000000000000000000000000000000000000111000000000000000000000000000000000000000000000000000000000000000000000000000000011000000000000000000000000000000000000000000000000110001000000111000000000000000000000000000000000000000000000000000110100000000000000000000000000000000000000000000000000000000000000000000000000000000100100000000000000000000000000000000000000000000000000011000000011000000000000000000000000000000000000000000000000000110000000000000000000000000000000110000000000000000000000000000000000000000000000011001100000000000000000000000000000000000000000000000000000000001000000000000000000000000000000000000000000000000000000000000000000000000000000000000010010000000000000000000000000000000000000000000000101110100000000000000000000000000000000000000000000000111110000000000000000000000000000000000000000000000000000000000000000000000000000000000000000000100100000000000000000000000000000000000111110000000110100100000000000000000000000000000000000000000000011111100000000000000000000000000000000000000000000000000000000000000000000000000000000000001110000110000000000000000000000000000000000000000000000001101010000000000000000000000000000000000000000000000010010111000000000000000000000000000000000000000000000000000000000000000000000000010000000000000000000000000000000000000000000000000000000100000000000001000000000000000000000000001000000000000000000000011110110000001100000000000000000000000000000000000000000000000000000000000000000100000000000000000000000000000000000000000000000000000000100000000000000000000000000000000000000101000000000000000000000010000100000011000000000000000000000000000000000000000000000000000000000000000010100000000000000000000000000000000000000000000000000000001100000000000000000000000000000000000001010000000000000000000000000000000000000000000000000000000000000010000000000000000000000000000000000000000000000110000000000000011000000000000000000000000000000001000000000000000000000000000000000000001000000000000000000110000000000000000000000000000000000000000000100000000000000000000000000000000000011000000001100000000000001001000000000000000000000000000000000000000000000000000000000000000000000000000000000000000001010000000000000000000000000000000000000000001000000000000000000000010000000000000111000000000000000000000010100000000000000000000000000000000000000000000000000000000000000000000000000000000000000000001000000000000000000000000000000000000000000000000000000000000000001010000000000001000000000000000000000000010000000000000000000000000000000000000000000000000000000000000000000000000000000000000000000000000000000000000000000000000000001000000000000000000000000000000010010000000001000000000000000000000000000000000000000000000000000000000000000000000000000000000000000000000000000000000000000000000000000000010000000000000000000000000101000000000000000000000000000000011000000000010001100000000000000000000000000000000000000000000000001000000000000000000000000000000000000000000000000000000000000000000000001010000000000000000000000001010000000001000011101000110000000000000000000000011000000000000000000000000011000000000000000000000010000000000000000000000000000001110000000000000000000000000000000000100010100000000000000000000000001000000001000000110010000000000000000000000000100000000000000000000000000000110000000000000000000000100000000000000011110000000000000000000000000000000000000000000000010100010000000000000000000000000000000001100000000000100000000000000001100000000100100000000000000000000000000000000000000000000000000000000000000000110010000000000000000000000000000000000000000000000101000000000000000000000000000000000000000000000011100000000000000000010100000001110000000000000000010000000000000000000000000000000000000000000000010000000000001000000000000000000000000000000000000000100000000000000000000000000000000000000000000111100000000000000000000010000000000000000000000000001010000000000000000000000000000000000000000000000011000010001010000000000000000000000000000000000000000000000000000000000000000000000000000000000001110000000000000000000000000000000000000000000000000010010000000000000000000000000000000000000000000000110100011100000001010000000000000000000000000001100000001100000000000000000000000000000000000000000000000000000000000000000000000000000000000000011000011000000000000000000000000000000000000000000000000010000100001000110010000000000000000000000000011000000100100000000000000000000000000000000000000000000000000000000000000000000000000000000000000110000000000000000000000000000000000000000000000000000000010100010100100001000000000000000000000000000010000000110000000000000000000000000000000000000000000000000011000000000000000000000000000000000000000000000000000000000000000000000000000000000000000000000111110000001000110000000000000000000000000101100000000000000000000000000000000000000000000000000000000000110000000000000000000000000000000010000000000000000000000000000000000000000000000000000000000001100100000010100000000000000000000000000000000100001000000000000000000000000000000000000000000000000000000000000000000000000000000000000000100000000000000000000000000000000000000000000000000000000000000110000000000000000000000000000000000000011101000111000001000000000000000000000000000000000000000000000000000000000000001000000000000000001000000000000000000000000000000000000000000000000000000000000000000000000000000000000000000000000000000000111001001000011100000000000000000000000000000000000000000000000000000000000010000000000000000000000000000000000000000000000000000000000000000000000000000000000000000000000000000000000000000000000001000110000111000000000000000000000000000000000000000000000000000000000000000000100000010000000000001110000000000000000000000000000000000000000000000000000000000000000001110000000000000000000000000000101010010001110001001000000000010000000000000000000000000000000000000000000000000000001010011000000000000000000000000000000000000000000000000000000000000000000000000000000000000000000000000000000000010001000100100100001000000000000110000000000000000000000000000000000000000000000000000110110000000000000000000000000000000000000110000000000000000000000000000000000000000000000000000110000000000000000010010001000111000010000000000000111000000000000000000000000000000000000000000000000001001100001101100000000000000110000000000001100000001110000000000000000000000000000000000000000001100000000000000000000000100001100000000100000000001110000000000000000000000000000000000000000000000000001100000010011000000000000001100000000000000000000010000000000000000000000000000000000000000000000000000000000000000110100000000000010100010000000011100000000000000000000000000000000000000000000000000000000000000100000000000000000000000000000000000000010000000000000000000000000000000000000000000000000000000000000001101100000000000101101000000001100000000000000000000000000000000000000000000000000000000000000100000000000000000000000000000000000000000000000000000000000000000000000000001110000000000000000000000000110010000000000001010110000000010000000000000000000000000000000000000000000000000000000000000000000000000000000000110000011000000000000000000000000000000000000011000000000000000000000000000000000000000111000000000000001111000000000000000000000000000000000000000000000000000000000000000000000000000000000000001100010010000110000000000000000000000000000000000000101000000000000000000000000000000000000000100000000000000010011000000000000000000000000000000000000000000000000000000000000000000000000000000000000011000010100000000000000000000000000000000000000000000100000000000000000000000000000000000000000000000000000000001000111000000000000000000000000000000000000000000011000000000000000000000000000000000000000000010000000000000000000000000000100000000000000000000000000000000000000000000000000000000000000000000000000001101000000000000000000000000000000000000000000001001000000000000000000000000000000000000000000000000000000000000000000000011100000000000000000000000000000000000000000000000000000000000000000000000000001001101000000000000000000000000000000000000000010010000000000000000000000100000000000000000000000000000000000000000110001101100000000000000000000000000000000000000000000000000000000000000000000000000001001010000000000000000000000000000110000000000011000000000000000000000001000000000000000000000000000000000000000001100001110000000000000000000000000000000000000000001100000111000000000000000000000000001101100000000000000000000000000001100000000000000000000000011000000000010000000000000000000000000000000000000000000000001000000000000000000000000001100000000000000011000000000000000000000000000000000001110000000000000000000000000000000000000000000000000000000000000000000000000000000000000000000000000000000000000000000000000000000000000000000000100100000000000000000000000000000000000000000000000000001000000000000000000000000000000000000000000000000000000001010000000000000000000000000000000000000000000000000000000000000000000000000000000000000110000000000000000000000000000000000000000000000000000000000000000000000000000000000000000000000000000000000000111000000000000000000000000000000100000000000000000000000000000000000000000000000000000000000000000000000000000000000000000000000000000000000000000000000000000000000000000000000000000000000000000000011000000000000000000000000000000010100000000000000000000000000000000000000000000000000000000000000000000000000000000000000001000000000000000000000000000000000000000000000000000000000000000000000000000000000000000000000100000000000000101000000000000000000000000000000000000000000000000000000000000000000000000000000000000000010000000000000000000000000000000000000000000000000000000000110000000000000000010000000000000011100000000000000100000001010000000000000000000000000000000000000000000000000000000000000000000000000000000100000000110000000000000000000000000000000000000000000000010010000000000000001000000000000001100000000000000000011100100010000000000000000000001100010000000110000000000000000000000000000000000000000000000000010010000000000000000000000000000000000000000000000011000000000000000001000000000000111000000000000000001000101000010000000000000000000000000100000010010000000000000000000000000000000000000000000000000101000000000000000000000000000000000000000000000000000000000000000001100000000000000000000000000000000100001011110010000000000000101110011110000000011000000000000000000000000000000000000000000000000000100000000000000000000000000000000000000000000000000000000000000011100100010000000000000000000000000001000000101000100000000000001000100000010000000000000000000000000000000000000000000000000000000000000000000000000000000000000000000000000000000000000000000000000000010000010100000000001100000000000110010001110001010000000000000010110001000100000000000000000000000000000000000000000000000000000000000000000000000000000000000000000000000000000000000000000000000000010000111001000001111111000000000010010001111111000100000000000000000010010000000000000000000000000000000000000000000000000000000000110000000000000000000000000000000000000000000000000000000000000000000100001110000000011000000000000000011000000000011100000000000000000000011000000000000000000000000000000000000000000000000000000000001100000000000000000000000000000000000000000000000000000000000000000001000010010011100110101000000000000000000000000000000000000000000000000000000000000000000000000000000000000000001100000000000000000000000000000110000000000000000001000000000000000000000000000000000000010000010000000000011010000000000000000000000000000000000000000000000000000000000000000000000000000000000000000011000000000000000000000000000001001000000000000000101000000000000000000000000000000000000010110000000000000010110000000000000000000000000000001000000000000000000000000000000000000000000000000000000000000000000000000000000000000001010010000000000000000100000000000000000000000000000000000000010001000000000000111000000000000000000000000011000010000000000000000000000000000000000000000000000000000000000000000000000000000000000011110010000000000000000000000000000000000000000000000000000000001111111000000000000100000000000000000000000000110000100000000000000110000000000000000000000000000000000000000000000000000000000000000000111000000000000000000000000000000000000000000000000000000000000011111011000000000000000000000000000000000000000000000000000000000010100000000000000000000000000000000000000000000000000000000000000000011000000000000000000000000000000000000000000000000000000000000000010000011000000000000000000000000000000000000000000000000000000000100000000011000000000000000000000000000000000000000000000000000000000000000000000000000000000000000000000000000000000000000000000000000000000111000000000000000000000000000000000000000000000000000000000110000000110000000000000000000000000000000000000000000000000000000110100000011100000000000000000000000000000000000000000000000000000000000000110000000000000000000000000000000110000000000000000000000000000000000000000000000000000000000000000000000000000000000000000001000100001110000000000000000000000000000000000000000000000000000000000000010000000000000000000000000000000000000000000000000000000000000000000000000000000000000000000000000000000000000000000000000000011011000000000000000000000000000000000000000000000000000000000000000000000000000000000000000000000000000000000000000000000000000000000000110000000000000000000000000000000000011100000000000000000000000001000000000000000000000000000000000000001000000000000000000000110000000000000000110000000000000000000000000000000000000000000000000000010010000000000000000000000000000000000100100000000000000000000000000000000000000000000000000000000000000101000000000000000000001100000000000001000000000000000000000000000010000000000000000000000000000100100000000000000000000000000000000100001000010000000000000000000000000000000000000000000000000000000001010000000000000000000000000000000000010000000000000000000000000000100000000000000000000000000000110000000000000000000000000000000000000000010010000001100000010000000000000000000000000000000000000000001000000000000000000000000000100000000100000000000000000000000000001000000000000000000000000000000000000000000000000000000000000000100000100100010001001000001100000000000000000000000000000000000000000000000000000000000000000000111001110010110000000000000000000000000000000000000000000000000000000000000000000000000000000000000000000000000101000100011010000010100000000000000000000000000000000000000000000000000000000000110000001110001100111100000000000000000000000000000000000000000000000000001100000000000000000000000000000000000001100000000011000000000000000000000000000000000000000000000000000000100000000000000000110010000010110110101110100000000000000000000000000000000000000000000000000100100000000000000000000000000000000000000110000100110000000000000000000000000000000000000000000000000000001000000000000000001001110000010100111000001100000000000000000000000000000000000000000000000000110000000000000000000000000000000000000000101010000000000000000000000000000000000000001000000000000000000010000000000000000010000100000100000101000110000000000000000000000000000000000000000000000000000000000000000000000000000000000000000000000010101001000000000000000000000000000000000010000000000000000000000000000000000000011111000000000000000110000000000000000000000000000000000000000000000000000000000000000000000000000000000000000000011000101010110000000000000000000000000000000000100000000000000000000000000000000000000001100000000000010001000000111000000000000000000000000000000000000000000000000000000000000000000000000000000000000111001000001100000000001100000000000000000000000000000000000000000000000000000000000000000000000101000111100000010010000000000000000000000000000000000000000000000000000000000000000000000000000000000000100000000000000010000011000000000000011000111000111000000000000000000000000000000000000000000001110000000000000100010000000000000001000000000000000000000000000000000000000000000000010000000000000000000000000000000001110000000000000000000110000000000000000000000000000000000000000000000000000000000000000000000000001000000000000000101000000000000001100000000000000000000000000000000100000000000000000000000000000000000000000000000000000000000000001000000000000000000000000000000000000000000000000000000000000000001000000000000000001001000000000000011000000000000000000000000000000001000000000000000000000000101000000000000000000000000000000000000010000000000000000000000000000000000000000000000000000000000000000001000000000000000001100000000000000010000000000000000000000000000000000000000000000000000000000001000000000000000000000000000000000000100000000000000000000000000000000000000000000000000000000000000000000000000000000000000000000000000110110000000000000000000000000000000000000000000000000000001100000000000000000000000000000000000000000000000000000000000000000000000000000000000000000000000000000000010111100000000000000000000000000010011100000000000000000000000000000000000000000000000000000100000100000000110000000000000000000000000000000000000000000000000000000000000000000000000000000000000000000111110100000000000000000000001100100010000000000011100000000000000000000000000000000000000011110000000100010011000000000000000000000000000000000000000000000000001100000000000000000000000000000000000000000001000000000000000000000100100001000000000000000000000000000000000000000000000000000000010000010000100001110000000110000000000000000000000000000000000000000011000000000000000000000000000000000000000000000010000000000000000000110001110000000000000000100000000000000000000000000000000000000011000010010000011100000010010000011000000000000000000000000000000000000000000000000000000000000000000000000000110000100000000000000001000000000000000000000000001000000000000000000000000000000000111000000001100000000000000000100100010101100000000000000000000000000000000000000000000000000000000000000000000000001000001000000000000000111000000000000000000000000010000000000010000000000000000000000000000010011000000000010100000000011000001000000000000000000000000000000000000000000000000011000000000000000000000000000000000000000000010000000000000000001100000000000000000001010000000000000000000000000000011100000000000010000011100000100010000000000000000000000000000000000000000000110000110000000000000000000000000000000000000000001001000000011100000011000000000000000000010100000000000000000000000000000010000000000000000010000001000001000000000000000000000000000000110000000000001100000000000000000000000000000000000000000000000001100000001101100000100000000000000000000010000000000000000000000000000000000000000000000000010000001111000000000000000000000000000000001100000000011000000000000000000000000000000000000000000000000000000000001101010100000000000000000000000000000000000000000000000000000000000000000000000000000000000000100000000000000000000000000000000000000000000101000000000000000000000000000000000000000000000000000000000100011101100110000000000000000000000000000000000000000000000011000000001110000000000000000000000000000000000000000000000000000000000000000000010000000000000000000000000011100000000000000000000000000000101111111001110000100000000000000000000000000000000000000001010000000100000000000000000000000000000000000000000000000000000000000000000000001100011000000000000000000000000000000000000000000000000000000100001000101000010100000000000000000000000000000000000000011000000000101000000000000000000000000000000000000000000000000000000000000000000000001001000000000000000000000000100000000000000000000000000000000000001100000101000000000000000000000000000000000000000000000000001000000000000000000000000000000000000000000000000000000000000011000000000001010000000000000000000000001000000000000000000000000000000000000000000000100000000000000000000000000000000000000000000001100000000000000000000000000000000000000000000000000000000000000001001000000000001000000000000000000000000010000000000000000000000000000000000000000000000000000000000000000000000000000000000000000001001100000000000000000000000000000000000000000000000000000000000000000010000000000000000000000000000000000000000000000000000000000000000000000000000010000000000000000000000000000000000000000000000000010100000000000000000000000000000000000000000000000000000000000000000001100000000000000000000000000000000000000000000000000000000000000000100001000000110000000000000000000000000000000000000000000000000001000000000000000000000000000000001100000000000000000000000000000000000000000000000000000000000000000000000000000000000000000000000000001000010000100100000000000000000000000000000000000000000000000111100000000000000000000000000000000011000000000000000000000000000000000000000000000000000000000000000000000000000000000000000000000000000001100100110101000000000000000000000000000000000000000000000010011000000000000000000000000000000000000000000000000000000000000000000000000000000000000000000000000000000000000000000000000000000000000001010000010000011000000000000000000000000000000000000000000000011100000000000000000000000000000000000000000000001100000000000000000000000000000000000000000000000000000000000000000000000000000000000000001000001000000000000000000000000000000000000000000000000000000000000000000000000000000000000000000000000000000011000000000000000000000000000000000000000000000000000000000000000000000000000000000000000000000000000000000000000000000000000000000000000000000000000000000000000000000000000000000000000000000000000000000000000000000000000000000000000000000000000000000000000000000000000000000000000000000000000000100000010000000000000000000000000000000000000000000000000000000000000000000000000000000000000000000000000000000000000000000011000000000000000000000000000000000000000000000000000000000000000000000000001010100100000000000000000000000000000000000000000000000000000000000000000000000000000000000000000000000000000000000000000000110000000000000000000000000000000000000000000000000000000000000000000000000000000110000000000000000000000000000000000000000000000000000000000000000000000000000000000000000000000000000000000000000000000000000000000000000000000000000010000000000000000000000000000000000000000000000000000000000000000000000000000000000000000000000000000000000000000000000000000000000000110000000000000000000000000000000000000000000000000000000000000001010000000000000000000000000000000000000000000000000000000000000000000000000000000000000000000000000000000000000000000000000000000000001010000000000000000000000000000000000000000000000000000000000000010100000000000000000000000000000000000000000000000000000000000000000000000000000000000000000000000000000000000011000000000000000000000001000000000000000000000000000000000000000000000000000000000000000010000000000000000000000000000000001100000000000000000000000000000000000000000000000000000000000000000000000001001000000001100000011000000000000000000000000000000000000000000000000000000000000000000000000000000000000000000000000000000011000000000000000000000000011000000000000000000000000000000000000000000000001100000000011000001001000000000000000000000000000000000000000000000000111000000000000110000000110000000000000000000000000000000000000000000000000000000110000000000000000000100000000000000000000000000000000000000000000010100000000000000000000000000000000000000000000000000000000000000001100000010010000000000000000000000000000000000000000000000000000000000000000000000000010100000000000000000000000000000000000000000000010000000000000000000000000000000000000000000000000000000000000000000000000011000000000000000000000000000000000000000000000000000000000000000000000000000101000000000000000000000000000000000000000000000000000000000000000000000000000000000000000000000000000000000000000000000000000000000000000000000000000000000000000000000000000000000000000000000000000000100000000000000000000000000000000000000000000000000000000000000000000000000000000110000000000000000000000000000000000000000000000000000000000000000000000000000000000000000000000000000000000000000000000001000000000000000000000000000000000000000000000000000000000000000000000000000010010000000000000000000000000000000010000000000000000000000000000000000000000000000000000000000000000000000000000000000000010000000000000000000000000000000000000000000000000000000000000000000000000000101000000000000000000000000000000001110000000000000000000000000000000000000000001110000000000000000000000000000000000000000100000000000000000000000000000000000000000000000000000000000000000000000000000100000000000000000000000000000000110110000000000000000000000000000000000000000000000000000000000000000000000000000000000000000000000000000000000000000000000000000000000000000000000000000000000000000000000000000000000000000000000000001010010000000000000001100110000000000000000000000000000000000000000000000000000000000100000111000000000000000000000001000000000000000000000000000000000000000000000000000000000000000000000000001110000100000110000000000000011001100000000000000000000000000000000000000000000000000000000010010000000000000000000000000000101000000000000000000000000000000000000000000000000000000001100000000000000000000000000100000000000001100000000000000000000000000000000000000000000000000000000000000000011101000000000000000000000000001010000110000000000000000000000000000000000000000000000000100100000000000000000000000000100000000000011000000000000100000000000000000000000000000000000000000000000000000000010000000000000000000000000001000010010000000000000000000000000000000000000000000000001010000000000000000000000010001000000000000000000000000010100000000000000000000000000000000000000000000000000000000100000000000011000000000000000000011000000000000000000000000000000000000000001000000001000000000000000000000000101110000000000000000000000000101000000000000000000000000000000000000000000000000000000000000000000001010000000000000000000000000000000000000000000000000000000000000101000000000000000000000000000000000010100000010100000000000000000100000000000000000000000000000111000000000000000000000000000000000000001000000000000000000000000000000000110000000000000000000000000000110000000000000000000000000000000000101000000101000000000000000000000000000000000011000000000001110000000000000000000000000000000011000000000000000000000000000000000000010100000000000000000000000000000000000000000000000000000000000000000111010000100000000000000000000000000000000000110000000000110110000000000000000000000000000001001000000000000001000000000000000000000010000000000000000000000000000000000000000000000000000000000000000000011100000000000000000000000000000000000000000000000000000111000000000000000000000000000000010100000000000000101000000000000000000000000000000000000000000000000000000000000000000000000000000000000010000110000001100000000000000000000000000000000000000000000001110000000000000000000000000000000010000000000000000000000000000000000000000000000000000000000000000000000000000000000000000000000000000001100000001100100110000000000000000000000000000000000000000000001000000000000000000000000000000000000000000000000000000000000000000000000000000000000000000000000000000000000000000000000000000000000000100100000000100000110000000000000000000000000000000000000000000000011100000000000000000000000000000000000000000000000000000000000000000000000000000000000000000000000000000000000000000000000000000000011010000000110001010010000000000000000000000000000000000000000000000111000000000000000000000000000000000000000000000000000000000001100000011000000000000000000000000000000000000000000000000000000000000011100000001000001001000000000000000000000000000000000000000000000000000000000010000000000000000000000000000010000010000000000000011000000110000000000000001100000000000000000000000000000000000000000000010000000110000001110000000000000000000000000000000000000100000000000000000000100000110000000000000000000001110000100000000000000000001000000000000000000011000000000000000000000000000000000000000000000000000001010110110000000000000000000000100000000000000010100000010000000000001000010110001110000000000000110100000000000000000000000101000000000000011001100000000001000000000000000000000000000000000000000000010100101000000000000000000000001000000000000000011000001100000000000000011011000000001000000000000000000000000000000000000001001000000000000101110000000000101000000000000000000000000000000000000000000101001100000000000000000000000010000000000000000000000011010000000000000001000001000001000000000000000000000000000000000000001100000000000000110100000000001010000000000000000000000000000000000000011001110000000000000000000000000000000000000000000000000000001100000000000000000000000000100000000110000000000000000000000000000000000000000000010110000000000001000000000000000000000000000000000000001110011000000000000000000000000000000000000000000000000000000000000000000000000000000100010100000001000110100000000000000000000000000000000000000110100000000000000000000000000000000000000000000000000010010000000000000000000000000000000000000000000000000000000000000000000000000000000000001010000000000010010000000000000000000000000000000000000011011100000000000000000000000000000000000000000000000001111100000000000000000000000000000000000000000000000000000100000000000000000000000000001100100110000100011100000000000000000000000000000000000000111011000000000000000000000000000000000000000000000000000000000000000000000000000000000000000000000000000000000011100000000000000000000000000000000000000000010000000000000000000000000000000000000000000010110000000000000000000000000000000000000000000000010000000011100000000000000000000000000000000000000000000001111100000000000000000000000000000000110000000000000000000000000000000000000000000000000000010100000000000000000000000000000000000000000000000101000000000000000000000000000000000000000000000000000000110001100000000000000000110000000011000000000000000000000000000000000000000000000000000000000011100000000000000001000000000000000000000000000001001000000000000000000000000000000000000000000000000000000111110000000000011000001100000001110000000000000000000000001000000000000000000000000000000000111000000000000000101000000000000000000000000000000100000000000000000000000000000000000000000000000000000000111000000000000110000000000000001000000000000000000000000101000011000000000000000000000000000010000000000000001010000000000000000000000000000000000000000000000000000000000000000000000000000000000000000100000000000000000000000000000000000000000000001100000001001001001000000000000000000000000000000000000000000001000000000000000000000000000000000000000000000000000000000000000000000000000000000000000000000000000000000000000000000000000000000001000110000000001100010100000000000000000000000000000000000000000000000000000000000000000000000000000000000000000000000000000110000000000000000000000000000000000000000000000000000000000000000000000000010000010000000000000010000000000000000000000000000000000000000000000000000000000000000000000000000010000000000000000000000001100000000000000000000000000000000000000000000000000000000000000000000000000100000000000000000000000000000000000000000000000000000000000000000000000000000000000000000000000000100000000000000000000000000000000000000000000000000000111000000000000000000000011000000000000000000000000000000000000000000000000000000000000000000000000000000000000000000000000000000000000000000000001000000000000000000000000000000000000000000000000000000000000000000000000000001001000000001100000000000000000000000000000000000000000000000000000000000000000000000000000000000000000000000000000000000000000000000000000000000000000000000000000000000000000000000000000000000000000010010000000101000000000000000000000000000000000000000000000000000000000000000000000000000000000000000000000000000000000000000000000000000000000000000000000000000000000000000000000000000000000000000000011000000000100000000000000000000000000000000000000000000000000000000000000000000000000000000000000000000000000000000000000000000000000000000000000000001100000000000000000000000000000000000000000000000000000000000000000000000000000000000000000000000000000000000000000000000000000000000000000000000000000000000000000000000000000000000000000110000000000100100000000000000000000000000000000000000000000000000000000000000000000100000000000000000000000000000000000000000000000000000000000000000000000000000000000000000000000000000000000000000001100000000000110000000000000000000000000000000000000000000000000000000000000000000010100000000000000000000000000000000000000000000000000000000000000000000000000000000000000000000000000000000000000000000000000000000000000000000000000000000000000000000000000000000000000000000000000001010000000000000000000000000000000000000000000000000000000000000000000000000000000000000000000000000000000000000000000000000000000000000000000000000000000000000000000000000000000000000000000000000000101000000000000000000000000000000000000000000000000000000000000000000000000000000000000000000000000000000000000000000000000000000000000000000000000000000000000000000000000000000000000000000000000000000100000000000000000000000110000000000000000000000000000000000000000000000000000000000000000000000000010000000000000000000000000000000000000000000000000000000000000000000000000000000000000000000000000000000000000000000000000001100000000000000000000000000000000000000000000000000000000000000000000000000100000000000000000000000000000000000000000000000000000000000000000000000000000000000000000000000000000000000000000000000000000000000000000000000000000000000000000000000000000000000000000000000000000001000000000000000000000000000001000000000000000000000000000000000000000000000000000000000000000000000000000000000000000000000000000000000000000000000000000000000000000000000000000000000000000000000000000000000000000000000000000000101000000000000000000000000000000000000000000000000000000000000000000000000000000000000000000000000000000000000000000000000000000000000000000000000000000000000000000000000000000000000000000000000000001010000000000000000000000000000000000000000000000000000000000000000000000000000000000000000000000000000000000000000000000000000000000000000000000000000000000000000000000000000000000000000000000000000001000000000000000000000000000000000000000000000000000000000000000000000000000000000000000000000000000000000000000000000000000000000000000000000000000000000000000000000011100000000000000000000000000000000000000000000000000000000000000000000000000110000000000000000000000000000000000000000000000000000000000000000000000000000000000000000000000000000000000000000000000000000000000000000000000000000000000000000000000000011000000000000000000000000001100000000000000000000000000000000000000000000000000000000000000000000000000000000000000000000000000000000000000000000000000000000000000000000000000000000000000000000000000110000111000000000000000000000000000000000000000000000000000111000000000011000000000000000000000000000000000000000000000000000000000000000000000000000000000000110000000000000000000000011000000000000000000000000000000000000000000000000000000000000000000000000001101100000000110000000000000000000000000000000000000000000000000000000000000000000000000000000000001010000000000000000000000110000000000000000000000000000000000000000000000000000000000000000000000000011011000000000000000000000000000000000000000000000000000000000000000000000000000000000000000000000001100000000000000000000000000000000000000000000000000000000000000000000000000000000000000000000000000001100000000000000000000000000000000000000000000000000000000000000000000000000000000000000000000000000000000000000000000000000000000000000000000000000000000000000000000000000000000000000000000000000000000000000000000000000000000000000000000000000000000000000000000000000000000000