P1
200 200
0000000000000000000000000000000000000000000000000000000000000000000000000000000000000000000000000000000000000000100000000000000000000000000000000000000000000000000000000000000000000000010000000000000000000000000000000000000000000000000000000000000000000000000000000000000000000000000000000000000000000000010000010100000000000000000000000000000000000000000000000000000000000000000000001010000000000000000000000000000000000000000000000000000000000000000000000000000000000000000000000000000000000000000000001010000100100000000100000000000000000000000000000000000000000000000000000000000010100000000000000000000000000000000000000000000000000000000000000000000000000000000000000000000000000000000000000000000011000000110000000010100000000000000000000000000000100000100000000000000000000000010000100000000000000000000000000000000000000000000000000000000000000000000000000000000000000000000000000000000000000000000000000000000000101000000000000000000000000000001000010100000000000000000000000000001000011000000000000000000000000000000000000000000000000000000000000000000000000000000000011000000000000000000000000000000000000000000100000000000000000000000000000010000100100000000000000000000000000010001001000000000000000000000000000000000000000000000000000000000000000000000000000000000110000000000000000000000000000000000000000000000000000000000000000000000000000000110000000000000000000000000000000011011000000000000000000000000000000000000000000000000000000000000000000000000000000000000000000000000000000000000000000000001100000001100000000000000000000000000000000000000000001100000000000000000000110110000000000000000000000000000000000000000000000000000000000000000000000000000000000000000000000000000000000000000000000100100000100100000000000000000000000000000000000000000011000000000000000000001101100000000000000000000000000000000000000000000000000000000000000000000000000000000000000000000000000000000000000000000000110000000110000000000000000000000000000000000000000000000000000000000000000001010000000000000000000000000000000000000000000000000000000000000000000000000000000000000000000000000000000000000000000000000000000000000000000000000000000000000000000000000000000000000000000000000000110110000000000100000000000000000000000000000000000000000000000000000000000000000000000000000000000000000000000000000000000000000100000000000000000000000000000000000000000000000000000000000000000000000110010000000001000000000000000000000000000000000000000000000000000000000000000000000000000000000000000000000000000000000000000010100000000000000000000000000000000000000000000000000000000000000000000000011000000000101000000000000000000000000000000000000000000000000000000000000000000000011100000000000000000000000000000000000000101000000000000000000000000000000000000000000000000000000011000000000000000000000000000100000000000000000000000000000000000000000000000110000000000000000000000000000000000000000000000000000000000000000100000000000000000111000000000000000000000000000000000001001000000000000000000000000001000000000000000000000000000000000000000000000010010000000000000000000100000100000000000000000000000000000000000000000000000000000010011000000000000000000000000000000000010100000000000110000011011000000000000000000000000000000000000000000000000000101000000000000000000001000001000000000000000000000000000000000000000000000000000000110001000000000000000000000000000000000010000000000001100000000110000000000000000000000000000000000000000000000000000100000000000000000000010000010000000000000000000000000000000000000000000000000000001001000000000000000000000000000000000000000000000000000000001111100000000000000000000000000000000000000000000000000000000000000000000000000000000000000000000000000000000000000000000000000000000000000000000011000000000000000000000011000000000000000000000000000011011010000000000000000000000000000000000000000000000000000000000000000000000000000000000000000000000000000000000000000000000000000000000000011010001000000000000000000000110000000000000000000000000000001010000000000000000000000000000000000000000000000000000000000000000000000000000000000000000000000000000000000000000000000000000000000001000100100111000000000000000000000000000000000000000000000000001100000100000000000000000000000000000000000000000000000000000000000000000000000000000000000000000000000000000000000000000000000000000000011001000010100000000000000000000000000000000000000000000000000000001001000000000000000000000000000000000000000000000000000000000000000000000110000000001000000000000000000000000000000000000000000000000100001100000011000000000000000000000000000000000000000000000000000010100000000000000000000000000000000000000000000000000000000000000000000000000000000111100000000000000000000000000000000000000000000000000000000001010000000000000000000000000000000000000000000000000000110000000000000000000000000000000110000000000000000000000000000000000000000000000001001000000000000000000000000000000000000000000000000000010001000100000000000000000000000000000000000000000000000000000000000000000000000000000000000010010000000000000000000000000000000000010010000000100000100000000000000000000000000000000000000000000000100100000000000000000000000000000000000000000000000000000000000000000000000000000000000000010000100100000000000000000000000000000000000100010000000110110100000000000000000000000000000000000000000000001100100010000000000000000000000000000000000000000000000000000000000000000000000000000000000100000110000000000000000000000000000000000000101000000000101110000000000000000000000000000000000000000000000010010100000000000000000000000000000000000000000000000000000000000000000000000000000000000001000000000000000000000000000000000000000000000000000000000000000000000000000000000000001000000000000000000000011100110000001100000000000000000000000000000000000000000000000000000000000000001110000000000000000000000000000000000000000000000000000000100000000000000000000000000000000000000101000000000000000000000000000010000011000000000000000000000000000000000000000000000000000000000000000000000000000000000000000000000000000000000000000000000000001110000000000000000000000000000000000001010000000000000000000000000000000000000000000000000000000000000000000000000000000000000000000000000000101000000110000000000000011000000000000000000000000000000000000000000000000000000000000000000000001000000000000000000110000000000000000000000000000000000000000001110000000000000000000000000000000000001010000001100000000000001001000000000000000000000000000000000000000000000000000000000000000000000000000000000000000001010000000000000000000000000000000000000000000000000000000000000000010000000000000100000000000000000000000010100000000000000000000000000000000000000000000000000000000000000000000000000000000000000000001000000000000000000000000000000000000000000000000000000000000000001010000000000001001000000000000000000000010000000000000000000000000000000000000000000000000000000000000000000000000000000000000000000000000000000000000000000000000000001000000000000000000000000000000010010000000000110100000000000000000000000000000000000000000000000000000000000000000000000000000000000000000000000000000000000000000000000000010000000000000000000000000101000000000010000000000010000000011000000000011100000000000000000000000000000000000000000000000000000000000000000000000000000000000010000000000000000000000000000000000000001010000000000000000000000001010000000001000110001000010000000000000000000011011000000000000000000000000011000000000000000000000111000000000000000000000000000000100000000000000000000000000000000000100010100000000000000000000000001000000010100000011110000100000000000000000000100110000000000000000000000000110000000000000000000000000000000000000001100000000000001000000000000000000000000000000000010100010000000000000000000000000000000000100000000011000000000000000001100000000111000000000000000000000000000000000000000000000000000000000000000000110110000000000000000000000000000000000000000000000101000000000000000000000000000000000000001000000001000000000000000000010100000000100000000000000000010000000000000000000000000000000000000000000000010001100000010000000000000000000000000000000000000000100000000000000000000000000000000000000000001101100000000000000000000010000000000000000000000000001010000000000000000000000000000000000000000000000011101110000011000000000000000000000000000000000000000000000000000000000000000000000000000000000000100000000000000000000000000000000000000000000000000010010000000000000000000000000000000000000000000000010101010011000000110000000000000000000000000001100000001100000000000000000000000000000000000000000000000000000000000000000000000000000000000000011000011000000000000000000000000000000000000000000000000000010101110001011100000000000000000000000000011000000100100000000000000000000000000000000000000000000000000000000000000000000000000000000000000110000000000000000000000000000000000000000000000000000000010000110010001001000000000000000000000000000000000000110000100000000000000000000000000000000000000000000011000000000000000000000000000000000000000000000000000000000000000000000000000000000000000000000110110000001110100000000000000000000000000111000000000000100010000000000000000000000000000000000000000000110000000000000000000000000000000000000000000000000000000000000000000000000000000000000000000000100100000001101000000000000000000000000001101100000000000000000000000000000000000000000000000000000000000000000000000000000000000000000001110000000000000000000000000000000000000000000000000000000000000110000000000000000000000000000000000000001101000111000000001000000000000000000000000000000000000000000000000000000000000000000000000000000000000000000000000000000000000000000000000000000000000000000000000000000000000000000000000000000000000000000001001000111000000000000000000000000000000000000000000000000000000000000111000000100100000000010000000000000000000000000000000000000000000000000000000000000000000010000000000000000000000000000000000110000010000010000000000000000000000000000000000000000000000000000000000000000000010000100000000100000000000000000000000000000000000000000000000000000000000000000000100000000000000000000000000000111001100100100000111000000000010000000000000000000000000000000000000000000000000000001000000000000001000000000000000000000000000000000000000000000000000000000000000000001000000000000000000000000000001101001000100100001100000000001010000000000000000000000000000000000000000000000000000010110110000000000000000000000000000000000110000000000000000000000000000000000000000000000000000110000000000000000011010110000110000000100000000000010000000000000000000000000000000000000000000000000001001000000100110000000000000110000000000001100000000110000000000000000000000000000000000000000001100000000000000000001101100000100000011110000001000110000000000000000000000000000000000000000000000000001100000011110000000000000001100000000000000000000011000000000000000000000000000000000000000000000000000000000000000010100000000000011100000000000001000000000000000000000000000000000000000000000000000000000000011000000000000000000000000000000000000000001000000000000000000000000000000000010000000000000000000000000001001000000000000100011100000010100000000000000000000000000000000000000000000000000000000000001000000000000000000000000000000000000000000000000000000000000000000000000000000100000000000000000000000000010010000000000000010000000000010000000000000000000000000000000000000000000000000000000000000000000000000000000000110000011000000000000000000000000000000000000011000000000001000000000000000000000000000111000000000000011110000000000000000000000000000000000000000000000000000000000000000000000000000000000000001100010010000110000000000000000000000000000000000000101000000000000000000000000000000000000000000000000000000000011000000000000000000000000000000000000000000000000000000000000000000000000000000000000011000010100000000000000000000000000000000000000000000100000000000000000000000000000000000000000000000000000000001001011000000000000000000000000000000000000000000011000000000000000000000000000000000000000000010000000000000000000000000000100000000000000000000000000000000000000000000000000000000000000000000000000001000110000000000000000000000000000000000000000001001000000000000000000000000000000000000000000000000000000000000000000000010100000000000000000000000000000000000000000000000000000000000000000000000000001000111000000000000000000000000000000000000000010010000000000000000000000000000000000000000000000000000000000000000110001000100000000000000000000000000000000000000000000000001000000000000000000000000001000010000000000000000000000000000110000000000011000000000000000000000011100000000000000000000000000000000000000001100001010000000000000000000000000000000000000000001100000010000000000000000000000000001001000000000000000000000000000001100000000000000000000000001000000000000000000000000000000000000000000000000000000000001000000000000000000000000001100000000000000011000000100000000000000000000000000001110000000000000000000000000000000000000000000000000000000110000000000000000000000000000000000000000000000000000000000000000000000000000000000000100100000000000000000000000000000000000000000000000000000000000000000000000000000000000000000000000000000000000001110000000000000000000000000000000000000000000000000000000000000000000000000000000000000110000000000000000000000000000000000000000000000000000000000000000000000000000000000000000000000000000000000000000000000000000000000000000000000100000000000000000000000000000000000000000000000000000000000000000000000000000000000000000000000000000000000000000000000000000000000000000000000000000000000000000000011000000000000000000000000000000010100000000000000000000000000000000000000000000000000000000000000000000000000000000000000000000000000000000000000000000000000000000000000000000000000000000000000000000110000000000000000100000000000000101000000000000000000000000000000000000000000000000000000000000000000000000000000000000000111000000000000000000000000000000000000000000000000000000000110000000000000000110000000000000010100000000000000100000001100000000000000000000000000000000000000000000000000000000000000000000000000000000000000000110000000000000000000000000000000000000000000000010010000000000000001000000000000001000100000000000000001100011100000000000000000000001100010000000110000000000000000000000000000000000000000000000000010010000000000000000000000000000000000000000000000011000000000000000000100000000000010000000000000000000110101010110000000000000000000101001010000010010000000000000000000000000000000000000000000000000101000000000000000000000000000000000000000000000000000000000000001000100010000000000100000000000000000011011011011100000000000000011000011000000000011000000000000000000000000000000000000000000000000000100000000000000000000000000000000000000000000000000000000000000000011100010000000000000000000000000001110100000000100000000000001110111000110000000000000000000000000000000000000000000000000000000000000000000000000000000000000000000000000000000000000000000000000001011010001100000000000110000000000110001001110001110000000000000001100110000010000000000000000000000000000000000000000000000000000000000000000000000000000000000000000000000000000000000000000000000000010110100110000000100110000000000010010001100010011000000000000000000001100000000000000000000000000000000000000000000000000000000000110000000000000000000000000000000000000000000000000000000000000000000010110011000100011011000000000000011000000000011000000000000000000000011000000000000000000000000000000000000000000000000000000000001100000000000000000000000000000000000000000000000000000000000000000000111010010001000010110000000000000000000000000000000000000000000000000000000000000000000000000000000000000000001100000000000000000000000000000110000000000000000001000000000000000000000000000000000000001110101000010000000010000000000000000000000000000000000000000000000000000000000000000000000000000000000000000011000000000000000000000000010001010000000000000000101000000000000000000000000000000000000010100000000000000100100000000000000000000000000000000000000000000000000000000000000000000000000000000000000000000000000000000000000000000010001110000000000000000100000000000000000000000000000000000000000000000000000000111000000000000000000000000011000111000000000000000000000000000000000000000000000000000000000000000000000000000000000001110010000000000000000000000000000000000000000000000000000000000100111000000000000000000000000000000000000000110000000000000000000010000000000000000000000000000000000000000000000000000000000000001001100000000000000000000000000000000000000000000000000000000000000011101001000000000000000000000000000000000000000000000000000000000001100000000000000000000000000000000000000000000000000000000000000001000000000000000000000000000000000000000000000000000000000000000000000000001000000000000000000000000000000000000000000000000000000000110000000011000000000000000000000000000000000000000000000000000000000010000000100000000000000000000000000000000000000000000000000000000000010010000000000000000000000000000000010000000000000000000000000100000000110000000000000000000000000000000000000000000000000000000100100000100100000000000000000000000000000000000000000000000000000000000000100000000000000000000000000000000100000000000000000000000001000000000000000000000000000000000000000000000000000000000000000001101100001001000000000000000000000000000000000000000000000000000000000000101000000000000000000000000000000000100000000000000000000000000000000000000000000000000000000000000000000000000000000000000000001110000001000000000000000000000000000000000000000000000000000000000000000000000010000000000000000000000000000000000000000000000000000000110000000000000000000000000000000000001000000000000000000000000000000000000000000000000000000000000000001000000000000000000000110000000000000000010000000000000000000000000000000000000000000000000000010010000000000000000000000000000000000111000000000000000000000000000000000000000000000000000000000000000101000000000000000000001100000000000001001000000000000000000000000000000000000000000000000000000100100000000000000000000000000000000010011000000000000000000000000000000000000000000000000000000000000001010000000000000000000000000001000000101000000000000000000000000001110000000000000000000000000000110000000000000000000000000000000001111100001110000001000000000000000000000000000000000000000000000000001000000000000000000000000001000100000000000000000000000000000000000000000000000000000000000000000000000000000000000000000000000000011111000111100001111000001110000000000000000000000000000000000000000000000000000000000000000000010000100000100000000000000000000000000000000000000000000000000000000000000000000000000000000000000000000110110001000100001001000010000000000000000000000000000000000000000000000000000000000000110000000100001101111100000000000000000000000000000000000000000000000000001100000000000000000000000000000000000000101011100010000000000000010000000000000000000000000000000000000000000000000000000000010010000010011010000000100000000000000000000000000000000000000000000000000100100000000000000000000000000000000000000111101100010000000000000000000000000000000000000000000000000000011100000000000000001100100000101000010000001000000000000000000000000000000000000000000000000000110000000000000000000000000000000000000000001010001000000000000000000000000000000000000000000000000000000000000000000000000001100100000000000101000110000000000000000000000000000000000000000000000000000000000000000000000000000000000000000000000000101000000000000000000000000000000000000111000000000000000000000000000000000000001111000010000000111100000000000000000000000000000000000000000000000000000000000000000000000000000000000000000000001000111011110000000000000000000000000000000000000000000000000000000000000000000000000000000000000000011111000000010000000000000000000000000000000000000000000000000000000000000000000000000000000000000110001000001000000000001100000000000000000001000001000000000000000000000000000000000000000000000101101000000000001110000000000000000000000000000000000000000000000000000000000000000000000000000000000000010000000000000000000011000000000000011000010000010000000000000000000000000000000000000000000001100000000000000110010000000000000001000000000000000000000000000000000000000000000000000000000000000000000000000000000001110000000000000000000110000100000100000000000000000000000000000000000000000000000000000000000000111000000000000000101000000000000001000000000000000000000000000000001110000000000000000000000000000000001000000000000000000000000000000000000000000000000000000000000000000000000000000000000000000000001100000000000000001001000000000000011000000000000000000000000000000000000000000000000000000000110000000010000000000000000000000000000111000000000000000000000000000000000000000000000000000000000000000000100000000000000001100000000000000000000000000000000000000000000000000000000000000000000000001110000000000000000000000000000000000000000000000000000000000000000000000000000000000000000000000000000000000010000000000000000000000000000100010000000000000000000000000000000000000000000000000000001100110000000000000000000000000000000000000000000000000000000000000000000000000000000000000000000000000000010100000000000000000000000000000001101100000000000100000000000000000000000000000000000000000100111100000000110000000000000000000000000000000000000000000000000000000000000000000000000000000000000000000110110100000000000000000000001100011000000000000001000000000000000000000000000000000000000001001100001100010010000000000000000000000000000000000000000000000000001100000000000000000000000000000000000000000111000000000000000000000011000111000000000000010000000000000000000000000000000000000000010010110000100010110000000110000000000000000000000000000000000000000011000000000000000000000000000000000000000001000000000000000000000000110000100000000000000000000000000000000000000000000000000001000011011010001000000000000010010000011000000000000000000000000000000000000000000000000000000000000000000000000001110001110000000000000000000000000000000000000000011100000000000000000000000000000000010000001101001000000100100000111000000101000000000000000000000000000000000000000000000000000000000000000000000000000000000000000000000000111000000000000000000000000000000000000010000000000000000000000100000010010000000000000100000110001110011000000000000000000000000000000000000000000000000011000000000000000000000000000000000000000000010100000000000000001100000000000000000001010000000000000000000000000000011100000000000110000101000110111100000000000000000000000000000000000000000000110000110000000000000000000000000000000000000000001001000000011000000011000000000000000000010100000000000000000000000000000000000000000000000010000001100010000000000000000000000000000000110000000000001100000000000000000000000000000000000000000000000001100000000101100000000000000000000000000010000000000000000000000000000000000000000000000000011000000111000000000000000000000000000000001100000000011000000000000000000000000000000000000000000000000000000000001001000100010000000000000000000000000000000000000000000000000000000000000000000000000000000000000000000000000000000000000000000000000000000101000000000000000000000000000100000000000000000000000000000011011001000010000000000000000000000000000000000000000000000011000000001100000000000000000000000000000000000000000000000000000000000000000000010000000000000000000000000001000000000000000000000000000000111001110000100000100000000000000000000000000000000000000001010000000101100000000000000000000000000000000000000000000000000000000000000000001100011000000000000000000000010000000000000000000000000000000000000001001000010100000000000000000000000000000000000000011000000000111000000000000000000000000000000000000000000000000000000000000000000000001001000000000000000000000000000000000000000000000000000000000000001100000101000000000000000000000000000000000000000000000100000000000000000000000000000000000000000000000000000000000000000011000000000001010000000000000000000000011100000000000000000000001100000000000000000000100000000000000000000000000000000000000000001000100010000000000000000000000000000000000000000000000000000000000000110000000000001000000000000000000000000000000000000000000000000000000000000000000000000000000000000000000000000000000000000000000010001000100000000000000000000000000000000000000000000000000000000000001100000000000000000000000000000000000000000000000000000000000000000110000000000000000000000000000000000000000000000000000000000000001010000000000000000000000000000000000000000000000000000000000000000001000000000000000000000000000000000000000000000000000000000000000000000000000001110000000000000000000000000000000000000000000000001000000000000000000000000000000000001100000000000000000000000000000000010000000000000000000000000000000000000000000000000000000000000000000100111000000100000000000000000000000000000000000000000000000100010000000000000000000000000000000011000000000000000000000000000000000000000000000000000000000000000000000000000000000000000000000000000101000000010110000000000000000000000000000000000000000000000010011000000000000000000000000000000000000000000000000000000000000000000000000000000000000000000000000000000000000000000000000000000000000001010000001111010000000000000000000000000000000000000000000000011000000000000000000000000000000000000000000000001100000000000000000000000000000000000000000000000000000000000000000000000000000000000000001000000110010110000000000000000000000000000000000000000000000000000000000000000000000000000000000000000000000011000000000000000000000000000000000000000000000000000000000000000000000000000000000000000000000011101101100000000000000000000000000000000000000000000000000000000000000000000000000000000000000000000000000000000000000000000000000000000000000000000000000000000000000000000000000000000000000000000000111011010000000000000000000000000000000000000000000000000000000000000000000000000000000000000000000000000000000000000000000011000000000000000000000000000000000000000000000000000000000000000000000000000010100100000000000000000000000000000000000000000000000000000000000000000000000000000000000000000000000000000000000000000000110000000000000000000000000000000000000000000000000000000000000000000000000001000110000000000000000000000000000000000000000000000000000000000000000000000000000000000000000000000000000000000000000000000000000000000000000000000000000010000000000000000000000000000000000000000000000000000000000000000000000000000000000000000000000000000000000000000000000000000000000000110000000000000000000000000000000000000000000000000000000000000001010000000000000000000000000000000000000000000000000000000000000000000000000000000000000000000000000000000000000000000000000000000000001010000000000000000000000000000000000000000000000000000000000000010100000000000000000000000000000000000000000000000000000000000000000000000000000000000000000000000000000000000011000000000000000000000001000000000000000000000000000000000000000000000000000000000000000010000000000000000000000000000000001100000000000000000000000000000000000000000000000000000000000000000000000001001000000001100000011000000000000000000000000000000000000000000000000001000000000000000000000000000000000000000000000000000011000000000000000000000000011000000000000000000000000000000000000000000000001100000000011000001001000000000000000000000000000000000000000000000000010000000000000110000000110000000000000000000000000000000000000000000000000000000110000000000000000000100000000000000000000000000000000000000000000010100000000000000000000000000000000000000000000000000100000000000001100000010010000000000000000000000000000000000000000000000000000000000000000000000000010100000000000000000000000000000000000000000000010000000000000000000000000000000000000000000000000000000000000000000000000011000000000000000000000000000000000000000000000000000000000000000000000000000101000000000000000000000000000000000000000000000000000000000000000000000000000000000000000000000000000000000000000000000000000000000000000000000000000000000000000000000000000000000000000000000000000000100000000000000000000000000000000000000000000000000000000000000000000000000000000110000000000000000000000000000000000000000000000000000000000000000000000000000000000000000000000000000000000000000000000000000000000000000000000000000000000000000000000000000000000000000000000000000010010000000000000000000000000000000000000000000000000000000000000000000000000000010000000000000000000000000000000000000000111000000000000000000000000000000000000000000000000000000000000000000000000000101000000000000000000000000000000001110000000000000000000000000000000000000000000100000000000000000000000000000000000000000000000000000000000000000000000000000000000000000000000000000000000000000000000100000000000000000000000000000000010010000000000000000000000000000000000000000001000000000000000000000000000000000000000000001000000000000000000000000000000000000000000000000000000000000000000000000000000000000000000000000000010000001000010000000000000001100110000000000000000000000000000000000000000000000000000000000101000010000000000000000000000001000000000000000000000000000000000000000000000000000000000000000000000000000100000011010100000000000000011001100000000000000000000000000000000000000000000000000000000001100000100000000000000000000000101000000000000000000000000000000000000000000000000000000001100000000000000001000000110101000000000001100000000000000000000000000000000000000000000000000000000000000000011000000000000000000000000000001010000110000000000000000000000000000000000000000000000000100100000000000000000000000110000000000000011000000000000100000000000000000000000000000000000000000000000000000000111000000000000000000000000001000010010000000000000000000000000000000000000000000000001010000000000000000000000011000100000000000000000000000010100000000000000000000000000000000000000000000000000000000000000000000011000000000000000000011000000000000000000000000000000000000000001000000001000000000000000000000000101110000000000000000000000000101000000000000000000000000000000000000000000000000000000000000000000001010000000000000000000000000000000000000000000000000000000000000101000000000000000000000000000000000010000000011000000000000000000100000000000000000000000000000010000000000000000000000000000000000000001000000000000000000000000000000000110000000000000000000000000000110000000000000000000000000000000000101000000111000000000000000000000000000000000011000000000011011000000000000000000000000000000011000000000000000000000000000000000000010100000000000000000000000000000000000000000000000000000000000000000110000000000000000000000000000000000000000000110000000000000000000000000000000000000000000001001000000000000001000000000000000000000010000000000000000000000000000000000000000000000000000000000000000000001110000000000000000000000000000000000000000000000000001000100000000000000000000000000000010100000000000000101000000000000000000000000000000000000000000000000000000000000000000000000000000000000000000010000000100000000000000000000000000000000000000000000001110000000000000000000000000000000010000000000000001010000000000000000000000000000000000000000000000000000000000000000000000000000000000001110000101110110100000000000000000000000000000000000000000000000000000000000000000000000000000000000000000000000000000000000000000000000000000000000000000000000000000000000000000000000000000000000000100000000010000110110000000000000000000000000000000000000000000000001100000000000000000000000000000000000000000000000000000000000000000000000000000000000000000000000000000000000000000000000000000000001001000000110001010010000000000000000000000000000000000000000000000110000000000000000000000000000000000000000000000000000000000001100000011000000000000000000000000000000000000000000000000000000000000011100000000000000011000000000000000000000000000000000000000000000000000000000000000000000000000000000000000000000010000000000000011000000110000000000000000100000000000000000000000000000000000000000000000000000100010001100000000000000000000000000000000000000100000000000000000001110000110000100000000000000001110001010000000000000000001000000000000000000011000000000000000000000000000000000000000000000000000001100010100000000000000000000000000000000000000010100000001000000000000000100100000100000000000000100100000000000000000000000101000000000000011010000000000001000000000000000000000000000000000000001000001100110000000000000000000000011100000000000000011000001100000000000000001001000001011000000000010000000000000000000000000001001000000000000100010000000000101000000000000000000000000000000000001001000001000100000000000000000000000000000000000000000000000001010000000000000010100001111110000000000000000000000000000000000000001100000000000000100100000000001010000000000000000000000000000000000000000001100000000000000000000000000000000000000000000000000000001100000000000000000000001101100000000010000011000000000000000000000000000000000000000110000000000001000000000000000000000000000000000000100110001000000000000000000000000000000000000000000000000000000000000000000000000000000011000000000001100010000000000000000000000000000000000000000110000000000000000000000000000000000000000000000000000011010000000000000000000000000000000000000000000000000000000000000000000000000000000000110011000000001110110000000000000000000000000000000000000001001000000000000000000000000000000000000000000000000000001100000000000000000000000000000000000000000000000000000000000000000000000000000000000100111101100111011000000000000000000000000000000000000000010011000000000000000000000000000000000000000000000000110000000100000000000000000000000000000000000000000000000011100000000000000000000000000000000001000000100000000000000000000000000000000000000000110010100000000000000000000000000000000000000000000000000000000001000000000000000000000000000000000000000000000001000100000000000000000000000000000000110000010000000000000000000000000000000000000000000000010000000000000000000000000000000000000000000000000111000000010000000000000000000000000000000000000000000000100000100000000000000000110000001010000000000000000000000000000000000000000000000000000000000011000000000000000001000000000000000000000000000001110000000000000000000000000000000000000000000000000000000100010000000000011000001100000001110000000000000000000000001000000000000000000000000000000000011000000000000000101000000000000000000000000000000100000000000000000000000000000000000000000000000000000000111000000000000110000000000000000000000000000000000000000101000011000000000000000000000000000001000000000000001010000000000000000000000000000000000000000000000000000000000000000000000000000000000000000000000000000000000000000000000000000000000000001100000001001001001000000000000000000000000000000000000000000001000000000000000000000000000000000000000000000000000000000000000000000000000000000000000000000000000000000000000000000000000000000000000010100000001100010100000000000000000000000000000000000000000000000000000000000000000000000000000000000000000000000000000110000000000000000000000000000000000000000000000000000000000000000000000000111000100000000000000010000000000000000000000000000000000000000000000000000000000000000000000000000000000000000000000000000001100000000000000000000000000001000000000000000000000000000000000000000000000000000000000000000000000000000000000000000000000000000000000000000000000000000000000000000000000001110000000000000000000000000000000000000000000000000000010000000000000000000000011000000000000000000000000000000000000000000000000000000000000000000000000000000000000000000000000000000000000000000000000000000000000000000000000000000000000000000000000000000100000000000000000000001001000000001100000000000000000000000000000000000000000000000000000000000000000000000000000000000000000000000000000000000000000000000000000000000000000000000000000000000000000000000000000000000000000010010000000101000000000000000000000000000000000000000000000000000000000000000000000000000000000000000000000000000000000000000000000000000000000000000000000000000000000000000000000000000000000000000000011000000000100000000000000000000000000000000000000000000000000000000000000000000000000000000000000000000000000000000000000000000000000000000000000000001100000000000000000000000000000000000000000000000000000000000000000000000000000000000000000000000000000000000000000000000000000000000000000000000000000000000000000000000000000000000000000110000000000100100000000000000000000000000000000000000000000000000000000000000000000100000000000000000000000000000000000000000000000000000000000000000000000000000000000000000000000000000000000000000001100000000000110000000000000000000000000000000000000000000000000000000000000000000010100000000000000000000000000000000000000000000000000000000000000000000000000000000000000000000000000000000000000000000000000000000000000000000000000000000000000000000000000000000000000000000000000001010000000000000000000000000000000000000000000000000000000000000000000000000000000000000000000000000000000000000000000000000000000000000000000000000000000000000000000000000000000000000000000000000000101000000000000000000000000000000000000000000000000000000000000000000000000000000000000000000000000000000000000000000000000000000000000000000000000000000000000000000000000000000000000000000000000000000100000000000000000000000110000000000000000000000000000000000000000000000000000000000000000000000000000000000000000000000000000000000000000000000000000000000000000000000000000000000000000000000000000000000000000000000000000001100000000000000000000000000000000000000000000000000000000000000000000000001110000000000000000000000000000000000000000000000000000000000000000000000000000000000000000000000000000000000000000000000000000000000000000000000000000000000000000000000000000000000000000000000000000000000000000000000000000000000001000000000000000000000000000000000000000000000000000000000000000000000000000000000000000000000000000000000000000000000000000000000000000000000000000000000000000000000000000000000000000000000000000000101000000000000000000000000000000000000000000000000000000000000000000000000000000000000000000000000000000000000000000000000000000000000000000000000000000000000000000000000000000000000000000000000000001010000000000000000000000000000000000000000000000000000000000000000000000000000000000000000000000000000000000000000000000000000000000000000000000000000000000000000000000100000000000000000000000000000001000000000000000000000000000000000000000000000000000000000000000000000000000000000000000000000000000000000000000000000000000000000000000000000000000000000000000000000001000000000000000000000000000000000000000000000000000000000000000000000000000110000000000000000000000000000000000000000000000000000000000000000000000000000000000000000000000000000000000000000000000000010000000000000000000000000000000000000000000000011000001000000000000000000001100000000000000000000000000000000000000000000000000000000000000000000000000000000000000000000000000000000000000000000000000000000000000000000000000000000000000000000000000110000010000000000000000000000000000000000000000000000000000010000000000011000000000000000000000000000000000000000000000000000000000000000000000000000000000000110000000000000000000000011000000000000000000000100000000000000000000000000000000000000000000000000001101000000000110000000000000000000000000000000000000000000000000000000000000000000000000000000000001010000000000000000000000110000000000000000000000000000000000000000000000000000000000000000000000000001011000000000000000000000000000000000000000000000000000000000000000000000000000000000000000000000001100000000000000000000000000000000000000000000000000000000000000000000000000000000000000000000000000001000000000000000000000000000000000000000000000000000000000000000000000000000000000000000000000000000000000000000000000000000000000000000000000000000000000000000000000000000000000000000000000000000000000000000000000000000000000000000000000000000000000000000000000000000000000000