P1
200 200
0011000000000000000000000000000000000000000000000000000000000000000000000000000000000000010100000000000000000000100000000000000000000000000000000000000000000000000000000000000000000000010000000000000000101000000000000000000000000000000000000000000000000000000000000000000000000000000000001101000000000000010000010100000000000000000000000000000000000000000000000000000000000000000000001010000000000000000010000000000000000000000000000000000000000000000000000000000000000000000000000000000000011100000000001010000100100000000100000000000000000000000000000000000000000000000000000000000010100000000000000001000000000000000000000000000000000000000000000000000000000000000000000000000000000000000100100000000011000000110000000010100000000000000000000000000000000000100000000000000000000000010000000000000000100100000000000000000000000000000000000000000000000000000000000000000000000000000000000011111000000000000000000000000000101000000000000000000000000000011100010100000000000000000000000000011100000000001110000000000000000000000000000000000000000000000000000000000000000000000000011000000000000000000000000000000000000000000100000000000000000000000000000000000100100000000000000000000000000000000000000101000000000000000000000000000000000000000000000000000000000000000000000000000110000000000000000000000000000000000000000000000000000000000000000000000000000000110000000000000000000000000000000100000001110000000000000000000000000000000000000000000000000000000000000000000000000000000000000000000000000000000000000000001100000001100000000000000000000000000000000000000000001100000000000000000010100000101010000000000000000000000000000000000000000000000000000000000000000000000000000000000000000000000000000000000000000100100000100100000000000000000000000000000000000000000011000000000000000000101000001101110000000000000000000000000000000000000000000000000000000000000000000000000000000000000000000000000000000000000000110000000110000000000000000000000000000000000000000000000000000000000000000100000010100100000000000000000000000000000000000000000000000000000000000000000000000000000000000000000000000000000000000000000000000000000000000000000000000000000000000000000000000000000000000000000000000000011000000000000000000000000000000000000000000000000000000000000000000000000000000000000000000000000000000000000000000000000100000000000000000000000000000000000000000000000000000000000000000100000000000011000000000000000000000000000000000000000000000000000000000000000000000000000000100000000000000000000000000000000000000010100000000000000000000000000000000000000000000000000000000000000111110000000000000000000000000000000000000000000000000000000000000000000000000000000000000000001000000000000000000000000000000000000000101000000000000000000000000000000000000000000000000000000000000001000010000000000000000000000000000000000000000000000000000000000000000110000000000000000000000010000000000000000000000000000000000000000100000000000000000000000000000000000000000000000000000000000001101100000000000000000000000000000000000000000000000000000000000000000010010000000000000000000000000000000000000000000000000000000000000000000000000000000000000000000000000000000000000000000000000001010000010000000000000000000000000000000000000000000000000000000000000000101000000000000000000011100011100000000000000000000000000000000000000000000000000000000000000000000000000000000000000000000000100001001100111000000000000000000000000000000000000000000000000000000000000100000000000000000000000000000000000000000000000000000000000000000000000000000000000000000000000000000000000000000000000000000111101011001110000000000000000000000000000000000000000000000000000000000000000000000000000000000000100000000000000000000000000000000000000000000000000000000000000000000000000000000000000011000001100000000100000000000000000000000000000000000000000000000000000000000000000000000000000000000000000000001000000000000000000000000000000000000000000000000000000000000000000000000000000000000000110000011000000000100100000000000000000000000000000000000000000000000000000000000000000000000000000000000000000010000000000000000000000000000000000000000000000000000000000000000000000000000000000000000000000000000000000111000000000000000000000000000000000000000000000000000000000000000000000000000000000000000000000000000000000000000000000000000000000000000000000000000000000000000000000000000000000000000000000110000000000011000000000000000000000000000000000000000000000000000000000000000000000000000000000000000000000000000000000000000000000000000000000000000000000000000000000000000000000000000000000000000001100000000000110000000000000000000000000000000000000000000000000000000000000000000000000000000000000000000000000000000000000000000000000000000000000000000000000000000000000000000000000000000000000000000000000000001100000000000000000000000000000000000000000110000000000000000000000000000000000000000000000000000000000000000000000000000000000000000000000000000000000000000000000000000000000000000000000000000000000000000000000000000000000000000000000000000010010000000000000000000000000000000000000000001100000000000000000000000000000000000000000000000000000000000001111000000000000000000000000000000000000000000000000010000000000000000000000000000000000000100100000000000000000000000000000000000000000010100000000000000000000000000000000000000000000000000000000000010010000000000000000000000000000000000000000000000011010000000000000000000000000000000000000110000000000000000000000000000000000000001000111000001000000000000000000000000000000000000000000000000000001011000000000000000000000000000000000000000000000000100100000000000000000000000000000000000000000000000000000000000000000000000000000010000100000000000000000000000000000000001000000000000000000000000000001000001100000000000000000000000000000000000000011000000000000000000000000000000000000110000000000000000000000000000000000000000001000000000000000000000000000000000000000101000000000000000000000011000011000011000000000000000000000000000000000000001100000000000000000000000000000000000001100000000000000000000000000000000000000000001100000000000000000000000000000000000001010000000000000000000000010110100000000000000000000000000000000000000000000010000100000000000000000000000000000000000000000000011000000000000000000000000000000100100000000000000000000000010000000000001000000000000000000000000011100100000000000000000000000000000000000000000001100000000000000000000000000000000000000000000000001001000000000000000000000000000001001000000000000000000000001011000000000000000000000000000000000000000010000000000000000000000000000000000000000000011001100000010000000000000000000000000000000000000010100000000000000000000000000000001100000000000000011000000000110000000000000000000000000000000000000000000000000000000000000000000000000000000000000011011000001010000000000000000000000000000000000000010000000000000000000000000000000000000000000000001001000000000000000000000000000000000000000000000000000000000000000000000000000000000000000000000000000100000010010000000000000000000000000000000000000000000000000000000000000000000000000000000000000001100001111100000000000000000000000000000000000000000000000000000000000000000100000000000000000000001110000000011000000000000100000000000000000000000000000000000000000000000000001000000000000000000000000000011001100000000000000000000000000000000000000000000000000000000000000111100000000000000000000001000000000000000000000011100000000000000000000000000011000000000000000000000010000000000000000000000000000010000000000000000000000000000000000000000000000000000000000000000001101000000000000000000000000000000000000000000001101100000000000000000000000000110000000000000000000000100000000000000000000000000000010000000000000000000000000000000000000000000000000000000000000000110000000001110000000000000000000000000000000000100011000000000000000000000000000000000000000000000000000000000000000000000000000000000101000000000000000000000000000000000000000000000000000000000000010100000000000000000000000000000000000000000000001101110000000000000000010000000000000000000000000000000000000000000000000000000000000000100000000000000000000000000000000000000000000000000000000000000010000000000000000000000000000000000000000000000000011100000000000000001010000000000000000000000000000000000000000000000000000000000000001000000000000000000000000000000000110000000000000000000000000100000000000000000000000000000000000000000000000000001110000000000000000010010000000000000000000000000000000000000000000000000000000010000000000000000000000000000000000000011001000000000000000000000010100000000000000000000000000000000000000000000000000110000000000000011000011000000000000000000000000000000000000000000000000000000000100000000000000000000000000000000000001000010000000000000000000011110000000000000000000000000000000000000000000000000000000000100000000110000000000000000000000000000000000000000000000000000000000000001000000000000000000000000000000000000111010010000000000000000000110000000000000000000000000000000011000000000000000000011110100100000000000000000000000000000000000000000000000000000000000000000000000000000000000000000000000000000000000000000011000000000000000000011000000000000000000000000000000000110000000000000000000000010011100000000000000000000000000000000000000000000000000000000000000000000000000000000000000000000000000000000000000000100000000000000000000011000000000000000000000000000000000000000000000000000000001110111000000000000000000000000000000000000000000000000000000000000000000000000000000000000000000000000000000000010000000010000000000000000000000000000000000000000000000000000000000000000000000000000010010101100000000000000000000000000000000000000000000000000000000001110000000010000000000000000000000000000011001010000010000110000000000000000000000000000000000000000000000000000000000000000000000000011000000100000000000000000000000000000000000000000000000000000000000100000000100000000000000000000100000011010010000000001001011000000000000000000000000000000000000000000000000000000000000000000000000000100001000000000000000000000000000000000000000000000000000000000010000000001000000000000000000010100000100110000000000000110010000000000000000000000000000000000000000000000000000000000000000000001000010000010000000000000000000000000000000000000000000000000000000000000000000000000000000000000000100100001000111100000001111000100000000000000000000000000000000000000000000000000000000000000000000010000000001000000000000000000000000000000110000000000000000000000000000000000000000000000000000110000110000001000001100000110000010000000000000000000000000000000000000000000000000000000000000000000000000000000000000000000000000110000000000001100000000000000000000000000000000000000000000000000001100000000000001001110100010111001000000000000000000000000000000000000000000000000000000000000000000000000000000001000000000000000001100000000000000000000000000000000000000000000000000000000000000000000000000000000001111000000000111100000000000000000000000000000000000000000000000000000000000000000000000000000100001000000000000000000000000000000000000000000000000011000000000000000000000000000000000000000000000000001011001010011010000000000000000000000000000000000000000000000000000000000000000000000000000011001111000000000000000000000000000000000000000000000000110000000000110000000000001110000000000000000000000001000000000001000000000000000000000000000000000000000000000000000000000000000000000000000000000000010000000000000000110000011000000000000000000000000000000000001110000000000000000000000000000000000010001111000111100000000000000000000000000000000000000000000000000000000000000000000000000000000000110010000000001100010010000110000000000000000000000000000000000110110000000000000000000000000000000001010001000000010000000000000000000000000000000000000000000000000000000000000000000000000000000000000111100000000011000010100000000000000000000000000000000000000001111000000000000000000000000000000000000000000000000000000000000000000000000000000000000000000000000000000000000011000000000000000000000000011000000000000000010000000000000000000000000000000000000000011000111000000000000000000000000000001000100000000000000000000000000000000000000000000000000000000000000000000001001000000000000000000001000000000000000000000000000000000000000000000000000000000000000010000110000000000000000000000000000000000000000000000000000000000000000000000000000000000000000000000000000000010010000000000000000000110000000000000000000000000000000000000000000001000000000000000000000000000000000000000000000000000000000000000000000000000000000000000000000000000000000000000000000110000000000011000000000000000000000100000000000000000000000000000000000000000000111000000000000000000000000000000000000000000000001100000111000000000000000000000000000000000000000000000000000000000001100000000000000000000000000000000000000000000000000000000000000000000000000000010011000000000000000000000000000001100000000000000011000000000000000000000000000000000000000000000000000000000000000000000000000000000000000000000000000000000000000000000000000000000000000000000000000110011000000000000000000000000000100100000000000000000000000000000000000000000000000000000000000000000000000000000000000000000000000000000000000000000000000000000000000000000000000000000000000000100000001101100000000000000000000000000110000000000000000000000000000000000000000000000000000000000000000000000000000000000000000000000000000000000000000000000111000000000000000000000000000000000000001000000010010100000000000000000000000000000000000000000000000000000000000000000000000000000000000000000000000000000000000000000000000000000000000000000000000111000000000000000000000000000000000000000010000110100000100000000000000000000000000000000000000000000000000000000000000000000000000000000000000000000000000000000000000000000000000000000000000000000001000000000000000000000000110000000000000000000001100110101000000000000000000000000000000000000000000000000000000000000000000000000000000000000000000000000000000000000000000000110000000000000000000000010100001100000000000000001100000000000000000000010100111110000000000000000000000000000000000000000000000000000000000000000000000000000000000000000000000000000000000000000000010010000000000000000000000011000011011000000000000110100000000000000000000000000101000000000000000110000000000000000000000000000000000000000000000000000000000000000000000000000000000000000000000000000011000000000000000000000000000000100100000000000000101100000000000000111000000000100000000000000010010000000000000000000000000000000000000000000000000000000000000000000000000000000000000000000000000000000000000000000000000000000000000110000000000000001010000000000000010000000000000000000000000000011000000000000000000000000000000000000000000000000000000000000000000000000000000000000000000000000000000000000000000000000000000100000000000000000000000010000000000000000011100000000010000000000000000000000000000000000000000000000000000000000010000000000000000000000000000000000000000000000000000000000000000000000000000000000011100000000000000000000001100000000000000000000000000001010000000000000000000000000000000000000000000000000000000001010000000000000000000000000000000000000000000000000000000000000000000000000000000001001100000000000000000000000001000000000000000000010100111110000000000000000000000000000000000000000000000000000000010100000000000000000000000000000000000000000000000000000000000000000000000000000000010001000000000000000000000100001000000000000000000110011010100000000000000000000000000000000000000000000000000000000010000000000000000000000000000000000000000000000000000000000000000000000000000000000011010000000000000000000001000010000000000000000001101000001000000000000000000000000000000000000000001100000000000000000000001100000000000000000000000001000000000000000000000000000000000000000000000000001100000000000000000000001001100000000000000000000010010100000000000000000000000000000000000000000011000000000000000000000101000000000000000000000000101000000000000000000000000000000000000000000000000000000000000000000000000000000000000000000000000000110110000000000000000000000000000000000000000000000000000000000000000001000010000000000000000000000100000000000000000000000000000000000000000000000000000000000000000000000000111000000000000000000001100110000000000000000000000000000000000000000000000000000000000000000000010010100000000000000000000000000000000000000000000000000000000000000000000010000000000000000000000000000000000000000000000000010011000000000000000000000000000000000000000000000000000000000000000000000110101100000000000000000000000000000000000000000000000000000000000000000001100000000000000000000000000000000010000000000000000011100000000000000000000000000000000000000000000000000000000000000000000000110001000000000000000000000000000000000000000000000000000000000000000000110000100000000000000000000000000000100001100000000000010000000000000011000000000000000000000000000000000000000000000000000000000000000000000000000000000000000000000000000000000000000000000000000000000110001100000000000000000000000000001000100100000000000000000000000000110000000000000000000000000000000000000000000000000000000000000000000000000000000000000000000000000000000000000000000000000010000000111001100000000000000000000000000000000110000000000000011000000000000000000000000000000000000000000000000000000000000000000000000000000000000000000000000000000000000000000000000000000000000001010000000111011000000000000000000000000000000000000000000000000110000000000000000000000000000000000000000000000000000000000000000000000000000000000000000000000000000000000000000000000000000000000000100010001000010110000000000000000000000000000000000000000000000000000000110000000000000000000000000000000000000000000000000000000000000000000000000000000000000000000000000000001000000000000000000000011111000011000011000000000000000000000000000000000000000000000000000000010010000000000000000000000000000000000000000000000000000000000000000000000000000000000000000000000000000101000000000000000000000110000000110000000000000000000000000000000010000000000000000000000000000100100000000000000000000000000000000000000000000000000000000000001110000000000000000000000000000000000001010000000000000000000001110000000000000000000000000000000000000000100000000000000000000000000000110000000000000000000000000000000000000000000000000000000000000010011000000000000000000000000000000000001000000000000000000000001100000000000000000000000000000000000000001000000000000000000000000000000000000000000000000000000000000000000000000000000000000000000000011100000000000000000000000000000000000000000000000000000000000000000000000000000000000000000000000000000000000000000000000000000000000000000000000000000000000000000000000000000000000000000000000000000010000000000000000000000000000000000000000000000000000000000000000000000000000000000000000000000000000000000000000000000000000000001100000000000000000000000000000000000000000000000000000000000000000000000000000000000000000000000000000000100000000000000000000000000000000000000000000000000000000000000000000000000000000000000000000100100000000000000000000000000000000000000000110000000000000000000000000000000000000000000000000000000000001000000000000000000000000000000110000000000000000000000000000000000000000000000000000000000000110000000000000000000000000000000000000000010010000000000000001000000000000000000000001000000000000000000010000000000000000000000000000001100001100000000000000000000000000000000000000000000000000000000000000000000000000000000000000000000000000010100000000000000011000000000000000000000010000000000000000000000000000000000000000000000001100001111000000000000000000000000000000000000000000000000000000000000000000000000000000000000000000000000000010000001000000001100000000000000000000000100000000000000000000000000000000000000000000000000010011110000000000000000000000000000000000000000000000000000000000000000000000000000000000000000000000000000000001101100001111000000000000000000000000000000000000000000000000000000000000000000000001000101100000000000000000000000000000000000000000000000000000000000000000000000000000000000000000000000000000000000000100000010110000000000000000000111000111000000000000000000000000110000000000000000001110001110000000000000000000000000001000000000000000000000000000000000000000000000000010000000000000000000000000000000000000000000000000000000000000000000000000000000000000000000001100000000000000000000000001000000000000000000000000000101000000000000000000000000000000000000000000000000100000000000000000000000000000000000000000000000000000000000000001000000000000000000000000000000000000000000000000000000010000000000000000000000000001001000000000000000000000000000000000000000000000001000000000000000000000000000000000100001101110000000000000000000010000000000000000000000001110000000000000000000000000000000000000000000000000000000001100000000000000000000000000000000000000000000000000000000000000000000000000000000011000110011000000000000000000000100000000000000000000000100010000000000000000000000000000000000000000000000000000000000000000000000000000000000000000000000000000000000000000000000000000000000000000001111100100001000000000000000000000000000000000000000000010001100000000000000000000000000000000000000000000000000000000000000000000000000000000000000000000000000000000000000000000000000000000000000000010111011111100000000000000000000000000000000000000000000010000000000000000000000000000000000000000000001110000000000000000000000000000000000000000011100000000000000000000000000000000000000000000000000011011000011000000000000000000000000000000000000000001110110000000000000000000000000000000000000000000000000000000000000000000000000000000000000000000000000000000000000000000000000000000000000000000000001000000000000000000000000000000000000000010000000011011000100000000000000000000000000000000000000010000010000000000000000000000000000000000000000000100000000000000000000000000000000000000000000000000000100000000000000000000000000000000000011110000001000100011000000000000000000000000000000000000000100000100000000000000000000000000000000000000000001000000000000000000000000000000000111000000000000000100000000000000000000000000000000000000000010000000010001000000000000000000000000000000000000000001000001000000000000000000100000000000000000000000010000000000010000000000000000000000000000000000000011011000100000000000000000000000000000011110010010000100001000000000000000011000000000000000000000000000000000000000000000010100000000000000000000000000000000001010000000000000000000000000000000000000110110001000000000000000000000000000000001000001100010000000010110000110000110000000000000000000000000000000000000000000000101000000000000000000000000000000000010100000000000000000000000000000000000000010000010001100000000000000000000000000001000100010000010000001100001100000000000000000000000000000000000000000000000000000100000000000000000000000000000000000010000000000000000000000000000000000000000000000000100100000000000000000000000010010000110000000000001011000000000000000000000000000000000000000000000000000000000000000000000000000000011000000000000000000000000000000000000000000000000000011100011100000110000000000000000000000001110011101000100000010000000000000000000000000000000000000000000000000000000000000000000000001100010110010000000000000000000000000000000000000000000000000000000000000000000000000000000000000000000000001100000001000100001000000000000000000000000000000000000011100000000000000000000000000000000011001000110000000000000000000000000000000000000000000000000000000000000100000000000000000000000000000000000000000000000000000001100000000000011000000000000000000000000000000000000000000000000000000000011100001000100000000000000000000000000000000000000000000000000000000001000000000000000000000000000000000000000000000110000110001000000000001001000000000000000000000000100000000000000000000000000000000010001101001000000000000000000000000000000000000000000000000000000000010000000000000000000000000000000000000000000000001110110000000000000001010000000000000000000000001000000000000000000000000000000001000100100100000000000000000000000000000000000000000000000000000000000000000000000000000000000000000000000000000000000000001000000000000000001000000000000000000000000010000000000000000000000000000000001010000110000000000000000000000000000000000000000000000000000000000000000000000000000000000000000000000000000000000000000100011000000000000000000000000000000000000000000000000000000000000000000000000001000000000000000000000000000000000000000000000000000000000000000000000000000000000000000000000000000000000000000000000000100010000000000000000000000000000000000000000000000000000000000000000000000000000000000000000000000000000000000000000000000000000000000010000000000000000000000000000000001100000000000000000000000000000111000000000000000000000000000000000000000000000000000000000000000000000000000000000000000000000000000000000000000000000000000000000001010000000000000000000000000000000011000000000000000000000000000000000000000000000000000000000000000000000000000000000000000000000000000000000000000000000000000000000000000000000000000000000000000000010100000000000000000000000000000000000000000000000000000000000000000000000000000000000000000000000000000000000000000000000000000000000000000000000000000000000000000000000000000000000000000000000000000010000000000000000000000000000000000000000000001100000000000000000000000000000000000000000000000000000000000000000000000000000000000000000000000000000000000000000000000000000000000000000000000000000000000000000000000000000000000000000000000000000011000000000000000010000000000000000000000000000000000000000000000000000000000000000000000000000000000000000000000000000000000000000000000000000000000000000000000000000000000000000000000000000000000000000000000000000001010000000000000000000000000000000000000000000000000000000000000000000000000000000000000000000000000000000000000000000000000000000000000000000000000000000000000000000000000000000000000000000000000000010100000000000000000000000000000000000000000000000000000000000000000000000000000000000000000000000000000000000000110000000000000000000000000000000000000000000000000000000000000000000000000000000000000010000000000000000000000000000000000000000000000000000000000000000000000000000000000000000000000000000000000000001100000000000000000000000000000000000000000000000000000000000000000000000000000000000000000000000000000000000000000000000010000000000000000000000000000000000000000000000000000000000000000000000000000000000000000000000000000000000000000000000000000000000000110000000000000000000000000000000000000000000000000000000000000001010000000000000000000000000000000000000000000000000000000000000000000000000000000000000000000000000000000000000000000000000000000000001010000000000000000000000000000000000000000000000000000000000000010100000000000000000000000000000000000000000000000000000000000000000000100000000000000000000000000000000000000011000000000000000000000001000000000000000000000000000000000000000000000000000000000000000010000000000000000000000000000000001100000000000000000000000000000000010100000000000000000000000000000000000001001000000001100000011000000000000000000000000000000000000000000000000000000000000000000000000000000000000000000000000000000011000000000000000000000000011000000101000000000000000000000000000000000000001100000000011000001001000000000000000000000000000000000000000000000000111000000000000110000000110000000000000000000000000000000000000000000000000000000110000000100011011000000000000000000000000000000000000000000000000010100000000000000000000000000000000000000000000000000000000000000001100000010010000000000000000000000000000000000000000000000000000000000000000000100010000000000000000000000000000000000000000000000000010000000000000000000000000000000000000000000000000000000000000000000000000011000000000000000000000000000000000000000000000000000000000000000000000111000000000000000000000000000000000000000000000000000000000000000000000000000000000000000000000000000000000000000000000000000000000000000000000000000000000000000000000000000000000000000000000000000000100000000000000000000000000000000000000000000000000000000000000000000000000000000000000110000000000000000000000000000000000000000000000000000000000000000000000000000000000000000000000000000000000000000000000000000000000000000000000000000000000000000000000000000000000000000000000000000010010000000000000000000000000000000000000000000000000000000000000000000000000000000000000000000000000000000000000000001000000000000000000000000000000000000000000000000000000000000000000000000000000000101000000000000000000000000000000000000000000000000000000000000000000000000000001110000000000000000000000000000000000101000000000000000000000000000000000000000000000000000000000000000000000000000000000100000000000000000000000000000000000000000000000000000000000000000000000000000000000000000000000000000000000000000000100000000000000000000000000000000000000000000000000000000000000000000000000000000000000000000000000000000000000000000000000000000000000001100110000000000000000000000000000000000000000000000000000000000000000000000000000000000000000001000000000000000000000000000000000000000000000000000000000000000000000000001110000000000000000000000000011001100000000000000000000000000000000000000000000000000000000000000000000000000000000000000000101000000000000000000000000000000000000000000000000000000001100000000000000000000000000000000000000001100000000000000000000000000000000000000000000000000000000000000000000000000000000000000000000000001010000110000000000000000000000000000000000000000000000000100100000000000000000000000000000000000000011000000000000100000000000000000000000000000000000000000000000000000000000000000000000000000000000001000010010000000000000000000000000000000000000000000000001010000000000000000000000000000000000000000000000000000010100000000000000000000000000000000000000000000000000000000000000000000000000000000000000000011000000000000000000000000000000000000000001000000001000000000000000000000000000000000000000000000000000000101000000000000000000000000000000000000000000000000000000000000000000000000000110000000000000000000000000000000000000000000000000000000101000000000000000000000000000000000000000000000000000000000000000100000000000000000000000000000000000000000000000000000000000000000000000000010010000000000000000000000000110000000000000000000000000000110000000000000000000000000000000000000000000000000000000000000000000000000000000011000000000000000000000000000000000000000000000001000000000100100000000000000000000000010100000000000000000000000000000000000000000000000000000000000001110000000000000000000000000000000000000000000000110000000000000000000000000000000000000000000000101000000000110000000000000000000000000010000000000000000000000000000000000000000000000000000000000000000000110000000000000000000000000000000000000000000000000000000000000000000000000000000000000000010010000000000000000000000000000000000000000000000000000000000000000000000000000000000000000000000000000000010010000000000000000000000000000000000000000000000000000000000000000000000000000000000000000011000000000000000000000000000000000000000000000000000000000001100000000000000000000000000000000000000000000101000000000000000000000000000000000000000000000000000000000000000000000000000000000000000000000000000000000000000000001000110000000000000000000000000000100110000000000000000000000000000000000000000000100000000000000000000000000000000000000000000000000000000000000000000000000000000000000000000000000000000000000000000101001100000000000000000000000000001001100000000000000000000000000000000000000011000000000000000000000000000000000000000000000000000000000000000000000000000000000000000000000000000000001100000000010010000010010000011000000000000000000100110000000000000000000000000000000000000000001000000000000000000000000000000000000000000000000000000000000000000000000001100000000000000000000000000100100000011110100100010100000110000000000000000001001000000000000000000000000000000000000000001100000000000000000000000000000000000000000000000000000000000000000001000000001110000000000000000000000000101000001100000001000101000000000000000000000000010100000000000000000000000000000000000000000000001000000110000000000000000000000000100000000000000000000000000000110000000000000000000000000000000000000100000100011011000000000000000000000000000000000000000001000000000000000000000000000000000000000101000001100000000000000000000000001000000000000000000000000000011010000000110000000000000000000000000000000000111110000000000000000000000000000000000000000000101000000000000000000000000000000000000010010000000000000000000000000000000010000000000000000000000000000010100000010001100000000000000000000000000000000100011100000000000000000000000000000000000000001010000000000000000000000000000000011100011000000000100000000000000000000000000000000000000000100000100000011000000110001000000000000000000000000000000000000010000000000000000000000000000110000000000001000000000000000000000000000000000100000000000000010100000000000000000000000000000000011000001000001000000000000000111100000000000000000000000000000000000000000011000100000000000001110001000100000000000000000000000000000001100000000001010000000000001001000000000000000000000000000000000110000011000110000000000000000000000000000000000000110000000000000000000001110000100000000000100100001100000000000000000000000000000000011000000000001100000000000001100000000000000000000000000000000000000000000000000000000000000000000000000000000000010010000000000000001000010000001100000000001010000001000000000000000000000000000000000000000000000000000000000000000000000000000000000000000000000000000011100110110011100000000000000000000000000000000100100110001100000101000100010001100000000001000000000000000000000000000000000000000000000000000000000000000000000000000000000000000000000000000000000000001010101010100000000000000000000000000000000000110001100100100001010001000100110000000000000000000000000000000000000000000000000000000000000000000000000000000000000000000000000000000000000000000000000000110001100000000000000000000000000000000000000000000000101000001000010001001000000000000000000000000000000000000001000000000000000000000000000000000000000000000000000000000000000000000000000000000000000000010100000000000000000000000000000000000000000000000100000000000010100000000000000000000000000000000000000000101000000000000000000000000000000000000000000000000000000000000000000000000000000000000011000010000000000000000000000000000000000000000000000000000000000000010000000000000000000000000000000000000000001010000000000000000000000000000000000000000000000000000000000000000000000000000000000010101011011000000000000000000000000000000000000000000000000001100000000000000000000000000000000000000000000000000001000000000000000000000000000000000000000000000000000000000000000000000000000000000011100110101100000000000000000000000000000000000001000000000000011000000000000000000000000000000000000000000000000000000000000000000000000000000000000000000000000000000000000110000000000000000000000000000000001011000000000000000000000000000000000000010000000000000000000000000000000000011100000000000000000000000000000000000000000000000000000000000010000000000000000000000001100000000000000000000000000000110010010000000000000000000000000000000000000100000000000000000000000000000100000010111000000000000000000000000000000000000000000000000000000000100000000000000000000000000000000000000000000000000000001000010101000000000000011000000000000000000000000000000000000000000000000001010001100011100000000000000000000000000000000000000000000000000000001000000000000000000000000000000000000000000000000000000010000000001000000000001001000000001100000000000000000000000000000000000000000000010010111000000000000000000000000000000000000000000000000000000000000000000000000000000000000000000000000000000000000000000000010010000000000010010000000101000000000000000000000000000000000000000001000001000000000000000000000000000000000000000000000000000000000000000000000000000000000000000000000000000000000000000000000000000011000000000000011000000000100000000000000000000000000000000000000000001001100000000000000000000000000000000000000000000000000000000000000000000000000000000000000000001100000000000000000000000000000000000000000000000000000000000000000000000000000000000000000000000000000010010000000000000000000000000000000000000000000000000000000000000000000000000000000110000000000100100000000000000000000000000000000000000000000000000000000000000000000100000000000000000000000000000000000000000000000000000000000000000000000000000000000000000000000000000000000000000001100000000000110000000000000000000000000000000000000000000000000000000000000000000010100000000000000000000000000000000000000000000000000000000000000000000000000000000000000000000000000000000000000000000000000000000000000000000000000000000000000000000000000000000000000000000000000001010000000000000011100000000000000000000000000000000000000000000000000000000000000000000000000000000000000000000000000000000000000000000000000000000000000000000000000000000000000000000000000000000000101000000000000000100000000000000000000000000000000000000000000000000000000000000000000000000000000000000000000000000000000000000000000000000000000000000000000000000000000000000000000000000000000000000100000000000000011100000000000000000000000000000000000000000000000000000000000000000000000000000000010000000000000000000000000000000000000000000000000000000000000000000000000000000000000000000000000000000000000000000000000000000000000000000000000000000000000000000000000000000000000000000000000000000100000000000000000000000000000000000000000000000000000000000000000000000000000000000000000000000000000000000000000000000000000000000110000000000000000000000000000000000000000000000000000000000000000001000000000000000000000000000001000000000000000000000000000000000000000000000000000000000000000000000000000000000000000000000000000010000000000000000000000000000000000000000000000000000000000000000000000000000000000000000000000000101000000000000000000000000000000000000000000000000000000000000000000000000000000000000000000000000000011000000000000000000000000000000000000000000000000000000000000000000000000000000000000000000000001010000000000000000000000000000000000000000000000000000000000000000000000000000000000000000000000000000000000000000000000000000000000000011000000000000000000000000000000000000000000000000000000000000001000000000000000000000000000000000000000000000000000000000000000000000000000000000000000000000000000000000000000000000000000000000000001111110000000000000000000000000011100000000000000000000000000000000000000000000000000000000000000000000000000110000000000000000000000000000000000000000000000000000000000000000000000000000000000000000010001100000000000000000000000000000000000000000000000000000000000000000000000000011000000000000000000000000001100000000000000000000000000000000000000000000000000000000000000000000000000000000000000000100100000000000000000000000000000000000000000000000000000000000000000000000000000110000111000000000000000000000000000000000000000000000000000000000000000000000000000000000000000000000000000000000000000111000000000000000000000000000000000000110000000000000000000000011000000000000000000000000000000000000000000000000000000000000000000000000000000000000000000000000000000000000000000000000000000000000001100000000000000000000000000000000000001010000000000000000000000110000000000000000000000000000000000000000000000000000000000000000000000000000000000000000000000000000000000000000000000000000000000000000000000000000000000000000000000000000001100000000000000000000000000000000000000000000000000000000000000000000000000000000000000000000000000000000000000000000000000000000000000000000000000000000000000000000000000000000000000000000000000000000000000000000000000000000000000000000000000000000000000000000000000000000000000000000000000000000000000000000000000000000000000000000000000000000000000000000000000000000000000000