P1
200 200
0011000000000000000000000000000000000000000000000000000000000000000000000000000000000000110000000000000000000000100000000000000000000000000000000000000000000000000000000000000000000000010000000000000000101000000000000000000000000000000000000000000000000000000000000000000000000000000000001101000000000000010000010100000000000000000000000000000000000000000000000000000000000000000000001010000000000000000010000000000000000000000000000000000000000000000000000000000000000000000000000000000000010100000000001010000100100000000100000000000000000000000000000000000000000000000000000000000010100000000000000001100000000000000000000000000000000000000000000000000000000000000000000000000000000000000000100000000011000000110000000010100000000000000000000000000000100000100000000000000000000000010000100000000000100000000000000000000000000000000000000000000000000000000000000000000000000000000000000011111000000000000000000000000000101000000000000000000000000000001000010100000000000000000000000000001000000000010010000000000000000000000000000000000000000000000000000000000000000000000000011000000000011100000000000000000000000000000100000000000000000000000000000010000100100000000000000000000000000010000000000100000000000000000000000000000000000000000000000000000000000000000000000000000110000000000000000000000000000000000000000000000000000000000000000000000000000000110000000000000000000000000000000100000010001000000000000000000000000000000000000000000000000000000000000000000000000000000000000000000000000000000000000000001100000001100000000000000000000000000000000000000000001100000000000000000010100000100001000000000000000000000000000000000000000000000000000000000000000000000000000000000000000000000000000000000000000100100000100100000000000000000000000000000000000000000011000000000000000000101000001000010000000000000000000000000000000000000000000000000000000000000000000000000000000000000000000000000000000000000000110000000110000000000000000000000000000000000000000000000000000000000000000100000010000100000000000000000000000000000000000000000000000000000000000000000000000000000000000000000000000000000000000000000000000000000000000000000000000000000000000000000000000000000000000000000000000000000000000000000000000000000000000000000000000000000000000000000000000000000000000000000000000000000000000000000000000000000100000000000000000000000000000000000000000000000000000000000000000100000000000111000000000000000000000000000000000000000000000000000000000000000000000000000000000000000000000000000000000000000000000010100000000000000000000000000000000000000000000000000000000000000101110000000000000000000000000000000000000000000000000000000000000000000000000000000000000000011100000000000000000000000000000000000000101000000000000000000000000000000000000000000000000000000000000000000100000000000000000000000000000000000000000000000000000000000000000110000000000000000000000000000000000000000000000000000000000000000100000000000000000000000000000000000000000000000000000000000011111000000000000000000000000000000000000000000000000000000000000000000010010000000000000000000100000100000000000000000000000000000000000000000000000000000000000000000000000000000000000000000000000000110111010001000000000000000000000000000000000000000000000000000000000000101000000000000000000001000001000000000000000000000000000000000000000000000000000000000000000000000000000000000000000000000000100001010010101000000000000000000000000000000000000000000000000000000000000100000000000000000000010000010000000000000000000000000000000000000000000000000000000000000000000000000000000000000000000000000111101111001010000000000000000000000000000000000000000000000000000000000000000000000000000000000000000000000000000000000000000000000000000000000000000000000000000000000000000000000000000011000001100000111111110001000000000000000000000000000000000000000000000000000000000000000000000000000000000000011100000000000000000000000000000000000000000000000000000000000000000000000000000000000000110000011000000000110100000000000000000000000000000000000000000000000000000000000000000000000000000000000000000000000000000000000000000000000000000000000000000000000000000000000000000000000000000000000000000000000000000111000000000000000000000000000000000000000000000000000000000000000000000000000000000000000000000000000000000000000000000000000000000000000000000000000000000000000000000000000000000000000000000110000000100011000000000000000000000000000000000000000000000000000000000000000000000000000000000000000000000000000000000000000000000000000000000000000000000000000000000000000000000000000000000000000001100000000001001000000000000000000000000000000000000000000000000000000000000000000000000000000000000000000000000000000000000000000000000000000000000000000000000000000000000000000000000000000000000000000000000000001100000000000000000000000000000000000000000110000000000000000000000000000000000000000000000000000000000000000000000000000000000000000000000000000000000011000000000000000000000000000000000000000000000000000000000000000000000000000000000000000010010000000000000000000000000000000000000000001100000000000000000000000000000000000000000000000000000000000001111000000000000000000000000000000000000000000000000110000000000000000000000000000000000000100100000000000000000000000000000000000000000100100000000000000000000000000000000000000000000000000000000000100010000000000000000000000000000000000000000000000011010000000000000000000000000000000000000110000000000000000000000000000000000000000000101000000000000000000000000000000000000000000000000000000000000111100000000000000000000000000000000000000000000000001000000000000000000000000000000000000000000000000000000000000000000000000000000110001110000000000000000000000000000000001000000000000000000000000100001100001100000000000000000000000000000000000000101000000000000000000000000000000000000110000000000000000000000000000000000000000001010000000000000000000000000000000000000101000000000000000000000011100011000011000000000000000000000000000000000000001010000000000000000000000000000000000001100000000000000000000000000000000000000000011100000000000000000000000000000000000001010000000000000000000000110010100000000000000000000000000000000000000000000000000000000000000000000000000000000000000000000000011000000000000000000000000000000100100000000000000000000000011000000000001000000000000000000000000010101100000000000000000000000000000000000000000000010010000000000000000000000000000000000000000000001001000000000000000000000000000001001000000000000000000000000001000000000000000000000000000000000000010000000000000000000000000000000000000000000000000011100000010000000000000000000000000000000000000010100000000000000000000000000000001100000000000000011000000001110000000000000000000000000000000000000000000000000000000000000000000000000000000000000111000000001010000000000000000000000000000000000000010000000000000000000000000000000000000000000000001001000011111000000000000000000000000000000000000000000000000000000000000000000000000000000000000000000110000010010000000000000000000000000000000000000000000000000000000000000000000000000000000000000001100001011110000000000000000000000000000000000000000000000000000000000000000110000000000000000000001110000000011000000000001110000000000000000000000000000000000000000000000000000000000000000000000000000000000001100000000000000000000000000000000000000000000000000000000000000100100000000000000000000011100000000000000000000100010000000000000000000000000011000000000000000000000111000000000000000000000000000111000000000000000000000000000000000000000000000000000000000000000000001000000010000000000000000000000000000000000001100000000000000000000000000000110000000000000000000000000000000000000000000000000000111000000000000000000000000000000000000000000000000000000000000000000000000000100000000000000000000000000000000000100000100000000000000000000000000000000000000000000000000000000000000000000000000000000100000000000000000000000000000000000000000000000000000000000000010100000000001000000000000000000000000000000000001110001000000000000000010000000000000000000000000000000000000000000000000000000000000001110000000000000000000000000000000000000000000000000000000000000010000000000000000000000000000000000000000000000001000000000000000000001010000000000000000000000000000000000000000000000000000000000000000000000000000000000000000000000001110000000000000000000000000100000000000000000000000000000000000000000000000000010001000000000000000010010000000000000000000000000000000000000000000000000000000000000000000000000000000000000000000000011110000000000000000000000000100000000000000000000000000000000000000000000000000110000000000000011000011000000000000000000000000000000000000000000000000000000001110000000000000000000000000000000000010000111000000000000000000010010000000000000000000000000000000000000000000000000000000000000000000110000000000000000000000000000000000000000000000000000000000000000000000000000000000000000000000000000111000010000000000000000000000000000000000000000000000000000011000000000000000000001111010010000000000000000000000000000000000000000000000000000000000000000000000000000000000000000000000000000000000000100111000000000000000000010000000000000000000000000000000000110000000000000000000010000000000000000000000000000000000000000000000000000000000000000000000000000000000000000000000000000000000000000000000000100000000000000000000111000000000000000000000000000000000000000000000000000000001010000000000000000000000000000000000000000000000000000000000000000010000000000000000000000000000000000000000000010000000100000000000000000000000000000000000000000000000000000000000000000000000000000010010101100000000000000000000000000000000000000000000000000000000000110000000000000000000000000000000000000111001000000001000111000000000000000000000000000000000000000000000000000000000000000000000000011110000100000000000000000000000000000000000000000000000000000000010100000001110000000000000000000100000011000101000000000000011000000000000000000000000000000000000000000000000000000000000000000000000011000011100000000000000000000000000000000000000000000000000000000000000000000000000000000000000010100001101100010000000100011011000000000000000000000000000000000000000000000000000000000000000000000000000000110000000000000000000000000000000000000000000000000000000000000000000000000000000000000000100100001101111110000011111101100000000000000000000000000000000000000000000000000000000000000000000000000000000000000000000000000000000000000110000000000000000000000000000000000000000000000000000110000110000001001000000000000010010000000000000000000000000000000000000000000000000000000000000000000000000000000000000000000000000110000000000001100000000000000000000000000000000000000000000000000001100000000000001100000000000000011000000000000000000000000000000000000000000000000000000000000000000000000000000000000000000000000001100000000000000000000000000000000000000000000000000000000000000000000000000000000001000010000010000100000000000000000000000000000000000000000000000000000000000000000000000000001100100100000000000000000000000000000000000000000000000011000000000000000000000000010000000000000000000000010001000000010001000000000000000000000000000000000000000000000000000000000000000000000000000011000101000000000000000000000000000000000000000000000000110000000000101000000000000100000000000000000000000001000100010001000000000000000000000000000000000000000000000000000000000000000000000000000000000000011000000000000000110000011000000000000000000000000000000000000001000000000001000000000000000000000010001110000011100000000000000000000000000000000000000000000000000000000000000000000000000000000000110010000000001100010010000110000000000000000000000000000000000000010000000000000000000000000000000000100011000000011000000000000000000000000000000000000000000000000000000000000000000000000000000000001100010000000011000010100000000000000000000000000000000000000010001011000000000000000000000000000000000000000000000000000000000000000000000000000000000000000000000000000000000011000000000000000000000000001000000000000000010000000000000000000000000000000000000000000000101000000000000000000000000000000000000000000000000000000000000000000000000000000000000000000000000000000001001000000000000000000011000000000000000000000000000000000000000000000000000000000000000110001010000000000000000000000000000000000000000000000000000000000000000000000000000000000000000000000000000000010010000000000000000000111000000000000000000000000000000000000000000011100000000000000000000000000000000000000000000000000000001000000000000000000000000000000000000000000000000000000000000110000000000011000000000000000000001100000000000000000000000000000000000000000000100100000000000000000000000000000000000000000000001100000010000000000000000000000000000000000000000000000000000000000001100000000000000000000000000000000000000000000000000000000000000000000000000000010000100000000000000000000000000001100000000000000011000000100000000000000000000000000000000000000000000000000000000000000000000000000000000000000000000000000000000000000000000000000000000000000000000111000100000000000000000000000000100100000000000000000000000000000000000000000000000000000000000000000000000000000000000000000000000000000000000000000000001000000000000000000000000000000000000000000000011001100000000000000000000000000110000000000000000000000000000000000000000000000000000000000000000000000000000000000000000000000000000000000000000000000110000000000000000000000000000000000000011100000010110100000000000000000000000000000000000000000000000000000000000000000000000000000000000000000000000000000000000000000000000000000000000000000000000101000000000000000000000000000000000000000000000110101110100000000000000000000000000000000000000000000000000000000000000000000000000000000000000000000000000000000000000000000000000000000000000000000011010000000000000000000000110000000000000000000010001110101100000000000000000000000000000000000000000000000000000000000000000000000000000000000000000000000000000000000000000000110000000000000000000000010100001110000000000000000010000000000000000000010001000010000000000000000000000000000000000000000000000000000000000000000000000000000000000000000000000000000000000000000000010010000000000000000000000011000100011000000000000100110000000000000001000000001000100000000000000110000000000000000000000000000000000000000000000000000000000000000000000000000000000000000000000000000011000000000000000000000000000000100110000000000000101100000000000000110000000000100000000000000010010000000000000000000000000000000000000000000000000000000000000000000000000000000000000000000000000000000000000000000000000000000000000110000000000000011011000000000000010000000000000000000000000000011000000000000000000000000000000000000000000000000000000000000000000000000000000000000000000000000000000000000000000000000000001110000000000000000000000010000000000000000011000000000010000000000000000000000000000000000000000000000000000000000010000000000000000000000000000000000000000000000000000000000000000000000000000000000010010000000000000000000001100000000000000000010000000010001000000000000000000000000000000000000000000000000000000001010000000000000000000000000000000000000000000000000000000000000000000000000000000001000100000000000000000000011000000000000000000000010001000010000000000000000000000000000000000000000000000000000000010100000000000000000000000000000000000000000000000000000000000000000000000000000000010101100000000000000000000000011000000000000000001000111010110000000000000000000000000000000000000000000000000000000010000000000000000000000000000000000000000000000000000000000000000000000000000000000011011000000000000000000001100011000000000000000001101011101000000000000000000000000000000000000000001100000000000000000000001100000000000000000000000001000000000000000000000000000000000000000000000000011100000000000000000000000001100000000000000000000010110100000000000000000000000000000000000000000011000000000000000000000101000000000000000000000000101000000000000000000000000000000000000000000000000000000000000000000000000010110000000000000000000001100110000000000000000000000000000000000000000000000000000000000000000011000100000000000000000000000100000000000000000000000000000000000000000000000000000000000000000000000000010000000000000000000001110001000000000000000000000000000000000000000000000000000000000000000000110100100000000000000000000000000000000000000000000000000000000000000000000110000000000000000000000000000100000000000000000000010000100000000000000000000000000000000000000000000000000000000000000000000100101100000000000000000000000000000000000000000000000000000000000000000010100000000000000000000000000000000000000000000000000010010000000000000000000000000000000000000000000000000000000000000000000001110011000000000000000000000000000000000000000000000000000000000000000000100000110000000000000000000000000001110001100000000000111000000000000011000000000000000000000000000000000000000000000000000000000000000000000000000000000000000000000000000000000000000000000000000000001000011010000000000000000000000000000000100100000000000000000000000000110000000000000000000000000000000000000000000000000000000000000000000000000000000000000000000000000000000000000000000000000010000001000000000000000000000000000000000000000110000000000000011000000000000000000000000000000000000000000000000000000000000000000000000000000000000000000000000000000000000000000000000000000000000001110000001001000100000000000000000000000000000000000000000000000110000000000000000000000000000000000000000000000000000000000000000000000000000000000000000000000000000000000000000000000000000000000001000010001100010000000000000000000000000000000000000000000000000000000000110000000000000000000000000000000000000000000000000000000000000000000000000000000000000000000000000000001000000000000000000000000011000100000011100000000000000000000000000000000000000000000000000000010010000000000000000000000000000000000000000000000000000000000000010000000000000000000000000000000000000101000000000000000000001000000000110000000000000000000000000000000000000000000000000000000000000100100000000000000000000000000000000000000000000000000000000000001111000000000000000000000000000000000001010000000000000000000000000000000000000000000000000000000000000001110000000000000000000000000000110000000000000000000000000000000000000000000000000000000000000010001000000000000000000000000000000000001000000000000000000000010100000000000000000000000000000000000000000000000000000000000000000000000000000000000000000000000000000000000000000000000000000000000000010010000000000000000000000000000000000000000000000000000000000000000000000000000000000000000000000000000000000000000000000000000000000000000000000000000000000000000000000000000000000000000000000000000111000000000000000000000000000000000000000000000000000000000000000000000000000000000000000000000000000000000000000000000000000000001100000000000000000000000000000000000000000000000000000000000000000000000000000000000000000000000000000000000000000000000000000000000000000000000000000000000000000000000000000000000000000000000000000100100000000000000000000000000000000000000000110000000000000000000000000000000000000000000000000000000000011100000000000000000000000000000110000000000000000000000000000000000000000000000000000000000000110000000000000000000000000000000000000000010010000000000000001100000000000000000000000000000000000000000000000000000000000000000000000000100000100000000000000000000000000000000000000000000000000000000000000000000000000000000000000000000000000010100000000000000001000000000000000000000111000000000000000000000000000000000000000000000000101001000100000000000000000000000000000000000000000000000000000000000000000000000000000000000000000000000000010000011100000000000000000000000000000000000000000000000000000000000000000000000000000000010101000010000000000000000000000000000000000000000000000000000000000000000000000000000000000000000000000000000000000101000001000100000000000000000001000001000000000000000000000000000000000000000000000110111000100000000000000000000000000000000000000000000000000000000000000000000000000000000000000000000000000000000001110000010010000000000000000000010000010000000000000000000000000110000000000000000001110010010000000000000000000000000001000000000000000000000000000000000000000000000000000000000000000000000000000000000000000000000000000000000000000100000100000000000000000000000001100000000000000000001000000000000000000000000000000000101000000000000000000000000000000000000000000000001110000000000000000000000000000000000000000010000000000000000000000000000000000000000000000010000000000000000000000000000000000000000000000000000000001001000000000000000000000000000000000000000000000000000000000000000000000000000000001100011111010000000000000000000111000000000000000000000001110000000000000000000000000000000000000000000000000000000001100000000000000000000000000000000000000000000000000000000000000000000000000000000100000100110000000000000000000000000000000000000000000000110010000000000000000000000000000000000000000000000000000000000000000000000000000000000000000000000000000000000000000000000000000000000000000001000100000001000000000000000000000000000000000000000000011001100000000000000000000000000000000000000000010000000000000000000000000000000000000000000100000000000000000000000000000000000000000000000000010000011110010000000000000000000000000000000000000000011011000000000000000000000000000000000000000000000100000000000000000000000000000000000000000001000000000000000000000000000000000000000000000000000010001111001000000000000000000000000000000000000000001010010000000000000000000000000000000000000000000001000000000000000000000000000000000000000000010000000000000000000000000000000000000000000000000000011010000000000000000000000000000000000000011000000100000101100000000000000000000000000000000000000000000000000000000000000000000000000000000000000000000000000000000000000000000000000001000000000000000001000000000000000000000000000000000000001110000000110110011000000000000000000000000000000000000001110001110000000000000000000000000000000000000000011100000000000000000000000000000000010000000000000001101100000000000000000000000000000000001000010000000011001010000000000000000000000000000000000000000000000000000000000000000100000000000000000000000000000000000010000000000000000000000100000000000000000011000000000000000000000000000000000001110000110001100000000000000000000011000000000000000000000000000000000000000000000010100000000000000000000000000000000001010000000000000000000000000000000000000100010011100000000000000000000000000000000000011110000000000001110000110000110000000000000000000000000000000000000000000000101000000000000000000000000000000000010100000000000000000000000000000000000000111000000001100000000000000000000000000011000100100000000000000010001100000000000000000000000000000000000000000000000000000100000000000000000000000000000000000010000000000000000000000000000000000000100000100000100100000000000000000000000111110110110000000000000111000000000000000000000000000000000000000000000000000000000000000000000000000000000000000000000000000000000000000000000000000000000000001000001000000110000000000000000000000001001011011000000000000000000000000000000000000000000000000100000000000000000000000000000000001100000111000000000000000000000000000000000000000000000000000000000010000010000000000000000000000000000000010100010000000000001010000000000000000000000000000000000001000000000000000000000000000000000000011000010000000000000000000000000000000000000000000000000000000000000000000000000000000000000000000000000000000000011000000001100000000000011000000000000000000000010000000000000000000000000000000000100100000000000000000000000000000000000000000000000000000000000000000011100000000000000000000000000000000000000000000000011111011000000000001001000000000000000000000000000000000000000000000000000000000001001101011000000000000000000000000000000000000000000000000000000000000000000000000000000000000000000000000000000000000110010000000000000001010000000000000000000000011100000000000000000000000000000001110111100100000000000000000000000000000000000000000000000000000000000000000000000000000000000000000000000000000000000001101100000000000000001000000000000000000000000000000000000000000000000000000000001110000110000000000000000000000000000000000000000000000000000000000000000000000000000000000000000000000000000000000000000110011000000000000000000000000000000000000000000000000000000000000000000000000001000000000000000000000000000000000000000000000000000000000000000000000000000000000000000000000000000000000000000000000000110010000000000000000000000000000000000000000000000000000000000000000000000000000000000000000000000000000000000000000000000000000000000010000000000000000000000000000000001100000000000000000000000000000111000000000000000000000000000000000000000000000000000000000000000000000000000000000000000000000000000000000000000000000000000000000001010000000000000000000000000000000011000000000000000000000000000000100000000000000000000000000000000000000000000000000000000000000000000000000000000000000000000000000000000000000000000000000000000000010100000000000000000000000000000000000000000000000000000000000000000000000000000000000000000000000000000000000000000000000000000000000000000000000000000000000000000000000000000000000000000000000000000010000000000000000000000000000000000000000000001100000000000000000000000000000000000000000000000000000000000000000000000000000000000000000000000000000000000000000000000000000000000000000000000000000000000000000000000000000000000000000000000000000011000000000000000010000000000000000000000000000000000000000000000000000000000000000000000000000000000000000000000000000000000000000000000000000000000000000000000000000000000000000000000000000000000000000000000000000001010000000000000000000000000000000000000000000000000000000000000000000000000000000000000000000000000000000000000000000000000000000000000000000000000000000000000000000000000000000000000000000000000000010100000000000000000000000000000000000000000000000000000000000000000000000000000000000000000000000000000000000000110000000000000000000000000000000000000000000000000000000000000000000000000000000000000010000000000000000000000000000000000000000000000000000000000000000000000000000000000000000000000000000000000000001100000000000000000000000000000000000000000000000000000000000000000000000000000000000000000000000000000000000000000000000010000000000000000000000000000000000000000000000000000000000000000000000000000000000000000000000000000000000000000000000000000000000000110000000000000000000000000000000000000000000000000000000000000001010000000000000000000000000000000000000000000000000000000000000000000000000000000000000000000000000000000000000000000000000000000000001010000000000000000000000000000000000000000000000000000000000000010100000000000000000000000000000000000000000000000000000000000000000000100000000000000000000000000000000000000011000000000000000000000001000000000000000000000000000000000000000000000000000000000000000010000000000000000000000000000000001100000000000000000000000000000000010100000000000000000000000000000000000001001000000001100000011000000000000000000000000000000000000000000000000001000000000000000000000000000000000000000000000000000011000000000000000000000000011000000101000000000000000000000000000000000000001100000000011000001001000000000000000000000000000000000000000000000000010000000000000110000000110000000000000000000000000000000000000000000000000000000110000000100011011000000000000000000000000000000000000000000000000010100000000000000000000000000000000000000000000000000100000000000001100000010010000000000000000000000000000000000000000000000000000000000000000000100010000000000000000000000000000000000000000000000000010000000000000000000000000000000000000000000000000000000000000000000000000011000000000000000000000000000000000000000000000000000000000000000000000111000000000000000000000000000000000000000000000000000000000000000000000000000000000000000000000000000000000000000000000000000000000000000000000000000000000000000000000000000000000000000000000000000001110000000000000000000000000000000000000000000000000000000000000000000000000000000000000110000000000000000000000000000000000000000000000000000000000000000000000000000000000000000000000000000000000000000000000000000000000000000000000000000000000000000000000000000000000000000000000000000010010000000000000000000000000000000000000000000000000000000000000000000000000000010000000000000000000000000000000000001000000000000000000000000000000000000000000000000000000000000000000000000000000000101000000000000000000000000000000000000000000000000000000000000000000000000000000100000000000000000000000000000000000101000000000000000000000000000000000000000000000000000000000000000000000000000000000100000000000000000000000000000000000000000000000000000000000000000000000000000001000000000000000000000000000000000000100000000000000000000000000000000000000000000000000000000000000000000000000000000000000000000000000000000000010000000000000000000000000001100110000000000000000000000000000000000000000000000000000000000000000000000000000000000000000001000000000000000000000000000000000000000000000000000000000000000000000000000100000000000000000000000000011001100000000000000000000000000000000000000000000000000000000000000000000000000000000000000000101000000000000000000000000000000000000000000000000000000001100000000000000001000000000000000000000001100000000000000000000000000000000000000000000000000000000000000000000000000000000000000000000000001010000110000000000000000000000000000000000000000000000000100100000000000000000000000000000000000000011000000000000100000000000000000000000000000000000000000000000000000000000000000000000000000000000001000010010000000000000000000000000000000000000000000000001010000000000000000000000000000000000000000000000000000010100000000000000000000000000000000000000000000000000000000000000000000000000000000000000000011000000000000000000000000000000000000000001000000001000000000000000000000000000000000000000000000000000000101000000000000000000000000000000000000000000000000000000000000000000000000000110000000000000000000000000000000000000000000000000000000101000000000000000000000000000000000000000000000000000000000000000100000000000000000000000000000000000000000000000000000000000000000000000000010010000000000000000000000000110000000000000000000000000000110000000000000000000000000000000010000000000000000000000000000000000000000000000011000000000000000000000000000000000000000000000001000000000100100000000000000000000000010100000000000000000000000000000000000000000000000000000000000000100000000000000000000000000000000000000000000000110000000000000000000000000000000000000000000000101000000000110000000000000000000000000010000000000000000000000000000000000000000000000000000000000000001000110000000000000000000000000000000000000000000000000000000000000000000000000000000000000000010010000000000000000000000000000000000000000000000000000000000000000000000000000000000000000000000000000000010010000000000000000000000000000000000000000000000000000000000000000000000000000000000000000011000000000000000000000000000000000000000000000000000000000001110000000000000000000000000000000000000000000101000000000000000000000000000000000000000000000000000000000000000000000000000000000000000000000000000000000000000000001000110000000000000000000000000000100010000000000000000000000000000000000000000000100000000000000000000000000000000000000000000000000000000000000000000000000000000000000000000000000000000000000000000110010010000000000000000000000000011100000000000000000000000000000000000000000001000000000000000000000000000000000000000000000000000000000000000000000000000000000000000000000000000000001100000000011111100010000000011000000000000000000111101000000000000000000000000000000000000000001000000000000000000000000000000000000000000000000000000000000000000000000001100000000000000000000000000100100000110111000000110110000110000000000000000011011100000000000000000000000000000000000000000100000000000000000000000000000000000000000000000000000000000000000011000000011100000000000000000000000000101000001100001110000000000000000000000000000000001000000000000000000000000000000000000000000000001000000110000000000000000000000000000000000000000000000000000001001000000000100000000000000000000000000100000100001100000000000000000000000000000000000000000001000000000000000000000000000000000000000101000001100000000000000000000000011100000000000000000000000000010010000000100000000000000000000000000000000000110000000000000000000000000000000000000000000000101000000000000000000000000000000000100010010000000000000000000000000000000000000000000000000000000000000110110000010101100000000000000000000000000000001101111100000000000000000000000000000000000000001010000000000000000000000000000000011000011000000000100000000000000000000000000000000000000000000000000000011000000100001000000000000000000000000000000000000111000000000000000000000010000110000000000001000000000000000000000000000000001101000000000000010100000000000000000000000000000000011000011000001100000000000001111100000000000000000000000000000000000000000101000000000000000001110001010000000000000000000000000000000001100000000001010000000000001001000000000000000000000000000000000110000011000110000000000000000110000000000000000000110000000000000000000001010001110000000000100100001110000000000000000000000000000000011000000000001100000000000001100000000000000000000000000000000000000100101010100100000000000000000000000000000000010010000000000000001000110000001010000000001010000011000000000000000000000000000000000000000000000000000000000000000000000000000000000000000000000000000001110110110111000000000000000000000000000000000100100110001100000101001110000000100000000001000000000000000000000000000000000000000000000000000000000000000000000000000000000000000000000000000000000000001010101010100000000000000000000000000000000000110001100100100001010011101110101000000000000000000000000000000000000000000000000000000000000000000000000000000000000000000000000000000000000000000000000001110010000000000000000000000000000000000000000000000000101000001000011011001100000000000000000000000000000000000001000000000000000000000000000000000000000000000000000000000000000000000000000000000000000000010100000000000000000000000000000000000000000000000100000000000011100000000000000000000000000000000000000000101000000000000000000000000000000000000000000000000000000000000000000000000000000000000111001000100000000000000000000000000000000000000000000000000000000000010000000000000000000000000000000000000000001010000000000000000000000000000000000000000000000000000000000000000000000000000000000010101010001000000000000000000000000000000000000000000000000001100000000000000000000000000000000000000000000000000001000000000000000000000000000000000000000000000000000000000000000000000000000000000001110110100000000000000000000000000000000000000000000000000000011000000000000000000000100000000000000000000000000000000000000000000000000000000000000000000000000000000000000110000000000000000000000000010010101000100000000000000000000000000000000000111000000000000000000000000000000000011111000000000000000000000000000000000000000000000000000000000000000000000000000000000001100000000000000000000000000000110010010000000000000000000000000000000000000000000000000000000000000000000010000000111000000000000000000000000000000000000000000000000000000001110000000000000000000000000000000000000000000000000000011000001010000000000000011000000000000000000000000000000000000000000000000000100001101000100000000000000000000000000000000000000000000000000000000000000000000000000000000000000000000000000000000000000000000010111000000000001001000000001100000000000000000000000000000000000000001000010101101000000000000000000000000000000000000000000000000000000000000000000000000000000000000000000000000000000000000000000000001010000000000010010000000101000000000000000000000000000000000000000000000101000100000000000000000000000000000000000000000000000000000000000000000000000000000000000000000000000000000000000000000000000011000000000000011000000000100000000000000000000000000000000000000000011001100000000000000000000000000000000000000000000000000000000000000000000000000000000000000000001100000000000000000000000000000000000000000000000000000000000000000000000000000000000000000000000000000000011000000000000000000000000000000000000000000000000000000000000000000000000000000110000000000100100000000000000000000000000000000000000000000000000000000000000000000100000000000000000000000000000000000000000000000000000000000000000000000000000000000000000000000000000000000000000001100000000000110000000000000000000000000000000000000000000000000000000000000000000010100000000000000100000000000000000000000000000000000000000000000000000000000000000000000000000000000000000000000000000000000000000000000000000000000000000000000000000000000000000000000000000000000001010000000000000011000000000000000000000000000000000000000000000000000000000000000000000000000000000000000000000000000000000000000000000000000000000000000000000000000000000000000000000000000000000000101000000000000000001000000000000000000000000000000000000000000000000000000000000000000000000000000000000000000000000000000000000000000000000000000000000000000000000000000000000000000000000000000000000100000000000000011100000000000000000000000000000000000000000000000000000000000000000000000000000000000000000000000000000000000000000000000000000000000000000000000000000000000000000000000000000000000000000000000000000010000000000000000000000000000000000000000000000000000000000000000000000000000000001110000000000000000000000000000000000000000000000000000000000000000000000000000000000000000000000000000000000000000000000000000000000100000000000000000000000000000000000000000000000000000000000000000000000000000000000000000000000001000000000000000000000000000000000000000000000000000000000000000000000000000000000000000000000000000010000000000000000000000000000000000000000000000000000000000000000000000000000000000000000000000000101000000000000000000000000000000000000000000000000000000000000000000000000000000000000000000000000000010000000000000000000000000000000000000000000000000000000000000000000000000000000000000000000000001010000000000000000000000000000000000000000000000000000000000000000000000000000000000000000000000000000000000000000000000000000000000000100010000000000000000000000000000100000000000000000000000000000001000000000000000000000000000000000000000000000000000000000000000000000000000000000000000000000000000000000000000000000000000000000000001000010000000000000000000000000001000000000000000000000000000000000000000000000000000000000000000000000000000110000000000000000000000000000000000000000000000000000000000000000000000000000000000000000110000100000000000000000000000000010000000000000000000000000000000000000000000000011000001000000000000000000001100000000000000000000000000000000000000000000000000000000000000000000000000000000000000000100100000000000000000000000000000000000000000000000000000000000000000000000000000110000010000000000000000000000000000000000000000000000000000000000000000000000000000000000000000000000000000000000000001001000000000000000000000000000000000000110000000000000000000000011000000000000000000000100000000000000000000000000000000000000000000000000000000000000000000000000000000000000000000000000000000000000001010000000000000000000000000000000000001010000000000000000000000110000000000000000000000000000000000000000000000000000000000000000000000000000000000000000000000000000000000000000000000000000000000000000000000000000000000000000000000000000001100000000000000000000000000000000000000000000000000000000000000000000000000000000000000000000000000000000000000000000000000000000000000000000000000000000000000000000000000000000000000000000000000000000000000000000000000000000000000000000000000000000000000000000000000000000000000000000000000000000000000000000000000000000000000000000000000000000000000000000000000000000000000000