P1
200 200
0000000000000000000000000000000000000000000000000000000000000000000000000000000000000000000000000000000000000000100000000000000000000000000000000000000000000000000000000000000000000000010000000000000000000000000000000000000000000000000000000000000000000000000000000000000000000000000000000000000000000000010000010100000000000000000000000000000000000000000000000000000000000000000000001010000000000000000000000000000000000000000000000000000000000000000000000000000000000000000000000000000000000000000000001010000100100000000100000000000000000000000000000000000000000000000000000000000010100000000000000000000000000000000000000000000000000000000000000000000000000000000000000000000000000000000000000000000011000000110000000010100000000000000000000000000000100000100000000000000000000000010000100000000000000000000000000000000000000000000000000000000000000000000000000000000000000000000000000000000000000000000000000000000000101000000000000000000000000000001000010100000000000000000000000000001000000000000000000000000000000000000000000000000000000000000000000000000000000000000000011000000000000000000000000000000000000000000100000000000000000000000000000010000100100000000000000000000000000010000000000000000000000000000000000000000000000000000000000000000000000000000000000000000110000000000000000000000000000000000000000000000000000000000000000000000000000000110000000000000000000000000000000000000000000000000000000000000000000000000000000000000000000000000000000000000000000000000000000000000000000000000000000000001100000001100000000000000000000000000000000000000000001100000000000000000000000000000000000000000000000000000000000000000000000000000000000000000000000000000000000000000000000000000000000000000000000100100000100100000000000000000000000000000000000000000011000000000000000000000000000000010000000000000000000000000000000000000000000000000000000000000000000000000000000000000000000000000000000000000000110000000110000000000000000000000000000000000000000000000000000000000000000001000000011100000000000000000000000000000000000000000000000000000000000000000000000000000000000000000000000000000000000000000000000000000000000000000000000000000000000000000000000000000000000000000000111000001110000011000000000000000000000000000000000000000000000000000000000000000000000000000000000000000000000000000000000000000100000000000000000000000000000000000000000000000000000000000000000000011001000000000000110000000000000000000000000000000000000000000000000000000000000000000000000000000000000000000000000000000000000010100000000000000000000000000000000000000000000000000000000000000000001000110000000011000000000000000000000000000000000000000000000000000000000000000000000000011100000000000000000000000000000000000000101000000000000000000000000000000000000000000000000000000011000000000010100000000001100000000000000000000000000000000000000000000000000110000000000000000000000000000000000000000000000000000000000000000100000000000000000000000000000000000000000000000000000001001000000000001000000000000000000000000000000000000000000000000000000000000010010000000000000000000100000100000000000000000000000000000000000000000000000000000000000000000000000000000000000000000000010100000000001110000000000110000000000000000000000000000000000000000000000000101000000000000000000001000001000000000000000000000000000000000000000000000000000000000000000000000000000000000000000000000010000000000000000000000010010000000000000000000000000000000000000000000000000100000000000000000000010000010000000000000000000000000000000000000000000000000000000000000000000000000000000000000000000000000000000000000000001101000100000000000000000000000000000000000000000000000000000000000000000000000000000000000000000000000000000000000000000000000000000000000000000000000000000000000000000011000000000000000000000000000000110010000000000000000000000000000000000000000000000000000000000000000000000000000000000000000000000000000000000000000000000000000000000000000000000100000000000000000000110000000000000000000000000000001111000000000000000000000000000000000000000000000000000000000000000000000000000000000000000000000000000000000000000000000000000000000000000011100111000000000000000000000000000000000000000000000000000000110000000000000000000000000000000000000000000000000000000000000000000000000000000000000000000000000000000000000000000000000000000000000000100000100000000000000000000000000000000100000000000000000010010000000000000000000000000000000000000000000000000000000000000000000000000000000000001110000000000000000000000000000000000000000000000000001110000000000000000000000000000000000010100000000000000000011100000000000000000000000000000000000000000000000000000000000000000000000000001111000100001000000000000000000000000000000000000000000000000000000000000000000000000000000000000001100000000000000000000000000000000000000000000000000000000110000000000000000000000000000000000000000100001100000010000000000000000000000000000000000000000000000000000000000000000000000000000000000000000000000000000000000000000000000000000000000000000000000010010000000000000000000000000000000000000001000011000000100000000000000000000000000000000000000000000000000000000000000000000000000000000000000000000100000000000000000000000000000000000000000000000000100100000000000000000000000000000000000000001000000001100000000000000000000000000000000000000000000000000000000000000000000000000000000000000001011100100000000000000000000000000000000000000000000000000110000000000000000000000000000000000000000000111011010000000000000000000000000000000000000000000000000000000000110000000000000000000000000000010001000000000000000000000000000000000000101010000010000000000000000000000000000000000000000000000000001000100000000000000000000000000000001000000000000000000000000000010100001100000000000000000000000100000000000000110000000000000000000000000010011001110000000000000000000000000000000000000000000001100010010000000000000000000000000000000101000000000000000000000000000010000011000000000000000000000000001000000000010010000000000000000000001100100000100111100000000000000000000000000000000000000000011000010100000000000000000000000000000001010000000000000000000000000000000000000000000000000000000000000000000000000000010000000000000000000001000000101111100000000000011000000000000000000000000000000000000010000000000000000000000000000000001000000000000000000110000000000000000000000000000000000000000000000000000000011100000000000000000000001111111000110000000000001001000000000000000000000000000000000000000000000000111000000000000000000000000000000000000001010000000000000000000000000000000000000000000000000000000101000000010000000000000010001101111100000000000010100000000000000000000000000000000000000000000000000000000000000000000000000000000000000000001000000000000000000000000000000000000000000000000000000001100000001010000000000000001110001100000000000000010000000000000000000000000000000000000000000000000010010000000000000000000000000000000000000000000000000000000000000000000000001000000000000000000000011000000010010000000000000000000000000000000000000000000000000000000000000000000000000000000000000000000100000000000000000000000000000000000000000000010000000000000000000000000101000000000000000011010000000000011000000000000000000000000000000000000000000000000000000000000000000000000000000000000000001010000010000000000000000000000000000000000000001010000000000000000000000001010000000000000001100001000000000000000000000000000000000000000000000000000011000000000000000000000111000000000000000000000011100000100000000000000000000000000000000000100010100000000000000000000000001000000010000111001000110000000000000000000000000000000000000000000000000000110000000000000000000000000000000000000000011000111000001000000000000000000000000000000000010100010000000000000000000000000000000000100000000010010000000000000001100000000000000000000000000000000000000000000000000000000000000000000000000000000011000111000000000000000000000000000000000000000101000000000000000000000000000000000000001000000000011100000000000000010100000000000000000000000000010000000000000000000000000000000000000000000000000100100001001000000000000000000000000000000000000000100000000000000000000000000000000000000000000000000000000000000000000010000000000000000000000000001010000000000000000000000000000000000000000000000001001000001001000000000000000000000000000000000000000000000000000000000000000000000000000000000000000000000000000000000000000000000000000000000000000010010000000000000000000000000000000000000000000000010010000001110000000000000000000000000000000001100000001100000000000000000000000000000000000000000000000000000000000000000000000000000000000000011000011000000000000000000000000000000000000000000000000000110000001001000000000000000000000000000000011000000100100000000000000000000000000000000000000000000000000000000000000000000000000000000000000110000000000000000000000000000000000000000000000000000000011000000001001000000000000000000000000000000000000000110000000000000000000000000000000000000000000000000011000000000000000000000000000000000000000000000000000000000000000000000000000000000000000000000000000000010100000000000000000000000000000000000000000000000000000000011000000000000000000000000000000000110000000000000000000000000000000000000000000000000000000000000000000000000000000000000000000000000000001110000000000000000000000000000000000000000000000000000010001001000000000000000000000000000000000000000000000000000000000000000001110000000000000000000000000000000000000000000000000000000000000000000011100000000000000000000000000000000000000011000000000001110001100000000000000000000000000000000000000000000000000000000000000000000000000000000000000000000000000000000000000000000000000000000000000011000000000000000000000000000000001110100000110000000000100110000000000000000000000000000000000000000000000000000111000000110000010000010000000000000000000000000000000000000000000000000000000000000000110000000000000000000000000000000000010100000000000000011000000000000000000000000000000000000000000000000000000000000000000000000100000100000000000000000000000000000000000000000000000000000000000000001100000000000000000000000000000010000100100000000001000101000100000000000000000000000000000000000000000000000000000000000000011101000001000000000000000000000000000000000000000000000000000000000000000000000000000000000000000000000000100000001000000001101000110000000000000000000000000000000000000000000000000000000000000000001010000000000000000000000000000000000110000000000000000000000000000000000000000000000000000110000000000000001000010010000000011010000110000100000000000000000000000000000000000000000000000000000000000011000001110000000000000110000000000001100000000000000000000000000000000000000000000000000001100000000000000000000101000000111001000000110001110000000000000000000000000000000000000000000000000000000000000000000000000000000001100000000000000000000000000000000000000000000000000000000000000000000000000000000000001110100000001000000000011000010000000000000000000000000000000000000000000000000000000000000000000000000000000000000000000000000000000000000000000000000000000000000000000000010000000000000000000000000000000000000010100000001100000000000000000000000000000000000000000000000000000000000000000011000000000000000000000000000000000000000000000000000000000000000000000000000000000100000000000000000000000000000000000000011000000101000100000000000000000000000000000000000000000000000000000000000001001000000000000000000000110000011000000000000000000110000000000000000011000000000001000000000000000000000000000000000000000000000001100000000000000000000000000000000000000000000000000000000000000000010100000000000000001100010010000110000000000000000011000000000000000000101000000000000000000000000000000000000000000000000000000000001001100000000000000000000000000000000000000000000000000000000000000000000000000000000011000010100000000000000000000000001000000000000000000100000000000000000000000000000000000000000000000000000000000001110000000000000000000000000000000000000000000011000000000000000011000000000000000000000000010000000000000000000000000000000000000000000000000000000000000000000000000000000000000000000000000000000000001000000000000000000000000000000000000000000001001000000000000000010000000000000000000000000000000000000000000000000000000000000000000000000000000000000000000000000000000000000000000000000000000000000000000000000000000000000000000000000000000000010010000000000000011000000000000000000000000000000000000000000000000110000000000000000000000000000000000000000000000000000000001000000000000000000000000000000000000000000000000000000000000110000000000011000000000000000100000110000000000000000000000000000000000000000001100000000000000000000000000000000000000000000000001100000010000000000000000000000000000000000000000000000000000000000001100000000000000000000000000001111011000000000000000000000000000000000000000000000000000000000000000000000000000001100000000000000011000000100000000000000000000000000000000000000000000000000000000000000000000000000000000000000001100100110110000000000000000000000000000000000000000000000110000000000000000000000000100100000000000000000000000000000000000000000000000000000000000000000000000000000000000000000000000000000000000000011100000101100000000000000000000000000000000000000000000110100000000000000000000000000110000000000000000000000000000000000000000000000000000000000000000000000000000000000000000000000000000000000000001010000001010000000000000000000100000000000000000000000000001000000000000000000000000000000000000000000000000000000000000000000000000000000000000000000000000000000000000000000000000000000000000000000011000000000010000000000000000010100000000000000000000000101100000000000000000000000000000000000000000000000000000000000000000000000000000000000000000000000000000000000000000000000000000000000000000000010000000011110000000000000000101000000000000000000000000000000000000000000000000000000000000000000000000000000000000000111000000000000000000000000000000000000000000000000000000000110000000000000000000000000001010000000000000000000100000000000000000000000000011010000000000000000000000000000000000000000000000000000000000000000000110000000000000000000000000000000000000000000000010010000000000000000000000000000000000000000000000000000000000000000000000000001101010000000000000110000000000000000000000000000000000000000000000000010010000000000000000000000000000000000000000000000011000000000000000000000000000001000000000000000000000000001000000000000000000001100000000000000010010000000000000000000000000000000000000010000000000101000000000000000000000000000000000000000000000000000000000000000000001110000000110111000000000000000000001010100000000000000001110110110000100000011000000000000000000000000000000000000000100000000000100000000000000000000000000000000000000000000000000000000000000000000000000000001110010000000000000000000010000100000000000000011101010100001000000000000000000000000000000000000000000000000000000000000000011000000000000000000000000000000000000000000000000000000000000000000000000000100100000000000110000000111110000000000000001000110010000010000000000000000000000000000000000000000000000000000000000000001010000000000000000000000000000000000000000000000000000000000000000000000000001110000000000010010000000100010000000000000011100110000000000000000000000000000000000000000000000000000000000000110000000000100000000000000000000000000000000000000000000000000000000000000000000100000000000000000000011000000001110111000000000000010101100000000000000000000000000000000000000000000000000000000000001100000000001011000000000000000000000000000000000000000000000000000000001000000001000000000000000000000000000000110101110000000000000011100000000000000000000000000000000000000000001100000000000000000000000010000110000000000000000001000000000000000000000000000000000001000111000000010000000000000000000000000000000000000000000000000000010000000000000000000000000000000000000000000011000000000000000000000000110001100010000000000000101000000000000000000000000000000000101101111000000000000000000000000000000000000010111000000000000000000011000000000000000000000000000000000000000000000000000000000000000000001011000010100000000000000100000000000000000000000000000000000001000011000000000000000000000000000000000000011110000111000000000000100000000000000000000000000000000000000000000000000000000000000000000000110001101100000000000000000000000000000000000000000000000011000000011000000000000000000000000000000000000000000000000000000000010000000000000000000000000000000000000000000000000000000000000000000000000010001010000000000000000000000000000000000000000000000000111100001100000000000000000000000000000000000110000000000000000000000000000000000000000000000000000000000000000000000000000000000000000001101001100001000000000000000000000000000000000000000000000000000011000001111000000000000000000000000000000010010001100000000000000000000000000011000000000000000000000000000000000000000000000000000000001110000000000000000000000000000000000000000000000000000000000000000000001000100000000000000000000000000000100100100100000000000000000000000000110000000000000000000000000000000000000000000000000000000001000000000000000000000000000000000000000000000000000000000011000000000100001000000000000000000000000000000110000110000000000000000000000000000000000000000000000000000000000000000000000000000000000000000000000000000000000000000000000000000000000000000000000000111000000011001000000000000000000000000000000000000000000000000000000000000000000000000000000000000000000000000000000000000000000000000000000000000000000000000000000000000000000000000000000000000000000110000000110000000000000000000000000000000000000000000000000000000000000000110000000000000000000000000000000000000000000000000000000000000000000000000000000000000000000000000000001000000000000000000000000000001100010100000000000000000000000000000000000000000000000000000000010010000000000000000000000000000000000000000000000000000000000000000000000000000000000000000000000000000101000000000000000000000001000011000100001100000000000000000000000000000000000000000000000000000100100000000000000000000000000000000000000000000000000000000000000000000000000000000000000000000000000001010000000000000000000001101000000010000011000000000000000000000001110000000000000000000000000000110000000000000000000000000000000000000000000000000000000000000000000000000000000000000000000000000000001000000000000000000000010000010000000001100000000000000000000000000000000000000000000000000000000000000000000000000000000000000000000000000000000111000000000000000000000000000000000000000000000000000000000000000000000000011110001001100000000000000000000000000000000000000000000000000000000000000000000000000000000000000000000000000000000000000010001000000000000000000000000000000000000000000000000000000000000000000000000010010010100000011000000000000000000000000000000000000000000000000000001100000000000000000000000000000000000000000000000000100001000000000000000000000000000000000000000000000000000000000000000000000000110100101000000110001000000000000000000000000000000000000000000000000100100000000000000000000000000000000000000000000000001010001000000000000000000000000000000000000000000000011100000000000000000000000110001000000001011101000000000000000000000000000000000000000000000000110000000000000000000000000000000000000000100000000001000010000000001110000000000000000000000000000000000000000000000000000000000000000011100000010100010000000000000000000000000000000000000000000000000000000000000000000000000000000000000000011100000000101010000000000010000000000000000111000000000000000000000000000000000000000000000011010000000111010110000000000000000000000000000000000000000000000000000000000000000000000000000000000000000101100000000111000000000000010000000000000000000000000000000000000000000000000000000000000000000000000001100000011000000000000000000000000000000000000000000000000000000000000000000000000000000000000000001000000000000000001100000000000000000001000001000000000000000000000000000000000000000000001100000000011011100011000000000000000000000000000000000000000000000000000000000000000000000000000000000000000011100000000000000011000000000000000000010000010000000000000000000000000000000000000000000000000000000001000001100000000000000001000000000000000000000000000000000000000000000000000000000000000000000000000000000011000000000000000000001100000100000100000000000000000000000000000000000000000000000000000000011000010000000000000000101000000000000000000000000000000000000000000000001110000000000000000000000000000000110000000000000000011001100000000000000000000000000000000000000000000000000000000000000000000010111000000000000000001001000000000000000000000000000000000000000000000000000000000000000000000000000000000000000000000000000111101000000111000000000000000000000000000000000000000000000000000000000000011100000000000000000001100000000000000000000000000000000000000000000000000000000000000000000000000000000000000000000000000000001110000000000000000000000000000000000000000000000000000000000000000000000010000000000000000000000000000000110000000000000000000000000000000000000000000000000000000000000000000110000000000000000000011001100000000000000000000000000000000000000000000000000000000000000000000000000000010000000000000000000000000010000000000000000100000000000000000000000000000000000000000000000010001000000000000000001001110000000000000000000000000000000000000000000000000000000000000000000000000000000100000000000000000000000011000010000000000001000000000000000000000000000000000000000000000000100001000000000000000111001100000000000000000000000000000000001100000000000000000000000000000000000000000001000000000000000000000001010001010000000000010000000000000000000000000000000000000000000000001111001000000000000000100100000000000000000000000000000000000011000000000000000000000000000000000000000000000000000000000000000000000010100000000000000000000000000000000000000000000000000001000000000000001110000000000000000111000000000000000000000000000000000000000000000000000000000000000000000000000001110001110000000000000000001000000000000000000000011100000000000000000000000000000000010000000000000000000001000000000000100000000000000000000000000000000000000000000000000000000000000000000000000000000000000000000000000000000110100011100000000000000000000000000010000000000000000000000100000000000000000000101000000000000000000000000000000000000000000000000000000000000000000011000000000000000000000000000000000000000000000010110000000000000000000000000000000001010000000000000000000000000000110000000000001010000000000000000000000000000010000000000000000000000000000000110000110000000000000000000000000000000000000000000000101001000000000011100000000000000000010100000000000000000000000000000000000000000001000000110000000000000000011011010000000000000011100000000000001100000000000000000000000000000000000000000000000000000111110000000001000000000000000000000010000000000000000000000000001000000000000000000000010010000000000000000101110100000000000010111000000000011000000000000000000000000000000000000000000000000000000000001100000000011100000000000000000000000000000000000000000000000000001000000000000000000011000000000000000000100010000000000001100110000000000101000000000000000000000000000100000000000000000000000000000000000000000000000000000000000000000000000000000000000000000000110100000000000000000000000000000000000000000000000000000000011011100000000000010000000000000000000000000001000000000000000000000000000000000000000000000000000000000000000000000000000000000000000000001111100000000000000000000000000000000000000000000000000000000100000110000000001100011000000000000000000000010000000000000000000000000000001101110001100000000000000000000000000000000000000000000000000000000000000000000000000000000000000000000000000000000000000000100110100000000000001001000000000000000000000000000000000000000000000000000010000000011000000010000000000000000000000000000000000000000000000101100000000000000000000000000000000000000000000000000000000110001100000000000001010000000000000000000000011100000000000000000000000000011001000000000000110000000000000000000000000000000000000000001110010011000000000000000000000000000000000000000000000000000000000101000000000000001000000000000000000000000000000000000000000000000000000011100000000000000010000000000000000000000000000000000000000011000011001000000000000000000000000000000000000000000000000000000001010000000000000000000000000000000000000000000000000000000000000000000000000000000000000111000000000000000000000000000000000000000000110000000110000000000000000000000000000000000000000000000000000000001000000000000000000000000000000000000000000000000000000000000000000000000011010000000010100000000000000000000000000000000000000000000010000001100000000000000000000000001100000000000000000000000000000000000000000000000000000000000000000000000000000000000000000000000000011100110001000110110000000000000000000000000000000000000000000001010000000000000000000000000000000011000000000000000000000000000000000000000000000000000000000000000000000000000000000000000000000000000011000100010000101000000000000000000000000000000000000000000000010100000000000000000000000000000000000000000000000000000000000000000000000000000000000000000000000000000000000000000000000000000000000000000011000010000100000000000000000000000000000000000000000000000010000000000000000000000000000000000000000000001100000000000000000000000000000000000000000000000000000000000000000000000000000000000000000001000111000000000000000000000000000000000000000000000000000000000000000000000000000000000000000000000000000011000000000000000000000000000000000000000000000000000000000000000000000000000000000000000000000000010000000000000000000000000000000000000000000000000000000000000000000000000000000000000000000000000000000000000000000000000000000000000000000000000000000000000000000000000000000000000000000000000000100000000000000000000000000000000000000000000000000000000000000000000000000000000000000000000000000000000000000000000000000011000000000000000000000000000000000000000000000000000000000000000000000001101100000000000000000000000000000000000000000000000000000000000000000000000000000000000000000000000000000000000000000000000000110000000000000000000000000000000000000000000000000000000000000000000000000100000000000000000000000000000000000000000000000000000000000000000000000000000000000000000000000000000000000000000000000000000000000000000000000000000000000010000000000000000000000000000000000000000000000000000000000000000000000000000000000000000000000000000000000000000000000000000000000000110000000000000000000000000000000000000000000000000000000000000001010000000000000000000000000000000000000000000000000000000000000000000000000000000000000000000000000000000000000000000000000000000000001010000000000000000000000000000000000000000000000000000000000000010100000000000000000000000000000000000000000000000000000000000000000000000000000000000000000000000000000000000011000000000000000000000001000000000000000000000000000000000000000000000000000000000000000010000000000000000000000000000000001100000000000000000000000000000000000000000000000000000000000000000000000001001000000001100000011000000000000000000000000000000000000000000000000001000000000000000000000000000000000000000000000000000011000000000000000000000000011000000000000000000000000000000000000000000000001100000000011000001001000000000000000000000000000000000000000000000000010000000000000110000000110000000000000000000000000000000000000000000000000000000110000000000000000000000000000000000000000000000000000000000000000010100000000000000000000000000000000000000000000000000100000000000001100000010010000000000000000000000000000000000000000000000000000000000000000000000000011100000000000000000000000000000000000000000000010000000000000000000000000000000000000000000000000000000000000000000000000011000000000000000000000000000000000000000000000000000000000000000000000000000111000000000000000000000000000000000000000000000000000000000000000000000000000000000000000000000000000000000000000000000000000000000000000000000000000000000000000000000000000000000000000000000000000000000000000000000000000000000000000000000000000000000000000000000000000000000000000110000000000000000000000000000000000000000000000000000000000000000000000000000000000000000000000000000000000000000000000000000000000000000000000000000000000000000000000000000000000000000000000000000010010000000000000000000000000000000000000000000000000000000000000000000000000000010000000000000000000000000000000000000000000000000000000000000000000000000000000000000000000000000000000000000000000000101000000000000000000000000000000000000000000000000000000000000000000000000000000100000000000000000000000000000000000000000000000000000000000000000000000000000000000000000000000000000000000000000000000100000000000000000000000000000000000000000000000000000000000000000000000000000001000000000000000000000000000000000000000000000000000000000000000000000000000000000000000000000000000000000000000000000000000000000000000000000000010000000000000000000000000001100110000000000000000000000000000000000000000000000000000000000001101100000000000000000000000001000000000000000000000000000000000000000000000000000000000000000000000000000100000000000000000000000000011001100000000000000000000000000000000000000000000000000000000000000100000000000000000000000000101000000000000000000000000000000000000000000000000000000001100000000000000001000000000000000000000001100000000000000000000000000000000000000000000000000000000000000001100001000000000000000000000000001010000110000000000000000000000000000000000000000000000000100100000000000000000000011011000000000000011000000000000100000000000000000000000000000000000000000000000000011000000000000000000000011100000001000010010000000000000000000000000000000000000000000000001010000000000000000000000100010000000000000000000000000010100000000000000000000000000000000000000000000000000000000000000000000000010000100000000000011000000000000000000000000000000000000000001000000001000000000000000000101000111000000000000000000000000000101000000000000000000000000000000000000000000000000000000000000000000000000100000100000000000000000000000000000000000000000000000000000101000000000000000000000000010010000000000000000000000000000000000100000000000000000000000000000000000000000000000000000000000000000000000000000001000000000000000000000000110000000000000000000000000000110000000000000000000000001000000001100000000000000000000000000000000000000000000011000000000000000000000000000000000000000000000011000011011100100000000000000000000000010100000000000000000000000000000000000000000000000000000010000011011000000000000000000000000000000000000000000000110000000000000000000000000000000000000000000001001000010100001000000000000000000000000010000000000000000000000000000000000000000000000000000000100110101100000000000000000000000000000000000000000000000000000000000000000000000000000000000000000000010100000101000000000000000000000000000000000000000000000000000000000000000000000000000000000000000010011000000000000000000000000000000000000000000000000000000000000000000000000000000000000000000000000010000001110000000000000000000000000000000000000000000000000000000000000000000000000000000000000000001000000001100010000000000000000000000000000000000000000000000000001101000000000000000000000000000000000000111100000000000000000000000000000000000000000000000000000000000000000000000000000000000000000000000000011101011000000000000000000000000000000000000000000000000110101000000000000000000000000000000000011011100000000000000000000000000000000000000000000000000000000000000000000000000000000000000000000000000110110010000000000000000000000000000000000000000000010010000000100000000000000000000000000000001110100000000000000000000001100000011000000000000001100000000000000000000000000000000000000000000000000000111100100000000000000000000000000000000000000000011110001100001000000000000000000000000000000000001000000000111000000000011000000110000000000000100100000000000000000000000000000000000000000000000000000001110000000000000000000000000000000000000000001000000001010010000001110000000000000000000000000000000000010010000000000000001000000000000000000101000000000000000000000000000000000000000000000000000000000000000000000000000000000000000000000000000100111010100011000000000000000000000000000000000011100000000100000000000000000101000000000000000000100000000001000000000000000000000000000000000000000000000000000000000000000000000000011100000000000000001001001000000000110000000001000000000000000000100100000000011100000000000001001000000000000100000000000000101000000000000000000000000000000000000000000000000011000000000000000000000000000000000000000000000100000000001100000000101011110000000000000101000000000001000000000000001100000000110001000000000000001010000000000000000000000000000000000111000000111011010000000000000000000000000000000000001000000000000000000000000000011010000001000000000000100000000000000000000000000000000000001110010000000000000001000000000000000000000000000000000001010000010011101000000000000000000000000000000000000001100000000000000000000000000000000000001000000000000000000000000000000000000000000000000100010000000000000000000000000000000000000000000000000000000000001110010000000000000000000000000000000000000000000000000000000000000000000000000000000100000000110000000000000000000000000000000000000001110100000000000000000000000000000000000000000000000000000011001100001100000000000000000000000000000000000000000000000000000000000000000000000000010101100000010010000000000000010000100000000000000000010001000000000000000000000000000000000000000000000000000000110010011110001000000000000000000000000000000000000000000010000000000000000000000000000000011000000100100000000000001010001000000000000000000110110000000000000000000000000000000000000000000000000000000010011011111110000000000000000000000000000000000000000001010000001000000000000000000001000000000000110000000000000010100010000000000000000000101001010000000000000000000000000000000000000000000000000000000000000110000000000000000000000000000000000000000000010000000010000000000000110000000011000000000000000000000000010000000000000000000000000000010010000000000000000001000000000000000000000000000000000000000000000000000000000000000000000000000000000000000010110010000000011000001100000000000000000000000000000000001000000000000000000000000000000001000000000000000000101000000000000000000000000000000000000000000000000000000000000000000000000000000000000000011100110000000110000000000000000000000000000000000000000110000011000000000000000000000000100000000000000000001010000000000000000000000000000000000000000000000000000000000000000000000000000000000000000000000110000000000000000000000000000000000000000000000001100001001000000000000000000000000000000000000000000001000000000000000000000000000000000000000000000000000000000000000000000000000000000000000000000000000000000000000000000000000000000000000000000000000000010100000000000000000000000000000000000000000000000000000000000000000000000000000000000000000000000000000110000000000000000000000000000000000000000000000000000000000000000000000000111000000000000000000010000000000000000000000000000000000000000000000000000000000000000000000000000000000000000000000000000001100000000000000000000000000001000000010000000000000000000000000000000000000000000000000000000000000000000000000000000000000000000000000000000000000000000000000000000000000001110000000000000000000000000000000000000000000000000000010000000000000000000000011000000000000000000000000000001100000000000000000000000000000000000000000000000000000000000000000000000000000000000000000000000000000000000000000000000000000000000000000000000100000000000000000000001001000000001100000000000000000010100000000000000000000000000000000000000000000000000000000000000000000000000000000000000000000000000000000000000000000000000000000000000000000000000000000000000000000010010000000101000000000000000000100000000000000000000000000000000000000000000000000000000000000000000000000000000000000000000000000000000000000000000000000000000000000000000000000000000000000000000000011000000000100000000000000000000000000000000000000000000000000000000000000000000000000000000000000000000000000000000000000000000000000000000000000000001100000000000000000000000000000000000000000000000000000000000000000000000000000000000000000000000000000000000000000000000000000000000000000000000000000000000000000000000000000000000000000110000000000100100000000000000000000000000000000000000000000000000000000000000000000100000000000000000000000000000000000000000000000000000000000000000000000000000000000000000000000000000000000000000001100000000000110000000000000000000000000000000000000000000000000000000000000000000010100000000000000000000000000000000000000000000000000000000000000000000000000000000000000000000000000000000000000000000000000000000000000000000000000000000000000000000000000000000000000000000000000001010000000000000000000000000000000000000000000000000000000000000000000000000000000000000000000000000000000000000000000000000000000000000000000000000000000000000000000000000000000000000000000000000000101000000000000000000000000000000000000000000000000000000000000000000000000000000000000000000000000000000000000000000000000000000000000000000000000000000000000000000000000000000000000000000000000000000100000000000000000000000110000000000000000000000000000000000000000000000000000000000000000000000000000000000000000000000000000000000000000000000000000000000000000000000000000000000000000000000000000000000000000000000000000001100000000000000000000000000000000000000000000000000000000000000000000000001110000000000000000000000000000000000000000000000000000000000000000000000000000000000000000000000000000000000000000000000000000000000000000000000000000000000000000000000000000000000000000000000000000000000000000000000000000000000001000000000000000000000000000000000000000000000000000000000000000000000000000000000000000000000000000000000000000000000000000000000000000000000000000000000000000000000000000000000000000000000000000000101000000000000000000000000000000000000000000000000000000000000000000000000000000000000000000000000000000000000000000000000000000000000000000000000000000000000000000000000000000000000000000000000000001010000000000000000000000000000000000000000000000000000000000000000000000000000000000000000000000000000000000000000000000000000000000000000000000000000000000000000000000100000000000000000000000000000001000000000000000000000000000000000000000000000000000000000000000000000000000000000000000000000000000000000000000000000000000000000000000000000000000000000000000000000001000000000000000000000000000000000000000000000000000000000000000000000000000110000000000000000000000000000000000000000110000000000000000000000000000000000000000000000000000000000000000000000000000000010000000000000000000000000000000000000000000000011000001000000000000000000001100000000000000000000000000000000000000111110000000000000000000000000000000000000000000000000000000000000000000000000000000000000000000000000000000000000000000000000000000110000010000000000000000000000000000000000000000000000000000000000010000100000000000000000000000000000000000000000000000000000000000000000000000000000000000000110000000000000000000000011000000000000000000000100000000000000000000000000000000000000000000000000000000000100111000000000000000000000000000000000000000000000000000000000000000000000000000000000000001010000000000000000000000110000000000000000000000000000000000000000000000000000000000000000000000000000000001100100000000000000000000000000000000000000000000000000000000000000000000000000000000000000001100000000000000000000000000000000000000000000000000000000000000000000000000000000000000000000000000000000000110000000000000000000000000000000000000000000000000000000000000000000000000000000000000000000000000000000000000000000000000000000000000000000000000000000000000000000000000000000000000000000000000000000000000000000000000000000000000000000000000000000000000000000000000000