P1
200 200
0000000000000000000000000000000000000000000000000000000000000000000000000000000000000000000000000000000000000000100000000000000000000000000000000000000000000000000000000000000000000000010000000000000000000000000000000000000000000000000000000000000000000000000000000000000000000000000000000000000000000000010000010100000000000000000000000000000000000000000000000000000000000000000000001010000000000000000000000000000000000000000000000000000000000000000000000000000000000000000000000000000000000000000000001010000100100000000100000000000000000000000000000000000000000000000000000000000010100000000000000000000000000000000000000000000000000000000000000000000000000000000000000000000000000000000000000000000011000000110000000010100000000000000000000000000000000000100000000000000000000000010000000000000000000000000000000000000000000000000000000000000000000000000000000000000000000000000000000000000000000000000000000000000000101000000000000000000000000000011100010100000000000000000000000000011100000000000000000000000000000000000000000000000000000000000000000000000000000000000000011000000000000000000000000000000000000000000100000000000000000000000000000000000100100000000000000000000000000000000000000000000000000000000000000000000000000000000000000000000000000000000000000000000110000000000000000000000000000000000000000000000000000000000000000000000000000000110000000000000000000000000000000000000000000000000000000000000000000000000000000000000000000000000000000000000000000000000000000000000000000000000000000000001100000001100000000000000000000000000000000000000000001100000000000000000000111000000000000000000000000000000000000000000000000000000000000000000000000000000000000000000000000000000000000000000000000100100000100100000000000000000000000000000000000000000011000000000000000000001110000000101000000000000000000000000000000000000000000000000000000000000000000000000000000000000000000000000000000000000000110000000110000000000000000000000000000000000000000000000000000000000000000100010000001010000000000000000000000000000000000000000000000000000000000000000000000000000000000000000000000000000000000000000000000000000000000000000000000000000000000000000000000000000000000000000000001000000000100011000000000000000000000000000000000000000000000000000000000000000000000000000000000000000000000000000000000000000100000000000000000000000000000000000000000000000000000000000000000000000011100000010100110000000000000000000000000000000000000000000000000000000000000000000000100000000000000000000000000000000000000010100000000000000000000000000000000000000000000000000000000000000000000000000000001000100000000000000000000000000000000000000000000000000000000000000000000000001000000000000000000000000000000000000000101000000000000000000000000000000000000000000000000000000011000000000000000000000010001000000000000000000000000000000000000000000000000110000000000000000000000010000000000000000000000000000000000000000100000000000000000000000000000000000000000000000000000001001000000000000000000001010000000000000000000000000000000000000000000000000010010000000000000000000000000000000000000000000000000000000000000000000000000000000000000000000000000000000000000000000000010100000000000110000000001011100000000000000000000000000000000000000000000000101000000000000000000011100011100000000000000000000000000000000000000000000000000000000000000000000000000000000000000000000010000000000001100000000000111000000000000000000000000000000000000000000000000100000000000000000000000000000000000000000000000000000000000000000000000000000000000000000000000000000000000000000000000000000000000000000000000010100000000000000000000000000000000000000000000000000000000000000000000000000000000000000000000000000000000000000000000000000000000000000000000000010000000000000000000011000000000000000000000000000001111000000000000000000000000000000000000000000000000000000000000000000000000000000000000000000000000000000000000000000000000000000000000000001100001100000000000000000000110000000000000000000000000000010001000000000000000000000000000000000000000000000000000000000000000000000000000000000000000000000000000000000000000000000000000000000000001101000100100000000000000000000000000000000000000000000000000001010000000000000000000000000000000000000000000000000000000000000000000000000000000000100000000000000000000000000000000000000000000000000011000001010000000000000000000000000000000000000000000000000000110100000000000000000000000000000000000000000000000000000000000000000000000000000000011100000000000000000000000000000000000000000000000000110100001100000000000000000000000000000000000000000000000000000000000000000000000000000000000000000000000000000000000000000000000000000000000000011000100000000000000000000000000000000000000000000000000011000000000000000000000000000000000000000000000000000000000100000000000000000000000000000000000110000000000000000000000000000000000000000100000101110000000000000000000000000000000000000000000000000000000000000000000000000000000000000000000000000000000000000001000000000000000000000000000000000010010000000000000000000000000000000000000011100011000110100000000000000000000000000000000000000000000000000000000000000000000000000000000000000000000000000000000000000000000000000000000000000000100000100100000000000000000000000000000000000000100000100000010000000000000000000000000000000000000000000000000000000000000000000000000000000000000000011000000000000000000000000000000000000000000000010100000110000000000000000000000000000000000000000010000000000100000000000000000000000000000000000000000000000000000000110000000000000000000000000000001000100000000000000000000000000000000000100110111000000000000000000000000000000000000000000000000000100100000000000000000000000000000000001000000000000000000000000000010100001100000000000000000000000001010000000000000100000000000000000000010100001000110000000000000000000000000000000000000000000001100010000000000000000000000000000000000101000000000000000000000000000010000011000000000000000000000000001000000000000100100000000000000000000001000010001000000000000000000000000000000000000000000000011000000000000000000100000000000000000001010000000000000000000000000000000000000000000000000000000000000000000000000001000100000000000000000001000001000000000000000000011000000000000000000000000000000000000000000000000001100000000000000000001000000000000000000110000000000000000000000000000000000000000000000000000000110001000000000000000000100111100111000000000000001001000000000000000000000000000000000000000000000000101100000000000000000000000000000000000001010000000000000000000000000000000000000000000000000000001100010000010000000000000100100000000000000000000010100000000000000000000000000000000000000000000000000000000000000000000000000000000000000000001000000000000000000000000000000000000000000000000000000101101000001010000000000001110000000000000000000000010000000000000000000000000000000000000000000000000000001000000000000000000000000000000000000000000000000000000000000000000000001000000000000000011011100100000010010000000000000000000000000000000000000000000000000000000000000000000000000000000000000000010010000000000000000000000000000000000000000000010000000000000000000000000101000000000000000101100000000000011000000000000000000000000000000000000000000000000000000000000000001000000000000000000000000000100000000000000000000000000000000000000000001010000000000000000000000001010000000000001100011000000000000000000000000000000000000000000000000000000011000000000000000000000010000000000000000000110000000001110000000000000000000000000000000000100010100000000000000000000000001000000000000010000110000000000000000000000000000000000000000000000000000000110000000000000000000000100000000000000000011010000000000000000000000000000000000000000000010100010000000000000000000000000000000001110000110001011000000000000001100000000000000000000000000000000000000000000000000000000000000000000000000000000110100010010000000000000000000000000000000000000101000000000000000000000000000000000000000000000010000000000000000000010100000000000000000000000000010000000000000000000000000000000000000000000000000000010000100000000000000000000000000000000000000000100000000000000000000000000000000000000000000000001000100000000000000010000000000000000000000000001010000000000000000000000000000000000000000000000011100000001000010000000000000000000000000000000000000000000000000000000000000000000000000000000000000001110000000000000000000000000000000000000000000010010000000000000000000000000000000000000000000000000000000000001100000000000000000000000000000001100000001100000000000000000000000000000000000000000000000000000000000000000000000000000000000000011000011000000000000000000000000000000000000000000000000000110000100000100000000000000000000000000000011000000100100000000000000000000000000000000000000000000000000000000000000000000000000000000000000110000000000000000000000000000000000000000000000000000000010010000100101100000000000000000000000000000000000000110000000000100011000000000000000000000000000000000011000000000000000000000000000000000000000000000000000000000000000000000000000000000000000000000011000000010010000000000000000000000000000000000000000000000000010100011000000000000000000000000000000000110000000000000000000000000000000010000000000000000000000000000000000000000000000000000000000000000000000001100000000000000000000000000000000000000000000000000001000001000000000000000000000000000000000000000000000000000000000000000000100000000000000000000000000000000000000000000000000000000000000000000010000000000000000000000000000000100110000011000000000110011000100000000000000000000000000000000000000000000000001000000000000100001000000000000000000000000000000000000000000000000000000000000000000001011000000000000000000000000000010000100000110000000001100000111000000000000000000000000000000000000000000000000010000000000000100000000000000000000000000000000000000000000000000000000000000000000000101100000000000000000000000000001000110000000000000000000110000000000000000000000000000000000000000000000000000000100000000010001000001110000000000000000000000000000000000000000000000000000000000000000000000000000000000000000000000010111000010000000111000100010000000000000000000000000000000000000000000000000000000000000001100000000000000000000000000000000000000000000000000000000000000000000000000000000000000000000000000000000001000000011011000001001101110110000000000000000000000000000000000000000000000000000000000000010000100010000000000000000000000000000110000000000000000000000000000000000000000000000000000110000000000000001011100001010100000011000100100010000000000000000000000000000000000000000000000000000000000011001000100000000000000110000000000001100000000000000000000000000000000000000000000000000001100000000000000010001100000111100101100000011001100000000000000000000000000000000000000000000000000000000000011100001000000000000001100000000000000000000000000000000000000000000000000000000000000000000000000000000000010000100001101110011000010010001000000000000000000000000000000000000000000000000000000000000000000000000000000000000000000000000000000000000000000000000000000000000000000000000000000000000000000000000010011000001011111000011101100000000000000000000000000000000000000000000000000000000000000000000000000000000000000000000000000000000000000001110000000000000000000000000000001110000000000000000000000000000000000001111100000100001000000000000000000000000000000000000000000000000000000000000010100000000000000000000000110000011000000000000000010000000000000000000011000000000000000000000000000000000000000000000000001110000000011110000000000000000000000000000000000000000000000000000000000001100110000000000000001100010010000110000000000000000010000000000000000000101000000000000000000000000000000000000000000000000000000000011001100000000000000000000000000000000000000000000000000000000000110101000000000000000011000010100000000000000000000000000000000000000000000100000000000000000000000000000000000000000000000000000000000110000000000000000000000000000000000000000000000011000000000000000010100000000000000000000000010000000000000000000000000000000000000000000000000000000000000000000000000000000000000000000000000000000000000110000000000000000000000000000000000000000001001000000000000010010000000000000000000000000000000000000000000000000000000000000000000000000000000000000000000000000000000000000000000000000000000000000101100000000000000000000000000000000000000000010010000000000000000010101100000000000000000000000000000000000000000110000000000000000000000000000000000000000000000000000000000000000000000000000000000000100000000000000000000000000000000110000000000011000000000000000001000011000000000000000000000000000000000000000001100000100000000000000000000000000000000000000000001100000111000000000000000000000000000000000000000000000000000000000001100000000000000000000000000000011000000100000000000000000000000000000000000000000000010100000000000000000000000001100000000000000011000000000000000000000000000000000000000000000000000000000000000000000000000000000000000000000000000000010000000000000000000000000000000000000000000000000000100000000000000000000000100100000000000000000000000000000000000000000000000000000000000000000000000000000000000000000000000000000000000000000000000100010000000000000000000000000000000000000000000000101000000000000000000000000110000000000000000000000000000000000000000000000000000000000000000000000000000000000000000000000000000000000000000111100100110000000000000000000100000000000000000000000000000010000000000000000000000000000000000000000000000000000000000000000000000000000000000000000000000000000000000000000000000000000000000000000010001100000000000000000000000010100000000000000000000000001111100000000000000000000000000000000000000000000000000000000001000000000000000000000000000000000000000000000000000000000000000000000000000001001000000000000000000000000000101000000000000000000000000100000000000000000000000000000000000000000000000000000000000000010000000000000000000000000000000000000000000000000000000000110000000000000000001000000000011000000000000000000100000000000000000000000000100000000000000000000000000000000000000000000000000000000000000100000000110000000000000000000000000000000000000000000000010010000000000000000000000000011111100000000000000000000001000000000000000000000000000000000000000110000000000000000000000000000000000000000000000000010010000000000000000000000000000000000000000000000011000000000000000000010000001000101110000000000000000000101000000000000000000000000011000000000010010000000000000000000000000000000000000000000000000101000000000000000000000000000000000000000000000000000000000000000000000100000001110000110000000000000000000010000000000000000000000001010000000000011000000000000000000000000000000000000000000000000000100000110000000000000000000000000000000000000000000000000000000000000001000000000100010010000000000000000110010000000000000000000000010100011100000000000000000000000000000000000000000000000000000000000000000010000000000000000000000000000000000000000000000000000000000000000000000000011101000000000110000000111000000000000000000000000110000000000000000000000000000000000000000000000000000000000000000000000001000000000000000000000000000000000000000000000000000000000111000000000000001011000000000010010000000010000000000000000000000000000000000000000000000000000000000000000000000000000000000000110000100000100000000000000000000000000000000000000000000000000000000010010000000000000011000000000000011000000000000000000000000000000000000000000000000000000000000000000000000000000000000000000000001100010100011000000000000000000000000000000000000000000000000000000000100010000011100000000000000000000000000000000000000000000000000000011000000000000000000000000000000000000000001100000000000000000000001001001110000000000000000001000000000000000000000000000000000000011011110000000000000000000000000000000000000100010000000000000000000111000000000000000000000000000000000000000011000000000000000000000010001010000000000000000000101000000000000000000000000000000000000010101000000000000000000000000000000000000001001000001000000000000110010000000000000000000000000000000000000000000000000000000000000000010111100000000000000000000100000000000000000000000000000000010101110101000000000000000000000000000000000001010100000010000000000010011000000000000000000000000000000000000000000000000000000000000000001101110000000000000000000000000000000000000000000000000000001001111001100000000000000000000000000000000000000001000000100000000000011100000000000000000000000000000000000000000000000000000000000000000110000000100000000000000000000000000000000000000000000000000001010000001010000000000000000000000000000000000000000000000000000000000010000000000000000000000000000000000000000000000000000000000000000011010001001101000000000000000000000000000000000000000000000000000000000010100000000000000000000000000000000000001111100000000000000000000000000011000000000000000000000000000000000000000000000000000000110101000000010000000000000000000000000000000000000000000000000000000000011000000000000000000000000000000000111000100100000000000000000000000000110000000000000000000000000000000000000000000000000000000100011100000100000000000000000000000000000000000000000000000000000000000000000000000000000000000000000000000110000110000000000000000000000000000000000000000000000000000000000000000000000000000000000001001100000000000000000000000000000000000000000000000000000000000000000101100000000000000000000000000000000000000000000000000000000000000000000000000000000000000000000000000000000000000000000000000000001110000000000000000000000000000000000000000000000000000000000000000010001110000000000000000000000000000000000000000000000000000000000000110000000000000000000000000000000000000000000000000000000000000000000000000000000000000000000000000000001000000000000000000000001000011001100000000000000000000000000000000000000000000000000000000000010010000000000000000000000000000000000000000000000000000000000000000000000000000000000000000000000000000101000000000000000000001101000000011101010000000000000000000000000010000000000000000000000000000100100000000000000000000000000000000000000000000000000000000000000000000000000000000000000000000000000001010000000000000000000010011000000111010110000000000000000000000000100000000000000000000000000000110000000000000000000000000000000000000000000000000100000000000000000000000000000000000000000000000000001000000000000000000000000111000100101000110000000000000000000000001000000000000000000000000000000000000000000000000000000000000000000000000000011001110000000000000000000000000000000000000000000000000000000000000000000000000011000000010110000000000000000000000000000000000000000000000000000000000000000000000000000000000000000000000000000000000101111100000000000000000000000000000000000000000000000000000000000000000000000100001100000000010010100000000000000000000000000000000000000000000000001100000000000000000000000000000000000000011100000000110000000000000010000000000000000000000000000000000000100000000000000000000000001111000100010101110000000000000000000000000000000000000000000000000100100000000000000000000000000000000000000100100000001000111000000001100000000000000000000000000000000000001000000000000000000000011010001001000100010000000000000000000000000000000000000000000000000000110000000000000000000000000000000000000010001000000001110100000000010100000000000000001000000000000000000010000000000000000000000110100110110001010001000000000000000000000000000000000000000000000000000000000000000000000000000000000000000000110000000001011000000000000000000000000000000010000000000000000000000000000000000000000000010000110100001100010000000000000000000000000000000000000000000000000000000000000000000000000000000000000000000101000000001000000000000000000000000000000000100000000000000000000000000000000000000000000000000000000000000000000010000000000000000000000000000000000000000000000000000000000000000000000000000000000000110110000010100010001100000000000000000000000000000000000000000000000000000000000000000000000000000000100010000001010000000000000000000000000000000000000000000000000000000000000000000000000000000000000100100000001000000011000000000000011000111000111000000000000000000000000000000000000000000000000000000000100000111000000000000001000000000000000000000000000000000000000000000000010000000000000000000000110000000010010000000000000000000100000000000000000000000000000000000000000000000000000000000000000001001001001100000000000000101000000000000000000000000000000000000000000000000100000000000000000000000000000000110000000000000000000000000000001000000000000000000000000000000000000000000000000000000000001100100110000000000000001001000000000000000000000000000000000000000000000001000000000000000000000000000000000000000000000000000000000000000010000000000000000000000000000000000000000000000000000000000000001001000000000000000001100000000000000000000000000000000000000000000000000000000000000000000000000000000000000000000000000000000000000000100000000000000000000000000000000000000000000000000000000000000001100000000000000000000000000000011110000000000000000000000000000000000000000000000000000000000000010000100000000000000000010110000000000000000000000000000000000000000000000000000000000000000000000000000000000000000000000000000000011000010000000000000000000000000000000000000000000000000000000000001100110000000000000000000011000000000000000000000000000000000000000000000000000000000000000000000000000000001110000000000000000000001000000010000000000011100000000000000000000000000000000000000000000100000011110000000000000000100000000000000000000000000000000000001100000000000000000000000000000000000000000000000000000000000000000010000010000000000000000000000000000000000000000000000000000000000000110000001100000000000000000000000000000000000000000000000000000011000000000000000000000000000000000000000010000010000000000000000000100100000000000000000000100000000000000000000000000000000000000000000100000100100000000000001000000000000000000000000000000000000000000000000000000000000000000000000000000000100000100000000000000000001100000000000000000000001000000000000000000000000000000000111000000000000000110001000000000011011000000000000000000000000000000000000000000000000000000000000000000000000000001000001000000000000000000001000000000000000000000010000000000010000000000000000000000000000000000000001000101000000000011100000000000000000000000000000000000000000000000000000011000000000000000000000000000000000000000000000011101000000000001110000000000000000001010000000000000000000000000000000000000000001010000000000010000000000000000000000000000000000000000000000000110000110000000000000000000000000000000000000000000001100011100000001000010000000000000000010100000000000000000000000000000000000000000001000000110000000000000000011000000000000000000000110000000000001100000000000000000000000000000000000000000000000000001010011000000000000000000000000000000010000000000000000000000000011000000000000000000000010010000000000000001000000000000000000000001100000000011000000000000000000000000000000000000000000000000000000001100000000000000010000000000000000000000000000000000000000000000110000000000000000000000011000000000000000001100000000000000000000000000000000101000000000000000000000000000000000000000000000000000000000000110000000001000000000000000000000000000000000000000000000001100000000000000000000000000000000000000000001000000000000000001100000000000000010000000000000000000000000011100000000000000000000000000000111111000011100000000000000000000000000000000000000000000000010111000000000000000000000000000000000000000000000000000000000011000000000000001100011000000000000000000000000000000000000000000000000000011100010001010000000000000000000000000000000000000000000000000100111011000000000000000000000000000000000000000000000000000000000001000000000000001001000000000000000000000000100000000000000000000000000110000010000000000111100000000000000000000000000000000000000010000011101100000000000000000000000000000000000000000000000000000000111111000000000001010000000000000000000000001000000000000000000000000000000000001000000011011100000000000000000000000000000000000000010010010011000000000000000000000000000000000000000000000000000000000000010000000000001000000000000000000000000010000000000000000000000000000000011100000000110011000000000000000000000000000000000000000011000010001000000000000000000000000000000000000000000000000000000010000100000000000000000000000000000000000000000000000000000000000000001100001100000000110000000000000000000000000000000000000000000000000000100001000000000000000000000000000000000000000000000000000000110110000000000000000000000000000000000000000000000000000000000000000001111100000011101100000000000000000000000000000000000000000000000000001000100000000000000000000000001100000000000000000000000000000010000000000000000000000000000000000000000000000000000000000000000000001110000001110000000100000000000000000000000000000000000000000010111000011000000000000000000000000011000000000000000000000000000000000000000000000000000000000000000000000000000000000000000000000000000000000000110000000010000000000000000000000000000000000000000000100110000000000000000000000000000000000000000000000000000000000000000000000000000000000000000000000000000000000000000000000000000000000000000000001100000100000000000000000000000000000000000000000000001111000000000000000000000000000000000000000000001100000000000000000000000000000000000000000000000000000000000000000000000000000000000000000000100011011111000000000000000000000000000000000000000000000000000000000000000000000000000000000000000000000011000000000000000000000000000000000000000000000000000000000000000000000000000000000000000000010000110100000000000000000000000000000000000000000000000000000000000000000000000000000000000000000000000000000000000000000000000000000000000000000000000000000000000000000000000000000000000000000000001100111010000000000000000000000000000000000000000000000000000000000000000000000000000000000000000000000000000000000000000000000011000000000000000000000000000000000000000000000000000000000000000000000001100010000000000000000000000000000000000000000000000000000000000000000000000000000000000000000000000000000000000000000000000000110000000000000000000000000000000000000000000000000000000000000000000000011000000000000000000000000000000000000000000000000000000000000000000000000000000000000000000000000000000000000000000000000000000000000000000000000000000000000010000000000000000000000000000000000000000001110000000000000000000000000000000000000000000000000000000000000000000000000000000000000000110000000000000000000000000000000000000000000000000000000000000001010000000000000000000000000000000000000000000000000000000000000000000000000000000000000000000000000000000000000000000000000000000000001010000000000000000000000000000000000000000000000000000000000000010100000000000000000000000000000000000000000000000000000000000000000000000000000000000000000000000000000000000011000000000000000000000001000000000000000000000000000000000000000000000000000000000000000010000000000000000000000000000000001100000000000000000000000000000000000000000000000000000000000000000000000001001000000001100000011000000000000000000000000000000000000000000000000000000000000000000000000000000000000000000000000000000011000000000000000000000000011000000000000000000000000000000000000000000000001100000000011000001001000000000000000000000000000000000000000000000000111000000000000110000000110000000000000000000000000000000000000000000000000000000110000000000000000000100000000000000000000000000000000000000000000010100000000000000000000000000000000000000000000000000000000000000001100000010010000000000000000000000000000000000000000000000000000000000000000000000000010100000000000000000000000000000000000000000000010000000000000000000000000000000000000000000000000000000000000000000000000011000000000000000000000000000000000000000000000000000000000000000000000000000101000000000000000000000000000000000000000000000000000000000000000000000000000000000000000000000000000000000000000000000000000000000000000000000000000000000000000000000000000000000000000000000000000000100000000000000000000000000000000000000000000000000000000000000000000000000000000110000000000000000000000000000000000000000000000000000000000000000000000000000000000000000000000000000000000000000000000000000000000000000000000000000000000000000000000000000000000000000000000000000010010000000000000000000000000000000000000000000000000000000000000000000000000000000000000000000000000000000000000000000000000000000000000000000000000000000000000000000000000000000000000000000000000000101000000000000000000000000000000000000000000000000000000000000000000000000000001110000000000000000000000000000000000000000000000000000000000000000000000000000000000000000000000000000000000000000000000100000000000000000000000000000000000000000000000000000000000000000000000000000000000000000000000000000000000000000000000011100000000000000000000000000000000000000000000000000000000000000000000000000000000000000000000000000000000000000000000000000000000001100110000000000000000000000000000000000000000000000000000000000000101000000000000000000000000001000000000000000000000000000000000000000000000000000000000000000000000000001110000000000000000000000000011001100000000000000000000000000000000000000000000000000000000000001110000000000000000000000000101000000000000000000000000000000000000000000000000000000001100000000000000000000000000000000000000001100000000000000000000000000000000000000000000000000000000000000001100000000000000000000000000000001010000110000000000000000000000000000000000000000000000000100100000000000000000000000011000000000000011000000000000100000000000000000000000000000000000000000000000000011000000000000000000000010000000001000010010000000000000000000000000000000000000000000000001010000000000000000000010011001000000000000000000000000010100000000000000000000000000000000000000000000000000000000000000000000000001010000000000000011000000000000000000000000000000000000000001000000001000000000000000011000100110100000000000000000000000000101000000000000000000000000000000000000000000000000000000000000000000000011000011000000000000000000000000000000000000000000000000000000101000000000000000000000001001000001011000000000000000000000000000100000000000000000000000000000000000000000000000000000000000000000000001110001101000000000000000000000000110000000000000000000000000000110000000000000000000000000100001100000000000000000000000000000000000000000000000011000000000000000000000000000000000000000000000011000010100111010000000000000000000000010100000000000000000000000000000000000000000000000000000000000000000000000000000000000000000000000000000000000000110000000000000100000000000000000000000000000001001000000001100000000000000000000000000010000000000000000000000000000000000000000000000000000000000000001000000000000000000000000000000000000000000000000000000000000001100000000000000000000000000000010100000000110000000000000000000000000000000000000000000000000000000000000000000000000000000000000000000110000000001110000000000000000000000000000000000000000000000000010110000000000000000000000000000010000110111000000000000000000000000000000000000000000000000000000000000000000000000000000000000000000001000000000010010000000000000000000000000000000000000000000000000000000000000000000000000000000000000000111100000000000000000000000000000000000000000000000000000000000000000000000000000000000000000000000000000000000110000000000000000000000000000000000000000000000000110110000000000000000000000000000000011110000000001110000000000000000000000000000000000000000000000000000000000000000000000000000000000000000000001100010000000000000000000000000000000000000000000000000000000000000000000000000000000000001100000000000100010000000001100000011000000000000001100000000000000000000000000000000000000000000000000000000000001000000000000000000000000000000000000000000000000000100100000010000000000000000000000011000000000010000000000000011000000110000000000000100100000000000000000000000000000000000000000000000000000000100010000000000000000000000000000000000000000100001000001010000000100000010001000000000000000010100000110100000000000000001000000000000000000101000000000000000000000000000000000000000000000000000000011000100000000000000000000000100000000000000010100011000011100000001000001010101000000000000001001000000100100100000000000101000000000000100000100000000001000000000000000000000000000000000000000000000000010110000000000000000000001000000000000000011000110000100000110000000100101010000000000000010001000000100001000000000001001000000000111100000000000000101000000000000000000000000000000000000110000010000101100000000000000000000010000000000000000000000000000000001100000001011110100000000000000101100000000110100000000000001100000000001100100000000000001010000000000000000000000000000000000001100010101110110000000000000000000000000000000000000000000000000000000000000000111011000000000000000000110000000000011000000000000000000000000110011000000000000001000000000000000000000000000000000000000101001100000000000000000000000000000000000000000000000000000000000000000000000010110011111000000000000000000000000000000000000000000000001001100010000000000000000000000000000000000000000000000000001111010000000000000000000000000000000000000000000000000000000000000000000000000000001000111011000000110000000000000000000000000000000000000101000111000000000000000000000000000000000000000000000000000100000000000000000000000000000000000000000000000000000000000000000000000000000000000000010000001000010010000000000000111000000000000000000010001000010000000000000000000000000000000000000000000000000001001110100000000000000000000000000000000000000000000000000001000000000000000000000000000010111100000100100000000000011111001100000000000000010000010000000000000000000000000000000000000000000000000000001000001000000000000000000000000000000000000000000000000000010001000000000000000000000000011110000000110000000000001100010100000000000000000011100010010000000000000000000000000000000000000000000000000001000100000000000000000000000000000000000000000000000000001000011000000000000000110000000000000000000000000000000011000000000000000000000000011001000010000000000000000001000000000000000000000000000000001110000000000000000000000000000000000000000000000000000000000110000000011000001100000000000000000000000000000000010110000000000000000000000000000010110000000000000000101000000000000000000000000000000000000000000000000000000000000000000000000000000000000000011000000000000110000000000000000000000000000000000000000011100011000000000000000000000000101000000000000000001010000000000000000000000000000000000000000000000000000000000000000000000000000000000000000010000000000000000000000000000000000000000000000000000000010001001000000000000000000000000100000000000000000001000000000000000000000000000000000000000000000000000000000000000000000000000000000000000000000000000000000000000000000000000000000001000000000000000000010100000000000000000000000000000000000000000000000000000000000000000000000000000000000000000000000000000110000000000000000000000000000000000000000000000000000000000000000000000000010000000000000000000010000000000000000000000000000000000000000000000000000000000000000000000000000010000000000000000000000001100000000000000000000000000000000000000000000000000000000000000000000000000100000001100000000000000000000000000000000000000000000000000000000000000000000000000000000000000000100000000000000000000000000000000000000000000000000000111000000000000000000000011000000000000000000000000000110000000000000000000000000000000000000000000000000000000000000000000000000000000000000000001000000000000000000000000000000000000000000000000000000000000000000000000000001001000000001100000000000000000010000000000000000000000000000000000000000000000000000000000000000000000000000000000000000000000000000000000000000000000000000000000000000000000000000000000000000000000010010000000101000000000000000000000000000000000000000000000000000000000000000000000000000000000000000000000000000000000000000000000000000000000000000000000000000000000000000000000000000000000000000000011000000000100000000000000000000000000000000000000000000000000000000000000000000000000000000000000000000000000000000000000000000000000000000000000000001100000000000000000000000000000000000000000000000000000000000000000000000000000000000000000000000000000000000000000000000000000000000000000000000000000000000000000000000000000000000000000110000000000100100000000000000000000000000000000000000000000000000000000000000000000100000000000000000000000000000000000000000000000000000000000000000000000000000000000000000000000000000000000000000001100000000000110000000000000000000000000000000000000000000000000000000000000000000010100000000000000000000000000000000000000000000000000000000000000000000000000000000000000000000000000000000000000000000000000000000000000000000000000000000000000000000000000000000000000000000000000001010000000000000000000000000000000000000000000000000000000000000000000000000000000000000000000000000000000000000000000000000000000000000000000000000000000000000000000000000000000000000000000000000000101000000000000000000000000000000000000000000000000000000000000000000000000000000000000000000000000000000000000000000000000000000000000000000000000000000000000000000000000000000000000000000000000000000100000000000000000000000110000000000000000000000000000000000000000000000000000000000000000000000000010000000000000000000000000000000000000000000000000000000000000000000000000000000000000000000000000000000000000000000000000001100000000000000000000000000000000000000000000000000000000000000000000000000100000000000000000000000000000000000000000000000000000000000000000000000000000000000000000000000000000000000000000000000000000000000000000000000000000000000000000000000000000000000000000000000000000001000000000000000000000000000001000000000000000000000000000000000000000000000000000000000000000000000000000000000000000000000000000000000000000000000000000000000000000000000000000000000000000000000000000000000000000000000000000000101000000000000000000000000000000000000000000000000000000000000000000000000000000000000000000000000000000000000000000000000000000000000000000000000000000000000000000000000000000000000000000000000000001010000000000000000000000000000000000000000000000000000000000000000000000000000000000000000000000000000000000000000000000000000000000000000000000000000000000000000000000000000000000000000000000000000001000000000000000000000000000000000000000000000000000000000000000000000000000000000000000000000000000000000000000000000000000000000000000000000000000000000000000000000011100000000000000000000000000000000000000000000000000000000000000000000000000110000000000000000000000000000000000000000000000000000000000000000000000000000000000000000000000000000000000000000000000000000000000000000000000000000000000000000000000000011000000000000000000000000001100000000000000000000000000000000000001110001000000000000000000000000000000000000000000000000000000000000000000000000000000000000000000000000000000000000000000000000000000110000111000000000000000000000000000000000000000000000000000000001111100101000000000000000000000000000000000000000000000000000000000000000000000000000000000000110000000000000000000000011000000000000000000000000000000000000000000000000000000000000000000000000000000110000000010000000000000000000000000000000000000000000000000000000000000000000000000000000000001010000000000000000000000110000000000000000000000000000000000000000000000000000000000000000000000000000000110000111000000000000000000000000000000000000000000000000000000000000000000000000000000000000001100000000000000000000000000000000000000000000000000000000000000000000000000000000000000000000000000000000100011000000000000000000000000000000000000000000000000000000000000000000000000000000000000000000000000000000000000000000000000000000000000000000000000000000000000000000000000000000000000000000000000000000000000000000000000000000000000000000000000000000000000000000000000000