P1
200 200
0000000000000000000000000000000000000000000000000000000000000000000000000000000000000000011010110000000000000000100000000000000000000000000000000000000000000000000000000000000000000000010000000000000000000000000000000000000000000000000000000000000000000000000000000000000000000000000000000010101100000000010000010100000000000000000000000000000000000000000000000000000000000000000000001010000000000000011100000000000000000000000000000000000000000000000000000000000000000000000000000000000001110000000000001010000100100000000000000000000000000000000000000000000000000000000000000000000010100000000000000101000000000000000000000000000000000000000000000000000000000000000000000000000000000000000100000000000011000000110000000010100000000000000000000000000000100000100000000000000000000000010000000000000001110000000000000000000000000000000000000000000000000000000000000000000000000000000000000101000000000000000000000000000001010100000000000000000000000000001000010100000000000000000000000000000000000000000000000000000000000000000000000000000000000000000000000000000000000000000000011000000000110000000000000000000000000000000000000000000000000000000000000010000100100000000000000000000000000110000000000000000000000000000000000000000000000000000000000000000000000000000000000000000110000000000000000000000000000000000000010000000100000000000000000000000000000000110000000000000000000000000011100000000000000000000000000000000000000000000000000000000000000000000000000000000000000000000000000000000000000000000000000000001000000000100000000000000000000000000000000000000000001100000000000000111001010000011100000000000000000000000000000000000000000000000000000000000000000000000000000000000000000000000000000000000000000001000000010000000000000000000000000000000000000000000011000000000000000110110000000101000000000000000000000000000000000000000000000000000000000000000000000000000000000000000000000000000000000000000000100000000010000000000000000000000000000000000000000000000000000000000000110000000001110000000000000000000000000000000000000000000000000000000000000000000000000000000000000000000000000000000000000000000100000001000000000000000000000000000000000000000000000000000000000000000111000000000000000000000000000000000000000000000000000000000000000000000000000000000000000000000000000000000000000000000000000000000000000000000000000000000000000000000000000000000000000000000000000000100000000000000000000000000000000000000000000000000000000000000000000000000000000000000000000000000000000000000000000000000000000101010000000000000000000000000000000000000000000000000000000000000000000000000000000000000000000000000000000000000000000000000000000000000000000000000000000000011100000000000000000000000000000000000000101000000000000000000000000000000000000000000000000000000000000000000000000000000000000000000000000000000000000000000000000000000000000110000000000000000000000000000000000000000000000000000000000000000000000000000000000000000000000000000000000000000000000000000000001100000000000000000000000000000000000000000000000000000000000000000010010000000000000000000100000100000000000000000000000000000000000000000000000000000000000000000000000000000000000000000000000000000011000000000000000000000000000000000000000000000000000000000000000000101000000000000000000001000001000000000000000000000000000000000000000000000000000000000000000000000000000000000000000000000000000001000000000000000000000000000000000000000000000000000000000000000000000100000000000000000000010000010000000000000000000000000000000000000000000000000000000000000000000000000000000000000000000000000000001001000110000000000000000000000000000000000000000000000000000000000000000000000000000000000000000000000000000000000000000000000000000000000000000000000000000000000000000000000000000000000001100000000010000000010000000000000000000000000000000000000000000000000000000000000000000000000000000000011100000000000000000000000000000000000000000000000000000000000000000000000000000000000000000000011000000000000001111000000000000000000000000000000000000000000000000000000000000000000000000000000000000000000000000000000000000000000000000000000000000000000000000000000000000000000000000000011100000000000000000000011100000000000000000000000000000000000000000000000000000000000000000000000000000000000000000000000000000000000000000000000000000000000000000000000000000000000000000000000000000101100000000110000000000000000000000000000000000000000000000000000000000000000000000000000000000000000000000000000000000000000000000000000000000000000000000000000000000000000000000000000000000000000000101100000001100000000000000000000000000000000000000000000000000000000000000000000000000000000000000000000000000000000000000000000000000000000000000000000000000000000000000000000000000000000000000000000011000000000000000000000000000000000000000000000000000000000000000110000000000000000000000000000000000000000000000000000000000000000000000000000000000000000000000000000000000000000000000000000000000010110000000000000000000000000000000000000000000000000000000000000010010000000000000000000000000000000000000000000011100000000000000000000000000000000000000000000000000000000000000000000000000000000000011000000000000000000000000010000000000000000000000000000000000000100100000000000000000000000000000000000000000000000000000000000000000000000000000000000000000000000000000000000000000000000000000000000010000000000000000000000001010000000000000000000000000000000000000110000000000000000000000000000000000000000000000000100000000000000000000000000000000000000000000000000000000001101100000000000000000000110000000000000000000000010100000000000000000000000000000000000000000000000000000000000000000000000000000001101100001000000000000000000000000000001000000000000000000000001101001000000000010000000000001100000000000000000000000010000000000000000000000000000000000110000000000000000000000000000000000000000000101011000010000000000000001100000000000101000000000000000000000100011000000000110010000000000101000000000000000000000000000000000000000000000000000000000001100000000000000000000000000000000000000000010011000000000000000000000010100000000001010000000000000000000000110110000000011000100000000000000000000000000000000000000000000000000000000000000000000000000000000000011000000000000000000000000000000011000011100000000000000000101000000000001000000000000000000000000000000000101100101000000000000000000000000000000000000000000000000000000000000000000000000000000000001001000000000000000000000000000000000000000000000000000000000101000000000000000000000000000000000000000001011111010110000000000000100000000000000000000000000000010000000000000000000000000000000000000010100000000000000000000000000000000000000000000000011000000000111000000000000000000000000000000000000010111011111010000000000000001010000000000000000001110000001010000000000000000000000000000000000000010000000000000000000000000000000000000000000000001001000000001000000000000000000000000000000000000001110000000010000000000000000100000000000000000000100010000010010000000000000000000000000000000000000000000000000000000000000000000000000000000000000001100000000001101000000000000000000000000000000000010000001000010000000000000000110000000000000000000000000000011000000000000000000000000000000000000000000000000000000000000000000000000000000000000000000000000011001000000000000000000000000000000000000011100000000000000000000000000000000000000000000100000000000000000000000000000000000000000000000000000011000000000000000000000111000000000000000000000000000001111110000000000000000000000000000000000000011000000000000000000000000000000010000000000000111110000000000000000000000000000000000000000000000000110000000000000000000000000000000000000000000000000000000001100010000000000000000000000000000000000000000000000000000000000000000000100000000000000001000000000000000000000000000000000000000000000000000000000000000000000000000000000000000000000000000000000000011001000000000000000000000000000000000000000000000000000000000110000000001000000000000000000000000000000000000000000000000000000000010000000000000000000000000000000000000000000000000000000000000000000001100000000000000000000000000000000101000000000000000000000001100000000000000000000000000000000000000000000000111000000000000000001010000000000000000000000000000000000000000000000000000000000000000000000000000000000000000000000000000001100000000000000000000000010100000000000000000000000000000000000000000000001010000000000000000010010000000000000000000000000000000000000000000000000000000000000000000000000000000000000000000000000000001000000000000000000000000010100000000000000000000000000000000000000000000100010000000000011000011000000000000000000000000000000000000000000000000000000001110000000000000000000000000000000000000000000000000000000000000000011100110000000000000000000000000000000000000000000001000110000000000110000000000000000000000000000000000000000000000000000000000000000000000000000000000000000000000000000000000000000000000000000000000110110000000000000000000000000011000000000000000000010001100000000000000000000000000000000000000000000000000000000000000000000000000000000000000000000000000000000000000000000000000000000000000000000000010100000000000000000000000000110000000000000000000000111000000000000000000000000000000000000000000000000000000000000000000000000000000000000000000000000000000000000000001110000000000000000000000000000010000000000000000000000000000000000000000000000000101110000000000000000000000000000000000000000000000000000000000000000000000000000000000000000000000000000000000000000000000000000000000000000000000000000000000000000000000000000000000000000000000000010100000000000000000000000000000000000000000000000000000000000000000000000000000000000000000000000000000000000000000000101000000000000000000000000000000000000000000000000000000000000000000000000000000001110000100000000000000000000000000000000000000000000000000000000000000000000001110000000000000000000100000000000111001010011100000000000000000000000000000000000000000000000000000000000000000000000000000000110110000000000000000000000000000000000000000000000000000000000000000000000000000000000000000010100000000000000000000000000000000000000000000000000000000000000000000000000000000000000000000000000000000010000000000000000000000000000000000000000000000000000000001100000000000000000000000000000000100100000001100010111010001100000000000000000000000000000000000000000000000000000000000000000000000000000001000000000000000000000000000000000110000000000000000000000001100000000000000000000000000110000110000000010000100000100001000000000000000000000000000000000000000000000000000000000000000000000000011010100000000000000000000110000000000001100000000000000000000000100000000000000000000000000001100000000000000110011000001100110000000000000000000000000000000000000000000000000000000000000000000000001101001000000000000000000001100000000000000000000000000000000000000000000000000000000000000000000000000000000000000010000010000000000000000000000000000000000000000000000000000000000000000000000000000001011000000000000000000000000000000000000000000000000000000011000000000000000000000000010000000000000000000000000011100000111000000000000000000000000000000000000000000000000000000000000000000000000000001100000000000000000000000000000000000000000000000000000000110000000000000000000000000100000000000000000000000000110000000110000000000000000000000000000000000000000000000000000000000000000000000000000000000010000000000000000000110000011000000000000000000000000000000000000000000000000001000000000000000000000000000000000000000100000000000000000000000000000000000000000000000000000000000000000000000000000011100000000000001100010010000110000000000000000000000000000000000000110000000000000000000000000000000011101000000000000010000000000000000000000000000000000000000000000000000000000000000000000000000000110110000000000011000010100000000000000000000000000000000000000000011010000000000000000000000000000000110110000000000000001000000000000000000000000000000000000000000000000000000011000000000000000000011000110000000000000000010000000000000000000000000000000000000000000001110000000000000000000000000000000000000000000000000000000000000000000000000000000000000000000000000000000001001000000000000000000100110100000000000000000000000000000000000000000000000000000000000000000100000000000000000000000000000000000000000000011000100000000000000000000000000000000000000000000000000000010010000000000000000000001001000000000000000000000000000000000000000000000000000000000000001100100000000000000000000000000000000000000000001111011000000000000000000000000000000000000000000110000000000011000000000000000000000000001000000000000000000000000000000000000000000000000000000000000010011000000000000000000000001100000000000000000101010100000000000000000000000000000000000000000001100000000000000000000000000000000100000010000000000000000000000000000000000000000000000000000000000000111000000001100000000000000011000000000000000011100110000000000000000000000000000000000000000000000000000000000000000000000000000001000000000000000000000000000000000000000000000000010000000000000000000000000000100100000000000000000000000000000000000000000000000000000000000000000000000000000000000000000000000000000000000000000000001001000000000000000000000000000000000000000000001110000000000000000000000000000110000000000000000000000000000000000000000000000000000000000000000000000000000000000000000000000000000000000000000000000010110010000000000000000000000000000000011100000100100000000000000000000000000000000000000000000000000000000000000000000000000000000000000000000000000000000000000000000000000000000000000000000000000000110001100000000000000000000000000000000000000011111010000000000000000000000000000000000000000000000000000000000000001100000000000000000000000000000000000000000000000000000000000000000000000000000000000101010000000000000000000000000000000000000000011110110000000000000000000000000000000000000000000000000000000000000011001000000000000000000000000000000000000000000000000000110000000000000000000000000000111000000000000000000000000000000000000000000000000000000000000000000000000000000000000000000000000000000000000000010100000000000000000000000000000000000000000000000000010010000000000000000000000000001110000000000000000000000000000000000000000000000100000000000000000110000000000000000000000000000000000000000000000010000000000000000000000000000000000000000000000000000011000000000000000000000000000000000000000000000000000000000000000000000011000000000000000000000010010000000000000000000000000000000000000000000000000000000000000000000000000000000000000000000000000000000000000000000000000000000000000000000000000000010000000000000000000001110111000000000000000000011000000000000000000000000000000000000000000000000000000000000000000000000000000000000000000000000000000000000000000000000000000000000000000000000000001010000000000000000000001100000000000000000000000000000000000000000000000000000000000000000010000000000000000000000000000000000000000000000000000000000000000000000000000000000000000000000000000000000010010000000000000000000000000001000000000000000000000000000000000000000000000000000000000001010000000000000000000000000000000000000000000000000000000000000000000000000000000000000000000000000000001100100100000000000000000000000000000000000000000000000000000000000000000000000000000000000000010100000000000000000000000000000000000000000000000000000000000000000000000000000000000000000000000000000000101110000000000000000000000001111011000000000000000000000000000000000000000000000000000000000010000000000000000000000000000000000000000000000000000000000000000000000000000000000000000000000000000000110000000000000000000000000000111110100000000000000000000000000000000000000000001100000000000000000000000001110000000000000000000001000000000000000000000000000000000000000000000000000000000000000000000000110000000000000000000000000100100000000000000000000000000000000000000000000011000000000000000000000000110010000000000000000000101000000000000000000000000000000000000000000000000000000000000000000000000000000000000000000000000000111000000000000000000000000000000000000000000000000000000000000000000000010001100000000000000000000100000000000000000000000000000000000000000000000011100000000000000000000000000000000000000000000000000100000000000000000000000000000000000000000000000000000000000000000000001001110000000000000000010000000000000000000000000000000000000000000000000001001000000000000000000000000000000000000000000000000000000000000000000000000000000000000000000000000000000000000000000000000100110000000000000000000100000000000000000000000000000000000000000000000000010000100000000000000000000000000000000000000000000000000000000000000000000000000000000000000000000000000000000000000000000001001000000000000000000000000000000000000000000000000000000000000000000000000100000000000000000000000000000001110001100000000000000000000000000011000000000000000000000000000000000000000000000000000000001001000000000000000000000000000000000000000000000000000000000000000000000000000001000000000000000000000000000000100100000000000000100000000000110000000000000000000000000000000000000000000000000000000010010000000000000000000000000000000000000000000000000000000000000000000000001000000000000000000000000000000000000110000000000000010001000000000000000000000000000000000000000000000000000000000000000000011100000000000000000000000000000000000000000000000000000000000000000000011000001000000000000000000000000000000000000000000000000110100000000000000000000000000000000000000000000000000000000000000000000000000000000000000000010000000000000000000000000000000000000000001000001101101100000000000000000000000000000000000000000000000000000000110000000000000000000000000000000000000000000000000000000000000000000000000000000000000100000000000000000000000000000000000000000101000001000010000000000000000000000000000000000000000000000000000000010010000000000000000000000000000000000000000000000000000000000000000000000000000000000000000000011000000011000000000000000000000010010000001001000000000000000000000000000000000000000000000000000000000100100000000000000000000000000000000000000000000000000000000000000000000000000000000000000000000000101000100000000000000000000000011000000011000000000000000000000000000001110000000000000000000000000000110000000000000000000000000000000000000000000000000000000000000000000000000000000000000000000100011010001001000000000000000000000000000000000000000000000000000000000000000000000000000000000000000000000000000000000000000000000000000000000000000000000000000000000000000000000000000000000000000001000001000000001000000000000000000000000000001000000000000000000000000000000000000000000000000000000000000000000000000000000000000000000000000000000000000000000000100000000000000000000000000000000000010000000000001010000000000000000000000000000001000000000000000000000000000000000000000000000000000000001100000000000000000000000000000000000000000000000000000000010100000000000000000000000000000000000000000000000001100000000000000000000000111000011000000000000000000000000000000000000000000000000000000100100000000000000000000000000000000000000000110000000000001101101100000000000000000000000000000000011100011100010000000000000000000000010010000000000000000000000000000000000000000000000000000000000000110000000000000000000000000000000000000000010010000000000000100110100000000000000000000000000000000000000000000000000000000000000000001100000101000000000000000000000000000000000000000000000000000000000000000000000000000000000000000000000000000010100000000000000010001100000000000000000111000000000000000000000000000000000000000000000001101001010000000000000000000000000000000000000000000000000000000000000000000000000000000000000000000000000000010000000001110000101011000000000000000000000000000000000000000000000000000000000000000000011001110110000000000000000000000000000000000000000000000000000000000000000000000000000000000000000000000000000000000000010010000100110000000000000001000001000000000000000000000000000000000000000000000001111101000000000000000000000000000000000000000000000000000000000000000000000000000000000000000000000000000000000000001000100111010000000000000000010000010000000000000000000000000110000000000000000000001111100000000000000000000000000001000000000000000000000000000000000000000000000000000000000000000000000000000000000011110001100000000000000000000100000100000000000000000000000001100000000000000000000001110000000000000000000000000000101000000000000000000000000000000000000000000000001110000000000000000000000000000000010000001100000000000000000000000000000000000000000000000000000000000000000000000000000000000000000000000000000000001001000000000000000000000000000000000000000000000000000000000000000000000000000000000001000001000000000000000000000111000000000000000000000000000000000000000000000000000000000000000000000000000000000001100000000000000000000000000000000000000000000000000000000000000000000000000000000000010000000000000000000000000000000000000000000000000000000000000000000000000000000000000000000000000000000000000000000000000000000000000000000000000000000000000000000000000000000000000000000000000000001010000000000000000000000000000000000000000000000000000000000000000000000000000000000000000000000000010000000000000000000000000000000000000000000000000000000000000000000000000000000000000000000000000001000000000000000000000000000000000000000000000000000111000000000000000000000000000000000000000000000100000000000000000000000000000000000000000000000000000000000000000000000000000000000000000000000000010000000000000000000000000000000000000000000000000001001000000000000000000000000000000000000000000001000000000000000000000000000000000000000000000000000000000000000000000000000000000000000000000000000000000000000000000000000000000000000000000000000001100110000000000000000000000000000000000000000000000000000000000000000000000000000000000000001110000000000000000000000000000000000001000000000000000000000000000000000000000000000000000001100000000000010100100000000000000000000000000000000000000001110001110000000000000000000000000000000000000010100000000000000000000000000000000000010000000000000000000000000000000000000000000000000000100100000000000101000000000000000000000000000000000000000000000000000000000000000000000100000000000000000000111000000000000010000000000000000000000100000000000000000000000000000000000000000000000000001000010000000000000000000000000000000011000000000000000000000000000000000000000000000010100000000000000000000000000000000001010000000000000000000000000000000000000011100011100000000000000000000000000001111110000000001001000100000000110000110000000000000000000000000110000000000000000000101000000000000011011000000000000000010100000000000000000000000000000000000000000000000001100000000000000000000000000010110000000000010011000000001100000000000000000000000000000010010000000000000000000100000000000000110110000000000000000010000000000000000000000000000000000000100000100000100100000000000000000000000000101000000000100100010000000000000000000000000000000000000001111110000000000000000000000000000000000100100000000000000000000000000000000000000000000000000000001000001000000110000000000000000000000000001100000000000000000000000000000000000000000000000000000100001001000000000000000000000000001100000011100110000000000000000000000000000000000000000000000000000010000010000000000000000000000000000000000000000000000101000000000000000000000000000000000000000001000001100000000000000000000000000011000000000011100000000000000000000000000000000000000000000000000000000000000000000000000000000000000000000000000000110001010010000000000000011000000000000000000000010000000000000000000000000000000000000000000000100100000000000000000000000000000000000000000000000000000011100000000000000000000000000000000000000000001100011001100000000000001001000000000000000000000000000000000000000000000000000000000000001100000111100000000000000000000000000000000000000000000000000000000000000000000000000000000000000000000000000000000001001000000000000001010000000000000000000000011100000000000000000000000000000000000010010001111000000000000000000000000000000000000000000000000000000000000000000000000000000000000000000000000000000000011100000000000000001000000000000000000000000000000000000000000000000000000000000000011000011100000000000000000000000000000000000000000000000000000000000000000000000000000000000000000000000000000000000000000000000000000000000000000000000000000000000000000000000000000000000000000000000010110110000000000000000000000000000000000000000000000000000000000000000000000000000000000000000000000000000000000000000000000000000000000000000000000000000000000000000000000000000000000000000000000000000000000000000000000000000000000000000000000000000010000000000000000000000000000000001100000000000000000000000000000000000000000000000000000000000000000000000000000000000000000000000000000000000000000000000000000000000000000000000000000000000000000001010000000000000000000000000000000011000000000000000000000000000000000000000000000000000000000000000000000000000000000000000000000000000000000000000000000000000000000000000000000000000000000000000000010100000000000000000000000000000000000000000000000000000000000000000000000000000000000000000000000000000000000000000000000000000000000000000000000000000000000000000000000000000000000000000000000000000010000000000000000000000000000000000000000000001100000000000000000000000000000000000000000000000000000000000000000000000000000000000000000000000000000000000000000000000000000000000000000000000000000000000000000000000000000000000000000000000000000011000000000000000010000000000000000000000000000000000000000000000000000000000000000000000000000000000000000000000000000000000000000000000000000000000000000000000000000000000000000000000000000000000000000000000000000001010000000000000000000000000000000000000000000000000000000000000000000000000000000000000000000000000000000000000000000000000000000000000000000000000000000000000000000000000000000000000000000000000000010100000000000000000000000000000000000000000000000000000000000000000000000000000000000000000000000000000000000010000000000000000000000000000000000000000000000000000000000000000000000000000000000000000010000000000000000000000000000000000000000000000000000000000000000000000000000000000000000000000000000000000001110000000000000000000000000000000000000000000000000000000000000000000000000000000000000000000000000000000000000000000000000010000000000000000000000000000000000000000000000000000000000000000000000000100010000000000000000000000000000000000000000000000000000000110000000000000000000000000000000000000000000000000000000000000001110000000000000000000000000000000000000000000000000000000000000000000000001101110000000000000000000000000000000000000000000000000000001010000000000000000000000000000000000000000000000000000000000000101010000000000000000000000000000000000000000000000000000000000000000000100001000000000000000000000000000000000001000000000000000000000001000000000000000000000000000000000000000000000000000000000000001000100000000000000000000000000000001100000000000000000000000000000000010100000000000000000000000000000000000000110000000001100000011000000000000000000000000000000000000000000000000001000000000000001100000110000000000000000000000000000011000000000000000000000000011000000101000110000000000000000000000000000000000000000000011000001001000000000000000000000000000000000000000000000000010000000000000100001000010000000000000000000000000000000000000000000000000000000110000000100001010000000000000000000000000000000001000000000000000010100000000000000000000000000000000000000000000000000100000000000011100101001110000000000000000000000000000000000000000000000000000000000000000000001000000000000000000000000000000000000000000000000000010000000000000000000000000000000000000000000000000000000000000000010000100001000000000000000000000000000000000000000000000000000000000000000000000000000000000000000000000000000000010010001000000000000000000000000000000000000000000000000000000000000000000000000000000011000001100000000000000000000000000000000000000000000000000000000000000000000000000000000000000000000000000000000010000001000000000000000000000000000000000000000000000110000000000000000000000000000000001000100000000000000000000000000000000000000000000000000000000000000000000000000000000000000000000000000000000000000110001000000000000000000000000000000000000000000010010000000000000000000000000000000010101000000000000000000000000000000000000000010000000000000000000000000000000000001000000000000000000000000000000100011100000000000000000000000000000000000000000000101000000000000000000000000000000001111100000000000000000000000000000000000000000100000000000000000000000000000000000101000000000000000000000000000000000000000000000000000000000000000000000000000000000100000000000000000000000000000000111010000000000000000000000000000000000000000001000000000000000000000000000000000000100000000000000000000000000000000000000000000000000000000000000000000000000000000000000000000000000000000000010000001100000000000000000001100110000000000000000000000000000000000000000000000000000000000000000000000000000000000000000000000000000000000000000000000000000000000000000000000000000000000000000000000100000000000000000000000000011001100000000000000000000000000000000000000000000000000000000000000000000000000000000000000000111000000000000000000000000000000000000000000000000000000001100000000000000001000000000000000000000001100000000000000000000000000000000000000000000000000000000000000000000000000000000000000000000000001110000110000000000000000000000000000000000000000000000000100100000000000000000000000000000000000000011000000000000100000000000000000000000000000000000000000000000000000000000000000000000000000000000000000010010000000000000000000000000000000000000000000000001010000000000000000000000000000000000000000000000000000010100000000000000000000000000000000000000000000000000000000000000000000000000000000000000000011000000000000000000000000000000000000000001000000001000000000000000000000000000000000000000000000000000000101000000000000000000000000000000000000000000000000000000000000000000000000000110000000000000000000000000000000000000000000000000000000101000000000000000000000000000000000000000000000000000000000000000100000000000000000000000000000000000000000000000000000000000000000000000000010010000000000000000000000000110000000000000000000000000000110000000000000000000000000000000010000000000000000000000000000000000000000000000011000000000000000000000000000000000000000000000001000000000100100000000000000000000000010100000000000000000000000000000000000000000000000000000000000000100000000000000000000000000000000000000000000000110000000000000000000000000000000000000000000000101000000000110000000000000000000000000010000000000000000000000000000000000000000000000000000000000000001000110000000000000000000000000000000000000000000000000000000000000000000000000000000000000000010010000000000000000000000000000000000000000000000000000000000000000000000000000000000000000000000000000000010010000000000000000000000000000000000000000000000000000000000000000000000000000000000000000011000000000000000000000000000000000000000000000000000000000000000000000000000000000000000000000000000000000101000000000000000000000000000000000000000000000000000000000000000000000000000000000000000000000000000000000000000000000000000000000000000000000000000000000000000000000000000000000000000000000000000000100000000000000000000000000000000000000000000000000000000000000000000000000000000000000000000000000000000000000000000000000000000000000000000000000110000011000000000000000000000000000000000000000011000000000000000000000000000000000000000000000000000000000000000000000000000000110000000000000000000000001100000000000001101100000000011000000000000011010001011000000000000000000000000000000000000000110000000000000000000000000000000000000000000000000000000000000000000000000000011010000000000000000000000100100000000000011011000000000110000000000001001110111001000000000000000000000000000000000000000000000000000000000000000000000000000000000000000000000000000000000000000000000100100000000000000000000000101000000011001010101000000000000000000000110000111000011000000000000000000000000000000000000000000000000110000000000000000000000000000000000000000000000000000000000000111011011000000000000000000000000100000000101111000110000000000000000000000110000100001100000000000000000000000000000000000000000000000001100000000000000000000000011100000000000000000000000000000000001001100100000000000000000000000000000000001000010000000000000000000000000000011000000010000000000000000000000000000000000000000000000000000000000000000000000000000000000000000000000000000000000000000010000010000000000000000000000000000000000001000000000000000000000000000000000000000010000000000000000000000000000000000000000000001000000000100000000000000000000000000000000000000000000000000000000000011001000000000000000000000000000000000000000101000000000000000000000000010000111000000000000000000000000000000000000000000000001101100000010100000000000000000000000000000000011000000000000000000000000001100000000000000000000000000000000000000011111000000000000000000010001100000111100000000000000000000000000001100000000000000000111100001001000000000000000000000000000000000110000000000000000000000000000000000000000000000000110000000000000001101011000000000000000000111110000001010000000000000000000000000000011000000000000000000101000001100000000000000000000000000000000000000000100000100000000000000000000000000000000000010010000000000000011010011000000000000000000101000001000000000000000000000000000000000000000000000000000000100000000000000000000000000000000000000000000000011000001100000000000000000000000000000000000100100110001100000001100001011100000000000000011010100100000000000000000000000000000000000000000000000000000000000000000000000000000000000000000000000000000010000010000000000000000000000000000000000000110001100100100000000000011000000000000000000000110110000000000000000000000000000000000000000000000000000000000000000000000000000000000000000000000000000000000000000000000000000000000000000000000000000000000000101000000000000000000000000000000010100110000000000000000001000000000000000000000000000000000000000000000000000000000000000000000000000000000000000000000000000000000000000000000000000000000000000000000100000000000010001100000000000001100000000000000000000000101000000000000000000000000000000000000000000000000000000000000000000000000000000000000000000000000000000000000000000000000000000000000000000000000000000000100100000000000000001100000000000000000000001010000000000000000000000000000000000000000000000000000000000000000000000000000000000000100000100000000000000000000000000000000000000000000000000000000000000010000000000000000011000000000000000000000001000000000000000000000000000000000000000000000000000000000000000000000000000000000000011000001100000000000000000000000000000000000000000000000000111000000000000000000000001000000000000000000000000000000000000000000000000000000000000000000000000000000000000110000000000000000000000000000010000010000000000000000000000000000000000000111000000000001110000000000000000000000010000000000000000000000000000000000000000000000000000000000000000000000000000000000001100000000000000000000000000000000000000000000000000000000000000000000000000000000000000001100000000000000000000000100000000000000000000000000000000000000000000000000000000001110000000000000000000000000000000000000000000000000000000000000000111000000000011000000000000000000000000000000000000100000000000000000000000000000000000000000000000000000000000000000000000000000000000000000000000000000000000000000000000000000000000000000000000000001010000000001001000000001100000000000000000000000100110000000011000000111000111000000000000000000000000000000000000000000000000000000000000000000000000000000000000000000000000000000000000000000000000110011000000010010000000101000000000000000000000010001000000001011000000000000000000000000000000000000000000000000000000000000000000000000000000000000000000000000000000000000000000000000000000000000000001000000000011000000000100000000000000000000000010010000000010010000000001000000000000000000000000000000000000000000000000000000000000000000000000000000000000000001100000000000000000000000000000001100010000000000000000000000000000000000000000000000111000000000110110111000010000000000000000000000000000000000000000000000000000000000000000000000000000110000000000100100000000000000000000000000000001111011000000000000000000000000000000100000000000000000000000000100110010000100000000000000000000000000000000000000000000000000000000000000000000000000001100000000000110000000000000000000000000000000001111000000000000000000000000000000010100000000000000000000000000100000100000000000000000000000000000000000000000000000000000000000000000000000000000000000000000000000000000000000000000000000000000000000110000000000000000000000000000001010000000000000000000000000000100110000000000000000000000000000000000000000000000000000000000000000000000000000000000000000000000000000000000000000000000000000000000000000000000000000000000000000000101000000000000000000000000000000111100000000000000000000000000000000000000000000000000000000000000000000000000000000000000000000000000000000000000000000000000000000000000000000000000000000000000000000100000000000000000000000000000000001100000000000000000000000000000000000000000000000000000000000000000000000000000000000000000000000000000000000000000000000000000000000000000000000000000000000000000000000000000000000000000000000000000011000000000000000000000000000000000000000000000000000000000000001110000000000000000000000000000000000000000000000000000000000000000000000000000000000000000000000000000000000000000000000000000000000000000000000000000000000000000000000000000000000000000000000000000000000000000000000000000000000001000000000000000000000000000000000000000000000000000000000000000000000000000000000000000000000000000000000000000000000000000000000000000000000000000000000000000000000000000000000000000000000000000000101000000000000000000000000000000000000000000000000000000000000000000000000000000000000000000000000000000000000000000000000000000000000000000000000000000000000000000000000000000000000000000000000000001010000000000000000000000000000000000000000000000000000000000000000000000000000000000000000000000000000000000000000000000000000000000000000000000000000000000000000000000100000000000000000000000000000001000000000000000000000000000000000000000000000000000000000000000000000000000000000000000000000000000000000000000000000000000000000000000000000010000000000000000000000001000000000000000000000000000000000000000000000000000000000000000000000000000110000000000000000000000000000000000000000000000000000000000000000000000000000000000000000000010010100000000000000000000000010000000000000000000000000000000000000000000000011000001000000000000000000001100000000000000000000000000000000000000000000000000000000000000000000000000000000000000000000101110000000000000000000000000000000000000000000000000000000000000000000000000110000010000000000000000000000000000000000000000000000000000000000000000000000000000000000000000000000000000000000000000000100000000000000000000000000000000000110000000000000000000000011000000000000000000000100000000000000000000000000000000000000000000000000000000000000000000000000000000000000000000000000000000000000000000000000000000000000000000000000000001010000000000000000000000110000000000000000000000000000000000000000000000000000000000000000000000000000000000000000000000000000000000000000000000000000000000000000000000000000000000000000000000000000001100000000000000000000000000000000000000000000000000000000000000000000000000000000000000000000000000000000000000000000000000000000000000000000000000000000000000000000000000000000000000000000000000000000000000000000000000000000000000000000000000000000000000000000000000000000000000000000000000000000000000000000000000000000000000000000000000000000000000000000000000000000000000000