P1
200 200
0000000000000000000000000000000000000000000000000000000000000000000000000000000000000000000000000000000000000000100000000000000000000000000000000000000000000000000000000000000000000000010000000000000000000000000000000000000000000000000000000000000000000000000000000000000000000000000000000000000000000000010000010100000000000000000000000000000000000000000000000000000000000000000000001010000000000000000000001100000000000000000000000000000000000000000000000000000000000000000000000000000000000000000000001010000100100000000100000000000000000000000000000000000000000000000000000000000010100000000000000000001001000000000000000000000000000000000000000000000000000000000000000000000000000000000000000000000011000000110000000010100000000000000000000000000000000000100000000000000000000000010000000000000000000100001000000000000000000000000000000000000000000000000000000000000000000000000000000000000000000000000000000000000000101000000000000000000000000000011100010100000000000000000000000000011100000000000010000010000000000000000000000000000000000000000000000000000000000000000000011000000000000000000000000000000000000000000100000000000000000000000000000000000100100000000000000000000000000000000000000000000001000000000000000000000000000000000000000000000000000000000000000000000110000000000000000000000000000000000000000000000000000000000000000000000000000000110000000000000000000000000000000000000010100000000000000000000000000000000000000000000000000000000000000000000000000000000000000000000000000000000000000000001100000001100000000000000000000000000000000000000000001100000000000000000000000000101010110000000000000000000000000000000000000000000000000000000000000000000000000000000000000000000000000000000000000100100000100100000000000000000000000000000000000000000011000000000000000000000000001010110000000000000000000000000000000000000000000000000000000000000000000000000000000000000000000000000000000000000000110000000110000000000000000000000000000000000000000000000000000000000000000000000010001000000000000000000000000000000000000000000000000000000000000000000000000000000000000000000000000000000000000000000000000000000000000000000000000000000000000000000000000000000000000000000000100000100001000011000000000000000000000000000000000000000000000000000000000000000000000000000000000000000000000000000000000000000100000000000000000000000000000000000000000000000000000000000000000000001100001100010000110000000000000000000000000000000000000000000000000000000000000000000000100000000000000000000000000000000000000010100000000000000000000000000000000000000000000000000000000000000000000100100001011000000000000000000000000000000000000000000000000000000000000000000000000000001000000000000000000000000000000000000000101000000000000000000000000000000000000000000000000000000011000000000001010000000000000000000000000000000000000000000000000000000000000110000000000000000000000010000000000000000000000000000000000000000100000000000000000000000000000000000000000000000000000001001000000000010100000000000000000000000000000000000000000000000000000000000010010000000000000000000000000000000000000000000000000000000000000000000000000000000000000000000000000000000000000000000000010100000000001000000000001110000000000000000000000000000000000000000000000000101000000000000000000011100011100000000000000000000000000000000000000000000000000000000000000000000000000000000000000000000010000000000001000000000001000000000000000000000000000000000000000000000000000100000000000000000000000000000000000000000000000000000000000000000000000000000000000000000000000000000000000000000000000000000000000000010000000100100000000000000000000000000000000000000000000000000000000000000000000000000000000000000000000000000000000000000000000000000000000000000000000000000000000000000000000011000000000000000000000000000001110000000000000000000000000000000000000000000000000000000000000000000000000000000001000000000000000000000000000000000000000000000000000000000000000000000000000000000000110000000000000000000000000000011100000000000000000000000000000000000000000000000000000000000000000000000000000000010000000000000000000000000000000000000000000000000000000000111000000000000000000000000000000000000000000000000000000000000000000000000000000000000000000000000000000000000000000000000000000000000000001000000000000000000000000000000000000000000000000000000000001011000000000000000000000000000000000000000000000000110000000000000000000000000000000000000000000000000000000000000000000000000000000000000000000000000000000000000000000000000000000000000000000000000001101100000000000000000000000000000000000000000000010100000000000000000000000000000000000000000000000000000000000000000000000000000000001100100001100000000000000000000000000000000000000000000000000000011111000000000000000000000000000000111000000000010110000000000000000000000000000000000000000110000000000000000000000000000000000000000011000000100100000000000000000000000000000000000000000000000001100110000000000000000000000000000000001110000000000011000000000000000000000000000000000000000010010000000000000000000000000000000000000000001100110110000000000000000000000000000000000000000000000000100000100000000000000000000000000000000100011000000000100000000000000000000000000000000000000000100100000000000000000000000000000000000000000001101000000000000000000000000000000000000000000000000000000000010000000000000000000000000000000000111111000000000000000000000000000000000000011000000000000110000000000000000000000000000000000000000000011000000000000000000000000000000000000000000000000000000000000000110000000000000000000000000000000100010000000000000000000000000000000000001001000000000000000000000000000000000000000000000000000000000000000000000000000000000000000000001000000000000000000001000000010100001100000000000000000000000000001000000000000000000000000000000000000010000100000110000000000000000000000000000000000000000001100000000000000000000000000000000000000101000000000000000000000000000010000011000000000000000000000000000011110000000000000000000000000000000000010011100001100000000000000000000000000000000000000000011000000110000000000000000000000000000001010000000000000000001000000100000000000000000000000000000000000000001100000000000000000000000000000000000111101100000000000000011000000000000000000000000000000000000001100000000000000000000000000000001000000000000000000010000000000000000000000000000000000000000000000000000001110000000000000000000000000001011010000000000000001001000000000000000000000000000000000000000000000000000000000000000000000000000000000000000000111100100000000000000000000000000000000000000000000000010100000000010000000000000000010111000000000000000010100000000000000000000000000000000000000000000000011000010000000000000000000000000000000000001110100000000000000000000000000000000000000000000000000100010000001010000000001010000001100000000000000000010000000000000000000000000000000000000000000000001001000100000000000000000000000000000000000000000000000000000000000000000000001000000000000000000101100100000010010000000110100000000000000000000000000000000000000000000000000000000000000000000000000001110001000000000000000000000000000000000000000000010000000000000000000000000101000000000000000001101000000000011000000010000000000000000000000000000000000000000000000000000000001000000000000000000000000100000000000000000000000000000000000000000000001010000000000000000000000001010000000000001000001100000000000000000000001100000000000000000000000000000011000000000000000000000010000000000000000000000001110001110000000000000000000000000000000000100010100000000000000000000000001000000000000010000000000000000000000000101000000000000000000000000000000000110000000000000000000000100000000000000000000000001100000000000000000000000000000000000000010100010000000000000000000000000000000001110000100000000000000000000001100000000000000000000000000000000000000000000000000000000000000000000000000000000000000011000000000000000000000000000000000000000101000000000000000000000000000000000000000000000000000000000000000000001010000000000000000000000000010000000000000000000000000000000000000000000000000001010000111000000000000000000000000000000000000000100000000000000000000000000000000000000000000000011000000000000000000001000000000000000000000000001010000000000000000000000000000000000000000000000000010010001101000000000000000000000000000000000000000000000000000000000000000000000000000000000000000000000000000000000000000000000000000000000000000010010000000000000000000000000000000000000000000000000101000010110000000000000000000000000000000001100000001100000000000000000000000000000000000000000000000000000000000000000000000000000000000000011000011000000000000000000000000000000000000000000000000000000000100010000000000000000000000000000000100100000100100000000000000000000000000000000000000000000000000000000000000000000000000000000000000110000000000000000000000000000000000000000000000000000000000000000111000000000000000000000000000000000110000000110000000000000000000000000000000000000000000000000011000000000000000000000000000000000000000000000000000000000000000000000000000000000000000000000000000001110000000000000000000000000000000000100010000000000000000000011000000000000000000000000000000000110000000000000000000000100000000010000000000000000000000000000000000000000000000000000000000000000000000000000000000000000000000000000000000010111000000000000000001001000000000000000000000000000000000000000000000000000000001000000000100000000000000000000000000000000000000000000000000000000000000000000000000000000000000000000000000000000011010001000000000000000001100000000000000000000000000000000000000000000000001000000100000000001000000000000000000000000000000000000000000000000000000000000000000010000000000000000000000000000000000000010100010000000000000000000000000000000000000000000000000000000000000000000010000001101100000000000000000000000000000000000000000000000000000000000000000000000000100000000000000000000000000000000000000000001000000000000000000000000000000000000000000000000000000000000000000000100000100000101110001110000000000000000000000000000000000000000000000000000000000000001000000000000000000000000000000000111001100000000000000001110000000000000000000000000000000000000000000000000000000000001111110000000000000000000000000000000000000000000000000000000000000000000000000000000000000000000000000000000000001110011000000000000000010010000000000000000000000000000000000000000000000000000000001101100000000010000000000000000000000000000110000000000000000000000000000000000000000000000000000110000000000000000011100000000000001100000100010000000000000000000000000000000000000000000000000000000011000000000000100000000000000110000000000001100000000000000000000000000000000000000000000000000001100000000000000000000000000000000100110000000100000000000000000000000000000000000000000000000000000000001000000000001000000000000001100000000000000000000000000000000000000000000000000000000000000000000000000000000000000000000000000001101100010001000000000000000000000000000000000000000000000000000000000000000000000000000000000000000000000000000000000000000000000000000000000000000000000000000000000000000000000000000000000000000000001110000100100000000000000000000000000000000000000000000000000000000000000000000000000000000000000000000000000000000000000000000000000000000000000000000000001110000000000000000000000000000000000000000000000001110000000000000000000000000000000000000000000000000000000000000000111000000000000000000000110000011000000000000000000000000000000000000011000000000000000000000000000000000000000000000000000000000000000000000000000000000000000000000000000000000000000000000000000000000001100000000000001100010010000110000000000000000000000000000000000000101000000000000000000000000000000000000000000000000000000000000000000000000000000000000000000000000000000000000000000000000000001000000000000000000011000010100000000000000000000000001110000000000000000100000000000000000000000000000000000000000000000000000000000000000000000000000000000000000000000000000000000011000000000000000100010000000000000000000000010000000000000000000000000010000000000000000000000000000000000000000000000000000000000000000000000000000000000000000000000000000000000000000000000000000001001000000000000001000101010000000000000000000000000000000000000000000000010000000000000000000000000000000000000000000000000000000000000000000000000000000000000000000000000000000000000000000000000000010010000000000000001111000000000000000000000000000000000000000000000110000000000000000000000000000000000000000000000000000000000000000000000000000000000000000000000000000000000000000000000110000000000011000000000000000000011000000000000000000000000000000000000000000001100000000000000000000000000000000000000000000000001100000111000000000000000000000000000000000000000000000000000000000001100000000000000000000000000000000011000000000000000000000000000000000000000000000000000000000000000000000000000001100000000000000011000000000000000000000000000000000000000000000000000000000000000000000000000000000000000000000001111000100100000000000000000000000000000000000000000000001100000000000000000000000000100100000000000000000000000000000000000000000000000000000000000000000000000000000000000000000000000000000000000000001010000111000000000000000000000000000000000000000000000000100000000000000000000000000110000000000000000000000000000000000000000000000000000000000000000000000000000000000000000000000000000000000000001010000111110110100000000000000100000000000000000000000001010000000000000000000000000000000000000000000000000000000000000000000000000000000000000000000000000000000000000000000000000000000000000000000011001101000000000000000000000010100000000000000000000000010000000000000000000000000000000000000000000000000000000000000000000000000000000000000000000000000000000000000000000000000000000000000000000000000000100001110001000000000000101000000000000000000000001000000000000000000000000000000000000000000000000000000000000000000000000000000000000000000000000000000000000000000000000000110000000000000000000000001110101111110000000000000100000000000000000000000000001000000000000000000000000000000000000000000000000000000000000000000000000000000000000000000000000000000000000000000000010010000000000000000000000001100110110000000000000000000000000000000000000000000011000000000000000110000000000000000000000000000000000000000011100000001110000000000000000000000000000000000000000000000011000000000000000000010000001000011000000000000000000000000000000000000000000110011000011000000010010000000000000000000000000000000000000000101000000011100000000000000000000000000000000000000000000000000000000000000000000100000001111100000000000000000000000010000000000000000000111100001110000000011000000000000000000000000000000000000000001110000000100110000000000000000000000000000000000000000000000000000000000000000001000000001110000000000000000000000001011000000000000000000000000010010000000000000000000000000000000000000000000000000000000000000001100000000000000000000000000000000000000000000000000000000000000000000000000001000000000000000110000000110101100000000000000010110000111000000000000000000000000000000000000000000000000000000000000000011000000000000000000000000000000000000000000000000000000000000000000000000000000000000000000010010000001100000100000000000000010100000110000000000000000000000000000000000000000000000000000011100000000000000000000000000000000000000000000000000000000000000000000000000000000000000000000000000000011000000011100010000000000000001010000000000000000000000000000000000000000000000000000000000011111000000000010000000000000000000000000000000000000000000000000000000000000000000011100000000000000000000000000000010010000000000000000000000000000000000000000000000000000000000000001100000000000000110110000010001010000000000000000001000000000000000000000000000000000000000000000000000000000000000000000000000000000011100000000000000011001000000000000000000000000000000000000000000011000000000000000000000001101111110000000000000000101000000000000000000000000000000000000001100000000000000000000000000000000000000000010000001000000000111000000000000000000000000000000000000000000000000000000000000000000000000011101000000000000000000100000000000000000000000000000000000000100100000000000000000000000000000000000000000000000010000000000010000000000000000000000000000000000000000000000000000000000000000000000111110000110000000000000000000000000000000000000000000000000111000111000000000000000000000000000000000000000000000000100000000000000000000000000000000000000000000000000000000000000000000000000000000010010000011000000000000000000000000000000000000000000000000010000001000000000000000000000000000000000000000110000000000000000000000000000000000000000000000000000000000000000000000000000000000000000001101110000000000000000000000000000000000000000000000000000000100000001001000000000000000000000000000000000010010001100000000000000000000000000011000000000000000000000000000000000000000000000000000000010001000000000000000000000000000000000000000000000000000000011011000010110000000000000000000000000000000000100100100100000000000000000000000000110000000000000000000000000000000000000000000000000000000100100000000000000000000000000000000000000000000000000000000010011000001000000000000000000000000000000000000110000110000000000000000000000000000000000000000000000000000000000000000000000000000000000000101000000000000000000000000000000000000000000000000000000000001000000000011100000000000000000000000000000000000000000000000000000000000000000000000000000000000000000000000000000000000000000000000000000000000000000000000000000000000000000000000000000000000000000000000000000100100110000000000000000000000000000000000000000000000000000000110000000000000000000000000000000000000000000000000000000000000000000000000000000000000000000000000000001000000000000000000000000000000001000000000000000000000000000000000000000000000000000000000000010010000000000000000000000000000000000000000000000000000000000000000000000000000000000000000000000000000101000000000000000000000000000001011010001100000000000000000000000010000000000000000000000000000100100000000000000000000000000000000000000000000000000000000000000000000000000000000000000000000000000001010000000000000000000001101000110000001111000000000000000000000000100000000000000000000000000000110000000000000000000000000000000000000000000000000000000000000000000000000000000000000000000000000000001000000000000000000000011011110100000010000000000000000000000000001000000000000000000000000000000000000000000000000000000000000000000000000000000000000000000000000000000000000000000000000000000000000000000000000000000000001100000100000001100010000000000000000000000000000000000000000000000000000000000000000000000000000000000000000000000000000000000000000000000000000000000000000000000000000000000000000000000000000000000000000011100000011000000000000000000000000000000000000000000000000000001100000000000000000000000000000000000000000000000000110000000000000000000000000000000000000000000000000000100000000000000000000000001000010000001000001000000000000000000000000000000000000000000000000100100000000000000000000000000000000000000000000000001011000000000000000000000000000000000000000000000000001000000000000000000000000001001000000001001000000000000000000000000000000000000000000000000000110000000000000000000000000000000000000000000000000000010000000000000000000000000000001000000000000000000010000000000000000000000000000011000000001110000000000000000000000000000000000000000000000000000000000000000000000000000000000000000000000000000000011100000000000000010000000000000010000000000000000000000000000000000000000001101111010000000011100000000000000000000000000000000000000000000000000000000000000000000000000000000000000000000001000000000000000000000000001100000000000000100000000000000000000000000000000000000000001100000100000000001011100000000000000000000000000000000000000000000000000000000000000000000000000000000000000001101000000000000000001100000010100000000000000000000000000000000000000000000000000000000011010000000000000010000000000000000000000000000000000000111000000000000000000000000000000000000000000000000000011010000000000000000011000000000000000000111000111000000000000000000000000000000000000000001000000000000000011100000000000000000001000000000000000000000000000000000000000000000000010000000000000000000011000000000011000000000000000000000000000000000000000000000000000000000000000000000000000000000000000000000010000000000000000000101000000000000100011000000000000000000000000000000100000000000000000000000000000000110000000000000000011110000000001000000000000000000000000000000000000000000000000000000000000000000000000000000000001001000000000000101110000000000000000000000000000001000000000000000000000000000000000000000000000000001110010000000010000000000000000000000000000000000000000000000000000000000000000000000000000000000001100000000000010000000000000000000000000000000000000000000000000000000000000000000000000000000000000010001000000000100000000000000000000000000000000000000000000000000000000000000000000000000000000000000000000000000000000000000000000000000000000000000000000000000000000000000000000010000000000000000000010010000000000000000000000000000000000000000000000000000000000000000000000000000000000000000000000000000000000011000000000000000000000000000000000000000000000000000000000000000001000000000000000000000111000000000000000000000000000000000000000000000000000000000000000000000000000000001110000000000000000000000000001000000000000011100000000000000000000000000000000000000000000000010110000000000000000000000000000000000000000000000000000000001100000000000000000000000000000000000000000000000000000000000000000000001100000000000000000000000000000000000000000000000000000000000000000011011000000000000000000000000000000000000000000000000000000011000000000000000000000000000000000000000010000010000000000000000000000010010000000000000000100000000000000000000000000000000000000000010000110110000000000000000000000000000000000000000000000000000000000000000000000000000000000000000000000000100000100000000000000000000000101100000000000000001000000000000000000000000000000000111000000100000000000000000000000000000000000000000000000000000000000000000000000000000000000000000000000000000000001000001000000000000000000100000000000000000000000010000000000010000000000000000000000000000000100000000000000000000000000000000000000000001100000000001100000000000000000000000011000000000000000000000000000000000000000000000010100000110000000000000000000000000001010000000000000000000000000000000000000000011100000000000000000000000000110011000000000100000000000000000000110000110000000000000000000000000000000000000000000000101000101100000000000000000000000000010100000000000000000000000001110010000000000001000000110000000000000000010010110000000000000101000000000000001100000000000000000000000000000000000000000000000000000100011011100000101100000000000000000010000000000000000000000000101101100000000001110000010010000000000000000011011001000000001000011100000000011000000000000000000000000000000000000000000000000000000000000000001000001111000000000000000000000000000000000000000000000010101000000000010000000011000000000000000000000001100000000000100100000000000101000000000000000000000000000000000000000000000000000000000000000110100011000100000000000000000000000000000000000000000000110001000000000110000000000000000000000000000000000000000000011011000000000000010000000000000000000000000011100000000000000000000000000000000001011100001001000000000000000000000000000000000000000000010000011000000000000000000000000000000000000000000000000000000010100000000000001100011000000000000000000000000000000000000000000000000000000100011001100010000000000000000000000000000000000000000000000110100000000000000000000000000000000000000000000000000000000000010000000000000000001001000000000000000000000000100000000000000000000000000000110100000010000010000000000000000000000000000000000000000000011000000000000000000000000000000000000000000000000000000000000000011000000000000001010000000000000000000000001000000000000000000000000000000011000000111000100000000000000000000000000000000000000000000000001001000000000000000000000000000000000000000000000000000000001001000000000000001000000000000000000000000010000000000000000000000000000110000000000100100000000000000000000000000000000000000000000000000010001000000000000000000000000000000000000000000000000000000001010000000000000000000000000000000000000000000000000000000000000000000001001100000000111000000000000000000000000000000000000000000000000000100100000000000000000000000000000000000000000000000000000000001000000000000000000000000000000000000000000000000000000000000000000000010001000000000000000000000000000000000000000000000000000000000010000010000000000000000000000000001100000000000000000000000000000000000000000000000000000000000000000000000000000000000000000000000000000011000000000000000000000000000000000000000000000000000000000001010000000000000000000000000000000011000000000000000000000000000000000000000000000000000000000000000000000000000000000000000000000000000000110001000000000000000000000000000000000000000000000000000000010100000000000000000000000000000000000000000000000000000000000000000000000000000000000000000000000000000000000000000000000000000000000000000010110000000000000000000000000000000000000000000000000000000010000000000000000000000000000000000000000000001100000000000000000000000000000000000000000000000000000000000000000000000000000000000000000000111000000000000000000000000000000000000000000000000000000000000000000000000000000000000000000000000000000011000000000000000000000000000000000000000000000000000000000000000000000000000000000000000000000100000000000000000000000000000000000000000000000000000000000000000000000000000000000000000000000000000000000000000000000000000000000000000000000000000000000000000000000000000000000000000000000000000000000000000000000000000000000000000000000000000000000000000000000000000000000000000000000000000000000000000000000000000000000011000000000000000000000000000000000000000000000000000000000000000000000000000000000000000000000000000000000000000000000000000000000000000000000000000000000000000000000000000000000000000000000000000000110000000000000000000000000000000000000000000000000000000000000000000000000000000000000000000000000000000000000000000000000000000000000000000000000000000000000000000000000000000000000000000000000000000000000000000000000000000000000010000000000000000000000000000000000000000000000000000000000000000000000000000000000000000000000000000000000000000000000000000000000000110000000000000000000000000000000000000000000000000000000000000001010000000000000000000000000000000000000000000000000000000000000000000000000000000000000000000000000000000000000000000000000000000000001010000000000000000000000000000000000000000000000000000000000000010100000000000000000000000000000000000000000000000000000000000000000000000000000000000000000000000000000000000011000000000000000000000001000000000000000000000000000000000000000000000000000000000000000010000000000000000000000000000000001100000000000000000000000000000000000000000000000000000000000000000000000001001000000001100000011000000000000000000000000000000000000000000000000000000000000000000000000000000000000000000000000000000011000000000000000000000000011000000000000000000000000000000000000000000000001100000000011000001001000000000000000000000000000000000000000000000000111000000000000110000000110000000000000000000000000000000000000000000000000000000110000000000000000000010000000000000000000000000000000000000000000010100000000000000000000000000000000000000000000000000000000000000001100000010010000000000000000000000000000000000000000000000000000000000000000000000000000010000000000000000000000000000000000000000000010000000000000000000000000000000000000000000000000000000000000000000000000011000000000000000000000000000000000000000000000000000000000000000000000000000000000000000000000000000000000000000000000000000000000000000000000000000000000000000000000000000000000000000000000000000000000000000000000000000000000000000000000000000000000000000000000000000000000011011000000000000000000000000000000000000000000000000000000000000000000000000000000110000000000000000000000000000000000000000000000000000000000000000000000000000000000000000000000000000000000000000000111000000000000000000000000000000000000000000000000000000000000000000000000000000010010000000000000000000000000000000000000000000000000000000000000000000000000000000000000000000000000000000000000000001100000000000000000000000000000000000000000000000000000000000000000000000000000000101000000000000000000000000000000000000000000000000000000000000000000000000000001110000000000000000000000000000000000000011100000000000000000000000000000000000000000000000000000000000000000000000000000100000000000000000000000000000000000000000000000000000000000000000000000000000000000000000000000000000000000000000000000011000000000000000000000000000000000000000000000000000000000000000000000000000000000000000000000000000000000000000000000000000000000001100110000000000000000000000000000000000000000000000000000000000000100000000000000000000000000001000000000000000000000000000000000000000000000000000000000000000000000000001110000000000000000000000000011001100000000000000000000000000000000000000000000000000000000011010000000000000000000000000000101000000000000000000000000000000000000000000000000000000001100000000000000000000000111000000000000001100000000000000000000000000000000000000000000000000000000000000001111100000000000000000000000000001010000110000000000000000000000000000000000000000000000000100100000000000000000000010000000000000000011000000000000100000000000000000000000000000000000000000000000000100100000000000000000000000000000001000010010000000000000000000000000000000000000000000000001010000000000000000000000100010000000000000000000000000010100000000000000000000000000000000000000000000000000100000000000000000000000000000000000000011000000000000000000000000000000000000000001000000001000000000000000000000011101000000000000000000000000000101000000000000000000000000000000000000000000000000000000000000000000000000001111000000000000000000000000000000000000000000000000000000101000000000000000000000000000011100000000000000000000000000000000100000000000000000000000000000000000000000000000000000000000000000000000001100001000000000000000000000000110000000000000000000000000000110000000000000000000000000001010000000000000000000000000000000000000000000000000011000000000000000000000000000000000000000000000011000000010011010000000000000000000000010100000000000000000000000000000000000000000000000000000000010000000000000000000000000000000000000000000000000000110000000000000000000000000000000000000000000001001000001001111110000000000000000000000010000000000000000000000000000000000000000000000000000000000100011100000000000000000000000000000000000000000000000000000000000000000000000000000000000000000000010100000001110000100000000000000000000000000000000000000000000000000000000000000000000000000000000000110111000000000000000000000000000000000000000000000000000000000000000000000000000000000000000000000010000000011000010000000000000000000000000000000000000000000000000000000000000000000000000000000000000001010000010000000000000000000000000000000000000000000000000000000000000000000000000000000000000000000000000000000000000010000000000000000000000000000000000000000000000000000000000000000000000000000000000000000110000000000000000000000000000000000000000000000000000000010000000000000000000000000000000000000011000000000000010000000000000000000000000000000000000000000000000000000000000000000000000000000000110000110000000000000000000000000000000000000000000000000000001010000000000000000000000000000000000001001000000000100100000001100000011000000000000001100000000000000000000000000000000000000000000000000000011000000000000000000000000000000000000000000000000110011010010000000010000000000000000000000000010010000001001001110000011000000110000000000000100100000000000000000000000000000000000000000000000000000000000000000000000000000000000000000000000000000010000011000000000000100000000000000000000000001000100000011011000000000000000000000000000000000101000000000000000000000000000000000000000000000000000000000000000000000000000000000000100000000000000000011000011110000000001000000000000000000000000001010000000000000100100000000111000000000000000000100000000001000000000000000000000000000000000000000000000000000000000000000000000000001000000000000000001010000010000000110000000011000000000000000000011100000000000000110000000001110000000000000000000000000000101000000000000000000000000000000000000000011000000000000000000000000000000010000000000000000010100000000000001100000001110000000000000000000000000000000000000111000000000010000000000011100000000000001010000000000000000000000000000000000111100101100000100000000000000000000000000000000000000001000000000000000000000000011100000000000000000000000000000000010100110000000000000000000100000000000000000001000000000000000000000000000000000000100101000101111000000000000000000000000000000000000000010110000000000000000000001100000011011000000000000000000000001001000000000000000000000011100000000000000000000000000000000000000000000000000000100000010000111110000000000000000000000000000000000000000010000000000000000010100010000001010101000000110000000000000010001000000000000000000001000000000000000000000000000000000000000000000000000000001000101000010100000000000000000000000000000000000000000000000000110000001001001000000000110000010000010010000000001000111011000000000000000000110000000000000000000000000000000000000000000000000000000001001001110000000000000000000000000000000000000000000000000000110100000010110000000000001001100000000100100000000000001000010000000000000000000100000000000000000000000000000000000000000000000000000000000000110000111000000000000000000000000000000000000000000000001101100000011100000000000100110000000000110000000000000110001100000000000000000001011110000000000000000000000000000000000000000000000000000000001000001100000000000000000000000000000000000000000000000011000100001110100000110000101000000000000000000000000000100001000000000000000000001000100000000000000000000001000000000000000000000000000000000000000000000000000000000000000000000000000000000000000000001001100011101000001100000000000000000000000000000000011010000100000000000000000001101000000000000000000000101000000000000000000000000000000000000000000000000000000000000000000000000000000000000000000001111000011100000000000000000000000000000000000000000110000011000000000000000000000100000000000000000000001010000000000000000000000000000000000000000000000000000000000000000000000000000000000000000000000000000000000000000000000000000000000000000000000000000010100000000000000000000000000000000000000000000001000000000000000000000000000000000000000000000000000000000000000000000000000000000000000000000000000000000000000000000000000000000001000000000000011001000000000000000000000000000000000000000000000000000000000000000000000000000000000000000000000000000000000110000000000000000000000000000000000000000000000000000000000000000000000000010000000000000000000000000000000000000000000000000000000000000000000000000000000000000000000000000010000000000000000000000001100000000000000000000000000000000000110000000000000000000000000000000000000100000000000000000000000000000000000000000000000000000000000000000000000000000000000000000000000000100000000000000000000000000000000000000000000000000000111000001100000000000000011000000000000000000000000000000000000000000000000000000000000000000000000000000000000000000000000000000000000000000000001000000000000000000000000000000000000000000000000000000000000000000000000000001001000000001100000000000000000000000000000000000000000000000000000000000000000000000000000000000000000000000000000000000000000000000000000000000000000000000000000000000000000000000000000000000000000010010000000101000000000000000000001100000000000000000000000000000000000000000000000000000000000000000000000000000000000000000000000000000000000000000000000000000000000000000000000000000000000000000000011000000000100000000000000000000110000000000000000000000000000000000000000000000000000000000000000000000000000000000000000000000000000000000000000000001100000000000000000000000000000000000000000000000000000000000000000000000000000000010000000000000000000000000000000000000000000000000000000000000000000000000000000000000000000000000000000110000000000100100000000000000000000000000000000000000000000000000000000000000000000100000000000000000000000000000000000000000000000000000000000000000000000000000000000000000000000000000000000000000001100000000000110000000000000000000000000000000000000000000000000000000000000000000010100000000000000000000000000000000000000000000000000000000000000000000000000000000000000000000000000000000000000000000000000000000000000000000000000000000000000000000000000000000000000000000000000001010000000000000000000000000000000000000000000000000000000000000000000000000000000000000000000000000000000000000000000000000000000000000000000000000000000000000000000000000000000000000000000000000000101000000000000000000000000000000000000000000000000000000000000000000000000000000000000000000000000000000000000000000000000000000000000000000000000000000000000000000000000000000000000000000000000000000100000000000000000000000110000000000000000000000000000000000000000000000000000000000000000000000000010000000000000000000000000000000000000000000000000000000000000000000000000000000000000000000000000000000000000000000000000001100000000000000000000000000000000000000000000000000000000000000000000000000100000000000000000000000000000000000000000000000000000000000000000000000000000000000000000000000000000000000000000000000000000000000000000000000000000000000000000000000000000000000000000000000000000001000000000000000000000000000001000000000000000000000000000000000000000000000000000000000000000000000000000000000000000000000000000000000000000000000000000000000000000000000000000000000000000000000000000000000000000000000000000000101000000000000000000000000000000000000000000000000000000000000000000000000000000000000000000000000000000000000000000000000000000000000000000000000000000000000000000000000000000000000000000000000000001010000000000000000000000000000000000000000000000000000000000000000000000000000000000000000001110000000000000000000000000000000000000000000000000000000000000000000000000000000000000000000000000000000001000000000000000000000000000000000000000000000000000000000000000000000000000000000000000000100000000000000000000000000000000000000000000000000000000000000000000000000011100000000000000000000000000000000000000000000000000000000000000000000000000110000000000000000000000000000000000000000000000000000000000000000000000000000000000000000000000000000000000000000000000000000000000000000000000000000000000000000000000000011000000000000000000000000001100000000000000000000000000000000000000000000000110000000000000000000000000000000000000000000000000000000000000000000000000000000000000000000000000000000000000000000000000110000111000000000000000000000000000000000000000000000000000000000000001100000000000000000000000000000000000000000000000000000000000000000000000000000000000000110000000000000000000000011000000000000000000000000000000000000000000000000000000000000000000000000000000000000110000011000000000000000000000000000000000000000000000000000000000000000000000000000000001010000000000000000000000110000000000000000000000000000000000000000000000000000000000000000000000000000000000000111110010000000000000000000000000000000000000000000000000000000000000000000000000000000001100000000000000000000000000000000000000000000000000000000000000000000000000000000000000000000000000000000000000111111100000000000000000000000000000000000000000000000000000000000000000000000000000000000000000000000000000000000000000000000000000000000000000000000000000000000000000000000000000000000000000000000000001100000000000000000000000000000000000000000000000000000000000000