P1
200 200
0000000000000000000000000000000000000000000000000000000000000000000000000000000000000000000000000000000000000000100000000000000000000000000000000000000000000000000000000000000000000000010000000000000000000000000000000000000000000000000000000000000000000000000000000000000000000000000000000000000000000000010000010100000000000000000000000000000000000000000000000000000000000000000000001010000000000000001000000000000000000000000000000000000000000000000000000000000000000000000000000000000000000000000000001010000100100000000100000000000000000000000000000000000000000000000000000000000010100000000000000100000110000000000000000000000000000000000000000000000000000000000000000000000000000000000000000000000011000000110000000010100000000000000000000000000000100000100000000000000000000000010000100000000000000111011000000000000000000000000000000000000000000000000000000000000000000000000000000000000000000000000000000000000000101000000000000000000000000000001000010100000000000000000000000000001000000000100001000110000000000000000000000000000000000000000000000000000000000000000000011000000000000000000000000000000000000000000100000000000000000000000000000010000100100000000000000000000000000010000000001000000110000000000000000000000000000000000000000000000000000000000000000000000110000000000000000000000000000000000000000000000000000000000000000000000000000000110000000000000000000000000000000000000010110101000000000000000000000000000000000000000000000000000000000000000000000000000000000000000000000000000000000000001100000001100000000000000000000000000000000000000000001100000000000000000000000000101100010000000000000000000000000000000000000000000000000000000000000000000000000000000000000000000000000000000000000100100000100100000000000000000000000000000000000000000011000000000000000000000000001001001000000000000000000000000000000000000000000000000000000000000000000000000000000000000000000000000000000000000000110000000110000000000000000000000000000000000000000000000000000000000000000000000011010100000000000000000000000000000000000000000000000000000000000000000000000000000000000000000000000000000000000000000000000000000000000000000000000000000000000000000000000000000000000000000001000000100100000011000000000000000000000000000000000000000000000000000000000000000000000000000000000000000000000000000000000000000100000000000000000000000000000000000000000000000000000000000000000000101000000111000000110000000000000000000000000000000000000000000000000000000000000000000000000000000000000000000000000000000000000010100000000000000000000000000000000000000000000000000000000000000000000110000000000000000000000000000000000000000000000000000000000000000000000000000000000000011100000000000000000000000000000000000000101000000000000000000000000000000000000000000000000000000011000000000000100000011011000000000000000000000000000000000000000000000000000110000000000000000000000000000000000000000000000000000000000000000100000000000000000000000000000000000000000000000000000001001000000000000000001000110000000000000000000000000000000000000000000000000010010000000000000000000100000100000000000000000000000000000000000000000000000000000000000000000000000000000000000000000000010100000000000000000000000000000000000000000000000000000000000000000000000000101000000000000000000001000001000000000000000000000000000000000000000000000000000000000000000000000000000000000000000000000010000000000011100000110110000000000000000000000000000000000000000000000000000100000000000000000000010000010000000000000000000000000000000000000000000000000000000000000000000000000000000000000000000000000000000000000010001101100000000000000000000000000000000000000000000000000000000000000000000000000000000000000000000000000000000000000000000000000000000000000000000000000000000000000000000011000000000000000000001000100000100000000000000000000000000000000000000000000000000000000000000000000000000000000010000000000000000000000000000000000000000000000000000000000001000000000000000000000000110000000000000000000000000000000000000000000000000000000000000000000000000000000000000000000000000000000000000001010000000000000000000000000000000000000000000000000000000000010000000000000000000000000000000000011100000000000001000000000000000000000000000000000000000000000000000000000000000000000000000000000000000100000000000000000000000000000000000000000000000000000000000111000000000000000000000000000000000000000000000000010000000000000000000000000000000000000000000000000000000000000000000000000000000000010011000000000000000000000000000000000000000000000000000000000000111000000000000000000000000000000000010100000010001000000000000000000000000000000000000000000000000000000000000000000000000000000000001000000101000000000000000000000000000000000000000000000000000010000001000000000000000000000000000000001101000000011100000000000000000000000000000000000000000110000000000000000000000000000000000000000001010101011000000000000000000000000000000000000000000000000000001000000000000000000000000000000000000100000000000000000000000000000000000000000000000000000010010000000000000000000000000000000000000000001011000100000000000000000000000000000000000000000000000000011110000000000000000000000000000000000001000000000000000000000000000000000000000000000000000000100100000000000000000000000000000000000000000000100010000000000000000000000000000000000000000000000000000110010010000000000000000000000000000000011000010000000000000000000000000000000000000000000000000110000000000000000000000000000000000000000000000000000000000000000000000000000000000000000000000000000000000000100000000000000000000000000000000001100010000000000000000000000000000000001100000000000000000000000000000000000000000000000000000000000000000000000000000000000000000000001000000000000000000000001000011000001100000000000000000000000000011011000000000000000000000000000000000001011000000110000000000000000000000000000000000000000001100001000000000000000000000000000000000101000000000000000000000101000110000011000000000000000000000000000000110000000000000000000000000000000000000001000001100000000000000000000000000000000000000000011000001010000000000000000000000000000001010000000000000000000110010000000000000000000000000000000000000000000000000000000000000000000000000000000000010000000000000000011000000000000000000000000000000000000001100000000000000000000000000000001000000000000000000010000100000000000000000000000000000000000000000000000000000000000000000000000000000000011100000000000000001001000000000000000000000000000000000000000000000000000000000000000000000000000000000000000000011110000000000000000000000000000000000000000000000000011100000000010000000000000000111000000000000000000010100000000000000000000000000000000000000000000000011000000000000000000000000000000000000000000111000000000000000000000000000000000000000000000000011011000000001010000000001110010010000000000000000000010000000000000000000000000000000000000000000000001001000000000000000000000000000000000000000000000000000000000000000000000000001000000000000000001110000110000010010000001110100001000000000000000000000000000000000000000000000000000000000000000000000001100011100000000000000000000000000000000000000000010000000000000000000000000101000000000000001000110001000000011000000001100000000000000000000000000000000000000000000000000000000000000000000000000000000001000100000000000000000000000000000000000000001010000000000000000000000001010000000000000100000001110000000000000100100000000000000000000000000000000011000000000000000000000111000000000000000000000000010001000000000000000000000000000000000000100010100000000000000000000000001000000010000011100000101000000000000010010000000000000000000000000000000000110000000000000000000000000000000000000000000000000100010000000000000000000000000000000000010100010000000000000000000000000000000000100000010110000100000000000000111000000000000000000000000000000000000000000000000000000000000000000000000000000000000000111000000000000000000000000000000000000101000000000000000000000000000000000000001000000011100000000000000000000000000000000000000000000000010000000000000000000000000000000000000000000000000000010000000000000000000000000000000000000000000000100000000000000000000000000000000000000000000000010000000000000000000000000000000000000000000000001010000000000000000000000000000000000000000000000000011000000100000000000000000000000000000000000000000000000000000000000000000000000000000000000000000000000000000000000000000000000000000000000000000010010000000000000000000000000000000000000000000000000001000010100000000000000000000000000000000001100000001100000000000000000000000000000000000000000000000000000000000000000000000000000000000000011000011000000000000000000000000000000000000000000000000000000000101100000000000000000000000000000000100100000100100000000000000000000000000000000000000000000000000000000000000000000000000000000000000110000000000000000000000000000000000000000000000000000000000000000110000000000000000000000000000000000110000000110000000000000000000000000000000000000000000000000011000000000000000000000000000000000000000000000000000000000000000000000000000000000000000000000000000000000000000000000000000000000000000000000000000000000000000000011000000000000000000000000000000000110000000000000000000000000000000000000000000000000000000000000000000000000000000000000000000000000000000000000000000000000000000000000000000000101000000000000000001001000000000000000000000000000000000000000000000000000000001100000001110000000000000000000000000000000000000000000000000000000000000000000000000000000000000000000000000000000001110110000000000000000001100000000000000000000000000000000000000000000000000000000110100000000000000000000000000000000000000000000000000000000000000000000000000000000000000000000000000000000000000000100001000000000000000000000000000000000000000000000000000000000000000000000111000000001000010000010000000000000000000000000000000000000000000000000000000000000001110000000000000000000000000000000000000010000000000000000000000000000000000000000000000000000000000000000000000000000000000111000100000100000000000000000000000000000000000000000000000000000000000000000000000000000000000000000000000000110001000000000000000000000000000000000000000000000000000000000000000000000000000000100100000001000001000000000000000000000000000000000000000000000000000000000000000000000000000000000000000000000000010000100000000000000000011000000000000000000000000000000000000000000000000000000000000111000000000000000000000000000000000000000110000000000000000000000000000000000000000000000000000110000000000000000010000100000000001100000101100000000000000000000000000000000000000000000000000000000000100000000001110000000000000110000000000001100000000000000000000000000000000000000000000000000001100000000000000000011010000000000100100000011000000000000000000000000000000000000000000000000000000000000000000000000000000000000001100000000000000000000000000000000000000000000000000000000000000000000000000000000000000001000000000000111000010110000000000000000000000000000000000000000000000000000000000000000000000000000000000000000000000000000000000000000000000000000000000000000000000000010000000000000000000000000000000000000000001100000110000000000000000000000000000000000000000000000000000000000000000000110000000000000000000000000000000000000000000000000000000000000000000000000000000100000000000000000000000000000000000000000000000000000000000000000000000000000000000000000000000000000000000000000000011110000000000000000000110000011000000000000000000000000000000000000011000000000001000000000000000000000000000000000000000000000000000000000000000000000000000000000000000000000000000000000000000000000100010000000000001100010010000110000000000000000000000000000000000000101000000000000000000000000000000000000000000000000000000000000000000000000000000000000000000000000000000000000000000000000000000001100010000000000011000010100000000000000000000000000010000000000000000100000000000000000000000000000000000000000000000000000000000000000000000000000000000000000000000000000000000011000000000000000110011011000000000000000000010000000000000000000000000001100000000000000000000000000000000000000000000000000000000000000000000000000000000000000000000000000000000000000000000000000001001000000000000001110110100000000000000000000000000000000000000000000000010100000000000000000000000000000000000000000000000000000000000000000000000000000000000000000000000000000000000000000000000000010010000000000000010100110000000000000000000000000000000000000000000110000000000000000000000000000000000000000000000000000000001000000000000000000000000000000000000000000000000000000000000110000000000011000000000000000000011100000000000000000000000000000000000000000001100000000000000000000000000000000000000000000000001100000010000000000000000000000000000000000000000000000000000000000001100000000000000000000000000011000000000000000000000000000000000000000000000000000000110000000000000000000000000001100000000000000011000000100000000000000000000000000000000000000000000000000000000000000000000000000000000000000000110000000000000000000000000000000000000000000000000000000000000000000000000000000000100100000000000000000000000000000000000000000000000000000000000000000000000000000000000000000000000000000000000000000000110000000000000000000000000000000000000000000000000001000000000000000000000000000110000000000000000000000000000000000000000000000000000000000000000000000000000000000000000000000000000000000000000100011000111000000000000000000100000000000000000000000000110000000000000000000000000000000000000000000000000000000000000000000000000000000000000000000000000000000000000000000000000000000000000000000011001100010001000000000000000010100000000000000000000101100000000000000000000000000000000000000000000000000000000000000000000000000000000000000000000000000000000000000000000000000000000000000000000000000011001000001111000000000000101000000000000000000000111000000000000000000000000000000000000000000000000000000000000000000000000000000000000000000000000000000000000000000000000000110000000000000000000000000010000011110000000000000100000000000000000000000100010000000000000000000000000000000000000000000000000000000000000000000000000000000000000000000000000000000000000000000000010010000000000000000000000000100000100000000000000000000000000000000000000000001110100000000000000110000000000000000000000000000000000000000001100000000000000000000000000000000000000000000000000000000011000000000000000000000000000100010000000000000000000000000000000000000000000000000101100000000010010000000000000000000000000000000000000000111000000001000000000000000000000000000000000000000000000000000000000000000000001110000000111000000000000000000000000000000000000000000000111000000100000000011000000000000000000000000000000000000000000110000001011000000000000000000000000000000000000000000000000000000000000000000000000000000000000000000000000000000000000000000000000000000011000001100000000000000000000000000000000000000000000000000000000001010101100000000000000000000000000000000000000000000000000000000000000000000000000000000000000000000110000000011101000000000000000001101000110000000000000000000000000000000000000000000000000000000000010000100000000000000000000000000000000000000000000000000000000000000000000000000000000000000000000010010000001000110001000000000000100010000000000000000000000000000000000000000000000000000000000011000000000000000000000000000000000000000000000000000000000000000000000000000000000100000000000000000000011000000001000100010000000000010000000000000000000000000000000000000000000000000000000000000001111000000011100000000000000000000000000000000000000000000000000000000000000000000001000000000000000000000000000000001110000000000000000000010000000000000000000000000000000000000000001100000000000001000010000110100000000000000000000001000000000000000000000000000000000000000000000000010000000000000000000000000000000000000000000000000000111000000000000000000000000000000000000000000011000000000000000100000000110001100000000000000000101000000000000000000000000000000000000001000000000000000000000000000000000000000000000000000000000000000000000000000000000000000000000000000000000000000000000000000000000000001001110100000000000000000100000000000000000000000000000000000000011000000000000000000000000000000000000000000000000111000000001100000000000000000000000000000000000000000000000000000000000000000000000001110011100000000000000000000000000000000000000000000000000001000000000000000000000000000000000000000000000000000000000000000011000000000000000000000000000000000000000000000000000000000000000000000000111000000000000000000000000000000000000000000000000000000001101000100010000000000000000000000000000000000110000000000000000000000000000000000000000000000000000000000000000000000000000000000000000000110000000000000000000000000000000000000000000000000000000000011100001001000000000000000000000000000000000010010001100000000000000000000000000011000000000000000000000000000000000000000000000000000000001000000000000000000000000000000000000000000000000000000000001000100010010000000000000000000000000000000000100100100100000000000000000000000000110000000000000000000000000000000000000000000000000000000011100000000000000000000000000000000000000000000000000000000001100000010000101100100000000000000000000000000110000110000000000000000000000000000000000000000000000000000000000000000000000000000000000000000000000000000000000000000000000000000000000000000000000000001000000000010111000100000000000000000000000000000000000000000000000000000000000000000000000000000000000000000000000000000000000000000000000000000000000000000000000000000000000000000000000000000000000000000000000110100001000000000000000000000000000000000000000000000000000000110000000000000000000000000000000000000000000000000000000000000000000000000000000000000000000000000000001000000000000000000000000000000000011100010000000000000000000000000000000000000000000000000000010010000000000000000000000000000000000000000000000000000000000000000000000000000000000000000000000000000101000000000000000000000000000000000000000100000000000000000000000000000000000000000000000000000100100000000000000000000000000000000000000000000000000000000000000000000000000000000000000000000000000001010000000000000000000000000000110000110000000000000000000000000001110000000000000000000000000000110000000000000000000000000000000000000000000000000000000000000000000000000000000000000000000000000000001000000000000000000000011001100100000011100000000000000000000000000000000000000000000000000000000000000000000000000000000000000000000000000000000000000000000000000000000000000000000000000000000000000000000000000000000000000110100001000000111000000000000000000000000000000000000000000000000000000000000000000000000000000000000000000000000000000000000000000000000000000000000000000000000000000000000000000000000000000000000001001010010000001101000000000000000000000000000000000000000000000000001100000000000000000000000000000000000000000000000000100000000000000000000000000000000000000000000000000000000000000000000000000000010011001000000000010000000000000000000000000000000000000000000000000100100000000000000000000000000000000000000000000000001100000000000000000000000000000000000000000000000000011100000000000000000000001000000000000001000100000000000000000000000000000000000000000000000000110000000000000000000000000000000000000000000000000101100000000000000000000000000000000000000000000000000000000000000000000000001100111000000000001111100000000000000000000000000000000000000000000000000000000000000000000000000000000000000000000000000000010000000000000000000000000000000111000000000000000000000000000000000000000000100000111000000000011000000000000000000000000000000000000000000000000000000000000000000000000000000000000000000000000000001000000000000000000110000000000000000000000000000000000000000000000000000000000011100000000000001001000000000000000000000000000000000000000000000000000000000000000000000000000000000000000000010000000000000000001100000001010000000001000001000000000000000000000000000000000000000000100000000000000010100000000000000000000000000000000000011000000000000000000000000000000000000000000000000000001110000000000000000011000000010000000000010000010000000000000000000000000000000000000000000000000000000000011000000000000000000001000000000000000101000000000000000000000000000000000000000000000000000010000000000011000000000000000000010000000100000100000000000000000000000000000000000000000000000000000000000000000000000000000000101000000000000000111000000000000000000000000000001110000000000000000000000000000000110000000000000000000010000000000000000000000000000000000000000000000000000000000000000000000000000000000000000000001001000000000011001100000000000000000000000000000000000000000000000000000000000000000000000000000000001100100000000111000000000000000000000000000000000000000000000000000000000000000000000000000000000001100000000000000010000000000000000000000000000000000000000000000000000000000000000000000000000000000001110000000000000000000000000000000000000000000000000000000000000000000000000000000000000000000000000000000000001001100000000000000000000000000000000000000000000000000000000000000000000000000000000000001000000000000000000000000000000000000000000000000000000000000000000000000000000000010000000000000000000000000010011000000000000100000000000000000000000000000000000000000000000001110000000000000000000000000000000000000000000000000000000000000000000000000000000000000000000000000000000100000000000000000000000000001100000000000001000000000000000000000000000000000000000000000000011100000000000000000000000000000000000000000000000000000010001100000000000000000000000000000000000000000001000000000000000000000000000011000000000000010000000000000000000000000000000000000000000000100000000000000000000000000000000000000000000000000000000000000011000000000000000000000000000000000000000000000000000000000000000000000000000000000000000000000000000000000000000000000000000001000000001000001110000000000000000000000000000000000010100000000000001000000000000000000000000000000000000000000001110001110000000000000000000000011000000000000000011100000000000000000000000000000000010000000000000000000000000000000000000000000000000000101000000000000000000000000000000000000000000000000000000000000000000000000000000000000100001100000000000000000000000000000010000000000000000000000100000011000000000000000000000000000000000000000000000100000000001100000000000000000000000011000000000000000000000000000000000000000000000010100100100000000000000000000000000001010000000000000000000000000010010100000000011000000000000000000000000000110000000000000011100000000000000000110000110000000000000000000000000000000000000000000000101000101000000000000000000000000000010100000000000000000000000001000000001000000110000000110000000000000000010010011000000000100001000000000000001100000000000000000000000000000000000000000000000000000100000100001010000000000000000000000010000000000000000000000000010011100000000010000000010010000000000000000011001001000000000110110000000000011000000000000000000000000000000000000000000000000000000000000000100001100110000000000000000000000000000000000000000000001100010000000010001000000011000000000000000000000001100000000001000100000000000101000000000000000000000000000100000000000000000000000000000000010101100001011000000000000000000000000000000000000000000010111001100000000010000000000000000000000000000000000000000000001110000000000000010000000000000000000000000001000000000000000000000000000000001000110110010110000000000000000000000000000000000000000000000000000000000101000000000000000000000000000000000000000000000000000000000000001100011000000000000000000000010000000000000000000000000000000100110110100100000000000000000000000000000000000000000000000001100010000010000000000000000000000000000000000000000000000000000000000000000000001001000000000000000000000000000000000000000000000000000111110000000001101100000000000000000000000000000000000000000000011000010101000000000000000000000000000000000000000000000000000000011000000000000001010000000000000000000000011100000000000000000000000000000000000000011011000000000000000000000000000000000000000000000000001101100000000000000000000000000000000000000000000000000000001001000000000000001000000000000000000000000000000000000000000000000000011100010000000001000000000000000000000000000000000000000000000000000001110000000000000000000000000000000000000000000000000000000001010000000000000000000000000000000000000000000000000000000000000000000001101010000000000000000000000000000000000000000000000000000000000000000000000000000000000000000000000000000000000000000000000000001000000000000000000000000000000000000000000000000000000000000000000000011000100000000000000000000000000000000000000000000000000000000010000000000000000000000000000000001100000000000000000000000000000000000000000000000000000000000000000000000000000000000000000000000000000010000100000000000000000000000000000000000000000000000000000001010000000000000000000000000000000011000000000000000000000000000000000000000000000000000000000000000000000000000000000000000000000000000000001001000000000000000000000000000000000000000000000000000000010100000000000000000000000000000000000000000000000000000000000000000000000000000000000000000000000000000000000000000000000000000000000000000011100000000000000000000000000000000000000000000000000000000010000000000000000000000000000000000000000000001100000000000000000000000000000000000000000000000000000000000000000000000000000000000000000000000000000000000000000000000000000000000000000000000000000000000000000000000000000000000000000000000000000011000000000000000000000000000000000000000000000000000000000000000000000000000000000000000000000000000000000000000000000000000000000000000000000000000000000000000000000000000000000000000000000000000000000000000000000000000000000000000000000000000000000000000000000000000000000000000000000000000000000000000000000000000000000000000000000000000000000000000000000000000000000000000000000000000000000000000000000000000000000011000000000000000000000000000000000000000000000000000000000000000000000000000000000000000000000000000000000000000000000000000000000000000000000000000000000000000000000000000000000000000000000000000000110000000000000000000000000000000000000000000000000000000000000000000000000000000000000000000000000000000000000000000000000000000000000000000000000000000000000000000000000000000000000000000000000000000000000000000000000000000000000010000000000000000000000000000000000000000000000000000000000000000000000000000000000000000000000000000000000000000000000000000000000000110000000000000000000000000000000000000000000000000000000000000001010000000000000000000000000000000000000000000000000000000000000000000000000000000000000000000000000000000000000000000000000000000000001010000000000000000000000000000000000000000000000000000000000000010100000000000000000000000000000000000000000000000000000000000000000000000000000000000000000000000000000000000011000000000000000000000001000000000000000000000000000000000000000000000000000000000000000010000000000000000000000000000000001100000000000000000000000000000000000000000000000000000000000000000000000001001000000001100000011000000000000000000000000000000000000000000000000001000000000000000000000000000000000000000000000000000011000000000000000000000000011000000000000000000000000000000000000000000000001100000000011000001001000000000000000000000000000000000000000000000000010000000000000110000000110000000000000000000000000000000000000000000000000000000110000000000000000000110000000000000000000000000000000000000000000010100000000000000000000000000000000000000000000000000100000000000001100000010010000000000000000000000000000000000000000000000000000000000000000000000000011100000000000000000000000000000000000000000000010000000000000000000000000000000000000000000000000000000000000000000000000011000000000000000000000000000000000000000000000000000000000000000000000000001001000000000000000000000000000000000000000000000000000000000000000000000000000000000000000000000000000000000000000000000000000000000000000000000000000000000000000000000000000000000000000000000000000000100000000000000000000000000000000000000000000000000000000000000000000000000000000110000000000000000000000000000000000000000000000000000000000000000000000000000000000000000000000000000000000000000010001000000000000000000000000000000000000000000000000000000000000000000000000000000010010000000000000000000000000000000000000000000000000000000000000000000000000000010000000000000000000000000000000000000011000000000000000000000000000000000000000000000000000000000000000000000000000000101000000000000000000000000000000000000000000000000000000000000000000000000000000100000000000000000000000000000000010000100000000000000000000000000000000000000000000000000000000000000000000000000000000100000000000000000000000000000000000000000000000000000000000000000000000000000001000000000000000000000000000000000011001110000000000000000000000000000000000000000000000000000000000000000000000000000000000000000000000000000000010000000000000000000000000001100110000000000000000000000000000000000000000000000000000000000001100000000000000000000000000001000000000000000000000000000000000000000000000000000000000000000000000000000100000000000000000000000000011001100000000000000000000000000000000000000000000000000000000000100000000000000000000000000000101000000000000000000000000000000000000000000000000000000001100000000000000001000000000000000000000001100000000000000000000000000000000000000000000000000000000000000000111000000000000000000000000000001010000110000000000000000000000000000000000000000000000000100100000000000000000000000100000000000000011000000000000100000000000000000000000000000000000000000000000000110100000000000000000000000000000001000010010000000000000000000000000000000000000000000000001010000000000000000000000011100000000000000000000000000010100000000000000000000000000000000000000000000000000010000000000000000000000000000000000000011000000000000000000000000000000000000000001000000001000000000000000000000001101100000000000000000000000000101000000000000000000000000000000000000000000000000000000000000000000000000000000000000000000000000000000000000000000000000000000000000101000000000000000000000000000000110101000000000000000000000000000100000000000000000000000000000000000000000000000000000000000000000000000000011100000000000000000000000000110000000000000000000000000000110000000000000000000000000000011000001000000000000000000000000000000000000000000011000000000000000000000000000000000000000000000011000000001011010000000000000000000000010100000000000000000000000000000000000000000000000000000000001101110100000000000000000000000000000000000000000000110000000000000000000000000000000000000000000001001000000110000011000000000000000000000010000000000000000000000000000000000000000000000000000000000001010100000000000000000000000000000000000000000000000000000000000000000000000000000000000000000000010100000000110110110000000000000000000000000000000000000000000000000000000000000000000000000000000000000110000000000000000000000000000000000000000000000000000000000000000000000000000000000000000000000010000000000000001000010000000000000000000000000000000000000000000000000000000000000000000000000000000000000010100000000000000000000000000000000000000000000000000000000000000000000000000000000000000000000000000000001100011010000000000000000000000000000000000000000000000000000000000000000000000000000000000001001100000000000000000000000000000000000000000000000000000001100000000000000000000000000000000000000000000000011000000000000000000000000000000000000000000000000000000000000000000000000000000000000000010000100000000000000000000000000000000000000000000000000000011100000000000000000000000000000000000000110000000100001000000001100000011000000000000001100000000000000000000000000000000000000000000000000100001000000000000000000000000000000000000000000000000000000100000000000000000000000000000000000000010110000001001100000000011000000110000000000000100100000000000000000000000000000000000000000000000000000100000000000000000000000000000000000000000000000011100001001000000001110000000000000000000000001001100000001100001110000000000000000000000000000101000000000000000000000000000000000000000000000000010000000000000000000000000000000000000000000000000000001001001100000000000000000000000000000000000001100000000000000110001000000100000000000000000000100000000001000000000000000000000000000000000000000000000000000000000000000000000000011100000000000000010110100000000000110000001011000000000000000000000000000000000001101000000001100000000000000100000000000000101000000000000000000000000000000000000000001000000000000000000000000000000000000000000000000001100000000000001100000010000000000000000000000000000000000000011011000000111100000000000001000000000000001010000000000000000000000000000000000000100110000000000000000000000000000000000000000000000010010000000000000000000000001000010010000000000000000000000000000011000000000001100000000000010000000000000001000000000000000000000000000000000101111001010000011100000000000000000000000000000000000000011000000000000000000000001110000000010000000000000000000000000110110000000000011000000011000000000000000000000000000000000000000000000000000000101011110100110000000000000000000000000000000000000000000000000000000000000000000010000000000010000000110000000000000000110000000000000000000001001000000000000000000000000000000000000000000000000000000111000010001100010000000000000000000000000000000000000000000000010000000000111100000000011100100000010010000000001110001000000000000000000100011011000000000000000000000000000000000000000000000000000000000010100000001000000000000000000000000000000000000000000000001100000011010111000000000100101000000100100000000100011000000000000000000010000010010000000000000000000000000000000000000000000001000000000001100000100000000000000000000000000000000000000000000000000110000011100011100000000011000000000000110000000001000001110000000000000000010000110100000000000000000000000000000000000000000000101000000000000000001010000000000000000000000000000000000000000000000000110011100000100000110000100000000000000000000000001101101010100000000000000000000001100000000000000000000001000000000000000000000000000000000000000001000000000000000000000000000000000000000000000000000100110001010000001100000000000000000000000000000000001010001000000000000000000000100000000000000000000000101000000000000000000000000000000000000000000000000000000000000000000000000000000000000000000000001100001000000000000000000000000000000000000000000000100010000000000000000000000000000000000000000000001010000000000000000000000000000000000000000000000000000000000000000000000000000000000000000000000000000000000000000000000000000000000000000000000010001001000000000000000001010000000000000000000000000001000000000000000000000000000000000000000000000000000000000000000000000000000000000000000000000000000000000000000000000000000000000000000000000000011101000000000000000000010100000000000000000000000000000000000000000000000000000000000000000000000000000000000110000000000000000000000000000000000000000000000000000000000000000000000000111000000000000000000000000000000000000010000000000000000000000000000000000000000000000000000000000000000000000000000000000001100000000000000000000000000001000000110000000000000000000000000000000000000000000000000000000000000000000000000000000000000000000000000000000000000000000000000000000000000001110000000000000000000000000000000000000000000000000000010000001100000000000000011000000000000000000000000000000000000000000000000000000000000000000000000000000000000000000000000000000000000000000000000000000000000000000000000000000000000000000000000000000100000000000000000000001001000000001100000000000000000000000000000000000000000000000000000000000000000000000000000000000000000000000000000000000000000000000000000000000000000000000000000000000000000000000000000000000000000010010000000101000000000000000000000000000000000000000000000000000000000000000000000000000000000000000000000000000000000000000000000000000000000000000000000000000000000000000000000000000000000000000000011000000000100000000000000000000011100000000000000000000000000000000000000000000000000000000000000000000000000000000000000000000000000000000000000000001100000000000000000000000000000000000000000000000000000000000000000000000000000000100000000000000000000000000000000000000000000000000000000000000000000000000000000000000000000000000000000110000000000100100000000000000000000000000000000000000000000000000000000000000000000100000000000100000000000000000000000000000000000000000000000000000000000000000000000000000000000000000000000000000001100000000000110000000000000000000000000000000000000000000000000000000000000000000010100000000000000000000000000000000000000000000000000000000000000000000000000000000000000000000000000000000000000000000000000000000000000000000000000000000000000000000000000000000000000000000000000001010000000000000000000000000000000000000000000000000000000000000000000000000000000000000000000000000000000000000000000000000000000000000000000000000000000000000000000000000000000000000000000000000000101000000000000000000000000000000000000000000000000000000000000000000000000000000000000000000000000000000000000000000000000000000000000000000000000000000000000000000000000000000000000000000000000000000100000000000000000000000110000000000000000000000000000000000000000000000000000000000000000000000000000000000000000000000000000000000000000000000000000000000000000000000000000000000000000000000000000000000000000000000000000001100000000000000000000000000000000000000000000000000000000000000000000000001110000000000000000000000000000000000000000000000000000000000000000000000000000000000000000000000000000000000000000000000000000000000000000000000000000000000000000000000000000000000000000000000000000000000000000000000000000000000001000000000000000000000000000000000000000000000000000000000000000000000000000000000000000000000000000000000000000000000000000000000000000000000000000000000000000000000000000000000000000000000000000000101000000000000000000000000000000000000000000000000000000000000000000000000000000000000000000000000000000000000000000000000000000000000000000000000000000000000000000000000000000000000000000000000000001010000000000000000000000000000000000000000000000000000000000000000000000000000000000000000001100000000000000000000000000000000000000000000000000000000000000000000000000100000000000000000000000000000001000000000000000000000000000000000000000000000000000000000000000000000000000000000000000000101000000000000000000000000000000000000000000000000000000000000000000000000001000000000000000000000000000000000000000000000000000000000000000000000000000110000000000000000000000000000000000000000000011100000000000000000000000000000000000000000000000000000000000000000000000000010000000000000000000000000000000000000000000000011000001000000000000000000001100000000000000000000000000000000000000000001001000000000000000000000000000000000000000000000000000000000000000000000000000000000000000000000000000000000000000000000000000110000010000000000000000000000000000000000000000000000000000000000000000100010000000000000000000000000000000000000000000000000000000000000000000000000000000000110000000000000000000000011000000000000000000000100000000000000000000000000000000000000000000000000000000000000001000110000000000000000000000000000000000000000000000000000000000000000000000000000000001010000000000000000000000110000000000000000000000000000000000000000000000000000000000000000000000000000000000000011000100000000000000000000000000000000000000000000000000000000000000000000000000000000001100000000000000000000000000000000000000000000000000000000000000000000000000000000000000000000000000000000000000001110000000000000000000000000000000000000000000000000000000000000000000000000000000000000000000000000000000000000000000000000000000000000000000000000000000000000000000000000000000000000000000000000000011100000000000000000000000000000000000000000000000000000000000000