P1
200 200
0000000000000000000000000000000000000000000000000000000000000000000000000000000000000000000000000000000000000000100000000000000000000000000000000000000000000000000000000000000000000000010000000000000000000100000000000000000000000000000000000000000000000000000000000000000000000000000000000000000000000000010000010100000000000000000000000000000000000000000000000000000000000000000000001010000000000000011000000000000000000000000000000000000000000000000000000000000000000000000000000000000000000000000000001010000100100000000100000000000000000000000000000000000000000000000000000000000010100000000000000010000100000000000000000000000000000000000000000000000000000000000000000000000000000000000000000000000011000000110000000010100000000000000000000000000000100000100000000000000000000000010000100000000010000000000000000000000000000000000000000000000000000000000000000000000000000000000000000000000000000000000000000000000000101000000000000000000000000000001000010100000000000000000000000000001000000000110000011000000000000000000000000000000000000000000000000000000000000000000000011000000000000000000000000000000000000000000100000000000000000000000000000010000100100000000000000000000000000010000000000000000001000000000000000000000000000000000000000000000000000000000000000000000110000000000000000000000000000000000000000000000000000000000000000000000000000000110000000000000000000000000000000000000011001111100000000000000000000000000000000000000000000000000000000000000000000000000000000000000000000000000000000000001100000001100000000000000000000000000000000000000000001100000000000000000000000000100100000010000000000000000000000000000000000000000000000000000000000000000000000000000000000000000000000000000000000100100000100100000000000000000000000000000000000000000011000000000000000000000000000100010100100000000000000000000000000000000000000000000000000000000000000000000000000000000000000000000000000000000000110000000110000000000000000000000000000000000000000000000000000000000000000000000001101100000000000000000000000000000000000000000000000000000000000000000000000000000000000000000000000000000000000000000000000000000000000000000000000000000000000000000000000000000010000000000001100000000001000001000000000000000000000000000000000000000000000000000000000000000000000000000000000000000000000000000000000000000100000000000000000000000000000000000000000000000000000000100000000000001000000000000000110000000000000000000000000000000000000000000000000000000000000000000000000000000000000000000000000000000000000010100000000000000000000000000000000000000000000000000010000000000000000000000000110110000000000000000000000000000000000000000000000000000000000000000000000000011100000000000000000000000000000000000000101000000000000000000000000000000000000000000000000001000001000000000000000000010010010000000000000000000000000000000000000000000000000110000000000000000000000000000000000000000000000000000000000000000100000000000000000000000000000000000000000000000000100000110000000000110000000111000000000000000000000000000000000000000000000000000010010000000000000000000100000100000000000000000000000000000000000000000000000000000000000000000000000000000000000000001000011100000000000001100000110000000000000000000000000000000000000000000000000000101000000000000000000001000001000000000000000000000000000000000000000000000000000000000000000000000000000000000000000001000000000000000010010000000000000000000000000000000000000000000000000000000000000100000000000000000000010000010000000000000000000000000000000000000000000000000000000000000000000000000000000000000000000000000000000000011000000000000000000000000000000000000000000000000000000000000000000000000000000000000000000000000000000000000000000000000000000000000000000000000000000000000000000000000000000011000000000000000000001010000000000000000000000000000000000000000000000000000000000000000000000000000000000000000000000000000000000000000000000000000000000000000000000000000000000000000000000000000000110000000000000000000111100000000000000000000000000000000000000000000000000000000000000000000000000000000000000000000000000000000000000000000000000000000000000000000000000000000000000000000000000000000000000000011100000010001000000000000000000000000000000000000000000000000000000000000000000000000000000000000000000000000000000000000000000000000000000000000000000000000000000000000000000000000000000000000000000000000000110000000000000000000000000000000000000000000000000000000000000000000000000000000000000000000110000000000000000000000000000000000000000000000000000000000000000000000000000000000000000000000000000000111100100000000000000000000000000000000000000000000000000000000000000000000000000000000000000001110000000000000000000000000000000000000000000000000000000000000000000000000000000000000000000000000000000000010000000000000000000000000000000000000000000110000000000000000000000000000000000000000000000110000000000000000000000000000000000000000000000000000000001110000000000000000000000000000000000000001100100000000000000000000000000000100000000000000010010000000000000000000000000000000000000110000011000000000000000000000000000000000000000000000000000000000100100000000000000000000000000000000000000010000000000000000000000000000000001100000000000000100100000000000000000000000000000000000011100000000000000000000000000000000000000000000000000000000000000000110000000000000000000000000000000000000000100011100000000000000000000000000111000000000000000110000000000000000000000000000000000000101000000000000000000000000000000000000000000000000000000000000000000000000000000000000000000000000000000000000110100000100000000000000000000000000000000000000000000000000000000000000000000000000000000111000000000000000000000000000000000000001000000000000000000000000000000000001100000000000000000000000000000000000010010000000000000000000001110001100000000110000000000000000000000000000000000000000001110000000000000000000000000000000000000101000000000000000000000000100010000011000000000000000000000000000000000000001100000000000000000000001000001000000001100000000000000000000000000000000000000000000000000110000000000000000000000000000001010000000000000000000000011011010000000000000000000000000000000000000000000101000000000000000000000001001110000000000000000000011000000000000000000000000000000000000001100000000000000000000000000000001000000000000000000000001000010100000000000000000000000000000000000000000001100000000000000000000000000000000000000000000000001001000000000000000000000000000000000000000000000000000000000000000000000000000000000000000000000010000111000000000000000000000000000000000000000000010000000000010000000000000000000000000000000000000010100000000000000000000000000000000000000000000000011000000000000000000000000000000000000000000000010010100000000000000000000000000000000000000000010000000000001010000000000000000000000000000000000000010000000000000000000000000000000000000000000000001001000000000000000000000000000000000000000000000000001000000000000000000000001000000000000000000000110000000010010000000000000000000000000000000000000000000000000000000000000000000000000000000000000001100000010000000000000000000000000000000000000000010100000000000000000000000101000000000000000100000100000000011000000001111100000000000000000000000000000000000000000000000000000000000000000000000000000000001000000000000000000000000000000000000000000010000000000000000000000001010000000000000001111001000000000000000000111101100000000000000000000000000011000000000000000000000111000000000000000000000000000111000000000000000000000000000000000000100000000000000000000000000000001000000010000000001000100000000000000000010001001000000000000000000000000000110000000000000000000000000000000000000000000000000001000000000000000000000000000000000000010100000000000000000000000000000000000000100000000001110000000000000000000011000000000000000000000000000000000000000000000000000000000000000000000000000000000000000000000000000000000000000000000000000101000000000000000000000000000000000000001000000000010000000000000000000000011000000000000000000000010000000000000000000000000000000000000000000000000000000100000000000000000000000000000000000000000000100000000000000000000000000000000000000000000000001001000000000000000000000000000000000000000000001010000000000000000000000000000000000000000000000000000001000000000000000000000000000000000000000000000000000000000000000000000000000000000000000000000100001000000000000000000000011000000000000000000010010000000000000000000000000000000000000000000000000000101000110100000000000000000000000000000001100000001100000000000000000000000000000000000000000000100100000000000000000000000000000000000000011000011000000000000000000000000000000000000000000000000000000000110100100000000000000000000000000000100100000100100000000000000000000000000000000000000000000110000000000000000000000000000111100000000110000000000000000000000000000000000000000000000000000000000000000011010000000000000000000000000000000110000000110000000000000000000000000000000000000000000000000011000000000000000000000000001000000000000000000000000000000000000000000000000000000000000000000000000000000000000000000000000000000000000000000000000000000000000000011000000000000000000000000000000000110000000000000001000000111000000000000000000000000000000000000000000000000000000000000000000000000000000000000000000000000000000000000000000000000000000000000000001001000000000000000000000000000000000000000000000000100001111100000001110000000000000000000000000000000000000000000000000000000000000000000000000000000000000000000000000000000000001000000000000000000001100000000000000000000000000000000000000000000000011100101110100000000000000000000000000000000000000000000000000000000000000000000000000000000000000000000000000000000000000000000011000000000000000000000000000000000000000000000000000000000000000000000010000110001000010000010000000000000000000000000000000000000000000000000000000000000001110000000000000000000000011000000000000000111000000000000000000000000000000000000000000000000000000000000000000000011000001100000100000100000000000000000000000000000000000000000000000000000000000000000000000000000000000000000001000000000001100110000000000000000000000000000000000000000000000000000000000000000000000001000100000001000001000000000000000000000000000000000000000000000000000000000000000000000000000000000000000000000000000111000111100000000011000000000000000000000000000000000000000000000000000000000000010101000000000000000000000000000000000000000110000000000000000000000000000000000000000000000000000110000000000000000001101011000110111101110000000000000000000000000000000000000000000000000000000000000011100000000001110000000000000110000000000001100000000000000000000000000000000000000000000000000001100000000000000000000001001111110000001010000000000000000000000000000000000000000000000000000000000000010000000000000000000000000001100000000000000000000000000000000000000000000000000000000000000000000000000000000000000000000001100001001101000000000000000000000000000000000000000000000000000000000000000000000000000000000000000000000000000000000000000000000000000000000000000000000000000000010000000000000000000000000000000000000000001100010000000000000000000000000000000000000000000000000000000000000000000000000000000000000000000000000000000000000000000000000001000000000000000000000000000100000000000000000000000000000000000000000000000000000000000000000000000000000000000000000000000000000000000000000001010000000000000000000000110000011000000000000000000000011000000000000011000000000001000000000000000000000000000000000000000000000000000000000000000000000000000000000000000000000000000000000000000000111000000000000000001100010010000110000000000000000000000110000000000000101000000000000000000000000000000000000000000000000000000000000000000000000000000000000000000000000000000000000000000000000000000110011000000000000011000010100000000000000000000000000000000000000000000100000000000000000000000000000000000000000000000000000000000000000000000000000000000000000000000000000000000011000000000000001100000110000000000000000000010000000000000000000000000000000000000000000000000000000000000000000000000000000000000000000000000000000000000000000000000000000000000000000000000000000001001000000000000011110000000000000000000000000000000000000000000000000000000000000000000000000000000000000000000000000000000000000000000000000000000000000000000000000000000000000000000000000000000000010010000000000000100000000000000000000000000000000000000000000000000110000111000000000000000000000000000000000000000000000000001000000000000000000000000000000000000000000000000000000000000110000000000011000000000000001111000000000000000000000000000000000000000000000010010001110000000000000000000000000000000000000000001100000010000000000000000000000000000000000000000000000000000000000001100000000000000000000000000011001000000000000000000000000000000000000000000000000000000000000000000000000000000001100000000000000011000000100000000000000000000000000000000000000000000000000000000000000000000000000000000000000001000000000000000000000000000000000000000000000000000000010000100000000000000000000000100100000000000000000000000000000000000000000000000000000000000000000000000000000000000000000000000000000000000000010110000000000000000000000000000000000000000000000001000111001000000000000000000000000110000000000000000000000000000000000000000000000000000000000000000000000000000000000000000000000000000000000000000011100000000100000000000000000100000000000000000000100100010001000000000000000000000000000000000000000000000000000000000000000000000000000000000000000000000000000000000000000000000000000000000000000000000000000010000100000000000010100000000000000000000110111001100000000000000000000000000000000000000000000000000000000000000000000000000000000000000000000000000000000000000000000000000000000000000000000000000001000000100000000000101000000000000000000000000100000000000000000000000000000000000000000000000000000000000000000000000000000000000000000000000000000000000000000000000000110000000000000000000000000000010000110000000000000100000000000000000000000001000010000000000000000000000000000000000000000000000000000000000000000000000000000000000000000000000000000000000000000000010010000000000000000000000000000010100000000000000000000000000000000000000000001101010000000000000110000000000000000000000000000000000000000000000000100000000000000000000000000000000000000000000000000011000000000000000000000000000000101000000000000000000000000000000010000000000011011110000000000010010000000000000000000000000000000000000000000001000100000000000000000000000000000000000000000000000000000000000000000000000000000000000000000000000000000000000000000000000000000000110110110000000000011000000000000000000000000000000000000000000110110011000000000000000000000000000000000000000000000000000000000000000000000001110000000000000000000000000000000000000001000000000000001000011000000000000000000000000000000000000000000000000000000110110110011000000000000000000000000000000000000000000000000000000000000000000000000000000000000000000000000110000000011000011000000000000000011100000000000000000000000000000000000000000000000000000000000101000101000000000000000000000000000000000000000000000000000000000000000000000000010000000000000000000010010000001001000011000000000000000000000000000000000000000000000000000000000000000000000000010011011100010000000000000000000000000000000000000000000000000000000000000000000000001110000000000000000000011000000001010001110000000000000100000000000000000000000000000000000000000000000000000000000001000011101010000000000000000000000000000000000000000000000000000000000000000000000010001000000000000000000000000000001000001100000000000011000000000000000000000000000000000000000000001100000000000000010100001001110000000000000000000001000000000000000000000000000000000000000000000000001100000000000000000000000000000000000001111000000000000000000000000000000000000000000000000000000011000000000000000101000010111000000000000000000000101000000000000000000000000000000000000000000000000010010000000000000000000000000000000000001110000000000000000000000000000000000000000000000000000000000000000000000000110000011100000000000000000000000100000000000000000000000000000000000000001000000000011000000000000000000000000000000000000001000000001100000000000000000000000000000000000000000000000000000000000000000000000010001110000000000000000000000000000000000000000000000000000000001111000000000000000000000000000000000000000000000000000000000011000000000000000000000000000000000000000000000000000000000000000000000000000000000000000000000000000000000000000000000000000000000000000100001000000000000000000000000000000000000110000000000000000000000000000000000000000000000000000000000000000000000000000000000000000000000010000000000000000000000000000000000000000000000000000000000011000111010100000000000000000000000000000010010001100000000000000000000000000011000000000000000000000000000000000000000000000000000000000000100000000000000000000000000000000000000000000000000000000001000100111001001110000000000000000000000000100100100100000000000000000000000000110000000000000000000000000000000000000000000000000000000000001000000000000000000000000000000000000000000000000000000000100101001001010011100000000000000000000000000110000110000000000000000000000000000000000000000000000000000000000000000000000000000000000000000000000000000000000000000000000000000000000000000000000000000100010000000000101000000000000000000000000000000000000000000000000000000000000000000000000000000000000000000000000000000000000000000000000110000000000000000000000000000000000000000000000000000000000000101000000000000000000000000000000000000000000000000000000000000000000000110000000000000000000000000000000000000000000000000000000000000001100000000000000000000000000000000000001000000000000000000000001001000100000010000000000000000000000000000000000000000000000000000000010010000000000000000000000000000000000000000000000000000000000000000000000000000000000000000000000000000101000000000000000000000001101010000011010000000000000000000000000000000000000000000000000000000100100000000000000000000000000000000000000000000000000000000000000000000000000000000000000000000000000001010000000000000000000000011101000000011100000000000000000000000001110000000000000000000000000000110000000000000000000000000000000000000000000000000000000000000000000000000000000000000000000000000000001000000000000000000000000000000000000010000000000000000000000000000000000000000000000000000000000000000000000000000000000000000000000000000000000000000000000000000000000000000000000000000000000000000000000000000000000000000000000000000000000000000000000000000000000000000000000000000000000000000000000000000000000000000000000000000000000000000000000000000000000000000000000000000000000000000000000000000000000000000000000000000000000000000000000000000000000000000000000000000000000000000000001100000000000000000000000000000000000000000110000101100000000000000000000000000000000000000000000000000000000000000000000000000000000010000000000000000000000000000000000000000000000000000000000000000100100000000000000000000000000000000000000001110110000100000000000000000100000000000000000000000000000000011100000000000000000000000001100111000000000000000000000000000000000000000000000000000000000000110000000000000000000000000000000000000000011111000000100000000000000010100000000000000000000000000000000000000000000000000000000000100000001110001000000000000000000000000000000000000000000000000000000000000000000000000000000000000000000000000001000111011001010000000000001000000000000111000000000000000000000000000000000000000000001000000010010101100000000000000000000000000000000000000000000000000000000000000000000000000000000000000000000000001010000100010100000000110001000000000000000000000000000000000000000000000000000000000001100000001101011000000000000000000000000000000000000000000000000000000000000000000000000000000000000000000000111010100000000000001100001100100000000001000001000000000000000000000000000000000000000000000010001111110010000000000000000000000000000000000000000000000000000000000000000000000000000000000000000000000000000001000100100011000000001000000000010000010000000000000000000000000000000000000000000000000010000111000000000000000000000001000000000000000000000000000000000000000000000000000000000000000000000000000000000001001000000000000000000000000100000100000000000000000000000000000000000000000000001100000000000000000000000000000000101000000000000000000000000000000000000000000000001110000000000000000000000000000000010010000000001100110000000000000000000000000000000000000000000101100000000000000010000000000000000000000000000000001001000000000000001000000000000000000000000000000000000000000000000000000000000000000001100000000011111100000000000111000000000000000000000000000011111000000000000000000000000000000000000000000000000001100000000000001101100000000000000000000000000000000000000000000000000000000000000000000000000000001000000000000000000000000000000000000000000000111101000000000000000000000000000000000000000000000000000000000000000011011000000000000000000000000000000000000000000000000000000000000000000000000000000000000000000000000000000000000000000000000000000000110000000000000000000000000000000000010000000000000000000000000001110100000000000100000000000000000000000000000000000000000000000000000000000000000000000000000000000000000000000000000000000000000001111000000000000000000000000000000000000100000000000000000000000000000011100000000001000000000000000000000000000000000000000000000000000000000000000000000000000000000000000000000000000000111000001100111110000000000000000000000000000000000001000000000000000000000000000000000000000000010000000000000000000000000000000000000000000000000111000000000000000000000000000000000000000000000000001101000001111001000000000000000000000000000000000000000000000000000000000000000000001110000000000000000000000000000000000000000000000001000000000000000000000000000000000000000000000000000000000000000000110000001100000000000000000000000000000000000001110001110000000000000000000000001101000000000000011100000000000000000000000000000000010000000000010100000000000000000000000000000000000001010000000000001010000000000000000000000000000000000000000000000000000000000000000000000100000011110000000000000000000000000010000000000000000000000100000000000010000000000000000000000000000000000000110010000001000111100000000000000000000011000000000000000000000000000000000000000000000010100000111000000000000000000000000001010000000000000000000000000000001000000000011000000000000000000000000000011001100000101111001000000000000000110000110000000000000000000000000000000000000000000000101000000000000000000000000000000000010100000000000000000000000000000101000000000110000000110000000000000000001101100000000000001100000000000000001100000000000000000000000000000000000000000000000000000100000000000000000000000000000000000010000000000000000000000000000010001000000000000000010010000000000000000000000000000001000010000000000000011000000000000000000000000000000000000000000000000000000000000000000110000000000000000000000000000000000000000000000000000000100010011000011000000011000000000000000000000000000000001111000000000000000101000000000000000000000000000100000000000000000000000000000000000001100000000000000000000000000000000000000000000000000000001000101001000110000000000000000000000000000000000000000000100000000000000010110000000000000000000000000001000000000000000000000000000000000000000000000000000000000000000000000000000000000000000000000001010001100000000000000000000000000000000000000000000000000000000000000000001000011000000000000000000000010000000000000000000000000000000000001110001110000000000000000000000000000000000000000000000000001000000000000000000000000000000000000000000000000000000000000000000001000100001001000000000000000000000000000000000000000000000000000001000000000011010000000000000000000000000000000000000000000000000000000000000000000000000000000000000000000000000000000000000000011000010000000001010000000000000000000000011100000000000000000000000000010000100001111100000000000000000000000000000000000000000000000000000000000000000000000000000000000000000000000000000000000000001001000010000000001000000000000000000000000000000000000000000000000000000101100000100000000000000000000000000000000000000000000000000000000000000000000000000000000000000000000000000000000000000000000001010000000000000000000000000000000000000000000000000000000000000000000000100000001000000000000000000000000000000000000000000000000000000000000000000000000000000000000000000000000000000000000000000000001000000000000000000000000000000000000000000000000000000000000000000000000000000000000000000000000000000000000000000000000000000000000010000000000000000000000000000000001100000000000000000000000000000000000000000000000000000000000000000000000000000000000000000000000000000000101010000000000000000000000000000000000000000000000000000001010000000000000000000000000000000011000000000000000000000000000000000000000000000000000000000000000000000000000000000000000000000000000000000101000000000000000000000000000000000000000000000000000000010100000000000000000000000000000000000000000000000000000000000000000000000000000000000000000000000000000000000000000000000000000000000000000000000000000000000000000000000000000000000000000000000000000010000000000000000000000000000000000000000000001100000000000000000000000000000000000000000000000000000000000000000000000000000000000000000000000000000000000000000000000000000000000000000000000000000000000000000000000000000000000000000000000000000011000000000000000000000000000000000000000000000000000000000000000000000000000000000000000000000000000000000000000000000000000000000000000000000000000000000000000000000000000000000000000000000000000000000000000000000000000000000000000000000000000000000000000000000000000000000000000000000000000000000000000000000000000000000000000000000000000000000000000000000000000000000000000000000000000000000000000000000000000000000011000000000000000000000000000000000000000000000000000000000000000000000000000000000000000000000000000000000000110000000000000000000000000000000000000000000000000000000000000000000000000000000000000000110000000000000000000000000000000000000000000000000000000000000000000000000000000000000000000000000000000000001100000000000000000000000000000000000000000000000000000000000000000000000000000000000000000000000000000000000000000000000010000000000000000000000000000000000000000000000000000000000000000000000000000000000000000000000000000000000000000000000000000000000000110000000000000000000000000000000000000000000000000000000000000001010000000000000000000000000000000000000000000000000000000000000000000000000000000000000000000000000000000000000000000000000000000000001010000000000000000000000000000000000000000000000000000000000000010100000000000000000000000000000000000000000000000000000000000000000000000000000000000000000000000000000000000011000000000000000000000001000000000000000000000000000000000000000000000000000000000000000010000000000000000000000000000000001100000000000000000000000000000000000000000000110000000000000000000000000001001000000001100000011000000000000000000000000000000000000000000000000001000000000000000000000000000000000000000000000000000011000000000000000000000000011000000000000000110010000000000000000000000000001100000000011000001001000000000000000000000000000000000000000000000000010000000000000110000000110000000000000000000000000000000000000000000000000000000110000000000000000001000000000000000000000000000000000000000000000010100000000000000000000000000000000000000000000000000100000000000001100000010010000000000000000000000000000000000000000000000000000000000000000000000011100000000000000000000000000000000000000000000000010000000000000000000000000000000000000000000000000000000000000000000000000011000000000000000000000000000000000000000000000000000000000000000000000000100000000000000000000000000000000000000000000000000000000000000000000000000000000000000000000000000000000000000000000000000000000000000000000000000000000000000000000000000000000000000000000000000000111000110000000000000000000000000000000000000000000000000000000000000000000000000000000110000000000000000000000000000000000000000000000000000000000000000000000000000000000000000000000000000000000000001100100010000000000000000000000000000000000000000000000000000000000000000000000000000010010000000000000000000000000000000000000000000000000000000000000000000000000000010000000000000000000000000000000011010100000000000000000000000000000000000000000000000000000000000000000000000000000000101000000000000000000000000000000000000000000000000000000000000000000000000000000100000000000000000000000000000000000100000000000000000000000000000000000000000000000000000000000000000000000000000000000100000000000000000000000000000000000000000000000000000000000000000000000000000001000000000000000000000000000000000011011000000000000000000000000000000000000000000000000000000000000000000000000000000000000000000000000000000000010000000000000000000000000001100110000000000000000000000000000000000000000000000000000000010100000000000000000000000000000001000000000000000000000000000000000000000000000000000000000000000000000000000100000000000000000000000000011001100000000000000000000000000000000000000000000000000000000010000000000000000000000000000000101000000000000000000000000000000000000000000000000000000001100000000000000001000000000000000000000001100000000000000000000000000000000000000000000000000000000000000000000000000000000000000000000000001010000110000000000000000000000000000000000000000000000000100100000000000000000000000000000000000000011000000000000100000000000000000000000000000000000000000000000000000000000000000000000000000000000001000010010000000000000000000000000000000000000000000000001010000000000000000000000000000000000000000000000000000010100000000000000000000000000000000000000000000000000000000000000000000000000000000000000000011000000000000000000000000000000000000000001000000001000000000000000000000000000000000000000000000000000000101000000000000000000000000000000000000000000000000000000000000000000000000010001100000000000000000000000000000000000000000000000000000101000000000000000000000000000000000000000000000000000000000000000100000000000000000000000000000000000000000000000000000000000000000000000000110000100000000000000000000000110000000000000000000000000000110000000000000000000000000000000000010000000000000000000000000000000000000000000011000000000000000000000000000000000000000000000001000000000100101000000000000000000000010100000000000000000000000000000000000000000000000000000000000001110111000000000000000000000000000000000000000000110000000000000000000000000000000000000000000000101000000001010011001100000000000000000010000000000000000000000000000000000000000000000000000000000000011101111000000000000000000000000000000000000000000000000000000000000000000000000000000000000000010010000000010001100100100000000000000000000000000000000000000000000000000000000000000000000000000000000000000000000000000000000000000000000000000000000000000000000000000000000000000000000000000000000011000001000000010000101000000000000000000000000000000000000000000000000000000000000000000000000000000000000000010000000000000000000000000000000000000000000000000000000000000000000000010000000000000000000000100000000000000100000000011000000000000000000000000000000000000000000000000000000000000000000000000000000010000000000000000000000000000000000000000000000000000000000000000000000100000000000000000000011000000000000000000000001111000000000000000000000000000000000000000000000000000000000000000000000000000100010000000000000000000000000000000000000000000000000000100000000000000001000000000000000000000011001100110000000000000011110000011000000000100001100000000000000000000000000000000000000000000000000000100100000000000000000000000000000000000000000000000000010100000000000000000010000000000000000000011010111111000000000000000000000110000000010000100100000000000000000000000000000000000000000000000000000101100000000000000000000000000000000000000000000000001001000000000001110011010000000000000000000000010101111000000000100000000000000000000010000101000000000000000000000000000000000000000000000011010011011000000000000000000000000000000000000000000000000010010000000000000000000110000000000000000000001000001101100000110100000000000000000000000000100000000001000000000000000000000000000011100000110111110011000000000000000000000000011100000000000000000110100010000000110000010000100000000000000000000000100000010100000100010000000000000000000100000000000000101000000000000000000000000001001100010010000111110100000000000000000000000000000000000000000011011100000100001100000000000000000000000000000000000000000100011000000011000000000000000001000000000000001010000000000000000000000000100000100010000000000010100000000000000000000000000000000000000000010100100001000000000000110101100000000000000000000111110000110001000100010000000000000000010000000000000001000000000000000000000000000000100100000001000010100100000000000000000000000000000000000000000011000001000000000000000010111100000000000000000001001000000110100000010111000000011000000000000000000000000000000000000000000000000101100010000000010000111001000000000000000000000000000000000000000000011000000010100000000011100011011000000000110000001100001000001000000111011000010100100000000000000000000000000000000000000000000001000111000000001000100000100000000000000000000000000000000000000000000011100010001000000001001100001000000000010010000000001101100000000000110001011100000100000000000000000000000000000000000000000000010000000000000010100000000000000000000000000000000000000000000001100000100101100000000000100000100000000000000100100000001001010000000000000111100010011000100000000000000000000000000000000000000000000010100000000000010000000000000000000000000000000000000000000000100100000001010001100000000100100100000000000000110001111100010100000100000000010000100010001000000000000000000000000000000000000000000000010000000000000000000000000000000000000000000000000000000000001010000000010001111000000000100010000000000000000000011011011110000010000000000000000100000010000000000000000000000001000000000000000000000000000000000000000000000000000000000000000000000000000000000000000000000000110000000000000111000000000000000000000001100000000001110000000000000000000001000000000000000000000000101000000000000000000000000000000000000000000000000000000000000000000000000000000001110000000000000000000000000000100000000000000000000000000000000000000000000000000000000000100000000000000000000000001010000000000000000000000000000000000000000000000000000000000000000000000000000000000000000000000000000000000000000000000000000000000000000000000001100000000000000000000001110000000000000000000000000001000000000000000000000000000000000000000000000000000000000000000000000000000000000000000000000000000000000000000000000000000000000000000000000000011000000000000000000000000000000000000000000000000000000000000000000000000000000000000000000000000000000000000110000000000000000000000000000000000000000000000000000000000000000000000000111000000000000000000000000000000000000000000000000000000000000000000000000000000000000000000000000000000000000000000000000001100000000000000000000000000001000000110000000000000000000000000000000000000000000000000000000000000000000000000000000000000000000000000000000000000000000000000000000000000001110000000000000000000000000000000000000000000000000000010000001100000000000000011000000000000000000000000000000000000000000000000000000000000000000000000000000000000000000000000000000000000000000000000000000000000000000000000000000000000000000000000000000100000000000000000000001001000000001100000000000000000000000000000000000000000000000000000000000000000000000000000000000000000000000000000000000000000000000000000000000000000000000000000000000000000000000000000000000000000010010000000101000000000000000000000000000000000000000000000000000000000000000000000000000000000000000000000000000000000000000000000000000000000000000000000000000000000000000000000000000000000000000000011000000000100000000000000000000000000000000000000000000000000000000000000000000000000000000000000000000000000000000000000000000000000000000000000000001100000000000000000000000000000000000000000000000000000000000000000000000000000000000000000000000000000000000000000000000000000000000000000000000000000000000000000000000000000000000000000110000000000100100000000000000000000000000000000000000000000000000000000000000000000100000000000001100000000000000000000000000000000000000000000000000000000000000000000000000000000000000000000000000001100000000000110000000000000000000000000000000000000000000000000000000000000000000010100000000000010100000000000000000000000000000000000000000000000000000000000000000000000000000000000000000000000000000000000000000000000000000000000000000000000000000000000000000000000000000000000001010000000000000100000000000000000000000000000000000000000000000000000000000000000000000000000000000000000000000000000000000000000000000000000000000000000000000000000000000000000000000000000000000000101000000000000000000000000000000000000000000000000000000000000000000000000000000000000000000000000000000000000000000000000000000000000000000000000000000000000000000000000000000000000000000000000000000100000000000000000000000000000000000000000000000000000000000000000000000000000000000000000000000000000000000000000000000000000000000000000000000000000000000000000000000000000000000000000000000000000000000000000000000000000011000000000000000000000000000000000000000000000000000000000000000000000000001110000000000000000000000000000000000000000000000000000000000000000000000000000000000000000000000000000000000000000000000000110000000000000000000000000000000000000000000000000000000000000000000000000000000000000000000000000000000001000000000000000000000000000000000000000000000000000000000000000000000000000000000000000001110000000000000000000000000000000000000000000000000000000000000000000000000000000000000000000000000000000000101000000000000000000000000000000000000000000000000000000000000000000000000000000000000000001001100000000000000000000000000000000000000000000000000000000000000000000000000000000000000000000000000000001010000000000000000000000000000000000000000000000000000000000000000000000000000000000000000111011000000000000000000000000000000000000000000000000000000000000000000000000100000000000000000000000000000001000000000000000000000000000000000000000000000000000000000000000000000000000000000000000000001100000000000000000000000000000000000000000000000000000000000000000000000001000000000000000000000000000000000000000000000000000000000000000000000000000110000000000000000000000000000000000000000000110010000000000000000000000000000000000000000000000000000000000000000000000000010000000000000000000000000000000000000000000000011000001000000000000000000001100000000000000000000000000000000000000000000111000000000000000000000000000000000000000000000000000000000000000000000000000000000000000000000000000000000000000000000000000110000010000000000000000000000000000000000000000000000000000000000000000000100000000000000000000000000000000000000000000000000000000000000000000000000000000000110000000000000000000000011000000000000000000000100000000000000000000000000000000000000000000000000000000000000000000000000000000000000000000000000000000000000000000000000000000000000000000000000000001010000000000000000000000110000000000000000000000000000000000000000000000000000000000000000000000000000000000000000000000000000000000000000000000000000000000000000000000000000000000000000000000000000001100000000000000000000000000000000000000000000000000000000000000000000000000000000000000000000000000000000000000000000000000000000000000000000000000000000000000000000000000000000000000000000000000000000000000000000000000000000000000000000000000000000000000000000000000000000000000000000000000000000000000000000000000000000000000000000000000000000000000000000000000000000000000000