P1
200 200
0000000000000000000000000000000000000000000000000000000000000000000000000000000000000000000000000000000000000000101000000000000000000000000000000000000000000000000000000000000000000000010000000000000000000000000000000000000000000000000000000000000000000000000000000000000000000000000000000000000000000000010000010000000000000000000000000000000000000000000000000000000000000000001000001110000000000000000000000000000000000000000000000000000000000000000000000000000000000000000000000000000110010000000000001010000010100000000000000000000000000000000000000000001000000000000000000101000011100000000000000000000000000000000000000000000000000000000000000000000000000000000000000000000000000101001010000000000011000000010000000000000000000000000000000001000000000001000000000000000000010000000000100000000000100000000000000000000000100000000000000111000000000000000000000000000000000000000001010010010000000000000000000000000000000000000000000000000000000000011100100100000000000000110000000000010010000000010100000000000000000000010100000000000001010000000000000000000000000000000000011000000000001000000000000000000000000000000000000000000000000000000000000000000100100000000000000000000000000000010000000000000000000000000000000000100000000000000000000000000000000000000000000000000110000000000000000000000000000000000000000101000000000000000000000000000000000000010000000000000000000000000001101110000001110000000000000000000000110000000000000110000000000000000000000000000000000000000000000000000000000000000000000000000010010000000000000000000000000000000000000000000000001100000000000000000000000000000000000000000000000000000000000000000000000000000000000000000000000000000000000000000000000000000000000000000000000000001100000000000000000000000000000000000000000000000011000000000000000000000000000000000000000000000000000000000000000000000000000000110000000000000000000000000000000000000000000000000000000000000000000000000000000000000000000000000000000000000000000000000000000000000000000000000000000000000000000000000000000000000000000000000000010010000000000000000000000000000000000000000000000000000000000000000000000000000000000000000000000000000000000000000000000000000000000000000000000000000101000000000000000000000000000000000000000000000101000000000000000000000000000000000000000000000000000000000000000000000000000000000000000000000000000000000000000000000000000000000000000000000000000001010000000000000000000000000000000000000000000000000000000000000000000000000000000000000000000000000000000000000000000000000000000000000000000000000000000000000000000000000000000000000000000000000000001000000000000000000000000000000000000000000000000000000000000000000000000000000000000000000000000000000000000000000000000000000000000000000000000000000000000000000000000000000000000000000000000000000000000000000000000000000000000000000000000000000000000010000000000000000000000000000000000000000000000000000000000000000000000000000000000000000000000000000000000000000000000000000000000000000000000000000000000000000000000000000000000000000000000000000001010000000000000000000000100000000000000000000000000000000000000000000000000000000000000000000000000000000000000000000000000000000000000000000000000000000000000000000000000000000000000000000000000000100000000000000000000000001100000000000000000000000000000000000000000000000000000000000000000000000000000000000000000000000000000001000000000000000000000000000000000000000000000000000000000000000000000101000000000000000000000010000000000000000000000000000000000000000000000000000000000000000000000000000000000000000000111000000000001010000000000000000000000000000000000000000000000000000000000000000000000000000000000000000000000000000000000000000000000000000000000000000000000000000000000000000000000000000000000000001000000000000010011000000000000000000000000000000000000000000000000000000000000000000000000000000000000000000000000000000000000000000000000000000000000000000000000000000000000000000000000000000000000011000000000000100010000000000000000000000000000000000000000000000000000000000000000000000000000000000000000000000000000000000000000000000000000000000000000000000000000000000000000000000000000000000000000000000000000011100000000000000000000000000000000000000000000000000000000000000000000000000000000000000000000000000000000000000000000000000000000000000000000000000000000000000000001000000000000100000000011000000000000000000000000000000000000000000100000000000000000000000000000000000000000000000000000000000000000000000000000000000000000000000000000000000000000000000000000000000010000000000010100010111000000000000000000000000000000000000000000010100000000000000000000000000000000000000000000000000000000000000000000000000000000000000000000000000000000000100000000000000000000000000000000000000000100000000000000000000000000000000000000000000000000000000000000101000000000000000000000000000000000000000000000000000000000000000000000000000000000000000000000000000000000000000000000000000001100010000111000000000000000000000000000000000000000000010010000000000001000000000000000000000000000000000000000000000000000000000000000000000000000000000000000000000100000000000000000000000000000000000001010000000000000000000000000000000000000000000000000111000000000000011100000000011010000000000000000000000000000000000000100000000000000000000000000000000000000000000000000000000000000000000000000101001110000000000000000000000001110000000000000000000000000000000000000000000000000000000000000000000000000000000000000000110000000000000000000000000000000000000000000000000000000000110000000000000000100000000000000000000000000000011100000000000000000001000000000000000000000000000001101000000000000000000000000000000000110110000000000000000000000000000000000000000000000000000000000110000000000000000000000000000000000000000000000000000000000000000000100100000000000110000000000000000000000000000000000000000000011000001110000000000000000000000000000011000000000000000000000000000000000000000000000000000000000000000000000000000000000000000000000000000001000000000001100000000000000000000000000000000000000000001100000000000000000000000000000000000001100000000000000000000000000000000000000000000000000000011100000000000000000000000000000000000000000001110000000000000000000000011000000000000000000000000000000010000000000000000000000000000000000000000000000000000000000000000001000110000110000000000000000111000000000000000000000000000000000000000000000000000000000000000000001001000000000000000000000000000000000000000000000000000000000000000000000000000000000000000000000000001001100010000000000000000000100000000000000000000000000000000000000000000000000000000000000000000010100000000000000000000000000000000000000000000000001000000001000000000000000000000000000000000000001110011000011100000000000000000000000000000000000000000000001100000000000000000000000000000000000000010000000000000000000000000000000000000000000000000110000000011111000000000000000000000000000000000000000000000100100000000000000000000000000000000000000000000001100000000000000000000000000000000000000000000000000000000000000000000000000000000000000001000000001010001000000000000000000000000000000000000000000001001000000000000000000000000000000000000000000000001000000000000000000000000000000000000000000000000000000000000000001000000000000000000000000000000001101100000000000000000000000000000000000000000000010000000000000000000000000000000000000000000000000000000000000000000000000000000000000000000011000000000000000000000010000000000000000000000000000000011000000000000000000000000000000000000000001110000100110000000000000000000010000000000000000000000000000000000000000000000000000000000000000000110000000000000000000000100000000000000000000000000000000000000000000000000000000000000000000000000000100000001100000000000000000001010000000000000000000000000000000000000000000000000000000000000000000000000000000000000000000000000000000000000000000000000000000000000000000000000000000000000000000000101000000000000000000000000000000000000100000000000000000000000000000000000000000000000000000000000000000000000000000000000000000000000000000000000000000000000000000000000000000000000000000000000000001100000000000000000101000000000010000001000000001000000000000000000000000000000000000000000110000000000000000000000000000000000000000000000000000000000000000000000000000000110000000000000000000000000000000000000000000010001000000000000000000000000101000000000000000000000000000000000000000001010000000000000000000000000000000000000000000000000000000010000000000000000000000010000000000000000000000000000000000000000000000100000000000000000000000010001000000000000000000000000000000000011000010100000000000000000000000000000000000000000000000000000000100000000000000000000011000000000000000000000000000000000000000000001010000000000000000000000011110100000000000000000000000000000000000110000001100000000000000000000000000000000000000000000000000000001000000000000000000000000000000000000000000000000000000000000000000001000000000000000000000000110000000000000000000000000110110000000000000000111000000000000000000000000000000000000000000000000000000000000000000000000000000000000000000000000000000000000000000000000000000000000000000000000000000000000000000000000000000000100010000000000000000110000000000000000000000000000000000000000000000000000000000000000000000000000000000000000000000000000000011000000000000000000000000000000000000000000000000000000000000000000000000001000000000000000011000000010000000000000000000000000000000000000000000000000000000000000000000000000000000000000000000000000111000000000000000000000000000000000000000000000000000000000000000000000000000000000000000000110000000100100000000000000000000000000000000000000000000010000000000000000000000000000000000000000000000000000000000000000000000000000000000000000000000000000000000000000000000000000100000000000000000000000001001000000000000000000000000000000000000000000000100000000000000000000000000000000000000000000000000000000000000000000000000000000000000000000000000000000000000000000000000010110000000000000000000000000010000000000000000000000000000000000000000000001000000000000000000011000000000000000000000000000000000000000000000000000000000000000000000000000000000000000000000000000000100110000000000000000000000000000000000000000000000000000000000000000000000000000000000000000000011000000000000000010000000000000000000000000000000000000000000000000000000000000000000000000000000000000110100000000000000000000001000000000110000000000000000000011000000000000000000000000000000110000010000000000000001010000000000000000000000000000000000000000000000000000000000000000000000000000000000000000000000000000000000110000100000001100000000000000000001100000000000000000000000000000001100000000000000000000100010000000000000000000000000000000000000000000000000000000000000000000000000000000000001010000000000000000001100000000000000000000000000000000101000000000000000000000000000000000000000000000000000000101000000000000000000000000000000000000000001100000000000000000000000000000000000000000001100000000000000000000000000000000000000000000000000010010000000000000000000000000000000000000000000000000000000000000000000000000000000000000000000000000100000000000000000000000000000000000000000000000000000000000000000000000000000000000000000000000000011000000000000000011000001110000000000000000000000000000000000000101000000000000000000000000000000000000000000000000000000000000000000000000000000000000000000000000000000000011000000000000000000000000000000000000000001000000000000000000000000000000000000000000000000000000000000000000000000000000000000000000000000000000000000000000000000000000000000000000000001100011100000110000000000000000000000000000000001000000011100000000000000000000000000000000000000000000100100000000000000000000000000000000110000000000000000000000000000000000000000000000000000000000011000111000000000000000000000000000000000000000101100001010000000000000000000000000001100000000010000001110000000000000000000000000000000000000010000000000000000011000000000000000000000000000000000000000000110000000000000000000000000000000000000001000100011000100000000000000000000000001100000011000000000000000000000000000000000000000000000001000000000000000001001000000000000000000000000000000000000000000000000000000000000000000000000000000000001000000110000000000000000000000000000100000000000000000000000000000000000000000000000000000001011000000000000000010010000000000000000000000000000000000000110000000000000000000000000000000000000000000001110000000000000000000000000000000001010000000000000111000000000000000000000000000000000000010100000110000000000011000000000000000000000110000000000000000010000000000000000000000000000000000000000000000000000000000000000000000000001100010100000000000000000000000000000000000000000000000000000000000000100000000000000000000000000000000000110000000000000011000000000000000000000000100000000000000000000000000000000001000000000000000011000000000000000000010100000000000000000000000000000000000000000000000000000000000000000000000000000000000110000000000000000000000000000000000000010100000000000000000000000000000000011000000000000000000000000000000000000010000000000000000000000000000000000000000000000000000000000000000000000000000000000000000000000000000000000000000000000000000001000000000000010000000000000000000010000000000000000000000000000000000000000000000000000000000000000000000000000000000000000000000000000000000000000000000000000000000000000000000000000000000000000010100000000000000100000000000000000000000000000000000000000000000000000000000000000000000000000000000000000000000000000000000000000000000000000000000000000000000000000000000000000000000000000000000000010000000000000000000000000000000000000000000000000000000000000000000000000000000000000000000000000000000000000000000000000000000000000000000000000110000000000000000000000001000000000000000000000000000000000000000000000000000000000000000000000000000000000000000000000000000000000000000000000000000000000000000000000000000000000000010000000000000000000000000000000000000000010000000000000000000000000000000000000000000000000000000000000000000000001000000000000000000000000000000000000000000000000000000000000000000000000000000000001100000000000000000000000000000000000000000000001000000000000000000000000000000000000000000000000010000000000000000011000000000000000000000000000000000000000000000000000000000000000000000000000000000010000000000000000000000000000000000000000000000100000000000000000000000000000111000000000000000001100000000000000000110000000000000000000000000000000000000000000000000000000000000000000000000000000000000000000000000000000000000000000000000000000000000000000000000000000000000001000000000000000000010000000000000000000000000000000000000000000000000000000000000000000000000000000000000000000000000000000000000000000000000000000000000000000000000000000000000000000000000000000000011100000000000000000000000000000000000000000000000000000000000000000000000000000000000000000000000000000000000000000000000000000000000000000000000000000000000000000000000000000000000000000000000000000000000000000000000000000000010100000000000000000000000000000001110000000000000000000000000000000000000000000000000000000000000000000000000000000000000000000000000000000000000000000000000000000000000000000000000000000000000000000101000000000000000000000000000000011100000000000000000000000000000000000000000000000000000000000000000000000000100000000000000000000000000000000100000000000000000000000000000000000000000000000000000000100000000000000000000000000000000000000000000000000000000000110000000000000000000000000000000000000000000000000000000000000000000000000000001001000000000000000000000000000000000000000000000000000000000000000000000000001000000000000000000000000010000000000000001110000001000000000000000000000000000000000000000000000000000000000000000000000010010000000000000000000000000000000000000000000000000000000000000000000000000011000000000000000000000000111000000000000000000000101000000000000000000000000000000000000000000000000000000000000000000000101000000000000000000000000000000000000000000000000000000000000000000000000000000000000000000000000000000100000000000000000000000100000000000000000000000000000000000000000000000000000000000000000000000000000000000000000000000000000000000010100000000000000000000000000000000000000000000000000000000000000000001000000000000000000000000000000000000000000000000000000000000000000000000000000000000000000000000000000000000000000000000000000000110000000000000000000000000000000000000000000000000000000000000000000000000000000000000000000000000000000000000000000000000000000000000000000000000000000000000000000000000010000000000000000000000000000100000000000000000000000000000000000000000000000000000000000000000000000000000000000001110000000000000000000000000000000000000000000000000000000000000000000000000000000000100001000000000000000001000000000011000000000000000000000000000000000000000000000000000000000000000000000000000000111110000000000000000000000000000000000000000000000000000000000000000000000000000000001000011000000000000001001000000000110000000000000000000000000000000000000000000000000000000000000000000000100000010000110000000000000000000000000000000000000000000000000000000000000000000000110000000000000010000000000000000000000000000000000000000000000000000000000000000000000000000000000000000000000000001000000011010000000000000000000000000000000000000000000000000010000000000000000000000000000000000000000000000000000101000000000000000000000000000000000000000000000000000000000000000000000000000000000000000000010000000000000000000000000000000000000000000000000001010000000000000000000000000000000000000000000000000000100000011000000000000000000000000000000000000000000000000000000000000000000000000000000011100000000000000000000000000000000000000000000011000000010110000000000000000000000000000000000000000000000000000000001110000000000000000000000000000000000000000000000000000000000000000000000000110000000000000000000000000000000000000000000000000001100000000010000000000000000000000000000010000000000000000000000000000001000000000000000000000000000000000000000000000000000000000000000000000000000000000000000000000000001000000000000000000000000000010000000000000000000000000000000000000000100000000000000000000000000000000000000000000000000000000000000000000000000000000000000000000000000000000111000000000000000000100011010000000000000000000000000000000000000000000100000000000000110000001000000000000000000000000000000000000000000000000000000000000000000000000000000000000000000000000000000000000000000010000000011100000110000000000000000000000000000000010000000110000000000000010000000000000000000000000000000000000000000000000000000000000000000000000000000000000000000000000000000000000000000000000000010000000000000011000000000000000000000000000000000101000000000000000000000011000000000000000000000000000000000100000000000000000000000000000000000000000000000000000000000000000000000000000000000000000000000000000000000000000000000000000000000000000000110000000000000000000000000000000000000000000000000000000011000000000000000000000000000000000000000000110000000000000000011000110000000000000000000000000000000000000000000000000000000000000000000000000000000000000000000000001010000000000000000000000000000000100000000000000000000000000000000000000000001010000000000000000011000000000000000000000000000000000000000000000000000000000000000000000011000000000000000000000000000100100000000000000000000000000000000000000000000000000000000000000000000000000011100000000000000001110000000000000000000000000000000000000000000000001000000000000000000000010000000000000000000000000000101000000000000000000000000000000000000000000000000000000000000000000000000000000000000000000000000000000000000000000000000000000000000000000000000000000000000000000000011100000000000000000000000000000000000000000000000000000000000000000000000000000000000000000000000000000000000000000000000000000000000000000000000000000000000000000000000000000000000000000000000000000000000000000000000000000000000100000000000000000000000000000000000000000000000000000000000000000000000000000000000000000000001100000000000000000000000111000000000000000000000000000110000000000000000000000000000000000000000000000001000001000000000000000000000000000000000000000000000000000000000000000000000000000000000000010101100000000000000000000000100000000000000000100000000000100000000000000000000000000000000000000000000000010000101000000000000000000000001100000000000000000000000000000000000000000000000000000000000100101000000000000000000000000000000000000000000000000000000000000000000000000000000000000000000000000000000000001001000000000000000000000000000000000000000000000001100000000000000000000000000000000001110000000001000000000000000000000000000000000000000000000000000000000000000000000000000000000000000000000000000001100000000000000000000000000000000000000000000000100000000000000000000000000000000000000000000000000000000000000000000000000000000000000000000000000000000000000000000000000000000000000000001000000000000000000000000000000000000000000000000000000000000100000000000000000000000000000000000000000000000100000000000000000000000000000000000000000000000000000000000000000000000000000000000000000000000000000000000000000000000000000000000000000000000000000001100000000000000000000000000000000000000000000000000000000000000000000000000000000000000000000000000000000000000000000000000000000000000000000000000000001100000000000000000000000000000000000000000000000000000000000000000000000000000000000000000000000000000000000000000000000000000000000000000000000000000000000000000000000000000000000000000000000000000100000000000000000000000000000000000000000000000000000000000000000000000000000000000000000000000000000000000000000000000000000000000000000000000000000000000000000000000000000000000000001000000000000000000000000000000000000000001010000000000000000000000000000000000000000000000000000000000000000000000000000000000000000000000000000000000000000000000000000000000000000000000000000000001100000000000000000000000000000000000000001111000000000000000000000000000000000000111000000000000000000000000000000000000000000000000111000000000000000000000000000000000000000000000000000000000000000000100000000000000000000000000000000000000100000000000000000010000000000000000000000000000000000000000000000101000000000000000000000000001100000000000000100000000000000000000011000000000000000000001010000000000000000000000001100000000000000010010000000000000001010000000000000000000000000000000000000000000010000000000000000000000000000000000000000000000100000000000000110000110000000000000000000000000000000000000000000000110000000000000001001000000000000000010100000000000000000000000000000000000000010000010000100000000000000000000011100000000000000001100000001100001100000000000000000000000000000000000000000000000000000000000000000000001100000000000000000010000000000000000000000000000000000000001010000000001000000000000000000000101000000000000000110000000000000000000000000000000000000000000000000001100000000000000000000000000000000000000000000000000000000000011000000000000000000000000000000000000000010010000000000000000000000000000000000000000000000000000000000000000000000000000000000000000000000100000000000000000000001100000000000000000000000000000000000110000000000000000000000000000000111000000010000000000000000000000000000000000000000000000000000000000000000000000000000000000000011100000110000000000000000000000011000000000000000000000000000000000000110000000000000000000000000000000000000000000000000000000000000000000000000000110000000000000000000000010000000000000000000000000000000000000000000000000000000000000000110000000000000000000000000000000000000000000000000000000000000000000000000000000000000000000000000000000000001100000000000000000000001010000000000000000000000010010000000000000000000000000000000000000000000000000000000000000000000000000000000000000000000000000000000000000000000000000000000000000000000000000000000000000000000000000000010000000000000000000000010000000000000000000000000000000000000000001110000000000000000000000000000000000000000000000000000000000000000000000000000000000000000000000000000000000000000000000000000000101000000000000000000000000000000000000000000000000000000000000000000000000000000000000000000000000000000000000000000000000000000000000000000000000000000000000000000000000000000000000000000000000000000000000000000000000000000000000000000000000000000000000000000000000001001000000000000000000000000000000000000000011000000000000000000000000000000000000000011000000000000000000000000000000000000000000000000000000000000000000000000000000000000000000000000000000000000000001000000000000000000000000000000000000000000000000000000000000000000000000000000000010000000000000000000000000000000000000000000000000000010000000000000000000000000000000000000000000000000000000000000110000000001000000000000000000000000000000000000000110000000000000000000000000000000000100000000000000000000000000000000000000000000000001010000000000000000000000000000000000000000000000000000000000001000000000110000000000000000000100000000000000000011000000000000000000000000000000001100000000000000000000000000000000000000000000000000101000000000000000000000000000000000000000000000000000000000000000000000001100000000000000000000100000000000000000000000000000000000000000000000000000000000000001100000000000000000000000000000000000011100000000000000000000000000000000000000000000000000000000000000000000000000000000000000000000111000000000000000000000000000000000000000000000000000000000000000011000000000000000010000000000000000000010000000000000000000000000000000000000000011000000000000000000000000000000000000000000000000000000000000000000000000000000000000000000000000000000000000000000000000000000110000000100000000000000000000000000000000000000000000000000000000000000000000000000000000000000000000000000000000000000000000000000000000000000000000000000000000000000000000000000101000000000000000010000000001100000000000000000000000000000000000000000000000000000000000000000000000000000000000000000000000000000000000000011000000000000000000000000000000000000000000000000000000011010000000000000000111000000000000000000000000000000000000000000000000000010000000000000000000000000001000000000000000000000000000000000000000100000000000000000000000000000000000000000000000000000000100101100000000000000100000000000000000000000000000000000000000000000000000101000000000000000000000000100100000000000000000000000000000000110000010000000000000000000000000000000000000000000000000000111000110000000000000000000000000000000000000000000000000000000000000000000001010000000000000000000000000101000000000000000000000000000000000000001100000000000000000000011000000000000000000000000000000000000000000000000000000000000000000000000000000000000000000000000000000000000000000000000000000000000000100000000000000000000000000000000000000001100000000000000000001000000000000000000000000000000000000000000000000000000000000000000000000000000000000000000000000110000000000000000000000000000000001100000000000000000000000000000000011100000000001100000000000000000000000000000000000001100000001000000000000000000000000000000000000000000000000000000000000000000000010000000000000000000000000000000011000000000000000000000000011000000111000011000100000000000000000000000000000000000000010000000101000000000000000000000000000000000000000000000000111000000000000000001100000000000000000000000000000000000000000000000000000000000110000000000000110000101000000000000000000000000000000000000000000010000000000000000000000000000000000000000000000000000000000000000000001011000000000000000000000000000000000000000000000000000000000000000000000000001100000100000000000000000000000000000000000000000000010100000000000000000000000000000000000000000000000000000000000000000010100000000000000000000000000000000000000000000000000000000000000000000000000000000000000000000000000000000000000111000000000000000000000000000000000000000000000000000000000000000000000000000000000000010000000000000000000000000000000000000000000000000000000000000000000000100000000000000000000000000000000000000001101000000000000000000000000000000000000000000000000110000000000001000000000000000000000000000000000000000000000000000000000000000000000000000000000000000000001000000000000000000000000000000000000000000010000000000000000000000000000000000000000000000010010000000000100100000000000000000000000000000000011000000000000000000000000000000000000000000000000000000000000000001000000000000000000000000000000011100000000000000000000000000000000000000000000000101000000000000101000000000000000000000000000000000000000000000000000000000000001110000000000000000000000000000000000101000000000000000000000000000000000000000000000000000000000000000000000000000000000100000000000000100000000000000000110000000000000000000000000000000000000000000000000000000000000000000000000000000000100000000000000000000000000000000000000000000000000000000000000000000000000000000000000000000000000000000000000000001100000000000000000000000000000000000000000000000000000000000000000000000000000000000000000000000000000000000000000000000000000000000000000000000000000000000000000000000000000000000000000000001110000000000000000000000000011110000000000000000000000000000000000000000000000000000000000000000000000000000000000000000000000000000000000000000000000000000000000000000000000000000000100000000000000000000000000000000000000000100100110000000000000000000000000000000000000000000000000000000000000000000000000000000000000000000000000110000000000000000000000000000000000000000000000000011000000000000000000000000000000000000000001001101100000000000000000000000000000000000000000000000000000000000000000000000000000000000000000000000001100000000000000000000000000000000000000000000000001100000000000000000000000000000000000000000010000100000001100000000000000000000000000000000000000000000000000000000000000000000000000000000000000000011000000000000000000000000000000000000000010000000000000000000000000000000000000000000000000000000000000000110000000000000000000000000000000000000000000000000000000000000000000000000000000000000000000000000000000000000000000000000000000000000101000000000000000000000000000000000000000000000000000000011100000000000000000000000000000000000000000000000000000000000000000000000000000000011100000000000000000000000000110000000000000000000000000000110000000000000000000000000000000000000000000000000000000000000000000000000000000001000000000001100000000000000000000000000000000001000000000001000000000000000000000000010100000000000000000000000000000000000000000000000000000000000001110000000000000000000000000000000000000000000000110000000000000000000000000000000000000000000000010000000001010000000000000000000000000010000000000000000000000000000000000000000000000000000000000000000000110000000000000000000000000000000000000000000000000000001110000000000000000000000000000000011100000000000000000000000000000000000000000000000000000000000000000000000000000000000000000000000000000000010100000100000000000000000000000000000000000000000000000001000000000000000000000000000000000000000000000000000000000000000000000000000000000000000000000000000000000000000000000000000000000000000000000111000001000000000000000000000000000000000000000000000000000000000000000000000000000000000000000000000000000000000000000000000000000000000000000000000000100000000000000000000000000000000000000000000000000001010000000000000000000000000000000000000000000000000000000000000010000000000000000000000000000000000000000000000000000000000000011000000000000000010000000000000000000000000000000000000000000011000000000000000000000000000000000000000000001000000000000000000000000011000000000000000000000000000000001100000000000000000000000000001110000000000000000101000000000000000000000000000000000000000000110000000000000000000110000000000000000000000000000000000000000000000001100000000000000000000000000000000100100000000000000000000000000010000000000000000011100000000000000000000000000000000000000000000000000000000000000000000000000000000000000000010000000000000000000000000000000001000000000000000000000000101000000000000001000000000000011000000000000000000000000000000000000000000000000000001000000000000000000010000000000000000000000000100000000000000000000000000000000000000000110000000000000000000000000100000000000000111000000000000000000000000000000000000000000000000000000000000000000101000000000000000001010000000000000000000000001000000000000000000000000000000000000000000110000000000000000000000000000000000001100010000000000000000000000000000000000000000000000000000000000000000001000000000000000000100000000000000000000000000010000000000000000000000000000000000000000000000000000000000000000000000000000000010010000000000000000000000000000000000000000000000000000000001000000000000000000000011000001001000000000000000000000000000000000000000000000000000000000000000000000000000000000000000000000000000000000011100000000000000000000000000000000000000000000000000000000100100000000000110000001001000001011000000000000000000000000000000000000000000000000000000000000000000000000000000000000000000000000000000000000000000000000000000000000111000000000000000000000000000000101001100000000000000001100110000100000000000000000000000000000000000000000000000000000000000000000000000000000000000000101000000000000000000000000000000000000000000110101000000000000000000000000000000100011000000000000000010001100000000000000000000000000000000000000000000000000000000000000000000000000000000000000000001000000000000000000000000000000000000000000001000010000000000000000000000000100000000000000000000000000000000000000000000000000100000000000000000000000000000000000000000000000000000000000000000000000011100110001100000000000000000000000000000000001101100000000000000000000000001010000000000000000000000000000000000000000000000101000000000000000000000010000000111000000000000000000000000000000000000000000001100100100000000000000110000000000000000000100000011000000000000000000010100000000000000000000001000000000000000000000001010000000000000000000001110000001010000000000000000000000000000000000000000000000000101000000001100011000000000000000000001010000000000000000000000000000000000000000000000000101000000000000000000000000000000000000000000000001011000100100000000000000000000000000000000000000000000000000100000000011000000000000000000000000001000000000000000000111000000000000000000000000000001010000000000000000000000000000000000000000000000010000001001000000000000000000000000000000000000000000000000000000001000000000000000000000000000000010000000000000000001110000000000000000000000000000001000000000000000000000000000000000000000000000000010100001010000000000000000000000000000000000000000000000000000001101000000000000000000000000000000000000000000000000000000000000000000000000000000000000000000000000000000000000000000000000000000000000010000001000000000000000000000000000000000000000001000000000000001010000000000000000000000000000000000000000000000000000000000000000000000000000000000000000000000000000000000110000000000000000000000000000000000000000000000000000000000000000010000000000000000000000001000000000000000000000000000000000000000000000000000000000000000000000000000000000010000000000000000000000001100000000000000000000000000000000000000000000000000000000000000000011000001101000000000000000000000000000000000011000000000000000000000000000000000000000000000000000000000000100000000000000000000000000000000000000000000000000000000000000000000000000000000000000000100000000000000000000000000000000000000000000000000000000000000000000000000000000000000000000000000000000000001000000000000000000000000000000000000000000000000000000000000000000000000000000111000000100100000000000010000000000000000000000000000000001110000000000000000000000000000000000000000000000000000000000000000000000000000000000000000000000000000000000000000000000000000000000000000001000000001010000000000000010000000000000000000000000000000000100000000000000000000000000000000000000000000000000000000000000000000000000000000000000000000000000000000000000000000000000000000110000000010100000000100000000000011000000000000000000000001000000000000000000000000000000000000000000000000000000000000000000000000000000000000000000000000000000100000000010000000000000000000000000010010000000000000000000000000000000000000000000000000000000011000000000000000000000000000000000000000000000000000000000000000000000000000000000000000110000000000011000000001010000000000000000000000000011000000000000000000001000000001100000000000000000000000001100000000000000000000000000000000000000000000000000000000000000000000000000000000000000001100000000000100000000000100000000000000000000000000000000000000000000001010000000000100000000000000000000000000000000000000000000000000000000000000000000000000000000000000000000000000000000000000000000000000000000000000000000000000000000000000000000001000000000000000000100000000010010000000000000000000000000000000000000000000000000000000000000000000000000000000000000000000000000000000000000000000000000000000000000000000000000000000000000000000000010000000000000000000110000000101000000000000000000000000000000000000000000000000000000000000101000000000000000000000000000000000000000000000000000000000000000000000000000001000000001100000000000000000100000000000000000000000000000100000000000000000000000000000000001100000000000000000000000001010000000000000000000000000000000000010000000000000000000000000000000000000000010000000000000000000000000000000000000000000000000000000000000000000000000000000000000000000011000000000000000000000000001000000000000000000000000000000000000100000000000000000000000000000000000000000000000000000000000000000000000000000000000000000000000000000000000100000000000000000000000000000000000000000000000000000000000000000000000000000000000000000001000100000000000000000000000000000000000000000000000000000000000000001100000000000000000000000000000000000000100000000000000000000000000000000000000000000000000000000000000000000000000000000000000000000001000000000000000000000000111000000000000000000000000000000000000100000000000000000000000000000000000010000000000000000000000000000000000000000000000000000000000000000000000000000000000000000000000000000000000000000000000000001110000000000000000000000000000000000000110000000000000000000000000000000000100000000000000000000000000000000000000000000000000000000000000000000000000000000000000000000000000000000000000000000000000000000000000000000000000000000000000000000000000000000000000000000000000000000000100000000000000000000000000000000000000000000000000000000000000000000000000000000000000011100000000000000000000000000000000000000000000000000000000000000000000000000110000000000000000000000000000000000000000000000000000000000001100000010000000000000000000000000000011100000000000000000000000000000000000000000000000000000000000000000000011000000000000000000000000001100000000000000000000000000000000000000000000000000000000000000000001010000000000000000000000011000111000000000000000000000000000000000000000000000000000000000000000000000110000111000000000000000000000000000000000000000000000000000000000000000000000000000000000000000100000000000000000000000000110000000000000000000000000000000000110000000000000000000000001000000000000000000000000000000000000000000000000000000000000000000000000000000000000000000000000000000000011101101000000000000000000000000000100000000000000000000000000000001010000000000000000000000110000000000000000000000000000000000000000000000000000000000000000000000000000000000000000000000000000000001101000000000000000000000000000000010100000000000000000000000000000001100000000000000000000000000000000000000000000000000000000000000000000000000000000000000000000000000000000000000000000000000000000000100000000000000000000000000000000101000000000000000000000000000000000000000000000000000000000000000000000000000000000000000000000000000000000000000000000000000000000000000000000000000000000000000000000000000000000000000000000000000000100000000000