P1
200 200
0000000000000000000000000000000000000000000000000000000000000000000000000000000000000000000000000000000000000000100000000000000000000000000000000000000000000000000000000000000000000000010000000000000000000000000000000000000000000000000000000000000000000000000000000000000000000000000000110110000000000000010000010100000000000000000000000000000000000000000000000000000000000000000000001010000000000000000000000000000000000000000000000000000000000000000000000000000000000000000000000000000000011000000000001010000100100000000000000000000000000000000000000000000000000000000000000000000011100000000000000000000000000000000000000000000000000000001000000000000000000000000000000000000000000010000001000000000011000000110000000000000000000000000000000000000000100001000000000000000000000000000000000000000000100000000000000000000000110000000000001100000000000000000000000000000000000000000000000011010000000000000000000000000000000000000000000000000000000000001000001100000000000000000000000000001000000000010100000000000000000000010010000000000011000000000000000000000000000000000000011000000000001000000000000000000000000000000000000000000000000000000000000010000011000000000000000000000000000100100000001000100000000000000000000010000000000000010000000000000000000000000000000000000110000000000000000000000000000000000000000011000000000000000000000000000000000000110000000000000000000000000000100011000001010000000000000000000000000000000000000000000000000000000000000000000000000000000000000000000000000000000000000000000001001000000000000000000000000000000000000000000000001100000000000000000010100000001000000000000000000000000000000000000000000000000000000000000000000000000000000000000000000000000000000000000000000000001110000000000000000000000000000000000000000000000011000000000000000000010000000000000000000000000000000000000000000000000000000000100000000000000000000000000000000000000000000000000000000000000000000001000000000000000000000000000000000000000000000000000000000000000000000000000000000000000000000000000000000000000000000000000000001000000000000000000000000000000000000000000000000000000000000000000000000000000000000000000000000000000000000000000000000000000000000000000000000000000000000000000000000000000000000000000000000000000000000000000000000000000000000000000000000000000000000000000000000000000000000000000000000000000000000000000000000000000000000000000000000000000000000000000000000000000000000000000000000000000000000000000000000000000000000000000000000000000000000000000000000000000000000000000000000000000000000000000000000000000000000000000000000000000000000000000000000000000000000000000000000000000000000000000000000000000000000000000000000000000000000000000000000000000000000000000000000000000000000000000000000000000000000000000000000000000000000000000000000000000000000000000000000000000000000000000000000000000000000110000000000000000000000000000000000000000000000000000000000000000000000000000000000000000000000000000000000000000000000000000000000000000000000000000000000000000000000000000000000000000000000000000010010000000000000000000000100000000000000000000000000000000000000000000000000000000000000000000000000000000000000000000000000000000000000000000000000000000000000000000000000000000000000000000000000000101000000000000000000000110110000000000000000000000000000000000000000000000000000000000000000000000000000000000000000010100000000000111100000000000000000000000000000000000000000000000000000000000000000100000000000000000000000010000000000000000000000000000000000000000000000000000000000000000000000000000000000000000001001000000000010110100000000000000000000000000000000000000000000000000000000000000000000000000000000000000000000000000000000000000000000000000000000000000000000000000000000000000000000000000000000000010010000000000100000100000000000000000000000000000000000000000000000000000000000000000000000000000000000000000000000000000000000000000000000000000000000000000000000000000000000000000000000000000000000011000000000000111001000000000000000000000000000000000000000000000000000000000000000000000000000000000000000000000000000000000000000000000000000000000000000000000000000000000000000000000000000000000000011110000000000100010000000000000000000000000000000000000000000000000000000000000000000000000000000000000000000000000000000000000000000000000000000000000000000000000000000000000000000000000000000100000011100000000000011000000000000000000000000000000100000000000000000000000000000000000000000000000000000000000000000000000000000000000000000000000000000000000000000000000000000000000000000000000010100001100100000000000000000000000000000000000000000010100000000000000000000000000000000000000000000000000000000000000000000000000000000000000000000000000000000000000000000000000000000000000000000000000100000010000000000000000000000000000000000000000000000100000000000110000000000000000000000000000000000000000000000000000000000000000000000000000000000000000000000000000000000000000000000000000000001001001001100000000000000000000000000000000000000000000000000000000010010000000000000000000000000000000000000000000000000000000000000000000000000000000000000000000000000000000000000000000000000000000001000001010000000000000000000010000000000000000000001100000000000000100100000000000000000000000000000000000000000000000111000000000000000000000000000000000000000000000000000000000001000000000000000000011011000000000000000000000001010000000000000000000001010000000000000110000000000000000000000000000000000000000000000001110000000000000000000000000000000000000000000000000000000000101000000000000000000010100000000000000000000000010100000000000000000000100000000000000000000000000000000000000000000000000000000001000000100000000000000000000000000000001000000000000000000000000000001010000000000000000000010000000000000000000000000010000000000000000000001100000000000110000000000000000000000000000000000000000000101000001011000000000000000000000000000101000000000000000000000000000001000000000000000000000000000000000000000000000000000000000000000000000100100000000001100000000000000000000000000000000000000000010010000001110000000000000000000000000001010000000000000000000000000000011000000000000000000000011100000000000000000000000000000000000000000001001000000000000000000000011000000000000000000000000000000011000000000000000000000000000000000000001000000000000000000000000000011110000000000000000000000101000000000000000000000000000000000000000000001100000000000000000000001001000000000000000000000000000000000000000000000000000000000000000000000000000000000000000000000000011000010000011000000000000001110000000000000000000000000000010000000000000000000000000000000000000010100000000000000000000000000000000000000000000000011000000000010000000000000000000000000000000000000000011011100110000000000000000000000000000000000000000000001010000000000000000000000000000000000000010000000000000000000000000000000000000000000000001001000001000101100000000000000000000000000000000001110000111001010000000000000000000000000000000000000000000010010000000000000000000000000000000000000000000000000000000000000000000000000000000000000001100000010001000000000000000000000000000000000000000000000110011100000000000000000000000000000000000000000000011000000000000000000000000000000000000000000000000000000000000000000000000000000000000000000000000100100000000000000000000000000000000000000000011000110110100000000000000000000000000000000000000000000000000000000000000000000000000000000000000011000000000000000000000111000000000000000000000000000000001100000000000000000000000000000000000000001001000101001000000000000000000010000000000000000000000000000000000000000000000000000000000000000000110000000000000000000000000000000000000000000000000000000110000000000000000000000000000000000000000010011000000100000000000000000000100000000000000000000000000000000000000000000000000000000000000000000000000000000000000000000000000000000000000000000000000000000000000000000000000000000000000000000001001100000000000000000000000000001000000000000000100000000000000000000000000000000000000000010000000000000000000000000000000000000000000000000000000000000000000000000000000000000000000000000000000000011110000000000000000011100000000000000000000000011100000000000000000000000000000000000000001010000000000000000000000000000000000000000000000000000000000000000000000000000000000000000000000000000000000000000000000000000000101000000000000000000000001100100000000000000000000000000000000000000010010000000000000000000000000000000000000000000000000000000000000000000000000000000000000000000000000000000000000000000000000000110010000000000000000000000000111000000000000000000000000000000000011000011000000000000000000000000000000000000000000000000000000001110000000000000000000000000000000000000000000000000000000000000000001000000000000000000000000000000000000000000000000000000000000000000110000000000000000000000000000000000000000000000000000000000000000000000000000000000000000000000000000000000000000000000000000000000011100000000000000000000000000000000000000000000000000110110000000000000000000000000000000000000000000000000000000000000000000000000000000000000000000000000000000000000000000000000000000000000000000000000000000000000000000000000000000000000000000000000001011100000000000000000000000000000000000000000000000000000000000000000000000000000000000000000000000000000000000000000000000000000000000000000000000000000000000000000000000000000000000000000000000000001110000000000000000000000000010100000000000000000000000000000000000000000000000000000000000000000000000000000000000000000000000010000000000000000000000000000000000000000000000000000000000000000000000000000000000000000000000000001000100000000000000000000000000000000000000000000000000000000000000000000000000000000000000000000000100000000000000000000000000000000000000000000000000000000000000000000000000111000000000000000000000001000100000000000000000000000000000000000000000001110000000000000000000100000000000000000000000000000000000000000000000000000000000000000000000000000000000000000000000000000010101100000000000000000000001010000000000000000000000000000000000000000000000000000000000000000010100000000000000001000000000000000000000000000000000000000000000000000000000000000000000000000000000001100011000000000000000000000000000000000000000000000000000000000000000000000000000000000000000000100100000000000000111000000000000000000000000000000000000000000000000000000000000000000000000000000000001011000000000000000000000000000000000110000000000000000000000000000000000000000000000000000110000110000000000000010001000000000000000000000000000000000000000000000000000000000000000000000000000000000000100000000000000000000110000000000001100000000000000000001010000000000000000000000000000001100000000000000000000110110000000000000000000000000000000000000000000000000000000000000000000000000000000000011010000000000000000001100000000000000000000000000000000010100000000000000000000000000000000000000000000000000000000000000000000000000000000000000000000000000000000000000000000000000000000000000000000001100000000000000000000000000000000000000000000000000000001000000000000000000000010000000000000000000000000000000000000000000000000000000000000000000000000000000000000000000000000000000000000000000000000000000000000000000000000000000000000000000000000000011100000000000000000000000100000000000000000000000000000000000000000000000000000000000000000000000000000000000000000000000000000000000000000000000000000000000000000000110000011000000000000000000000000000000000010000010100000001000000000000000000000000000000000000001100000000000000000000000000000000000000000000000000000000000000000000000000000000000000000000001100001010000110000000000000000000000000000000001100001000000000000000000000000000000011000000000000000101100000000000000000000000000000000000000000000000000000000000000000000000000000000000000000000011000011100000000000000000000000000000000000000101100010001000000000000000000000000001001000000000000001000000000000000000000000000000000000000100000000000000000011000000000000000000000000000000000000000000000000000000000000000000000000000000000000000000100010000000000000000000000000110110000000000000010100000000000000000000000000000000000001000000000000000001001000000000000000000000000000000000000000000000000000000000000000000000000000000000000011100110000000000000000000000000000001000000000000000100000000000000000000000000000000000000100000000000000000010010000000000000000000011100000000000000000000000000000000000000000000000000000000000001010000000000000000000000000000000010100000000000000101100000000000000000000000000000000000000000000110000000000011000000000000000000000101000000000000000000000000000000000000000000000000000000000000011000000000000000000000000000001100010000000000000010001000000000000000000000000000000000000000000001100000000000000000000000000000000001001000000000000000000000000000000000000000000000000000000000000000000000000001100000000000000011000000000000000000010100000000000000000000000000000000000000000000000000000000000000000000000000000000001010000000000000000000000000000000000000001000000000000000000000000000000000100100000000000000000000000000000000000010000000000000000000000000000000000000000000000000000000000000000000000000000000000011100000000000000000000000000000000000001100000000000000000000000000000000000110000000000000000000000000000000000000000000000000000000000000000000000000000000000000000000000000000000000000000000000000000000000000000000000000000000000000000010000000000000000000000000000000000000000000000000000000000000000000000000000000000000000000000000000000000000000000000000000000000000000000000000000000000000000000000000000000000000000000000000000000111000000000000000000000000000000000000000000000000000000000000000000000000000000000000000000000000000000000000000000000000000000000000000000000000000000000000000000000000000000000000000000000000000000000000000000000000000000000000000000000000000000000000000000000000000000000000000000000000000000000000000000000000000000000000000110000000000000000000000000000000000000000000000000000000000000000000000000000000000000000000000000000000000000000000000000000000000000000000000000000000000000000000000000000000000000000000000000000010010000000000000000000000000000000000000000000000000000000000000000000000000011000000000000000000110000000000000000110000000000000000000000000000000000000000000000000000000000000000000000000000000000011000000000000000000000000000000000000000000000000000000000000000000000000001010000000000000000010010000000000000000000000000000000000000000000000000000000000000000000000000000000000000000000000000000000000000000000000000000000000000000000000000000000000000000000000000000000010000000000000000000011000000000000000000000000000000000000000000000000000000000000000000000000000000000000000000000000000000000000000000000000000000000000000000000000000000000000000000000000000000000101000000000000000000000000000000000000000000000000000000000000010000000000000000000000000000000000000000000000000000000000000000000000000000000000000000000000000000000000000000000000000000000000000000110000000000000000000000000000000000000000000000000000000000001010000000000000000000000000000000000000000000000000000000000000000000000000000000000000000000000000000000000000000000000000000000000000000000000000000000000000000000000000000000000000000000000000000010100000000000000000000000000000000000000000000000000000000000000000000000000000000000000000000000000000000001100000000000000000000000000000000000000000000000000000000000000000000000000000000000000000010000000000000000000000000000000000000000000000000000000000000000000000000000000000000000000000000000000000110100000000000000000000000000000000000000000000000000000000000000000000000001100000000000000000000000011000000000000000100000001000000000000000000000000000000000000000000000000000000000000000000000010000000000000000000000000000000000000000000000000000000000000000000000000000011000000000000000000000001101000000000000001000000101000000000000000000000000000000000000000000000000000000000000000000000110000000000000000000000000000000000000000000000000000000000000000000000000000000000000000000000000000011010000000000000000000000100000000000000000000000000000000000000000000000000000000000000000000000100000000000000000000000000000000000010000000000000000000000000000000000000000000000000000000000000000001000000000000000000000000000000000000000000000000000000000000000000000000000000000000000000000000000000000000000000000000000000000001000000000000000000000000000000000000000000000000000000000000000000000000000000000000000000000000000000000000000000000000000000000000000000000000000000000000000000000000000000000000000000000000000000011100000000000000000000000000000000000000000000000000000000000000000000000000000000000010000000000000000000000000000000000000000000000000000000000000000000000000000000000001110001100000000000000000000000000011000000000000000000000000000000000000000000000000000000000000000000000000000001100011000000000000000000000000000000000000000000000000000000000000000000000000000000000000100100000000000000000000000000110000000000000000000000000000000000000000000000000000000000000000000000000000110000010000000000000000000000000000000000000000000000000000000000000000000000000000000000000110000000000000001000000000000000000000000000000000000000000000000000000000000000000000000000000000000000000111100000000000000000000000000000000000000000000000000011000000000000000000000000000000000000000000000000000010000000000000000000000000000000000000000000000000000000000000000000000000000000000000000111100100000000000000000000000000000000000000001000000001010000000000000000000000000000000000000000000000000000100000110000000000000000000000000000000000000000000000000000000000000000000000000000000001000110000000000000000000000000000000000000000101000000010010000000000000000000000000000000000000000000000000000000010010000000000000000000000000000000000000000000000000000000000000000000000000000000010000000000000000000000000000000000000000000010010000000011000000000000000000000000000000000000000000000000000000000100100000000000000000000000000000000000000000000000000000000000000000000000000000000000000000000010000001100000000000000000000000011000000000010000000000000000000000000001110000000000000000000000000000110000000000000000000000000000000000000000000000000000000000000000000000000000000000000000000000100000011000000000000000000000000000000000000000000000000000000000000000000000000000000000000000000000000000000000000000000000000000000000000000000000000000000000000000000000000000000000000000000000010100001001000000000000000000000000000000001000000000000000000000011000000000000000000000000000000000000000000000000000000000000000000000000000000000000000000000000000000000000000000000000000000000000010000011100000000000000000000000000000000101000000000000000000000000000000000000000000000000000000001100000000000000000000000000000000000000000000000000000000000000000000000000000000000000000000000000100000111000000000000000000000000000000000110000000000000000000000001000000000000000000000000000000100100000000000000000000000000000000000000000110000000000000000011100000000000000000000000000000000000000000000000000000000000000000000000000000000000000000000000000010010000000000000000000000000000000110000000000000000000000000000000000000000010010000000000000000101000000000000000000000000000000000000000000000000000000000000000000000011000000000000000000000000000100010000000000000000000000000000000000000000000000000000000000000000000000000010100000000000000001110000000000000000000000000000000000000000000000000000000000000000000001001000000000000000000000000000101000000000000000000000000000000000000000000000000000000000000000000000000000010000000000000000000000000000000000000000100000000000000000000000000000000000000000000000010010000000000000000000000000001100000000000000000000000000000000000000000000000000000000000000000000000000000000000000000000011000000000000000000000001000000000000000000000000000000000000000000000000101000000000000000000000000000000000000000000000000000000000000000000000000000000000000000000000000000000000000000000000000010001000000000000000000000101000000000000000000000000000110000000000000000000000000000000000000000000000011100001000000000000000000000000000000000000000000000000000000000000000000000000000000000000011000010000000000000000000000100000000000000000000000000001100000000000000000000000000000000000000000000000000000101000000000000000000000000000000000000000000000000000000000000000000000000000000000001000111000000000000000000000001000000000000000000000000000000000000000000000000000000000000000000000000000000000001001000000000000000000000000000000000000000000000001000000000000000000000000000000000010010000000000000000000000000000000000000000000000000000000000000000000000000000000000000000000000000000000000000001100000000000000000000000000000000000000000000000101000000000000000000000000000000000011100000000000000000000000000000000000000000000000000000000000000000000000000000000000000000000000000000000000000000000000000000000000000000000000000000000000000011011000000000000000000000000000000000010000000000000000000000000000000000000000000000000000000000000000000000000000000000000000000000000000000000000000000000000000000000000000000000000000000000000000001000000000000000000000000000000000000000000000000000000000000000000000000000000000000000000000000000000000000000000000000000000000000000000000000000000000000000000000000000000000000000000000000000000000000000000000000000000000000000000000000000000000000000000000000000000000000000000000000000000000000000000000000000000000000000000000000000000000000000000000000000000000000000000000000000000000000000000000000000000000000000000000000000000000000000000000000000000000000000000000000000000000000000000000000000000000000000000000000000000101000000000000000000000000000000000000000000100000000000000000000000000000000000001000000000000000000000000000000000000000000000000000000000000000000000000000000000000000000000000000000000000000000001001000000000000000000000000000000000000000000000000000000000000000000000000000000010000000000000000000000000000000000000000000000000111000000000000000000000000000000000000000000000000000000000000000010100000000000000000000100000000000000000010110000000000000010000000000000000000000100000000000000000000000000000000000000000000000001111100000000000000011000000000000000000011000000000000000000000000000000000000000000000010100000000000000110010000000000000001010000000000000000000000000000000000000000000011100000000000000000000000000101100000000000000110000000000000110000110000000000000000000000000000000000000000000000101000000000000001001000000000000000010100000000000000000000000000000000000000010000000001100000000000000000000000110000000000000000010000000000001100000000000000000000000000000000000000000000000000000100000000000000001100000000000000000010000000000000000000000000000000000000001010000000011000000000000000000000000000000000000000011000000000000000000000000000000000000000000000000000000000000000000000000000000000000000000000000000000000000000000000000000000000000000000000000100010000000110000000000000000000000000000000000000000110000000000000000000000000000000000000000000100000000000000000000000000000001100000000000000000000000000000000000000000000000000000000000000000000101000000000000000000000000000000000000000000000000000000000000000000000000000000000000000000000011100000000000000000000000000000011000000000000000000000000000000000000110000000000000000000000000000000100000000000000000000000000000000000000000000110000000000000000000000011000000000000000000000000111000000000000000000000000000000000000000000000000000000000000000000000000000000000000000000000000000000000000000000000000000000000000000000000000001100000000000000000000001001000000000000000000000000000000000000000000000000000000000000000000010000000000000000000000000000000000000000000000000000000000000000000000000000000000000000000000000000000000000000000000000000000001010000000000000000000000000000000000000000000000000000000000000000001110000000000000000000000000000000000000000000000000000000000000000000000000000000000000000000000000000000000000000000000000000000001000000000000000000000000000000000000000000000000000000000000000000000100000000000000000000000000000000000000000000000000000000000000000000000000000000000000000000000000000000000000000000000000000000000000000000000000000000000000000000000000000000000000000000000000001000000000000000000000000000000000000000000000000000000000000000000000000000000000000000000000000000000000000000000000000000000000000000000000000000000000000000000000000000000000000000000000000000000011100000000000000000000000000000000000000000000000010000000000000000000000000000000001100000000000000000000000000000000000000000000000000010000000000000000000000000000000000000000000000000000000000000001000000000000000000000000000000000000000000000001010000000000000000000000000000000011000000000000000000000000000000000000000000000000001010000000000000000000000000000000000000000000000000000000000000000000000011000000000000000000000000000000000000010100000000000000000000000000000000000000000000000000000000000000000000000000000000001101000000000000000000000000000000000000000000000000000000000000000000000000000000000000000000001000000000000000000010000000000000000000000000000000000000000000001100000000000000000000000000000000000100100000000000000000000000000000000000000000000000000000000000000000000000000000000000000000000001100000000000000000000000000000000000000000000000000000000000000011000000000000000010000000000000000001001000000000000000000000000000000000000000000000000000000000000000000000000000000000000000000000110000000000000000000000000000000000000000000000000000010000000000000000000000000001010000000000000000001100000000000000000000000000000000000000000000000000000000000000000000000000000000000000000000000000000000000000000000000000000000000000000000000000001111000000000000000111000000010100000000000000000000000000000000000000000000000000000000000000000000000000000000000000000000000000000000000000011000000000000000000000000000000000000000000000000000000110001000000000000001100000000010000000000000000000000000000000000000000000000000000000000000000000000001000000000000000000000000000000000000000100000000000000000000000000000000000000000000000000000001011000000000000000011010000000000000000000000000000000000000000000000000000000000000000000000000000000101000000000000000000000000000000000000001110000000000000000000000000000000000000000000000000000100111101000000000000001000000000000000000000000000000000000000000000000000000000000000000000000000000001000000000000000000000000000000000000000001100000000000000000000000000000000000000000000000000000110001100000000000000000000000000000000000000000000000000000000000000000000000000000000000000000000000001000000000000000000000000000000100000000001000000000000000000000000000000000000000000000000000000000000000000000000000000000000000000000000000000000000000000000010000000000000000000000000000000001100000000000000000000000000000000010100000000000000000000000000000000000000000000000001100000011000000000000000000000000000000000000000000000000001000000000000000001010000000000000000000000000000000011000000000000000000000000011000000101000011000001000000000000000000000000000000000000011000001001000000000000000000000000000000000000000000000000010000000000000000000000000000000000000000000000000000000000000000000000000000000110000000100001001000001000000000000000000000000000000000000000000010100000000000000000000000000000000000000000000000000100000000000000000001000000000000000000000000000000000000000000000000000000000000000000000000001100001100000000000000000000000000001000000000000000010000000000000000000000000000000000000000000000000000000000000000000010000000000000000000000000000000000000000000000000000000000000000000000000000000000000000000000000000000000000001101000000000000000000000000000000000000000000000000000000000000000000000000000000000000011000000000000000000000000000000000000000000000000000000000000000000000000000000000000000000000000000000000000011010100000000000000000000000000000000000000000000000110000000000001000000000000000000000000000000000000000000000000000000000000000000000000000000000000000000000000000000000000000000000000000000000000000001100000000000000000000000000000000000000000000010010000000000101000000000000000000000000000000000000000000000000000000000000000010000000000000000000000000000000000001000000000000000000000000000000010010000000000000000000000000000000000000000000000101000000000001000000000000000000000000000000000000000000000000000000000000000000100000000000000000000000000000000000101000000000000000000000000000000111000000000000000000000000000000000000000000000000100000000000001000000000000000000110000000000000000000000000000000000000000000001000000000000000000000000000000000000100000000000000000000000000000000000000000000000000000000000000000000000000000000000000000000000000000000000010000001100000000000000000000000000000000000000000000000000000000000000000000000000000000000000000000000000000000000000000000000000000000000000000000000000000000000000000000000000000000000000000000000100000000000000000000000001010000000000000000000000000000000000000000000000000000000000000000000000000000000000000000000000000000000000000000000000000000000000000000000000000000000001100000000000000001000000000000000000000000100011110000000000000000000000000000000000000000000000000000000000000000000000000000000000000000000000000110000000000000000000000000000000000000000000000000100100000000000000000000000000000000000000010000111100000100000000000000000000000000000000000000000000000000000000000000000000000000000000000000000010010000000000000000000000000000000000000000000000001010000000000000000000000000000000000000000010000000000010100000000000000000000000000000000000000000000000000000000000000000000000000000000000000000011000000000000000000000000000000000000000001000000001000000000000000000000000000000000000000000000010100000101000000000000000000000000000000000000000000000000000000000000000000000000000110000000000000000000000000000000000000000000000000000000101000000000000000000000000000000000000000000000000000000010000000100000000000000000000000000000000000000000000000000000000000000000000000000010010000000000000000000000000110000000000000000000000000000110000000000000000000000000000000010000000000000000000000000000000000000000000000011000000000000000000000000000000000000000000000001000000000100100000000000000000000000010100000000000000000000000000000000000000000000000000000000000000100000000000000000000000000000000000000000000000110000000000000000000000000000000000000000000000101000000000110000000000000000000000000010000000000000000000000000000000000000000000000000000000000000001000110000000000000000000000000000000000000000000000000000011000000000000000000000000000000000010010000000000000000000000000000000000000000000000000000000000000000000000000000000000000000000000000000000010010000000000000000000000000000000000000000000000000000010100000000000000000000000000000000011000000000000000000000000000000000000000000000000000000000000000000000000000000000000000000000000000000000101000000000000000000000000000000000000000000000000000000010000000000000000000000000000000000000000000000000000000000000000000000000000000000000000000000000000000000000000000000000000000000000000000000100000000000000000000000000000000000000000000000000000000000000000000000000000000000000000000000000000000000000000000000000000000000000000000000000000000000000000000000000000000000000000000000000011000000000000000000000000000000000000000000000000000000000000000000000001100000000000000000000000000000001100000000000000000000000000011000000000000000001010000000000000000000000000000000000000000000110000000000000000000000000000000000000000000000000000000000000000000001010000000000000000000000000000000100100000000000000100000000000110000000000000000100010000000000000000000000000000000000000000000000000000000000000000000000000000000000000000000000000000000000000000001000000011000000000000000000000000101000000000000000110000000000000000000000000000101000000000000000000000000000000000000000000000000000000110000000000000000000000000000000000000000000000000000000000000000001001000000000000000000000000100000000000111001100000000000000000000000000000100000000000000000000000000000000000000000000000000000001100000000000000000000000011100000000000000000000000000000000000000001110000000000000000000000000000000000001100011000000000000000000000000000000000000000000000000000000000000000000000000000000000000000000000000000000000000000000000000000000000000000000000000000000000011000000000000000000000000000000000000010000000000000000000000000000000000000000000000000000000000001000000000000000000000011110000000000000000000000000000000000000000000000000000000000000000000000000000000000000000000000000000000000000000110100000000000000000000000000000000000000000000000000000000101000000000000000000001011110000011100000000000000000000000000000000000000000000000000000000000000000000000000000000000000000000000000000000111000000000000000000000011001100000000000000000000000000001000001100000000000000110100010000110000000000000000000000000000000000000000000000000000000000000000000000000000000000000110000000000000000000100000000000000000000001100001100000000000000000000000000001000011000000000000000010110000001000000000000000000000000000000000000000000000000000000000000000000000000000000000000010010000000000000000000000000000000000000000001100011000000000000000000000000000000000000000000000000000001000000000000000000000000000000000000000000011100000011100000000000000000000000000000000000000100100110001100000000000000010000000000000000000000000000000000000000000000000000000000000000000000000000000000000000000000000000000000000000000000000101000000111000000000000000000000000000000000000000110001100100100000000000001010000000000000000001010000000000000000000000000000000000000000000000000001000000000000000000000000000000000000000000000001000100010001000000000000000000000000000000000000000000000000101000000001100010100000000000000000011010000000000000000001000000000000000000000000000000101000000000000000000000000000000000000000000000000101000000000000000000000000000000000000000000000000000000000100001000011000010000000000000000000100100000000000000000101000000000000000000000000000001010000000000000000000000000000000000000000000000000001001000100000000000000000000000000000000000000000000000000000011000000000000000000000000000000110000000000000000001010000000000000000000000000000001000000000000000000000000000000000000000000000000010100001110000000000000000000000000000000000000000000000000000001001000000000000000000000000000000000000000000000000001000000000000000000000000000000000000000000000000000000000000000000000000000000000101000011100000000000000000000000000000000000000000000000000000001010000000000000000000000000000000000000000000000000000000000000000000000000000000000000000000000000000000000110000000000000000000000000000000000000000000000000000000000000000000000000111000000000000011000000000000000000000000000000000000000000000000000000000000000000000000000000000000000000000000000000000001100000000000000000000000000000000000000000000000000000000000000000000000000000000000000000000000000000000000000000000000000000000000000000000000000000000000000000000000000001110000000000000000000000000000000000000000000000000000000000000000000000000000011000000000000000000000000000000000000000000000000000000000010100000000000000000000000000000000000000000000000000000000000000000000000000000000000000000000000000000000000000000000000000000000000000001001000000001100000000000000000000000000000000000000000000001001000000000000000000000000000000000000000000000000000000000000000000000000000000000000000000000000000000000000000000000000000000000000000010010000000101000000000000000000000000000000000000000000000001010000000000000000000000000000000000000000000000000000000000000000000000000000000000000000000000000000000000000000000000000000000110000000011000000000100000000000000000000000000000000000001100000000000000000000000000000000000000000000000000000000000000000000000000000000000000000000000000001100000000000000000000000000000000000010010000000000000000000000000000000000000000000000000000000100100000000000000000000000000000000000000000000000000000000000000000000000000000000000000110000000000100100000000000000000000000000000000000100100000000000000000000000000000100000000000000000000000001110000000000000000000000000000000000000000000000000000000000000000000000000000000000000001100000000000110000000000000000000000000000000000001110000000000000000000000000000010100000000000000000000000001100000000000000000000000000000000000000000000000000000000000000000000000000000000000000000000000000000000000000000000000000000000000000000010100000000000000000000000000001010000000000000000000000000000000000000000000000000000000000000000000000000000000000000000000000000000000000000000000000000000000000000000000000000000000000000000000000110000000000000000000000000000101000000000000000000000000000000000000000000000000000000000000000000000000000000000000000000000000000000000000000000000000000000000000000000000000000000000000000000000000000000000000000000000000000000100000000000000000000000000000000001100000000000000000000000000000000000000000000000000000000000000000000000000000000000000000000000000000000000000000000000000000000000000000000000000000000000000000000000000000000000000000000000000000011000000000000000000000000000000000000000000000000000000000000001110000000000000000000000000000000000000000000000000000000000000000000000000000000000000000000000000000000000000000000000000000000000000000000000000000000000000000000000000000000000000000000000000000000000000000000000000000000000001000000000000000000000000000000000000000000000000000000000000000000000000000000000000000000000000000000000000000000000000000000000000000000000000000000000000000000000000000000000000000000000000000000101000000000000000000000000000000000000000000000000000000000000000000000000000000000000000000000000000000000000000000000000000000000000000000000000000000000000000000000000000000000000000000000000000001010000000000000000000000000000000000000000000000000000000000000000000000000000000000000000000000000000000000000000000000000000000000000000000000000000000000000000000000100000000000000000000000000000001000000000000000000000000000000000000000000000000000000000000000000000000000000000000000000000000000000000000000000000000000000000000000000000000100000000000000000000001000000000000000000000000000000000000000000000000000000000000000000000000000110000000000000000000000000000000000000000000000000000000000000000001010000000000000000000000000000110100000000000000000000010000000000000000000000000000000000000000000000011000001000000000000000000001100000000000000000000000000000000000000000000000000000000000000011110010000000000000000000000011000001000000000000000000000000000000000000000000000000000000000000000000000110000010000000000000000000000000000000000000000000000000000000000000000000000000000000000011111001000000000000000000000000110100010000000000000000000000000000110000000000000000000000011000000000000000000000100000000000000000000000000000000000000000000000000000000000000000000000000000000000100000100000000000000000000000000001001000000000000000000000000000001010000000000000000000000110000000000000000000000000000000000000000000000000000000000000000000000000000000000000000000000000000000001001110000000000000000000000000000010110000000000000000000000000000001100000000000000000000000000000000000000000000000000000000000000000000000000000000000000000000000000000000000000000000000000000000001110000000000000000000000000000000101000000000000000000000000000000000000000000000000000000000000000000000000000000000000000000000000000000000000000000000000000000000000000000000000000000000000000000001000000000000000000000000000000000100000000000