P1
200 200
0000000000000000000000000000000000000000000000000000000000000000000000000000000000000000000000000000000000000000100000000000000000000000000000000000000000000000000000000000000000000000010000000000000000000000000000000000000000000000000000000000000000000000000000000000000000000000000000000000000000000000010000010100000000000000000000000000000000000000000000000000000000000000000000001010000000000000000000000000000000000000000000000000000000000000000000000000000000000000000000000000000000000000000000001010000100100000000100000000000000000000000000000000000000000000000000000000000010100000000000000000000000000000000000000000000000000000000000000000000000000000000000000000000000000000000000000000000011000000110000000010100000000000000000000000000000000000100000000000000000000000010000000000000000000000000000000000000000000000000000000000000000000000000000000000000000000000000000000000000000000000000000000000000000101000000000000000000000000000011100010100000000000000000000000000011100000000000000000000000000000000000000000000000000000000000000000000000000000000000000011000000000000000000000000000000000000000000100000000000000000000000000000000000100100000000000000000000000000000000000000000000000000000000000000000000000000000000000000000000000000000000000000000000110000000000000000000000000000000000000000000000000000000000000000000000000000000110000000000000000000000000000000000000000000000000000000000000000000000000000000000000000000000000000000000000000000000000000000000000000000000000000000000001100000001100000000000000000000000000000000000000000001100000000000000000000000000000000000000000000000000000000000000000000000000000000000000000000000000000000000000000000000000000000000000000000000100100000100100000000000000000000000000000000000000000011000000000000000000001110000000010000000000000000000000000000000000000000000000000000000000000000000000000000000000000000000000000000000000000000110000000110000000000000000000000000000000000000000000000000000000000000000010010000001100000000000000000000000000000000000000000000000000000000000000000000000000000000000000000000000000000000000000000000000000000000000000000000000000000000000000000000000000000000000000000001100100000000100011000000000000000000000000000000000000000000000000000000000000000000000000000000000000000000000000000000000000000100000000000000000000000000000000000000000000000000000000000000000000000001100000001000110000000000000000000000000000000000000000000000000000000000000000000000100000000000000000000000000000000000000010100000000000000000000000000000000000000000000000000000000000000000000000000000000000000000000000000000000000000000000000000000000000000000000000000000000000001000000000000000000000000000000000000000101000000000000000000000000000000000000000000000000000000011000000000000000000000011011000000000000000000000000000000000000000000000000110000000000000000000000010000000000000000000000000000000000000000100000000000000000000000000000000000000000000000000000001001000000000000000000000100100000000000000000000000000000000000000000000000010010000000000000000000000000000000000000000000000000000000000000000000000000000000000000000000000000000000000000000000000010100000000000101000000001111000000000000000000000000000000000000000000000000101000000000000000000011100011100000000000000000000000000000000000000000000000000000000000000000000000000000000000000000000010000000000001100000000101010000000000000000000000000000000000000000000000000100000000000000000000000000000000000000000000000000000000000000000000000000000000000000000000000000000000000000000000000000000000000000000000000000000000000000000000000000000000000000000000000000000000000000000000000000000000000000000000000000000000000000000000000000000000000000000000000000000000000000000000000011000000000000000000000000000000111000000000000000000000000000000000000000000000000000000000000000000000000000000000000000000000000000000000000000000000000000000000000000001100001100000000000000000000110000000000000000000000000000010010000000000000000000000000000000000000000000000000000000000000000000000000000000000000000000000000000000000000000000000000000000000000000101000101100000000000000000000000000000000000000000000000000101100000000000000000000000000000000000000000000000000000000000000000000000000000000000000000000000000000000000000000000000000000000000000001000001011000000000000000000000000000000000000000000000000011001000000000000000000000000000000000000000000000000000000000000000000000000000000000010010000000000000000000000000000000000000000000000000010100001000000000000000000000000000000100000000000000000000110000000000000000000000000000000000000000000000000000000000000000000000000000000000011110100000000000000000000000000000000000000000000000000011000000000000000000000000000000000001010000000000000000000101000000000000000000000000000000000110000000000000000000000000000000000000000100001010010110000000000000000000000000000000000000000000000000000000000000000000000000000000000000000000000000000000000000100000000000000000000000000000000010010000000000000000000000000000000000000001000100000001100000000000000000000000000000000000000000000000000000000000000000000000000000000000000000010000000000000000000000000000000000000000000000000000100100000000000000000000000000000000000000010000000000010000000000000000000000000000000000000000000000000000000000000000000000000000000000000000000010000000000000000000000000000000000000000000011000000110000000000000000000000000000000000000000011011000001000000000000000000000000000000000000000000000000000000000110000000000000000000000000000001110100000000000000000000000000000000001010100001011000000000000000000000000000000000000000000000000001000000000000000000000000000000000001000000000000000000000000000010100001100000000000000000000000000010000000000000000000000000000000000011000110100000000000000000000000000000000000000000000000001100000000000000000000000000000000000000101000000000000000000000000000010000011000000000000000000000000000000000000000001000000000000000000000010001010110000000000000000000000000000000000000000000000011000000000000000000000000000000000000001010000000000000000000000000000000000000000000000000000000000000000000000000000111000000000000000000000100010101000000000000000011000000000000000000000000000000000000000000000000001000000000000000000001000000000000000000110000000000000000000000000000000000000000000000000000000110000000000000000000000010000111100000000000000001001000000000000000000000000000000000000000000000000111000000000000000000000000000000000000001010000000000000000000000000000000000000000000000000000000001000000010000000000000111001111000000000000000010100000000000000000000000000000000000000000000000001100000000000000000000000000000000000000001000000000000000000000000000000000000000000000000000000101011000001010000000000000000111000000000000000000010000000000000000000000000000000000000000000000000000000000000000000000000000000000000000000000000000000000000000000000000000001000000000000000011001100000000010010000000000000001100000000000000000000000000000000000000000000000000000000000000000000000001110000000000000000000000000000000000000000000010000000000000000000000000101000000000000000110000000000000011000000000000000000000000000000000000000000000000000000000000000001000000000000000000000000100100000000000000000000000000000000000000000001010000000000000000000000001010000000000001000010000000000000000000000000000000000000000000000000000000011000000000000000000000010000000000000000000100000010001110000000000000000000000000000000000100010100000000000000000000000001000000000000010110100100000000000000000000000000000000000000000000000000000110000000000000000000000100000000000000000001010000000000000000000000000000000000000000000010100010000000000000000000000000000000001110000100100010000000000000001100000000000000000000000000000000000000000000000000000000000000000000000000000000011100001000000000000000000000000000000000000000101000000000000000000000000000000000000000000000000110110000000000000010100000000000000000000000000010000000000000000000000000000000000000000000000000000000000101100000000000000000000000000000000000000100000000000000000000000000000000000000000000000000101000000000000000010000000000000000000000000001010000000000000000000000000000000000000000000000011100000010000100000000000000000000000000000000000000000000000000000000000000000000000000000000000000000100000000000000000000000000000000000000000000010010000000000000000000000000000000000000000000000000000000000011000000000000000000000000000000001100000001100000000000000000000000000000000000000000000000000000000000000000000000000000000000000011000011000000000000000000000000000000000000000000000000000110000110001000000000000000000000000000000011000000100100000000000000000000000000000000000000000000000000000000000000000000000000000000000000110000000000000000000000000000000000000000000000000000000001100000010111000000000000000000000000000000000000000110000000000000000000000000000000000000000000000000011000000000000000000000000000000000000000000000000000000000000000000000000000000000000000000000011000000010000000000000000000000000000000000000000000000000000011100011000000000000000000000000000000000110000000000000000000000000000000010000000000000000000000000000000000000000000000000000000000000000000000011000000000000000000000000000000000000000000000000000101111001000000000000000000000000000000000000000000000000000000000000000000100000000000000000000000000000000000000000000000000000000000000000000001110000000000000000000000000000110110000011000000000000000001100000000000000000000000000000000000000000000000001000000000000000001000000000000000000000000000000000000000000000000000000000000000000000010000000000000000000000000000001101100000110000000011000000100000000000000000000000000000000000000000000000000010000000000000000000000000000000000000000000000000000000000000000000000000000000000000111000000000000000000000000000000011100000000000000000110100010000000000000000000000000000000000000000000000000000100000000001111100001110000000000000000000000000000000000000000000000000000000000000001100000000000000000000000000000000000000110000000011000111110000000000000000000000000000000000000000000000000000000000000000110000000000000000000000000000000000000000000000000000000000000000000000000000000000000000000000000000000001110000001110000000101000000000000000000000000000000000000000000000000000000000000000000000001011110010000000000000000000000000000110000000000000000000000000000000000000000000000000000110000000000000000000000011000010010010000001011010000000000000000000000000000000000000000000000000000000000011000000100000000000000110000000000001100000000000000000000000000000000000000000000000000001100000000000000000111000000001000111000000010000100000000000000000000000000000000000000000000000000000000000000000001000000000000001100000000000000000000000000000000000000000000000000000000000000000000000000000000000001101100000110010010000000101101000000000000000000000000000000000000000000000000000000000000000000000000000000000000000000000000000000000000000000000000000000000000000000000000000000000000000000000000011011000000110110000000000000000000000000000000000000000000000000000000000000000000000000010000000000000000000000000000000000000000000000000110000000000000000000000000000001110000000000000000000000000000000000000111100000111110000000000000000000000000000000000000000000000000000000000000001000000000000000000000000110000011000000000000000001010000000000000000011000000000000000000000000000000000000000000000000000000000011010001000000000000000000000000000000000000000000000000000000000000101100000000000000001100010010000110000000000000000010000000000000000000101000000000000000000000000000000000000000000000000000000000110000010000000000000000000000000000000000000000000000000000000000011011000000000000000011000010100000000000000000000000000000000000000000000100000000000000000000000000000000000000000000000000000000000000000100000000000000000000000000000000000000000011000000000000000101000000000000000000000000010000000000000000000000000000000000000000000000000000000000000000000000000000000000000000000000000000000000010100000000000000000000000000000000000000000001001000000000000000000000000000000000000000000000000000000000000000000000000000000000000000000000000000000000000000000000000000000000000000000000000000000111000000000000000000000000000000000000000000010010000000000000100001011000000000000000000000000000000000000000000110000000000000000000000000000000000000000000000000000000000000000000000000000000000000000000000000000000000000000000000110000000000011000000000000011000110001000000000000000000000000000000000000000001100000000000000000000000000000000000000000000000001100000111000000000000000000000000000000000000000000000000000000000001100000000000000000000000000110100000001000000000000000000000000000000000000000000000011000000000000000000000000001100000000000000011000000000000000000000000000000000000000000000000000000000000000000000000000000000000000000000000100001100001000000000000000000000000000000000000000000001011000000000000000000000000100100000000000000000000000000000000000000000000000000000000000000000000000000000000000000000000000000000000000001100011110110100000000000000000000000000000000000000000000000001000000000000000000000000110000000000000000000000000000000000000000000000000000000000000000000000000000000000000000000000000000000000000000000000000001000000000000000000100000000000000000000000000000100000000000000000000000000000000000000000000000000000000000000000000000000000000000000000000000000000000000000000000000000000000000000000000110000000000000000000000000010100000000000000000000000000111000000000000000000000000000000000000000000000000000000000001000000000000000000000000000000000000000000000000000000000000000000000000000001110000000000100000000000000000101000000000000000000000000110000000000000000000000000000000000000000000000000000000000000010000000000000000000000000000000000000000000000000000000000110000000000000000000000000000101000000000000000000100000000000000000000000000010000000000000000000000000000000000000000000000000000000000000100000000110000000000000000000000000000000000000000000000010010000000000000000000000000010011000000000000000000000000000000000000000000100100000000000000000110000000000000000000000000000000000000000000000000010010000000000000000000000000000000000000000000000011000000000000000000010000000110001100000000000000000000010100000000000000000000000000000000000010010000000000000000000000000000000000000000000000000101000000000000000000000000000000000000000000000000000000000000000000000100000000101110100000000000000000011010000000000000000000000000111000000000011000000000000000000000000000000000000000000000000000100000100000000000000000000000000000000000000000000000000000000000000001000000000011101100000000000000000000000110000000000000000000001000011100000000000000000000000000000000000000000000000000000000000000001100000000000000000000000000000000000000000000000000000000000000000000000000110110000000000110000001000100000000000000000000001000000000000000000000000000000000000000000000000000000000000000000000000001000000000000000000000000000000000000000000000000000000000000000000000000000000000000000010010000001011111000000000000101000100100000000000000000000000000000000000000000000000000000000000110000000000100000000000000000000000000000000000000000000000000000000001110000000000000010100000000000011000000000110100000000000000100000000000000000000000000000000000000000000000000000000000000000001100001000001100000000000000000000000000000000000000000000000000000000010010000011100000010000000000000000000000101001000000000000000000100100000000000000000000000000000000000000001100000000000000000000000111000011110000000000000001000000000000000000000000000000000000001001100000000000000000000000000000000000001010111000000000000000001001000000000000000000000000000000000000000011000000000000000000000010000000110111000000000000101000000000000000000000000000000000110011100110000000000000000000000000000000000000001000001000000000001100100000000000000000000000000000000000000000000000000000000000000000011010001101110000000000000100000000000000000000000000000000000010100011100000000000000000000000000000000000111010000010000000000001110000000000000000000000000000000000000000000000000000000000000000000011101010001100000000000000000000000000000000000000000000000110000000110000000000000000000000000000000000010111000000100000000000001000000000000000000000000000000000000000000000000000000000000000000010100000111110000000000000000000000000000000000000000000000000100010000000000000000000000000000000000000001110100000000000000000000000000000000000000000000000000000000000000000000000000000000000000001110101110011100000000000000000000000000000000000000000000000000001000001000000000000000000000000000000000011100001100000000000000000000000000011000000000000000000000000000000000000000000000000000000010001100000010000000000000000000000000000000000000000000000000000000000001100000000000000000000000000000000100100100100000000000000000000000000110000000000000000000000000000000000000000000000000000000010010000000000000000000000000000000000000000000000000000000000000000001000000000000000000000000000000000000110000110000000000000000000000000000000000000000000000000000000000000000000000000000000000000111000000000000000000000000000000000000000000000000000000000000000000010000000000000000000000000000000000000000000000000000000000000000000000000000000000000000000000000000000000000000000000000000000000000000000000000000000000000000000000000000000000000000000000000000000100010000000000000000000000000000000000000000000000000000000000000110000000000000000000000000000000000000000000000000000000000000000000000000000000000000000000000000000001000000000000000000000000000010001111000000000000000000000000000000000000000000000000000000000010010000000000000000000000000000000000000000000000000000000000000000000000000000000000000000000000000000101000000000000000000000010000100001110000000000000000000000000000010000000000000000000000000000100100000000000000000000000000000000000000000000000100000000000000000000000000000000000000000000000000001010000000000000000000011011000001001101110000000000000000000000000100000000000000000000000000000110000000000000000000000000000000000000000000000001100000000000000000000000000000000000000000000000000001000000000000000000000010000100010000011100000000000000000000000001000000000000000000000000000000000000000000000000000000000000000000000000000001110100000000000000000000000000000000000000000000000000000000000000000000000000100011000100001000100000000000000000000000000000000000000000000000000000000000000000000000000000000000000000000000000000110011000000000000000000000000000000000000000000000000000000000000000000000000001000101110000111001000000000000000000000000000000000000000000000000001100000000000000000000000000000000000000000000000000010000100000000000000000000000000000000000000000000000100000000000000000000000100001000000001000111000000000000000000000000000000000000000000000000100100000000000000000000000000000000000000111000000000100000100000000110000000000000000000000000000000000001000000000000000000000001011111000000110000000000000000000000000000000000000000000000000000000110000000000000000000000000000000000000010010000000111001010000000011000000000000000001000000000000000000010000000000000000000000011101000110011000110000000000000000000000000000000000000000000000000000000000000000000000000000000000000000000110100000001101010000000000001000000000000000010000000000000000000000000000000000000000000000001000100010100100000000000000000000000000000000000000000000000000000000000000000000000000000000000000000000000110000001000100000000000000000000000000000100000000000000000000000000000000000000000000000001010000111001000000110000000000000000000000000000000000000000000000000000000000000000000000000000000000000001100000000001000001100000000000000000000000000000000000000000000000000000000000000000000000000000000001000000001100000000000000000000000000000000000000000000000000000000000000000000000000000000000000100100000000010000011000000000000011000111000111000000000000000000000000000000000000000000000000000000000100011011000000000000001000000000000000000000000000000000000000000000000010000000000000000000000110000000100100000000000000000000101000000000000000000000000000000000000000000000000000000000000000000110100001000000000000000101000000000000000000000000000000000000000000000000100000000000000000000000000000000110000000000000000000000000000001000000000000000000000000000000000000000000000000000000000000100011000000000000000001001000000000000000000000000000000000000000000000001000000000000000000000000000000000000000000000000000000001100000010000000000000000000000000000000000000000000000000000000000000100010000000000000000001100000000000000000000000000000000000000000000000000000000000000000000000000000000000000000000000000001100000000000100000000000000000000000000000000000000000000000000000000000000000000000000000000000000000000000000000000000000000000000000000000000000000000000000000000000000000000001000000000000000000011100000000000000000000000000000000000000000000000000000000000000000000000000110000000000000000000000000000000100000000000000000000000000000000000000000000000000000000000000000110011100000000000000000000100000000000000000000000000000000000000000000000000000000000000000000000000000001110000000000000000000000110111110000000000011100000000000000000000000000000000000000000000011000011000000000000000000000000000000000000000000000000000000001100000000000000000000000000000000000000000000000000000000000000000001001000000000000000000000000000000000000000000000000000000000000000011000001000000000000001010001000000000000000000000000000000000011000000000000000000000000000000000000000010000010000000000000000000010110001000000000000000100000000000000000000000000000000000000000000000000011000000000000001100000000000000000000000000000000000000000000000000000000000000000000000000000000100000100000000000000000000000000000000000000000001000000000000000000000000000000000111000000000000001100001000000000011011000000000000000000000000000000000000000000000000000000000000000000000000000001000001000000000000000000111000000000000000000000010000000000010000000000000000000000000000000000000000000101000000000001000000000000000000000000000000000000000000000000000000011000000000000000000000000000000000000000000000001100000000000001010000000000000000001010000000000000000000000000000000000000000001010000000000000000000000000000000000000000000000010000000000000110000110000000000000000000000000000000000000000000000010001100000000100100000000000000000010100000000000000000000000000000000000000000001000000110000000000000000011001010000000000001000010000000000001100000000000000000000000000000000000000000000000000001010011000000001001000000000000000000010000000000000000000000000000000000000000000000000010010000000000000000100000100000000000000001100000000011000000000000000000000000000000000000000000000000000000001100000000000100100000000000000000000000000000000000000000000000111000000000000000000000011000000000000000000100000000000000001000000000000000101000000000000000000000000000000000000000000000000000000000000000000000101000000000000000000000000000000000000000000000001000000000000000000000000000000000000000000001000100000000000000010000000000000010000000000000000000000000011100000000000000000000000000000000010000011000000000000000000000000000000000000000000000000000000000000000000000000000000000000000000000000100000000000000011000000000000001100011000000000000000000000000000000000000000000000000000001111010001100000000000000000000000000000000000000000000000000100100100000000000000000000000000000000000000000000000000000000000011010000000000001001000000000000000000000000100000000000000000000000000110110110011000000011000000000000000000000000000000000000000001101101010000000000000000000000000000000000000000000000000000000001000010000000000001010000000000000000000000001000000000000000000000000000110001100000000001001000000000000000000000000000000000000000001010100011000000000000000000000000000000000000000000000000000000000100010000000000001000000000000000000000000010000000000000000000000000001110111000000000110011000000000000000000000000000000000000000000011110001000000000000000000000000000000000000000000000000000000011001000000000000000000000000000000000000000000000000000000000000000000011110010000000010101100000000000000000000000000000000000000000001110011001000000000000000000000000000000000000000000000000000000001100000000000000000000000000000000000000000000000000000000000000000000101000000000001110111000000000000000000000000000000000000000000011000011100000000000000000000000001100000000000000000000000000000000000000000000000000000000000000000000000000000000000000000000000000001000000001100100010000000000000000000000000000000000000000000010011000000000000000000000000000000011000000000000000000000000000000000000000000000000000000000000000000000000000000000000000000000000000000000000011011001100000000000000000000000000000000000000000000110100000000000000000000000000000000000000000000000000000000000000000000000000000000000000000000000000000000000000000000000000000000000000000000000001001111000000000000000000000000000000000000000000000010000000000000000000000000000000000000000000001100000000000000000000000000000000000000000000000000000000000000000000000000000000000000000000100000110001000000000000000000000000000000000000000000000000000000000000000000000000000000000000000000000011000000000000000000000000000000000000000000000000000000000000000000000000000000000000000000001101011000000000000000000000000000000000000000000000000000000000000000000000000000000000000000000000000000000000000000000000000000000000000000000000000000000000000000000000000000000000000000000000000011100000000000000000000000000000000000000000000000000000000000000000000000000000000000000000000000000000000000000000000000000011000000000000000000000000000000000000000000000000000000000000000000000000101000000000000000000000000000000000000000000000000000000000000000000000000000000000000000000000000000000000000000000000000000110000000000000000000000000000000000000000000000000000000000000000000000001010000000000000000000000000000000000000000000000000000000000000000000000000000000000000000000000000000000000000000000000000000000000000000000000000000000000010000000000000000000000000000000000000000001100000000000000000000000000000000000000000000000000000000000000000000000000000000000000000110000000000000000000000000000000000000000000000000000000000000001010000000000000000000000000000000000000000000000000000000000000000000000000000000000000000000000000000000000000000000000000000000000001010000000000000000000000000000000000000000000000000000000000000010100000000000000000000000000000000000000000000000000000000000000000000000000000000000000000000000000000000000011000000000000000000000001000000000000000000000000000000000000000000000000000000000000000010000000000000000000000000000000001100000000000000000000000000000000000000000000000000000000000000000000000001001000000001100000011000000000000000000000000000000000000000000000000000000000000000000000000000000000000000000000000000000011000000000000000000000000011000000000000000000000000000000000000000000000001100000000011000001001000000000000000000000000000000000000000000000000111000000000000110000000110000000000000000000000000000000000000000000000000000000110000000000000000000100000000000000000000000000000000000000000000010100000000000000000000000000000000000000000000000000000000000000001100000010010000000000000000000000000000000000000000000000000000000000000000000000000010100000000000000000000000000000000000000000000010000000000000000000000000000000000000000000000000000000000000000000000000011000000000000000000000000000000000000000000000000000000000000000000000000000101000000000000000000000000000000000000000000000000000000000000000000000000000000000000000000000000000000000000000000000000000000000000000000000000000000000000000000000000000000000000000000000000000000100000000000000000000000000000000000000000000000000000000000000000000000000000000110000000000000000000000000000000000000000000000000000000000000000000000000000000000000000000000000000000000000000000000000000000000000000000000000000000000000000000000000000000000000000000000000000010010000000000000000000000000000000000000000000000000000000000000000000000000000000000000000000000000000000000000000000000000000000000000000000000000000000000000000000000000000000000000000000000000000101000000000000000000000000000000000000000000000000000000000000000000000000000001110000000000000000000000000000000000000000000000000000000000000000000000000000000000000000000000000000000000000000000000100000000000000000000000000000000000000000000000000000000000000000000000000000000000000000000000000000000000000000000000011100000000000000000000000000000000000000000000000000000000000000000000000000000000000000000000000000000000000000000000000000000000001100110000000000000000000000000000000000000000000000000000000000000000000000000000000000000000001000000000000000000000000000000000000000000000000000000000000000000000000001110000000000000000000000000011001100000000000000000000000000000000000000000000000000000000000001010000000000000000000000000101000000000000000000000000000000000000000000000000000000001100000000000000000000000000000000000000001100000000000000000000000000000000000000000000000000000000000000001100001000000000000000000010000001010000110000000000000000000000000000000000000000000000000100100000000000000000000011011000000000000011000000000000100000000000000000000000000000000000000000000000000011000000000000000000000010010000001000010010000000000000000000000000000000000000000000000001010000000000000000000001000010000000000000000000000000010100000000000000000000000000000000000000000000000000000000000000000000000000000000000000000011000000000000000000000000000000000000000001000000001000000000000000001000011011000000000000000000000000000101000000000000000000000000000000000000000000000000000000000000000000000000101100000000000000000000000000000000000000000000000000000000101000000000000000000000000110000100010000000000000000000000000000100000000000000000000000000000000000000000000000000000000000000000000001100100011000000000000000000000000110000000000000000000000000000110000000000000000000000010000000010000000000000000000000000000000000000000000000011000000000000000000000000000000000000000000000011000011001000110000000000000000000000010100000000000000000000000000000000000000000000000000000010011010000000000000000000000000000000000000000000000000110000000000000000000000000000000000000000000001001000001110000000000000000000000000000010000000000000000000000000000000000000000000000000000000000000000100000000000000000000000000000000000000000000000000000000000001000000000000000000000000000000010100001111100000000000000000000000000000000000000000000000000000000000000000000000000000000000000001101001000000000100000000000000000000000000000000000000000000000000111000000000000000000000000000000010000011111000000000000000000000000000000000000000000000000000000000000000000000000000000000000000000010100000000001100000000000000000000000000000000000000000000000010101100000000000000000000000000000000000000000000000000000000000000000000000000000000000000000000000000000000000000000000000000000000000000000000000010100000000000000000000000000000000000000000000001110100100000000000000000000000000000000010000000000000100000000000000000000000000000000000000000000000000000000000000000000000000000000000000000000000001100000000000000000000000000000000000000000000011100001000000000000000000000000000000001000100000000010100000000001100000011000000000000001100000000000000000000000000000000000000000000000000001100110110000000000000000000000000000000000000000010011011010001000000010000000000000000000000001001000000001101100000000011000000110000000000000100100000000000000000000000000000000000000000000000000000000000000000000000000000000000000000000000000001000001001000010000000100000000000000000000000010000000000010001000000000000001000000000000000000101000000000000000000000000000000000000000000000000000000010100000000000000000000000000100000000000000010100011111111000000001000000100010000000000000000110000000011010000000000000101000000000000000000100000000001000000000000000000000000000000000000000000001001011100000000000000000000001000000000000000011000000111100000110000000011101110000000000000100110000000110010000000000001001000000000001100000000000000101000000000000000000000000000000000001000000010100101000000000000000000000010000000000000000000000000000000001100000001000000010000000000000101000000000011100000000000001100000000011011000000000000001010000000000000000000000000000000000001100001100100010000000000000000000000000000000000000000000000000000000000000000011101101111000000000000100000000000000000000000000000000000010011110000000000000001000000000000000000000000000000000000000101100010000000000000000000000000000000000000000000000000000000000000000000000011100001101000000000000000000000000000000000000000000000000000110000000000000000000000000000000000000000000000000000001011011100000000000000000000000000000000000000000000000000000000000000000000000000000000010001000000110000000000000000000000000000000000000010000011100000000000000000000000000000000000000000000000000010000000000000000000000000000000000000000000000000000000000000000000000000000000000000000100110000010010000000000000010000000000000000000001101100000000000000000000000000000000000000000000000000000000100001000000000000000000000000000000000000000000000000000000000000000000000000000000000010001100000100100000000000011010011100000000000000001010001110000000000000000000000000000000000000000000000000000100110000000000000000000000000000000000000000000000000000011000000000000000000000000000011000000000110000000000000110110000000000000000000001110111100000000000000000000000000000000000000000000000000000111100000000000000000000000000000000000000000000000000010110000000000000000000110000000000000000000000000000000001101100000000000000000000000001010010000000000000000001000000000000000000000000000000000000000000000000000000000000000000000000000000000000000010011111000000011000001100000000000000000000000000000000000110000000000000000000000000000011100000000000000000101000000000000000000000000000000000000000000000000000000000000000000000000000000000000000010111100000000110000000000000000000000000000000000000000011000011000000000000000000000000010000000000000000001010000000000000000000000000000000000000000000000000000000000000000000000000000000000000000010011010000000000000000000000000000000000000000000000000000001001000000000000000000000000000000000000000000001000000000000000000000000000000000000000000000000000000000000000000000000000000000000000000000001000000000000000000000000000000000001000000000000000000010100000000000000000000000000000000000000000000000000000000000000000000000000000000000000000000000000000110000000000000000000000000000000000000000000000000000000000000000000000000010000000000000000000010000000000000000000000000000000000000000000000000000000000000000000000000000010000000000000000000000001100000000000000000000000000000000000000000000000000000000000000000000000000100000000100000000000000000000000000000000000000000000000000000000000000000000000000000000000000000100000000000000000000000000000000000000000000000000000111000000000000000000000011000000000000000000000000000011000000000000000000000000000000000000000000000000000000000000000000000000000000000000000001000000000000000000000000000000000000000000000000000000000000000000000000000001001000000001100000000000000000101000000000000000000000000000000000000000000000000000000000000000000000000000000000000000000000000000000000000000000000000000000000000000000000000000000000000000000000010010000000101000000000000000000000000000000000000000000000000000000000000000000000000000000000000000000000000000000000000000000000000000000000000000000000000000000000000000000000000000000000000000000011000000000100000000000000000000000000000000000000000000000000000000000000000000000000000000000000000000000000000000000000000000000000000000000000000001100000000000000000000000000000000000000000000000000000000000000000000000000000000000000000000000000000000000000000000000000000000000000000000000000000000000000000000000000000000000000000110000000000100100000000000000000000000000000000000000000000000000000000000000000000100000000000000000000000000000000000000000000000000000000000000000000000000000000000000000000000000000000000000000001100000000000110000000000000000000000000000000000000000000000000000000000000000000010100000000000000000000000000000000000000000000000000000000000000000000000000000000000000000000000000000000000000000000000000000000000000000000000000000000000000000000000000000000000000000000000000001010000000000000000000000000000000000000000000000000000000000000000000000000000000000000000000000000000000000000000000000000000000000000000000000000000000000000000000000000000000000000000000000000000101000000000000000000000000000000000000000000000000000000000000000000000000000000000000000000000000000000000000000000000000000000000000000000000000000000000000000000000000000000000000000000000000000000100000000000000000000000110000000000000000000000000000000000000000000000000000000000000000000000000010000000000000000000000000000000000000000000000000000000000000000000000000000000000000000000000000000000000000000000000000001100000000000000000000000000000000000000000000000000000000000000000000000000100000000000000000000000000000000000000000000000000000000000000000000000000000000000000000000000000000000000000000000000000000000000000000000000000000000000000000000000000000000000000000000000000000001000000000000000000000000000001000000000000000000000000000000000000000000000000000000000000000000000000000000000000000000000000000000000000000000000000000000000000000000000000000000000000000000000000000000000000000000000000000000101000000000000000000000000000000000000000000000000000000000000000000000000000000000000000000000000000000000000000000000000000000000000000000000000000000000000000000000000000000000000000000000000000001010000000000000000000000000000000000000000000000000000000000000000000000000000000000000000000000000000000000000000000000000000000000000000000000000000000000000000000000000000000000000000000000000000001000000000000000000000000000000000000000000000000000000000000000000000000000000000000000000000000000000000000000000000000000000000000000000000000000000000000000000000011100000000000000000000000000000000000000000000000000000000000000000000000000110000000000000000000000000000000000000000000000000000000000000000000000000000000000000000000000000000000000000000000000000000000000000000000000000000000000000000000000000011000000000000000000000000001100000000000000000000000000000000000001100101000000000000000000000000000000000000000000000000000000000000000000000000000000000000000000000000000000000000000000000000000000110000111000000000000000000000000000000000000000000000000000000000111010001000000000000000000000000000000000000000000000000000000000000000000000000000000000000110000000000000000000000011000000000000000000000000000000000000000000000000000000000000000000000000000000011000000100000000000000000000000000000000000000000000000000000000000000000000000000000000000001010000000000000000000000110000000000000000000000000000000000000000000000000000000000000000000000000000000010111110000000000000000000000000000000000000000000000000000000000000000000000000000000000000001100000000000000000000000000000000000000000000000000000000000000000000000000000000000000000000000000000000011110000000000000000000000000000000000000000000000000000000000000000000000000000000000000000000000000000000000000000000000000000000000000000000000000000000000000000000000000000000000000000000000000000001000000000000000000000000000000000000000000000000000000000000000000000