P1
200 200
0000000000000000000000000000000000000000000000000000000000000000000000000000000000000000011110110000000000000000100000000000000000000000000000000000000000000000000000000000000000000000010000000000000000100000000000000000000000000000000000000000000000000000000000000000000000000000000000001000101100000000010000010100000000000000000000000000000000000000000000000000000000000000000000001010000000000000010100000000000000000000000000000000000000000000000000000000000000000000000000000000000010000000000000001010000100100000001110000000000000000000000000000000000000000000000000000000000010100000000000000000000000000000000000000000000000000000000000000000000000000000000000000000000000000000000100000000000011000000110000000000000000000000000000000000000000100000100000000000000000000000010000001100000001110000000000000000000000000000000000000000000000000000000000000000000000000000000000000111000000000000000000000000000001010100000000000000000000000000001000010100000000000000000000000000001111100000000000000000000000000000000000000000000000000000000000000000000000000000000000011000000000000000000000000000000000000000011011000000000000000000000000000010000100100000000000000000000000000011111100000000000000000000000000000000000000000000000000000000000000000000000000000000000110000000000000000000000000000000000000011000001100000000000000000000000000000000110000000000000000000000000000110111000000000000000000000000000000000000000000000000000000000000000000000000000000000000000000000000000000000000000000000000010010010010010000000000000000000000000000000000000000001100000000000000001110010000011100000000000000000000000000000000000000000000000000000000000000000000000000000000000000000000000000000000000000000101001010010100000000000000000000000000000000000000000011000000000000000011000000000000000000000000000000000000000000000000000000000000000000000000000000000000000000000000000000000000000000000000000001001001001001000000000000000000000000000000000000000000000000000000000000110110000001010000000000000000000000000000000000000000000000000000000000000000000000000000000000000000000000000000000000000000000110000011000000000000000000000000000000000000000000000000000000000000000010000000001000000000000000000000000000000000000000000000000000000000000000000000000000000000000000000000000000000000000000000000011011000000000000000000000000000000000000000000000000000000000000000000000000000000000000000000000000000000000000000000000000000000000000000000000000000000000000000000000000000000000000000000000000000101010000000000000000000000000000000000000000000000000000000000000000000000000000000000000000000000000000000000000000000000000000000000000000000000000000000000011100000000000000000000000000000000000000000000000000000000000000000000000000000000000000000000000000000000000000000000000000000000000000000000000000000000000000000000000000000110000000000000000000000000000000000000000000000000000000000000001110000000000000000000000000000000000000000000000000000000000000000000000000000000000000000000000000000000000000000000000000000000000010010000000000000000000100000100000000000000000000000000000000000000000000000000000000000000000000000000000000000000000000000000000011101000000000000000000000000000000000000000000000000000000000000000101000000000000000000001000001000000000000000000000000000000000000000000000000000000000000000000000000000000000000000000000000000001000001000000000000000000000000000000000000000000000000000000000000000100000000000000000000010000010000000000000000000000000000000000000000000000000000000000000000000000000000000000000000101000000000001111111100000000000000000000000000000000000000000000000000000000000000000000000000000000000000000000000000000000000000000000000000000000000000000000000000000000000000000000000000000000100001000000000000001101100000000000000000000000000000000000000000000000000000000000000000000000000000000000011100000000000000000000000000000000000000000000000000000000000000000000000000000000000000000100001000000000000010010000000000000000000000000000000000000000000000000000000000000000000000000000000000000000000000000000000000000000000000000000000000000000000000000000000000000000000000000000011000000100000000000000011000000000000000000000000000000000000000000000000000000000000000000000000000000000000000000000000000000000000000000000000000000000000000000000000000000000000000000000000000000101000000000110000000000000000000000000000000000000000000000000000000000000000000000000000000000000000000000000000000000000000000000000000000000000000000000000000000000000000000000000000000000000000000011000000001100000000000000000000000000000000000000000000000000000000000000000000000000000000000000000000000000000000000000000000000000000000000000000000000000000000000000000000000000000000000000000001010000000000000000000000000000000000000000000000000000000000000000110000000000000000000000000000000000000000000000000000000000000000000000000000000000000000000000000000000000000000000000000000000000001100000000000000000000000000000000000000000000000000000000000000010010000000000000000000000000000000000000000000011100000000000000000000000000000000000000000000000000000000000000000000000000000000000010000000000000000000000000010000000000000000000000000000000000000100100000000000000000000000000000000000000000000000000000000000000000000000000000000000000000000000000000000000000000000000000000000000000000000000000000000000001010000000000000000000000000000000000000110000000000000000000000000000000000000000000100000100000000000000000000000000000000000000000000000000000000001101000000000000000000000010000000000000000000000010100000000000000000000000000000000000000000000000000000000000000000000000000000001001000001000000000000000000000000000001000000000000000000000000101001011000000100000000000001010000000000000000000000010000000000000000000000000000000000110000000000000000000000000000000000000000000101110000010000000000000000000000000000101000000000000000000000011011000100000111100000000000100000000000000000000000000000000000000000000000000000000000001100000000000000000000000000000000000000000010010000000000000000000000011100000000001010000000000000000000000010000001000010000100000000000110000000000000000000000000000000000000000000000000000000000000000000000011000000000000000000000000000000011000011100000000000000000100000000000001000000000000000000000000010000110000101011000000000000001010000000000000000000000000000000000000000000000000000000000000000001001000000000000000000000000000000000000000000000000000000000001000000000000000000000000000000000000001010011100010000000000000000010100000000000000000000000000010000000000000000000000000000000000000010100000000000000000000000000000000000000000000000011000000010100000000000000000000000000000000000000000000011000110000000000000000000000000000000000000100000001010000000000000000000000000000000000000010000000000000000000000000000000000000000000000001001000000000100000000000000000000000000000000000000110001100001100000000000000011000000000000000000010100000010010000000000000000000000000000000000000000000000000000000000000000000000000000000000000001100000000000110000000000000000000000000000000000010101110000100000000000000000100000000000000000001101100000011000000000000000000000000000000000000000000000000000000000000000000000000000000000000000000000000010000110000000000000000000000000000000000010111000000000000000000000000000000000000000000010010000000000000000000000000000000000000000000000000011000000000000000000000111000000000000000000000000000011110010100000000000000000000000000000000000000000000000000000000000000000000010000000000001000100000000000000000000000000000000000000000000000000110000000000000000000000000000000000000000000000000000110000100100000000000000000000000000000000000000000000000000000000000000000000100000000000000001000000000000000000000000000000000000000000000000000000000000000000000000000000000000000000000000000000000000001001000000000000000000000000000000000100000000000000000000000100000000001000000000000000000000000000000000000000000000000000000000010000000000000000000000000000000000000000000000000000000000000000000001100000000000000000000000000000000110000000000000000000000010100000000000000000000000000000000000000000000000000000000000000000001010000000000000000000000000000000000000000000000000000000000000000000000000000000000000000000000000000000110000000000000000000000000100000000000000000000000000000000000000000000001110000000000000000010010000000000000000000000000000000000000000000000000000000000000000000000000000000000000000000000000000000000000000000000000000100000100000000000000000000000000000000000000000000100100000000000011000011000000000000000000000000000000000000000000000000000000001110000000000000000000000000000000000000000000000000000000000000000010000110000000000000000000000000000000000000000000001000000000000000110000000000000000000000000000000000000000000000000000000000000000000000000000000000000000000000000000000000000000000000000000000000010010000000000000000000000000001000000000000000000000111000000000000000000000000000000000000000000000000000000000000000000000000000000000000000000000000000000000000000000000000000000000000000000000000010100000000000000000000000000110000000000000000010001011000000000000000000000000000000000000000000000000000000000000000000000000000000000000000000000000000000000000000000000000000000000000000000000000010000000000000000000000000000000000000000000000100010010000000000000000000000000000000000000000000000000000000000000000000000000000000000000000000000000000000000000000011100000000000000000000000000000000000000000000000000000000000000000000000000000010001110000000000000000000000000000000000000000000000000000000000000000000000000000000000000000000000000000000000000000010000000000000000000000000000000000000000000000000000000000000000000000000000000001001001100000000000000000000000000000000000000000000000000000000000000000000001110000000000000000000100000000000000000000000000000000000000000000000000000000000000000000000000000000000000000000000000001111011100000000000000000000000000000000000000000000000000000000000000000000000000000000000000000010100000000001110000000111000000000000000000000000000000000000000000000000000000000000000000000000000000101001000000000000000000000000000000000000000000000000000000001000000000000000000000000000000000100100000000101000111000101000000000000000000000000000000000000000000000000000000000000000000000000000001000000000000000000000000000000000000110000000000000000000000011000000000000000000000000000110000110000000001000000000000010000000000000000000000000000000000000000000000000000000000000000000000000001111000000000000000000000110000000000001100000000000000000000001010000000000000000000000000001100000000000000011011000001101100000000000000000000000000000000000000000000000000000000000000000000000000110001100010000000000000001100000000000000000000000000000000000000000000000000000000000000000000000000000000000001000101000100000000000000000000000000000000000000000000000000000000000000000000000000000110000001000000000000000000000000000000000000000000000000011000000000000000000000000010000000000000000000010000011100000111000000000000000000000000000000000000000000000000000000000000000000000000000000100000000000000000000000000000000000000000000000000000000110000000000000000000000000100000000000000000010010000000000000000000000000000000000000000000000000000000000000000000000000000000000000000000000000100000000000000000000110000011000000000000000000000000000000000000000000000000001000000000000000000000010000000000000000110000000000000000000000000000000000000000000000000000000000000000000000000000001110000000000001100010010000110000000000000000000000000000000000000100000000000000000000000000000001001110000000000000001100000000000000000000000000000000000000000000000000000000000000000000000000000001000000000000011000010100000000000000000000000000000000000000000001100000000000000000000000000000000110110000000000000010000000000000000000000000000000000000000000000000000000011000000000000000000001101100000000000000000010000000000000000000000000000000000000000000001100000000000000000000000000000000000000000000000000000000000000000000000000000000000000000000000000000000001001000000000000000000011011000000000000000000000000000000000000000000000000000000000000000001100000000000000000000000000000000000000000000000011000000000000000000000000000000000000000000000000000000010010000000000000000000000010000000000000000000000000000000000000000000000000000000000000001001000000000000000000000000000000000000000000001100010000000000000000000000000000000000000000000110000000000011000000000000000000010010100000000000000000000000000000000000000000000000000000000000000010010000000000000000000000001100000000000000000011011000000000000000000000000000000000000000000001100000000000000000000000000000000110000110000000000000000000000000000000000000000000000000000000000000101000000001100000000000000011000000000000000000110110000000000000000000000000000000000000000000000000000000000000000000000000000000010100100000000000000000000000000000000000000000000000000000000000000000000000100100000000000000000000000000000000001110000000000000000000000000000000000000000000000000000000000000000000000000000000000100000000000000000000000000000000000000000000000100000000000000000000000000000110000000000000000000000000000000000011000000000000000000000000000000000000000000000000000000000000000000000000000000000001101100000000000000000000000000000000011100000011100000000000000000000000000000000000000000000000000000000000000001110100000000000000000000000000000000000000000000000000000000000000000000000000000000011011000000000000000000000000000000000000000001100100000000000000000000000000000000000000000000000000000000000000001000100000000000000000000000000000000000000000000000000000000000000000000000000000000001000000000000000000000000000000000000000000000001100000000000000000000000000000000000000000000000000000000000000001110000000000000000000000000000000000000000000000000000110000000000000000000000000000111000000000000000000000000000000000000000001000101000000000000000000000000000000000000000000000000000000000000000001000000000000000000000000000000000000000000000000000010010000000000000000000000000000000000000000000000000000000000000000000000000001100000000000000000110000000000000000000000000000000000000000000000000000000000000000000000000000000000000000000000000000011000000000000000000000000000000000000000000000000000000000000000000000010000110000000000000000010010000000000000000000000000000000000000000000000000000000000000000000000000000000000000000000000000000000000000000000000000000000000000000000000000000000000000000000000000011100011000000000000000000011000000000000000000000000000000000000000000000000000000000000000000000000000000000000000000000000000000000000000000000000000000000000000000000000000000100000000000000000000001000011000000000000000000000000000000000000000000000000000000000000010000000000000000000000000000000000000000000000000000000000000000000000000000000000000000000000000000000001011100000000000000000000000000011000000000000000000000000000000000000000000000000000000000001010000000000000000000000000000000000000000000000000000000000000000000000000000000000000000000000000000000100000100000000000000000000001000101000000000000000000000000000000000000000000000000000000000010100000000000000000000000000000000000000000000000000000000000000000000000000000000000000000000000000000010000010000000000000000000000000000110000000000000000000000000000000000000000000000000000000000010000000000000000000000000000000000000000000000000000000000000000000000000000000000000000000000000000000010011000000000000000000000000011001000000000000000000000000000000000000000000001100000000000000000000000000110000000000000000000001000000000000000000000000000000000000000000000000000000000000000000000100100000000000000000000000000011100000000000000000000000000000000000000000000011000000000000000000000000010010000000000000000000101000000000000000000000000000000000000000000000000000000000000000000000000000000000000000000000000000010000000000000000000000000000000000000000000000000000000000000000000000001101100000000000000000000100000000000000000000000000000000000000000000000000000000000000000000000000000000000000000000000000000000000000000000000000000000000000000000000000000000000000000000000000000101000000000000000000000000000000000000000000000000000000000000000000000000111000000000000000000000000000000000000000000000000000000000000000000000000000000000000000000000000000000000000000000000000011000000000000000000001110000000000000000000000000000000000000000000000000001001000000000000000000000000000000000000000000000000000000000000000000000000000000000000000000000000000000000000000000000000100010000000000000000011100000000000000000000000000000000000000000000000000010010000000000000000000000000001110001100000000000000000010000000011000000000000000000000000000000000000000000000000000000000100100000000000000000010000000000000000000000000000000000000000000000000000010010000000000000000000000000000000100100000000000000001000000000110000000000000000000000000000000000000000000000000000000001110000000000000000000100000000000000000000000000000000000000000000000000001100100000000000000000000000000000000110000000000000001101100000000000000000000000000000000000000000000000000000000000000000000000000000000000000011100000000000000000000000000000000000000000000000001110010000000000000000000000000000000000000000000000000010000000000000000000000000000000000000000000000000000000000000000000000000000000000000000000111000000000000000000000000000000000000000001000000110001000000000000000000000000000000000000000000000000000100000110000000000000000000000000000000000000000000000000000000000000000000000000000000000000000000000000000000000000000000000000000000101000001001100000000000000000000000000000000000000000000000000000000010010000000000000000000000000000000000000000000000000000000000000000000000000000000000000000000011100010110000000000000000000000010010000001110000000000000000000000000000000000000000000000000000000000100100000000000000000000000000000000000000000000000000000000000000000000000000000000000000000000000010000010000000000000000000000011000000000000000000000000000000000000001110000000000000000000000000000110000000000000000000000000000000000000000000000000000000000000000000000000000000000000000000100000100000010000000000000000000000000000000000000000000000000000000000000000000000000000000000000000000000000000000000000000000000000000000000000000000000000000000000000000000000000000000000000000001000010010000110000000000000000000000000000001000000000000000000000000000000000000000000000000000000000000000000000000000000000000000000000000000000000000000000000000000000000000000000000000000000000010000000000000100000000000000000000000000000101000000000000000000000000000000000000000000000000000000001100000000000000000000000000000000000000000000000000000000001000000000000000000000000000000000000000000000100111000000000000000000000000110000110000000000000000000000000000000000000000000000000000000100100000000000000000000000000000000000000000110000000000000111000000000000000000000000000000000000011100001111110000000000000000000000010100011000000000000000000000000000000000000000000000000000000000110000000000000000000000000000000000000000010010000000000001000011100000000000000000000000000000000000000001100000000000000000000000000100100100000000000000000000000000000000000000000000000000000000000000000000000000000000000000000000000000000010100000000000000111011000000000000000000111000000000000000000000000000000000000000000000000111000100000000000000000000000000000000000000000000000000000000000000000000000000000000000000000000000000000010000000000000000000000000000000000000000000000000000000000000000000000000000000000000000001001001100000000000000000000000000000000000000000000000000000000000000000000000000000000000000000000000000000000000000011100011010100000000000000001000001000000000000000000000000000000000000000000000000110110000000000000000000000000000000000000000000000000000000000000000000000000000000000000000000000000000000000000001001000001111000000000000000010000010000000000000000000000000110000000000000000000001111000000000000000000000000000001000000000000000000000000000000000000000000000000000000000000000000000000000000000011010000101000000000000000000100000100000000000000000000000001100000000000000000000000000000000000000000000000000000101000000000000000000000000000000000000000000000001110000000000000000000000000000000000000000100000000000000000000000000000000000000000000000000000000000000000000000000000000000000000000000000000000001001000000000000000000000000000000000000000000000000000000000000000000000000000000000000000001000000000000000000000111000000000000000000000000000000000000000000000000000000000000000000000000000000000001100000000000000000000000000000000000000000000000000000000000000000000000000000000000011000000000000000000000000000000000000000000000000000000000000000000000000000000000000000000000000000000000000000000000000000000000000000000000000000000000000000000000000000000000000000000000000000001100000000000000000000000000000000000000000000000000000000000000000000000000000000000000000000000000010000000000000000000000000000000000000000000000000000000000000000000000000000000000000000000000000011100000000000000000000000000000000000000000000000000000000000000000000000000000000000000000000000000100000000000000000000000000000000000000000000000000000000000000000000000000000000000000000000000000000000000000000000000000000000000000000000000000000001110000000000000000000000000000000000000000000001000000000000000000000000000000000000000000000000000000000000000000000000000000000000000000000000000000000000000000000000000000000000000000000000000000100100000000000000000000000000000000000000000000000000000000000000000000000000000000000000001010000000000000000000000000000000000001000000000000000000000000000000000000000000000000000000000000000000001000100000000000000000000000000000000000000001110001110000000000000000000000000000000000000100100000000000000000000000000000000000010000000000000000000000000000000000000000000000000000111000000000000100000000000000000000000000000000000000000000000000000000000000000000000100000000000000000000101000000000000010000000000000000000000100000000000000000000000000000000000000000000000000001110100000000000110001100000000000000011000000000000000000000000000000000000000000000010100000000000000000000000000000000001010000000000000000000000000000000000000011100011100000000000000000000000000000000100000000000010000010000000110000110000000000000000000000000110000000000000000000101000000000000001010000000000000000010100000000000000000000000000000000000000000000000001100000000000000000000000000001100000000000010000100000001100000000000000000000000000000001100000000000000000000100000000000000011100000000000000000010000000000000000000000000000000000000100000100000100100000000000000000000000000110000000000001000001000000000000000000000000000000000000000011000000000000000000000000000000000000101000000000000000000000000000000000000000000000000000000001000001000000110000000000000000000000000001000000000001100011000000000000000000000000000000000000100001010000000000000000000000000001100000000111000000000000000000000000000000000000000000000000000000010000010000000000000000000000000000000000000000000000100000000000000000000000000000000000000000001000001100000000000000000000000000011000000001111000000000000000000000000000000000000000000000000000000000000000000000000000000000000000000000000000000110000100010000000000000011000000000000000000000010000000000000000000000000000000000000000000010001100000000000000000000000000000000000000000000000000000011100000000000000000000000000000000000000000001100001001000000000000001001000000000000000000000000000000000000000000000000000000000000001101100011000000000000000000000000000000000000000000000000000000000000000000000000000000000000000000000000000000000001110000000000000001010000000000000000000000011100000000000000000000000000000000000001110000110000000000000000000000000000000000000000000000000000000000000000000000000000000000000000000000000000000000000000000000000000001000000000000000000000000000000000000000000000000000000000000000001001110000000000000000000000000000000000000000000000000000000000000000000000000000000000000000000000000000000000000000000000000000000000000000000000000000000000000000000000000000000000000000000000000000001010000000000000000000000000000000000000000000000000000000000000000000000000000000000000000000000000000000000000000000000000000000000000000000000000000000000000000000000000000000000000000000000000000001000000000000000000000000000000000000000000000010000000000000000000000000000000001100000000000000000000000000000000000000000000000000000000000000000000000000000000000000000000000000000000000000000000000000000000000000000000000000000000000000000001010000000000000000000000000000000011000000000000000000000000000000000000000000000000000000000000000000000000000000000000000000000000000000000000000000000000000000000000000000000000000000000000000000010100000000000000000000000000000000000000000000000000000000000000000000000000000000000000000000000000000000000000000000000000000000000000000000000000000000000000000000000000000000000000000000000000000010000000000000000000000000000000000000000000001100000000000000000000000000000000000000000000000000000000000000000000000000000000000000000000000000000000000000000000000000000000000000000000000000000000000000000000000000000000000000000000000000000011000000000000000010000000000000000000000000000000000000000000000000000000000000000000000000000000000000000000000000000000000000000000000000000000000000000000000000000000000000000000000000000000000000000000000000000001010000000000000000000000000000000000000000000000000000000000000000000000000000000000000000000000000000000000000000000000000000000000000000000000000000000000000000000000000000000000000000000000000000010100000000000000000000000000000000000000000000000000000000000000000000000000000000000000000000000000000000000000010000000000000000000000000000000000000000000000000000000000000000000000000000000000000010000000000000000000000000000000000000000000000000000000000000000000000000000000000000000000000000000000000000110010000000000000000000000000000000000000000000000000000000000000000000000000000000000000000000000000000000000000000000000000000000000000000000000000000000000000000000000000000000000000000000000000110110100000000000000000000000000000000000000000000000000000110000000000000000000000000000000000000000000000000000000000000000100000000000000000000000000000000000000000000000000000000000000000000000000110100000000000000000000000000000000000000000000000000000001010000000000000000000000000000000000000000000000000000000000000011100000000000000000000000000000000000000000000000000000000000000000000100000000000000000000000000000000000000000000000000000000000000001000000000000000000000000000000000000000000000000000000000000001111100000000000000000000000000000001100000000000000000000000000000000010100000000000000000000000000000000000000011000000001100000011000000000000000000000000000000000000000000000000001000000000000000100000100000000000000000000000000000011000000000000000000000000011000000101000110000000000000000000000000000000001101000000011000001001000000000000000000000000000000000000000000000000010000000000000011001001100000000000000000000000000000000000000000000000000000000110000000100001010000000000000000000000000000000010000000000000000010100000000000000000000000000000000000000000000000000100000000000001110101011100000000000000000000000000000000000000000000000000000000000000000000001000000000000000000000000000000000100000000000000000010000000000000000000000000000000000000000000000000000000000000000001100100110000000000000000000000000000000000000000000000000000000000000000000000000000000000000000000000000000000001110000000000000000000000000000000000000000000000000000000000000000000000000000000000001000001000000000000000000000000000000000000000000000000000000000000000000000000000000000000000000000000000000000000000011000000000000000000000000000000000000000000000110000000000000000000000000000000001111100000000000000000000000000000000000000000000000000000000000000000000000000000000000000000000000000000000000000101101000000000000000000000000000000000000000000010010000000000000000000000000000000001110000000000000000000000000000000000000000010000000000000000000000000000000000001000000000000000000000000000000011000010000000000000000000000000000000000000000000101000000000000000000000000000000000001000000000000000000000000000000000000000000100000000000000000000000000000000000101000000000000000000000000000001110000000000000000000000000000000000000000000000000100000000000000000000000000000000110000000000000000000000000000000000000000000001000000000000000000000000000000000000100000000000000000000000000000110000000000000000000000000000000000000000000000000000000000000000000000000000010000001100000000000000000001100110000000000000000000000000000000000000000000000000000000000000000000000000000000000000001100000000000000000000000000000000000000000000000000000000000000000000000000000100000000000000000000000000011001100000000000000000000000000000000000000000000000000000000000000000000000000000000000000001110100000000000000000000000000000000000000000000000000000001100000000000000001000000000000000000000001100000000000000000000000000000000000000000000000000000000000000000000000000000000000000000000000000100000110000000000000000000000000000000000000000000000000100100000000000000000000000000000000000000011000000000000100000000000000000000000000000000000000000000000000000000000000000000000000000000000000000010010000000000000000000000000000000000000000000000001010000000000000000000000000000000000000000000000000000010100000000000000000000000000000000000000000000000000000000000000000000000000000000000000000011000000000000000000000000000000000000000001000000001000000000000000000000000000000000000000000000000000000101000000000000000000000000000000000000000000000000000000000000000000000000000110000000000000000000000000000000000000000000000000000000101000000000000000000000000000000000000000000000000000000000000000100000000000000000000000000000000000000000000000000000000000000000000000000010010000000000000000000000000110000000000000000000000000000110000000000000000000000000000000010000000000000000000000000000000000000000000000011000000000000000000000000000000000000000000000001000000000100100000000000000000000000010100000000000000000000000000000000000000000000000000000000000000100000000000000000000000000000000000000000000000110000000000000000000000000000000000000000000000101000000000110000000000000000000000000010000000000000000000000000000000000000000000000000000000000000001000110000000000000000000000000000000000000000000000000000000000000000000000000000000000000000010010000000000000000000000000000000000000000000000000000000000000000000000000000000000000000000000000000000010010000000000000000000000000000000000000000000000000000000000000000000000000000000000000000011000000000000000000000000000000000000000000000000000000000000000000000000000000000000000000000000000000000101000000000000000000000000000000000000000000000000000000000000000000000000000000000000000000000000000000000000000000000000000000000000000000000000000000000000000000000000000000000000000000000000000000100000000000000000000000000000000000000000000000000000000000000000000000000000000000000000000000000000000000000000000000000000000000000000000000000000000000000000000000000000000000000000000000000011000000000000000000000000000000000000000000000000000000000000000000000000000000110000000000000000000000001100000000000011011000000000011000000000000001110001110000000000000000000000000000000000000000110000000000000000000000000000000000000000000000000000000000000000000000000000001010000000000000000000000100100000000011110001000000000110000000000000110100010110000000000000000000000000000000000000000000000000000000000000000000000000000000000000000000000000000000000000000000110000100000000000000000000000101000000001110000001000000000000000000000011010000010110000000000000000000000000000000000000000000000000110000000000000000000000000000000000000000000000000000000000000010001110000000000000000000000000100000000100110100110000000000000000000000010110101101000000000000000000000000000000000000000000000000001100000000000000000000000011100000000000000000000000000000000000100001000000000000000000000000000000000000110100000000000000000000000000000011011101100000000000000000000000000000000000000000000000000000000000000000000000000000000000000000000000000000000000000000001101100000000000000000000000000000000000000100000000000000000000000000000000001110100000000000000000000000000000000000000000000010100000000100000000000000000000000000000000000000000000000000000000000000110000000000000000000000000000000000000000000000000000000000000000011000001000101000000000000000000000000000000000000000000000111000000010100000000000000000000000000000000011000000011100000000000000000000000000000000000000000000000000000000010110000000000000000000001000100000011100000000000000000000000000001100000000000000000101000001001000000000000000000000000000000000110000000000000000000000000000000000000000000000000110000000000000000101011000000000000000000010001100000010000000000000000000000000000011000000000000000000101000001100000000000000000000000000000000000000000010101000000000000000000000000000000000000010010000000000000001111100000000000000000000100011110110000000000000000000000000000000000000000000000000000100000000000000000000000000000000000000000000000011000001100000000000000000000000000000000000100100110001100000000001101011000000000000000000010001000000000000000000000000000000000000000000000000000000000000000000000000000000000000000000000000000000001000100000000000000000000000000000000000000110001100100100000000001011010000000000000000110010100000000000000000000000000000000000000000000000000000000000000000000000000000000000000000000000000000000000000000000000000000000000000000000000000000000000000101000000000011000100000000000000001100110000000000000000001000000000000000000000000000000000000000000000000000000000000000000000000000000000000000000000000000000000000000000000000000000000000000000000100000000000001101000000000000000100000000000000000000000101000000000000000000000000000000000000000000000000000000000000000000000000000000000000000000000000000000000000000000000000000000000000000000000000000000000001100000000000000001110000000000000000000001010000000000000000000000000000000000000000000000000000000000000000000000000000000000000010001000000000000000000000000000000000000000000000000000000000000000000000000000000000000000000000000000000000001000000000000000000000000000000000000000000000000000000000000000000000000000000000000011000001100000000000000000000000000000000000000000000000000000000000000000000000000001000000000000000000000000000000000000000000000000000000000000000000000000000000000000110000000000000000000000000000001010100000000000000000000000000000000000000111000000000001110000000000000000000000010000000000000000000000000000000000000000000000000000000000000000000000000000000000001100000000000000000000000000000000000000000000000000000000000000000000000000000000000000110110000000000000000000000100000000000000000000000000000000000000000000000000000000001110000000000000000000000000000000000000000000000000000000011100000000000000000011000000000000000000000000000000001101010000000000000000000000000000000000000000000000000000000000000000000000000000000000000000000000000000000000000000000000000000000000000000000000000001110000000001001000000001100000000000000000000001000100000000011000000111000111000000000000000000000000000000000000000000000000000000000000000000000000000000000000000000000000000000000000000000000000010010000000010010000000101000000000000000000000010010000000001010000000000000000000000000000000000000000000000000000000000000000000000000000000000000000000000000000000000000000000000000000000000000011000100000000011000000000100000000000000000000000011100000000010000110000001000000000000000000000000000000000000000000000000000000000000000000000000000000000000000001100000000000000000000000000000000110101000000000000000000000000000000000000000000000000000000000011100010000010000000000000000000000000000000000000000000000000000000000000000000000000000110000000000100100000000000000000000000000000001101010000000000000000000000000000000100000000000000000000000000010000100000100000000000000000000000000000000000000000000000000000000000000000000000000001100000000000110000000000000000000000000000000000111000000000000000000000000000000010100000000000000000000000000011011000000000000000000000000000000000000000000000000000000000000000000000000000000000000000000000000000000000000000000000000000000000000000000000000000000000000000000001010000000000000000000000000000011000000000000000000000000000000000000000000000000000000000000000000000000000000000000000000000000000000000000000000000000000000000000000000000000000000000000000000000101000000000000000000000000000000000000000000000000000000000000000000000000000000000000000000000000000000000000000000000000000000000000000000000000000000000000000000000000000000000000000000000000000000100000000000000000000000000000000001100000000000000000000000000000000000000000000000000000000000000000000000000000000000000000000000000000000000000000000000000000000000000000000000000000000000000000000000000000000000000000000000000000011000000000000000000000000000000000000000000000000000000000000001110000000000000000000000000000000000000000000000000000000000000000000000000000000000000000000000000000000000000000000000000000000000000000000000000000000000000000000000000000000000000000000000000000000000000000000000000000000000001000000000000000000000000000000000000000000000000000000000000000000000000000000000000000000000000000000000000000000000000000000000000000000000000000000000000000000000000000000000000000000000000000000101000000000000000000000000000000000000000000000000000000000000000000000000000000000000000000000000000000000000000000000000000000000000000000000000000000000000000000000000000000000000000000000000000001010000000000000000000000000000000000000000000000000000000000000000000000000000000000000000000000000000000000000000000000000000000000000000000010000000000000000000000000100000000000000000000000000000001000000000000000000000000000000000000000000000000000000000000000000000000000000000000000000000000000000000000000000000000000000000000000000001010000000000000000000000001000000000000000000000000000000000000000000000000000000000000000000000000000110000000000000000000000000000000000000000000000000000000000000000000000000000000000000000000001000100000000000000000000000010000000000000000000000000000000000000000000000011000001000000000000000000001100000000000000000000000000000000000000000000000000000000000000000000000000000000000000000000110110000000000000000000000000000000000000000000000000000000000000000000000000110000010000000000000000000000000000000000000000000000000000000000000000000000000000000000000000000000000000000000000000000000000000000000000000000000000000000110000000000000000000000011000000000000000000000100000000000000000000000000000000000000000000000000000000000000000000000000000000000000000000000000000000000000000000000000000000000000000000000000000001010000000000000000000000110000000000000000000000000000000000000000000000000000000000000000000000000000000000000000000000000000000000000000000000000000000000000000000100000000000000000000000000000000001100000000000000000000000000000000000000000000000000000000000000000000000000000000000000000000000000000000000000000000000000000000000000000000000000000000000000000110000000000000000000000000000000000000000000000000000000000000000000000000000000000000000000000000000000000000000000000000000000000000000000000000000000000000000000000000000000000000000000000000000000000000000000000