P1
200 200
0000000000000000000000000000000000000000000000000000000000000000000000000000000000000000011110110000000000000000100000000000000000000000000000000000000000000000000000000000000000000000010000000000000000100000000000000000000000000000000000000000000000000000000000000000000000000000000000001010101100000000010000010100000000010000000000000000000000000000000000000000000000000000000000001010000000000000001000000000000000000000000000000000000000000000000000000000000000000000000000000000000000000000000000001010000100100000000100000000000000000000000000000000000000000000000000000000000010100000000000000101000000000000000000000000000000000000000000000000000000000000000000000000000000000000010100000000000011000000110000000000000000000000000000000000000000000000100000000000000000000000010000000010000000100000000000000000000000000000000000000000000000000000000000000000000000000000000000000011000000000000000000000000000001010100000000000000000000000000011100010100000000000000000000000000001000010000001000000000000000000000000000000000000000000000000000000000000000000000000000011000000000100000000000000000000000000000011111000000000000000000000000000000000100100000000000000000000000000100000000000000000000000000000000000000000000000000000000000000000000000000000000000000000110000000000000000000000000000000000000011011101100000000000000000000000000000000110000000000000000000000000001000000100000100000000000000000000000000000000000000000000000000000000000000000000000000000000000000000000000000000000000000000000011010110000000000000000000000000000000000000000000001100000000000000010001010000001000000000000000000000000000000000000000000000000000000000000000000000000000000000000000000000000000000000000000001101111011110110000000000000000000000000000000000000000011000000000000000100011000000101000000000000000000000000000000000000000000000000000000000000000000000000000000000000000000000000000000000000000000001101011000000000000000000000000000000000000000000000000000000000000000100100000000100000000000000000000000000000000000000000000000000000000000000000000000000000000000000000000000000000000000000000000110111011000000000000000000000000000000000000000000000000000000000000000111000000001000000000000000000000000000000000000000000000000000000000000000000000000000000000000000000000000000000000000000000000011111000000000000000000000000000000000000000000000000000000000000000000000000000000000000000000000000000000000000000000000000000000000000000000000000000000000000100000000000000000000000000000000000000101010000000000000000000000000000000000000000000000000000000000000000000000000000000000000000000000000000000000000000000000000000000000000000000000000000000000001000000000000000000000000000000000000000000000000000000000000000000000000000000000000000000000000000000000000000000000000000000000000000000000000000000000000000000000000000000110000000000000000000000010000000000000000000000000000000000000000100000000000000000000000000000000000000000000000000000000000000000100000000000000000000000000000000000000000000000000000000000000000010010000000000000000000000000000000000000000000000000000000000000001000000000000000000000000000000000000000000000000000000000000000011000000000000000000000000000000000000000000000000000000000000000000101000000000000000000011100011100000000000000000000000000000000000000000000000000000000000000000000000000000000000000000000000000001000000000000000000000000000000000000000000000000000000000000000000000100000000000000000000000000000000000000000000000000000000000000000000000000000000000000000000000000000000000000000000000000000000001111000110000000000000000000000000000000000000000000000000000000000000000000000000000000000000100000000000000000000000000000000000000000000000000000000000000000000000000000000000000000010001000000000001100000100000000000000000000000000000000000000000000000000000000000000000000000000000000000001000000000000000000000000000000000000000000000000000000000000000000000000000000000000000000000011000000000000010011000000000000000000000000000000000000000000000000000000000000000000000000000000000000010000000000000000000000000000000000000000000000000000000000000000000000000000000000000011000000000000000000000011000000000000000000000000000000000000000000000000000000000000000000000000000000000000000000000000000000000000000000000000000000000000000000000000000000000000000000000000000000101100000000110000000000000000000000000000000000000000000000000000000000000000000000000000000000000000000000000000000000000000000000000000000000000000000000000000000000000000000000000000000000000000000001000000001100000000000000000000000000000000000000000000000000000000000000000000000000000000000000000000000000000000000000000000000000000000000000000000000000000000000000000000000000000000000000000001001000000000000000000000000000000000000000000000000000000000000000110000000000000000000000000000000000000000000000100000000000000000000000000000000000000000000000000000000000000000000000000000000000010100000000000000000000000000000000000000000000000000000000000000010010000000000000000000000000000000000000000000001000000000000000000000000000000000000000000000000000000000000000000000000000000000000011000000000000000000000000010000000000000000000000000000000000000100100000000000000000000000000000000000000000000010000000000000000000000000000000000000000000000000000000000000000000000000000000000000000000000000000000000000001010000000000000000000000000000000000000110000000000000000000000000000000000000000000000000000000000000000000000000000000000000000000000000000000000001101100000000000000000000010000000000000000000000010100000000000000000000000000000000000000000000000000000000000000000000000000000001101100011100000000000000000000000000001000000000000000000000001101001011000000110000000000001100000000000000000000000010000000000000000000000000000000000110000000000000000000000000000000000000000000101010000000000000000000000100000000000101000000000000000000000011011000100000111100000000000100000000000000000000000000000000000000000000000000000000000001100000000000000000000000000000000000000000010010000100000000000000000011000000000001010000000000000000000000110100001100010000100000000000100000000000000000000000000000000000000000000000000000000000000000000000011000000000000000000000000000000011000001000000000000000000101000000000001000000000000000000000000000000110101000111000000000000010000000000000000000000000000000000000000000000000000000000000000000001001000000000000000000000000000000000000010000000000000000000100000000000000000000000000000000000000000001110110010100000000000000000000000000000000000000000000010000000000000000000000000000000000000010100000000000000000000000000000000000000000000000011000000000110000000000000000000000000000000000000010000000001000000000000000001110000000000000000000100000001010000000000000000000000000000000000000010000000000000000000000000000000000000000000000001001000000000110000000000000000000000000000000000000111000010010100000000000000011000000000000000000110110000010010000000000000000000000000000000000000000000000000000000000000000000000000000000000000001100000000000111000000000000000000000000000000000010000001000010000000000000000110000000000000000001101100000011000000000000000000000000000000000000000000000000000000000000000001000000000000000000000000000000011000010000000000000000000000000000000000011100100000000000000000000000000000000000000000111010000000000000000000000000000000000000000000000000011000000000000000000000010000000000000000000000000000010010010110000000000000000000000000000000000000100000000000000000000000000000000000000000000001110000000000000000000000000000000000000000000000000110000000000000000000000100000000000000000000000000000100001101100000000000000000000000000000000000000000000000000000000000000000001110000000000000000000000000000000000000000000000000000000000000000000000000000000000000000000000000000000000000000000000000000001001000000000000000000000000000000001000000000000000000000000100000000000000000000000000000000000000000000000000000000000000000000010000000000000000000000000000000000000000000000000000000000000000000001100000000000000000000000000000000100000000000000000000000001100000000000000000000000000000000000000000000000010000000000000000001010000000000000000000000000000000000000000000000000000000000000000000000000000000000000000000000000000001110000000000000000000000000100000000000000000000000000000000000000000000001110000000000000000010010000000000000000000000000000000000000000000000000000000010000000000000000000000000000000000000000000000000000000000000000000000010100000000000000000000000000000000000000000000100100000000000011000011000000000000000000000000000000000000000000000000000000000100000000000000000000000000000000000000000000000000000000000000000011000110000000000000000000000000000000000000000000000110100000000000110000000000000000000000000000000000000000000000000000000000000001000000000000000000000000000000000000000000000000000000000000000000010110000000000000000000000000011000000000000000000001101100000000000000000000000000000000000000000000000000000000000000000000000000000000000000000000000000000000000000000000000000000000000000000000000010100000000000000000000000000110000000000000000000011001000000000000000000000000000000000000000000000000000000000000000000000000000000000000000000000000000000000000000000100000000000000000000000000000010000000000000000000000000000000000000000000000010100000000000000000000000000000000000000000000000000000000000000000000000000000000000000000000000000000000000000000000011100000000000000000000000000000000000000000000000000000000000000000000000000000001011010000000000000000000000000000000000000000000000000000000000000000000000000010000000000000000000000000000000000000111000000000000000000000000000000000000000000000000000000000000000000000000000000000000001010000000000000000000000000000000000000000000000000000000000000000000000100000000000000000000100000000000010000000001000000000000000000000000000000000000000000000000000000000000000000000000000001000000100000000000000000000000000000000000000000000000000000000000000000000001000000000000000000010100000000001110001000111000000000000000000000000000000000000000000000000000000000000000000000000000000001101000000000000000000000000000000000000000000000000000000001100000000000000000000000000000000100100000000101100010001101000000000000000000000000000000000000000000000000000000000000000000000000000000000000000000000000000000000000000000110000000000000000000000101000000000000000000000000000110000110000000011011000100011011000000000000000000000000000000000000000000000000000000000000000000000000011011100000000000000000000110000000000001100000000000000000000000010000000000000000000000000001100000000000000011110000000111100000000000000000000000000000000000000000000000000000000000000000000000000100011000000000000000000001100000000000000000000000000000000000000000000000000000000000000000000000000000000000000001000100000000000000000000000000000000000000000000000000000000000000000000000000000001010000000000000000000000000000000000000000000000000000000011000000000000000000000000000000000000000000000000000011000000011000000000000000000000000000000000000000000000000000000000000000000000000000001100000000000000000000000000000000000000000000000000000000110000000000000000000000001110000000000000000000010000010000000100000000000000000000000000000000000000000000000000000000000000000000000000000000000100000000000000000000110000011000000000000000000000000000000000000000000000000000000000000000000000000001000000000000000110000000000000000000000000000000000000000000000000000000000000000000000000000001010000000000001100010010000110000000000000000000000000000000000000110000000000000000000000000000000010001000000000000010000000000000000000000000000000000000000000000000000000000000000000000000000000100010000000000011000010100000000000000000000000000000000000000000001010000000000000000000000000000000110110000000000000011000000000000000000000000000000000000000000000000000000011000000000000000000001000100000000000000000010000000000000000000000000000000000000000000010010000000000000000000000000000000000000000000000001100000000000000000000000000000000000000000000000000000001001000000000000000000011000100000000000000000000000000000000000000000000000000000000000000000100000000000000000000000000000000000000000000000011000000000000000000000000000000000000000000000000000000010010000000000000000000111011000000000000000000000000000000000000000000000000000000000000000101100000000000000000000000000000000000000000001111010000000000000000000000000000000000000000000110000000000011000000000000000000011001100000000000000000000000000000000000000000000000000000000000000110110000000000000000000000001100000000000000000100010100000000000000000000000000000000000000000001100000000000000000000000000000000111111110000000000000000000000000000000000000000000000000000000000000010000000001100000000000000011000000000000000001000010000000000000000000000000000000000000000000000000000000000000000000000000000000011001100000000000000000000000000000000000000000000000000000000000000000000000100100000000000000000000000000000000010001000000000000000000000000000000000000000000000000000000000000000000000000000000001101110000000000000000000000000000000000100000001110000000000000000000000000000110000000000000000000000000000000000000000000000000000000000000000000000000000000000000000000000000000000000000000000000010001100000000000000000000000000000000001000000100100000000000000000000000000000000000000000000000000000000000000001001000000000000000000000000000000000000000000000000000000000000000000000000000000000010001000000000000000000000000000000000010000001100110000000000000000000000000000000000000000000000000000000000000010000100000000000000000000000000000000000000000000000000000000000000000000000000000000100010000000000000000000000000000000000000000010010100000000000000000000000000000000000000000000000000000000000000001110000000000000000000000000000000000000000000000000000110000000000000000000000000000111000000000000000000000000000000000000000000000101000000000000000000000000000000000000000000000000000000000000000011100000000000000000000000000000000000000000000000000010010000000000000000000000000000100000000000000000000000000000000000000000000000000000000000000000110000000000000000000000000000000000000000000000000000000000000000000000000000000000000000000000000000011000000000000000000000000000000000000000000000000000000000000000000000010001001000000000000000010010000000000000000000000000000000000000000000000000000000000000000000000000000000000000000000000000000000000000000000000000000000000000000000000000000000000000000000000000000110010000000000000000000011000000000000000000000000000000000000000000000000000000000000000000000000000000000000000000000000000000000000000000000000000000000000000000000000000001110000000000000000000001000100100000000000000000000000000000000000000000000000000000000000010000000000000000000000000000000000000000000000000000000000000000000000000000000000000000000000000000000000011100000000000000000000000000000000000000000000000000000000000000000000000000000000000000001010000000000000000000000000000000000000000000000000000000000000000000000000000000000000000000000000000000100000100000000000000000000000000101000000000000000000000000000000000000000000000000000000000010100000000000000000000000000000000000000000000000000000000000000000000000000000000000000000000000000000011000110000000000000000000000001001010000000000000000000000000000000000000000000000000000000000010000000000000000000000000000000000000000000000000000000000000000000000000000000000000000000000000000000110011000000000000000000000000011001100000000000000000000000000000000000000000001100000000000000000000000000110000000000000000000001000000000000000000000000000000000000000000000000000000000000000000000000110000000000000000000000000100100000000000000000000000000000000000000000000011000000000000000000000000110010000000000000000000101000000000000000000000000000000000000000000000000000000000000000000000000000000000000000000000000000111000000000000000000000000000000000000000000000000000000000000000000000000101100000000000000000000100000000000000000000000000000000000000000000000001000000000000000000000000000000000000000000000000000000000000000000000000000000000000000000000000000000000000000000000000001101100000000000000000010000000000000000000000000000000000000000000000000000111000000000000000000000000000000000000000000000000000000000000000000000000000000000000000000000000000000000000000000000000011100000000000000000001010000000000000000000000000000000000000000000000000011001000000000000000000000000000010000000000000000000000000000000000000000000000000000000000000000000000000000000000000000000100000000000000000000000000000000000000000000000000000000000000000000000000011111000000000000000000000000000100001100000000000000000000000000011000000000000000000000000000000000000000000000000000000001100100000000000000000000000000000000000000000000000000000000000000000000000011110000000000000000000000000001000100100000000000000011010000000110000000000000000000000000000000000000000000000000000000001110000000000000000000000000000000000000000000000000000000000000000000000000111100000000000000000000000000000000110000000000000001111000000000000000000000000000000000000000000000000000000000000000000001000000000000000000000000000000000000000000000000000000000000000000000011010110000000000000000000000000000000000000000000000000110000000000000000000000000000000000000000000000000000000000000000000000000000000000000000000101000000000000000000000000000000000000000001000000100001000000000000000000000000000000000000000000000000000000000110000000000000000000000000000000000000000000000000000000000000000000000000000000000000100000000100000000000000000000000000000000101000001001100000000000000000000000000000000000000000000000000000000010010000000000000000000000000000000000000000000000000000000000000000000000000000000000000000000001000000010000000000000000000000010010000001111000000000000000000000000000010000000000000000000000000000100100000000000000000000000000000000000000000000000000000000000000000000000000000000000000000000010101000110000000000000000000000011000000001000000000000000000000000000000100000000000000000000000000000110000000000000000000000000000000000000000000000000000000000000000000000000000000000000000000000001110000111000000000000000000000000000000000000000000000000000000000000001000000000000000000000000000000000000000000000000000000000000000000000000000000000000000000000000000000000000000000000000011100000000000110000000000000000000000000000001000000000000000000000000000000000000000000000000000000000000000000000000000000000000000000000000000000000000000000000000000000000000000000000000000000000000000000000010010000000000000000000000000000101000000000000000000000000000000000000000000000000000000001100000000000000000000000000000000000000000000000000000000011100000000000000000000000000000000000000100000100000100000000000000000000000110000010000000000000000000000000000000000000000000000000000000100100000000000000000000000000000000000000000110000000000000101000100000000000000000000000000000000001000001000010000000000000000000000010110010100000000000000000000000000000000000000000000000000000000110000000000000000000000000000000000000000010010000000000001000110100000000000000000001000000000000010000010001000000000000000000000000100100100000000000000000000000000000000000000000000000000000000000000000000000000000000000000000000000000000010100000000000000011001000000000000000000010000000000000000000000000000000000000000000000001101101110000000000000000000000000000000000000000000000000000000000000000000000000000000000000000000000000000010000000000100000001010000000000000000000100000000000000000000000000000000000000000000000001001100100000000000000000000000000000000000000000000000000000000000000000000000000000000000000000000000000000000000000011100001010100000000000000000000000000000000000000000000000000000000000000000000001000001000000000000000000000000000000000000000000000000000000000000000000000000000000000000000000000000000000000000001001100100001000000000000000111000111000000000000000000000000110000000000000000000001001100000000000000000000000000001000000000000000000000000000000000000000000000000010000000000000000000000000000000011100000100000000000000000000000000000000000000000000000000001100000000000000000000001100000000000000000000000000000101000000000000000000000000000000000000000000000000100000000000000000000000000000000000000001110000000000000000000001000000000000000000000000000000000000000000000000000000000000000000000000000000000001001000000000000000000000000000000000000000000000001000000000000000000000000000000000000000000000000000000000000000010000000000000000000000000000000000000000000000000000000000000000000000000000000000001100000000000000000000000000000000000000000000000000000000000000000000000000000000000111000000000000000000000000000100000000000000000000000000000000000000000000000000000000000000000000000000000000000000000000000000000000000000000000000000000000000000000000000000000000000000000000000000000000000000000000000000000000000000000000000000000000000000000000000000000000000000000000000000000000000000000000000000000000000000000000000000000000000000000000000000000000000000000000000000000000010100000000000000000000000000000000000000000000000000010000000000000000000000000000000000000000000001110000000000000000000000000000000000000000000000000000000000000000000000000000000000000000000000000010000000000000000000000000000000000000000000000000001110000000000000000000000000000000000000000000000000000000000000000000000000000000000000000000000000000000000000000000000000000000000000000000000000000000000000000000000000000000000000000000000000000100110000000000000000000000000000000000000000010000010000000000000000000000000000000000000000100000000000000000000000000000000000000000000000000000000000000000000000000000000000000000001000000000000011000000000000000000000000000000000000000000000100000100000000000000000000000000000000000000110110000000000000000000000000000000000111000000000000000000000000000000000000000000000000000101100000000000101000100000000000000000000000000000000000000001000001000000000000000000100000000000000000000010000000000000010000000000000000000000000000000000000000100000100000000000000000000000000001011000000000000110000000000000000000011000000000000000000000000000000000000000000000010100000000000000000000000000000000001010000000000000000000000000000000000000001000001000000000000000000000000000001001110000000000110000100000000110000110000000000000000000000000110000000000000000000101000000000000001010000000000000000010100000000000000000000000000000000000000010000010001100000000000000000000000000000100000000000110001110000001100000000000000000000000000000010010000000000000000000100000000000000110110000000000000000010000000000000000000000000000000000000000000000000100100000000000000000000000000101000000000011000010000000000000000000000000000000000000000100100000000000000000000000000000000000100000000000000000000000000000000000000000000000000000000011100011100000110000000000000000000000000001100000000001100000000000000000000000000000000000000000000001001000000000000000000000000001100000001000100000000000000000000000000000000000000000000000000000000000000000000000000000000000000000000000000000000000101000100000000000000000000000000000000000011100001100000000000000000000000000011000000010001100000000000000000000000000000000000000000000000000000000100000000000000000000000000000000000000000000110001100000000000000000011000000000000000000000000000000000000000000000000000000000000000000000100100000000000000000000000000000000000000000000000000000001000000000000000000000000000000000000000000001100001001100000000000001001000000000000000000000000100000000000000000000000000000000000001100100100100000000000000000000000000000000000000000000000000000010000000000000000000000000000000000000000000000000001110000000000000001010000000000000000000000001000000000000000000000000000000000000010000110010000000000000000000000000000000000000000000000000000000000000000000000000000000000000000000000000000000000001000000000000000001000000000000000000000000010000000000000000000000000000000000000011101100100000000000000000000000000000000000000000000000000000000000000000000000000000000000000000000000000000000000000000000000000000000000000000000000000000000000000000000000000000000000000000000000000010010000000000000000000000000000000000000000000000000000000000000000000000000000000000000000000000000000000000000000000000000000000000000000000000000000000000000000000000000000000000000000000000000000001000000000000000000000000000000000000000000000010000000000000000000000000000000001100000000000000000000000000000000000000000000000000000000000000000000000000000000000000000000000000000000000000000000000000000000000000000000000000000000000000000001010000000000000000000000000000000011000000000000000000000000000000000000000000000000000000000000000000000000000000000000000000000000000000000000000000000000000000000000000000000000000000000000000000010100000000000000000000000000000000000000000000000000000000000000000000000000000000000000000000000000000000000000000000000000000000000000000000000000000000000000000000000000000000000000000000000000000010000000000000000000000000000000000000000000001100000000000000000000000000000000000000000000000000000000000000000000000000000000000000000000000000000000000000000000000000000000000000000000000000000000000000000000000000000000000000000000000000000011000000000000000010000000000000000000000000000000000000000000000000000000000000000000000000000000000000000000000000000000000000000000000000000000000000000000000000000000000000000000000000000000000000000000000000000001010000000000000000000000000000000000000000000000000000000000000000000000000000000000000000000000000000000000000000000000000000000000000000000000000000000000000000000000000000000000000000000000000000010100000000000000000000000000000000000000000000000000000000000000000000000000000000000000000000000000000000000000000000000000000000000000000000000000000000000000000000000000000000000000000000000000000010000000000000000000000000000000000000000000000000000000000000000000000000000000000000000000000000000000000001110010000000000000000000000000000000000000000000000000000000000000000000000000000000000000000000000000000000000000000000000000000000000000000000000000000000000000000000000000000000000000000000000000100010000000000000000000000000000000000000000000000000000000110000000000000000000000000000000000000000000000000000000000000001110000000000000000000000000000000000000000000000000000000000000000000000001110110000000000000000000000000000000000000000000000000000001010000000000000000000000000000000000000000000000000000000000000100010000000000000000000000000000000000000000000000000000000000000000000100000000000000000000000000000000000000000000000000000000000000001000000000000000000000000000000000000000000000000000000000000001000100000000000000000000000000000001100000000000000000000000000000000010100000000000000000000000000000000000000111000000001100000011000000000000000000000000000000000000000000000000000000000000000001100000110000000000000000000000000000011000000000000000000000000011000000101000110000000000000000000000000000000001000000000011000001001000000000000000000000000000000000000000000000000111000000000000100001000010000000000000000000000000000000000000000000000000000000110000000100001010000000000000000000000000000000110000000000000000010100000000000000000000000000000000000000000000000000000000000000001000101000100000000000000000000000000000000000000000000000000000000000000000000001000000000000000000000000000000001100000000000000000010000000000000000000000000000000000000000000000000000000000000000010000100001000000000000000000000000000000000000000000000000000000000000000000000000000000000000000000000000000000001100000000000000000000000000000000000000000000000000000000000000000000000000000000000011000001100000000000000000000000000000000000000000000000000000000000000000000000000000000000000000000000000000000001100111000000000000000000000000000000000000000000000110000000000000000000000000000000001000100000000000000000000000000000000000000000000000000000000000000000000000000000000000000000000000000000000000001111101000000000000000000000000000000000000000000010010000000000000000000000000000000010001000000000000000000000000000000000000000000000000000000000000000000000000000001000000000000000000000000000000100000100000000000000000000000000000000000000000000101000000000000000000000000000000000011100000000000000000000000000000000000000001110000000000000000000000000000000000101000000000000000000000000000010010000000000000000000000000000000000000000000000000100000000000000000000000000000000110000000000000000000000000000000000000000000000000000000000000000000000000000000000100000000000000000000000000000000000000000000000000000000000000000000000000000000000000000000000000000000000000000001100000000000000000001100110000000000000000000000000000000000000000000000000000000000000000000000000000000000000000000000000000000000000000000000000000000000000000000000000000000000000000000001110000000000000000000000000011001100000000000000000000000000000000000000000000000000000000000000000000000000000000000000011011000000000000000000000000000000000000000000000000000000001100000000000000000000000000000000000000001100000000000000000000000000000000000000000000000000000000000000000000000000000000000000000000000000110000110000000000000000000000000000000000000000000000000100100000000000000000000000000000000000000011000000000000100000000000000000000000000000000000000000000000000000000000000000000000000000000000000000010010000000000000000000000000000000000000000000000001010000000000000000000000000000000000000000000000000000010100000000000000000000000000000000000000000000000000000000000000000000000000000000000000000011000000000000000000000000000000000000000001000000001000000000000000000000000000000000000000000000000000000101000000000000000000000000000000000000000000000000000000000000000000000000000110000000000000000000000000000000000000000000000000000000101000000000000000000000000000000000000000000000000000000000000000100000000000000000000000000000000000000000000000000000000000000000000000000010010000000000000000000000000110000000000000000000000000000110000000000000000000000000000000000000000000000000000000000000000000000000000000011000000000000000000000000000000000000000000000001000000000100100000000000000000000000010100000000000000000000000000000000000000000000000000000000000001110000000000000000000000000000000000000000000000110000000000000000000000000000000000000000000000101000000000110000000000000000000000000010000000000000000000000000000000000000000000000000000000000000000000110000000000000000000000000000000000000000000000000000000000000000000000000000000000000000010010000000000000000000000000000000000000000000000000000000000000000000000000000000000000000000000000000000010010000000000000000000000000000000000000000000000000000000000000000000000000000000000000000011000000000000000000000000000000000000000000000000000000000000000000000000000000000000000000000000000000000101000000000000000000000000000000000000000000000000000000000000000000000000000000000000000000000000000000000000000000000000000000000000000000000000000000000000000000000000000000000000000000000000000000100000000000000000000000000000000000000000000000000000000000000000000000000000000000000000000000000000000000000000000000000000000000000000000000000010000010000000000000000000000000000000000000000011000000000000000000000000000000000000000000000000000000000000000000000000000000110000000000000000000000001100000000000001101000000000011000000000000011010001011000000000000000000000000000000000000000110000000000000000000000000000000000000000000000000000000000000000000000000000001010000000000000000000000100100000000100011011000000000110000000000001000100010001000000000000000000000000000000000000000000000000000000000000000000000000000000000000000000000000000000000000000000100100100000000000000000000000101000000001000000001000000000000000000000010000101000010000000000000000000000000000000000000000000000000110000000000000000000000000100000000000000000000000000000000000010001110000000000000000000000000100000000100011000110000000000000000000000110000100001100000000000000000000000000000000000000000000000001100000000000000000000000001000000000000000000000000000000000001100100100000000000000000000000000000000000110110000000000000000000000000000010000000100000000000000000000000000000000000000000000000000000000000000000000000000000010000000000000000000000000000000000001101100000000000000000000000000000000000001110000000000000000000000000000000101000100000000000000000000000000000000000000000000010100000000100000000000000000000000000000000000000000000100000000000000001111000000000000000000000000000000000000000100000000000000000000000010000000010001000000000000000000000000000000000000000000000100100000010100000000000000000000000000000000011000000001000000000000000000000000000000000000000000000000000000000000111000000000000000000001001110000010000000000000000000000000000001100000000000000001001000001001000000000000000000000000000000000110000000000000000000000000000000000000000000000000110000000000000001100001000000000000000000111010000001011000000000000000000000000000011000000000000000000101000001100000000000000000000000000000000000000000100000100000000000000000000000000000000000010010000000000000001010001000000000000000000000000001110000000000000000000000000000000000000000000000000000100000000000000000000000000000000000000000000000001110111000000000000000000000000000000000000100100110001100000001100101011000000000000000001000001100000000000000000000000000000000000000000000000000000000000000000000000000000000000000000000000000000010000010000000000000000000000000000000000000110001100100100000000000011011000000000000000111110100000000000000000000000000000000000000000000000000000000000000000000000000000000000000000000000000000000000000000000000000000000000000000000000000000000000000101000000000010000110000000000000010100110000000000000000001000000000000000000000000000000000000000000000000000000000000000000000000000000000000000000000000000000000000000000000000000000000000000000000100000000000011101000000000000000100000000000000000000000101000000000000000000000000000000000000000000000000000000000000000000000000000000000000000000000000000000000000000000000000000000000000000000000000000000000011100000000000000001100000000000000000000001010000000000000000000000000000000000000000000000000000000000000000000000000000000000000100000100000000000000000000000000000000000000000000000000000000000000000000000000000000001000000000000000000000001000000000000000000000000000000000000000000000000000000000000000000000000000000000000001110111000000000000000000000000000000000000001000000000000010000000000000000000000000000000000000000000000000000000000000000000000000000000000000000000000000000000000000110000000000000000000000000000010000010000000000000000000000000000000000000010000000000011011000000000000000000000111000000000000000000000000000000000000000000000000000000000010000000000000000000000001100000000000000000000000000000000000000000000000000000000000000000000000000100000000000000000000000000000000000000000000000000000000000000000000000000000000000000000000000000100000000000000000000000000000000000000000000000000000000001000000010000000000011000000000000000000000000000000000001010000000000000000001000001000000000000000000000000000000000000000000000000000000001000000000000000000000000000000000000000000000000000000000010000001110000000001001000000001100000000000000000000001000100000000011000000010000010000000000000000000000000000000000000000000000000000000000000000000000000000000000000000000000000000000000000000000000000010010000000010010000000101000000000000000000000010011000000001010000000100000100000000000000000000000000000000000000000000000000000000000000000000000000000000000000000000000000000000000000000000000010000110000000011000000000100000000000000000000000011100000000010010010000000000000000000000000000000000000000000000000000000000000000000000000000000000000000000000001100000000000000000000000000000001000001100000000000000000000000000000000000000000000010000000000011100010000111000000000000000000000000000000000000000000000000000000000000000000000000000110000000000100100000000000000000000000000000001000010000000000000000000000000000000100000000000000000000000000100100110000000000000000000000000000000000000000000000000000000000000000000000000000000001100000000000110000000000000000000000000000000001111000000000000000000000000000000010100000000000000000000000000011011000000000000000000000000000000000000000000000000000000000000000000000000000000000000000000000000000000000000000000000000000000000000100000000000000000000000000000001010000000000000000000000000000111100000000000000000000000000000000000000000000000000000000000000000000000000000000000000000000000000000000000000000000000000000000000000000000000000000000000000000000101000000000000000000000000000000000000000000000000000000000000000000000000000000000000000000000000000000000000000000000000000000000000000000000000000000000000000000000000000000000000000000000000000000100000000000000000000000000000000001100000000000000000000000000000000000000000000000000000000000000010000000000000000000000000000000000000000000000000000000000000000000000000000000000000000000000000000000000000000000000000000000000000011000000000000000000000000000000000000000000000000000000000000000100000000000000000000000000000000000000000000000000000000000000000000000000000000000000000000000000000000000000000000000000000000000000000000000000000000000000000000000000000000000000000000000000000001000000000000000000000000000001000000000000000000000000000000000000000000000000000000000000000000000000000000000000000000000000000000000000000000000000000000000000000000000000000000000000000000000000000000000000000000000000000000101000000000000000000000000000000000000000000000000000000000000000000000000000000000000000000000000000000000000000000000000000000000000000000000000000000000000000000000000000000000000000000000000000001010000000000000000000000000000000000000000000000000000000000000000000000000000000000000000000000000000000000000000000000000000000000000000000010000000000000000000000000000000000000000000000000000000001000000000000000000000000000000000000000000000000000000000000000000000000000000000000000000000000000000000000000000000000000000000000000000000010000000000000000000000011100000000000000000000000000000000000000000000000000000000000000000000000000110000000000000000000000000000000000000000000000000000000000000000000000000000000000000000000011010100000000000000000000000000000000000000000000000000000000000000000000000011000000000000000000000000001100000000000000000000000000000000000000000000000000000000000000000000000000000000000000000000111010000000000000000000000000000000000000000000000000000000000000000000000000110000111000000000000000000000000000000000000000000000000000000000000000000000000000000000000000000000000000000000000000000000000000000000000000000000000000000110000000000000000000000011000000000000000000000000000000000000000000000000000000000000000000000000000000000000000000000000000000000000000000000000000000000000000000000000000000000000000000000000000001010000000000000000000000110000000000000000000000000000000000000000000000000000000000000000000000000000000000000000000000000000000000000000000000000000000000000000001000000000000000000000000000000000001100000000000000000000000000000000000000000000000000000000000000000000000000000000000000000000000000000000000000000000000000000000000000000000000000000000000000000010000000000000000000000000000000000000000000000000000000000000000000000000000000000000000000000000000000000000000000000000000000000000000000000000000000000000000000000000000000000000000000000000000000000000000000000