P1
200 200
0000000000000000000000000000000000000000000000000000000000000000000000000000000000000000000000000000000000000000100000000000000000000000000000000000000000000000000000000000000000000000010000000000000000000000000000000000000000000000000000000000000000000000000000000000000000000000000000000000000000000000010000010100000000000000000000000000000000000000000000000000000000000000000000001010000000000000011000000000000000000000000000000000000000000000000000000000000000000000000000000000000000000000000000001010000100100000000100000000000000000000000000000000000000000000000000000000000010100000000000000010000000000000000000000000000000000000000000000000000000000000000000000000000000000000000000000000000011000000110000000010100000000000000000000000000000000000100000000000000000000000010000000000000010000001100000000000000000000000000000000000000000000000000000000000000000000000000000000000000000000000000000000000000000101000000000000000000000000000011100010100000000000000000000000000011100000000110000001000000000000000000000000000000000000000000000000000000000000000000000011000000000000000000000000000000000000000000100000000000000000000000000000000000100100000000000000000000000000000000000000000010001000000000000000000000000000000000000000000000000000000000000000000000110000000000000000000000000000000000000000000000000000000000000000000000000000000110000000000000000000000000000000000000011001111110000000000000000000000000000000000000000000000000000000000000000000000000000000000000000000000000000000000001100000001100000000000000000000000000000000000000000001100000000000000000000000000101000001100000000000000000000000000000000000000000000000000000000000000000000000000000000000000000000000000000000000100100000100100000000000000000000000000000000000000000011000000000000000000000000001101011000000000000000000000000000000000000000000000000000000000000000000000000000000000000000000000000000000000000000110000000110000000000000000000000000000000000000000000000000000000000000000000000001101100000000000000000000000000000000000000000000000000000000000000000000000000000000000000000000000000000000000000000000000000000000000000000000000000000000000000000000000000000000000000000001100000000011000011000000000000000000000000000000000000000000000000000000000000000000000000000000000000000000000000000000000000000100000000000000000000000000000000000000000000000000000000000000000000011000000000111000110000000000000000000000000000000000000000000000000000000000000000000000100000000000000000000000000000000000000010100000000000000000000000000000000000000000000000000000000000000000000000000000111110000000000000000000000000000000000000000000000000000000000000000000000000001000000000000000000000000000000000000000101000000000000000000000000000000000000000000000000001000011000000000000000000010011100000000000000000000000000000000000000000000000000110000000000000000000000010000000000000000000000000000000000000000100000000000000000000000000000000000000000000000000110001001000000000000000000100100000000000000000000000000000000000000000000000000010010000000000000000000000000000000000000000000000000000000000000000000000000000000000000000000000000000000000000000001100010100000000001111100001010000000000000000000000000000000000000000000000000000101000000000000000000011100011100000000000000000000000000000000000000000000000000000000000000000000000000000000000000000000010000000000001011000000000000000000000000000000000000000000000000000000000000100000000000000000000000000000000000000000000000000000000000000000000000000000000000000000000000000000000000000000000000000000000000000101100000000000000000000000000000000000000000000000000000000000000000000000000000000000000000000000000000000000000000000000000000000000000000000000000000000000000000000000000000011000000000000000000010001000000000000000000000000000000000000000000000000000000000000000000000000000000000000000000000000000000000000000000000000000000000000000000000000000000000000000000000000000000110000000000100000000110110000000000000000000000000000000000000000000000000000000000000000000000000000000000000000000000000000000000000000000000000000000000000000000000000000000000000000000000000000000000000000001000000010001000000000000000000000000000000000000000000000000000000000000000000000000000000000000000000000000000000000000000000000000000000000000000000000000000000000000000000000000000000000000000000010000000000000000000000000000000000000000000000000000000000000000000000000000000000000000000000000000101000000000000000000000000000000000000000000000000000000000000000000000000000000000000000000000000000000010110000000000000000000000000000000000000000000000000000000000000000000000000000000000000000001001000000000000000000000000000000000000000000000000000000000010000000000000000000000000000000000000000011001000000000000000000000000000000000000000000000110000000000000000000000000000000000000000000010010000000000000000000000000000000000000000000000000000000001110000000000000000000000000000000000000001100000000000000000000000000000000110000000000000010010000000000000000000000000000000000001010000011100000000000000000000000000000000000000000000000000000000100100000000000000000000000000000000000000110001000000000000000000000000000000000000000000000100100000000000000000000000000000000000010010000000000000000000000000000000000000000000000000000000000000000110000000000000000000000000000000000000000100111000000000000000000000000000101000000000000000110000000000000000000000000000000000000100000000000000000000000000000000000000000000000000000000000000000000000000000000000000000000000000000000000000101101000000000000000000000000000000000000000000000000000000000000000000000000000000000001000000000000000000000000000000000000000001000000000000000000000000000000000001100000000000000000000000000000000000000111000000000000000000001110001100000000110000000000000000000000000000000000000000001010000000000000000000000000000000000000101000000000000000000000001110110000011000000000000000000000000000000000000010110000000000000000000010000100100000001100000000000000000000000000000000000000000001000000110000000000000000000000000000001010000000000000000000000011111010000000000000000000000000000000000000000000101000000000000000000000000000110000000000000000000011000000000000000000000000000000000000001100000000000000000000000000000001000000000000000000000001000000110000000000000000000000000000000000000000011000000000000000000000000000001000000000000000000001001000000000000000000000000000000000000000000000000000000000000000000000000000000000000000000000011001001000000000000000000000000000000000000000000111000000000010000000000000000000000000000000000000010100000000000000000000000000000000000000000000000011000000000000000000000000000000000000000000000000000000000000000000000000000000000000000000000000010000000001010000000000000000000000000000000000000010000000000000000000000000000000000000000000000001001000000000000000000000000000000000000000000000000101000000000000000000000001000000000000000000000110000000010010000000011100000000000000000000000000000000000000000000000000000000000000000000000000001100000000000000000000000000000000000000000000000001100000000000000000000000101000000000000000101000110000000011000000010000110000000000000000000000000000000000000000000000000001000000000000000000000000000010000000000000000000000000000000000000000000010000000000000000000000001010000000000000001010011000000000000000000100000100000000000000000000000000011000000000000000000000010000000000000000000000000000101000000000000000000000000000000000000100000000000000000000000000000001000000000000000010000100000000000000000010001111000000000000000000000000000110000000000000000000000100000000000000000000000000001000000000000000000000000000000000000010100000000000000000000000000000000000001110000000011110000000000000000000011000000000000000000000000000000000000000000000000000000000000000000000000000000000000000000000000000000000000000000000000000101000000000000000000000000000000000000000000000000110100000000000000000000111000000000000000000000010000000000000000000000000000000000000000000000000000000000000000000000000000000000000000000000000000100000000000000000000000000000000000000000000000001000000000000000000000000011000000000000000000001010000000000000000000000000000000000000000000000000000011100000000000000000000000000000000000000000000000000000000000000000000000000000000000000000000110011000000000000000000000000000000000000000000010010000000000000000000000000000000000000000000000000000010001111000000000000000000000000000000001100000001100000000000000000000000000000000000000000000111100000000000000000000000000001100000000011000011000000000000000000000000000000000000000000000000000000000010001100000000000000000000000000000100100000100100000000000000000000000000000000000000000000110000000000000000000000000000011100000000110000000000000000000000000000000000000000000000000000000000000000111100000000000000000000000000000000110000000110000000000000000000000000000000000000000000000000011000000000000000000000010001000000000000000000000000000000000000000000000000000000000000000000000000000000000000000000000000000000000000000000000000000000000000000011000000000000000000000000000000000110000000000000000000010001000000010000000000000000000000000000000000000000000000000000000000000000000000000000000000000000000000000000000000000000000000000000000001001000000000000000000000000000000000000000000000001000001000000000000100000000000000000000000000000000000000000000000000000000000000000000000000000000000000000000000000000000000001100000000000000000001100000000000000000000000000000000000000000000000010100100000100000001000000000000000000000000000000000000000000000000000000000000000000010000000000000000000000000000000000000000100100000000000000000000000000000000000000000000000000000000000000000000100100110001000000000000000000000000000000000000000000000000000000000000000000000000000100000000000000000000000001000000000000001000000000000000000000000000000000000000000000000000000000000000000000000011000111100001110001110000000000000000000000000000000000000000000000000000000000000001000000000000000000000000010000000001000100001000000000000000000000000000000000000000000000000000000000000000000000001101100000000000000000000000000000000000000000000000000000000000000000000000000000000000000000000000000000000000000000101100000000001100101000000000000000000000000000000000000000000000000000000000000010101000000000010000000000000000000000000000110000000000000000000000000000000000000000000000000000110000000000000000001001110000000111001001000000000000000000000000000000000000000000000000000000000000000000000000000100000000000000110000000000001100000000000000000000000000000000000000000000000000001100000000000000000000001111000010001000010000000000000000000000000000000000000000000000000000000000000111000000000001000000000000001100000000000000000000000000000000000000000000000000000000000000000000000000000000000000000000010001000111101100000000000000000000000000000000000000000000000000000000000000000000000000000000000000000000000000000000000000000000000000000000000000000000000000000000000000000000000000000000000000000000000001110100000000000000000000000000000000000000000000000000000000000000000000000000000000000000000000000000000000000000000000000000001100000000000000000000000001110000000000000000000000000000000000000000000000000000000000000000000000000000000000000000000000000000000000000000011000000000000000000000000110000011000000000000000000000100000000000000011000000000000000000000000000000000000000000000000000000000000000000000000000000000000000000000000000000000000000000000000000000100100000000000000001100010010000110000000000000000000000110000000000000101000000000000000000000000000000000000000000000000000000000000000000000000000000000000000000000000000000000000000000000000000010010011000000000000011000010100000000000000000000000000000000000000000000100000000000000000000000000000000000000000000000000000000000000000000000000000000000000000000000000000000000011000000000000001000100110000000000000000000010000000000000000000000000000000000000000000000000000000000000000000000000000000000000000000000000000000000000000000000000000000000000000000000000000000001001000000000000100100000000000000000000000000000000000000000000000000000001000000000000000000000000000000000000000000000000000000000000000000000000000000000000000000000000000000000000000000000000000010010000000000001000000000000000000000000000000000000000000000000000110000101000000000000000000000000000000000000000000000000000000000000000000000000000000000000000000000000000000000000000110000000000011000000000000010011000000000000000000000000000000000000000000000001100001010000000000000000000000000000000000000000001100000111000000000000000000000000000000000000000000000000000000000001100000000000000000000000000100010000000000000000000000000000000000000000000000000000001100000000000000000000000001100000000000000011000000000000000000000000000000000000000000000000000000000000000000000000000000000000000000000001001000000000000000000000000000000000000000000000000000010000000000000000000000000000100100000000000000000000000000000000000000000000000000000000000000000000000000000000000000000000000000000000000000010010000000000000000000000000000000000000000000000000001101001100000000000000000000000110000000000000000000000000000000000000000000000000000000000000000000000000000000000000000000000000000000000000000010100000000000000000000000000100000000000000000000100100011101000000000000000000000000000000000000000000000000000000000000000000000000000000000000000000000000000000000000000000000000000000000000000000010000000010000000000000000010100000000000000000000111111000100000000000000000000000000000000000000000000000000000000000000000000000000000000000000000000000000000000000000000000000000000000000000000000000000001100010100000000000101000000000000000000000000000011000000000000000000000000000000000000000000000000000000000000000000000000000000000000000000000000000000000000000000000110000000000000000000000000000011000010000000000000100000000000000000000000001000010000000000000000000000000000000000000000000000000000000000000000000000000000000000000000000000000000000000000000000010010000000000000000000000000000110010000000000000000000000000000000000000000010101001000000000000110000000000000000000000000000000000000000000000000000000000000000000000000000000000000000000000000000011000000000000000000000000000000000000000000000000000000000000000000000000000100000001000000000010010000000000000000000000000000000000000000000011000100000000000000000000000000000000000000000000000000000000000000000000000010000000000000000000000000000000000000000000000000000001000100010000000000011000000000000000000000000000000000000000001110000010000000000000000000000000000000000000000000000000000000000000000000000000100000000000000000000000000000000000000001100000000000001110000100000000000000000000000000000000000000000000000000000010000010000000000000000000000000000000000000000000000000000000000000000000000000001000000000000000000000000110000000011000010100000000000000001110000000000000000000000000000000000000000000000000000001110000011101000000000000000000000000000000000000000000000000000000000000000000000000111000000000000000000010010000001001000000000000000000000010000000000000000000000000000000000000000000000000000000000011010001011000000000000000000000000000000000000000000000000000000000000000000000001010000000000000000000011000000001010001001000000000001100000000000000000000000000000000000000000000000000000000000011011100111001000000000000000000000000000000000000000000000000000000000000000000000010000000000000000000000000000000001000010001000000000011000000000000000000000000000000000000000000001100000000000000110000001000010000000000000000000001000000000000000000000000000000000000000000000000011110000000000000000000000000000000000010001000000000000000000000000000000000000000000000000000000011000000000000000101100010000100000000000000000000101000000000000000000000000000000000000000000000000010000000000000000000000000000000000000010000000000000000000000000000000000000000000000000000000000000000000000000000110000000010010000000000000000000100000000000000000000000000000000000000001100000000011000000000000000000000000000000000000011100000001100000000000000000000000000000000000000000000000000000000000000000000000111000100000000000000000000000000000000000000000000000000000000001111000000000000000000000000000000000000000000000000000000000011000000000000000000000000000000000000000000000000000000000000000000000000000001000000000000000000000000000000000000000000000000000000001101000100000000000000000000000000000000000110000000000000000000000000000000000000000000000000000000000000000000000000000000000000000000000000000000000000000000000000000000000000000000000000000000000011100100001000010000000000000000000000000010010001100000000000000000000000000011000000000000000000000000000000000000000000000000000000000001110000000000000000000000000000000000000000000000000000000001010010000101101010000000000000000000000000100100100100000000000000000000000000110000000000000000000000000000000000000000000000000000000000000000000000000000000000000000000000000000000000000000000000111001101010100100010000000000000000000000000110000110000000000000000000000000000000000000000000000000000000000000000000000000000000000000000000000000000000000000000000000000000000000000000000000000000111010000000000101000000000000000000000000000000000000000000000000000000000000000000000000000000000000000000000000000000000000000000000000110000000000000000000000000000000000000000000000000000000000001111100000000000100000000000000000000000000000000000000000000000000000000110000000000000000000000000000000000000000000000000000000000000001100000000000000000000000000000000000001000000000000000000000001001000000000110000000000000000000000000000000000000000000000000000000010010000000000000000000000000000000000000000000000000000000000000000000000000000000000000000000000000000101000000000000000000000010001110000010010000000000000000000000000010000000000000000000000000000100100000000000000000000000000000000000000000000000000000000000000000000000000000000000000000000000000001010000000000000000000000010111000000100100000000000000000000000000100000000000000000000000000000110000000000000000000000000000000000000000000000000000000000000000000000000000000000000000000000000000001000000000000000000000000010000000000111000000000000000000000000001000000000000000000000000000000000000000000000000000000000000000000000000000000000000000000000000000000000000000000000000000000000000000000000000000000000000000000000000000000000000000000000000000000000000000000000000000000000000000000000000000000000000000000000000000000000000000000000000000000000000000000000000000000000000000000000000000000000000000000000000000000000000000000000000000000000000000000000000000000000000000001100000000000000000000000000000000000000000101001000100000000000000000000000000000000000000000000000000000100000000000000000000000000110001000000000000000000000000000000000000000000000000000000000000100100000000000000000000000000000000000000010000110001100000000000000000100000000000000000000000000000000001000000000000000000000000001100011110000000000000000000000000000000000000000000000000000000000110000000000000000000000000000000000000000010001011010100000000000000000100000000000001000000000000000000010000000000000000000000000100000101110001100000000000000000000000000000000000000000000000000000000000000000000000000000000000000000000000000001110111000000000000001011100000000000010000000000000000000000000000000000000000000001000000010010100100000000000000000000000000000000000000000000000000000000000000000000000000000000000000000000001101010101110000000000000110011000000000000100000000000000000000000000000000000000000000001000000100001000100000000000000000000000000000000000000000000000000000000000000000000000000000000000000000000010100000000000010001100001100110000000000000000000000000000000000000000000000000000000000000000001000000010000000000000000000000000000000000000000000000000000000000000000000000000000000000000000000000100000000000000000011000000000000000000111000111000000000000000000000000000000000000000000000110010110111000000000000000000000001000000000000000000000000000000000000000000000000010000000000000000000000000000000011111100000000000011000000000000000000000000000000000000000000000000000000000000001100000000100000000000000000000000101000000000000000000000000000000000000000000000000100000000000000000000000000000000001011000000001000010000000000001000000000000000000000000000001100100000000000000011000000000000000000000000000000001001000000000000011100000000000000000000000000000001000000000000000000000000000000000001100000000010000100000000000010000000000000000000000000000000000100000000000000000000000000000000000000000000000001100000000000001000100000000000000000000000000000000000000000000000000000000000000000000000000000001010000000000000100000000000000000000000000000100001000000000000000000000000000000000000000000000000000000000000000000000000000000000000000000000000000000000000000000000000000000000000000000000000000000000000000000000000000000000000000000000000001000010000000000000000000000000000000000000000000000000000000000000001000000000000000000000000000000000000000000000000000000000000000000000000000000000000000000000000000000000000000000000001000000000010000000000000000000000000000000000000001110000000000000000000000000001111100000000011100000000000000000000000000000000000000000000000001000000000000000000000000000000000000000000000000000101000001100000000000000000000000000000000000000000000000000000000000000000000000000000000000000000000000000000000000000000000000000000000000000000010000000000000000000000000000000000000000000000000001001000010000001100000000000000000000000000000000010000010000000000000000000000000011110000000000000100000000000000000000000000000000000000000000001010000000000000000000000000000000000000000000000000000001000010010000000000000000000000000000000000000100000100000000000000000000000001000000000000000001000000000000000000000000000000000111000000000001000000000000000000000000000000000000011100000000000000010000000000000000000000000000000000000000000001000001000000000000000000100000100010000000000000010000000000010000000000000000000000000000000000010000000000000000000000000000000000001010010000001110000110000000000000000000011000000000000000000000000000000000000000000000010100000100100000000000000000000000001010000000000000000000000000000001000000000011000000000000000000000000000100001100000011110001000000000000000110000110000000000000000000000000000000000000000000000101000000100000000000000000000000000010100000000000000000000000000000111000000000110000000110000000000000000001101110000000111101100000000000000001100000000000000000000000000000000000000000000000000000100000000000000000000000000000000000010000000000000000000000000000011011000000000000000010010000000000000000000000000000000111011000000000000011000000000000000000000000000000000000000000000000000000000000000000110000000000000000000000000000000000000000000000000000001110110011000011000000011000000000000000000000000000000001111000000000000001001000000000000000000000000000000000000000000000000000000000000000001100000000000000000000000000000000000000000000000000000001101111001000110000000000000000000000000000000000000000000110000000000000000010000000000000000000000000011100000000000000000000000000000000000100000010000000000000000000000000000000000000000000000000001110001100000000000000000000000000000000000000000000000000000000000000000001100011000000000000000000000000000000000000000000000000000000000000100001010000000000000000000000000000000000000000000000000001000000000000000000000000000000000000000000000000000000000000000000000000000001001000000000000000000000000100000000000000000000000000000000010000000010000000000000000000000000000000000000000000000000000000000000000000000000000000000000000000000000000000000000000011000011000000001010000000000000000000000001000000000000000000000000000110000000001000100000000000000000000000000000000000000000000000000000000000000000000000000000000000000000000000000000000000000001001000000000000001000000000000000000000000010000000000000000000000000000101000000101110000000000000000000000000000000000000000000000000000000000000000000000000000000000000000000000000000000000000000001010000000000000000000000000000000000000000000000000000000000000000000000110000000000000000000000000000000000000000000000000000000000000000000000000000000000000000000000000000000000000000000000000000001000000000000000000000000000000000000000000000000000000000000000000000000000000000000000000000000000000000000000000000000000000000000010000000000000000000000000000000001100000000000000000000000000000000000000000000000000000000000000000000000000000000000000000000000000000000011100000000000000000000000000000000000000000000000000000001010000000000000000000000000000000011000000000000000000000000000000000000000000000000000000000000000000000000000000000000000000000000000000000111000000000000000000000000000000000000000000000000000000010100000000000000000000000000000000000000000000000000000000000000000000000000000000000000000000000000000000000000000000000000000000000000000000000000000000000000000000000000000000000000000000000000000010000000000000000000000000000000000000000000001100000000000000000000000000000000000000000000000000000000000000000000000000000000000000000000000000000000000000000000000000000000000000000000000000000000000000000000000000000000000000000000000000000011000000000000000000000000000000000000000000000000000000000000000000000000000000000000000000000000000000000000000000000000000000000000000000000000000000000000000000000000000000000000000000000000000000000000000000000000000000000000000000000000000000000000000000000000000000000000000000000000000000000000000000000000000000000000000000000000000000000000000000000000000000000000000000000000000000000000000000000000000000000011000000000000000000000000000000000000000000000000000000000000000000000000000000000000000000000000000000000000110000000000000000000000000000000000000000000000000000000000000000000000000000000000000000110000000000000000000000000000000000000000000000000000000000000000000000000000000000000000000000000000000000001100000000000000000000000000000000000000000000000000000000000000000000000000000000000000000000000000000000000000000000000010000000000000000000000000000000000000000000000000000000000000000000000000000000000000000000000000000000000000000000000000000000000000110000000000000000000000000000000000000000000000000000000000000001010000000000000000000000000000000000000000000000000000000000000000000000000000000000000000000000000000000000000000000000000000000000001010000000000000000000000000000000000000000000000000000000000000010100000000000000000000000000000000000000000000000000000000000000000000000000000000000000000000000000000000000011000000000000000000000001000000000000000000000000000000000000000000000000000000000000000010000000000000000000000000000000001100000000000000000000000000000000000000000001110000000000000000000000000001001000000001100000011000000000000000000000000000000000000000000000000000000000000000000000000000000000000000000000000000000011000000000000000000000000011000000000000000010010000000000000000000000000001100000000011000001001000000000000000000000000000000000000000000000000111000000000000110000000110000000000000000000000000000000000000000000000000000000110000000000000000001000000000000000000000000000000000000000000000010100000000000000000000000000000000000000000000000000000000000000001100000010010000000000000000000000000000000000000000000000000000000000000000000000011100000000000000000000000000000000000000000000000010000000000000000000000000000000000000000000000000000000000000000000000000011000000000000000000000000000000000000000000000000000000000000000000000000000000000000000000000000000000000000000000000000000000000000000000000000000000000000000000000000000000000000000000000000000000000000000000000000000000000000000000000000000000000000000000000000000000101100010000000000000000000000000000000000000000000000000000000000000000000000000000000110000000000000000000000000000000000000000000000000000000000000000000000000000000000000000000000000000000000000010001111100000000000000000000000000000000000000000000000000000000000000000000000000000010010000000000000000000000000000000000000000000000000000000000000000000000000000000000000000000000000000000000000011010000000000000000000000000000000000000000000000000000000000000000000000000000000000101000000000000000000000000000000000000000000000000000000000000000000000000000001110000000000000000000000000000000010101100000000000000000000000000000000000000000000000000000000000000000000000000000000100000000000000000000000000000000000000000000000000000000000000000000000000000000000000000000000000000000000000000011011000000000000000000000000000000000000000000000000000000000000000000000000000000000000000000000000000000000000000000000000000000000000001100110000000000000000000000000000000000000000000000000000000110110000000000000000000000000000001000000000000000000000000000000000000000000000000000000000000000000000000001110000000000000000000000000011001100000000000000000000000000000000000000000000000000000000010000000000000000000000000000000101000000000000000000000000000000000000000000000000000000001100000000000000000000000000000000000000001100000000000000000000000000000000000000000000000000000000000000000000000000000000000000000000000001010000110000000000000000000000000000000000000000000000000100100000000000000000000000000000000000000011000000000000100000000000000000000000000000000000000000000000000000000000000000000000000000000000001000010010000000000000000000000000000000000000000000000001010000000000000000000000000000000000000000000000000000010100000000000000000000000000000000000000000000000000000000000000000000000000000000000000000011000000000000000000000000000000000000000001000000001000000000000000000000000000000000000000000000000000000101000000000000000000000000000000000000000000000000000000000000000000000000011000100000000000000000000000000000000000000000000000000000101000000000000000000000000000000000000000000000000000000000000000100000000000000000000000000000000000000000000000000000000000000000000000000110010100000000000000000000000110000000000000000000000000000110000000000000000000000000000000010110000000000000000000000000000000000000000000011000000000000000000000000000000000000000000000001000000000100001000000000000000000000010100000000000000000000000000000000000000000000000000000000000001010000100000000000000000000000000000000000000000110000000000000000000000000000000000000000000000101000000011001001001100000000000000000010000000000000000000000000000000000000000000000000000000000000010101001000000000000000000000000000000000000000000000000000000000000000000000000000000000000000010010000000001011010100100000000000000000000000000000000000000000000000000000000000000000000000000000000010001110000000000000000000000000000000000000000000000000000000000000000000000000000000000000000011000000000000011000101000000000000000000000000000000000000000000000000000000000000000000000000000000000000000000000000000000000000000000000000000000000000000000000000000000000000000000000000000000000000001110000000000000100000000100100000000000000000000000000000000000000000000000000000000000000000000000000000010000000000000000000000000000000000000000000000000000000000000000000001110000000000000000000010000000000000000000000000000000000000000000000000000000000000000000000000000000000000000000000000000000000110000000000000000000000000000000000000000000000000000100000000000000000000000000000000000000100111110000000000000000010010000011000000000000001100000000000000000000000000000000000000000000000000000100100000000000000000000000000000000000000000000000000010100000000000010001110000000000000000000111110000000100000000000011000000110000000011000100100000000000000000000000000000000000000000000000000000100000000000000000000000000000000000000000000000000001101100000000000100001011000000000000000000001110100000100000001100000000000000000000000000101000000000000000000000000000000000000000100000011010000000000000000000000000000000000100000000000000000000011011000000000001000101110000000000000000000000110010001100000110000000000000000000000000000100000000001000000000000000000000000000011110001000111000000100000000000000000000000001000000000000000001110000000000000110000000001100000000000000000000000000000010000001110001000000000000000000000000000000000101000000000000000000000000001101100010011110111000100000000000000000000000010000000000000000010000100000000001100000010001100000000000000000000010010000101101000000011000000000000000011100000000000001010000000000000000000000000000010100000000000100010100000000000000000000000000000000000000000110001000010000000000000011100010000000000000000000111110000110001000000000000000000000000000000000000000001000000000000000000000000001100011100000000000010101100000000000000000000000000000000000000000000000000000000000000000000100010000000000000000001000100001111110000110001100000111000000000000000000000000000000000000000000000000010100010000000110001101111000000000000000000000000000000000000000000100000000001000000000010001000010000000000110000001100011111010000000100011000010110000000000000000000000000000000000000000000000011001111000000001000000100000000000000000000000000000000000000000000000000100111010000000001101100011100000000010010000001001101100000000001000001010101100100000000000000000000000000000000000000000000011001100000000010000000000000000000000000000000000000000000000001100000100101100110000000110010100000000000000100100011110001010000000000001101100000011001100000000000000000000000000000000000000000000011000000000000010000000000000000000000000000000000000000000000100100000011010100100000000100011100000000000000110001000001000100000000000000011000110110011100000000000000000000000000000000000000000000010000000000000000000000000000000000000000000000000000000000000100000000001001001000000000100010000000000000000000010000101110000100000000000000000000000110000000000000000000000001000000000000000000000000000000000000000000000000000000000000000000000000000000000100000000000000110100000000000111000000000000000000000011110011000001110000000000000000000001000000000000000000000000101000000000000000000000000000000000000000000000000000000000000000000000000000000000100000000000000000000000000001110000000000000000000000000000000000001000000000000000000011100000000000000000000000001010000000000000000000000000000000000000000000000000000000000000000000000000000000001000000000000000000000000000000000000000000000000000000000000001100000000000000000000000110000000000000000000000000001000000000000000000000000000000000000000000000000000000000000000000000000000000000000000000000000000000000000000000000000000000000001000000000000011000000000000000000000001000000000000000000000000000000000000000000000000000000000000000000000000000000000000110000000000000000000000000000000000000000000000000000000000000000000000000010000000000000000000000000000000000000000000000000000000000000000000000000000000000000000000000000010000000000000000000000001100000000000000000000000000000000000110000000000000000000000000000000000000100000000000000000000000000000000000000000000000000000000000000000000000000000000000000000000000000100000000000000000000000000000000000000000000000000000111000001100000000000000011000000000000000000000000000000000000000000000000000000000000000000000000000000000000000000000000000000000000000000000001000000000000000000000000000000000000000000000000000000000000000000000000000001001000000001100000000000000000000000000000000000000000000000000000000000000000000000000000000000000000000000000000000000000000000000000000000000000000000000000000000000000000000000000000000000000000010010000000101000000000000000000000000000000000000000000000000000000000000000000000000000000000000000000000000000000000000000000000000000000000000000000000000000000000000000000000000000000000000000000011000000000100000000000000000000000000000000000000000000000000000000000000000000000000000000000000000000000000000000000000000000000000000000000000000001100000000000000000000000000000000000000000000000000000000000000000000000000000000000000000000000000000000000000000000000000000000000000000000000000000000000000000000000000000000000000000110000000000100100000000000000000000000000000000000000000000000000000000000000000000100000000000001100000000000000000000000000000000000000000000000000000000000000000000000000000000000000000000000000001100000000000110000000000000000000000000000000000000000000000000000000000000000000010100000000000110000000000000000000000000000000000000000000000000000000000000000000000000000000000000000000000000000000000000000000000000000000000000000000000000000000000000000000000000000000000000001010000000000000010000000000000000000000000000000000000000000000000000000000000000000000000000000000000000000000000000000000000000000000000000000000000000000000000000000000000000000000000000000000000101000000000000000000000000000000000000000000000000000000000000000000000000000000000000000000000000000000000000000000000000000000000000000000000000000000000000000000000000000000000000000000000000000000100000000000000000000000000000000000000000000000000000000000000000000000000000000000000000000000000010000000000000000000000000000000000000000000000000000000000000000000000000000000000000000000000000000000000000000000000000011000000000000000000000000000000000000000000000000000000000000000000000000000100000000000000000000000000000000000000000000000000000000000000000000000000000000000000000000000000000000000000000000000010010000000000000000000000000000000000000000000000000000000000000000000000000001000000000000000000000000000001000000000000000000000000000000000000000000000000000000000000000000000000000000000000000001110010000000000000000000000000000000000000000000000000000000000000000000000000000000000000000000000000000000101000000000000000000000000000000000000000000000000000000000000000000000000000000000000000000001100000000000000000000000000000000000000000000000000000000000000000000000000000000000000000000000000000001010000000000000000000000000000000000000000000000000000000000000000000000000000000000000000111000000000000000000000000000000000000000000000000000000000000000000000000000000000000000000000000000000000001000000000000000000000000000000000000000000000000000000000000000000000000000000000000000010000010000000000000000000000000000000000000000000000000000000000000000000000011100000000000000000000000000000000000000000000000000000000000000000000000000110000000000000000000000000000000000000000000110011000000000000000000000000000000000000000000000000000000000000000000000000000000000000000000000000000000000000000000000000011000000000000000000000000001100000000000000000000000000000000000000000001001000000000000000000000000000000000000000000000000000000000000000000000000000000000000000000000000000000000000000000000000000110000111000000000000000000000000000000000000000000000000000000000000000001110000000000000000000000000000000000000000000000000000000000000000000000000000000000110000000000000000000000011000000000000000000000000000000000000000000000000000000000000000000000000000000000000000000000000000000000000000000000000000000000000000000000000000000000000000000000000000001010000000000000000000000110000000000000000000000000000000000000000000000000000000000000000000000000000000000000000000000000000000000000000000000000000000000000000000000000000000000000000000000000000001100000000000000000000000000000000000000000000000000000000000000000000000000000000000000000000000000000000000000000000000000000000000000000000000000000000000000000000000000000000000000000000000000000000000000000000000000000000000000000000000000000000000000000000000000000000000000000000000000000000000000000000000000000000000000000000000000000000000000000000000000000000000000000