P1
200 200
0000000000000000000000000000000000000000000000000000000000000000000000000000000000000000000000000000000000000000100000000000000000000000000000000000000000000000000000000000000000000000010000000000000000000000000000000000000000000000000000000000000000000000000000000000000000000000000000000000000000000000010000010100000000000000000000000000000000000000000000000000000000000000000000001010000000000000011000000000000000000000000000000000000000000000000000000000000000000000000000000000000000000000000000001010000100100000000100000000000000000000000000000000000000000000000000000000000010100000000000000001000010000000000000000000000000000000000000000000000000000000000000000000000000000000000000000000000011000000110000000010100000000000000000000000000000000000100000000000000000000000010000000000000001000011010000000000000000000000000000000000000000000000000000000000000000000000000000000000000000000000000000000000000000101000000000000000000000000000011100010100000000000000000000000000011100000000100001100110000000000000000000000000000000000000000000000000000000000000000000011000000000000000000000000000000000000000000100000000000000000000000000000000000100100000000000000000000000000000000000001010000100000000000000000000000000000000000000000000000000000000000000000000000110000000000000000000000000000000000000000000000000000000000000000000000000000000110000000000000000000000000000000000000010100111000000000000000000000000000000000000000000000000000000000000000000000000000000000000000000000000000000000000001100000001100000000000000000000000000000000000000000001100000000000000000000000000110100100000000000000000000000000000000000000000000000000000000000000000000000000000000000000000000000000000000000000100100000100100000000000000000000000000000000000000000011000000000000000000000000001000110000000000000000000000000000000000000000000000000000000000000000000000000000000000000000000000000000000000000000110000000110000000000000000000000000000000000000000000000000000000000000000000000010001100000000000000000000000000000000000000000000000000000000000000000000000000000000000000000000000000000000000000000000000000000000000000000000000000000000000000000000000000000000000000000001000000100100000011000000000000000000000000000000000000000000000000000000000000000000000000000000000000000000000000000000000000000100000000000000000000000000000000000000000000000000000000000000000000101000000111000000110000000000000000000000000000000000000000000000000000000000000000000000100000000000000000000000000000000000000010100000000000000000000000000000000000000000000000000000000000000000000100000000000000000000000000000000000000000000000000000000000000000000000000000000000000001000000000000000000000000000000000000000101000000000000000000000000000000000000000000000000000000011000000000000010000011010000000000000000000000000000000000000000000000000000110000000000000000000000010000000000000000000000000000000000000000100000000000000000000000000000000000000000000000000000001001000000000000100000110110000000000000000000000000000000000000000000000000010010000000000000000000000000000000000000000000000000000000000000000000000000000000000000000000000000000000000000000000000010100000000000000000001001000000000000000000000000000000000000000000000000000101000000000000000000011100011100000000000000000000000000000000000000000000000000000000000000000000000000000000000000000000010000000000110000000110110000000000000000000000000000000000000000000000000000100000000000000000000000000000000000000000000000000000000000000000000000000000000000000000000000000000000000000000000000000000000000000011100000101000000000000000000000000000000000000000000000000000000000000000000000000000000000000000000000000000000000000000000000000000000000000000000000000000000000000000000000011000000000000000000000111100000100000000000000000000000000000000000000000000000000000000000000000000000000000000000000000000000000000000000000000000000000000000000000000000000000000000000000000000000110000000000100000000001001000000000000000000000000000000000000000000000000000000000000000000000000000000000000001110000000000000000000000000000000000000000000000000000000000111000000000000000000000000000000000001000000000110111000000000000000000000000000000000000000000000000000000000000000000000000000000000000011100000000000000000000000000000000000000000000000000000000000000000000000000000000000000000000000010000000001111100000000000000000000000000000000000000000000000000000000000000000000000000000000000011000001000000000000000000000000000000000000000000000000000001000011000000000000000000000000000000000000100000001110000000000000000000000000000000000000000000000000000000000000000000000000000000000000110001001000000000000000000000000000000000000000000000000000010010110000000000000000000000000000000000111000000001000000000000000000000000000000000000000000110000000000000000000000000000000000000000001110001010000000000000000000000000000000000000000000000000001101001100000000000000000000000000000000011000000000000000000000000000000000000000000000000000010010000000000000000000000000000000000000000000001101100000000000000000000000000000000000000000000000000011001110000000000000000000000000000000001100000000000000000000000000000000000000000000000000000100100000000000000000000000000000000000000000000011100000000000000000000000000000000000000000000000000000000011100000000000000000000000000000000001000110000000000000000000000000000000000010000000000000110000000000000000000000000000000000000000000000110000000000000000000000000000000000000000000000000000000100000100000000000000000000000000000000001100010000000000000000000000000000000000100000000000000000000000000000000000000000000000000000000000011100000000000000000000000000000001000000000000000000000000100011000001100000000000000000000000000001111000000000000000000000000000000000001110000000110000000000000000000000000000000000000000001100000110000000000000000000000000000000101000000000000000000000100000100000011000000000000000000000000000000100000000000000000000000000000000000000110000001100000000000000000000000000000000000000000011000001010000000000000000000000000000001010000000000000000000111110000000000000000000000000000000000000000000000000000000000000000000000000000000000110000000000000000011000000000000000000000000000000000000001100000000000000000000000000000001000000000000000000010001100000000000000000000000000000000000000000000000000000000000000000000000000000000011000000000000000001001000000000000000000000000000000000000000000000000000000000000000000000000000000000000000000011100000000000000000000000000000000000000000000000000001100000000010000000000000000110000000000000000000010100000000000000000000000000000000000000000000000011000000000000000000000000000000000000000000010000000000000000000000000000000000000000000000000011010010000001010000000000110001100000000000000000000010000000000000000000000000000000000000000000000001001000000000000000000000000000000000000000000000000000000000000000000000000001000000000000000000110000010000010010000010110100101000000000000000000000000000000000000000000000000000000000000000000000001100001000000000000000000000000000000000000000000010000000000000000000000000101000000000000001100001001000000011000010001000000000000000000000000000000000000000000000000000000001000000000000000000000000000111000000000000000000000000000000000000000001010000000000000000000000001010000000000000100000100100000000000000101000000000000000000000000000000000011000000000000000000000010000000000000000000000000011011000000000000000000000000000000000000100011100000000000000000000000001000000000000001000000001000000000000011010000000000000000000000000000000000110000000000000000000000100000000000000000000000000011100000000000000000000000000000000000010100000000000000000000000000000000000001110000010001001100000000000000011000000000000000000000000000000000000000000000000000000000000000000000000000000000000000010000000000000000000000000000000000000101000000000000000000000000000000000000000000000011100000000000000000000000000000000000000000000000010000000000000000000000000000000000000000000000000000100000000000000000000000000000000000000000000000100000000000000000000000000000000000000000000000000000000000000000000000000000000000000000000000001010000000000000000000000000000000000000000000000000001010000100000000000000000000000000000000000000000000000000000000000000000000000000000000000000000000000000000000000000000000000000000000000000000010010000000000000000000000000000000000000000000000000010000010100000000000000000000000000000000001100000001100000000000000000000000000000000000000000000000000000000000000000000000000000000000000011000011000000000000000000000000000000000000000000000000000000000101000000000000000000000000000000000100100000100100000000000000000000000000000000000000000000000000000000000000000000000000000000000000110000000000000000000000000000000000000000000000000000000000000000110000000000000000000000000000000000110000000110000000000000000000000000000000000000000000000000011000000000000000000000000000000000000000000000000000000000000000000000000000000000000000000000000000000000000000000000000000000000000000000000001000000000000000000011000000000000000000000000000000000110000000000000000000000000000000010000000000000000000000000000000000000000000000000000000000000000000000000000000000000000000000000000000000000001000000000000000001001000000000000000000000000000000000000000000000000000000001100000000100000000000000000000000000000000000000000000000000000000000000000000000000000000000000000000000000000000001101110000000000000000001100000000000000000000000000000000000000000000000001000000010100000001000000000000000000000000000000000000000000000000000000000000000000010000000000000000000000000000000000000011000000000000000000000000000000000000000000000000000000000000000000000000010000001001000000000000000000000000000000000000000000000000000000000000000000000000000100000000000000000000000000000000000001010000000000000000000000000000000000000000000000000000000000000000000000000100001000011001110001110000000000000000000000000000000000000000000000000000000000000001000000000000000000000000000000000110000000000000000000000000000000000000000000000000000000000000000000000000000000000100010000000000000000000000000000000000000000000000000000000000000000000000000000000000000000000000000000000000000001100010000000000000000011000000000000000000000000000000000000000000000000000000000000111000000000010000000000000000000000000000110000000000000000000000000000000000000000000000000000110000000000000000011011000000000001100000101000000000000000000000000000000000000000000000000000000000000000000000000100000000000000110000000000001100000000000000000000000000000000000000000000000000001100000000000000000001110000000000100100000011000000000000000000000000000000000000000000000000000000000000000000000001000000000000001100000000000000000000000000000000000000000000000000000000000000000000000000000000000000000000000000000110000010100000000000000000000000000000000000000000000000000000000000000000000000000000000000000000000000000000000000000000000000000000000000000000000000000000000000000000000000000000000000000000000000100000110000000000000000000000000000000000000000000000000000000000000000000100000000000000000000000000000000000000000000000000000000000000000000000000000001110000000000000000000000000000000000000000000000000000000000000000000000000000000000000000000000000000000000000000000001100000000000000000000110000011000000000000000000000000000000000000011000000000000000000000000000000000000000000000000000000000000000000000000000000000000000000000000000000000000000000000000000000000100110000000000001100010010000110000000000000000000000000000000000000101000000000000000000000000000000000000000000000000000000000000000000000000000000000000000000000000000000000000000000000000000000001101100000000000011000010100000000000000000000000000000000000000000000100000000000000000000000000000000000000000000000000000000000000000000000000000000000000000000000000000000000011000000000000000100000011000000000000000000010000000000000000000000000001110000000000000000000000000000000000000000000000000000000000000000000000000000000000000000000000000000000000000000000000000001001000000000000010110010000000000000000000000000000000000000000000000000010000000000000000000000000000000000000000000000000000000000000000000000000000000000000000000000000000000000000000000000000000010010000000000000000010110000000000000000000000000000000000000000000110000010000000000000000000000000000000000000000000000000000000000000000000000000000000000000000000000000000000000000000110000000000011000000000000001000001000000000000000000000000000000000000000000001100000000000000000000000000000000000000000000000001100000111000000000000000000000000000000000000000000000000000000000001100000000000000000000000000010000000000000000000000000000000000000000000000000000000100000000000000000000000000001100000000000000011000000000000000000000000000000000000000000000000000000000000000000000000000000000000000000000000010010000000000000000000000000000000000000000000000000111100000000000000000000000000100100000000000000000000000000000000000000000000000000000000000000000000000000000000000000000000000000000000000000001000010000000000000000000000000000000000000000000000000011000000000000000000000000000110000000000000000000000000000000000000000000000000000000000000000000000000000000000000000000000000000000000000001000001000010000000000000000000100000000000000000000010000000000000000000000000000000000000000000000000000000000000000000000000000000000000000000000000000000000000000000000000000000000000000000000000001001100001110000000000000000010100000000000000000000100010010000000000000000000000000000000000000000000000000000000000000000000000000000000000000000000000000000000000000000000000000000000000000000000010010000110110011000000000000101000000000000000000000111000100000000000000000000000000000000000000000000000000000000000000000000000000000000000000000000000000000000000000000000000110000000000000000000000000011101110110000000000000100000000000000000000000000000000000000000000000000000000000000000000000000000000000000000000000000000000000000000000000000000000000000000000000000010010000000000000000000000000011011000000000000000000000000000000000000000000001100100000000000000110000000000000000000000000000000000000000001000000000000000000000000000000000000000000000000000000000011000000000000000000010010000011100000000000000000000000000000000000000000000011010101100000000010010000000000000000000000000000000000000000011000000000000000000000000000000000000000000000000000000000000000000000000000000100000000010000000000000000000000000000000100000000000000010001110100000000011000000000000000000000000000000000000000000100000010111000000000000000000000000000000000000000000000000000000000000000000001001000000000000000000000000000000000000010010000000000000000011001000000000000000000000000000000000000000000000000000000000000100001000000000000000000000000000000000000000000000000000000000000000000000000000000000000000000000110000000011000000000000000000000111000110000000000000000000000000000000000000000000000000000000000100000011000000000000000000000000000000000000000000000000000000000000000000000000000000000000000000010010000001001101000100000000000101010000000000000000000000000000000000000000000000000000000000000000100000110000000000000000000000000000000000000000000000000000000000000000000000000000000000000000000011000000001011000110000000000010111000000000000000000000000000000000000000000000000000000001001111000010011000000000000000000000000000000000000000000000000000000000000000000000011100000000000000000000000000000001100000000000000000011100000000000000000000000000000000000000000001100000000000010001001000010000000000000000000000001000000000000000000000000000000000000000000000000000000000000000000000000000000000000000000000000000000010000000000000000000000000000000000000000000011000000000000001010000000110001100000000000000000101000000000000000000000000000000000000001100000000000000000000000000000000000000000000000001000000000000000000000000000000000000000000000000000000000000000000000000000000000000000100100000000000000000100000000000000000000000000000000000010100000000000000000000000000000000000000000000000000010000000001100000000000000000000000000000000000000000000000000000000000000000000000001110001000000000000000000000000000000000000000000000000000001000001010000000000000000000000000000000000000000000000100000000011000000000000000000000000000000000000000000000000000000000000000000000000100000010000000000000000000000000000000000000000000000000000100000000010000000000000000000000000000000000110000000000000000000000000000000000000000000000000000000000000000000000000000000000000000000010000000000000000000000000000000000000000000000000000000000011011001111000000000000000000000000000000000010010001100000000000000000000000000011000000000000000000000000000000000000000000000000000000001101000100000000000000000000000000000000000000000000000000000100000011100000000000000000000000000000000000100100100100000000000000000000000000110000000000000000000000000000000000000000000000000000000001100000000000000000000000000000000000000000000000000000000001110000000000110110100000000000000000000000000110000110000000000000000000000000000000000000000000000000000000000000000000000000000000000000000000000000000000000000000000000000000000000000000000000000000000000000010001111000000000000000000000000000000000000000000000000000000000000000000000000000000000000000000000000000000000000000000000000000000000000000000000000000000000000000000000000000000000000000000000000110000110000000000000000000000000000000000000000000000000000000110000000000000000000000000000000000000000000000000000000000000000000000000000000000000000000000000000001000000000000000000000000000000000001101100000000000000000000000000000000000000000000000000000010010000000000000000000000000000000000000000000000000000000000000000000000000000000000000000000000000000101000000000000000000000000000000000011011000000000000000000000000010000000000000000000000000000100100000000000000000000000000000000000000000000000000000000000000000000000000000000000000000000000000001010000000000000000000000101000110000010110000000000000000000000000100000000000000000000000000000110000000000000000000000000000000000000000000000000000000000000000000000000000000000000000000000000000001000000000000000000000001010010100000011000000000000000000000000001000000000000000000000000000000000000000000000000000000000000000000000000000000000000000000000000000000000000000000000000000000000000000000000000000000000000010001110000000000000000000000000000000000000000000000000000000000000000000000000000000000000000000000000000000000000000000000000000000000000000000000000000000000000000000000000000000000000000000000000111011100000000101000000000000000000000000000000000000000000000000001100000000000000000000000000000000000000000010000000000000000000000000000000000000000000000000000000000000100000000000000000000000001110001000001011110000000000000000000000000000000000000000000000000100100000000000000000000000000000000000000000100000011100000000000000000000000000000000000000000000000000001000000000000000000000010100000000000001111000000000000000000000000000000000000000000000000000110000000000000000000000000000000000000000000000000001000000000000000000000000000000001000000000000000000010000000000000000000000100011001000000000000000000000000000000000000000000000000000000000000000000000000000000000000000000000000000000000000000001010000000000000000001000000000000010000000000000000000000000000000000000000001000110010000000000011100000000000000000000000000000000000000000000000000000000000000000000000000000000000000000000000000001000000000000000000010000000000000100000000000000000000000000000000000000000000111000100010000001000000000000000000000000000000000000000000000000000000000000000000000000000000000000000000000000000000000000000001100000001000000000000000000000000000000000000000000000000000000000000000000000000000010010000000000000000000000000000000000011000000000000000000000000000000000000000000000000000001110000000000000000011000000001100000000111000111000000000000000000000000000000000000000000000001001000000011000000000000000000001000000000000001001000000000000000000000000000000010000000000000000000010010000000011000000000000000011110000000000000000000000000000000000000000000000000000000000000000000000000000000000000000000000101000000000000000010000000000000000000000000000000100000000000000000000010000000000110000000000000000010010000000001000000000000000000000000000000000000000000000000000000000000000000000000000000000001001000000000001000100000000000000000000000000000001000000000000000000000000000000000000000000000000000100100000000010000000000000000000000000000000000000000000000000000000000000000000000000000000000001100000000000110010000000000000000000000000000000000000000000000000000000000000000000000000000000000001110000000000100000000000000000000000000000000000000000000000000000000000000000000000000000000000000000000000001101000000000000000000000000000000000000000000000000000000000000000000000000000000000000000000000000000000000000000000000000000000000000000000000000000000000000000000000000000000000000000000000000000000110000000000000000000000000000000000000000000000000000000000000000110000000000000000000000000000000000000000000000000000010000000000000000000000000000000000000000000000001110000000000000000000000000010010000000000011100000000000000000000000000000000000000000000000011000000000000000000000000000000000000000000000000000001001001100000000000000000000000000000000000000000000000000000000000000000000000000000000000000000000000000000000000000000000000000000000000000100000010000000000000000000000000000000000000000000000000000010011000000000000000000000000000000000000000010000010000000000000000000000000110000000000000000100000000000000000000000000000000000000000010100000100000000000000000000000000000000000001100000000000000000000000000000000000000000000000000000000000100000100000000000000000000000000000000000000000001000000000000000000000000000000000111000000000000001000000000000000000000000000000000000111000000000000110000000000000000000000000000000000000000000001000001000000000000000000100001100000000000000000010000000000010000000000000000000000000000010000110000000000000000000000000000000000000000000000000001100000000000000000000000011000000000000000000000000000000000000000000000010100010100000000000000000000000000001010000000000000000000000000011110100000000011000000000000000000000000000110000000000000011011000000000000000110000110000000000000000000000000000000000000000000000101000111000110000000000000000000000010100000000000000000000000000110011111000000110000000110000000000000000010010011000000000000000000000000000001100000000000000000000000000000000000000000000000000000100000000000000000000000000000000000010000000000000000000000000010010011100000000000000010010000000000000000011001001000000000110110000000000011000000000000000000000000000000000000000000000000000000000000000000010110010000000000000000000000000000000000000000000011101100011000010111000000011000000000000000000000001100000000001101100000000000101000000000000000000000000000000000000000000000000000000000000011101001111010000000000000000000000000000000000000000000000011000100001011110000000000000000000000000000000000000000000000100000000000000010000000000000000000000000011100000000000000000000000000000000110001011010110000000000000000000000000000000000000000000000000001000000100000000000000000000000000000000000000000000000000000000000000001100011000000000000000000000000000000000000000000000000000000001101000000100100000000000000000000000000000000000000000000001100000010010000000000000000000000000000000000000000000000000000000000000000000001001000000000000000000000000100000000000000000000000000011100000110001101100000000000000000000000000000000000000000000001001010001000000000000000000000000000000000000000000000000000000011000000000000001010000000000000000000000001000000000000000000000000001100000000000001010000000000000000000000000000000000000000000000000001101100000000000000000000000000000000000000000000000000000001001000000000000001000000000000000000000000010000000000000000000000000011000001000000001000000000000000000000000000000000000000000000000000000100000000000000000000000000000000000000000000000000000000001010000000000000000000000000000000000000000000000000000000000000000000000101100000000000000000000000000000000000000000000000000000000000000000000000000000000000000000000000000000000000000000000000000001000000000000000000000000000000000000000000000000000000000000000000000001110100000000000000000000000000000000000000000000000000000000010000000000000000000000000000000001100000000000000000000000000000000000000000000000000000000000000000000000000000000000000000000000000000100010100000000000000000000000000000000000000000000000000000001010000000000000000000000000000000011000000000000000000000000000000000000000000000000000000000000000000000000000000000000000000000000000000001101000000000000000000000000000000000000000000000000000000010100000000000000000000000000000000000000000000000000000000000000000000000000000000000000000000000000000000000000000000000000000000000000000001100000000000000000000000000000000000000000000000000000000010000000000000000000000000000000000000000000001100000000000000000000000000000000000000000000000000000000000000000000000000000000000000000000000000000000000000000000000000000000000000000000000000000000000000000000000000000000000000000000000000000011000000000000000000000000000000000000000000000000000000000000000000000000000000000000000000000000000000000000000000000000000000000000000000000000000000000000000000000000000000000000000000000000000000000000000000000000000000000000000000000000000000000000000000000000000000000000000000000000000000000000000000000000000000000000000000000000000000000000000000000000000000000000000000000000000000000000000000000000000000000011000000000000000000000000000000000000000000000000000000000000000000000000000000000000000000000000000000000000000000000000000000000000000000000000000000000000000000000000000000000000000000000000000000110000000000000000000000000000000000000000000000000000000000000000000000000000000000000000000000000000000000000000000000000000000000000000000000000000000000000000000000000000000000000000000000000000000000000000000000000000000000000010000000000000000000000000000000000000000000000000000000000000000000000000000000000000000000000000000000000000000000000000000000000000110000000000000000000000000000000000000000000000000000000000000001010000000000000000000000000000000000000000000000000000000000000000000000000000000000000000000000000000000000000000000000000000000000001010000000000000000000000000000000000000000000000000000000000000010100000000000000000000000000000000000000000000000000000000000000000000000000000000000000000000000000000000000011000000000000000000000001000000000000000000000000000000000000000000000000000000000000000010000000000000000000000000000000001100000000000000000000000000000000000000000000000000000000000000000000000001001000000001100000011000000000000000000000000000000000000000000000000000000000000000000000000000000000000000000000000000000011000000000000000000000000011000000000000000000000000000000000000000000000001100000000011000001001000000000000000000000000000000000000000000000000111000000000000110000000110000000000000000000000000000000000000000000000000000000110000000000000000000100000000000000000000000000000000000000000000010100000000000000000000000000000000000000000000000000000000000000001100000010010000000000000000000000000000000000000000000000000000000000000000000000000001100000000000000000000000000000000000000000000010000000000000000000000000000000000000000000000000000000000000000000000000011000000000000000000000000000000000000000000000000000000000000000000000000001001000000000000000000000000000000000000000000000000000000000000000000000000000000000000000000000000000000000000000000000000000000000000000000000000000000000000000000000000000000000000000000000000000011000000000000000000000000000000000000000000000000000000000000000000000000000000000110000000000000000000000000000000000000000000000000000000000000000000000000000000000000000000000000000000000000000001110000000000000000000000000000000000000000000000000000000000000000000000000000000010010000000000000000000000000000000000000000000000000000000000000000000000000000000000000000000000000000000000000001011001100000000000000000000000000000000000000000000000000000000000000000000000000000101000000000000000000000000000000000000000000000000000000000000000000000000000001110000000000000000000000000000000010100100000000000000000000000000000000000000000000000000000000000000000000000000000000100000000000000000000000000000000000000000000000000000000000000000000000000000000000000000000000000000000000000000011000110000000000000000000000000000000000000000000000000000000000000000000000000000000000000000000000000000000000000000000000000000000000001100110000000000000000000000000000000000000000000000000000000000001000000000000000000000000000001000000000000000000000000000000000000000000000000000000000000000000000000001110000000000000000000000000011001100000000000000000000000000000000000000000000000000000000000000000000000000000000000000000101000000000000000000000000000000000000000000000000000000001100000000000000000000000000000000000000001100000000000000000000000000000000000000000000000000000000000000001011000000000000000000000000000001010000110000000000000000000000000000000000000000000000000100100000000000000000000000000000000000000011000000000000100000000000000000000000000000000000000000000000000100100000000000000000000000000000001000010010000000000000000000000000000000000000000000000001010000000000000000000000011100000000000000000000000000010100000000000000000000000000000000000000000000000000101000000000000000000000000000000000000011000000000000000000000000000000000000000001000000001000000000000000000000001001000000000000000000000000000101000000000000000000000000000000000000000000000000000000000000000000000000000000000000000000000000000000000000000000000000000000000000101000000000000000000000000000000100001000000000000000000000000000100000000000000000000000000000000000000000000000000000000000000000000000000010000000000000000000000000000110000000000000000000000000000110000000000000000000000000000010010110000000000000000000000000000000000000000000011000000000000000000000000000000000000000000000011000000001011101000000000000000000000010100000000000000000000000000000000000000000000000000000000000100011100000000000000000000000000000000000000000000110000000000000000000000000000000000000000000001001000000010000010000000000000000000000010000000000000000000000000000000000000000000000000000000000001110000000000000000000000000000000000000000000000000000000000000000000000000000000000000000000000010100000000110110010000000000000000000000000000000000000000000000000000000000000000000000000000000000000101000000000000000000000000000000000000000000000000000000000000000000000000000000000000000000000010000000000000101000000000000000000000000000000000000000000000000000000000000000000000000000000000000000000011000000000000000000000000000000000000000000000000000000100100000000000000000000000000000000000000000000001100001110000000000000000000000000000000000000000000000000000000000000000000000000000000000000111000000000000000000000000000000000000000000000000000001001000000000000000000000000000000000000000000000000001101100000000000000000000000000000000000000000000000000000000000000000000000000000000000001001100000000000000000000000000000000000000000000000000000001000000000000000000000000000000000000000100000000110110000000001100000011000000000000001100000000000000000000000000000000000000000000000000101111000000000000000000000000000000000000000000000000100000011000000000010000000000000000000000000010110000001001000000000011000000110000000000000100100000000000000000000000000000000000000000000000000110000000000000000000000000000000000000000000000000001000100110000000000100000000000000000000000001001000000001100000110100000000000000000000000000101000000000000000000000000000000000000000000000000011100000000000000000000000000000000100000000000000000010001001100000000001000000000000000000000000001100000000000000110101000000000000000000000000000100000000001000000000000000000000000000000000000000010000000000000000000000000000000001000000000000000100001100000000000110000001011000000000000000000000000000000000001001100000011100000000000000000000000000000101000000000000000000000000000000000000000110000000000000000000000000000000010000000000000000111000000000000001100000011100000000000000000000000000000000000000010000000000100000000000011100000000000001010000000000000000000000000000000010100110110000000000000000000000000000000000000000000000011010000000000000000000000001000001100000000000000000000000000001011000000010000100000000000000000000000000001000000000000000000000000000000000101001100010000001100000000000000000000000000000000000000001000000000000000000000010100000111100000000000000000000000000010100000000010001000000011000000000000000000000000000000000000000000000000000000101000100100010110000000000000000000000000000000000000000000000000000000000000000001000111001100000000110000000000000000110000000000000100000001001000000000000000000000000000000000000000000000000000000011000110001101100000000000000000000000000000000000000000000000010000001001001000000000010011100000010010000000001000000000000000000000000110001110000000000000000000000000000000000000000001100000000000000011000000011000000000000000000000000000000000000000000000001010000010010111000000000100110000000100100000000101110100000000000000000010000010100000000000000000000000000000000000000000000001000000000000100000111000000000000000000000000000000000000000000000000100000101100010000000000110000000000000110000000001011100100000000000000000011000010100000000000000000000000000000000000000000000101000000000001000001110000000000000000000000000000000000000000000000000101001000111000000110000010000000000000000000000001001001011000000000000000000000101000000000000000000000001000000000000000000001010000000000000000000000000000000000000000000000000000000000000000000000100100001110000001100000000000000000000000000000000001010111000000000000000000000010000000000000000000000101000000000000000000000000000000000000000000000000000000000000000000000000000000000000000000000000100000000000000000000000000000000000000000000000110011100000000000000000000000000000000000000000000001010000000000000000000000000000000000000000000000000000000000000000000000000000000000000000000000001000000000000000000000000000000000000000000000001101010000000000000000001010000000000000000000000000001000000000000000000000000000000000000000000000000000000000000000000000000000000000000000000000000000000000000000000000000000000000001000000000000011001000000000000000000011100000000000000000000000000000000000000000000000000000000000000000000000000000000000110000000000000000000000000000000000000000000000000000000000000000000000000010000000000000000000000000000000000000000000000000000000000000000000000000000000000000000000000000010000000000000000000000001100000000000000000000000000000000000110000000000000000000000000000000000000100000000000000000000000000000000000000000000000000000000000000000000000000000000000000000000000000100000000000000000000000000000000000000000000000000000111000001100000000000000011000000000000000000000000000000000000000000000000000000000000000000000000000000000000000000000000000000000000000000000001000000000000000000000000000000000000000000000000000000000000000000000000000001001000000001100000000000000000000000000000000000000000000000000000000000000000000000000000000000000000000000000000000000000000000000000000000000000000000000000000000000000000000000000000000000000000010010000000101000000000000000000000000000000000000000000000000000000000000000000000000000000000000000000000000000000000000000000000000000000000000000000000000000000000000000000000000000000000000000000011000000000100000000000000000000001100000000000000000000000000000000000000000000000000000000000000000000000000000000000000000000000000000000000000000001100000000000000000000000000000000000000000000000000000000000000000000000000000000110000000000000000000000000000000000000000000000000000000000000000000000000000000000000000000000000000000110000000000100100000000000000000000000000000000000000000000000000000000000000000000100000000000010000000000000000000000000000000000000000000000000000000000000000000000000000000000000000000000000000001100000000000110000000000000000000000000000000000000000000000000000000000000000000010100000000000000000000000000000000000000000000000000000000000000000000000000000000000000000000000000000000000000000000000000000000000000000000000000000000000000000000000000000000000000000000000000001010000000000000000000000000000000000000000000000000000000000000000000000000000000000000000000000000000000000000000000000000000000000000000000000000000000000000000000000000000000000000000000000000000101000000000000000000000000000000000000000000000000000000000000000000000000000000000000000000000000000000000000000000000000000000000000000000000000000000000000000000000000000000000000000000000000000000100000000000000000000000110000000000000000000000000000000000000000000000000000000000000000000000000010000000000000000000000000000000000000000000000000000000000000000000000000000000000000000000000000000000000000000000000000001100000000000000000000000000000000000000000000000000000000000000000000000000100000000000000000000000000000000000000000000000000000000000000000000000000000000000000000000000000000000000000000000000000000000000000000000000000000000000000000000000000000000000000000000000000000001000000000000000000000000000001000000000000000000000000000000000000000000000000000000000000000000000000000000000000000000000000000000000000000000000000000000000000000000000000000000000000000000000000000000000000000000000000000000101000000000000000000000000000000000000000000000000000000000000000000000000000000000000000000000000000000000000000000000000000000000000000000000000000000000000000000000000000000000000000000000000000001010000000000000000000000000000000000000000000000000000000000000000000000000000000000000000001100000000000000000000000000000000000000000000000000000000000000000000000000000000000000000000000000000000001000000000000000000000000000000000000000000000000000000000000000000000000000000000000000000001000000000000000000000000000000000000000000000000000000000000000000000000011100000000000000000000000000000000000000000000000000000000000000000000000000110000000000000000000000000000000000000000000001100000000000000000000000000000000000000000000000000000000000000000000000000000000000000000000000000000000000000000000000000011000000000000000000000000001100000000000000000000000000000000000000000000110000000000000000000000000000000000000000000000000000000000000000000000000000000000000000000000000000000000000000000000000000110000111000000000000000000000000000000000000000000000000000000000000000011000000000000000000000000000000000000000000000000000000000000000000000000000000000000110000000000000000000000011000000000000000000000000000000000000000000000000000000000000000000000000000000000000001100110000000000000000000000000000000000000000000000000000000000000000000000000000000001010000000000000000000000110000000000000000000000000000000000000000000000000000000000000000000000000000000000000001000100000000000000000000000000000000000000000000000000000000000000000000000000000000001100000000000000000000000000000000000000000000000000000000000000000000000000000000000000000000000000000000000000001110000000000000000000000000000000000000000000000000000000000000000000000000000000000000000000000000000000000000000000000000000000000000000000000000000000000000000000000000000000000000000000000000000001000000000000000000000000000000000000000000000000000000000000000