P1
200 200
0000000000000000000000000000000000000000000000000000000000000000000000000000000000000000000000000000000000000000100000000000000000000000000000000000000000000000000000000000000000000000010000000000000000000000000000000000000000000000000000000000000000000000000000000000000000000000000000000000000000000000010000010100000000000000000000000000000000000000000000000000000000000000000000001010000000000000000000001000000000000000000000000000000000000000000000000000000000000000000000000000000000000000000000001010000100100000000100000000000000000000000000000000000000000000000000000000000010100000000000000000001111000000000000000000000000000000000000000000000000000000000000000000000000000000000000000000000011000000110000000010100000000000000000000000000000100000100000000000000000000000010000100000000000000001001000000000000000000000000000000000000000000000000000000000000000000000000000000000000000000000000000000000000000101000000000000000000000000000001000010100000000000000000000000000001000000000000011010010000000000000000000000000000000000000000000000000000000000000000000011000000000000000000000000000000000000000000100000000000000000000000000000010000100100000000000000000000000000010000000000100111111000000000000000000000000000000000000000000000000000000000000000000000110000000000000000000000000000000000000000000000000000000000000000000000000000000110000000000000000000000000000000000000010011011000000000000000000000000000000000000000000000000000000000000000000000000000000000000000000000000000000000000001100000001100000000000000000000000000000000000000000001100000000000000000000000000101010110000000000000000000000000000000000000000000000000000000000000000000000000000000000000000000000000000000000000100100000100100000000000000000000000000000000000000000011000000000000000000000000001010000000000000000000000000000000000000000000000000000000000000000000000000000000000000000000000000000000000000000000110000000110000000000000000000000000000000000000000000000000000000000000000000000011011000000000000000000000000000000000000000000000000000000000000000000000000000000000000000000000000000000000000000000000000000000000000000000000000000000000000000000000000000000000000000000001000000100110000011000000000000000000000000000000000000000000000000000000000000000000000000000000000000000000000000000000000000000100000000000000000000000000000000000000000000000000000000000000000000001100000111100000110000000000000000000000000000000000000000000000000000000000000000000000000000000000000000000000000000000000000010100000000000000000000000000000000000000000000000000000000000000000000001000001000100000000000000000000000000000000000000000000000000000000000000000000000000011100000000000000000000000000000000000000101000000000000000000000000000000000000000000000000000000011000000000001110000000000000000000000000000000000000000000000000000000000000110000000000000000000000000000000000000000000000000000000000000000100000000000000000000000000000000000000000000000000000001001000000000011000000100001000000000000000000000000000000000000000000000000010010000000000000000000100000100000000000000000000000000000000000000000000000000000000000000000000000000000000000000000000010100000000000000000000000100000000000000000000000000000000000000000000000000101000000000000000000001000001000000000000000000000000000000000000000000000000000000000000000000000000000000000000000000000010000000000011100000000101000000000000000000000000000000000000000000000000000100000000000000000000010000010000000000000000000000000000000000000000000000000000000000000000000000000000000000000000000000000000000000000000001000100000000000000000000000000000000000000000000000000000000000000000000000000000000000000000000000000000000000000000000000000000000000000000000000000000000000000000000011000000000000000000000000000001110000000000000000000000000000000000000000000000000000000000000000000000000000000000000000000000000000000000000000000000000000000000000000000000000000000000000000000000110000000000000000000000000000001000000000000000000000000000000000000000000000000000000000000000000000000000000000111000000000000000000000000000000000000000000000000000000000110000000000000000000000000000000000001000000000000000000000000000000000000000000000000000000000000000000000000000000000000000000000000000000000000000000000000000000000000000000000000000000000000000000110000000000000000000000000000000000000100000000010110000000000000000000000000000000000000000000000000000000000000000000000000000000000010010000000000000000000000000000000000000000000000000000000000000101100000000000000000000000000000000000000000001000100000000000000000000000000000000000000000000000000000000000000000000000000000000001000000001100000000000000000000000000000000000000000000000000000000110000000000000000000000000000000010100000000000010000000000000000000000000000000000000000110000000000000000000000000000000000000000010010100100100000000000000000000000000000000000000000000000000001100000000000000000000000000000000001100000000000111000000000000000000000000000000000000000010010000000000000000000000000000000000000000010000100110000000000000000000000000000000000000000000000000111111000000000000000000000000000000000010000000000000000000000000000000000000000000000000000000100100000000000000000000000000000000000000000001111000000000000000000000000000000000000000000000000000001101110000000000000000000000000000000000111111000000000000000000000000000000000000010000000000000110000000000000000000000000000000000000000000001000000000000000000000000000000000000000000000000000000001110000110000000000000000000000000000000000001000000000000000000000000000000000001011000000000000000000000000000000000000000000000000000000000000000000000000000000000000000000001000000000000000000000100100010100001100000000000000000000000000010000100000000000000000000000000000000010110000000110000000000000000000000000000000000000000001100000000000000000000000000000000000000101000000000000000000011101100010000011000000000000000000000000000011110000000000000000000000000000000000010011100001100000000000000000000000000000000000000000011000000010000000000000000000000000000001010000000000000000000111011000000000000000000000000000000000000000001000000000000000000000000000000000000011001000000000000000011000000000000000000000000000000000000001100000000000000000000000000000001000000000000000000010001110000000000000000000000000000000000000000000000001100000000000000000000000000010000010000000000000001001000000000000000000000000000000000000000000000000000000000000000000000000000000000000000000110011000000000000000000000000000000000000000000000000010110000000010000000000010000100011000000000000000010100000000000000000000000000000000000000000000000011000000000000000000000000000000000000000000101000000000000000000000000000000000000000000000000010100000000001010000000000010000011000000000000000000010000000000000000000000000000000000000000000000001001001110000000000000000000000000000000000000000000000000000000000000000000001000000000000000000101101100000010010000000110100000000000000000000000000000000000000000000000000000000000000000000000000001100000000000000000000000000000000000000000000000010000000000000000000000000101000000000000000000100000100000011000000010110000000000000000000000000000000000000000000000000000000000000000000000000000000010000010000000000000000000000000000000000000001010000000000000000000000001010000000000000000001001100000000000000000111000000000000000000000000000000011000000000000000000000111000000000000000000000000100000100000000000000000000000000000000000100010100000000000000000000000001000000010000111000001000000000000000010111000000000000000000000000000000000110000000000000000000000000000000000000000000000001000001000000000000000000000000000000000010100010000000000000000000000000000000000100000000000000000000000000000101000000000000000000000000000000000000000000000000000000000000000000000000000000000000001000000000000000000000000000000000000000101000000000000000000000000000000000000001000000000100000000000000000001110000000000000000000000000010000000000000000000000000000000000000000000000000000110000010010000000000000000000000000000000000000100000000000000000000000000000000000000000000000010000000000000000000000000000000000000000000000001010000000000000000000000000000000000000000000000000011100000100000000000000000000000000000000000000000000000000000000000000000000000000000000000000000100000000000000000000000000000000000000000000000010010000000000000000000000000000000000000000000000000011000010110000000000000000000000000000000001100000001100000000000000000000000000000000000000000000000000000000000000000000000000000000000000011000011000000000000000000000000000000000000000000000000000000000100010000000000000000000000000000000100100000100100000000000000000000000000000000000000000000000000000000000000000000000000000000000000110000000000000000000000000000000000000000000000000000000000000000111000000000000000000000000000000000110000000110000000000000000000000000000000000000000000000000011000000000000000000000000000000000000000000000000000000000000000000000000000000000000000000000000000000100000000000000000000000000000000000000100000000000000000000011000000000000000000000000000000000110000000000000000000000100000000000000000000000000000000000000000000000000000000000000000000000000000000000000000000000000000000000000000000100110000000000000000001001000000000000000000000000000000000000000000000000000000010100000001110000000000000000000000000000000000000000000000000000000000000000000000000000000000000000000000000000000001000011000000000000000001100000000000000000000000000000000000000000000000000000000000000000000000000000000000000000000000000000000000000000000000000000000000000000000000000000000000000000000000000000010111100000000000000000000000000000000000000000000000000000000000000000000111000001100100010000010000000000000000000000000000000000000000000000000000000000000001110000000000000000000000000000000000000010110000000000000000000000000000000000000000000000000000000000000000000000000000010011000100000100000000000000000000000000000000000000000000000000000000000000000000000000000000000000000000000000100001100000000000000000100000000000000000000000000000000000000000000000000000000000000110110001000001000000000000000000000000000000000000000000000000000000000000000000000000000000000000000000000000010111001000000000000000011100000000000000000000000000000000000000000000000000000000001100000000000000000000000000000000000000000110000000000000000000000000000000000000000000000000000110000000000000000000000000000000001100000101100000000000000000000000000000000000000000000000000000000001010000000001110000000000000110000000000001100000000000000000000000000000000000000000000000000001100000000000000000100001000000000100100000001100000000000000000000000000000000000000000000000000000000001000000000000000000000000001100000000000000000000000000000000000000000000000000000000000000000000000000000000000000100100000000001101100010110000000000000000000000000000000000000000000000000000000000000000000000000000000000000000000000000000000000000000000000000000000000000000000000000010000000000000000000000000000000000000000000100000111000000000000000000000000000000000000000000000000000000000000000000000000000000000000000000000000000000000000000000000000000000000000000000000000000100000000000000000000000000000000000000000000000000100000000000000000000000000000000000000000000000000000000000000000110110000000000000000000110000011000000000000000000000000000000000000011000000000001000000000000000000000000000000000000000000000000000000000000000000000000000000000000000000000000000000000000000000001100000000000000001100010010000110000000000000000000000000000000000000101000000000000000000000000000000000000000000000000000000000000000000000000000000000000000000000000000000000000000000000000000000110010010000000000011000010100000000000000000000000000110000000000000000100000000000000000000000000000000000000000000000000000000000000000000000000000000000000000000000000000000000011000000000000000011100000100000000000000000010000000000000000000000000011000000000000000000000000000000000000000000000000000000000000000000000000000000000000000000000000000000000000000000000000000001001000000000000011011001000000000000000000000000000000000000000000000000001000000000000000000000000000000000000000000000000000000000000000000000000000000000000000000000000000000000000000000000000000010010000000000000000110011100000000000000000000000000000000000000000110000000000000000000000000000000000000000000000000000000001000000000000000000000000000000000000000000000000000000000000110000000000011000000000000000000001100000000000000000000000000000000000000000001100000000000000000000000000000000000000000000000001100000010000000000000000000000000000000000000000000000000000000000001100000000000000000000000000100000010000000000000000000000000000000000000000000000000000000000000000000000000000001100000000000000011000000100000000000000000000000000000000000000000000000000000000000000000000000000000000000000001001011000000000000000000000000000000000000000000000000001100000000000000000000000000100100000000000000000000000000000000000000000000000000000000000000000000000000000000000000000000000000000000000000001011110011100000000000000000000000000000000000000000000100100000000000000000000000000110000000000000000000000000000000000000000000000000000000000000000000000000000000000000000000000000000000000000001010010111000011000000000000000100000000000000000000000000010000000000000000000000000000000000000000000000000000000000000000000000000000000000000000000000000000000000000000000000000000000000000000000011001100000000111000000000000010100000000000000000000000011000000000000000000000000000000000000000000000000000000000000000000000000000000000000000000000000000000000000000000000000000000000000000000000000000010001000101000000000000101000000000000000000000000011000000000000000000000000000000000000000000000000000000000000000000000000000000000000000000000000000000000000000000000000110000000000000000000000000100101100110000000000000100000000000000000000000101101000000000000000000000000000000000000000000000000000000000000000000000000000000000000000000000000000000000000000000000010010000000000000000000000001000100100000000000000000000000000000000000000001011001000000000000000110000000000000000000000000000000000000000001000000000100000000000000000000000000000000000000000000000011000000000000000000000000001000001000000000000000000000000000000000000000000010010000010000000010010000000000000000000000000000000000000001101100000011100000000000000000000000000000000000000000000000000000000000000000001110000001000100000000000000000000000000000000000000000000011100000110000000011000000000000000000000000000000000000000000100000000000100000000000000000000000000000000000000000000000000000000000000000000000000001110000000000000000000000001110000000000000000001000000010010000000000000000000000000000000000000000000000000000000000000101100000000000000000000000000000000000000000000000000000000000000000000000000000000000000000000110000000010101100000000000000000110000011000000000000000000000000000000000000000000000000000000000000001010000000000000000000000000000000000000000000000000000000000000000000000000000000000000000000010010000001001011000000000000000110100000100000000000000000000000000000000000000000000000000000000000000000000000000000000000000000000000000000000000000000000000000000000000000000100000000000000000000011000000001000110000000000000000000000000000000000000000000000000000000000000000000000000000001111100001000100000000000000000000000000000000000000000000000000000000000000000000001000000000000000000000000000000010010000000000000000010100000000000000000000000000000000000000000001100000000000000110000000010000110000000000000000001000000000000000000000000000000000000000000000000010000000000000000000000000000000011100000000000000001000000000000000000000000000000000000000000000011000000000000000000000001101001100000000000000000101000000000000000000000000000000000000001100000000000000000000000000000000000000000000000000000000000110110000000000000000000000000000000000000000000000000000000000000000000000011000010000000000000000100000000000000000000000000000000000000100100000000000000000000000000000000000000000000000111000000000000000000000000000000000000000000000000000000000000000000000000000000000110001010100000000000000000000000000000000000000000000000000011000110000000000000000000000000000000000000000000000000000000000011000000000000000000000000000000000000000000000000000000000000000000000010010000011000000000000000000000000000000000000000000000000001101000010000000000000000000000000000000000000110000000000000000000000000000000000000000000000000000000000000000000000000000000000000000000100100000000000000000000000000000000000000000000000000000000110000010001000000000000000000000000000000000010010001100000000000000000000000000011000000000000000000000000000000000000000000000000000000010001000000000000000000000000000000000000000000000000000000001011000100110000000000000000000000000000000000100100100100000000000000000000000000110000000000000000000000000000000000000000000000000000000011100000000000000000000000000000000000000000000000000000000010010000010000000000000000000000000000000000000110000110000000000000000000000000000000000000000000000000000000000000000000000000000000000000110000000000000000000000000000000000000000000000000000000000010100000000011000001010000000000000000000000000000000000000000000000000000000000000000000000000000000000000000000000000000000000000000000000000000000000000000000000000000000000000000000000000000000000000000000000101100100000000000000000000000000000000000000000000000000000000110000000000000000000000000000000000000000000000000000000000000000000000000000000000000000000000000000001000000000000000000000000000000000111000101000000000000000000000000000000000000000000000000000010010000000000000000000000000000000000000000000000000000000000000000000000000000000000000000000000000000101000000000000000000000000000000001100000000000000000000000000000000000000000000000000000000000100100000000000000000000000000000000000000000000000000000000000000000000000000000000000000000000000000001010000000000000000000000100000111000001110000000000000000000000001110000000000000000000000000000110000000000000000000000000000000000000000000000000000000000000000000000000000000000000000000000000000001000000000000000000000011111010000000100110000000000000000000000000000000000000000000000000000000000000000000000000000000000000000000000000000000000000000000000000000000000000000000000000000000000000000000000000000000000001000100100000000001100000000000000000000000000000000000000000000000000000000000000000000000000000000000000000000000000000000000000000000000000000000000000000000000000000000000000000000000000000000000100011001101000011011000000000000000000000000000000000000000000000000001100000000000000000000000000000000000000000000000000110000000000000000000000000000000000000000000000000000000000000000000000000000000111000000000110111000000000000000000000000000000000000000000000000100100000000000000000000000000000000000000000000000001010000000000000000000000000000000000000000000000000011100000000000000000000000001011000000001001000000000000000000000000000000000000000000000000000110000000000000000000000000000000000000000000000000000110000000000000000000000000000000000000000000000000000000000000000000000001000001000000000001100000000000000000000000000000000000000000000000000000000000000000000000000000000000000000000000000000000011000000000000000000000000000000111000000000000000000000000000000000000000001000110011000000001000000000000000000000000000000000000000000000000000000000000000000000000000000000000000000000001000000000000000000000000001110000000000000000000000000000000000000000000000000000000001101001000000000000101100000000000000000000000000000000000000000000000000000000000000000000000000000000000000000101000000000000000001100000010000000000001000001000000000000000000000000000000000000000001110000000000000010010000000000000000000000000000000000011000000000000000000000000000000000000000000000000000011010000000000000000011000000010000000000010000010000000000000000000000000000000000000000000000000000000000011100000000000000000001000000000000001101000000000000000000000000000000000000000000000000000001000000000011000000000000000000000000000100000100000000000000000000000000000000000000000000000000000000000000000000000000000000101000000000000011111100000000000000000000000000001110000000000000000000000000000000110000000000000000000110000000000000000000000000000000000000000000000000000000000000000000000000000000000000000000001001000000000000100000000000000000000000000000000000000000000000000000000000000000000000000000000000001110100000000111000000000000000000000000000000000000000000000000000000000000000000000000000000000001100000000000000000000000000000000000000000000000000000000000000000000000000000000000000000000000000010011000000000000000000000000000000000000000000000000000000000000000000000000000000000000000000000000000000000001100000000000000000000000000000000000000000000000000000000000000000010000000000000000000011100000000000000000000000000000000000000000000000000000000000000000000000000000000010000000000000000000000000000000000000000000100000000000000000000000000000000000000000000000001010000000000000000000010000000000000000000000000000000000000000000000000000000000000000000000000000000000100000000000000000000000000010000000000000001000000000000000000000000000000000000000000000000010000000000000000000000000000000000000000000000000000000000001100000000000000000000000000000000000000000001000000000000000000000000000101000000000000010000000000000000000000000000000000000000000000000011010000000000000000000000000000000000000000000000000000000011000000000000000000000000000000000000000000000000000000000000000000000010010000000000000000000000000000000000000000000000000001000000000000010110000000000000000000000000000000000000000000000000000000000000000000000000000000000000000000000001110001110000000000000000000000101000000000000000011100000000000000000000000000000000010000001110000000000000000000000000000000000000000000010000000000000000000000000000000000000000000000000000000000000000000000000000000000000100011010000000000000000000000000000010000000000000000000000100000000000000000000000000000000000000000000000000001000000000000100000000000000000000000011000000000000000000000000000000000000000000000010100110000000000000000000000000000001010000000000000000000000000000001000000000011000000000000000000000000000110010000000000110101000000000000000110000110000000000000000000000000000000000000000000000101000101100000000000000000000000000010100000000000000000000000001100000000000000011000000110000000000000000010010100100000001100000100000000000001100000000000000000000000000000000000000000000000000000100001001000000001000000000000000000010000000000000000000000000101011100000000000100000010010000000000000000011001001000000001010001000000000011000000000000000000000000000000000000000000000000000000000000010001000011111000000000000000000000000000000000000000000001000001000000000010000000011000000000000000000000001100000000010000010000000000101000000000000000000000000000100000000000000000000000000000000000110000000001000000000000000000000000000000000000000000000110001100000000110000000000000000000000000000000000000000000001110000000000000010000000000000000000000000001000000000000000000000000000000001000011100000111000000000000000000000000000000000000000000011000000000000000000000000000000000000000000000000000000000000011100000000000001100011000000000000000000000010000000000000000000000000000000000010001000011010000000000000000000000000000000000000000000010100010000000000000000000000000000000000000000000000000000000000000000000000000001001000000000000000000000000000000000000000000000000000001111100000110001110000000000000000000000000000000000000000000011000000000000000000000000000000000000000000000000000000000000000011000000000000001010000000000000000000000011100000000000000000000000000000010000000011001000000000000000000000000000000000000000000000000001001000000000000000000000000000000000000000000000000000000001001000000000000001000000000000000000000000000000000000000000000000000000110000000000011100000000000000000000000000000000000000000000000000011110000000000000000000000000000000000000000000000000000000001010000000000000000000000000000000000000000000000000000000000000000000001101001000000010000000000000000000000000000000000000000000000000000011100000000000000000000000000000000000000000000000000000000001000000000000000000000000000000000000000000000000000000000000000000000000111000000000000000000000000000000000000000000000000000000000010000000000000000000000000000000001100000000000000000000000000000000000000000000000000000000000000000000000000000000000000000000000000000011000010000000000000000000000000000000000000000000000000000001010000000000000000000000000000000011000000000000000000000000000000000000000000000000000000000000000000000000000000000000000000000000000000000001000000000000000000000000000000000000000000000000000000010100000000000000000000000000000000000000000000000000000000000000000000000000000000000000000000000000000000000000000000000000000000000000000100100000000000000000000000000000000000000000000000000000000010000000000000000000000000000000000000000000001100000000000000000000000000000000000000000000000000000000000000000000000000000000000000000000111000000000000000000000000000000000000000000000000000000000000000000000000000000000000000000000000000000011000000000000000000000000000000000000000000000000000000000000000000000000000000000000000000000000000000000000000000000000000000000000000000000000000000000000000000000000000000000000000000000000000000000000000000000000000000000000000000000000000000000000000000000000000000000000000000000000000000000000000000000000000000000000000000000000000000000000000000000000000000000000000000000000000000000000000000000000000000000011000000000000000000000000000000000000000000000000000000000000000000000000000000000000000000000000000000000000000000000000000000000000000000000000000000000000000000000000000000000000000000000000000000110000000000000000000000000000000000000000000000000000000000000000000000000000000000000000000000000000000000000000000000000000000000000000000000000000000000000000000000000000000000000000000000000000000000000000000000000000000000000010000000000000000000000000000000000000000000000000000000000000000000000000000000000000000000000000000000000000000000000000000000000000110000000000000000000000000000000000000000000000000000000000000001010000000000000000000000000000000000000000000000000000000000000000000000000000000000000000000000000000000000000000000000000000000000001010000000000000000000000000000000000000000000000000000000000000010100000000000000000000000000000000000000000000000000000000000000000000000000000000000000000000000000000000000011000000000000000000000001000000000000000000000000000000000000000000000000000000000000000010000000000000000000000000000000001100000000000000000000000000000000000000000000000000000000000000000000000001001000000001100000011000000000000000000000000000000000000000000000000001000000000000000000000000000000000000000000000000000011000000000000000000000000011000000000000000000000000000000000000000000000001100000000011000001001000000000000000000000000000000000000000000000000010000000000000110000000110000000000000000000000000000000000000000000000000000000110000000000000000000100000000000000000000000000000000000000000000010100000000000000000000000000000000000000000000000000100000000000001100000010010000000000000000000000000000000000000000000000000000000000000000000000000000110000000000000000000000000000000000000000000010000000000000000000000000000000000000000000000000000000000000000000000000011000000000000000000000000000000000000000000000000000000000000000000000000000101100000000000000000000000000000000000000000000000000000000000000000000000000000000000000000000000000000000000000000000000000000000000000000000000000000000000000000000000000000000000000000000000000001010000000000000000000000000000000000000000000000000000000000000000000000000000000110000000000000000000000000000000000000000000000000000000000000000000000000000000000000000000000000000000000000000000100000000000000000000000000000000000000000000000000000000000000000000000000000000010010000000000000000000000000000000000000000000000000000000000000000000000000000010000000000000000000000000000000000001001000000000000000000000000000000000000000000000000000000000000000000000000000000101000000000000000000000000000000000000000000000000000000000000000000000000000000100000000000000000000000000000000000001001000000000000000000000000000000000000000000000000000000000000000000000000000000100000000000000000000000000000000000000000000000000000000000000000000000000000001000000000000000000000000000000000000000011000000000000000000000000000000000000000000000000000000000000000000000000000000000000000000000000000000010000000000000000000000000001100110000000000000000000000000000000000000000000000000000000000000000000000000000000000000000001000000000000000000000000000000000000000000000000000000000000000000000000000100000000000000000000000000011001100000000000000000000000000000000000000000000000000000000001010000000000000000000000000000101000000000000000000000000000000000000000000000000000000001100000000000000001000000010000000000000001100000000000000000000000000000000000000000000000000000000000000001101100000000000000000000000000001010000110000000000000000000000000000000000000000000000000100100000000000000000000001110000000000000011000000000000100000000000000000000000000000000000000000000000000100000000000000000000000000000000001000010010000000000000000000000000000000000000000000000001010000000000000000000000111010000000000000000000000000010100000000000000000000000000000000000000000000000000110000000000000000000000000000000000000011000000000000000000000000000000000000000001000000001000000000000000000000010000100000000000000000000000000101000000000000000000000000000000000000000000000000000000000000000000000000000110000000000000000000000000000000000000000000000000000000101000000000000000000000000000001000000000000000000000000000000000100000000000000000000000000000000000000000000000000000000000000000000000000110011000000000000000000000000110000000000000000000000000000110000000000000000000000000000110001001000000000000000000000000000000000000000000011000000000000000000000000000000000000000000000011000000011011110000000000000000000000010100000000000000000000000000000000000000000000000000000000011000000000000000000000000000000000000000000000000000110000000000000000000000000000000000000000000001001000001001000000000000000000000000000010000000000000000000000000000000000000000000000000000000000011000010000000000000000000000000000000000000000000000000000000000000000000000000000000000000000000010100000001100000110000000000000000000000000000000000000000000000000000000000000000000000000000000000011111000010000000000000000000000000000000000000000000000000000000000000000000000000000000000000000010000000001000010000010000000000000000000000000000000000000000000000000000000000000000000000000000000001000000010000000000000000000000000000000000000000000000000000000000000000000000000000000000000000000000000000000100000010000000000000000000000000000000000000000000000000000000000000000000000000000000000010000010000000000000000000000000000000000000000000000000000000100000000000000000000000000000000000000001000000000001100000000000000000000000000000000000000000000000000000000000000000000000000000000000100000100000000000000000000000000000000000000000000000000000100110000000000000000000000000000000000000110000000000011000000001100000011000000000000001100000000000000000000000000000000000000000000000000100011000000000000000000000000000000000000000000000000110010001100000000000000000000000000000000000011010000011000110010000011000000110000000000000100100000000000000000000000000000000000000000000000000000000000000000000000000000000000000000000000000000001100010011000000001110000000000000000000000001001000000001001001100000000000000000000000000000101000000000000000000000000000000000000000000000000000000000000000000000000000000000000000000000000000000010000011100000000000000000000000000000000000001110000000001000110110000000010000000000000000000100000000001000000000000000000000000000000000000000000000000000000000000000000000000011100000000000000000000000000000000110000000010000000000000000000001000000000000000010000000001110000000000000100000000000000101000000000000000000000000000000000000000011000000000000000000000000000000000000000000000000011100000000000001100000000110000000000000000000000000000000000000011000000000000000000000001000000000000001010000000000000000000000000000000000011000101000000000000000000000000000000000000000000000001011000000000000000000000001000000000000000000000000000000000011000100000000001100000000000010000000000000001000000000000000000000000000000000010110101011001011100000000000000000000000000000000000000011100000000000000000000011000000000011000000000000000000000000111000000000000000000000011100000000000000000000000000000000000000000000000000000100011110110101000000000000000000000000000000000000000000000000000000000000001100001000001111101000000110000000000110010001000000000000000000001000100000000000000000000000000000000000000000000000000000111100011010000000000000000000000000000000000000000000000000000110000000000111000000000010100010000010010000000000000011110000000000000000000011100000000000000000000000000000000000000000000000000000001100000100000100000000000000000000000000000000000000000000000010100000111011000000000001001101000000100100000000100001000100000000000000000000100001000000000000000000000000000000000000000000000000000000001010000010000000000000000000000000000000000000000000000001100000000000100000000000011100000000000110000000001000001111000000000000000000000110000000000000000000000000000000000000000000000000000000000001000001100000000000000000000000000000000000000000000000001011000011000100000110000110000000000000000000000000010101100100000000000000000001101100000000000000000000001000000000000000000000000000000000000000000000000000000000000000000000000000000000000000000001111010001101000001100000000000000000000000000000000011011100100000000000000000000111000000000000000000000101000000000000000000000000000000000000000000000000000000000000000000000000000000000000000000000001000001100000000000000000000000000000000000000000000001111000000000000000000000000000000000000000000001010000000000000000000000000000000000000000000000000000000000000000000000000000000000000000000000000000000000000000000000000000000000000000000000001000010000000000000000000000000000000000000000000000001000000000000000000000000000000000000000000000000000000000000000000000000000000000000000000000000000000000000000000000000000000000000000000000000000011000000000000000000001000000000000000000000000000000000000000000000000000000000000000000000000000000000000110000000000000000000000000000000000000000000000000000000000000000000000000111000000000000110000000000000000000000010000000000000000000000000000000000000000000000000000000000000000000000000000000000001100000000000000000000000000001000000110000000000000000000000000000000000000000000000000000000000000000000000000000000000000000000000000000000000000000000000000000000000000001110000000000000000000000000000000000000000000000000000010000001100000000000000011000000000000000000000000000000000000000000000000000000000000000000000000000000000000000000000000000000000000000000000000000000000000000000000000000000000000000000000000000000100000000000000000000001001000000001100000000000000000000000000000000000000000000000000000000000000000000000000000000000000000000000000000000000000000000000000000000000000000000000000000000000000000000000000000000000000000010010000000101000000000000000000001100000000000000000000000000000000000000000000000000000000000000000000000000000000000000000000000000000000000000000000000000000000000000000000000000000000000000000000011000000000100000000000000000000010100000000000000000000000000000000000000000000000000000000000000000000000000000000000000000000000000000000000000000001100000000000000000000000000000000000000000000000000000000000000000000000000000000100000000000000000000000000000000000000000000000000000000000000000000000000000000000000000000000000000000110000000000100100000000000000000000000000000000000000000000000000000000000000000000100000000000000000000000000000000000000000000000000000000000000000000000000000000000000000000000000000000000000000001100000000000110000000000000000000000000000000000000000000000000000000000000000000010100000000000000000000000000000000000000000000000000000000000000000000000000000000000000000000000000000000000000000000000000000000000000000000000000000000000000000000000000000000000000000000000000001010000000000000000000000000000000000000000000000000000000000000000000000000000000000000000000000000000000000000000000000000000000000000000000000000000000000000000000000000000000000000000000000000000101000000000000000000000000000000000000000000000000000000000000000000000000000000000000000000000000000000000000000000000000000000000000000000000000000000000000000000000000000000000000000000000000000000100000000000000000000000110000000000000000000000000000000000000000000000000000000000000000000000000000000000000000000000000000000000000000000000000000000000000000000000000000000000000000000000000000000000000000000000000000001100000000000000000000000000000000000000000000000000000000000000000000000001110000000000000000000000000000000000000000000000000000000000000000000000000000000000000000000000000000000000000000000000000000000000000000000000000000000000000000000000000000000000000000000000000000000000000000000000000000000000001000000000000000000000000000000000000000000000000000000000000000000000000000000000000000000000000000000000000000000000000000000000000000000000000000000000000000000000000000000000000000000000000000000101000000000000000000000000000000000000000000000000000000000000000000000000000000000000000000000000000000000000000000000000000000000000000000000000000000000000000000000000000000000000000000000000000001010000000000000000000000000000000000000000000000000000000000000000000000000000000000000000001100000000000000000000000000000000000000000000000000000000000000000000000000100000000000000000000000000000001000000000000000000000000000000000000000000000000000000000000000000000000000000000000000000101100000000000000000000000000000000000000000000000000000000000000000000000001000000000000000000000000000000000000000000000000000000000000000000000000000110000000000000000000000000000000000000000000010011000000000000000000000000000000000000000000000000000000000000000000000000010000000000000000000000000000000000000000000000011000001000000000000000000001100000000000000000000000000000000000000000010000100000000000000000000000000000000000000000000000000000000000000000000000000000000000000000000000000000000000000000000000000110000010000000000000000000000000000000000000000000000000000000000000001000000000000000000000000000000000000000000000000000000000000000000000000000000000000000110000000000000000000000011000000000000000000000100000000000000000000000000000000000000000000000000000000000000010000010000000000000000000000000000000000000000000000000000000000000000000000000000000001010000000000000000000000110000000000000000000000000000000000000000000000000000000000000000000000000000000000000111000110000000000000000000000000000000000000000000000000000000000000000000000000000000001100000000000000000000000000000000000000000000000000000000000000000000000000000000000000000000000000000000000000001111000000000000000000000000000000000000000000000000000000000000000000000000000000000000000000000000000000000000000000000000000000000000000000000000000000000000000000000000000000000000000000000000000000000000000000000000000000000000000000000000000000000000000000000