P1
200 200
0000000000000000000000000000000000000000000000000000000000000000000000000000000000000000000000000000000000000000100000000000000000000000000000000000000000000000000000000000000000000000010000000000000000000000000000000000000000000000000000000000000000000000000000000000000000000000000000000000000000000000010000010100000000000000000000000000000000000000000000000000000000000000000000001010000000000000011000000000000000000000000000000000000000000000000000000000000000000000000000000000000000000000000000001010000100100000000100000000000000000000000000000000000000000000000000000000000010100000000000000010000000000000000000000000000000000000000000000000000000000000000000000000000000000000000000000000000011000000110000000010100000000000000000000000000000000000100000000000000000000000010000000000000010000001010000000000000000000000000000000000000000000000000000000000000000000000000000000000000000000000000000000000000000101000000000000000000000000000011100010100000000000000000000000000011100000000110000110100000000000000000000000000000000000000000000000000000000000000000000011000000000000000000000000000000000000000000100000000000000000000000000000000000100100000000000000000000000000000000000000000100001100000000000000000000000000000000000000000000000000000000000000000000110000000000000000000000000000000000000000000000000000000000000000000000000000000110000000000000000000000000000000000000001100010111000000000000000000000000000000000000000000000000000000000000000000000000000000000000000000000000000000000001100000001100000000000000000000000000000000000000000001100000000000000000000000000101100010000000000000000000000000000000000000000000000000000000000000000000000000000000000000000000000000000000000000100100000100100000000000000000000000000000000000000000011000000000000000000000000001001100000000000000000000000000000000000000000000000000000000000000000000000000000000000000000000000000000000000000000110000000110000000000000000000000000000000000000000000000000000000000000000000000011100000000000000000000000000000000000000000000000000000000000000000000000000000000000000000000000000000000000000000000000000000000000000000000000000000000000000000000000000000000000000000000001100000010000000011000000000000000000000000000000000000000000000000000000000000000000000000000000000000000000000000000000000000000100000000000000000000000000000000000000000000000000000000000000000000011000000000000000110000000000000000000000000000000000000000000000000000000000000000000000100000000000000000000000000000000000000010100000000000000000000000000000000000000000000000000000000000000000000000000000000000000000000000000000000000000000000000000000000000000000000000000000000000001000000000000000000000000000000000000000101000000000000000000000000000000000000000000000000001000011000000000000100000110100000000000000000000000000000000000000000000000000000110000000000000000000000010000000000000000000000000000000000000000100000000000000000000000000000000000000000000000000001001001000000000111100001101000000000000000000000000000000000000000000000000000010010000000000000000000000000000000000000000000000000000000000000000000000000000000000000000000000000000000000000000000100010100000000001101000001110000000000000000000000000000000000000000000000000000101000000000000000000011100011100000000000000000000000000000000000000000000000000000000000000000000000000000000000000000000010000000000000000000000000000000000000000000000000000000000000000000000000000100000000000000000000000000000000000000000000000000000000000000000000000000000000000000000000000000000000000000000000000000000000000000100000000000000000000000000000000000000000000000000000000000000000000000000000000000000000000000000000000000000000000000000000000000000000000000000000000000000000000000000000000011000000000000000000100001000000000000000000000000000000000000000000000000000000000000000000000000000000000000000000000000000000000000000000000000000000000000000000000000000000000000000000000000000000110000000000100000001000001000000000000000000000000000000000000000000000000000000000000000000000000000000000000000000000000000000000000000000000000000000000000000000000000000000000000000000000000000000000000000001000000000000100000000000000000000000000000000000000000000000000000000000000000000000000000000000000000000000000000000000000000000000000000000000000000000000000000000000000000000000000000000000000000010000001000110000000000000000000000000000000000000000000000000000000000000000000000000000000000000000111000000000000000000000000000000000000000000000000000000000001000000000000000000000000000000000000000000100000000000000000000000000000000000000000000000000000000000000000000000000000000000000000000011011100000000000000000000000000000000000000000000000000000000101000000000000000000000000000000000000000101010100000000000000000000000000000000000000000000110000000000000000000000000000000000000000000110001000000000000000000000000000000000000000000000000000000011011000000000000000000000000000000000000010010001000000000000000000000000000000000000000000010010000000000000000000000000000000000001000000010010000000000000000000000000000000000000000000000000000000100100000000000000000000000000000000000001100011000000000000000000000000000000000000000000000100100000000000000000000000000000000000100000000111000000000000000000000000000000000000000000000000000000000110000000000000000000000000000000000000001110000000000000000000000000000000010000000000000000110000000000000000000000000000000000000000000000000000000000000000000000000000000000000000000000000000000001100000000000000000000000000000000000000001011000011000000000000000000000011000000000000000000000000000000000000000000000000000000010000000000000000000000000000000000000000001000000000000000000000000000000000001100000000000000000000000000000000000001110000000000000000000001110001100000000110000000000000000000000000000000000000000010100000000000000000000000000000000000000101000000000000000000000001000111000011000000000000000000000000000000000000110010000000000000000000011000100100000001100000000000000000000000000000000000000000011000000110000000000000000000000000000001010000000000000000000000110011001000000000000000000000000000000000000000000010000000000000000000000000001001000000000000000000011000000000000000000000000000000000000001100000000000000000000000000000001000000000000000000000011000000001000000000000000000000000000000000000000001110000000000000000000000000010100000000000000000001001000000000000000000000000000000000000000000000000000000000000000000000000000000000000000000000011000001100000000000000000000000000000000000000000000000000000010000000000000000000000000000000000000010100000000000000000000000000000000000000000000000011000000000000000000000000000000000000000000000000000000000000000000000000000000000000000000000000101000000001010000000000100000000000000000000000000010000000000000000000000000000000000000000000000001001000000000000000000000000000000000000000000000001110000000000000000000000001000000000000000000000010000000010010000000000001000000000000000000000000000000000000000000000000000000000000000000000000001100000000000000000000000000000000000000000000000010000000000000000000000000101000000000000000000000011000000011000000010110010000000000000000000000000000000000000000000000000001000000000000000000000000000010000000000000000000000000000000000000000000111000000000000000000000001010000000000000011000010100000000000000001011100010000000000000000000000000011000000000000000000000010000000000000000000000000000110000000000000000000000000000000000000100000000000000000000000000000001000000000000000011000000000000000000000110001001000000000000000000000000000110000000000000000000000100000000000000000000000000001000000000000000000000000000000000000010100000000000000000000000000000000000001110000001110010100000000000000000100110010000000000000000000000000000000000000000000000000000000000000000000000000000000000000000000000000000000000000000000000101000000000000000000000000000000000000000000000000000000000000000000000000000000000000000000000000010000000000000000000000000000000000000000000000000000001110000000000000000000000000000000000000000000100000000000000000000000000000000000000000000000000010000000000000000000000011000000000000000000001010000000000000000000000000000000000000000000000000000000000100000000000000000000000000000000000000000000000000000000000000000000000000000000000000000000100100000000000000000000000000000000000000000010010000000000000000000000000000000000000000000000000000101101000100000000000000000000000000000001100000001100000000000000000000000000000000000000000001100010000000000000000000000000011000000000011000011000000000000000000000000000000000000000000000000000000100100000100000000000000000000000000000100100000100100000000000000000000000000000000000000000000000000000000000000000000000000000110000000110000000000000000000000000000000000000000000000000000000000000000100010000000000000000000000000000000110000000110000000000000000000000000000000000000000000000000011000000000000000000000001100000000000000000000000000000000000000000000000000000000000000000000000000001000000000000000000000000000000000000000000000000000000000000011000000000000000000000000000000000110000000000000000000000000000000010000000000000000000000000000000000000000000000000000000000000000000000000000000000000000000000000000000000000000000000000000000001001000000000000000000000000000000000000000000000001000001000000000000100000000000000000000000000000000000000000000000000000000000000000000000000000000000000000000000000000000000001100000000000000000001100000000000000000000000000000000000000000000000010001101100000000001000000000000000000000000000000000000000000000000000000000000000000010000000000000000000000000000000000000001101000000000000000000000000000000000000000000000000000000000000000000000001100010100000000000000000000000000000000000000000000000000000000000000000000000000000100000000000000000000000000000000000000011100000000000000000000000000000000000000000000000000000000000000000000000010000011100001110001110000000000000000000000000000000000000000000000000000000000000001000000000000000000000000000000000001111110000000000000000000000000000000000000000000000000000000000000000000000000000010010000000000000000000000000000000000000000000000000000000000000000000000000000000000000000000000000000000000000000100100000000001010110000000000000000000000000000000000000000000000000000000000000010000000000000010000000000000000000000000000110000000000000000000000000000000000000000000000000000110000000000000000000100100000000100110001100000000000000000000000000000000000000000000000000000000000010100000000000100000000000000110000000000001100000000000000000000000000000000000000000000000000001100000000000000000000100010000011000000001000000000000000000000000000000000000000000000000000000000000000000000000001000000000000001100000000000000000000000000000000000000000000000000000000000000000000000000000000000000000000100000000000000010000000000000000000000000000000000000000000000000000000000000000000000000000000000000000000000000000000000000000000000000000000000000000000000000000000000000000000000000000000000000000000000000001001000000000000000000000000000000000000000000000000000000000000000000000000000000000000000000000000000000000000000000000000000000000000000000000000000001110000000000000000000000000000000000000000000000000000000000000000000000000000000000000000000000000000000000000000111000000000000000000000000110000011000000000000000000000110000000000000011000000000000000000000000000000000000000000000000000000000000000000000000000000000000000000000000000000000000000000000000000001000011000000000000001100010010000110000000000000000000000000000000000000101000000000000000000000000000000000000000000000000000000000000000000000000000000000000000000000000000000000000000000000000000000001101000000000000011000010100000000000000000000000000000000000000000000100000000000000000000000000000000000000000000000000000000000000000000000000000000000000000000000000000000000011000000000000010101010010000000000000000000010000000000000000000000000000000000000000000000000000000000000000000000000000000000000000000000000000000000000000000000000000000000000000000000000000000001001000000000001000010000000000000000000000000000000000000000000000000000001000000000000000000000000000000000000000000000000000000000000000000000000000000000000000000000000000000000000000000000000000010010000000000000001100000000000000000000000000000000000000000000000110000101100000000000000000000000000000000000000000000000000000000000000000000000000000000000000000000000000000000000000110000000000011000000000001000000100000000000000000000000000000000000000000000001100001001000000000000000000000000000000000000000001100000111000000000000000000000000000000000000000000000000000000000001100000000000000000000000010000001000000000000000000000000000000000000000000000000001100000000000000000000000000001100000000000000011000000000000000000000000000000000000000000000000000000000000000000000000000000000000000000000000000010000000000000000000000000000000000000000000000000101000010000000000000000000000100100000000000000000000000000000000000000000000000000000000000000000000000000000000000000000000000000000000000000100000000000000000000000000000000000000000000000000000001000000100000000000000000000000110000000000000000000000000000000000000000000000000000000000000000000000000000000000000000000000000000000000000000110110000000000000000000000000100000000000000000000010000000101100000000000000000000000000000000000000000000000000000000000000000000000000000000000000000000000000000000000000000000000000000000000000000010000000010000000000000000010100000000000000000000100110000011000000000000000000000000000000000000000000000000000000000000000000000000000000000000000000000000000000000000000000000000000000000000000000000000001010011000000000000101000000000000000000001000000110010000000000000000000000000000000000000000000000000000000000000000000000000000000000000000000000000000000000000000000110000000000000000000000000000010100110000000000000100000000000000000000000110110001000000000000000000000000000000000000000000000000000000000000000000000000000000000000000000000000000000000000000000010010000000000000000000000000000110000000000000000000000000000000000000000000101101011000000000000110000000000000000000000000000000000000000000000000000000000000000000000000000000000000000000000000000011000000000000000000000000000000000000000000000000000000000000000000000000000001100010100000000010010000000000000000000000000000000000000000110000000000000000000000000000000000000000000000000000000000000000000000000000000010000000000000000000000000000000000000000000000000000011000010001000000000011000000000000000000000000000000000000000001110000000000000000000000000000000000000000000000000000000000000000000000000000000111000000000000000000000000000000000000001100000000000000000000010000000000000000000000000000000000000000000000000000100100011011000000000000000000000000000000000000000000000000000000000000000000000000001000000000000000000000110000000011000010000000000000011000010000000000000000000000000000000000000000000000000000001111101000101100000000000000000000000000000000000000000000000000000000000000000000010001000000000000000000010010000001001000000000000000000111110000000000000000000000000000000000000000000000000000000010001010000000100000000000000000000000000000000000000000000000000000000000000000000000000000000000000000000011000000001010001100000000000001100000000000000000000000000000000000000000000000000000000000000000100111000100000000000000000000000000000000000000000000000000000000000000000000110010000000000000000000000000000001000011000000000000011000000000000000000000000000000000000000000001100000000000000111101111100000000000000000000000001000000000000000000000000000000000000000000000000111000000000000000000000000000000000000110110000000000000000000000000000000000000000000000000000000011000000000000000100010011100001000000000000000000101000000000000000000000000000000000000000000000000101000000000000000000000000000000000000011000000000000000000000000000000000000000000000000000000000000000000000000001101000010000000000000000000000000100000000000000000000000000000000000000000110000000000000000000000000000000000000000000000100100000001100000000000000000000000000000000000000000000000000000000000000000100000000111100000000000000000000000000000000000000000000000000000000010010000000000000000000000000000000000000000000000000110000000011000000000000000000000000000000000000000000000000000000000000000000000000100001000000000000000000000000000000000000000000000000000000001111001000000000000000000000000000000000000110000000000000000000000000000000000000000000000000000000000000000000000000000000000000000000000100000000000000000000000000000000000000000000000000000000000100011000001101011000000000000000000000000010010001100000000000000000000000000011000000000000000000000000000000000000000000000000000000000001110000000000000000000000000000000000000000000000000000000011000000000100000001000000000000000000000000100100100100000000000000000000000000110000000000000000000000000000000000000000000000000000000000000000000000000000000000000000000000000000000000000000000000000001110001000000010000000000000000000000000110000110000000000000000000000000000000000000000000000000000000000000000000000000000000000000000000000000000000000000000000000000000000000000000000000000000000000100001100000100000000000000000000000000000000000000000000000000000000000000000000000000000000000000000000000000000000000000000000000110000000000000000000000000000000000000000000000000000000000000000110000000010000000000000000000000000000000000000000000000000000000000110000000000000000000000000000000000000000000000000000000000000001100000000000000000000000000000000000001000000000000000000000000101010000001101100000000000000000000000000000000000000000000000000000010010000000000000000000000000000000000000000000000000000000000000000000000000000000000000000000000000000101000000000000000000000010001110000010000000000000000000000000000010000000000000000000000000000100100000000000000000000000000000000000000000000000000000000000000000000000000000000000000000000000000001010000000000000000000000100011000000100010000000000000000000000000100000000000000000000000000000110000000000000000000000000000000000000000000000000000000000000000000000000000000000000000000000000000001000000000000000000000000100100000000100100000000000000000000000001000000000000000000000000000000000000000000000000000000000000000000000000000000000000000000000000000000000000000000000000000000000000000000000000000000000000000010000000001110000000000000000000000000000000000000000000000000000000000000000000000000000000000000000000000000000000000000000000000000000000000000000000000000000000000000000000000000000000000000000000000000000000000000000000000000000000000000000000000000000000000001100000000000000000000000000000000000000000100111000110000000000000000000000000000000000000000000000000000100000000000000000000000000110011100000000000000000000000000000000000000000000000000000000000100100000000000000000000000000000000000000001001000011000000000000000000000000000000000000000000000000000001000000000000000000000000010100110010000000000000000000000000000000000000000000000000000000000110000000000000000000000000000000000000000100111000000000000000000000011000000000000001000000000000000000010000000000000000000000001100001110010011110000000000000000000000000000000000000000000000000000000000000000000000000000000000000000000000101111101011100000000000001110000000000000010000000000000000000000000000000000000000000001100000010101100010000000000000000000000000000000000000000000000000000000000000000000000000000000000000000000000011000000110000000000000000111000000000000100000000000000000000000000000000000000000000000000000000000000100000000000000000000000000000000000000000000000000000000000000000000000000000000000000000000100110000001110000001100000000010000000000000000000000000000000000000000000000000000000000000000110000100001000000000000000000000000000000000000000000000000000000000000000000000000000000000000000000000110000000001110000011000000000000000000111000111000000000000000000000000000000000000000000000111110000000000000000000000000000001000000000000000000000000000000000000000000000000010000000000000000000000000000000001100000000000000011100000000000000000000000000000000000000000000000000000000000010010000001010000000000000000000000101000000000000001110000000000000000000000000000000100000000000000000000000000000000001101000000000000001000000000001000000000000000000000000000000000000000000000000011000000001000000000000000000000001001000000000000000000000000000000000000000000000001000000000000000000000000000000000000100000000000001110000000000010000000000000000000000000000000001010000000000000000000000000000000000000000000000001100000000000000101000000000000000000000000000000000000000000000000000000000000000000001000000000000000000000000000100000000000000000000000000001000010100000000000000000000000000000000000000000000000000000000000000010000000000000000000000000000000000000000000000000000000000000000000000000000000000000000000000000000000000000000000000000000000001000010000000000000000000000000000000000000000000000000000000000000000100100000000000000000000000000000000000000000000000000000000000000000000000000000000000000000000000000000000000000000001000000000010000000000000000000000000000000000000001110000000000000000000000000010001000000000011100000000000000000000000000000000000000000000000001000000000000000000000000000000000000000000000000000101000001100000000000000000000000000000000000000000000000000000000000000000000000010000000000000000000000000000000000000000000000000000000000000000101000000000000000000000000000000000000000000000000000101100011000000000000000000000000000000000000000010000010000000000000000000000000001100000000000000100000000000000000000000000000000000000000000010001000000000000000000000000000000000001110000000000000000000000000000000000000000000000000000000000000100000100000000000000000000000010001000000000000001000000000000000000000000000000000111000000000010100000000000000000000000000000000000000100000000000001000000000000000000000000000000000000000000000001000001000000000000000000100000100000000000000000010000000000010000000000000000000000000000000100010000000000000000000000000000000000001000100000001000010000000000000000000000011000000000000000000000000000000000000000000000010100001110000000000000000000000000001010000000000000000000000000000011100000000011000000000000000000000000000100100110000000001100000000000000000110000110000000000000000000000000000000000000000000000101000000000000000000000000000000000010100000000000000000000000000001111000000000110000000110000000000000000001101101000000000001011000000000000001100000000000000000000000000000000000000000000000000000100000000000000000000000000000000000010000000000000000000000000000110000001000000000000010010000000000000000000001000000000000001000000000000011000000000000000000000000000000000000000000000000000000000000000000110000000000000000000000000000000000000000000000000000011100001111000011000000011000000000000000000000000000000000000000000000000000101000000000000000000000000000000000000000000000000000000000000000010110000000000000000000000000000000000000000000000000000011000000001000110000000000000000000000000000000000000000000000000000000000000010000000000000000000000000011100000000000000000000000000000000001101000011000000000000000000000000000000000000000000000000011101101100000000000000000000000000000000000000000000000000000000000000000001100011000000000000000000000000000000000000000000000000000000000001100000101000000000000000000000000000000000000000000000000011000110000000000000000000000000000000000000000000000000000000000000000000000001001000000000000000000000000100000000000000000000000000001000000000000010000000000000000000000000000000000000000000000000010000000000000000000000000000000000000000000000000000000000000011000000000000001010000000000000000000000001000000000000000000000000000101000000001000100000000000000000000000000000000000000000000000000000000000000000000000000000000000000000000000000000000000000001001000000000000001000000000000000000000000010000000000000000000000000001001000000010000000000000000000000000000000000000000000000000000000000000000000000000000000000000000000000000000000000000000000001010000000000000000000000000000000000000000000000000000000000000000000001110000000001100000000000000000000000000000000000000000000000000000000000000000000000000000000000000000000000000000000000000000001000000000000000000000000000000000000000000000000000000000000000000000000000100000000000000000000000000000000000000000000000000000000010000000000000000000000000000000001100000000000000000000000000000000000000000000000000000000000000000000000000000000000000000000000000000000010100000000000000000000000000000000000000000000000000000001010000000000000000000000000000000011000000000000000000000000000000000000000000000000000000000000000000000000000000000000000000000000000000000101000000000000000000000000000000000000000000000000000000010100000000000000000000000000000000000000000000000000000000000000000000000000000000000000000000000000000000000000000000000000000000000000000000100000000000000000000000000000000000000000000000000000000010000000000000000000000000000000000000000000001100000000000000000000000000000000000000000000000000000000000000000000000000000000000000000000000000000000000000000000000000000000000000000000000000000000000000000000000000000000000000000000000000000011000000000000000000000000000000000000000000000000000000000000000000000000000000000000000000000000000000000000000000000000000000000000000000000000000000000000000000000000000000000000000000000000000000000000000000000000000000000000000000000000000000000000000000000000000000000000000000000000000000000000000000000000000000000000000000000000000000000000000000000000000000000000000000000000000000000000000000000000000000000011000000000000000000000000000000000000000000000000000000000000000000000000000000000000000000000000000000000000110000000000000000000000000000000000000000000000000000000000000000000000000000000000000000110000000000000000000000000000000000000000000000000000000000000000000000000000000000000000000000000000000000001100000000000000000000000000000000000000000000000000000000000000000000000000000000000000000000000000000000000000000000000010000000000000000000000000000000000000000000000000000000000000000000000000000000000000000000000000000000000000000000000000000000000000110000000000000000000000000000000000000000000000000000000000000001010000000000000000000000000000000000000000000000000000000000000000000000000000000000000000000000000000000000000000000000000000000000001010000000000000000000000000000000000000000000000000000000000000010100000000000000000000000000000000000000000000000000000000000000000000000000000111000000000000000000000000000011000000000000000000000001000000000000000000000000000000000000000000000000000000000000000010000000000000000000000000000000001100000000000000000000000000000000000000000001010000000000000000000000000001001000000001100000011000000000000000000000000000000000000000000000000000000000000000000000000000000000000000000000000000000011000000000000000000000000011000000000000000110010000000000000000000000000001100000000011000001001000000000000000000000000000000000000000000000000111000000000000110000000110000000000000000000000000000000000000000000000000000000110000000000000001001000000000000000000000000000000000000000000000010100000000000000000000000000000000000000000000000000000000000000001100000010010000000000000000000000000000000000000000000000000000000000000000000000011110000000000000000000000000000000000000000000000010000000000000000000000000000000000000000000000000000000000000000000000000011000000000000000000000000000000000000000000000000000000000000000000000000000100000000000000000000000000000000000000000000000000000000000000000000000000000000000000000000000000000000000000000000000000000000000000000000000000000000000000000000000000000000000000000000000000001101010000000000000000000000000000000000000000000000000000000000000000000000000000000110000000000000000000000000000000000000000000000000000000000000000000000000000000000000000000000000000000000000001101010110000000000000000000000000000000000000000000000000000000000000000000000000000010010000000000000000000000000000000000000000000000000000000000000000000000000000000000000000000000000000000000000101000001000000000000000000000000000000000000000000000000000000000000000000000000000000101000000000000000000000000000000000000000000000000000000000000000000000000000001110000000000000000000000000000000000010110000000000000000000000000000000000000000000000000000000000000000000000000000000100000000000000000000000000000000000000000000000000000000000000000000000000000000000000000000000000000000000000001100010100000000000000000000000000000000000000000000000000000000000000000000000000000000000000000000000000000000000000000000000000000000000001100110000000000000000000000000000000000000000000000000000000111110000000000000000000000000000001000000000000000000000000000000000000000000000000000000000000000000000000001110000000000000000000000000011001100000000000000000000000000000000000000000000000000000000111000000000000000000000000000000101000000000000000000000000000000000000000000000000000000001100000000000000000000000000000000000000001100000000000000000000000000000000000000000000000000000000000000000100000000000000000000000000000001010000110000000000000000000000000000000000000000000000000100100000000000000000000000000000000000000011000000000000100000000000000000000000000000000000000000000000000000000000000000000000000000000000001000010010000000000000000000000000000000000000000000000001010000000000000000000000000000000000000000000000000000010100000000000000000000000000000000000000000000000000000000000000000000000000000000000000000011000000000000000000000000000000000000000001000000001000000000000000000000000000000000000000000000000000000101000000000000000000000000000000000000000000000000000000000000000000000000001000000000000000000000000000000000000000000000000000000000101000000000000000000000000000000000100000000000000000000000000000100000000000000000000000000000000000000000000000000000000000000000000000000001001110000000000000000000000110000000000000000000000000000110000000000000000000000000000000011100000000000000000000000000000000000000000000011000000000000000000000000000000000000000000000001000000000000011010000000000000000000010100000000000000000000000000000000000000000000000000000000000001000100000000000000000000000000000000000000000000110000000000000000000000000000000000000000000000101000000010001100001100000000000000000010000000000000000000000000000000000000000000000000000000000000010110101100000000000000000000000000000000000000000000000000000000000000000000000000000000000000010010000000110000000000100000000000000000000000000000000000000000000000000000000000000000000000000000000011011001000000000000000000000000000000000000000000000000000000000000000000000000000000000000000011000110000001111111101000000000000000000000000000000000000000000000000000000000000000000000000000000000000011100000000000000000000000000000000000000000000000000000000000000000000000000000000000000000000010001110000100000100000000000000000000000000000000000000000000000000000000000000000000000000000000000000000101000000000000000000000000000000000000000000000000000000000000000000000000000000000000000000100111110000000000000000000000000000000000000000000000000000000000000000000000000000000000000000000000000001001000000000000000000000000000000000000000000000000001110000000000000000111000000000000000001100010100000000000000000001100000011000000000000001100000000000000000000000000000000000000000000000000000010100000000000000000000000000000000000000000000000000011100000000000010000111000000000000000000110000000000010000000100011000000110000000000000100100000000000000000000000000000000000000000000000000000000000000000000000000000000000000000000000000000000010000000000000000100010011000000000000000001100000000001010000001000000000000000000000000000101000000000000000000000000000000000000001000000011100000000000000000000000000000000000100000000000000000111100010000000000001000011000000000000000000000000110000100010001001000000000000000000000000000100000000001000000000000000000000000000101000000110111001100000000000000000000000000001000000000000000001100001100000000110000001110000000000000000000000010010000000110010000001100000000000000000000000000000000101000000000000000000000000010001110000011000001011110000000000000000000000010000000000000000100100100000000001100000010011000000000000000000000000111000101101001000000000000000000000011100000000000001010000000000000000000000000100100110000011100001000100000000000000000000000000000000000000000111000000000000000000000100101000000000000000000001100000011101001000010010000000001000000000000000000000001000000000000000000000000011000001110000101001010101100000000000000000000000000000000000000001100000000000000000000000000110010000000000000000011000111100000000000100001100001111000000000000000000000000000000000000000000000000110100010000001110001000010000000000000000000000000000000000000000000000000011110000000000100001101010000000000110000001110010000101000000010110100110011100000000000000000000000000000000000000000000001010000100000010000011011100000000000000000000000000000000000000000000000001111011000000010001011010100000000010010000000001110000000000001001001101000110110000000000000000000000000000000000000000000110110000000000111000001110000000000000000000000000000000000000001000000000101010001000001100011110011000000000100100010000010101000000000000000010001110000010000000000000000000000000000000000000000000101100000000000000000000000000000000000000000000000000000000000100000000000010100010000001000101110000000000000110001000001000100000000000001101000001110111110000000000000000000000000000000000000000000111000000000000000000000000000000000000000000000000000000000011100000000110100001100000000010011000000000000000000010000001111000010000000000100000001101001000000000000000000000001000000000000000000000000000000000000000000000000000000000000000000000000000000000011000000000011111100000000001010100000000000000000000000000101000011010000000000000000000101100000000000000000000000101000000000000000000000000000000000000000000000000000000000000000000000000000000001100000000000000100000000000001110000000000000000000000100100000100010100000000000000000010100000000000000000000000001010000000000000000000000000000000000000000000000000000000000000000000000000000000000000000000000000000000000000001000000000000000000000000000000001100010000000000000000001001000000000000000000000000001000000000000000000000000000000000000000000000000000000000000000000000000000000000000000000000000000000000000000000000000000000000001000000000000011000000000000000000000001100000000000000000000000000000000000000000000000000000000000000000000000000000000000110000000000000000000000000000000000000000000000000000000000000000000000000010000000000000000000000000000000000000000000000000000000000000000000000000000000000000000000000000010000000000000000000000001100000000000000000000000000000000000110000000000000000000000000000000000000100000000000000000000000000000000000000000000000000000000000000000000000000000000000000000000000000100000000000000000000000000000000000000000000000000000111000001100000000000000011000000000000000000000000000000000000000000000000000000000000000000000000000000000000000000000000000000000000000000000001000000000000000000000000000000000000000000000000000000000000000000000000000001001000000001100000000000000000000000000000000000000000000000000000000000000000000000000000000000000000000000000000000000000000000000000000000000000000000000000000000000000000000000000000000000000000010010000000101000000000000000000000000000000000000000000000000000000000000000000000000000000000000000000000000000000000000000000000000000000000000000000000000000000000000000000000000000000000000000000011000000000100000000000000000000000000000000000000000000000000000000000000000000000000000000000000000000000000000000000000000000000000000000000000000001100000000000000000000000000000000000000000000000000000000000000000000000000000000000100000000000000000000000000000000000000000000000000000000000000000000000000000000000000000000000000000110000000000100100000000000000000000000000000000000000000000000000000000000000000000100000000000011000000000000000000000000000000000000000000000000000000000000000000000000000000000000000000000000000001100000000000110000000000000000000000000000000000000000000000000000000000000000000010100000000000101000000000000000000000000000000000000000000000000000000000000000000000000000000000000000000000000000000000000000000000000000000000000000000000000000000000000000000000000000000000000001010000000000000000000000000000000000000000000000000000000000000000000000000000000000000000000000000000000000000000000000000000000000000000000000000000000000000000000000000000000000000000000000000000101000000000000000000000000000000000000000000000000000000000000000000000000000000000000000000000000000000000000000000000000000000000000000000000000000000000000000000000000000000000000000000000000000000100000000000000000000000000000000000000000000000000000000000000000000000000000000000000000000000000010000000000000000000000000000000000000000000000000000000000000000000000000000000000000000000000000000000000000000000000000011100000000000000000000000000000000000000000000000000000000000000000000000000100000000000000000000000000000000000000000000000000000000000000000000000000000000000000000000000000000000000000000000000100001000000000000000000000000000000000000000000000000000000000000000000000000001000000000000000000000000000001000000000000000000000000000000000000000000000000000000000000000000000000000000000000000001000001000000000000000000000000000000000000000000000000000000000000000000000000000000000000000000000000000000101000000000000000000000000000000000000000000000000000000000000000000000000000000000000000000000010000000000000000000000000000000000000000000000000000000000000000000000000000000000000000000000000000001010000000000000000000000000000000000000000000000000000000000000000000000000000000000000000110000000000000000000000000000000000000000000000000000000000000000000000000000000000000000000000000000000000001000000000000000000000000000000000000000000000000000000000000000000000000000000000000000100010000000000000000000000000000000000000000000000000000000000000000000000000011100000000000000000000000000000000000000000000000000000000000000000000000000110000000000000000000000000000000000000000001011001000000000000000000000000000000000000000000000000000000000000000000000000000000000000000000000000000000000000000000000000011000000000000000000000000001100000000000000000000000000000000000000000010001000000000000000000000000000000000000000000000000000000000000000000000000000000000000000000000000000000000000000000000000000110000111000000000000000000000000000000000000000000000000000000000000000001010000000000000000000000000000000000000000000000000000000000000000000000000000000000110000000000000000000000011000000000000000000000000000000000000000000000000000000000000000000000000000000000000000011100000000000000000000000000000000000000000000000000000000000000000000000000000000001010000000000000000000000110000000000000000000000000000000000000000000000000000000000000000000000000000000000000000000000000000000000000000000000000000000000000000000000000000000000000000000000000000001100000000000000000000000000000000000000000000000000000000000000000000000000000000000000000000000000000000000000000000000000000000000000000000000000000000000000000000000000000000000000000000000000000000000000000000000000000000000000000000000000000000000000000000000000000000000000000000000000000000000000000000000000000000000000000000000000000000000000000000000000000000000000000