P1
200 200
0000000000000000000000000000000000000000000000000000000000000000000000000000000000000000000000000000000000000000100000000000000000000000000000000000000000000000000000000000000000000000010000000000000000000000000000000000000000000000000000000000000000000000000000000000000000000000000000000000000000000000010000010100000000000000000000000000000000000000000000000000000000000000000000001010000000000000000000000000000000000000000000000000000000000000000000000000000000000000000000000000000000000000000000001010000100100000000100000000000000000000000000000000000000000000000000000000000010100000000000000000000000000000000000000000000000000000000000000000000000000000000000000000000000000000000000000000000011000000110000000010100000000000000000000000000000000000100000000000000000000000010000000000000000000000000000000000000000000000000000000000000000000000000000000000000000000000000000000000000000000000000000000000000000101000000000000000000000000000011100010100000000000000000000000000011100011000000000000000000000000000000000000000000000000000000000000000000000000000000000011000000000000000000000000000000000000000000100000000000000000000000000000000000100100000000000000000000000000000001001000000000000000000000000000000000000000000000000000000000000000000000000000000000110000000000000000000000000000000000000000000000000000000000000000000000000000000110000000000000000000000000000000001010000000000000000000000000000000000000000000000000000000000000000000000000000000000000000000000000000000000000000000000001100000001100000000000000000000000000000000000000000001100000000000000000000001000000000000000000000000000000000000000000000000000000000000000000000000000000000000000000000000000000000000000000000000100100000100100000000000000000000000000000000000000000011000000000000000000000000000000000000000000000000000000000000000000000000000000000000000000000000000000000000000000000000000000000000000000000000110000000110000000000000000000000000000000000000000000000000000000000000000001110000000000000000000000000000000000000000000000000000000000000000000000000000000000000000000000000000000000000000000000000000000000000000000000000000000000000000000000000000000000000000000000000000010100000000000000000000000000000000000000000000000000000000000000000000000000000000000000000000000000000000000000000000000000000100000000000000000000000000000000000000000000000000000000000000000000000100100000000000000000000000000000000000000000000000000000000000000000000000000000000000100000000000000000000000000000000000000010100000000000000000000000000000000000000000000000000000000000000000000000011000000000111000000000000000000000000000000000000000000000000000000000000000000000001000000000000000000000000000000000000000101000000000000000000000000000000000000000000000000000000011000000000000000000000000000100000000000000000000000000000000000000000000000110000000000000000000000010000000000000000000000000000000000000000100000000000000000000000000000000000000000000000000000001001000000000000000000010000000000000000000000000000000000000000000000000000010010000000000000000000000000000000000000000000000000000000000000000000000000000000000100000000000000000000000000000000000010100000000000110000001100000000000000000000000000000000000000000000000000000101000000000000000000011100011100000000000000000000000000000000000000000000000000000011100000000000000000000000000000000000010000000000001100000000100000000000000000000000000000000000000000000000000000100000000000000000000000000000000000000000000000000000000000000000000000000000000001001100000000000000000000000000000000000000000000000000000000111000000000000000000000000000000000000000000000000000000000000000000000000000000000000000000000000000000000000000000000000000000000000000011101010000000000000000000000011000000000000000000000000000000101100000000000000000000000000000000000000000000000000000000000000000000000000000000000000000000000000000000000000000000000000000000000011011010010000000000000000000000110000000000000000000000000000111001000000000000000000000000000000000000000000000000000000000000000000000000000000000000000000000000000000000000000000000000000000000001001000100110000000000000000000000000000000000000000000000000001111001000000000000000000000000000000000000000000000000000000000000000000000000000000000000000000000000000000000000000000000000000000000111111000010000000000000000000000000000000000000000000000000000000011010000000000000000000000000000000000000000000000000000000000000000000000000000100000000000000000000000000000000000000000000000000000100100010100000000000000000000000000000000000000000000000000000000111000000000000000000000000000000000000000000000000000000000000000000000001110010000010000000000000000000000000000000000000000000000000110101100010110000000000000000000000000000000000000000000000000000000000000000000000000000000000000110000000000000000000000000000000000000010000000001011000000000000000000000000000000000000000000000000011101000100100000000000000000000000000000000000000000000000000000000000000000000000000000000000010010000000000000000000000000000000000011000001101011000110000000000000000000000000000000000000000000000100110001110000000000000000000000000000000100000000000000000000000000000000000000000000000000000100100000000000000000000000000000000000011100000000010101000000000000000000000000000000000000000000000000111000011000000000000000000000000000000001000000000000000000000000000000000000000000000001110000110000000000000000000000000000000000000010100000000000000000000000000000000000000000000000000000000000000100000110000000000000000000000000000000000000000000000000000000000000000000000010000000000000000000000000000000000000000000000000000000000010000000000000000000000000000000000001000000000000000000000000000010100001100000000000000000000000000000000000000000000000000000000000000000100000000000000000000000000000000000000000000000000000000110100000000000000000000000000000000000101000000000000000000000000000010000011000000000000000000000000000000000000000000000000000000000000000001000000000000000000000000000000000000000000000000000000000010000000000000000000000000000000000001010000000000000000000000000000000000000000000000000000000000000010000000000000000000000000000000000000000000000110000000000000011000000000000000000000000000000000000000000000000000000000000000000000001000000000000000000110000000000000000000000000000000000000000000100000000000001100000000000000000000000000000001100000000000001001000000000000000000000000000000000000000000000000000000000000000000000000000000000000000001010000000000000000000000000000000000000000001000000000000000100000010000000000000011100000000000000000000010100000000000000000000000000000000000000000000000000000000000000000000000000000000000000000001000000000000000000000000000000000000000000000000000000000110000001010000000000001101100000000000000000000010000000000000000000000000000000000000000000000000000000000000000000000000000000000000000000000000000000000000000000000000000001000000000000000000000000000000010010000000000101011000000000000000000000000000000000000000000000000000000000000000000000000000000000000000000000000000000000000000000000000010000000000000000000000000101000000000001100000110000000000011000000000001000100000000000000000000000000000000000000000000000001000000000000000000000000000000000000000000000000000000000000000000000001010000000000000000000000001010000000000111000001000110000000000000000000001001000000000000000000000000011000000000000000000000010000000000000000001000110000001110000000000000000000000000000000000100010100000000000000000000000001000000000010010000110101000000000000000000000011100000000000000000000000000110000000000000000000000100000000000000000010010000000000000000000000000000000000000000000010100010000000000000000000000000000000001110010010001001000000000000001100000000000000000000000000000000000000000000000000000000000000000000000000000011000000010000000000000000000000000000000000000000101000000000000000000000000000000000000000000011100011000000000000000010100000000000000000000000000010000000000000000000000000000000000000000000000000100000100100011000000000000000000000000000000000000100000000000000000000000000000000000000000000010000000000000000000000010000000000000000000000000001010000000000000000000000000000000000000000000000001011000000111111100000000000000000000000000000000000000000000000000000000000000000000000000000000000000000000000000000000000000000000000000000000000010010000000000000000000000000000000000000000000000001010001100100000000000000000000000000000000001100000001100000000000000000000000000000000000000000000000000000000000000000000000000000000000000011000011000000000000000000000000000000000000000000000000000000110000110101100000000000000000000000000011000000100100000000000000000000000000000000000000000000000000000000000000000000000000000000000000110000000000000000000000000000000000000000000000000000000001111000000111011000000000000000000000000000000000000110000000000000000000000000000000000000000000000000011000000000000000000000000000000000000000000000000000000000000000000000000000000000000000000000011100000000000100000000000000000000000000001000000000000000000000000000000000000000000000000000000000000110000000000000000000000000000000010000000000000000000000000000000000000000000000000000000000000010000000000000000000000000000000000000001101000000000000111000000000000000000000000000000000000000000000000000000000000000000000000000000100000000000000000000000000000000000000000000000000000000000000000000000000000000000000000000000000000000010000000000011011000000000000000000000000000000000000000000000000000000000001000000000000000001000000000000000000000000000000000000000000000000000000000000000000000000000000000000000000000000000000101000001110000011000000000000000000000000000000000000000000000000000000000000010000000010000000000000000000000000000000000000000000000000000000000000000000000000000000000000000000000000000000000000000111100011100000110000000000000000000000000000000000000000000000000000000000000100000001111000000001110000000000000000000000000000000000000000000000000000000000000000001110000000000000000000000000000010111101000101000000000000000000000000000000000000000000000000000000000000000000000000001011000000000000000000000000000000000000000000000000000000000000000000000000000000000000000000000000000000000000101100100011010000010000000000100000000000000000000000000000000000000000000000000000000100001000010000000000000000000000000000110000000000000000000000000000000000000000000000000000110000000000000000001000110000010101001100000000111100000000000000000000000000000000000000000000000000000110011011000100000000000000110000000000001100000000000000000000000000000000000000000000000000001100000000000000000001000000000000000000010000001000100000000000000000000000000000000000000000000000000010000000010001000000000000001100000000000000000000001110000000000000000000000000000000000000000000000000000000000000101000000000000001010100000011110000000000000000000000000000000000000000000000000000000000000010000000000000000000000000000000000000000010000000000000000000000000000000000000000000000000000000000000000001000000000000000101100000001000000000000000000000000000000000000000000000000000000101000011000000000000000000000000000000000000000000010000000000000000000000000000000001110000000000000000000000000011010000000000010110010000000000000000000000000000000000000000000000000000000000000000000000000000000000000000000110000011000000000000000000000000000000000000011000000000000000000000000000000000000000001000000000000101111000000000000000000000000000000000000000000000000000000000000000000000000000000000000001100010010000110000000000000000000000000000000000000101000000000000000000000000000000000000000000000000000000100110110000000000000000000000000000000000000000000000000000000000000000000000000000000000011000010100000000000000000000000000000000000000000000100000000000000000000000000000000000000000000000000000000000110100000000000000000000000000000000000000000000011000000000000000000000000000000000000000000010000000000000000000000000000000000000000000000000000000000000000000000000000000000000000000000000000000000001000000000000000000000000000000000000000000001001000000000000000000000000000000000000000000000000000000000000000000000011100000000000000000000000000000000000000000000000000000000000000000000000000000011011000000000000000000000000000000000000000010010000000000000000000000100000000000000000000000000000000000000000110000000000000000000000000000000000000000000000000000000000000000000000000000000000000110110000000000000000000000000000110000000000011000000000000000000000001000000000000000000000000000000000000000001100001010000000000000000000000000000000000000000001100000111000000000000000000000000000010000000000000000000000000000001100000000000000000000000000000000000010000000000000000000000000000000000000000000000001000000000000000000000000001100000000000000011000000000000000000000000000000000000000000000000000000000000000000000000000000000000000000000000000000000000000000000000000000000000000000000000000000000000000000000000000000000000100100000000000000000000000000000000000000000000000000000000000000000000000000000000000000000000000000000000000001110000000000000000000000000000000000000000000000000000000000000000000000000000000000000110000000000000000000000000000000000000000000000000000000000000000000000000000000000000000000000000000000000000100010000000000000000000000000000100000000000000000000000000000000000000000000000000000000000000000000000000000000000000000000000000000000000000000000000000000000000000000000000000000000000000000000010000100000000000000000000000000010100000000000000000000000000000000000000000000000000000000000000000000000000000000000000001000000000000000000000000000000000000000000000000000000000000000000000000000110110000000000000000000000000000101000000000000000000000000000000000000000000000000000000000000000000000000000000000000000010000000000000000000000000000000000000000000000000000000000110000000000000000000000000000000010100000000000000100000000000000000000000000000000000000000000000000000000000000000000000000000000000000000100000000110000000000000000000000000000000000000000000000010010000000000000000000000000000001001000000000000000000000011000000000000000000000001101000000000110000000000000000000000000000000000000000000000000010010000000000000000000000000000000000000000000000011000000000000011011100000000000010010000000000000000011101011000000000000000000010110111100000010010000000000000000000000000000000000000000000000000101000000000000000000000000000000000000000000000000000000000000001000111100000000000000000000000000000001101010101000000000000000001110100100100000011000000000000000000000000000000000000000000000000000100000000000000000000000000000000000000000000000000000000000000010000001000000000001110000000000000000100000010011000000000000000100001010000100000000000000000000000000000000000000000000000000000000000000000000000000000000000000000000000000000000000000000000000001101111100000000000001010000000000110000110000110100000000000000000111011000110000000000000000000000000000000000000000000000000000000000000000101000000000000000000000000000000000000000000000000000000010011001000000000000001110000000010010000100000110000000000000000000101100000000000000000000000000000000000000000000000000000000000110000000000001000000000000000000000000000000000000000000000000000000011100001000000001110010000000000011000000000000000000000000000000000000000000000000000000000000000000000000000000000000000000000001100000000100001000000000000000000000000000000000000000000000000000000010011100011100001001100000000000000000000000000000000000000000000000000000000000000000000000000000000000000001100000000000000000000000000000100000000000000000001000000000000000000000000000000000000000100000000000000001110000000000000000000000000000000000000000000000000000000000000000000000000000000000000000011000000000000000000000000000000100000000000000000101000000000000000000000000000000000000111000000000000000001000000000000000000000000000000001000000000000000000000000000000000000000000000000000000000000000000000000000000000000000001000100000000000000100000000000000000000000000000000000010100000000000000000000000000000000000000000000011000010000000001011000000000000000000000000000000000000000000000000000000000000000000001111110010000000000000000000000000000000000000000000000000000000000001010000000000000000000000000000000000000000110000100000000010000010000000000000000000000000000000000000000000000000000000000000001101001111000100000000000000000000000000000000000000000000000000000001110000000000000000000000000000000000000000000000000000000000000000100000000000000000000000000000000000000000000000000000000000000011000000000000000000000000000000000000000000000000000000000000000000011010110000000000000000000000000000000000010000000000000000000000001000000011000000000000000000000000000000000000000000000000000000001000010000000000000000000000000000000000000000000000000000000000000000110010000000000000000000000000000000001010000000000000000000000110000000110000000000000000000000000000000000000000000000000000000010100000011100000000000000000000000000000000000000000000000000000000001111000000000000000000000000000000000110000000000000000000000101000000000000000000000000000000000000000000000000000000000000000000100010001110000000000000000000000000000000000000000000000000000000000000100000000000000000000000000000000000000000000000000000000000100000000000000000000000000000000000000000000000000000000000000000000110000000000000000000000000000000000000000000000000000000000000000000000000000000000000000000000000000000000000000000000000000000000000110000000000000000000000000000000000000000000000000000000000000000000000000000000000000000000000000000001000000000000000000000110000000000000001110000000000000000000000000000000000000000000000000000010010000000000000000000000000000000000000000000000000000000000000000000000000000000000000000000000000000101000000000000000000001100000001000000101100000000000000000000000010000000000000000000000000000100100000000000000000000000000000000001110000000001000000000000000000000000000000000000000000000000000001010000000000000000000000000000010000010000000000000000000000000000100000000000000000000000000000110000000000000000000000000000000000010010000110010000000000000000000000000000000000000000000000000000001000000000000000000000000000000000011100000000000000000000000000001000000000000000000000000000000000000000000000000000000000000000001000000010000010011000000010000000000000000000000000000000000000000000000000000000000000000000000000000000000000000000000000000000000000000000000000000000000000000000000000000000000000000000000000000011000101100101001001000001100000000000000000000000000000000000000000000000000000000000000000101111111010110100000000000000000000000000000000000000000000000000001100000000000000000000000000000000000000010001101100010010100000010100000000000000000000000000000000000000100000000000000000001110010000111101100110000000000000000000000000000000000000000000000000000100100000000000000000000000000000000000000001010001110000010000000000000000000000000000000000000000000000001000000000000000000010000100000000000010100000000000000000000000000000000000000000000000000000110000000000000000000000000000000000000000000010000001110000000000000000000000000000001000000000000000000010000000000000000000101000000111000010100100000000000000000000000000000000000000000000000000000000000000000000000000000000000000000000000100010000100100000000000000000000000000000010000000000000000000000000000000000000000110000011000001001000100000000000000000000000000000000000000000000000000000000000000000000000000000000000000000001000000010001000100000000000000000000000000000100000000000000000000000000000000000000000000000110111100001000000000000000000000000000000000000000000000000000000000000000000000000000000000000000000000010110000100100100100001100000000000000000000000000000000000000000000000000000000000000000000000111000000000010000100000000000000000000000000000000000000000000000000000000000000000000000000000000000000100011001001111001000011000000000000011000111000111000000000000000000000000000000000000000000000000000000000000010100000000000000001000000000000000000000000000000000000000000000000010000000000000000000000001110100010100000000000000000000110000000000000000000000000000000000000000000000000000000000000000000001001000100000000000000101000000000000000000000000000000000000000000000000100000000000000000000000000000000101000000000000000000000000000001000000000000000000000000000000000000000000000000000000000001100000001000000000000001001000000000000000000000000000000000000000000000001000000000000000000000000001001111100000000000000000000000000000010000000000000000000000000000000000000000000000000000000000000000011011000000000000001100000000000001111000000000000000000000000000000000000000000000000000000000111000011100000000000000000011000000000100000000000000000000000000000000000000000000000000000000000000010000010000000000000000000000000000110110000000000000000000000000000000000000000000000000000000011010000110000000000000000000001000000000000000000000000000000000000000000000000000000000000000000000000011000100000000000000000000000000110001000000000000000000000000000000000000000000000000000000001100010011100110000000000000001100000000000000000000000000000000000000000000000000000000000000000000000000010001110000000000000000000000011101100000000000011100000000000000000000000000000000000000000111000101010001100000000000000000000000000000000000000000000000000001100000000000000000000000000000000000000000000000000000000000000000001111110000000000000000000000000000000000000000000000000000000000110000011000010100000000010000000000000000000000000000000000000000011000000000000000000000000000000000000000010000010000000000000000000111010000000000000000000100000000000000000000000000000000000000000110110010100001000000001100000000000000000000000000000000000000000000000000000000000000000000000000000000000100000100000000000000000100110000000000000000000001000000000000000000000000000000000111000000111000101000000000000010000001110000000000000000000000000000000000000000000000000000000000000000000000000001000001000000000000000010001100000000000000000000010000000000010000000000000000000000000000000100000100000011000000000011000100000000000000000000000000000000000000000000000000011000000000000000000000000000000000000000000001100000000000000001100000000000000000001010000000000000000000000000000000000000000000010000000000000001000000000000000000000000000000000000000000000110000110000000000000000000000000000000000000000001110110000011000000011000000000000000000010100000000000000000000000000100000000000000001000001110001000100000000000000000000000000000000110000000000001100000000000000000000000000000000000000000000000000000000000101000000000000000000000000000010000000000000000000000000101000000000000000000000010000010110000000000000000000000000000000001100000000011000000000000000000000000000000000000000000000000000000000000000001000000000000000000000000000000000000000000000000000001000000000000000000000000011000000000000000000000000000000000000000000000000000101000000000000000000000000000000000000000000000000000000000110000111011100000000000000000000000000000000000000000000000110000000001000000000000000000000000000000000000000000000000000000000000000000000010000000000000000000000000011100000000000000000000000000000110001000101000000100000000000000000000000000000000000000001100000000101000000000000000000000000000000000000000000000000000001100000000000001100011000000000000000000000000000000000000000000000000000100000000001110000010100000000000000000000000000000000000000011000000010010000000000000000000000000000000000000000000000000000000000000011000000001001000000000000000000000000100000000000000000000000001001000000000000000101000000000000000000000000000000000000000000001000101100000000000000000000000000000000000000000000000000000000000001110000000001010000000000000000000000001000000000000000000000000010010000000000000000100000000000000000000000000000000000000000000101000010000000000000000000000000000000000000000000000000000000000000000000000000001000000000000000000000000010000000000000000000000000100000000000000000000000000000000000000000000000000000000000000110001000000000000000000000000000000000000000000000000000000000000000000100000000000000000000000000000000000000000000000000000000000000001001000000000000000000000000000000000000000000000000000000000001111100001100000000000000000000000000000000000000000000000000000000000001100000000000000000000000000000000000000000000000000000000000000000100001000000100000000000000000000000000000000000000000000000001000000000000000000000000000000000001100000000000000000000000000000000010000000000000000000000000000000000000000000000000000000000000000001001001000111000000000000000000000000000000000000000000000000010000000000000000000000000000000000011000000000000000000000000000000000000000000000000000000000000000000000000000000000000000000000000000111000100000000000000000000000000000000000000000000000000000001010000000000000000000000000000000000000000000000000000000000000000000000000000000000000000000000000000000000000000000000000000000000000000000000001001000000000000000000000000000000000000000000000000011000000000000000000000000000000000000000000000001100000000000000000000000000000000000000000000000000000000000000000000000000000000000000000000000010001000000000000000000000000000000000000000000000000000000000000000000000000000000000000000000000000011000000000000000000000000000000000000000000000000000000000000000000000000000000000000000000000000100011000000000000000000000000000000000000000000000000000000000000000000000000000000000000000000000000000000000000000000000000000000000000000000000000000000000000000000000000000000000000000000000000000000010000000000000000000000000000000000000000000000000000000000000000000000000000000000000000000000000000000000000000000011000000000000000000000000000000000000000000000000000000000000000000000000001100111000000000000000000000000000000000000000000000000000000000000000000000000000000000000000000000000000000000000000000000110000000000000000000000000000000000000000000000000000000000000000000000000011000000000000000000000000000000000000000000000000000000000000000000000000000000000000000000000000000000000000000000000000000000000000000000000000000000000010000000000000000000000000000000000000000000000000000000000000000000000000000000000000000000000000000000000000000000000000000000000000110000000000000000000000000000000000000000000000000000000000000001010000000000000000000000000000000000000000000000000000000000000000000000000000000000000000000000000000000000000000000000000000000000001010000000000000000000000000000000000000000000000000000000000000010100000000000000000000000000000000000000000000000000000000000000000000000000000000000000000000000000000000000011000000000000000000000001000000000000000000000000000000000000000000000000000000000000000010000000000000000000000000000000001100000000000000000000000000000000000000000000000000000000000000000000000001001000000001100000011000000000000000000000000000000000000000000000000000000000000000000000000000000000000000000000000000000011000000000000000000000000011000000000000000000000000000000000000000000000001100000000011000001001000000000000000000000000000000000000000000000000111000000000000110000000110000000000000000000000000000000000000000000000000000000110000000000000000000100000000000000000000000000000000000000000000010100000000000000000000000000000000000000000000000000000000000000001100000010010000000000000000000000000000000000000000000000000000000000000000000000000010100000000000000000000000000000000000000000000010000000000000000000000000000000000000000000000000000000000000000000000000011000000000000000000000000000000000000000000000000000000000000000000000000000101000000000000000000000000000000000000000000000000000000000000000000000000000000000000000000000000000000000000000000000000000000000000000000000000000000000000000000000000000000000000000000000000000000100000000000000000000000000000000000000000000000000000000000000000000000000000000110000000000000000000000000000000000000000000000000000000000000000000000000000000000000000000000000000000000000000000000001000000000000000000000000000000000000000000000000000000000000000000000000000010010000000000000000000000000000000000000000000000000000000000000000000000000000000000000000000000000000000000000000000000010000000000000000000000000000000000000000000000000000000000000000000000000000101000000000000000000000000000000000000000000000000000000000000000000000000000001110000000000000000000000000000000000000000100000000000000000000000000000000000000000000000000000000000000000000000000000100000000000000000000000000000000001000000000000000000000000000000000000000000000000000000000000000000000000000000000011000000000000000000000000000000000000000000000000000000000000000000000000000000000000000000000000000000000000000000111000000000000000001100110000000000000000000000000000000000000000000000000000000000110000111000000000000000000000001000000000000000000000000000000000000000000000000000000000000000000000000001110000011001000000000000000011001100000000000000000000000000000000000000000000000000000000011100000000000000000000000000000101000000000000000000000000000000000000000000000000000000001100000000000000000000000100010000000000001100000000000000000000000000000000000000000000000000000000000000000000001000000000000000000000000001010000110000000000000000000000000000000000000000000000000100100000000000000000000001001100000000000011000000000000100000000000000000000000000000000000000000000000000000000010000000000000000000000000001000010010000000000000000000000000000000000000000000000001010000000000000000000000011001000000000000000000000000010100000000000000000000000000000000000000000000000000000000100000000000011000000100000000000011000000000000000000000000000000000000000001000000001000000000000000000000000001101000000000000000000000000101000000000000000000000000000000000000000000000000000000000000000000001010000000100000000000000000000000000000000000000000000000000000101000000000000000000000000000000000010000000010000000000000000000100000000000000000000000000000000000000000000000000000000000000000000001000000010000000000000000000000000110000000000000000000000000000110000000000000000000000000000000000010100001010000000000000000000000000000000000011000000000001001000000000000000000000000000000011000000000000000000000000000000000000010100000000000000000000000000000000000000000000000000000000000100000010000010110000000000000000000000000000000000110000000000010100000000000000000000000000000001001000000000000000000000000000000000000010000000000000000000000000000000000000000000000000000000000001110000000010000100000000000000000000000000000000000000000000000111000000000000000000000000000000010100000000000000011000000000000000000000000000000000000000000000000000000000000000000000000000000000011111000001000000000000000000000000000000000000000000000000000000000000000000000000000000000000000010000000000000000101000000000000000000000000000000000000000000000000000000000000000000000000000000000110010000110000011000000000000000000000000000000000000000000000000000000000000000000000000000000000000000000000000001010000000000000000000000000000000000000000000000000000000000000000000000000000000000111000000111000110100000000000000000000000000000000000000000000000001100000000000000000000000000000000000000000000000000000000000000000000000000000000000000000000000000000000000000000000000000000000000100000001001111011000000000000000000000000000000000000000000000000110000000000000000000000000000000000000000000001000000000000001100000011000000000000001100000000000000000000000000000000000000000000000000000000101000010000000000000000000000000000000000000000000000001101000000010000000001100000000000000000000000000001000000000011000000110000000000000100100000000000000000000000000000000000000000000000000000110110000000000000000000000000000000000000000000100000000100100000000100000110010000000000000000000000001100100000000000000001000000000000000011101000000000000000000000000000000000000000000000000000000000000000000000000000000000000100000000000000010100000001010000010001000010010110100000000000000000000010000000000000000000101000000000000010110100000000001000000000000000000000000000000000000000000000100001100000000000000000000001000000000000000011000000100000001010000000110011100010000000000001111110000000000000000000001001000000000000100100000000000101000000000000000000000000000000000001000000000000110000000000000000000000010000000000000000000000000110000000000000000111010000101000000000101100100000000000000000000001100000000000010001000000000001010000000000000000000000000000000000010010001100000001000000000000000000000000000000000000000000000000100000000000000000111110101010000000000100011000000000000000000000000000000000000100001000000000001000000000000000000000000000000000000010110010000000010000000000000000000000000000000000000000000000000000000000000000000001110110000000010000111000000001000000000000000000000000000001000000000000000000000000000000000000000000000000000000011100110000000000000000000000000000000000000000000000000000000000000000000000000000001100000011001010001110000000010000000000000000000000000000100000000000000000000000000000000000000000000000000000000010010000000010000000000000000000000000000000000000000000000000000000000000000000000000001100111100010000000000000000000000000000000000000000001101110000000000000000000000000000000000000000000000001011110000110000000000000000000000000000000000000000000000000000000000000000000000000000000011001100100100000000000000000000000000000000000000000010000100000000000000000000000000000000000000000000000010010000011000000000000000000000000000000000000000000000000111000000000000000000000000000110111000000110000000000000000000000000000000000000000000011000000000000000000000000000000000000000000000000000000000010000000000000000000000000000000000000000000000000001010000000000000000000110000001100000000000000000000000000000000000000000000000000000000010001000000000000000001000000000000000000000000000000110000000000000000000000000000000000000000000000000000000010010000000000011000001100000000000000000000000000000000001000000000000000000000000000000010010000000000000000101000000000000000000000000000000110000000000000000000000000000000000000000000000000000000011000000000000110000000000000000000000000000000000000000101000011000000000000000000000000100010000000000000001010000000000000000000000000000001100000000000000000000000000000000000000000000000000000000000000000000000000000000000000000000000000000000000000001001001001000000000000000000000001001000000000000000001000000000000000000000000000000000000000000000000000000000000000000000000000000000000000000000000000000000000000000000000000000000001000001100000001100010100000000000000000000000001010000000000000000000000000000000000000000000000000000000000000000000000000110000000000000000000000000000000000000000000000000000000000000000000000000010000110000000000000010000000000000000000000000000000000000000000000000000000000000000000000000000010000000000000000000000001100000000000000000000000000000000000000000000000000000000000000000000000000100000010000000000000000000000000000000000000000000000000000000000000000000000000000000000000000000100000000000000000000000000000000000000000000000000000111000000000000000000000011000000000000000000000000000000000000000000000000000000000000000000000000000000000000000000000000000000000000000000000001000000000000000000000000000000000000000000000000000000000000000000000000000001001000000001100000000000000000000000000000000000000000000000000000000000000000000000000000000000000000000000000000000000000000000000000000000000000000000000000000000000000000000000000000000000000000010010000000101000000000000000000000000000000000000000000000000000000000000000000000000000000000000000000000000000000000000000000000000000000000000000000000000000000000000000000000000000000000000000000011000000000100000000000000000000000000000000000000000000000000000000000000000000000000000000000000000000000000000000000000000000000000000000000000000001100000000000000000000000000000000000000000000000000000000000000000000000000000000000000000000000000000000000000000000000000000000000000000000000000000000000000000000000000000000000000000110000000000100100000000000000000000000000000000000000000000000000000000000000000000100000000000000000000000000000000000000000000000000000000000000000000000000000000000000000000000000000000000000000001100000000000110000000000000000000000000000000000000000000000000000000000000000000010100000000000000000000000000000000000000000000000000000000000000000000000000000000000000000000000000000000000000000000000000000000000000000000000000000000000000000000000000000000000000000000000000001010000000000000000000000000000000000000000000000000000000000000000000000000000000000000000000000000000000000000000000000000000000000000000000000000000000000000000000000000000000000000000000000000000101000000000000000000000000000000000000000000000000000000000000000000000000000000000000000000000000000000000000000000000000000000000000000000000000000000000000000000000000000000000000000000000000000000100000000000000000000000110000000000000000000000000000000000000000000000000000000000000000000000000010000000000000000000000000000000000000000000000000000000000000000000000000000000000000000000000000000000000000000000000000001100000000000000000000000000000000000000000000000000000000000000000000000000100000000000000000000000000000000000000000000000000000000000000000000000000000000000000000000000000000000000000000000000000000000000000000000000000000000000000000000000000000000000000000000000000000001000000000000000000000000000001000000000000000000000000000000000000000000000000000000000000000000000000000000000000000000000000000000000000000000000000000000000000000000000000000000000000000000000000000000000000000000000000000000101000000000000000000000000000000000000000000000000000000000000000000000000000000000000000000000000000000000000000000000000000000000000000000000000000000000000000000000000000000000000000000000000000001010000000000000000000000000000000000000000000000000000000000000000000000000000000000000000000000000000000000000000000000000000000000000000000000000000000000000000000000000000000000000000000000000000001000000000000000000000000000000000000000000000000000000000000000000000000000000000000000000000000000000000000000000000000000000000000000000000000000000000000000000000011100000000000000000000000000000000000000000000000000000000000000000000000000110000000000000000000000000000000000000000000000000000000000000000000000000000000000000000000000000000000000000000000000000000000000000000000000000000000000000000000000000011000000000000000000000000001100000000000000000000000000000000000101000000000000000000000000000000000000000000000000000000000000000000000000000000000000000000000000000000000000000000000000000000000000110000111000000000000000000000000000000000000000000000000000010100000000011000000000000000000000000000000000000000000000000000000000000000000000000000000000000110000000000000000000000011000000000000000000000000000000000000000000000000000000000000000000000000000100000000000110000000000000000000000000000000000000000000000000000000000000000000000000000000000001010000000000000000000000110000000000000000000000000000000000000000000000000000000000000000000000000001010001000000000000000000000000000000000000000000000000000000000000000000000000000000000000000000001100000000000000000000000000000000000000000000000000000000000000000000000000000000000000000000000000000011010000000000000000000000000000000000000000000000000000000000000000000000000000000000000000000000000000000000000000000000000000000000000000000000000000000000000000000000000000000000000000000000000000000000000000000000000000000000000000000000000000000000000000000000000000000