P1
200 200
0000000000000000000000000000000000000000000000000000000000000000000000000000000000000000000000000000000000000000100000000000000000000000000000000000000000000000000000000000000000000000010000000000000000000000000000000000000000000000000000000000000000000000000000000000000000000000000000000000000000000000010000010100000000000000000000000000000000000000000000000000000000000000000000001010000000000000000000000000000000000000000000000000000000000000000000000000000000000000000000000000000000000000000000001010000100100000000100000000000000000000000000000000000000000000000000000000000010100000000000000000000000000000000000000000000000000000000000000000000000000000000000000000000000000000000000000000000011000000110000000010100000000000000000000000000000100000100000000000000000000000010000100000000000000000000000000000000000000000000000000000000000000000000000000000000000000000000000000000000000000000000000000000000000101000000000000000000000000000001000010100000000000000000000000000001000000000000000000000000000000000000000000000000000000000000000000000000000000000000000011000000000000000000000000000000000000000000100000000000000000000000000000010000100100000000000000000000000000010001110000000000000000000000000000000000000000000000000000000000000000000000000000000000110000000000000000000000000000000000000000000000000000000000000000000000000000000110000000000000000000000000000000000010000000000000000000000000000000000000000000000000000000000000000000000000000000000000000000000000000000000000000000000001100000001100000000000000000000000000000000000000000001100000000000000000000000010000000000000000000000000000000000000000000000000000000000000000000000000000000000000000000000000000000000000000000000100100000100100000000000000000000000000000000000000000011000000000000000000000000000000000000000000000000000000000000000000000000000000000000000000000000000000000000000000000000000000000000000000000000110000000110000000000000000000000000000000000000000000000000000000000000000000100000000000000000000000000000000000000000000000000000000000000000000000000000000000000000000000000000000000000000000000000000000000000000000000000000000000000000000000000000000000000000000000000000001000000000000000000000000000000000000000000000000000000000000000000000000000000000000000000000000000000000000000000000000000000100000000000000000000000000000000000000000000000000000000000000000000000010010000000000000000000000000000000000000000000000000000000000000000000000000000000000000000000000000000000000000000000000000010100000000000000000000000000000000000000000000000000000000000000000000000011000000000110000000000000000000000000000000000000000000000000000000000000000000000011100000000000000000000000000000000000000101000000000000000000000000000000000000000000000000000000011000000000000000000000100000110000000000000000000000000000000000000000000000110000000000000000000000000000000000000000000000000000000000000000100000000000000000000000000000000000000000000000000000001001000000000000000000000000001100000000000000000000000000000000000000000000010010000000000000000000100000100000000000000000000000000000000000000000000000000000000000000000000000000000000000000000000010100000000000110000000010000011000000000000000000000000000000000000000000000101000000000000000000001000001000000000000000000000000000000000000000000000000000000000000000000000000000000000000000000000010000000000001100000010110101100000000000000000000000000000000000000000000000100000000000000000000010000010000000000000000000000000000000000000000000000000000000111000000000000000000000000000000000000000000000000000000001100001110000000000000000000000000000000000000000000000000000000000000000000000000000000000000000000000000000000000000000000000000000000000010001000000000000000000000000011000000000000000000000000000010000011000000000000000000000000000000000000000000000000000000000000000000000000000000000000000000000000000000000000000000000000000000000001000111000000000000000000000000110000000000000000000000000000010001000000000000000000000000000000000000000000000000000000000000000000000000000000000001000000000000000000000000000000000000000000000000100000001100000000000000000000000000000000000000000000000000000100010000000000000000000000000000000000000000000000000000000000000000000000000000000000011000000000000000000000000000000000000000000000001001000001000000000000000000000000000000000000000000000000000000011100000000000000000000000000000000000000000000000000000000000000000000000001000000011001000000000000000000000000000000000000000000000010000000011010000000000000000000000000000000000000000000000000000000000000000000000000000000000000000000000000000000000000000000000000000000111100001010011000000000000000000000000000000000000000000000010001100011100000000000000000000000000000000000000000000000000000000000000000000000000000000000000110000000000000000000000000000000000000010011011000100010000000000000000000000000000000000000000000000010001000010000000000000000000000000000000000000000000000000000000000000000000000000000000000000010010000000000000000000000000000000000001000011010000000100000000000000000000000000000000000000000000000011100000000000000000000000000000000000000000000000000000000000000000000000000000000000000010000100100000000000000000000000000000000000001001100011011010000000000000000000000000000000000000000000000000000000000000000000000000000000000000000001000000000000000000000000000000000000000000000000100000110000000000000000000000000000000000000001111000000001000000000000000000000000000000000000000000000000000000000110000000000000000000000000000001101100000000000000000000000000000000000000000000001000000000000000000000000000000000000000000000000000000000000000000000000000000000000001000000000000000000000000000010100001100000000000000000000000000000000000000011000000000000000000000001110000000000000000000000000000000000000000000000000000000000100000000000000000000000000000000000101000000000000000000000000000010000011000000000000000000000000100010000000000101000000000000000000000000000000000000000000000000000000000000000000000000000000000110000000000000000000000000000000000001010000000000000000000000000000000000000000000000000000000000000111000000000011000000000000000000000000000000001001000000000000011000000000000000000000000000000000000000000000000000000000000000000000001000000000000000000110000000000000000000000000000000000000000000000000000000110000000000000000000000000000000001100000000000001001000000000000000000000000000000000000000000000000000000000000000000000000000000000000000001010000000000000000000000000000000000000000000000000000011010000000010000000000000000000000000000000000000010100000000000000000000000000000000000000000000000000001000000000000000000000000000000000000001000000000000000000000000000000000000000000000000000000110110000001010000000000000111000000000000000000000010000000000000000000000000000000000000000000000000000001100000000000000000000000000000000000000000000000000000000000000000000001000000000000000000001001100000010010000000000110010000000000000000000000000000000000000000000000000000000000000000000000000000000000000000000000000000000000000000000000000010000000000000000000000000101000000000001110000011011000000011000000000000111000000000000000000000000000000000000000000000000000000000000000000000010000000000010000000000000000000000000000000000000001010000000000000000000000001010000000000010100000010100000000000000000000000100000000000000000000000000011000000000000000000000111000000000000000001011000000000100000000000000000000000000000000000100010100000000000000000000000001000000010001100000111110000000000000000000000000000000000000000000000000000110000000000000000000000000000000000000000100011000000001000000000000000000000000000000000010100010000000000000000000000000000000000100001010000000000000000000001100000000000000000000000000000000000000000000000000000000000000000000000000000001010010000000000000000000000000000000000000000000101000000000000000000000000000000000000001000001100010100000000000000010100000000000000000000000000010000000000000000000000000000000000000000000000001010000101110000000000000000000000000000000000000000100000000000000000000000000000000000000000000000000010000000000000000010000000000000000000000000001010000000000000000000000000000000000000000000000010000001000000100000000000000000000000000000000000000000000000000000000000000000000000000000000000000000000000000000000000000000000000000000000000000010010000000000000000000000000000000000000000000000011100010000011010000000000000000000000000000001100000001100000000000000000000000000000000000000000000000000000000000000000000000000000000000000011000011000000000000000000000000000000000000000000000000001000100000010110000000000000000000000000000011000000100100000000000000110000000000000000000000000000000000000000000000000000000000000000000000110000000000000000000000000000000000000000000000000000000010010000000000110000000000000000000000000000000000000110000000000110001110000000000000000000000000000000011000000000000000000000000000000000000000000000000000000000000000000000000000000000000000000000011000000000000100000000000000000000000000000000000000000000000011111100000000000000000000000000000000000110000000000000000000000000000000000000000000000000000000000000000000000000000000000000000000000000000000000010000000000000000000000000000011000000000000000001000111000000000000000000000000000000000000000000000000000000000000000000001110000000000000000000000000000000000000000000000000000000000000000000010000000000000000000000000000000001010000000000001110000100111100000000000000000000000000000000000000000000000000000000000000000000000000000000000000000000000000000000000000000000000000000000000000010000000000000000000000000000000001010000000010001110110001000110100000000000000000000000000000000000000000000000111000000000000000000010000000000000000000000000000000000000000000000000000000000000000100010000000000000000000000000000100110000001000110000000000001101000000000000000000000000000000000000000000000000000000000110000000000100000000000000000000000000000000000000000000000000000000000000000111100000000000000000000000000000001100110110001110000100000011100000000000000000000000000000000000000000000000000000000010001000000001000000000000000000000000000000000000000000000000000000000000000000000000000000000000000000000000000011101111000011110110101001110000000000000000000000000000000000000000000000000000000001000010000000000000000000000000000000000110000000000000000000000000000000000000000000000000000110000000000000000000110001000000110101000010000001000000000000000000000000000000000000000000000000000000001000110001110000000000000110000000000001100000000000000000000000000000000000000000000000000001100000000000000001001100000000001001011001000001011000000000000000000000000000000000000000000000000000000011000100000000000000000001100000000000000000000000010000000000000000000000000000000000000000000000000000000000001010000000000000110011110000000100000000000000000000000000000000000000000000000000000000111111000000000000000000000000000000000000000000001100000000000000000000000000000000010000000000000000000000000000101000000000011100100010101100000000000000000000000000000000000000000000000000000000001100010000000000000000000000000000000000000000000010100000000000000000000000000000000100000000000000000000000000000110000000000111010000100000000000000000000000000000000000000000000000000000000000000010000000000000000000000000110000011000000000000000000000000000000000000011000000000001000000000000000000000000000000000000000000000010001001110000000000000000000000000000000000000000000000000000000000010000000000000000001100010010000110000000000000000000000000000000000000101000000000000000000000000000000000000000000000000000000000011010000000000000000000000000000000000000000000000000000000000001100001000000000000000011000010100000000000000000000000000000000000000000000100000000000000000000000000000000000000000000000000000000000000000000000000000000000000000000000000000000000011000000000000011000100000000000000000000000010000000000000000000000000000000000000000000000000000000000000000000000000000000000000000000000000000000000001001000000000000000000000000000000000000000001001000000000000111000000000000000000000000000000000000000000000000000000000000000000000000000000000000000000000000000000000000000000000000000000000000000001110000000000000000000000000000000000000000010010000000000000110000000000000000000000000000000000000000000000000110000111000000000000000000000000000000000000000000000000001000000000000000000000000000001000000000000000000000000000000110000000000011000000000000000010000011100000000000000000000000000000000000000001100001110000000000000000000000000000000000000000001100000010000000000000000000000000000000000000000000000000000000000001100000000000000000000000000000000000000000000000000000000000000000000000000000000000101010000000000000000000000001100000000000000011000000100000000000000000000000000000000000000000000000000000000000000000000000000000000000000000000000000000000000000000000000000000000000000000000000000000000000000000000000000000100100000000000000000000000000000000000000000000000000000000000000000000000000000000000000000000000000000000000000000000000100000000000000000000000000000000000000000000000000000000000000000000000000000110000000000000000000000000000000000000000000000000000000000000000000000000000000000000000000000000000000000000001000000001000000000000000000000100000000000000000000000000000000000000000000000000000000000000000000000000000000000000000000000000000000000000000000000000000000000000000000000000000000000000000000001101100000000000000000000000000010100000000000000000000000010000000000000000000000000000000000000000000000000000000000000000000000000000000000000000000000000000000000000000000000000000000000000000000011011000000000000000000000000000101000000000000000000000000011000000000000000000000000000000000000000000000000000000000000111000000000000000000000000000000000000000000000000000000000110000000000000000110110000000000001000000000000000100000000000000000000000000000000000000000000000000000000000000000000000000000000000000000000000000110000000000000000000000000000000000000000000000010010000000000000000011000000000001110000000000000000000000000000000000000000000000001110000000000110000000000000000000000000000000000000000000000000010010000000000000000000000000000000000000000000000011000000000000000000110000000000000000000000000000000001101100000000000000000000001101010000000010010000000000000000000000000000000000000000000000000101000000000000000000000000000000000000000000000000000000000000000010001110000000000110000000000000000000101010110000000000000000000101000100100000011000000000000000000000000000000000000000000000000000100000011000000000000000000000000000000000000000000000000000000001110000000000000000000100000000000000001000000100000000000000000001000101001000000000000000000000000000000000000000000000000000000000000000011111000000000000000000000000000000000000000000000000000000100110000000000000010001000000000110000010000001000000000000000000010101100010000000000000000000000000000000000000000000000000000000000000001010110000000000000000000000000000000000000000000000000000001101010000000000001011000000000010010000010000100000000000000000000011100000000000000000000000000000000000000000000000000000000000110000000000100000000000000000000000000000000000000000000000000000000001010100000100000100010000000000011000000000010000000000000000000000000000000000000000000000000000000000000000000000000000000000001100000000110100000000000000000000000000000000000000000000000000000010000111000001000000101000000000000000000000000000000000000000000000000000000000000000000000000000000000000000001100000000000000000000000000000011000000000000000001000000000000000000000000000000000000100100000000010000000100000000000000000000000000000000000000000000000000000000000000000000000000000000000000000011000000000000000000000000000001110000000000000000101000000000000000000000000000000000000000100000000000000000000000000000000000000000000000000000000000000100000000000000000000000000000000000000000000000000000000000000000000000000101100000000000000000100000000000000000000000000000000000001101100000000000000000000000000000000000000000011000111000000000110000000000000000000000000000000000000000000000000000000000000000000001100001011000000000000000000000000000000000000000000000000000000001000110000000000000000000000000000000000000001001000000000000001110000000000000000000000000000000000000000000000000000000000000000000100101100010000000000000000000000000000000000000000000000000011000001101010000000000000000000000000000000000000010000000000000000011001100000000000000000000000000000000000000000000000000000000000000001100001011010000000000000000000000000000000000000000000000000000000001010010000000000000000000000000000000000000000100000000000000001001000000011000000000000000000000000000000000000000000000000000000001101000110110000000000000000000000000000000000000000000000000000000000000010000000000000000000000000000000000010001000000000000000011100000000110000000000000000000000000000000000000000000000000000000001010000001000000000000000000000000000000000000000000000000000000000011011000000000000000000000000000000000111010000000000000000000000000000000000000000000000000000000000000000000000000000000000000000011000000000000000000000000000000000000000000000000000000000000000000000000000000000000000000000000000000000000000000000000000000000000000000000000000000000000000000000000000000000000000000000000000000110000000000000000000000000000000000000000000000000000000000000000000000000000000000000000000000000000000000000000000000000000000000000110000000000000000000000000000000000000000000000000000000000000000000000000000000000000000000000000000001000000000000000000000110000000000000001100000000000000000000000000000000000000000000000000000010010000000000000000000000000000000000000000000000000000000000000000000000000000000000000000000000000000101000000000000000000001100110000110000100100000000000000000000000000000000000000000000000000000100100000000000000000000000000000000000000000000000000000000000000000000000000000000000000000000000000001010000000000000000000000000000011100001001000000000000000000000001110000000000000000000000000000110000000000000000000000000000000000001000000001100000000000000000000000000000000000000000000000000000001000000000000000000000000000000011111011010000000000000000000000000000000000000000000000000000000000000000000000000000000000000000000111000001101100011000000000000000000000000000000000000000000000000000000000000000000000000100000000001110010100000000000000000000000000000000000000000000000000000000000000000000000000000000000000000011001000010010001010000000110000000000000000000000000000000000000000000000000000000000000111001100000010000001100000000000000000000000000000000000000000000000001100000000000000000000000000000000000000000111000100100011100000001010000000000000000000000000000000000000000000000000000000000011110011001100011000000000000000000000000000000000000000000000000000000100100000000000000000000000000000000000000000000000110000000000000010000000000000000000000000000000000000011100000000000000000001100001001001000110000010000000000000000000000000000000000000000000000000110000000000000000000000000000000000000000000000000000000000000000000000000000000000000000000000000000000000000000000000000000001011111011001000111101000000000000000000000000000000000000000000000000000000000000000000000000000000000000000000000000000000001100000000000000000000000000000111000000000000000000000000000000000000000001111000010110000000000000000000000000000000000000000000000000000000000000000000000000000000000000000000000000001011011100001100100000000000000000000000000000000000000000000000000000000000000000000000001100110101100000100000000000000000000000000000000000000000000000000000000000000000000000000000000000000000000011101001000000011000001100000000000000000001000001000000000000000000000000000000000000000000000010000000000110000000000000000000000000000000000000000000000000000000000000000000000000000000000000000000110110110001000000000011000000000000011000010000010000000000000000000000000000000000000000000000000000000000100000000000000000000001000000000000000000000000000000000000000000000000000000000000000000000000111000001001000000000000000000000110000100000100000000000000000000000000000000000000000000000000000000101100111000000000000000101000000000000000000000000000000000000000000000001110000000000000000000001100000010010000000000000000000000000000000000000000000000000000000000000000000000000000000000000000001101111001000000000000001001000000000000000000000000000000000000000000000000000000000000000000000000000000011000000000000000000000000000000111000000000000000000000000000000000000000000000000000000000000000100100000000000000001100000000000000100000000000000000000000000000000000000000000000000000000000000000000000000000000000000000000000000000000000000000000000000000000000000000000000000000000000000000001001000000000000000000000000000000001100000000000000000000000000000000000000000000000000000000001110001000000000000000000000110000000000000000000000000000000000000000000000000000000000000000000000000010100010000000000000000000000000000101000000000000100000000000000000000000000000000000000000000100100111000000000000000000010110000000000000000000000000000000000000000000000000000000000000000000000000000000100000000000000000000000000110000000000000001000000000000000000000000000000000000000000010000000000011000000000000001001100000000000000000000000000000000001100000000000000000000000000000000000000000001000000000000000000000001101100000000000000010000000000000000000000000000000000000000000010010001010011000000000001000010000000000000000000000000000000000011000000000000000000000000000000000000000000000000000000000000000000011000000000000000000000000000000000000000000000000000000001000000011100010000100000000000100000000000000000000000000000000000000000000000000000000000000000000000000000000001110001110000000000000000000000000000000000000000011100000000000000000000000000000000010000000000000010010001000000001000001000000000000000000000000000000000000000000000000000000000000000000000000000000000000000000000000000110010010000000000000000000000000000000010000000000000000000000100000000000000011110101000000011100011000000000000000000000000000000000000000000000000000011000000000000000000000000000000000000000000001001000000000000001100000000000000000001010000000000000000000000000000000000000000001010000000000111100000000000000000000000000000000000000000000000110000110000000000000000000000000000000000000000000110010000000000000011000000000000000000010100000000000000000000000000110000000000000011000000110000110000000000000000000000000000000000110000000000001100000000000000000000000000000000000000000000000000100000101110000000000000000000000000000010000000000000000000000000100000000000000000000000010010001000000000000000000000000000000000001100000000011000000000000000000000000000000000000000000000000000000100000000010000000000000000000000000000000000000000000000000000001001000000000000000000000011000000000000000001010000000000000000000000000000000101000000000000000000000000000100000000000000000000000000111011100010001100000000000000000000000000000000000000000000001010000000000000000000000000000000000000000000010100000000000000001100000000000000010000000000000000000000000001000000000000000000000000000011110000100111000000100000000000000000000000000000000000000001000000000110000000000000000000000000000000000010000000000000000011000000000000001100011000000000000000000000010000000000000000000000000000000010000000110000001000000000000000000000000000000000000000010000000001010000000000000000000000000000000000000000000000000000010000000010000000001001000000000000000000000000000000000000000000000000000000000000000000000011000000000000000000000000000000000000000000000101010110000000000000000000000000000000000000000000000000000000000000110000000001010000000000000000000000011100000000000000000000000000010000000000000000000000000000000000000000000000000000000000001100111101100000000000000000000000000000000000000000000000000000101000000010000000001000000000000000000000000000000000000000000000000000011000000000000000000000000000000000000000000000000000000000000000101101110000000000000000000000000000000000000000000000000000000100001101000000000000000000000000000000000000000000000000000000000000001000000000000000100000000000000000000000000000000000000000000000011000000000000000000000000000000000000000000000000000000000000000000011000000000000000000000000000000000000000000000000000000000000000010001010000000001000000000000000000000000000000000000000000000001110000000000000000000000000000000001100000000000000000000000000000000000000000000000000000000000000000000000000000000000000000000000000011110110000000100000000000000000000000000000000000000000000000000000000000000000000000000000000000011000000000000000000000000000000000000000000000000000000000000000000000000000000000000000000000000000000101000001100000000000000000000000000000000000000000000000001010000000000000000000000000000000000000000000000000000000000000000000000000000000000000000000000000000000000000000000000000000000000000000000000000010100000000000000000000000000000000000000000000000011000000000000000000000000000000000000000000000001100000000000000000000000000000000000000000000000000000000000000000000000000000000000000000000000000111111000000000000000000000000000000000000000000000000000000000000000000000000000000000000000000000011000000000000000000000000000000000000000000000000000000000000000000000000000000000000000001000000001101010000000000000000000000000000000000000000000000000000000000000000000000000000000000000000000000000000000000000000000000000000000000000000000000000000000000000000000000000000000000000000001000000011000000000000000000000000000000000000000000000000000000000000000000000000000000000000000000000000000000000000000000000011000000000000000000000000000000000000000000000000000000000000000000000000001100000000000000000000000000000000000000000000000000000000000000000000000000000000000000000000000000000000000000000000000000110000000000000000000000000000000000000000000000000000000000000000000000000011000000000000000000000000000000000000000000000000000000000000000000000000000000000000000000000000000000000000000000000000000000000000000000000000000000000010000000000000000000000000000000000000000000000000000000000000000000000000000000000000000000000000000000000000000000000000000000000000110000000000000000000000000000000000000000000000000000000000000001010000000000000000000000000000000000000000000000000000000000000000000000000000000000000000000000000000000000000000000000000000000000001010000000000000000000000000000000000000000000000000000000000000010100000000000000000000000000000000000000000000000000000000000000000000000000000000000000000000000000000000000011000000000000000000000001000000000000000000000000000000000000000000000000000000000000000010000000000000000000000000000000001100000000000000000000000000000000000000000000000000000000000000000000000001001000000001100000011000000000000000000000000000000000000000000000000001000000000000000000000000000000000000000000000000000011000000000000000000000000011000000000000000000000000000000000000000000000001100000000011000001001000000000000000000000000000000000000000000000000010000000000000110000000110000000000000000000000000000000000000000000000000000000110000000000000000000100000000000000000000000000000000000000000000010100000000000000000000000000000000000000000000000000100000000000001100000010010000000000000000000000000000000000000000000000000000000000000000000000000010100000000000000000000000000000000000000000000010000000000000000000000000000000000000000000000000000000000000000000000000011000000000000000000000000000000000000000000000000000000000000000000000000000101000000000000000000000000000000000000000000000000000000000000000000000000000000000000000000000000000000000000000000000000000000000000000000000000000000000000000000000000000000000000000000000000000000100000000000000000000000000000000000000000000000000000000000000000000000000000000110000000000000000000000000000000000000000000000000000000000000000000000000000000000000000000000000000000000000000000000000000000000000000000000000000000000000000000000000000000000000000000000000000010010000000000000000000000000000000000000000000000000000000000000000000000000000010000000000000000000000000000000000000000111000000000000000000000000000000000000000000000000000000000000000000000000000101000000000000000000000000000000000000000000000000000000000000000000000000000000100000000000000000000000000000000000000000000000000000000000000000000000000000000000000000000000000000000000000000000000100000000000000000000000000000000000000000000000000000000000000000000000000000001000000000000000000000000000000000000001000001000000000000000000000000000000000000000000000000000000000000000000000000000000000000000000000000000010000000000000000000000000001100110000000000000000000000000000000000000000000000000000000000010000010000000000000000000000001000000000000000000000000000000000000000000000000000000000000000000000000000100000001110000000000000000011001100000000000000000000000000000000000000000000000000000000000100000100000000000000000000000101000000000000000000000000000000000000000000000000000000001100000000000000001000000100010000000000001100000000000000000000000000000000000000000000000000000000000000001100000000000000000000000000000001010000110000000000000000000000000000000000000000000000000100100000000000000000000001100010000000000011000000000000100000000000000000000000000000000000000000000000000011000111000000000000000000100000001000010010000000000000000000000000000000000000000000000001010000000000000000000000000100000000000000000000000000010100000000000000000000000000000000000000000000000000000000000000000000000000000100000000000011000000000000000000000000000000000000000001000000001000000000000000000000000001000100000000000000000000000101000000000000000000000000000000000000000000000000000000000000000000001111010011000000000000000000000000000000000000000000000000000000101000000000000000000000000000000110000010000000000000000000000000100000000000000000000000000000001000000000000000000000000000000000000011000000100000000000000000000000000110000000000000000000000000000110000000000000000000000000000110000011000000000000000000000000000000000000000000011000000000000101000000000000000000000000000000011000000000000000000000000000000000000010100000000000000000000000000000000000000000000000000000000001000000000000011100000000000000000000000000000000000110000000000010010000000000000000000000000000001001000000000000000000000000000000000000010000000000000000000000000000000000000000000000000000000000000000100000001001000000000000000000000000000000000000000000000000100000000000000000000000000000000010100000000000000000000000000000000000000000000000000000000000000000000000000000000000000000000000000010010000000100100000000000000000000000000000000000000000000000000000000000000000000000000000000000010000000000000000011000000000000000000000000000000000000000000000000000000000000000000000000000000000011100000001000100000000000000000000000000000000000000000000000000000001000000000000000000000000000000000000000000001100000000000000000000000000000000000000000000000000000000000000000000000000000000000000000000011000000100000000000000000000000000000000000000000000000000101000000000000000000000000000000000000000000000100000000000000000000000000000000000000000000000000000000000000000000000000000000000000000000010011111000000000000000000000000000000000000000000000000011000000000000000000000000000000000000000000000000000000000001100000011000000000000001100000000000000000000000000000000000000000000000000000000110011100000000000000000000000000000000000000000000000000000000000000000000001110000000000000000000000011100000000000011000000110000000000000100100000000000000000000000000000000000000000000000000000001000000000000000000000000000000000000000000000100000000001000000001110000110011100000000000000000000001111000000000000000001000000000000000000101000000000000000000000000000000000000000000000000000000100000000000000000000000000000000000000000000010100000000100001000000000001001101110000000000000000000010010000000000000000101000000000000000000100000000001000000000000000000000000000000000000100000001110000000000000000000000000011100000000000000011000000001000100110000000001010000010000000001010001000010000000000000000001001000000000000111000000000000101000000000000000000000000000000000001000000111110010000000000000000000000000000000000000000000000000011000001100000000011010011000000000010110011000000000000000000000001100000000000000001000000000001010000000000000000000000000000000000110000000000111011000000000000000000000000000000000000000000000000000000000000000000000110111000000000011101100000000000000000000000000000000000000010100000000000001000000000000000000000000000000000000111100000000110110000000000000000000000000000000000000000000000000000000000000000000001100010110000001100010000000001000000000000000000000000000000101000000000000000000000000000000000000000000000000011101010001000110000000000000000000000000000000000000000000000000000000000000000000000000000010010000110000000000000011100000000000000000001000000010100000000000000000000000000000000000000000000000000010101001010000000000000000000000000000000000000000000000000000000000000000000000000000000001000010010010000000000000011000000000000000000000000000101100000000000000000000000000000000000000000000000000110011101100000000000000000000000000000000000000000000000000000000000000000000000000000000000001000100100000000000000000000000000000000000100000010010000000000000000000000000000000000000000000000000010100100000000000000000000000000000000000000000000000000000010000000000000000000000000000110011100000110000000000000000000000000000000000000000000011000000000000000000000000000000000000000000000000000110100000000000000000000000000000000000000000000000000000001001000000000000000000110000000111100000000000000000000000000000000000000000000000000000000001000000000000000001000000000000000000000000000000010011000000000000000000000000000000000000000000000000000010010000000000011000001100000000110000000000000000000000000000000000000000000000000000000001100000000000000000101000000000000000000000000000000100100000000000000000000000000000000000000000000000000000011000000000000110000000000000000000000000000000000000000110000011000000000000000000000000010000000000000000001010000000000000000000000000000000110000000000000000000000000000000000000000000000000000000000000000000000000000000000000000000000000000000000000000110001001000000000000000000000000111000000000000000001000000000000000000000000000000000100000000000000000000000000000000000000000000000000000000000000000000000000000000000000000000000000000000000000000100010100000000000000000000000000000000000000000000000000000000000000000000000000000000000000000000000000000110000000000000000000000000000000000000000000000000000000000000000000000000111000011100000000000010000000000000000000000000000000000000000000000000000000000000000000000000000000000000000000000000000001100000000000000000000000000001000000000000000000000000000000000000000000000000000100000000000000000000000000000000000000000000000000000000000000000000000000000000000000000001110000000000000000000000000000000000000000000000000000010000000000000000000000011000000000000000000000000000100000000000000000000000000000000000000000000000000000000000000000000000000000000000000000000000000000000000000000000000000000000000000000000000000100000000000000000000001001000000001100000000000000000000000000000000000000000000000000000000000000000000000000000000000000000000000000000000000000000000000000000000000000000000000000000000000000000000000000000000000000000010010000000101000000000000000000000000000000000000000000000000000000000000000000000000000000000000000000000000000000000000000000000000000000000000000000000000000000000000000000000000000000000000000000011000000000100000000000000000000000000000000000000000000000000000000000000000000000000000000000000000000000000000000000000000000000000000000000000000001100000000000000000000000000000000000000000000000000000000000000000000000000000000000000000000000000000000000000000000000000000000000000000000000000000000000000000000000000000000000000000110000000000100100000000000000000000000000000000000000000000000000000000000000000000100000000000000000000000000000000000000000000000000000000000000000000000000000000000000000000000000000000000000000001100000000000110000000000000000000000000000000000000000000000000000000000000000000010100000000000000000000000000000000000000000000000000000000000000000000000000000000000000000000000000000000000000000000000000000000000000000000000000000000000000000000000000000000000000000000000000001010000000000000000000000000000000000000000000000000000000000000000000000000000000000000000000000000000000000000000000000000000000000000000000000000000000000000000000000000000000000000000000000000000101000000000000000000000000000000000000000000000000000000000000000000000000000000000000000000000000000000000000000000000000000000000000000000000000000000000000000000000000000000000000000000000000000000100000000000000000000000110000000000000000000000000000000000000000000000000000000000000000000000000000000000000000000000000000000000000000000000000000000000000000000000000000000000000000000000000000000000000000000000000000001100000000000000000000000000000000000000000000000000000000000000000000000001110000000000000000000000000000000000000000000000000000000000000000000000000000000000000000000000000000000000000000000000000000000000000000000000000000000000000000000000000000000000000000000000000000000000000000000000000000000000001000000000000000000000000000000000000000000000000000000000000000000000000000000000000000000000000000000000000000000000000000000000000000000000000000000000000000000000000000000000000000000000000000000101000000000000000000000000000000000000000000000000000000000000000000000000000000000000000000000000000000000000000000000000000000000000000000000000000000000000000000000000000000000000000000000000000001010000000000000000000000000000000000000000000000000000000000000000000000000000000000000000000000000000000000000000000000000000000000000000000000000000000000000000000000100000000000000000000000000000001000000000000000000000000000000000000000000000000000000000000000000000000000000000000000000000000000000000000000000000000000000000000000000000000000000000000000000000001000000000000000000000000000000000000000000000000000000000000000000000000000110000000000000000000000000000000000000000000000000000000000000000000000000000000000000000000000000000000000000000000000000010000000000000000000000000000000000000000000000011000001000000000000000000001100000000000000000000000000000000011010000000000000000000000000000000000000000000000000000000000000000000000000000000000000000000000000000000000000000000000000000000000000110000010000000000000000000000000000000000000000000000000000000111100000011000000000000000000000000000000000000000000000000000000000000000000000000000000000000110000000000000000000000011000000000000000000000100000000000000000000000000000000000000000000000000000010001000000110000000000000000000000000000000000000000000000000000000000000000000000000000000000001010000000000000000000000110000000000000000000000000000000000000000000000000000000000000000000000000000011100000000000000000000000000000000000000000000000000000000000000000000000000000000000000000000001100000000000000000000000000000000000000000000000000000000000000000000000000000000000000000000000000000111000000000000000000000000000000000000000000000000000000000000000000000000000000000000000000000000000000000000000000000000000000000000000000000000000000000000000000000000000000000000000000000000000000010000000000000000000000000000000000000000000000000000000000000000000000000