P1
200 200
0011000000000000000000000000000000000000000000000000000000000000000000000000000000000000011100000000000000000000100000000000000000000000000000000000000000000000000000000000000000000000010000000000000000101000000000000000000000000000000000000000000000000000000000000000000000000000000000000101000000000000010000010100000000000000000000000000000000000000000000000000000000000000000000001010000000000000000010000000000000000000000000000000000000000000000000000000000000000000000000000000000001001100000000001010000100100000000100000000000000000000000000000000000000000000000000000000000010100000000000000000110000000000000000000000000000000000000000000000000000000000000000000000000000000000000100100000000011000000110000000010100000000000000000000000000000100000100000000000000000000000010000100000000001001100000000000000000000000000000000000000000000000000000000000000000000000000000000000011011000000000000000000000000000101000000000000000000000000000001000010100000000000000000000000000001000000000001100000000000000000000000000000000000000000000000000000000000000000000000000011000000000000000000000000000000000000000000100000000000000000000000000000010000100100000000000000000000000000010000000000000000000000000000000000000000000000000000000000000000000000000000000000000000110000000000000000000000000000000000000000000000000000000000000000000000000000000110000000000000000000000000000000000000001100000000000000000000000000000000000000000000000000000000000000000000000000000000000000000000000000000000000000000001100000001100000000000000000000000000000000000000000001100000000000000000011100000101010000000000000000000000000000000000000000000000000000000000000000000000000000000000000000000000000000000000000000100100000100100000000000000000000000000000000000000000011000000000000000000111000001100111000000000000000000000000000000000000000000000000000000000000000000000000000000000000000000000000000000000000000110000000110000000000000000000000000000000000000000000000000000000000000000000000000000000000000000000000000000000000000000000000000000000000000000000000000000000000000000000000000000000000000000000000000000000000000000000000000000000000000000000000000000000000000000000000000000000011000000000000000000000000000000000000000000000000000000000000000000000000000000000000000000000000000000000000000000000000100000000000000000000000000000000000000000000000000000000000000000000000000000010000000000000000000000000000000000000000000000000000000000000000000000000000000000000000000000000000000000000000000000010100000000000000000000000000000000000000000000000000000000000000011100000000000100000000000000000000000000000000000000000000000000000000000000000000000000000011100000000000000000000000000000000000000101000000000000000000000000000000000000000000000000000000000000001100110000000000000000000000000000000000000000000000000000000000000000110000000000000000000000000000000000000000000000000000000000000000100000000000000000000000000000000000000000000000000000000000001000111000000000000000000000000000000000000000000000000000000000000000010010000000000000000000100000100000000000000000000000000000000000000000000000000000000000000000000000000000000000000000000000001110000010000000000000000000000000000000000000000000000000000000000000000101000000000000000000001000001000000000000000000000000000000000000000000000000000000000000000000000000000000000000000000000000010101000000110000000000000000000000000000000000000000000000000000000000000100000000000000000000010000010000000000000000000000000000000000000000000000000000000000000000000000000000000000000000000000000110101011000110000000000000000000000000000000000000000000000000000000000000000000000000000000000000000000000000000000000000000000000000000000000000000000000000000000000000000000000000000011000001100000000101100000000000000000000000000000000000000000000000000000000000000000000000000000000000000000011100000000000000000000000000000000000000000000000000000000000000000000000000000000000000110000011000000000011100000000000000000000000000000000000000000000000000000000000000000000000000000000000000000000000000000000000000000000000000000000000000000000000000000000000000000000000000000000000000000000000000000010000000000000000000000000000000000000000000000000000000000000000000000000000000000000000000000000000000000000000000000000000000000000000000000000000000000000000000000000000000000000000000000110000000000001000000000000000000000000000000000000000000000000000000000000000000000000000000000000000000000000000000000000000000000000000000000000000000000000000000000000000000000000000000000000000001100000000000110000000000000000000000000000000000000000000000000000000000000000000000000000000000000000000000000000000000000000000000000000000000000000000000000000000000000000000000000000000000000000000000000000001000000000000000000000000000000000000000000110000000000000000000000000000000000000000000010000000000000000000000000000000000000000000000000000000000000000000000000000000000000000000000000000000000000000000000000000000000000000000000000000000010010000000000000000000000000000000000000000000100010000000000000000000000000000000000000000000000000000000000110000000000000000000000000000000000000000000000000010000000000000000000000000000000000000100100000000000000000000000000000000000000000010000001000000000000000000000000000000000000000000000000000000110110000000000000000000000000000000000000000000000001010000000000000000000000000000000000000110000000000000000000000000000000000000000000011000001000000000000000000000000000000000000000000000000000000001000000000000000000000000000000000000000000000000110100000000000000000000000000000000000000000000000000000000000000000000000000000111000100000001000000000000000000000000001000000000000000000000000100001000001100000000000000000000000000000000000000001011000000000000000000000000000000000110000000000000000000000000000000000000000000000000100000000000000000000000000000000101000000000000000000000001000001000011000000000000000000000000000000000000000100110000000000000000000000000000000001100000000000000000000000000000000000000000001100000000001000000000000000000000000001010000000000000000000000010100010000000000000000000000000000000000000000000011011000000000000000000000000000000000000000000000011000000000000000000000000000000011000000010000000000000000010000000000001000000000000000000000000011010000000000000000000000000000000000000000000000101100000000000000000000000000000000000000000000001001000000000000000000000000000001001000000000000000000000001010000000000000000000000000000000000000000011000000000000000000000000000000000000000000001001000000010000000000000000000000000000000000000010100000000000000000000000000000001100000000000000011000000010110000000000000000000000000000000000000000000000000000000000000000000000000000000000000010010000001010000000000000000000000000000000000000010000000000000000000000000000000000000000000000001001000000001000000000000000000000000000000000000000000000000000000000000000000000000000000000000000010100000010010000000000000000000000000000000000000000000000000000000000000000000000000000000000000001100001100101000000000000000000000000000000000000000000000000000000000000000000000000000000000000001110000000011000000000000000000000000000000000000000000000000000000000000000000000000000000000000000000000001011000000000000000000000000000000000000000000000000000000000000000011100000000000000000000000000000000000000000000011100000000000000000000000000011000000000000000000000111000000000000000000000000000001100010000000000000000000000000000000000000000000000000000000000001100100000010000000000000000000000000000000000001001000000000000000000000000000110000000000000000000000000000000000000000000000000000010100000000000000000000000000000000000000000000000000000000000000100000000000100000000000000000000000000000000000100001000000000000000000000000000000000000000000000000000000000000000000000000000000000000000000000000000000000000000000000000000000000000000000000000010000001000001000000000000000000000000000000000001100100000000000000000010000000000000000000000000000000000000000000000000000000000000001110000000000000000000000000000000000000000000000000000000000000011000000000000000000000000000000000000000000000000011000000000000000001010000000000000000000000000000000000000000000000000000000000000000000000000000000000000000000000000000000000000000000000000000100000101000000000000000000000000000000000000000000000001000000000000000010010000000000000000000000000000000000000000000000000000000000000000000000000000000000000000000000011110000000000000000000000010100000000000000000000000000000000000000000000000000110000000000000011000011000000000000000000000000000000000000000000000000000000001110000000000000000000000000000000000001001110000000000000000000001001000000000000000000000000000000000000000000000000001100001100000000110000000000000000000000000000000000000000000000000000000000000000000000000000000000000000000000000000010000100000000000000000000110000000000000000000000000000000011000000000000000000001101000100000000000000000000000000000000000000000000000000000000000000000000000000000000000000000000000000000000000000100011000000000000000000001000010000000000000000000000000000110000000000000000000000010001000000000000000000000000000000000000000000000000000000000000000000000000000000000000000000000000000000000000000000100000000000000000000010000000000000000000000000000000000000000000000000000000000110010000000000000000000000000000000000000000000000000000000000000000000000000000000000000000000000000000000000000000000100000000000000000000010001000000000000000000000000000000000000000000000000000001001001000000000000000000000000000000000000000000000000000000000001100000000000000000000000000000000000000011001110000011100110000000000000000001000000000000000000000000000000000000000000000000000000011000111000000000000000000000000000000000000000000000000000000000001100000001110000000000000000000100000001010011000000011001010000000000000000000000000000000000000000000000000000000000000000000000000000011011000000000000000000000000000000000000000000000000000000000100000000000000000000000000000010100000110000001000001000000110000000000000000000000000000000000000000000000000000000000000000000010000001101100000000000000000000000000000000000000000000000000000000000000000000000000000000000000000100100000110111000000000111011000000000000000000000000000000000000000000000000000000000000000000000011000110110000000000000000000000000000000110000000000000000000000000000000000000000000000000000110000110000000111001000000010011100000000000000000000000000000000000000000000000000000000000000000000000000001111000000000000000000110000000000001100000000000000000000000000000000000000000000000000001100000000000000100011000001100010000000000000000000000000000000000000000000000000000000000000000000000000000001111000000000000000001100000000000000000000000000000000000000000000000000000000000000000000000000000000000110011000110011000000000000000000000000000000000000000000000000000000000000000000000000000000100000000000000000000000000000000000000000000000000000011000000000000000000000000010000000000000000000000001001101010110010000000000000000000000000000000000000000000000000000000000000000000000000000001011110000000000000000000000000000000000000000000000000110000000000000000000000000100000000000000000000000001001100011001000000000000000000000000000000000000000000000000000000000000000000000000000000010000110000000000000000110000011000000000000000000000000000000000011110000000000001000000000000000000000000001110000011100000000000000000000000000000000000000000000000000000000000000000000000000000000001110000000000001100010010000110000000000000000000000000000000000000100000000000000000000000000000000001110000000000000000000000000000000000000000000000000000000000000000000000000000000000000000000000000101100000000011000010100000000000000000000000000000000000000010000100000000000000000000000000000000011100000000000000000000000000000000000000000000000000000000000000000000000011000000000000000000000000001000000000000000010000000000000000000000000000000000000000011100011000000000000000000000000000001101100000000000000000000000000000000000000000000000000000000000000000000001001000000000000000000001000000000000000000000000000000000000000000000000000000000000000000000110000000000000000000000000000001110000000000000000000000000000000000000000000000000000000000000000000000010010000000000000000000101000000000000000000000000000000000000000000000000000000000000000000000000000000000000000000000000000011100000000000000000000000000000000000000000000000000000000000110000000000011000000000000000000010000000000000000000000000000000000000000000000111000000000000000000000000000000000000000000000001100000010000000000000000000000000000000000000000000000000000000000001100000000000000000000000000000000000100000000000000000000000000000000000000000010001000000000000000000000000000001100000000000000011000000000000000000000000000000000000000000000000000000000000000000000000000000000000000000000000000000000000000000000000000000000000000000000000000110001000000000000000000000000000100100000000000000000000000000000000000000000000000000000000000000000000000000000000000000000000000000000000000000000000100100000000000000000000000000000000000000000000000100000000000000000000000000000110000000000000000000000000000000000000000000000000000000000000000000000000000000000000000000000000000000000000000000000001000000000000000000000000000000000000011100000011011100000000000000000000000000000000000000000000000000000000000000000000000000000000000000000000000000000000000000000000000000000000000000000000000010100000000000000000000000000000000000000000000100011011000000000000000000000000000000000000000000000000000000000000000000000000000000000000000000000000000000000000000000000000000000000000000000000001100000000000000000000010100000000000000000000001100010001000000000000000000000000000000000000000000000000000000000000000000000000000000000000000000000000000000000000000000000110000000000000000000000001100000101000000000000101100000000000000000000000100010010000000000000000000000000000000000000000000000000000000000000000000000000000000000000000000000000000000000000000000010010000000000000000000000001000011010000000000000000100000000000000000000010000101000000000000000110000000000000000000000000000000000000000000000000000000000000000000000000000000000000000000000000000011000000000000000000000000000000100100000000000000101000000000000000110100000000100000000000000010010000000000000000000000000000000000000000000000000000000000000000000000000000000000000000000000000000000000000000000000000000000000000110000000000000001110000000000000001100000010000000000000000000011000000000000000000000000000000000000000000000000000000000000000000000000000000000000000000000000000000000000000000000000000000000000000000000000000000000000000000000000011010000000010000000000000000000000000000000000000000000000000000000000010000000000000000000000000000000000000000000000000000000000000000000000000000000000011100000000000000000000000100000000000000000000000100001010000000000000000000000000000000000000000000000000000000001010000000000000000000000000000000000000000000000000000000000000000000000000000000001001000000000000000000000011110000000000000000000000100010010000000000000000000000000000000000000000000000000000000010100000000000000000000000000000000000000000000000000000000000000000000000000000000010001000000000000000000000111110000000000000000000110001000100000000000000000000000000000000000000000000000000000000010000000000000000000000000000000000000000000000000000000000000000000000000000000000011110000000000000000000000000110000000000000000001000110110000000000000000000000000000000000000000001100000000000000000000001000000000000000000000000001000000000000000000000000000000000000000000000000001000000000000000000000001101000000000000000000000011011100000000000000000000000000000000000000000011000000000000000000000011000000000000000000000000101000000000000000000000000000000000000000000000000000000000000000000000000011100000000000000000000000010000000000000000000000000000000000000000000000000000000000000000000001010010000000000000000000000100000000000000000000000000000000000000000000000000000000000000000000000000010000000000000000000001100010000000000000000000000000000000000000000000000000000000000000000000001011100000000000000000000000000000000000000000000000000000000000000000000011000000000000000000000000000000000000000000000000010001000000000000000000000000000000000000000000000000000000000000000000000011001011000000000000000000000000000000000000000000000000000000000000000001000100000000000000000000000000000000000000000000000011100000000000000000000000000000000000000000000000000000000000000000000000100000000000000000000000000000000000000000000000000000000000000000000000100000100000000000000000000000000001110001100000000000000000000000000011000000000000000000000000000000000000000000000000000000000001001100000000000000000000000000000000000000000000000000000000000000000100000100000000000000000000000000000000100100000000000000000000000000110000000000000000000000000000000000000000000000000000000100000000000000000000000000000000000000000000000000000000000000000000000000110001000000000000000000000000000000000110000000000000011000000000000000000000000000000000000000000000000000000000000000000000100000000000000000000000000000000000000000000000000000000000000001110000000011010000000000000000000000000000000000000000000000000110000000000000000000000000000000000000000000000000000000000000000000000000000000000000000000000000000000000000000000000000000000000000101100000000001100000000000000000000000000000000000000000000000000000000110000000000000000000000000000000000000000000000000000000000000000000000000000000000000000000000000000001000000000000000000000001001000111000001000000000000000000000000000000000000000000000000000000010010000000000000000000000000000000000000000000000000000000000000000000000000000000000000000000000000000101000000000000000000000100000000001000000000000000000000000000000000000000000000000000000000000100100000000000000000000000000000000000000000000000000000000000001101000000000000000000000000000000000001010000000000000000000000100000000000000000000000000000000000000001110000000000000000000000000000110000000000000000000000000000000000000000000000000000000000000010010000000000000000000000000000000000001000000000000000000000001100000100010000000000000000000000000000000000000000000000000000000000000000000000000000000000000000000000000000000000000000000000000000011100000000000000000000000001100000000000000000000000000000000000001000001000000000000000000000000000000000000000000000000000000000000000000000000000000000000000000000000000000000000000000000000000000000000000000000000000000000000000000000000000000000000000000000000000000000000000000000000000000000000000000000000000000000000000001100000000000000000000000000000000000000000000000000000000000000000000000000000000000000000000000000000000000000000000000000000000000000000000000000000000000000000000000000000000000000000000000000000100100000000000000000000000000000000000000000110000000000000000000000000000000000000000000000000000000000011100000000000000000000000000000010000000000000000000000000000000000000000000000000000000000000110000000000000000000000000000000000000000010010000000000000001010000000000000000000000000000000000000000000000000000000000000000000000001100000100000000000000000000000000000000000000000000000000000000000000000000000000000000000000000000000000010100000000000000011000000000000000000000111000000000000000000000000000000000000000000000000100001011000000000000000000000000000000000000000000000000000000000000000000000000000000000000000000000000000010000010100000000000000000000000000000000000000000000000000000000000000000000000000000000011011110000000000000000000000000000000000000000000000000000000000000000000000000000000000000000000000000000000000000100100000110000000000000000000001000001000000000000000000000000000000000000000000000110101000100000000000000000000000000000000000000000000000000000000000000000000000000000000000000000000000000000000001010000110101000000000000000000010000010000000000000000000000000110000000000000000001100000000000000000000000000000000001000000000000000000000000000000000000000000000000000000000000000000000000000000000000000000000000000000000000000100000100000000000000000000000001100000000000000000000000011100000000000000000000000000101000000000000000000000000000000000000000000000001110000000000000000000000000000000000000000000000000000000000000000000000000000000000000000000000000000000000000000000000000000000000000000000000000001001000000000000000000000000000000000000000000000000000000000000000000000000000000000100001100100000000000000000000111000000000000000000000000100000000000000000000000000000000000000000000000000000000001100000000000000000000000000000000000000000000000000000000000000000000000000000000010100010011010000000000000000000000000000000000000000000110110000000000000000000000000000000000000000000000000000000000000000000000000000000000000000000000000000000000000000000000000000000000000000001000000100001000000000000000000000000000000000000000000001101100000000000000000000000000000000000000000010000000000000000000000000000000000000000000100000000000000000000000000000000000000000000000000010011000111100000000000000000000000000000000000000000000010000000000000000000000000000000000000000000000100000000000000000000000000000000000000000001000000000000000000000000000000000000000000000000000011011100010000000000000000000000000001100110000000000110100000000000000000000000000000000000000000000001000000000000000000000000000000000000000000010000000000000000000000000000000000000000000000000000000000000000000000000000000000000000000000000000000011011000000000000000000000000000000000000000000000000000000000000000000000000000000000000000000000000000000000000000000000000000000001000000000000000001110000000000000000000000000000000000011100000001000000011100000000000000000000000000000000000001110001110000000000000000000000000000000000000000011100000000000000000000000000000000010000000000000000000000000000000000000000000000000000000100110000010110001000000000000000000000000000000000000000000000000000000000000000000100000000000000000000000000000000000010000000000000000000000100000000000000011011000000000000000000000000000000000011011100011111100001000100000000000011000000000000000000000000000000000000000000000010100000000000000000000000000000000001010000000000000000000000000000000000000010100011100000000000000000000000000000000011000110000000110000100000110000110000000000000000000000000000000000000000000000101000000000000000000000000000000000010100000000000000000000000000000000000000010000000001100000000000000000000000000001111100010000001101101100001100000000000000000000000000000000000000000000000000000100000000000000000001000000000000000010000000000000000000000000000000000000100000100000100100000000000000000000000100001101101000000011000010000000000000000000000000000000000000000000000000000000000000000000000000000000010000000000000000000000000000000000000000000000000000001000001000000110000000000000000000000000110001101000000000010001000000000000000000000000000000000100000000000000000000000000000000001100001100010100000000000000000000000000000000000000000000000000000010000010000000000000000000000000000000001000000001111100001000000000000000000000000000000000000001000000000000000000000000000000000011000111011100000000000000000000000000000000000000000000000000000000000000000000000000000000000000000000000000000000001101000001110000000000011000000000000000000000010000000000000000000000000000000000000011100011000000000000000000000000000000000000000000000000000000000011100000000000000000000000000000000000000000000110110110000000000000001001000000000000000000000000000000000000000000000000000000000011011001110000000000000000000000000000000000000000000000000000000000000000000000000000000000000000000000000000000000000110100000000000000001010000000000000000000000011100000000000000000000000000000000110000100100000000000000000000000000000000000000000000000000000000000000000000000000000000000000000000000000000000000000001000000000000000001000000000000000000000000000000000000000000000000000000000001110000110000000000000000000000000000000000000000000000000000000000000000000000000000000000000000000000000000000000000000011011000000000000000000000000000000000000000000000000000000000000000000000000000000000000000000000000000000000000000000000000000000000000000000000000000000000000000000000000000000000000000000000000000110110000000000000000000000000000000000000000000000000000000000000000000000000000000000000000000000000000000000000000000000000000000000010000000000000000000000000000000001100000000000000000000000000000010000000000000000000000000000000000000000000000000000000000000000000000000000000000000000000000000000000000000000000000000000000000001010000000000000000000000000000000011000000000000000000000000000000000000000000000000000000000000000000000000000000000000000000000000000000000000000000000000000000000000000000000000000000000000000000010100000000000000000000000000000000000000000000000000000000000000000000000000000000000000000000000000000000000000000000000000000000000000000000000000000000000000000000000000000000000000000000000000000010000000000000000000000000000000000000000000001100000000000000000000000000000000000000000000000000000000000000000000000000000000000000000000000000000000000000000000000000000000000000000000000000000000000000000000000000000000000000000000000000000011000000000000000010000000000000000000000000000000000000000000000000000000000000000000000000000000000000000000000000000000000000000000000000000000000000000000000000000000000000000000000000000000000000000000000000000001010000000000000000000000000000000000000000000000000000000000000000000000000000000000000000000000000000000000000000000000000000000000000000000000000000000000000000000000000000000000000000000000000000010100000000000000000000000000000000000000000000000000000000000000000000000000000000000000000000000000000000000000110000000000000000000000000000000000000000000000000000000000000000000000000000000000000010000000000000000000000000000000000000000000000000000000000000000000000000000000000000000000000000000000000000001100000000000000000000000000000000000000000000000000000000000000000000000000000000000000000000000000000000000000000000000010000000000000000000000000000000000000000000000000000000000000000000000000000000000000000000000000000000000000000000000000000000000000110000000000000000000000000000000000000000000000000000000000000001010000000000000000000000000000000000000000000000000000000000000000000000000000000000000000000000000000000000000000000000000000000000001010000000000000000000000000000000000000000000000000000000000000010100000000000000000000000000000000000000000000000000000000000000000000100000000000000000000000000000000000000011000000000000000000000001000000000000000000000000000000000000000000000000000000000000000010000000000000000000000000000000001100000000000000000000000000000000010100000000000000000000000000000000000001001000000001100000011000000000000000000000000000000000000000000000000001000000000000000000000000000000000000000000000000000011000000000000000000000000011000000101000000000000000000000000000000000000001100000000011000001001000000000000000000000000000000000000000000000000010000000000000110000000110000000000000000000000000000000000000000000000000000000110000000100011011000000000000000000000000000000000000000000000000010100000000000000000000000000000000000000000000000000100000000000001100000010010000000000000000000000000000000000000000000000000000000000000000000100010000000000000000000000000000000000000000000000000010000000000000000000000000000000000000000000000000000000000000000000000000011000000000000000000000000000000000000000000000000000000000000000000000111000000000000000000000000000000000000000000000000000000000000000000000000000000000000000000000000000000000000000000000000000000000000000000000000000000000000000000000000000000000000000000000000000000000000000000000000000000000000000000000000000000000000000000000000000000000000000000000110000000000000000000000000000000000000000000000000000000000000000000000000000000000000000000000000000000000000000000000000000000000000000000000000000000000000000000000000000000000000000000000000000010010000000000000000000000000000000000000000000000000000000000000000000000000000010000000000000000000000000000000000001000000000000000000000000000000000000000000000000000000000000000000000000000000000101000000000000000000000000000000000000000000000000000000000000000000000000000000100000000000000000000000000000000000101000000000000000000000000000000000000000000000000000000000000000000000000000000000100000000000000000000000000000000000000000000000000000000000000000000000000000001000000000000000000000000000000000000100000000000000000000000000000000000000000000000000000000000000000000000000000000000000000000000000000000000010000000000000000000000000001100110000000000000000000000000000000000000000000000000000000000000000000000000000000000000000001000000000000000000000000000000000000000000000000000000000000000000000000000100000000000000000000000000011001100000000000000000000000000000000000000000000000000000000000000000000000000000000000000000101000000000000000000000000000000000000000000000000000000001100000000000000001000000000000000000000001100000000000000000000000000000000000000000000000000000000000000000000000000000000000000000000000001010000110000000000000000000000000000000000000000000000000100100000000000000000000000000000000000000011000000000000100000000000000000000000000000000000000000000000000000000000000000000000000000000000001000010010000000000000000000000000000000000000000000000001010000000000000000000000000000000000000000000000000000010100000000000000000000000000000000000000000000000000000000000000000000000000000000000000000011000000000000000000000000000000000000000001000000001000000000000000000000000000000000000000000000000000000101000000000000000000000000000000000000000000000000000000000000000000000000000110000000000000000000000000000000000000000000000000000000101000000000000000000000000000000000000000000000000000000000000000100000000000000000000000000000000000000000000000000000000000000000000000000010010000000000000000000000000110000000000000000000000000000110000000000000000000000000000000010000000000000000000000000000000000000000000000011000000000000000000000000000000000000000000000001000000000100100000000000000000000000010100000000000000000000000000000000000000000000000000000000000000100000000000000000000000000000000000000000000000110000000000000000000000000000000000000000000000101000000000110000000000000000000000000010000000000000000000000000000000000000000000000000000000000000001000110000000000000000000000000000000000000000000000000000000000000000000000000000000000000000010010000000000000000000000000000000000000000000000000000000000000000000000000000000000000000000000000000000010010000000000000000000000000000000000000000000000000000000000000000000000000000000000000000011000000000000000000000000000000000000000000000000000000000000100000000000000000000000000000000000000000000101000000000000000000000000000000000000000000000000000000000000000000000000000000000000000000000000000000000000000000000000100000000000000000000000000000110100000000000000000000000000000000000000000000100000000000000000000000000000000000000000000000000000000000000000000000101000000000000000000000000000000000000000000111001100000000000000000000000000001101100000000000000000000000000000000000000011000000000000000000000000000000000000000000000000000000000000000000000000001010000000000000000000000000001100000000000001100000100000011000000000000000000000100000000000000000000000000000000000000000110000000000000000000000000000000000000000000000000000000000000000000000000000000000000000000000000000000100100000001110011100011100000110000000000000000001110000000000000000000000000000000000000000000100000000000000000000000000000000000000000000000000000000000000000000000000001110000000000000000000000000101000001100100101000101000000000000000000000000001100000000000000000000000000000000000000000000000000000110000000000000000000000000000000000000000000000000000000111000001001000000000000000000000000000100000010011011000000000000000000000000000000000000000001000000000000000000000000000000000000000111000001100000000000000000000000011100000000000000000000000000001000000000010000000000000000000000000000000000111000100100000000000000000000000000000000000000101000000000000000000000000000000000010001100000000000000000000000000000000000000000000000000000000000000010100000001011000000000000000000000000000000000000011000000000000000000000000000000000000000001010000000000000000000000000000000001000010000000000100000000000000000000000000000000000000000000000000000011000100111011000000000000000000000000000000000000001000100100000000000000000000110110000000001000000000000000000000000000000000110000000000000010100000000000000000000000000000000011000011100011100000000000100001000000000000000000000000000000000000000000010000100000000000000110001000000000000000000000000000000000001100000000000110000000000001001000000000000000000000000000000000110000000000000000000000000000000000000000000000000110000000000000000000000100000100000000000110100001110000000000000000000000000000000011000000000000100000000000001100000000000000000000000000000000000000100001010000100000000000000000000000000000000010010000000000000001000010101000100000000001110000000000000000000000000000000000000000000000000000000000000000000000000000000000000000000000000000000000001000010100001000000000000000000000000000000000100100110001100000101000011100001000000000000000000000000000000000000000000000000000000000000000000000000000000000000000000000000000000000000000000000000010000101000010000000000000000000000000000000000110001100100100001010001011001110000000000000000000000000000000000000000000000000000000000000000000000000000000000000000000000000000000000000000000000000001110001110000000000000000000000000000000000000000000000101000001000001010000000000000000000000000000000000000000001000000000000000000000000000000000000000000000000000000000000000000000000000000000000000000000000000000000000000000000000000000000000000000000100000000000011100000000000000000000000000000000000000000101000000000000000000000000000000000000000000000000000000000000000000000000000000000000111000101000000000000000000000000000000000000000000000000000000000000000000000000000000000000000000000000000000001010000000000000000000000000000000000000000000000000000000000000000000000000000000000100001010010000000000000000000000000000000000000000000000000001100000000000000000000000000000000000000000000000000001000000000000000000000000000000000000000000000000000000000000000000000000000000000001000010100100000000000000000000000000000000000000000000000000011000000000000000000000000000000000000000000000000000000000000000000000000000000000000000000000000000000000000110000000000000000000000000010000101010000000000000000000000000000000000000111000000000000000000000000000000000011011000000000000000000000000000000000000000000000000000000000000000000000000000000000001100000000000000000000000000000000001100000000000000000000000000000000000000000000000000000000000000000000100000010000000000000000000000000000000000000000000000000000000000001110000000000000000000000000000000000000000000000000000011100010100000000000000011000000000000000000000000000000000000000000000000001110000100101000000000000000000000000000000000000000000000000000000000000000000000000000000000000000000000000000000000000000000000001111000000000001001000000001100000000000000000000000000000000000000000111001100011000000000000000000000000000000000000000000000000000000000000000000000000000000000000000000000000000000000000000000000011110000000000010010000000101000000000000000000000000000000000000000001000011000000000000000000000000000000000000000000000000000000000000000000000000000000000000000000000000000000000000000000000000000000000000000000011000000000100000000000000000000000000000000000000000001111000000000000000000000000000000000000000000000000000000000000000000000000000000000000000000001100000000000000000000000000000000000000000000000000000000000000000000000000000000000001100000000000000001100000000000000000000000000000000000000000000000000000000000000000000000000000000110000000000100100000000000000000000000000000000000000000000000000000000000000000000100000000000000000000000000000000000000000000000000000000000000000000000000000000000000000000000000000000000000000001100000000000110000000000000000000000000000000000000000000000000000000000000000000010100000000000000110000000000000000000000000000000000000000000000000000000000000000000000000000000000000000000000000000000000000000000000000000000000000000000000000000000000000000000000000000000000001010000000000000000000000000000000000000000000000000000000000000000000000000000000000000000000000000000000000000000000000000000000000000000000000000000000000000000000000000000000000000000000000000000101000000000000001010000000000000000000000000000000000000000000000000000000000000000000000000000000000000000000000000000000000000000000000000000000000000000000000000000000000000000000000000000000000000100000000000000001000000000000000000000000000000000000000000000000000000000000000000000000000000000000000000000000000000000000000000000000000000000000000000000000000000000000000000000000000000000000000000000000000000010000000000000000000000000000000000000000000000000000000000000000000000000000000001110000000000000000000000000000000000000000000000000000000000000000000000000000000000000000000000000000000000000000000000000000000000100000000000000000000000000000000000000000000000000000000000000000000000000000000000000000000000001000000000000000000000000000000000000000000000000000000000000000000000000000000000000000000000000000001100000000000000000000000000000000000000000000000000000000000000000000000000000000000000000000000101000000000000000000000000000000000000000000000000000000000000000000000000000000000000000000000000000011000000000000000000000000000000000000000000000000000000000000000000000000000000000000000000000001010000000000000000000000000000000000000000000000000000000000000000000000000000000000000000000000000000000000000000000000000000000000000011010000000000000000000000000000100000000000000000000000000000001000000000000000000000000000000000000000000000000000000000000000000000000000000000000000000000000000000000000000000000000000000000000000100010000000000000000000000000001000000000000000000000000000000000000000000000000000000000000000000000000000110000000000000000000000000000000000000000000000000000000000000000000000000000000000000000100001000000000000000000000000000010000000000000000000000000000000000000000000000011000001000000000000000000001100000000000000000000000000000000000000000000000000000000000000000000000000000000000000001000010000000000000000000000000000000000000000000000000000000000000000000000000000110000010000000000000000000000000000000000000000000000000000000000000000000000000000000000000000000000000000000000000000110000000000000000000000000000000000000110000000000000000000000011000000000000000000000100000000000000000000000000000000000000000000000000000000000000000000000000000000000000000000000000000000000000000100000000000000000000000000000000000001010000000000000000000000110000000000000000000000000000000000000000000000000000000000000000000000000000000000000000000000000000000000000000000000000000000000000000000000000000000000000000000000000000001100000000000000000000000000000000000000000000000000000000000000000000000000000000000000000000000000000000000000000000000000000000000000000000000000000000000000000000000000000000000000000000000000000000000000000000000000000000000000000000000000000000000000000000000000000000000000000000000000000000000000000000000000000000000000000000000000000000000000000000000000000000000000000