P1
200 200
0110000000000000000000000000000000000000000000000000000000000000000000000000000000000000000000000000000000000000100000000000000000000000000000000000000000000000000000000000000000000000010000000000000010100000000000000000000000000000000000000000000000000000000000000000000000000000000000000110000000000000010000010100000000000000000000000000000000000000000000000000000000000000000000001010000000000000110010000000000000000000000000000000000000000000000000000000000000000000000000000000000001101000000000001010000100100000000100000000000000000000000000000000000000000000000000000000000010100000000000001100111000000000000000000000000000000000000000000000000000000000000000000000000000000000000101000000000011000000110000000010100000000000000000000000000000000000100000000000000000000000010000011000000010101000000000000000000000000000000000000000000000000000000000000000000000000000000000000001010000000000000000000000000000101000000000000000000000000000011100010100000000000000000000000000001111000000011000000000000000000000000000000000000000000000000000000000000000000000000000011000000000010100000000000000000000000000000100000000000000000000000000000000000100100000000000000000000000000010110000000000000000000000000000000000000000000000000000000000000000000000000000000000000110000000000000000000000000000000000000000000000000000000000000000000000000000000110000000000000000000000000000000110000001100000000000000000000000000000000000000000000000000000000000000000000000000000000000000000000000000000000000000000001100000001100000000000000000000000000000000000000000001100000000000000000001100000101010000000000000000000000000000000000000000000000000000000000000000000000000000000000000000000000000000000000000000100100000100100000000000000000000000000000000000000000011000000000000000101001000001100111000000000000000000000000000000000000000000000000000000000000000000000000000000000000000000000000000000000000000110000000110000000000000000000000000000000000000000000000000000000000001000000000000000000000000000000000000000000000000000000000000000000000000000000000000000000000000000000000000000000000000000000000000000000000000000000000000000000000000000000000000000000000000000000000010000000011000000000000000000000000000000000000000000000000000000000000000000000000000000000000000000000000000000000000000000000000100000000000000000000000000000000000000000000000000000000000000000000000000000010000000000000000000000000000000000000000000000000000000000000000000000000000000100000000000000000000000000000000000000010100000000000000000000000000000000000000000000000000000000000000000010000000000100000000000000000000000000000000000000000000000000000000000000000000000000000001000000000000000000000000000000000000000101000000000000000000000000000000000000000000000000000000000000001111100000000000000000000000000000000000000000000000000000000000000000110000000000000000000000010000000000000000000000000000000000000000100000000000000000000000000000000000000000000000000000000000001111000000000000000000000000000000000000000000000000000000000000000000010010000000000000000000000000000000000000000000000000000000000000000000000000000000000000000000000000000000000000000000000000000100000000000000000000000000000000000000000000000000000000000000000000000101000000000000000000011100011100000000000000000000000000000000000000000000000000000000000000000000000000000000000000000000000010000111000000000000000000000000000000000000000000000000000000000000000000100000000000000000000000000000000000000000000000000000000000000000000000000000000000000000000000000000000000000000000000000000011101111011100000000000000000000000000000000000000000000000000000000000000000000000000000000000000100000000000000000000000000000000000000000000000000000000000000000000000000000000000000011000001100000011011100100100000000000000000000000000000000000000000000000000000000000000000000000000000000000001000000000000000000000000000000000000000000000000000000000000000000000000000000000000000110000011000000000000010000000000000000000000000000000000000000000000000000000000000000000000000000000000000000010000000000000000000000000000000000000000000000000000000000000000000000000000000000000000000000000000000000000100010000000000000000000000000000000000000000000000000000000000000000000000000000000000000000000000000000000000000000000000000000000000000000000000000000000000000000000000000000000000000000110000000001001000000000000000000000000000000000000000000000000000000000000000000000000000000000000000000000000000000000000000000000000000000000000000000000000000000000000000000000000000000000000000001100000000001100000000000000000000000000000000000000000000000000000000000000000000000000000000000000000000000000000000000000000000000000000000000000000000000000000000000000000000000000000000000000000000000000000000000000000000000000000000000000000000000000110000000000000000000000000000000000000000000000000000000000000000000000000000000000000000000000000000000000000000000000000000000000000000000000000000000000000000000000000000000000000000000000000000010010000000000000000000000000000000000000000000011000000000000000000000000000000000000000000000000000000000000010000000000000000000000000000000000000000000000000010000000000000000000000000000000000000100100000000000000000000000000000000000000000001101100000000000000000000000000000000000000000000000000000000001100000000000000000000000000000000000000000000000001010000000000000000000000000000000000000110000000000000000000000000000000000000001000001001110000000000000000000000000000000000000000000000000000000100000000000000100000000000000000000000000000000000010100000000000000000000000000000000000000000000000000000000000000000000000000000010000000100100000000000010000000000000001000000000000000000000000001110000001000000100000000000000000000000000000000000010000000000000000000000000000000000110000000000000000000000000000000000000000000100000001001000000000001010000000000000101000000000000000000000000010010000101000010000000000000000000000000000000000000000000000000000000000000000000000001100000000000000000000000000000000000000000000000001011100000000000110000000000000001010000000000000000000000000110000001010000000000000000000000000000000000000001110000000000000000000000000000000000000000000000011000000000000000000000000000000001001001110000000000001101000000000000001000000000000000000000000001010100000001100000000000000000000000000000000000100010000000000000000000000000000000000000000000001001000000000000000000000000000000110000000000000000000001111100000000000000000000000000000000000000000011010000000011000000000000000000000000000000010000000000010000000000000000000000000000000000000010100000000000000000000000000000001000000000000000011000001001000000000000000000000000000000000000000000000100000110110000000000000000000000000000000000000000001010000000000000000000000000000000000000010000000000000000000000000000000000000000000000001001000001000101000000000000000000000000000000000000000000000000111000000000000000000000000000000001000110000010010000000000000000000000000000000000000000000000000000000000000000000000000000000000000001100000000100000000000000000000000000000000000000000000000000010100000000000000000000000000000000001110000000011000000000000000000000000000000000000000000000000000000000000000001000000000000000000000000000001100010001000000000000000000000000000000000000000000000010000000000000000000000000000000000000000000000000000000000000000000000000000000000000000011000000000000000000000010000000000000000000000000000011001110100000000000000000000000000000000000000000000000000000000000110000000000000000000000000000000000000000000000010000000000000000000000000000110000000000000000000000100000000000000000000000000000011100000000000000000000000000000000000000000000000000000000000000010110000001110000000000000000000000000000000000011011000000000000000000000000000000000000000000000000000000000000000000000000000000000111000000000000000000000000000000000000000000000000000000000000000100100000000000000000000000000000000000000000000110110000000000000000010000000000000000000000000000000000000000000000000000000000000000100000000000000000000000000000000000000000000000000000000000000001110000000000000000000000000000000000000000000001100010000000000000001010000000000000000000000000000000000000000000000000000000000000000000000000000000000000000000000000000000000000000000000000000000011100000000000000000000000000000000000000000000000100100000000000000010010000000000000000000000000000000000000000000000000000000010000000000000000000000000000000000000000001000000000000000000000000000001000000000000000000000000000000000000000000000001000000000000011000011000000000000000000000000000000000000000000000000000000000100000000000000000000000000000000000000100010100000000000000000000111100000000000000000000000000000000000000000000000000010001000000000110000000000000000000000000000000000000000000000000000000000000001000000000000000000000000000000000000010100110000000000000000000010011000000000000000000000000000011000000000000000000010001010000000000000000000000000000000000000000000000000000000000000000000000000000000000000000000000000000000000000001000100000000000000000000000110111000000000000000000000000000110000000000000000000100001100000000000000000000000000000000000000000000000000000000000000000000000000000000000000000000000000000000000000011011000000000000000000000000110000000000000000000000000000000000000000000000000000000011000000000000000000000000000000000000000000000000000000000000000000000000000000000000000000000000000000000000001101011000000000000000000000000000000000000000000000000000000000000000000000000000000001110000000000000000000000000000000000000000000000000000000000000000000000000010000000000000000000000000000001000110000011000100000000000000000000000000000000000000000000000000000000000000000000000000000000101000000000000000000000000000000000000000000000000000000000111000000000100000000000000000000100000000110001001110010001100000000000000000000000000000000000000000000000000000000000000000000000011000001001000000000000000000000000000000000000000000000000000000000010000000001000000000000000000010100000010000000100010000000100000000000000000000000000000000000000000000000000000000000000000000001100000100100000000000000000000000000000000000000000000000000000000001000000000000000000000000000000100100000011000100000001000110000000000000000000000000000000000000000000000000000000000000000000000010000000100000000000000000000000000000000110000000000000000000000000000000000000000000000000000110000110000000011100000000000111000000000000000000000000000000000000000000000000000000000000000000000000000000001100000000000000000110000000000001100000000000000000000000000000000000000000000000000001100000000000000000100010100010000000000000000000000000000000000000000000000000000000000000000000000000000000011111000000000000000001100000000000000000000000000000000000000000000000000000000000000000000000000000000000010010000010010000000000000000000000000000000000000000000000000000000000000000000000000000000110000000000000000000000000000000000000000000000000000011000000000000000000000000000000000000000000000000000011100000111000000000000000000000000000000000000000000000000000000000000000000000000000000100111000000000000000000000000000000000000000000000000000110000000000000000000000001110000000000000000000000000101000001010000000000000000000000000000000000000000000000000000000000000000000000000000001010001100000000000000000110000011000000000000000000000000000000000000110000000000000000000000000000000000000000110000011000000000000000000000000000000000000000000000000000000000000000000000000000000000000010100000000001100010010000110000000000000000000000000000000000110000000000000000000000000000000000000000000000000000000000000000000000000000000000000000000000000000000000000000000000000000000000000000011100000000011000010100000000000000000000000000000000000000001101000000000000000000000000000000000001000000000000000000000000000000000000000000000000000000000000000000000000011000000000000000000000000010000000000000000010000000000000000000000000000000000000000011011010000000000000000000000000000001101100000000000000000000000000000000000000000000000000000000000000000000001001000000000000000000000001000000000000000000000000000000000000000000000000000000000000000000110000000000000000000000000000001010000000000000000000000000000000000000000000000000000000000000000000000010010000000000000000010011000000000000000000000000000000000000000000000000000000000000000000000000000000000000000000000000000001000000000000000000000000000000000000000000000000000000000000110000000000011000000000000000000100100000000000000000000000000000000000000000000000000000000000000000000000000000000000000000000001100000000000000000000000000000000000000000000000000000000000000000001100000000000000000000000000000000101000000000000000000000000000000000000000000001110000000000000000000000000000001100000000000000011000000000000000000000000000000000000000000000000000000000000000000000000000000000000000000000000000000000000000000000000000000000000000000000000000010100000000000000000000000000000100100000000000000000000000000000000000000000000000000000000000000000000000000000000000000000000000000000000000000000000000100000000000000000000000000000000000000100000101000000000000000000000000000000110000000000000000000000000000000000000000000000000000000000000000000000000000000000000000000000000000000000000000000000011101000000000000000000000000000000000001000000000100000000000000000000000000000000000000000000000000000000000000000000000000000000000000000000000000000000000000000000000000000000000000000000000000001100011100000000000000000000000000000000010000100001010000000000000000000000000000000000000000000000000000000000000000000000000000000000000000000000000000000000000000000000000000000000000000000000000100010000100000000000000000000000000000000000001001100110000000000000000000000000000000000000000000000000000000000000000000000000000000000000000000000000000000000000000000000110000000000000000000000000111010000100000000000111000000000000000000000110001100110000000000000000000000000000000000000000000000000000000000000000000000000000000000000000000000000000000000000000000010010000000000000000000000000100000000000000000000001000000000000000000000000111000000000000000000110000000000000000000000000000000000000000000000000000000000000000000000000000000000000000000000000000011000000000000000000000000000000011100000000000010010000000000000000011100011100000000000000000010010000000000000000000000000000000000000000000000000000000000000000000000000000000000000000000000000000000000000000000000000000000000000100000000000000010010000000000000000111001100000000000000000000011000000000000000000000000000000000000000000000000000000000000000000000000000000000000000000000000000000000000000000000000000000000000000000000000000000000000000000000000001110001110000000000000000000000000000000000000000000000000000000000000010000000000000000000000000000000000000000000000000000000000000000000000000000000000000000000000000000000000000000000000000000000000000001110000000000000000000000000000000000000000000000000000000000001010000000000000000000000000000000000000000000000000000000000000000000000000000000000010000000000000000000000101100000000000000000000110001100110000000000000000000000000000000000000000000000000000000010100000000000000000000000000000000000000000000000000000000000000000000000000000000001110000000000000000000001000100000000000000000000100110011000000000000000000000000000000000000000000000000000000000010000000000000001000000000000000000000000000000000000000000000000000000000000000000100110000000000000000000001001000000000000000000001000010100000000000000000000000000000000000000000001100000000000000000000000000000010000000000000000001000000000000000000000000000000000000000000000000000000000000000000000000001110000000000000000000000000100000000000000000000000000000000000000000000011000000000000000000000001000000000000000000000000101000000000000000000000000000000000000000000000000000000000000000000000000000000000000000000000000010100000000000000000000000000000000000000000000000000000000000000000000001100010000000000000000000000100000000000000000000000000000000000000000000000000000000000000000000000000000000000000000000000000101000000000000000000000000000000000000000000000000000000000000000000000001000111010000000000000000000000000000000000000000000000000000000000000000000000010000000000000000000000000000000000000000000001110000000000000000000000000000000000000000000000000000000000000000000000000000010100000000000000000000000000000000000000000000000000000000000000000000011000000000000000000000000000010000000000000000000000000000000000000000000000000000000000000000000000000000000000000000000000010100000000000000000000000000000000000000000000000000000000000000000111001110000000000000000000000000000100001100000000000000000000000000011000000000000000000000000000000000000000000000000000000000111110000000000000000000000000000000000000000000000000000000000000000001110111000000000000000000000000000001000100100000000000000000000000000110000000000000000000000000000000000000000000000000000000010101100000000000000000000000000000000000000000000000000000000000000001110101000000000000000000000000000000000000110000000000000011000000000000000000000000000000000000000000000000000000000000000000001101100000000000000000000000000000000000000000000000000000000000000000111110000011000000000000000000000000000000000000000000000000110000000000000000000000000000000000000000000000000000000000000000000011111000000000000000000000000000000000000000000000000000000000000001100011100000110000000000000000000000000000000000000000000000000000000110000000000000000000000000000000000000000000000000000000000000111110000000000000000000000000000000000001000000000000000000000001101110010000100000000000000000000000000000000000000000000000000000000010010000000000000000000000000000000000000000000000000000000000000100110000000000000000000000000000000000101000000000000000000000000011111001000000000000000000000000000000010000000000000000000000000000100100000000000000000000000000000000000000000000000000000000000000111000000000000000000000000000000000001010000000000000000000000101000000010000000000000000000000000000000100000000000000000000000000000110000000000000000000000000000000000000000000000000000000000000000100000000000000000000000000011110000001000000000000000000000000100000000101000000000000000000000000000001000000000000000000000000000000000000000000000000000000000000000000000000000000000000000010100000000000000000000000000000011000000000000000000000000000000000000000000000100000000000000000000000000000000000000000000000000000000000000000000000000000000000000000000000000000000000000000000000100000000000000000000000000000000000111000000000000000000000000000000000000000000000000000000000000000000000000000000000000000000000000001100000000000000000000000000000000000000000000000000000000000010001000000000000000000000000000000001100000100000000000000000000000000000000000000000000000000000000000000000000000000000000000000000000100100000000000000000000000000000000000000000110000000000000001100100000000000000000000000000000000001100001000000000000000000000000000000000100000000000000000000000000000000000000000000000000000000000110000000000000000000000000000000000000000010010000000000000010011000000000000000000001000000000000011000010000000000000000000000000000000111111100000000000000000000000000000000000000000000000000000000000000000000000000000000000000000000000000010100000000000001100110110000000000000000010000000000000000000000000000000000000000000000000011010111100000000000000000000000000000000000000000000000000000000000000000000000000000000000000000000000000010000000100001011100111100000000000000000100000000000000000000000000000000000000000000000000100001000100000000000000000000000000000000000000000000000000000000000000000000000000000000000000000000000000000000110000001100111100000000000000000000000000000000000000000000000000000000000000000000000001001000000000000000000000000000000000000000000000000000000000000000000000000000000000000000000000000000000000000010000110000110000000000000000111000111000000000000000000000000110000000000000000000111111100000000000000000000000000001000000000000000000000000000000000000000000000000010000000000000000000000000000000000000000000100000000000000000000000000000000000000000000000001100000000000000000000100001000000000000000000000000000101000000000000000000000000000000000000000000000000100000000000000000000000000000000000000000101100000000000000000001000000000000000000000000000000000000000000000000000000000000000000000000000000000001001000000000000000000000000000000000000000000000001000000000000000000000000000000000000000110010000000000000000000010000000000000000000000000000000000000000000000000000000000000000000000000000000000001100000000000000000000000000000000000000000000000000000000000000000000000000000000001000001101100000000000000000000100000000000000000000000001000000000000000000000000000000000000000000000000000000000000000000000000000000000000000000000000000000000000000000000000000000000000000000000111100011010000000000000000000000000000000000000000000000111000000000000000000000000000000000000000000000000000000000000000000000000000000000000000000000000000000000000000000000000000000000000000000010001100001000000000000000000000000000000000000000000000010010000000000000000000000000000000000000000001110000000000000000000000000000000000000000011100000000000000000000000000000000000000000000000000011110100000000000000000000000000000000111100000000000000000000000000000000000000000000000000000000000000000000000000000000000000000000000000000000000000000000000000000000000000000000000000000000000000001001000000000000000000000000000000001000100000000001101000000000000000000000000000000000000000000010000010000000000000000000000000000000000000000000100000000000000000000000000000000000000000000000000011100000000000000000000000000000000010000101000000100010011100000000000000000000000000000000000000100000100000000000000000000000000000000000000000001000000000000000000000000000000000111000000000000000010000000000000000000000000000000000010000111000010000100000000000000000000000000000000000000000001000001000000000000000000100000000000000000000000010000000000010000000000000000000000000000000000000000100000100000000000000000000000000000100000000100010001100001000000000000011000000000000000000000000000000000000000000000010100000000000000000000000000000000001010000000000000000000000000000000000000001000001000000000000000000000000000000101010000100000100100001000000110000110000000000000000000000000000000000000000000000101000000000000000000000000000000000010100000000000000000000000000000000000000010000010001100000000000000000000000001000000001000000000100011000001100000000000000000000000000000000000000000000000000000100000000000000000000000000000000000010000000000000000000000000000000000000000000000000100100000000000000000000000000000110110000010010000100000000000000000000000000000000000000000000000000000000000000000000000000000000111000000000000000000000000000000000000000000000000000011100011100000110000000000000000000000001110000100000100011000010000000000000000000000000000000000000000000000000000000000000000000001100000000000000000000000000000000000000000000000000000000000000000000000000000000000000000000000000000000000000001000000000100000000000000000000000000000000000000011100000000000000000000000000000000011000001111000000000000000000000000000000000000000000000000000000000000100000000000000000000000000000000000000000000001010001001110000000000011000000000000000000000000000000000000000000000000000000000000000100001000000000000000000000000000000000000000000000000000000000001000000000000000000000000000000000000000000001011011010000000000000001001000000000000000000000000100000000000000000000000000000000000101101000000000000000000000000000000000000000000000000000000000000010000000000000000000000000000000000000000000001000000000000000000000001010000000000000000000000001000000000000000000000000000000000110000111000000000000000000000000000000000000000000000000000000000000000000000000000000000000000000000000000000000000000001001000000000000001000000000000000000000000010000000000000000000000000000000000010000000000000000000000000000000000000000000000000000000000000000000000000000000000000000000000000000000000000000000000001110000000000000000000000000000000000000000000000000000000000000000000000000000000000000000000000000000000000000000000000000000000000000000000000000000000000000000000000000000000000000000000000000000001000000000000000000000000000000000000000000000000000000000000000000000000000000000000000000000000000000000000000000000000000000000000010000000000000000000000000000000001100000000000000000000000000000000000000000000000000000000000000000000000000000000000000000000000000000000000000000000000000000000000000000000000000000000000000000001010000000000000000000000000000000011000000000000000000000000000000000000000000000000000000000000000000000000000000000000000000000000000000000000000000000000000000000000000000000000000000000000000000010100000000000000000000000000000000000000000000000000000000000000000000000000000000000000000000000000000000000000000000000000000000000000000000000000000000000000000000000000000000000000000000000000000010000000000000000000000000000000000000000000001100000000000000000000000000000000000000000000000000000000000000000000000000000000000000000000000000000000000000000000000000000000000000000000000000000000000000000000000000000000000000000000000000000011000000000000000010000000000000000000000000000000000000000000000000000000000000000000000000000000000000000000000000000000000000000000000000000000000000000000000000000000000000000000000000000000000000000000000000000001010000000000000000000000000000000000000000000000000000000000000000000000000000000000000000000000000000000000000000000000000000000000000000000000000000000000000000000000000000000000000000000000000000010100000000000000000000000000000000000000000000000000000000000000000000000000000000000000000000000000000000001000110000000000000000000000000000000000000000000000000000000000000000000000000000000000000010000000000000000000000000000000000000000000000000000000000000000000000000000000000000000000000000000000000100001100000000000000000000000000000000000000000000000000000000000000000000000000000000000000000000000000000000000000000000000010000000000000000000000000000000000000000000000000000000000000000000000000100000000000000000000000000000000000000000000000000000000000110000000000000000000000000000000000000000000000000000000000000001010000000000000000000000000000000000000000000000000000000000000000000000000000000000000000000000000000000000000000000000000000000000001010000000000000000000000000000000000000000000000000000000000000010100000000000000000000000000000000000000000000000000000000000000000000100000000000000000000000000000000000000011000000000000000000000001000000000000000000000000000000000000000000000000000000000000000010000000000000000000000000000000001100000000000000000000000000000000010100000000000000000000000000000000000001001000000001100000011000000000000000000000000000000000000000000000000000000000000000000000000000000000000000000000000000000011000000000000000000000000011000000101000101000000000000000000000000000000001100000000011000001001000000000000000000000000000000000000000000000000111000000000000110000000110000000000000000000000000000000000000000000000000000000110000000100001110000000000000000000000000000000000000000000000000010100000000000000000000000000000000000000000000000000000000000000001100000010010000000000000000000000000000000000000000000000000000000000000000000011100000000000000000000000000000000000000000000000000010000000000000000000000000000000000000000000000000000000000000000000000000011000000000000000000000000000000000000000000000000000000000000000000000000000000000000000000000000000000000000000000000000000000000000000000000000000000000000000000000000000000000000000000000000000000000000000000000000000000000000000000000000000000000000000000000000000000000000000000000000000000000000000000000000000000000000000000000000000000000000000000000110000000000000000000000000000000000000000000000000000000000000000000000000000000000000000000000000000000000000000000000000000000000000000000000000000000000000000000000000000000000000000000000000000010010000000000000000000000000000000000000000000000000000000000000000000000000000000000000000000000000000000000000000001000000000000000000000000000000000000000000000000000000000000000000000000000000000101000000000000000000000000000000000000000000000000000000000000000000000000000001110000000000000000000000000000000000101000000000000000000000000000000000000000000000000000000000000000000000000000000000100000000000000000000000000000000000000000000000000000000000000000000000000000000000000000000000000000000000000000000100000000000000000000000000000000000000000000000000000000000000000000000000000000000000000000000000000000000000000000000000000000000000001100110000000000000000000000000000000000000000000000000000000000000000000000000000000000000000001000000000000000000000000000000000000000000000000000000000000000000000000001110000000000000000000000000011001100000000000000000000000000000000000000000000000000000000000000000000000000000000000000000101000000000000000000000000000000000000000000000000000000001100000000000000000000000000000000000000001100000000000000000000000000000000000000000000000000000000000000000000000000000000000000000000000001010000110000000000000000000000000000000000000000000000000100100000000000000000000000000000000000000011000000000000100000000000000000000000000000000000000000000000000000000000000000000000000000000000001000010010000000000000000000000000000000000000000000000001010000000000000000000000000000000000000000000000000000010100000000000000000000000000000000000000000000000000000000000000000000000000000000000000000011000000000000000000000000000000000000000001000000001000000000000000000000000000000000000000000000000000000101000000000000000000000000000000000000000000000000000000000000000000000000000110000000000000000000000000000000000000000000000000000000101000000000000000000000000000000000000000000000000000000000000000100000000000000000000000000000000000000000000000000000000000000000000000000010010000000000000000000000000110000000000000000000000000000110000000000000000000000000000000000000000000000000000000000000000000000000000000011000000000000000000000000000000000000000000000001000000000100100000000000000000000000010100000000000000000000000000000000000000000000000000000000000001110000000000000000000000000000000000000000000000110000000000000000000000000000000000000000000000101000000000110000000000000000000000000010000000000000000000000000000000000000000000000000000000000000000000110000000000000000000000000000000000000000000000000000000000000000000000000000000000000000010010000000000000000000000000000000000000000000000000000000000000000000000000000000000000000000000000000000010010000000000000000000000000000000000000000000000000000000000000000000000000000000000000000011000000000000000000000000000000000000000000000000000000000000000000000000000000000000000000000000000000000101000000000000000000000000000000000000000000000000000000000000000000000000110011000000000000000000000000000000000000000100000000000000000000000000000000001100000000000000000000000000000000000000000000100000000000000000000000000000000000000000000000000000000000000000000000000000000000000000000000000000000000000000000011111000000000000000000000000000000110000000000000000000000000000000000000000011000000000000000000000000000000000000000000000000000000000000000000000000000111000000000000000000000000001100000000000001000001000000011000000000000000000001000010000000000000000000000000000000000000110000000000000000000000000000000000000000000000000000000000000000000000000110010000000000000000000000000100100000000100000100001000000110000000000000000000101010100000000000000000000000000000000000000000000000000000000000000000000000000000000000000000000000000000000000010001110110000000000000000000000000101000000011000001001001000000000000000000000000001101000000000000000000000000000000000000000000010000000110000000000000000000000000100000000000000000000000000000001111101000000000000000000000000000000100000001100000100001100000000000000000000000000000000001000000000000000000000000000000000000011110000001100000000000000000000000001000000000000000000000000000000110111110000000000000000000000000000000000000010000010100000000000000000000000000000000001000010000000000000000000000000000000000000000010000000000000000000000000000000010000000000000000000000000000000101100100001000000000000000000000000000000000000011100000000000000000000000000001010100001101100000000000000000000000000000000000110000000000000100000000000000000000000000000000000000000000000000000000111110001100000000000000000000000000000000000000000000000000000000000000000000010110000000000000000000000000000000000000000000001000000000000010100000000000000000000000000000000011000011100011100000000111000001000000000000000000000000000000000000000000001000000000000000000110000111000000000000000000000000000000001100000000000010000001000001001000000000000000000000000000000000110000000000000000000000000000000000000000000000000110000000000000000000000101111000000000000001100000000000000000000000000000000000000011000000000000011011010000001100000000000000000000000000000000000000100001010000100000000000000000000000000000000010010000000000000001000001011110000000000000100100000000000000000000000000000000000000000000000000000000000000000000000000000000000000000000000000000000001000010100001000000000000000000000000000000000100100110001100000101000010011010000000000001100000000000000000000000000000000000000000000000000000000000000000000000000000000000000000000000000000000000010000101000010000000000000000000000000000000000110001100100100001010000101101000000000000011010000000000000000000000000000000000000000000000000000000000000000000000000000000000000000000000000000000000001110001110000000000000000000000000000000000000000000000101000001000001011010000000000011111000000000000000000000001000000000000000000000000000000000000000000000000000000000000000000000000000000000000000000000000000000000000000000000000000000000000000000000100000000000001000000000000000100000000000000000000000000101000000000000000000000000000000000000000000000000000000000000000000000000000000000000111000111000000000000000000000000000000000000000000000000000000000000000000000000000000000000000000000000000000001010000000000000000000000000000000000000000000000000000000000000000000000000000000000100001010000100000000000000000000000000000000000000000000000001100000000000000000000000000000000000000000000000000001000000000000000000000000000000000000000000000000000000000000000000000000000000000001000010100001000000000000000000000000000000000001000000000000011000000000000000000000000000000000000000000000000000000000000000000000000000000000000000000000000000000000000110000000000000000000000000010000101000000000000000000000000000000000000000010000000000000000000000000000000000001011000000000000000000000000000000000000000000000000000000000010000000000000000000000001100000000000000000000000000000000000000000000000000000000000000000000000000100000000000000000000000011001100000110100000000000000000000000000000000000000000000000000000000000100000000000000000000000000000000000000000000000000000011100011100000000000000011000000000000000000000000000000000000000000000000011000010100001000000000000000000000000000000000000000000000000000000001000000000000000000000000000000000000000000000000000000000000000011000000000001001000000001100000000000000000000000000000000000100000100001000010000000000000000000000000000000000000000000000000000000000000000000000000000000000000000000000000000000000000000000000001110000000000010010000000101000000000000000000000000000000000000001000001100000100000000000000000000000000000000000000000000000000000000000000000000000000000000000000000000000000000000000000000000000000000000000000011000000000100000000000000000000000010000000000000001101011000000000000000000000000000000000000000000000000000000000000000000000000000000000000000000001100000000000000000000000000000000101000000000000000000000000000000000000000000000001111100000000000000000000000000000000000000000000000000000000000000000000000000000000000000000000000000110000000000100100000000000000000000000000000001010000000000000000000000000000000000100000000000000000100000000000000000000000000000000000000000000000000000000000000000000000000000000000000000000000001100000000000110000000000000000000000000000000000000000000000000000000000000000000010100000000000000000000000000000000000000000000000000000000000000000000000000000000000000000000000000000000000000000000000000000000000000000000000000000000000000000000000000000000000000000000000000001010000000000001000100000000000000000000000000000000000000000000000000000000000000000000000000000000000000000000000000000000000000000000000000000000000000000000000000000000000000000000000000000000000101000000000000001110000000000000000010000000000000000000000000000000000000000000000000000000000000000000000000000000000000000000000000000000000000000000000000000000000000000000000000000000000000000000100000000000000000000000000000001000000000000000000000000000000000000000000000000000000000000000000010000000000000000000000000000000000000000000000000000000000000000000000000000000000000000000000000000000000000000000000000000000000001010000000000000000000000000000000000000000000000000000000000000000100000000000000000000000000000000000000000000000000000000000000000000000000000000000000000000000000000000000000000000000000000000000110000000000000000000000000000000000000000000000000000000000000000001000000000000000000000000000001000000000000000000000000000000000000000000000000000000000000000000000000000000000000000000000000000000110000000000000000000000000000000000000000000000000000000000000000000000000000000000000000000000101000000000000000000000000000000000000000000000000000000000000000000000000000000000000000000000000000000000000000000000000000000000000000000100000000000000000000000000000000000000000000000000000000001010000000000000000000000000000000000000000000000000000000000000000000000000000000000000000000000000000000000000000000000000000000000000000101000000000000000000000000000000000000000000000000000000000001000000000000000000000000000000000000000000000000000000000000000000000000000000000000000000000000000000000000000000000000000000000000000010000000000000000000000000000011100000000000000000000000000000000000000000000000000000000000000000000000000110000000000000000000000000000000000000000000000000000000000000000000000000000000000000000001100000000000000000000000000000000000000000000000000000000000000000000000000000011000000000000000000000000001100000000000000000000000000000000000000000000000000000000000000000000000000000000000000000111000000000000000000000000000000000000000000000000000000000000000000000000000000110000111000000000000000000000000000000000000000000000000000000000000000000000000000000000000000000000000000000000000000100100000000000000000000000000000000000110000000000000000000000011000000000000000000000000000000000000000000000000000000000000000000000000000000000000000000000000000000000000000000000000000000000000000110000000000000000000000000000000000001010000000000000000000000110000000000000000000000000000000000000000000000000000000000000000000000000000000000000000000000000000000000000000000000000000000000000000000000000000000000000000000000000000001100000000000000000000000000000000000000000000000000000000000000000000000000000000000000000000000000000000000000000000000000000000000000000000000000000000000000000000000000000000000000000000000000000000000000000000000000000000000000000000000000000000000000000000000000000000000000000000000000000000000000000000000000000000000000000000000000000000000000000000000000000000000000000