P1
200 200
0010000000000000000000000000000000000000000000000000000000000000000000000000000000000000011010100000000000000000100000000000000000000000000000000000000000000000000000000000000000000000010000000000000001110000000000000000000000000000000000000000000000000000000000000000000000000000000000000000000100000000010000010100000000000000000000000000000000000000000000000000000000000000000000001010000000000000101010000000000000000000000000000000000000000000000000000000000000000000000000000000000001001110000000001010000100100000000100000000000000000000000000000000000000000000000000000000000010100000000000001101110000000000000000000000000000000000000000000000000000000000000000000000000000000000001000000000000011000000110000000010100000000000000000000000000000100000100000000000000000000000010000000000000010101000000000000000000000000000000000000000000000000000000000000000000000000000000000000001100000000000000000000000000000101000000000000000000000000000001000010100000000000000000000000000000000000000011100000000000000000000000000000000000000000000000000000000000000000000000000011000000000110000000000000000000000000000000100000000000000000000000000000010000100100000000000000000000000000001110000000000000000000000000000000000000000000000000000000000000000000000000000000000000110000000000000000000000000000000000000000000000000000000000000000000000000000000110000000000000000000000000000010100000001110000000000000000000000000000000000000000000000000000000000000000000000000000000000000000000000000000000000000000001100000001100000000000000000000000000000000000000000001100000000000000001000110000101010000000000000000000000000000000000000000000000000000000000000000000000000000000000000000000000000000000000000000100100000100100000000000000000000000000000000000000000011000000000000000010101100001101110000000000000000000000000000000000000000000000000000000000000000000000000000000000000000000000000000000000000000110000000110000000000000000000000000000000000000000000000000000000000000101010000010101000000000000000000000000000000000000000000000000000000000000000000000000000000000000000000000000000000000000000000000000000000000000000000000000000000000000000000000000000000000000000011000100000011100000000000000000000000000000000000000000000000000000000000000000000000000000000000000000000000000000000000000000000000100000000000000000000000000000000000000000000000000000000000000000010011000000010000000000000000000000000000000000000000000000000000000000000000000000000000000000000000000000000000000000000000000000010100000000000000000000000000000000000000000000000000000000000000000011100000000000000000000000000000000000000000000000000000000000000000000000000000000000000011100000000000000000000000000000000000000101000000000000000000000000000000000000000000000000000000000000000011110000000000000000000000000000000000000000000000000000000000000000110000000000000000000000000000000000000000000000000000000000000000100000000000000000000000000000000000000000000000000000000000000011110000000000000000000000000000000000000000000000000000000000000000010010000000000000000000100000100000000000000000000000000000000000000000000000000000000000000000000000000000000000000000000000000001100010000000000000000000000000000000000000000000000000000000000000000101000000000000000000001000001000000000000000000000000000000000000000000000000000000000000000000000000000000000000000000000000000100011000000000000000000000000000000000000000000000000000000000000000000100000000000000000000010000010000000000000000000000000000000000000000000000000000000000000000000000000000000000000000000000000000111100000000000000000000000000000000000000000000000000000000000000000000000000000000000000000000000000000000000000000000000000000000000000000000000000000000000000000000000000000000000001000001100000000100000000110000000000000000000000000000000000000000000000000000000000000000000000000000000000011100000000000000000000000000000000000000000000000000000000000000000000000000000000000000110000011000000000000000100100000000000000000000000000000000000000000000000000000000000000000000000000000000000000000000000000000000000000000000000000000000000000000000000000000000000000000000000000000000000000000000000000011010000000000000000000000000000000000000000000000000000000000000000000000000000000000000000000000000000000000000000000000000000000000000000000000000000000000000000000000000000000000000000110000000000010000000000000000000000000000000000000000000000000000000000000000000000000000000000000000000000000000000000000000000000000000000000000000000000000000000000000000000000000000000000000000001100000000000000000000000000000000000000000000000000000000000000000000000000000000000000000000000000000000000000000000000000000000000000000000000000000000000000000000000000000000000000000000000000000000000000000000000000000000000000000000000000000000000000110000000000000000000000000000000000000000000000000000000000000000000000000000000000000000000000000000000000000000000000000000000000000000000000000000000000000000000000000000000000000000000000000000010010000000000000000000000000000000000000000000011100000000000000000000000000000000000000000000000000000000000000000000000000000000000000000000000000000000000000010000000000000000000000000000000000000100100000000000000000000000000000000000000000000000000000000000000000000000000000000000000000000000000000000000010000000000000000000000000000000000000000000000001010000000000000000000000000000000000000110000000000000000000000000000000000000000000000000100000000000000000000000000000000000000000000000000000000001010000000000000000000000000000000000000000000000010100000000000000000000000000000000000000000000000000000000000000000000000000000001000000001000000000000001100000000000001000000000000000000000000000100100000110000000000000000000000000000000000000000010000000000000000000000000000000000110000000000000000000000000000000000000000000111000111110000000000000011110000000000101000000000000000000000000010010000010001011000000000000000000000000000000000000000000000000000000000000000000000001100000000000000000000000000000000000000000010010010010000000000000001001110000000001010000000000000000000000001100000000010000100000000000000000000000000000000000000000000000000000000000000000000000000000000000011000000000000000000000000000000110100001100000000000000011000010000000001000000000000000000000000011011000000100001000000000000000000000000000000000000000000000000000000000000000000000000000000000001001000000000000000000000000000000110000000000000000000000010111010000000000000000000000000000000000000110010000100010000000000000010000000000000000000111000000010000000000000000000000000000000000000010100000000000000000000000000000000100000000000000011000000011101110000000000000000000000000000000001001000100000110100000000000000100000000000000000000100000001010000000000000000000000000000000000000010000000000000000000000000000000000000000000000001001000000100010100000000000000000000000000000000010100001000001100000000000000000000000000000000000111000000010010000000000000000000000000000000000000000000000000000000000000000000000000000000000000001100000000000011000000000000000000000000000000000010000000000000000000000000000000000000000000000000000000000011000000000000000000000000000000000000000000000000000000000000000000000000000000000000000000000000100100100000000000000000000000000000000000000000000000000000000000000000000000000000000000000000000000000000000000000000000000000000000000000000011000000000000000000000111000000000000000000000000000001110010000000000000000000000000000000000000000000000000000000000000000000000010000000000000000000000000000000000000000000000000000000000000000000110000000000000000000000000000000000000000000000000000001000000000000000000000000000000000000000000000000000000000000000000000000000100000000000000000000000000000000000000100000000000000000000000000000000000000000000000000000000000000000000000000000000000000000010000000000000000000000000000000000000000000000000000000000111000000001000000000000000000000000000000000000010010000000000000000010000000000000000000000000000000000000000000000000000000000000000000011000000000000000000000000000000000000000000000000000000000010001000000000000000000000000000000000000000000000100100000000000000001010000000000000000000000000000000000000000000000000000000000000000000111000000000000000000000000000000010100000000000000000000000001001000000000000000000000000000000000000000000000110110000000000000010010000000000000000000000000000000000000000000000000000000000000000000000000000000000000000000000000000110000000000000000000000100000100000000000000000000000000000000000000000000000011100000000011000011000000000000000000000000000000000000000000000000000000001110000000000000000000000000000000000000000000100000000000000000000010000110000000000000000000000000000000000000000000001111100000000000110000000000000000000000000000000000000000000000000000000000000000000000000000000000000000000000000000000000000000000000000000000000101010000000000000000000000000011000000000000000000010111010000000000000000000000000000000000000000000000000000000000000000000000000000000000000000000000000000000000000000111000000000000000000000000001000100000000000000000000000000110000000000000000000111100010000000000000000000000000000000000000000000000000000000000000000000000000000000000000000000000000000000000000000000000000000000000000000000001010000000000000000000000000000000000000000000000000001101000000000000000000000000000000000000000000000000000000000000000000000000000000000000000000000000000000000000000010100000000000000000000000000001000000000000000000000000000000000000000000000000000001000111000000000000000000000000000000000000000000000000000000000000000000000000000000000000000000000000000000000010000010000000000000000000000000000000000000000000000000000000000000000000000000000011011010001000000000000000000000000000000000000000000000000000000000000000000001110000000000000000000100000000000001110101110000000000000000000000000000000000000000000000000000000000000000000000000000100111000010000000000000000000000000000000000000000000000000000000011000000000000000000000000000000010100000000111010000000101110000000000000000000000000000000000000000000000000000000000000000000000001000110001000000000000000000000000000000000000000000000000000000000011000000000000000000000000000000100100000010100001010100001010000000000000000000000000000000000000000000000000000000000000000000000010100101000000000000000000000000000000000110000000000000000000000001000000000000000000000000000110000110000000000000010101000000000000000000000000000000000000000000000000000000000000000000000000000001110001011000000000000000000110000000000001100000000000000000000000000000000000000000000000000001100000000000000111100111110011110000000000000000000000000000000000000000000000000000000000000000000000011000001100000000000000000001100000000000000000000000000000000000000000000000000000000000000000000000000000000000110000101000011000000000000000000000000000000000000000000000000000000000000000000000000110000100000000000000000000000000000000000000000000000000000011000000000000000000000000010000000000000000000000001111100000111110000000000000000000000000000000000000000000000000000000000000000000000000000110000000000000000000000000000000000000000000000000000000110000000000000000000000000100000000000000000000000000111000001110000000000000000000000000000000000000000000000000000000000000000000000000000001100000100000000000000000110000011000000000000000000000000000000000000110000000000001000000000000000000000100000000000000000000000000000000000000000000000000000000000000000000000000000000000000000000000000010100000000001100010010000110000000000000000000000000000000000010010000000000000000000000000000000010001000000000000000000000000000000000000000000000000000000000000000000000000000000000000000000000001101000000000011000010100000000000000000000000000000000000000000100000000000000000000000000000000000011010000000000000000000000000000000000000000000000000000000000000000000000011000000000000000000000010100000000000000000010000000000000000000000000000000000000000011100000000000000000000000000000000000011000000000000000000000000000000000000000000000000000000000000000000000001001000000000000000001101100000000000000000000000000000000000000000000000000000000000000100101101000000000000000000000000000000000000000000000000100000000000000000000000000000000000000000000000000000010010000000000000000001010000000000000000000000000000000000000000000000000000000000000000111010000000000000000000000000000000000000000000000000000100000000000000000000000000000000000000000110000000000011000000000000000000001000000000000000000000000000000000000000000000000000000000000000000101000000000000000000000000001100000000000000001111000000000000000000000000000000000000000000000001100000000000000000000000000000000000000000000000000000000000000000000000000000000011000000000000000001000011000001100000000000000011000000000000000110110000100000000000000000000000000000000000000000000000000000000000000000000000000000000000000000000000000000000000000000000000000001000000000000000000001000000000100100000000000000000000000000000001101001000000000000000000000000000000000000000000000000000000000000000000000000000000000000000000000000000000000000000000000000000000011101000000000000000001000000000110000000000000000000000000000000000100000000000000000000000000000000000000000000000000000000000000000000000000000000000000000000000000000000000000000000000000011100000000011000000000000000000000000000000000000000000000000000000000000000000000000000000000000000000000000000000000000000000000000000000000000000000000000000010000000000000000000000000000000000000000000001000010000000000000000000000000000000000000000000000000000000000000000000000000000000000000000000000000000000000000000000000000000000000000000000000000001110000000000000000000000000000000000000000000100110100000000000000000000000000000000000000000000000000000000000000000100000000000000000000000000000000000000000000000000000110000000000000000000000000010001110000000000000000000000000000000000000001000001000000000000000000000000000000000000000000000000000000000000000000100000000000000000000000000000000000000000000000000010010000000000000000000000000010001000000000000000000000000000000000000000011111010000000000000000110000000000000000000000000000000000000000000000010000000000000000000000000000000000000000000000000000011000000000000000000000000000011100000000000000001000000000000000000000110100010000000000000000010010000000000000000000000000000000000000000000000000000000000000000000000000000000000000000000000000000000000000000000000000000000000010000000000000000111000000000000000000011101111000000000000000000011000000000000000000000000000000000000000000000000000000000000000000000000000000000000000000000000000000000000000000000000000000000000000000000000000010011000000000000000000011010001000000000000000000000000000000000000000000000000000000000000010000000000000000000000000000000000000000000000000000000000000000000000000000000000000000000000000000000000110011000000000000000000000111110100000000000000000000000000000000000000000000000000000000001010000000000000000000000000000000000000000000000000000000000000000000000000000000000000000000000000000000000111010000000000000000000001000001000000000000000000000000000000000000000000000000000000000010100000000000000000000000000000000000000000000000000000000000000000000000000000000000000000000000000000000000100100000000000000000000010011010000000000000000000000000000000000000000000000000000000000010000000000010100000000000000000000000000000000000000000000000000000000000000000000000000000000000000000000000110000000000000000000000010000100000000000000000000000000000000000000000001100000000000000000000000000000100000000000000000001000000000000000000000000000000000000000000000000111000000000000000000000000000000000000000000000000000011000000000000000000000000000000000000000000011000000000000000000000010000001000000000000000000101000000000000000000000000000000000000000000000010010000000000000000000000000000000000000000000000001110100000000000000000000000000000000000000000000000000000000000000000001000000001000000000000000000100000000000000000000000000000000000000000000000000010000000000000000000000000000000000000000000000010000000000000000000000000000000000000000000000000000000000000000000000001011111100000000000000000000000000000000000000000000000000000000000000000010001100000000000000000000000000000000000000000000000011000000000000000000000000000000000000000000000000000000000000000000000000000010000000000000000000000000000000000000000000000000000000000000000001100010000000000000000000000000000000000000000000000000000000000000000000000000000000000000000000000000000000000000000000000000000000000000000000000000000000000000000000000000000000000000000000000000001010000000000000000000000000000001110001100000000000000000000000000011000000000000000000000000000000000000000000000000000000000000100000000000000000000000000000000000000000000000000000000000000000000100000000000000000000000000000000000000100100000000000000000000000000110000000000000000000000000000000000000000000000000000000000011100000000000000000000000000000000000000000000000000000000000000000010001000000000000000000000000000000000000110000000000000011000000000000000000000000000000000000000000000000000000000000000000000110001000000000000000000000000000000000000000000000000000000000000000001000000010000000000000000000000000000000000000000000000000110000000000000000000000000000000000000000000000000000000000000000000001001000000000000000000000000000000000000000000000000000000000000001000010000110100000000000000000000000000000000000000000000000000000000110000000000000000000000000000000000000000000000000000000000000001110000000000000000000000000000000000001000000000000000000000000101000110010001000000000000000000000000000000000000000000000000000000010010000000000000000000000000000000000000000000000000000000000000000000000000000000000000000000000000000101000000000000000000000010010000000000000000000000000000000000000000000000000000000000000000000100100000000000000000000000000000000000000000000000000000000000000000000000000000000000000000000000000001010000000000000000000000011000000001100000000000000000000000000001110000000000000000000000000000110000000000000000000000000000000000000000000000000000000000000000000000000000000000000000000100000000001000000000000000000000000000000000101000000000000000000000000000000000000000000000000000000000000000000000000000000000000000000000000000000000000000000110000000000000000000000000000000000001000110000000001100000000000000000000001100001000000000000000000000000000000000000000000000000000000000000000000000000000000000000000000000000000000000000000000000001010000000000000000000000000000000010001000000000100100000000000000000000110110000000000000000000000000000000000000000000000000000000000001100000000000000000000000000000000000000000000000000000000000000110000000000000000000000000000000000010000000000010000000000000000000001001100000010000000000000000000000000000000000000000000000000000100100000000000000000000000000000000000000000110000000000000000100010000000000000000000000000000000011100011100000000000000000000000000000110000000100000000000000000000000000000000000000000000000000000110000000000000000000000000000000000000000010010000000010000001010010000000000000000000000000000000000000000000000000000000000000000000001110010000000000000000000000000000000000000000000000000000000000000000000000000000000000000000000000000000010100000000100000010001100000000000000000111000000000000000000000000000000000000000000000000011100101100000000000000000000000000000000000000000000000000000000000000000000000000000000000000000000000000010000000010000000011010000000000000000000000000000000000000000000000000000000000000000000000000001000000000000000000000000000000000000000000000000000000000000000000000000000000000000000000000000000000000000000010000111110100000000000000001000001000000000000000000000000000000000000000000000001000010100000000000000000000000000000000000000000000000000000000000000000000000000000000000000000000000000000000000000100110110000000000000000000010000010000000000000000000000000110000000000000000000010000011000000000000000000000000001000000000000000000000000000000000000000000000000000000000000000000000000000000000010101101110110000000000000000100000100000000000000000000000001100000000000000000000100000000000000000000000000000000101000000000000000000000000000000000000000000000001110000000000000000000000000000000100000011010000000000000000000000000000000000000000000000000000000000000000000000000000000000000000000000000000000001001000000000000000000000000000000000000000000000000000000000000000000000000000000000000110011100000000000000000000111000000000000000000000000000000000000000000000000000000000000000000000000000000000001100000000000000000000000000000000000000000000000000000000000000000000000000000000010000000010000000000000000000000000000000000000000000000100000000000000000000000000000000000000000000000000000000000000000000000000000000000000000000000000000000000000000000000000000000000000000000000010000000000000000000000000000000000000000000000000000010110000000000000000000000000000000000000000000010000000000000000000000000000000000000000000000000000000000000000000000000000000000000000000000000010010000000000000000000000000000000000000000000000000001100000000000000000000000000000000000000000000100000000000000000000000000000000000000000001000000000000000000000000000000000000000000000000000000111000000000000000000000000000000000000000000000000110000000000000000000000000000000000000000000000001000000000000000000000000000000000000000000111000000000000000000000000000000000000000000000000000000000000000000000000000000000000000000000000000000001100110000000000000000000000000000000000000000000000000000000000000000000000000000000000000010101000000000000000000000000000000000001000000000000000000000000000000000000000000000000000001110000000000000111100000000000000000000000000000000000000001110001110000000000000000000000000000000000001110111000000000000000000000000000000000010000000000000000000000000000000000000000000000000000100100000000000100001000000000000000000000000000000000000000000000000000000000000000000100000000000000000001010100000000000010000000000000000000000100000000000000000000000000000000000000000000000000011000000100000001110110000000000000000011000000000000000000000000000000000000000000000010100000000000000000011110000000000001010000000000000000000000000000000000000011100011100000000000000000000000000011010011100000000100100010000000110000110000000000000000000000000000000000000000000000101000000000000000000111000000000000010100000000000000000000000000000000000000000000000001100000000000000000000000110011101100000000011001100000001100000000000000000000000000000010010000000000000000000100000000000000000001100000000000000010000000000000000000000000000000000000100000100000100100000000000000000000000011111010000000010010001000000000000000000000000000000000000001100110000000000000000000000000000000000000111000000000000000000000000000000000000000000000000000001000001000000110000000000000000000000000011111000000011101100000000000000000000000000000000000000100001001000000000000000000000000001100000000100000000000000000000000000000000000000000000000000000000010000010000000000000000000000000000000000011100000000100001000000000000000000000000000000000000001000000000000000000000000000000000011000001110000000000000000000000000000000000000000000000000000000000000000000000000000000000000000000000000000000000110000011110000000000000011000000000000000000000010000000000000000000000000000000000000000100100000000000000000000000000000000000000000000000000000000000011100000000000000000000000000000000000000000001100011001100000000000001001000000000000000000000000000000000000000000000000000000000000010010000000000000000000000000000000000000000000000000000000000000000000000000000000000000000000000000000000000000000110000000000000000001010000000000000000000000011100000000000000000000000000000000000100011000000000000000000000000000000000000000000000000000000000000000000000000000000000000000000000000000000000000000000110000000000000001000000000000000000000000000000000000000000000000000000000000001101010100000000000000000000000000000000000000000000000000000000000000000000000000000000000000000000000000000000000000101100000000000000000000000000000000000000000000000000000000000000000000000000000000010001000000000000000000000000000000000000000000000000000000000000000000000000000000000000000000000000000000000000000100000000000000000000000000000000000000000000000000000000000000000000000000000000001100000000000000000000000000000000000000000000000000010000000000000000000000000000000001100000000000000000000000000000000000000000000000000000000000000000000000000000000000000000000000000000000000000000000000000000000000000000000000000000000000000000001010000000000000000000000000000000011000000000000000000000000000000000000000000000000000000000000000000000000000000000000000000000000000000000000000000000000000000000000000000000000000000000000000000010100000000000000000000000000000000000000000000000000000000000000000000000000000000000000000000000000000000000000000000000000000000000000000000000000000000000000000000000000000000000000000000000000000010000000000000000000000000000000000000000000001100000000000000000000000000000000000000000000000000000000000000000000000000000000000000000000000000000000000000000000000000000000000000000000000000000000000000000000000000000000000000000000000000000011000000000000000010000000000000000000000000000000000000000000000000000000000000000000000000000000000000000000000000000000000000000000000000000000000000000000000000000000000000000000000000000000000000000000000000000001010000000000000000000000000000000000000000000000000000000000000000000000000000000000000000000000000000000000001100000000000000000000000000000000000000000000000000000000000000000000000000000000000000010100000000000000000000000000000000000000000000000000000000000000000000000000000000000000000000000000000000001000100000000000000000000000000000000000000000000000000000000000000000000000000000000000000010000000000000000000000000000000000000000000000000000000000000000000000000000000000000000000000000000000000100000100000000000000000000000000000000000000000000000000000000000000000000000000000000000000000000000000000000000000000000000000000000000000000000000000000000000000000000000000000000000000000000000001101101100000000000000000000000000000000000000000000000000000110000000000000000000000000000000000000000000000000000000000000001110000000000000000000000000000000000000000000000000000000000000000000000000000001000000000000000000000000000000000000000000000000000001010000000000000000000000000000000000000000000000000000000000000011100000000000000000000000000000000000000000000000000000000000000000000100000001010000000000000000000000000000011000000000000000000000001000000000000000000000000000000000000000000000000000000000000000000000000000000000000000000000000001100000000000000000000000000000000010100000111000000000000000000000000000001001000000001100000011000000000000000000000000000000000000000000000000001000000000000000000000000000000000000000000000000000011000000000000000000000000011000000101000011000000000000000000000000000000001100000000011000001001000000000000000000000000000000000000000000000000010000000000000110000000110000000000000000000000000000000000000000000000000000000110000000100001010000000000000000000000000000000000000000000000000010100000000000000000000000000000000000000000000000000100000000000001100000001100000000000000000000000000000000000000000000000000000000000000000000001000000000000000000000000000000000000000000000000000010000000000000000000000000000000000000000000000000000000000000000011000000011000000000000000000000000000000000000000000000000000000000000000000000000000000000000000000000000000000000000000000000000000000000000000000000000000000000000000000000000000000000000000000000111000000000000000000000000000000000000000000000000000000000000000000000000000000000000000000000000000000000000000000000000000000000000000000000000000000000000000000000110000000000000000000000000000000110000000000000000000000000000000000000000000000000000000000000000000000000000000000000000000000000000000000000000000000010000000000000000000000000000000000000000000010010000000000000000000000000000000000110000000000000000000000000000000000000000010000000000000000000000000000000000001000000000000000000000000000000000011010000000000000000000000000000000000000000000101000000000000000000000000000000000001100000000000000000000000000000000000000000100000000000000000000000000000000000101000000000000000000000000000000000010100000000000000000000000000000000000000000000100000000000000000000000000000000000010000000000000000000000000000000000000000001000000000000000000000000000000000000100000000000000000000000000000000000000000000000000000000000000000000000000000000000000000000000000000000000010000000000000000000000000001100110000000000000000000000000000000000000000000000000000000000000000000000000000000000000000001000000000000000000000000000000000000000000000000000000000000000000000000000100000000000000000000000000011001100000000000000000000000000000000000000000000000000000000000000000000000000000000000000000101000000000000000000000000000000000000000000000000000000001100000000000000001000000000000000000000001100000000000000000000000000000000000000000000000000000000000000000000000000000000000000000000000001010000110000000000000000000000000000000000000000000000000100100000000000000000000000000000000000000011000000000000100000000000000000000000000000000000000000000000000000000000000000000000000000000000001000010010000000000000000000000000000000000000000000000001010000000000000000000000000000000000000000000000000000010100000000000000000000000000000000000000000000000000000000000000000000000000000000000000000011000000000000000000000000000000000000000001000000001000000000000000000000000000000000000000000000000000000101000000000000000000000000000000000000000000000000000000000000000000000000000110000000000000000000000000000000000000000000000000000000101000000000000000000000000000000000000000000000000000000000000000100000000000000000000000000000000000000000000000000000000000000000000000000010010000000000000000000000000110000000000000000000000000000110000000000000000000000000000000010000000000000000000000000000000000000000000000011000000000000000000000000000000000000000000000001000000000100100000000000000000000000010100000000000000000000000000000000000000000000000000000000000000100000000000000000000000000000000000000000000000110000000000000000000000000000000000000000000000101000000000110000000000000000000000000010000000000000000000000000000000000000000000000000000000000000001000110000000000000000000000000000000000000000000000000000000000000000000000000000000000000000010010000000000000000000000000000000000000000000000000000000000000000000000000000000000000000000000000000000010010000000000000000000000000000000000000000000000000000000000000000000000000000000000000000011000000000000000000000000000000000000000000000000000000000000000000000000000000000000000000000000000000000101000000000000000000000000000000000000000000000000000000000000000000000000001000000000000000000000000000000000000000000000000000000000000000000000101000001010000000000000000000000000000000000000000000100000000000000000000000000000000000000000000000000000000000000000000000000101100000000000000000000000000000000000000000000000000000000000000000001010000010100000000000000000000000000000000000000011000000000000000000000000000000000000000000000000000000000000000000000000000011000100000000000000000000001100000000000000111110000000011000000000000000010001001000000000000000000000000000000000000000110000000000000000000000000000000000000000000000000000000000000000000000001100010000000000000000000000000100100000010100011111110000000110000000000011101100011100110000000000000000000000000000000000000000000000000000000000000000000000000000000000000000000000000000000000000001100100010000000000000000000000101000000101111000000010000000000000000000110000010010000010000000000000000000000000000000000000000000000110000000000000000000000000000000000000000000000000000000000011010001000000000000000000000000000100000010000001011111000000000000000000000000100101000011000000000000000000000000000000000000000000000001100000000000000000000000011100000000000000000000000000000000100000010000000000000000000000000000000000011100001101100000000000000000000000100001000111100000000000000000000000000000000000000001110000000000000000000000000000000000000000000000000000000000000000001010000000000000000000000000000000000000000001011100000000000000000000000001000111000000100000000000000000000000000000000000000000101100000000100000000000000000000000000000000000000000000000000000000001100001010000000000000000000000000000000000000000000000000000000000000000010001010000001000000000000000000000000000000000000000011000000000010100000000000000000000000000000000011000000000000000000000000000001000000000000000000000000000000000000000000000000000000000000000010010000000000000000000000000000000000001100000000000000011101000001001000000000000000000000000000000000110000000000000000000000000000000000000000000000000110000000000000000000000011000000000000001100000000000000000000000000000000000000000011000000000000000011101000001100000000000000000000000000000000000000001110001110000000000000000000000000000000000010010000000000000000000001111100000000000000001100000000000000000000000000000000000000000000000000000000000000000000000000000000000000000000000000000000000010100010100000000000000000000000000000000000100100110001100000110000010000100000000000000001000000000000000000000000000000000000000000000000000000000000000000000000000000000000000000000000000000000000111000111000000000000000000000000000000000000110001100100100000110000011000100000000000110011000000000000000000000000000000000000000000000000000000000000000000000000000000000000000000000000000000000000000000000000000000000000000000000000000000000000000000101000000000001000001000000000001110110000000000000000000001000000000000000000000000000000000000000000000000000000000000000000000000000000000000000000000000000000000000000000000000000000000000000000000100000000000000100100000000000011100000000000000000000000101000000000000000000000000000000000000000000000000000000000000000000000000000000000000000000000000000000000000000000000000000000000000000000000000000000000000100000000000000000000000000000000000000001010000000000000000000000000000000000000000000000000000000000000000000000000000000000001110001110000000000000000000000000000000000000000000000000001100000000000000000000000000000000000000000000000000001000000000000000000000000000000000000000000000000000000000000000000000000000000000000010100010100000000000000000000000000000000000000000000000000100100000000000000000000001000000000000000000000000000000000000000000000000000000000000000000000000000000000000110000000000000000000000000000111000111000000000000000000000000000000000000111000000000000001000000000000000000000010000000000000000000000000000000000000000000000000000000000000000000000000000000000001100000000000000000000000000000000000000000000000000000000000000000000000000000000000000000111000000000010000000000100000000000000000000000000000000000000000000000000000000001110000000000000000000000000000000000000000000000000000000000000001001100000000011000000000000000000000000000000000000110000000011010000000000000000000000000000000000000000000000000000000000000000000000000000000000000000000000000000000000000000000000000000000000000001011000000001001000000001100000000000000000000001100000000001000110001011000111000000000000000000000000000000000000000000000000000000000000000000000000000000000000000000000000000000000000000000000011000000000000010010000000101000000000000000000000100100000000000001000100100000000000000000000000000000000000000000000000000000000000000000000000000000000000000000000000000000000000000000000000000001111101000000000011000000000100000000000000000000000000000000000100010010001001000000000000000000000000000000000000000000000000000000000000000000000000000000000000000001100000000000000000000000000000011100110000000000000000000000000000000000000000000000001100000000000100010100010000000000000000000000000000000000000000000000000000000000000000000000000000110000000000100100000000000000000000000000000010000000000000000000000000000000000000100000000000001001000000000001000001000100000000000000000000000000000000000000000000000000000000000000000000000000001100000000000110000000000000000000000000000000000000000000000000000000000000000000010100000000000011100000000000001110110000000000000000000000000000000000000000000000000000000000000000000000000000000000000000000000000000000000000000000000000000000000000000000000000000000000000000001010000000000000000000000000010111001000000000000000000000000000000000000000000000000000000000000000000000000000000000000000000000000000000000000000000000000000000000000000000000000000000000000000000101000000000000000000000000000001000100000000000000000000000000000000000000000000000000000000000000000000000000000000000000000000000000000000000000000000000000000000000000000000000000000000000000000000100000000000000000000000000000001110000000000000000000000000000000000000000000000000000000000000000000000000000000000000000000000000000000000000000000000000000000000000000000000000000000000000000000000000000000000000000000000000000011100000000000000000000000000000000000000000000000000000000000000001110000000000000000000000000000000000000000000000000000000000000000000000000000000000000000000000000000000000000000000000000000000000000000000000000000000000000000000000000000000000000000000000000000000000000000000000000000000000001000000000000000000000000000000000000000000000000000000000000000000000000000000000000000000000000000000000000000000000000000000000000000000000000000000000000000000000000000000000000000000000000000000101000000000000000000000000000000000000000000000000000000000000000000000000000000000000000000000000000000000000000000000000000000000000000000000000000000000000000000000000000000000000000000000000000001010000000000000000000000000000000000000000000000000000000000000000000000000000000000000000000000000000000000000000000000000000000000000000001110000000000000000000000000100000000000000000000000000000001000000000000000000000000000000000000000000000000000000000000000000000000000000000000000000000000000000000000000000000000000000000000000000100000000000000000000000000001000000000000000000000000000000000000000000000000000000000000000000000000000110000000000000000000000000000000000000000000000000000000000000000000000000000000000000000000010001000000000000000000000000010000000000000000000000000000000000000000000000011000001000000000000000000001100000000000000000000000000000000000000000000000000000000000000000000000000000000000000000000100100000000000000000000000000000000000000000000000000000000000000000000000000110000010000000000000000000000000000000000000000000000000000000000000000000000000000000000000000000000000000000000000000001100000000000000000000000000000000000110000000000000000000000011000000000000000000000100000000000000000000000000000000000000000000000000000000000000000000000000000000000000000000000000000000000000000000000000000000000000000000000000000001010000000000000000000000110000000000000000000000000000000000000000000000000000000000000000000000000000000000000000000000000000000000000000000000000000000000000000000000000000000000000000000000000000001100000000000000000000000000000000000000000000000000000000000000000000000000000000000000000000000000000000000000000000000000000000000000000000000000000000000000000000000000000000000000000000000000000000000000000000000000000000000000000000000000000000000000000000000000000000000000000000000000000000000000000000000000000000000000000000000000000000000000000000000000000000000000000