P1
200 200
0000000000000000000000000000000000000000000000000000000000000000000000000000000000000000000000000000000000000000100000000000000000000000000000000000000000000000000000000000000000000000010000000000000001000110000000000000000000000000000000000000000000000000000000000000000000000000000000000000000000000000010000010100000000000000000000000000000000000000000000000000000000000000000000001010000000000000100010010000000000000000000000000000000000000000000000000000000000000000000000000000000000000000000000001010000100100000000100000000000000000000000000000000000000000000000000000000000010100000000000001100100100000000000000000000000000000000000000000000000000000000000000000000000000000000000000000000000011000000110000000010100000000000000000000000000000000000100000000000000000000000010000000000000001010001000000000000000000000000000000000000000000000000000000000000000000000000000000000000000000000000000000000000000000101000000000000000000000000000011100010100000000000000000000000000011100000000001111100000000000000000000000000000000000000000000000000000000000000000000000011000000000000000000000000000000000000000000100000000000000000000000000000000000100100000000000000000000000000000000000000111000010000000000000000000000000000000000000000000000000000000000000000000000110000000000000000000000000000000000000000000000000000000000000000000000000000000110000000000000000000000000000000000000011000111110000000000000000000000000000000000000000000000000000000000000000000000000000000000000000000000000000000000001100000001100000000000000000000000000000000000000000001100000000000000000000000000100110000110000000000000000000000000000000000000000000000000000000000000000000000000000000000000000000000000000000000100100000100100000000000000000000000000000000000000000011000000000000000000000000000110001000100000000000000000000000000000000000000000000000000000000000000000000000000000000000000000000000000000000000110000000110000000000000000000000000000000000000000000000000000000000000000000000000000011001110000000000000000000000000000000000000000000000000000000000000000000000000000000000000000000000000000000000000000000000000000000000000000000000000000000000000000000000000000000000000100000000001010010000000000000000000000000000000000000000000000000000000000000000000000000000000000000000000000000000000000000000100000000000000000000000000000000000000000000000000000000000000000000110100000000000111000000000000000000000000000000000000000000000000000000000000000000000000100000000000000000000000000000000000000010100000000000000000000000000000000000000000000000000001111110000000001101000000100000110000000000000000000000000000000000000000000000000000000000000000000000001000000000000000000000000000000000000000101000000000000000000000000000000000000000000000000000100001100000000000111000001100000000000000000000000000000000000000000000000000000110000000000000000000000010000000000000000000000000000000000000000100000000000000000000000000000000000000000000000000010000010000000000001000000110000000000000000000000000000000000000000000000000000010010000000000000000000000000000000000000000000000000000000000000000000000000000000000000000000000000000000000000000000100010000000000000011100000000000000000000000000000000000000000000000000000000000101000000000000000000011100011100000000000000000000000000000000000000000000000000000000000000000000000000000000000000001000001000000000001000000000000000000000000000000000000000000000000000000000000000100000000000000000000000000000000000000000000000000000000000000000000000000000000000000000000000000000000000000000000000000010000000000010100000000000000000000000000000000000000000000000000000000000000000000000000000000000000000000000000000000000000000000000000000000000000000000000000000000000000000000000000000011000001000000000000000010000000000000000000000000000000000000000000000000000000000000000000000000000000000000000000000000000000000000000000000000000000000000000000000000000000000000000000000000000000110000000000100000001001100000000000000000000000000000000000000000000000000000000000000000000000000000000000000000000000000000000000000000000000000000000000000000000000000000000000000000000000000000000000000000001000000001100000000000000000000000000000000000000000000000000000000000000000000000000000000000000000000000000000000000000000000000000000000000000000000000000000110000000000000000000000000000000000000010000000101000000000000000000000000000000000000000000000000000000000000000000000000000000000000000000100000000000000000000000000000000000000000000000000000000010010000000000000000000000000000000000000000000000110000000000000000000000000000000000000000000000000000000000000000000000000000000000000000010100000000000000000000000000000000000000000000000000000001111110000000000000000000000000000000000000000000101100000000000000000000000000000000000000000000110000000000000000000000000000000000000000011001000000000000000000000000000000000000000000000000000000000101100000000000000000000000000000000000000000011011000000000000000000000000000000000000000000010010000000000000000000000000000000000000001000110000000000000000000000000000000000000000000000000000000000110010000000000000000000000000000000000000001100111000000000000000000000000000000000000000000100100000000000000000000000000000000000001100010000000000000000000000000000000000000000000000000000000000000000011000000000000000000000000000000000000001000101100000000000000000000000111000000000000000110000000000000000000000000000000000000100111000000000000000000000000000000000000000000000000000000000000000000000000000000000000000000000000000000000001001011000000000000000000000010001000000000000000000000000000000000000000000000000000000110000000000000000000000000000000000000001000000000000000000000000000000000001100000000000000000000000000000000000100110000000000000000000000100001000000000110000000000000000000000000000000000000000000000000000000000000000000000000000000000101000000000000000000000000011100000011000000000000000000000000000000000000000000000000000000000000000101110000000001100000000000000000000000000000000000000000000000000110000000000000000000000000000001010000000000000000000000001111100000000000000000000000000000000000000000000000000000000000000000000000101000000000000000000000011000000000000000000000000000000000000001100000000000000000000000000000001000000000000000000000000100000100000000000000000000000000000000000000000000110000000000000000000000000000000000000000000000001001000000000000000000000000000000000000000000000000000000000000000000000000000000000000000000000000100110000000000000000000000000000000000000000000010010000000010000000000000000000000000000000000000010100000000000000000000000000000000000000000000000011000000000000000000000000000000000000000000000001001000000000000000000000000000000000000000000001000100000001010000000000000000000000000000000000000010000000000000000000000000000000000000000000000001001000000101000000000000000000000000000000000000001110000000000000000000000001000000000000000000100001000000010010000000000000000000000000000000000000000000000000000000000000000000000000000000000000001100000000010000000000000000000000000000000000000000000000000000000000000000101000000000000000010100010000000011000000000000000000000000000000000000000000000000000000000000000001000000000000000000000000000011010000000000000000000000000000000000000000000000000000000000000000001010000000000000000100010000000000000000000010001100000000000000000000000000011000000000000000000000010000000000000000000000000001000010000000000000000000000000000000000000000000000000000000000000000001000000000000000001110000000000000000000001111100100000000000000000000000000110000000000000000000000100000000000000000000000000001100000000000000000000000000000000000011100000000000000000000000000000000000001110000000110100000000000000000000001000100000000000000000000000000000000000000000000000000000000000000000000000000000000000000000000000000000000000000000000000111000000000000000000000000000000000000000000000010110000000000000000000000000000110110000000000000010000000000000000000000000000000000000000000000000000000000000000000000000000000000000000000000000000000000000000000000000000000000000000000000000000010000000000000000000000000001010100100000000000001010000000000000000000000000000000000000000000000000000011000001000000000000000000000000000000000000000000000000000000000000000000000000000000000000000011111000000000000000000000010001000100000000000010010000000000000000000000000000000000000000000000000001010010001000000000000000000000000000000001100000001100000000000000000000000000000000000000000000000110000000000000000000000011000010000000011000011000000000000000000000000000000000000000000000000000000101100001000000000000000000000000000000011000000011000000000000000000000000000000000000000000000000000000000000000000000000001011100000000110000000000000000000000000000000000000000000000000000000000000001000100000000000000000000000000000000110000000110000000000000000000000000000000000000000000000000011000000000000000001000010000000000000000000000000000000000000000000000000000000000000000000000000000000010000000000000000000000000000000000000000000000000000000000011000000000000000000000000000000000110000000000000000100000000000000010000000000000000000000000000000000000000000000000000000000000000000000000000000000000000000000000000000000000000000000000000000001001000000000000000000000000000000000000000000000000010001000100000000100000000000000000000000000000000000000000000000000000000000000000000000000000000000000000000000000000000000000000000000000000000001100000000000000000000000000000000000000000000000000100101001000000001000000000000000000000000000000000000000000000000000000000000000000010000000000000000000000000000000000000000010000000000000000000000000000000000000000000000000000000000000000000000001000100010000000000000000000000000000000000000000000000000000000000000000000000000000100000000000000000000000011000000000000010110000000000000000000000000000000000000000000000000000000000000000000000001000001000001110001110000000000000000000000000000000000000000000000000000000000000001000000000000000000000000110000000000000010000000000000000000000000000000000000000000000000000000000000000000000000001000100000000000000000000000000000000000000000000000000000000000000000000000000000000000000000000000000000000000000000001000110000000101010000000000000000000000000000000000000000000000000000000000000001110000000000010000000000000000000000000000110000000000000000000000000000000000000000000000000000110000000110000000000111100010000000100010000000000000000000000000000000000000000000000000000000000000000000000000000100000000000000110000000000001100000000000000000000000000000000000000000000000000001100000000000000000001000001010101101100110000000000000000000000000000000000000000000000000000000000000000000000000001000000000000001100000000000000000000000000000000000000000000000000000000000000000000000000000000000000000000010001101100010000000000000000000000000000000000000000000000000000000000000000000001100000000000000000000000000000000000000000000000000000011000000000000000000000000000000000000000000000000000000001100000010000000000000000000000000000000000000000000000000000000000000000000000000000011000000000000000000000000000000000000000000000000000000110000000000000000000000001110000000000000000000000000000000000000000000000000000000000000000000000000000000000000000000000000000000000000000011100000000000000000000000110000011000000000000000000000001000000000000011000000000000000000000000000000000000000000000000000000000000000000000000000000000000000000000000000000000000000000000000000001010000000000000000001100010010000110000000000000000000001000000000000000101000000000000000000000000000000000000000000000000000000000000000000000000000000000000000000000000000000000000000000000000000110110011000000000000011000010100000000000000000000000000000000000000000000100000000000000000000000000000000000000000000000000000000000000000000000000000000000000000000000000000000000011000000000000001001000110000000000000000000010000000000000000000000000100000000000000000000000000000000000000000000000000000000000000000000000000000000000000000000000000000000000000000000000000000001001000000000000100010000000000000000000000000000000000000000000000000000000000000000000000000000000000000000000000000000000000000000000000000000000000000000000000000000000000000000000000000000000000010010000000000000000100000000000000000000000000000000000000000000000110000110000000000000000000000000000000000000000000000000000000000000000000000000000000000000000000000000000000000000000110000000000011000000000000000000000000000000000000000000000000000000000000000001100000100000000000000000000000000000000000000000001100000111000000000000000000000000000000000000000000000000000000000001100000000000000000000000000001011000000000000000000000000000000000000000000000000001110000000000000000000000000001100000000000000011000000000000000000000000000000000000000000000000000000000000000000000000000000000000000000000001011000000000000000000000000000000000000000000000000000011100000000000000000000000000100100000000000000000000000000000000000000000000000000000000000000000000000000000000000000000000000000000000000000011100000000000000000000000000000000000000000000000001110110110000000000000000000000000110000000000000000000000000000000000000000000000000000000000000000000000000000000000000000000000000000000000000000000000000000000000000000000000100000000000000000000011000000100000000000000000000000000000000000000000000000000000000000000000000000000000000000000000000000000000000000000000000000000000000000000000000000000000000000000000000000010100000000000000000000100000101000000000000000000000000000000000000000000000000000000000000000000000000000000000000000000000000000000000000000000000000000000000000000000000000000001110111000000000000101000000000000000000000000011100000000000000000000000000000000000000000000000000000000000000000000000000000000000000000000000000000000000000000000000110000000000000000000000000000011010001000000000000100000000000010100000000000011100000000000000000000000000000000000000000000000000000000000000000000000000000000000000000000000000000000000000000000010010000000000000000000000000000001101100000000000000000000000000100000000000000000100000000000000110000000000000000000000000000000000000000000000000000000000000000000000000000000000000000000000000000011000000000000000000000000000000000000000000000000000000000000000001000000000001000100000000000010010000000000000000000000000000000000000000000000111000000000000000000000000000000000000000000000000000000000000000000000000010000000000000000000000000000000000000000110100000000000110001000000000000011000000000000000000000000000000000000000000100011001000000000000000000000000000000000000000000000000000000000000000000000000100000000000000000000000000000000000000000111000000000011001010000000000000000000000000000000000000000000000000000000010101100110000000000000000000000000000000000000000000000000000000000000000000000001000000011000000000000000110000000011000000001000000000010111000000000000000000000000000000000000000000000000000000001001011001000000000000000000000000000000000000000000000000000000000000000000000000000011000000000000000000010010000001001000001001000000001011000000000000000000000000000000000000000000000000000000000001100101000000000000000000000000000000000000000000000000000000000000000000000000000000111000000000000000000011000000001010000010010000000001100000000000000000000000000000000000000000000000000000000000001100001000100000000000000000000000000000000000000000000000000000000000000000000000001101100000000000000000000000000001000000100010000000010000000000000000000000000000000000000000000001100000000000000001000000110110000000000000000000001000000000000000000000000000000000000000000000000000111000000000000000000000000000000000000101000000000000000000000000000000000000000000000000000000011000000000000000011000010010000000000000000000000101000000000000000000000000000000000000000000000000000100000000000000000000000000000000000000100000000000000000000000000000000000000000000000000000000000000000000000000001001000000010000000000000000000100000000000000000000000000000000000000000000000000000000000000000000000000000000000000000000000000001100000000000000000000000000000000000000000000000000000000000000000000000000000100000000000000000000000000000000000000000000000000000000000000011000000000000000000000000000000000000000000000000000000011000000000000000000000000000000000000000000000000000000000000000000000000000001000000000000000000000000000000000000000000000000000000000000001111010000000000000000000000000000000110000000000000000000000000000000000000000000000000000000000000000000000000000000000000000000000000000000000000000000000000000000000000000000000000000000000001111101011010000000000000000000000000000010010001100000000000000000000000000011000000000000000000000000000000000000000000000000000000000001110000000000000000000000000000000000000000000000000000000000101100100110010000000000000000000000000000100100100100000000000000000000000000110000000000000000000000000000000000000000000000000000000000000000000000000000000000000000000000000000000000000000000000001000110000000001100000000000000000000000000110000110000000000000000000000000000000000000000000000000000000000000000000000000000000000000000000000000000000000000000000000000000000000000000000000000000100100101000000010100000000000000000000000000000000000000000000000000000000000000000000000000000000000000000000000000000000000000000000000110000000000000000000000000000000000000000000000000000000000000000101000000000000000000000000000000000000000000000000000000000000000000110000000000000000000000000000000000000000000000000000000000000001100000000000000000000000000000000000001000000000000000000000001101111001001001110000000000000000000000000000000000000000000000000000010010000000000000000000000000000000000000000000000000000000000000000000000000000000000000000000000000000101000000000000000000000000110001000001110000000000000000000000000010000000000000000000000000000100100000000000000000000000000000000000000000000000000000000000000000000000000000000000000000000000000001010000000000000000000000000000000000000000000000000000000000000000100000000000000000000000000000110000000000000000000000000000000000000000000000000000000000000000000000000000000000000000000000000000001000000000000000000000000000000000000000000000000000000000000000001000000000000000000000000000000000000000000000000000000000000000000000000000000000000000000000000000000000000000000000000000000000000000000000000000000000000000000000000000000000000000000000000000000000000000000000000000000000000000000000000000000000000000000000000000000000000000000000000000000000000000000000000000000000000000000000000000000000000000000000000000000000000000000000000000000000000000000000000000000000000000001100000000000000000000000000000000000000000000000000000000000000000000000000000000000000000000000000000000100000000000000000000000000001000000000000000000000000000000000000000000000000000000000000000100100000000000000000000000000000000000000001100000010000000000000000000000000000000000000000000000000000001000000000000000000000000000101000000000000000000000000000000000000000000000000000000000000000110000000000000000000000000000000000000000100110011011000000000000000000000000000000001000000000000000000010000000000000000000000000010001100010000000000000000000000000000000000000000000000000000000000000000000000000000000000000000000000000000001110110110000110000000000111000000000000010000000000000000000000000000000000000000000000100001001100010000000000000000000000000000000000000000000000000000000000000000000000000000000000000000000000010001000100100001001100000010100000000000000100000000000000000000000000000000000000000000001000010111001110000000000000000000000000000000000000000000000000000000000000000000000000000000000000000000000011100011100000001111000000100100000000000000000000000000000000000000000000000000000000000000000000110010100000000000000000000000000000000000000000000000000000000000000000000000000000000000000000000000000000110000001111110000001001000000000111000111000000000000000000000000000000000000000000001110000000011000000000000000000000001000000000000000000000000000000000000000000000000010000000000000000000000001111000000111000000000001010000000000000000000000000000000000000000000000000000000000000001000000000000000000000000000000000101000000000000000000000000000000000000000000000000100000000000000000000000011000000001001000000000100100000000000001000000000000000000000000000000000000000000000000000000000000000000000000000000000001001000000000000000000000000000000000000000000000001000000000000000000000000000000000001100000000000110000000000000010000000000000000000000000000000010000000000000000000000000000000000000000000000000001100000000000000010000000000000000000000000000000000000000000000000000000000000000000000000000000001000000000000000100000000000000000000000000010110110000000000000000000000000000000000000000000000000000000000000000001110000000000000000000000000000000000000000000000000000000000000000000000000000000000000000000000000000000000000000000000000000001100110000000000000000000000000000000000000000000000000000000000000000100100000000000000000000000000000000000000000000000000000000000000000000000000000000000000000000000000000000000000000000000000010000000000000000000000000000000000000000001110000000000000000000000000001100000000000011100000000000000000000000000000000000000000000000000000000000000000000000000000000000000000000000000000011100000111011000000000000000000000000000000000000000000000000000000000000000000001000000000000000000000000000000000000000000000000000000000000000010000000000000000000000000000000000000000000000011100111000000000110000000000000000000000000000000000010000010000000000000000000000000000110000000000000100000000000000000000000000000000000000000000000100000000000000000000000000000000000000000011011111000001100000001100000000000000000000000000000000000100000100000000000000000000000000111100000000000001000000000000000000000000000000000111000000000010100000000000000000000000000000000000000000111110010000000000000000000000000000000000000000000000000001000001000000000000000000100000010010000000000000010000000000010000000000000000000000000000000000000000000000000000000000000000000000000011110000100110010000000000000000000000011000000000000000000000000000000000000000000000010100001000000000000000000000000000001010000000000000000000000000000000000000000001000000000000000000000000000000001111000011100011100000000000000110000110000000000000000000000000000000000000000000000101000001000000000000000000000000000010100000000000000000000000000000000000000000110000000110000000000000000000011100100000010011100000000000000001100000000000000000000000000000000000000000000000000000100000010001000000000000000000000000010000000000000000000000000000001110000000000000000010010000000000000000011000001100000001100000000000001110000000000000000000000000000000000000000000000000000000000000000110000000000000000000000000000000000000000000000000000000000100100011000011000000011000000000000000001110000000000000010000000000001111100000000000000000000000000000000000000000000000000000000000000000001100000000000000000000000000000000000000000000000000000001011000110000010000000000000000000000000000110000000000000000000000000010010100000000000000000000000000011100000000000000000000000000000000000100000000000000000000000000000000000000000000000000000000001000001100000000000000000000000000000000001100000000000000000000000001101001000011000000000000000000000000000000000000000000000000000000011101000100000000000000000000000000000000000000000000000000000000000000000000000000000000000000000000000000000000000000000000000000011000100001001000000000000000000000000100000000000000000000000000001011110000100110000000000000000000000000000000000000000000000000000000000000000000000000000000000000000000000000000000000000000011000001100000001010000000000000000000000001000000000000000000000000000111001010011101100000000000000000000000000000000000000000000000000000000000000000000000000000000000000000000000000000000000000001001000000000000001000000000000000000000000010000000000000000000000000000100001000010000000000000000000000000000000000000000000000000000000000000000000000000000000000000000000000000000000000000000000001010000000000000000000000000000000000000000000000000000000000000000000000110000011000000000000000000000000000000000000000000000000000000000000000000000000000000000000000000000000000000000000000000000001000000000000000000000000000000000000000000000000000000000000000000000000010001000000000000000000000000000000000000000000000000000000010000000000000000000000000000000001100000000000000000000000000000000000000000000000000000000000000000000000000000000000000000000000000000000101010000000000000000000000000000000000000000000000000000001010000000000000000000000000000000011000000000000000000000000000000000000000000000000000000000000000000000000000000000000000000000000000000000111000000000000000000000000000000000000000000000000000000010100000000000000000000000000000000000000000000000000000000000000000000000000000000000000000000000000000000000000000000000000000000000000000000100000000000000000000000000000000000000000000000000000000010000000000000000000000000000000000000000000001100000000000000000000000000000000000000000000000000000000000000000000000000000000000000000000000000000000000000000000000000000000000000000000000000000000000000000000000000000000000000000000000000000011000000000000000000000000000000000000000000000000000000000000000000000000000000000000000000000000000000000000000000000000000000000000000000000000000000000000000000000000000000000000000000000000000000000000000000000000000000000000000000000000000000000000000000000000000000000000000000000000000000000000000000000000000000000000000000000000000000000000000000000000000000000000000000000000000000000000000000000000000000000011000000000000000000000000000000000000000000000000000000000000000000000000000000000000000000000000000000000000110000000000000000000000000000000000000000000000000000000000000000000000000000000000000000110000000000000000000000000000000000000000000000000000000000000000000000000000000000000000000000000000000000001100000000000000000000000000000000000000000000000000000000000000000000000000000000000000000000000000000000000000000000000010000000000000000000000000000000000000000000000000000000000000000000000000000000000000000000000000000000000000000000000000000000000000110000000000000000000000000000000000000000000000000000000000000001010000000000000000000000000000000000000000000000000000000000000000000000000000000000000000000000000000000000000000000000000000000000001010000000000000000000000000000000000000000000000000000000000000010100000000000000000000000000000000000000000000000000000000000000000000000000000000000000000000000000000000000011000000000000000000000001000000000000000000000000000000000000000000000000000000000000000010000000000000000000000000000000001100000000000000000000000000000000000000000000000000000000000000000000000001001000000001100000011000000000000000000000000000000000000000000000000000000000000000000000000000000000000000000000000000000011000000000000000000000000011000000000000000001110000000000000000000000000001100000000011000001001000000000000000000000000000000000000000000000000111000000000000110000000110000000000000000000000000000000000000000000000000000000110000000000000000101100000000000000000000000000000000000000000000010100000000000000000000000000000000000000000000000000000000000000001100000010010000000000000000000000000000000000000000000000000000000000000000000000011000000000000000000000000000000000000000000000000010000000000000000000000000000000000000000000000000000000000000000000000000011000000000000000000000000000000000000000000000000000000000000000000000000011110000000000000000000000000000000000000000000000000000000000000000000000000000000000000000000000000000000000000000000000000000000000000000000000000000000000000000000000000000000000000000000000000010010100000000000000000000000000000000000000000000000000000000000000000000000000000000110000000000000000000000000000000000000000000000000000000000000000000000000000000000000000000000000000000000000000111011000000000000000000000000000000000000000000000000000000000000000000000000000000010010000000000000000000000000000000000000000000000000000000000000000000000000000000000000000000000000000000000000000001110000000000000000000000000000000000000000000000000000000000000000000000000000000101000000000000000000000000000000000000000000000000000000000000000000000000000001110000000000000000000000000000000001000000000000000000000000000000000000000000000000000000000000000000000000000000000000100000000000000000000000000000000000000000000000000000000000000000000000000000000000000000000000000000000000000000001110000000000000000000000000000000000000000000000000000000000000000000000000000000000000000000000000000000000000000000000000000000000000001100110000000000000000000000000000000000000000000000000000000001000000000000000000000000000000001000000000000000000000000000000000000000000000000000000000000000000000000001110000000000000000000000000011001100000000000000000000000000000000000000000000000000000000000000000000000000000000000000000101000000000000000000000000000000000000000000000000000000001100000000000000000000000000000000000000001100000000000000000000000000000000000000000000000000000000000000000000000000000000000000000000000001010000110000000000000000000000000000000000000000000000000100100000000000000000000000000000000000000011000000000000100000000000000000000000000000000000000000000000000000000000000000000000000000000000001000010010000000000000000000000000000000000000000000000001010000000000000000000000000000000000000000000000000000010100000000000000000000000000000000000000000000000000000000000000000000000000000000000000000011000000000000000000000000000000000000000001000000001000000000000000000000000000000000000000000000000000000101000000000000000000000000000000000000000000000000000000000000000000000000001111000000000000000000000000000000000000000000000000000000101000000000000000000000000000000000000000000000000000000000000000100000000000000000000000000000000000000000000000000000000000000000000000000100010000000000000000000000000110000000000000000000000000000110000000000000000000000000000000000000000000000000000000000000000000000000000000011000000000000000000000000000000000000000000000001000000010001010000000000000000000000010100000000000000000000000000000000000000000000000000000000000001101110000000000000000000000000000000000000000000110000000000000000000000000000000000000000000000101000000000011000001000000000000000000010000000000000000000000000000000000000000000000000000000000000001011110000000000000000000000000000000000000000000000000000000000000000000000000000000000000000010010000000010110110011000000000000000000000000000000000000000000000000000000000000000000000000000000000010000010000000000000000000000000000000000000000000000000000000000000000000000000000000000000000011000000011000000000011000000000000000000000000000000000000000000000000000000000000000000000000000000000011001100000000000000000000000000000000000000000000000000000000000000000000000000000000000000000000000011010001000000000000000001000000000000000000000000000000000000000000000000000000000000000000000001110000000000000000000000000000000000000000000000000000000000001010000000000001110000000000000000000000100000000000000000000001000100000000000000000000000000000000000000000000000000000000000000000000000000001000000000000000000000000000000000000000000000000000000010100000000000000000000000000000000000001010100000000000000000010001000011000000000000001100000000000000000000000000000000000000000000000000001111000000000000000000000000000000000000000000000000000000100000000000010000010000000000000000000001101011101000000000000111100000110000000011000010100000000000000000000000000000000000000000000000000011001000000000000000000000000000000000000000000000000000001100000000000100000100000000000000000000000111100000000000000100000000000000000000101100111000000000000000000000000000000000000000000000000111100100000000000000000000000000000100000000000000000000000011000000000001000010100000000000000000000000000000111010000011000000000000000000000000000000000000001000000000000000000000000000000000001100001111000000000000000000000000000001000000000000000000000000110100000110000000010000000000000000000000000010001011100000000000000000000000000001001000000000000101000000000000000000000000000011000000100000001000000000000000000000000000010000000000000000001110001001000001100000000110000000000000000000000000110000010000001111010000000000000000010100000000000001010000000000000000000000000001101000010000001101000100000000000000000000000000000000000000000010000010010000000000000010011000000000000000000000010000000001110000110000000000000000000010000000000000001000000000000000000000000000010010000010000001101010100000000000000000000000000000000000000000000100001000000000000000111110000000000000000000000110000001000100000000110000001100000000000000100000000000000000000000000000000000001011100000000000100001001000000000000000000000000000000000000000000101000000000000000000011110100111000000000110000000100001000001100000001010000011000000000000000100000000000000000000000000000000001010100000000010101000001100000000000000000000000000000000000000000000111010000001100000000000001101000000000010010000000000010000011000000010100001100111000000110010000000000000000000000000000000000011110000000000010100000000000000000000000000000000000000000000000100000010000011011000000001000101100000000000100100100000110001000110000000011000000000110000000010000000000000000000000000000000000000000000000000000000000000000000000000000000000000000000000000010011000000011001100100000000011010100000000000000110001011001100101110111000000000000011010010000000000000000000000000000000000000000000000000000000000000000000000000000000000000000000000000000000000001000000010010001000000000000111001000000000000000000001110011000000011100000000000000011011000000000000000000000000001000000000000000000000000000000000000000000000000000000000000000000000000000000001110010000101000000000000000000000000000000000000000000000000000000000000000010000000000110110000000000000000000000000101000000000000000000000000000000000000000000000000000000000000000000000000000000000000100000000010000000000000000010000000000000000000000000000000000000000000100000000000010000000000000000000000000001010000000000000000000000000000000000000000000000000000000000000000000000000000000000000000000000011000000000000000100000000000000000000000000000001100000000000000000000000000000000000000000000000000001000000000000000000000000000000000000000000000000000000000000000000000000000000000000000000000000000000000000000000000000000000000001000000000000011000000000000000000000000000000000000000000000000000000000000000000000000000000000000000000000000000000000000110000000000000000000000000000000000000000000000000000000000000000000000000010000000000000000000000000000000000000000000000000000000000000000000000000000000000000000000000000010000000000000000000000001100000000000000000000000000000000000110000000000000000000000000000000000000100000000000000000000000000000000000000000000000000000000000000000000000000000000000000000000000000100000000000000000000000000000000000000000000000000000111000001100000000000000011000000000000000000000000000000000000000000000000000000000000000000000000000000000000000000000000000000000000000000000001000000000000000000000000000000000000000000000000000000000000000000000000000001001000000001100000000000000000000000000000000000000000000000000000000000000000000000000000000000000000000000000000000000000000000000000000000000000000000000000000000000000000000000000000000000000000010010000000101000000000000000000000000000000000000000000000000000000000000000000000000000000000000000000000000000000000000000000000000000000000000000000000000000000000000000000000000000000000000000000011000000000100000000000000000000000000000000000000000000000000000000000000000000000000000000000000000000000000000000000000000000000000000000000000000001100000000000000000000000000000000000000000000000000000000000000000000000000000000000000000000000000000000000000000000000000000000000000000000000000000000000000000000000000000000000000000110000000000100100000000000000000000000000000000000000000000000000000000000000000000100000000000000000000000000000000000000000000000000000000000000000000000000000000000000000000000000000000000000000001100000000000110000000000000000000000000000000000000000000000000000000000000000000010100000000000001100000000000000000000000000000000000000000000000000000000000000000000000000000000000000000000000000000000000000000000000000000000000000000000000000000000000000000000000000000000000001010000000000000110000000000000000000000000000000000000000000000000000000000000000000000000000000000000000000000000000000000000000000000000000000000000000000000000000000000000000000000000000000000000101000000000000000010000000000000000000000000000000000000000000000000000000000000000000000000000000000000000000000000000000000000000000000000000000000000000000000000000000000000000000000000000000000000100000000000000000000000000000000000000000000000000000000000000000000000000000000000000000000000000010000000000000000000000000000000000000000000000000000000000000000000000000000000000000000000000000000000000000000000000001110000000000000000000000000000000000000000000000000000000000000000000000000000100000000000000000000000000000000000000000000000000000000000000000000000000000000000000000000000000000000000000000000000111100000000000000000000000000000000000000000000000000000000000000000000000000001000000000000000000000000000001000000000000000000000000000000000000000000000000000000000000000000000000000000000000000110100100000000000000000000000000000000000000000000000000000000000000000000000000000000000000000000000000000000101000000000000000000000000000000000000000000000000000000000000000000000000000000000000001101101000000000000000000000000000000000000000000000000000000000000000000000000000000000000000000000000000000001010000000000000000000000000000000000000000000000000000000000000000000000000000000000000001000010000000000000000000000000000000000000000000000000000000000000000000000000000000000000000000000000000000001000000000000000000000000000000000000000000000000000000000000000000000000000000000000000010010000000000000000000000000000000000000000000000000000000000000000000000000011100000000000000000000000000000000000000000000000000000000000000000000000000110000000000000000000000000000000000000000000011100000000000000000000000000000000000000000000000000000000000000000000000000000000000000000000000000000000000000000000000000011000000000000000000000000001100000000000000000000000000000000000000000000000000000000000000000000000000000000000000000000000000000000000000000000000000000000000000000000000000000000000000000000000000110000111000000000000000000000000000000000000000000000000000000000000000000000000000000000000000000000000000000000000000000000000000000000000000000000000000000110000000000000000000000011000000000000000000000000000000000000000000000000000000000000000000000000000000000000000000000000000000000000000000000000000000000000000000000000000000000000000000000000000001010000000000000000000000110000000000000000000000000000000000000000000000000000000000000000000000000000000000000000000000000000000000000000000000000000000000000000000000000000000000000000000000000000001100000000000000000000000000000000000000000000000000000000000000000000000000000000000000000000000000000000000000000000000000000000000000000000000000000000000000000000000000000000000000000000000000000000000000000000000000000000000000000000000000000000000000000000000000000000000000000000000000000000000000000000000000000000000000000000000000000000000000000000000000000000000000000