P1
200 200
0000000000000000000000000000000000000000000000000000000000000000000000000000000000000000000000000000000000000000100000000000000000000000000000000000000000000000000000000000000000000000010000000000000000000000000000000000000000000000000000000000000000000000000000000000000000000000000000000000000000000000010000010100000000000000000000000000000000000000000000000000000000000000000000001010000000000000000000000000000000000000000000000000000000000000000000000000000000000000000000000000000000000000000000001010000100100000000100000000000000000000000000000000000000000000000000000000000010100000000000000000000000000000000000000000000000000000000000000000000000000000000000000000000000000000000000000000000011000000110000000010100000000000000000000000000000000000100000000000000000000000010000000000000000000000000000000000000000000000000000000000000000000000000000000000000000000000000000000000000000000000000000000000000000101000000000000000000000000000011100010100000000000000000000000000011100000000000000000000000000000000000000000000000000000000000000000000000000000000000000011000000000000000000000000000000000000000000100000000000000000000000000000000000100100000000000000000000000000000000000000000000000000000000000000000000000000000000000000000000000000000000000000000000110000000000000000000000000000000000000000000000000000000000000000000000000000000110000000000000000000000000000000000000000000000000000000000000000000000000000000000000000000000000000000000000000000000000000000000000000000000000000000000001100000001100000000000000000000000000000000000000000001100000000000000000000000000000000000000000000000000000000000000000000000000000000000000000000000000000000000000000000000000000000000000000000000100100000100100000000000000000000000000000000000000000011000000000000000000000000000000101000000000000000000000000000000000000000000000000000000000000000000000000000000000000000000000000000000000000000110000000110000000000000000000000000000000000000000000000000000000000000000000000000010010000000000000000000000000000000000000000000000000000000000000000000000000000000000000000000000000000000000000000000000000000000000000000000000000000000000000000000000000000000000000000000111000000100000011000000000000000000000000000000000000000000000000000000000000000000000000000000000000000000000000000000000000000100000000000000000000000000000000000000000000000000000000000000000000010001000001001000110000000000000000000000000000000000000000000000000000000000000000000000100000000000000000000000000000000000000010100000000000000000000000000000000000000000000000000000000000000000001000110000000010000000000000000000000000000000000000000000000000000000000000000000000000001000000000000000000000000000000000000000101000000000000000000000000000000000000000000000000000000011000000000011000000000001100000000000000000000000000000000000000000000000000110000000000000000000000010000000000000000000000000000000000000000100000000000000000000000000000000000000000000000000000001001000000000011000000000000000000000000000000000000000000000000000000000000010010000000000000000000000000000000000000000000000000000000000000000000000000000000000000000000000000000000000000000000000010100000000001100000000000000000000000000000000000000000000000000000000000000101000000000000000000011100011100000000000000000000000000000000000000000000000000000000000000000000000000000000000000000000010000000000000000000000011110000000000000000000000000000000000000000000000000100000000000000000000000000000000000000000000000000000000000000000000000000000000000000000000000000000000000000000000000000000000000000000000001100111000000000000000000000000000000000000000000000000000000000000000000000000000000000000000000000000000000000000000000000000000000000000000000001000000000000000000000011000000000000000000000000000010010000000000000000000000000000000000000000000000000000000000000000000000000000000000000000000000000000000000000000000000000000000000000000000000001000000000000000000000110000000000000000000000000000110011000000000000000000000000000000000000000000000000000000000000000000000000000000000000000000000000000000000000000000000000000000000000000001100111000000000000000000000000000000000000000000000000001100100000000000000000000000000000000000000000000000000000000000000000000000000000000000000000000000000000000000000000000000000000000000000000110000000000000000000000000000000000000100000000000000000001110000000000000000000000000000000000000000000000000000000000000000000000000000000000000100000000000000000000000000000000000000000000000000000110000000000000000000000000000000000010100000000000000000001000000000000000000000000000000000000000000000000000000000000000000000000000001100000110110000000000000000000000000000000000000000000000000000000000000000000000000000000000000001001000000000000000000000000000000000000000000000000000000110000000000000000000000000000000000000000100111000111110000000000000000000000000000000000000000000000000000000000000000000000000000000000000001000000000000000000000000000000000000000000000000000000010010000000000000000000000000000000000000000111110101001000000000000000000000000000000000000000000000000000000000000000000000000000000000000000000001100000000000000000000000000000000000000100000000000100100000000000000000000000000000000000000001100000111100000000000000000000000000000000000000000000000000000000000000000000000000000000000000001000000100000000000000000000000000000000001000000000000000110000000000000000000000000000000000000000000111101000000000000000000000000000000000000000000000000000000000000110000000000000000000000000000011111010000000000000000000000000000000000010001000000000000000000000000000000000000000000000000000000001000000000000000000000000000000000001000000000000000000000000000010100001100000000000000000000000011100000000000100000000000000000000000010001010001110010000000000000000000000000000000000000000001100001110000000000000000000000000000000101000000000000000000000000000010000011000000000000000000000000001000000000001100000000000000000000000101000100100100100000000000000000000000000000000000000000011000011100000000000000000000000000000001010000000000000000000000000000000000000000000000000000000000000000000000000101100000000000000000000001000100001000010000000000011000000000000000000000000000000000000000000000000000000000000000000000001000000000000000000110000000000000000000000000000000000000000000000000000000001100000000000000000000001110001100110000000000001001000000000000000000000000000000000000000000000000110000000000000000000000000000000000000001010000000000000000000000000000000000000000000000000000000000000000010000000000000001001101111000000000000010100000000000000000000000000000000000000000000000000110000000000000000000000000000000000000001000000000000000000000000000000000000000000000000000000001100000001010000000000000001100000000000000000000010000000000000000000000000000000000000000000000000001100100000000000000000000000000000000000000000000000000000000000000000000001000000000000000000100010000000010010000000000000000000000000000000000000000000000000000000000000000000000000000000000000000011001000000000000000000000000000000000000000000010000000000000000000000000101000000000000000010011000000000011000000000000000000000000000000000000000000000000000000000000000001000000000000000000000000010000000000000000000000000000000000000000000001010000000000000000000000001010000000000001000100011000000000000000000000000000000000000000000000000000011000000000000000000000010000000000000000000000011000001110000000000000000000000000000000000100010100000000000000000000000001000000000000010001100100000000000000000000000000000000000000000000000000000110000000000000000000000100000000000000000001000010000000000000000000000000000000000000000010100010000000000000000000000000000000001110000100001110000000000000001100000000000000000000000000000000000000000000000000000000000000000000000000000000110000010000000000000000000000000000000000000000101000000000000000000000000000000000000000000000000001000000000000000010100000000000000000000000000010000000000000000000000000000000000000000000000000010100001011000000000000000000000000000000000000000100000000000000000000000000000000000000000000000000000000000000000000010000000000000000000000000001010000000000000000000000000000000000000000000000001110000001100000000000000000000000000000000000000000000000000000000000000000000000000000000000000000000000000000000000000000000000000000000000000000010010000000000000000000000000000000000000000000000001010000000110000000000000000000000000000000001100000001100000000000000000000000000000000000000000000000000000000000000000000000000000000000000011000011000000000000000000000000000000000000000000000000001100000000111000000000000000000000000000000011000000100100000000000000000000000000000000000000000000000000000000000000000000000000000000000000110000000000000000000000000000000000000000000000000000000001000000000110000000000000000000000000000000000000000110000000000000000000000000000000000000000000000000011000000000000000000000000000000000000000000000000000000000000000000000000000000000000000000000000000000000100000000000000000000000000000000000000000000000000000000011000000000000000000000000000000000110000000000000000000000000000000010000000000000000000000000000000000000000000000000000000000000000000000110000000000000000000000000000000000000000000000000000000001001000000000000000000000000000000000000000000000000000000000000000000100000000000000000000000000000000000000000000000000000000000000000000011000000000000000000000000000000000000000011000000000001110001100000000000000000000000000000000000000000000000001000000011000000001000000000000000000000000000000000000000000000000000000000000000000001000000000000000000000000000000001100000000110000000000100100000000000000000000000000000000000000000000000000000010000000000000000000000000000000000000000000000000000000000000000000000000000000000000110000000000000000000000000000000001011100000000000000001000100000000000000000000000000000000000000000000000000000100000001001001110001110000000000000000000000000000000000000000000000000000000000000001000000000000000000000000000000000110111000000000000000100000000000000000000000000000000000000000000000000000000000000000000001000000000000000000000000000000000000000000000000000000000000000000000000000000000000000000000000000000001111100001000000000111000110001100000000000000000000000000000000000000000000000000000000000010010000010000000000000000000000000000110000000000000000000000000000000000000000000000000000110000000000000000011011100000000101110000010000010000000000000000000000000000000000000000000000000000000000011000000100000000000000110000000000001100000000000000000000000000000000000000000000000000001100000000000000000010111000000010000000000010000100000000000000000000000000000000000000000000000000000000000000000001000000000000001100000000000000000000000000000000000000000000000000000000000000000000000000000000000001100000000001100000000001000001000000000000000000000000000000000000000000000000000000000000000000000000000000000000000000000000000000000000000000000000000000000000000000000000000000000000000000000000000000000000001100000001100011000000000000000000000000000000000000000000000000000000000000001000000000000000000000000000000000000000000000000000000000000000000000000000000001110000000000000000000000000000000000000001000000100000000000000000000000000000000000000000000000000000000000000000000110000000000000000000000110000011000000000000000000110000000000000000011000000000000000000000000000000000000000000000000000000000000100010000000000000000000000000000000000000000000000000000000000000011100000000000000001100010010000110000000000000000001010000000000000000101000000000000000000000000000000000000000000000000000000000001001000000000000000000000000000000000000000000000000000000000000000100000000000000000011000010100000000000000000000000010000000000000000000100000000000000000000000000000000000000000000000000000000000001110000000000000000000000000000000000000000000011000000000000000111000000000000000000000000010000000000000000000000000000000000000000000000000000000000000000000000000000000000000000000000000000000000000000000000000000000000000000000000000000000001001000000000000000000000000000000000000000000000000000000000000000000000000000000000000000000000000000000000000000000000000000000000000000000000000000000000000000000000000000000000000000000000000000010010000000000000011000000000000000000000000000000000000000000000000110000000000000000000000000000000000000000000000000000000000000000000000000000000000000000000000000000000000000000000000110000000000011000000000000000100100100000000000000000000000000000000000000000001100000000000000000000000000000000000000000000000001100000111000000000000000000000000000000000000000000000000000000000001100000000000000000000000000000110001100000000000000000000000000000000000000000000000000000000000000000000000000001100000000000000011000000000000000000000000000000000000000000000000000000000000000000000000000000000000000000000000100100010100000000000000000000000000000000000000000000000100000000000000000000000000100100000000000000000000000000000000000000000000000000000000000000000000000000000000000000000000000000000000000000011100000101100000000000000000000000000000000000000000000111100000000000000000000000000110000000000000000000000000000000000000000000000000000000000000000000000000000000000000000000000000000000000000001000000101010000000000000000000100000000000000000000000010001000000000000000000000000000000000000000000000000000000000000000000000000000000000000000000000000000000000000000000000000000000000000000000010000000110010000000000000000010100000000000000000000000001000000000000000000000000000000000000000000000000000000000000001000000000000000000000000000000000000000000000000000000000000000000000000000000010000000110100000000000000000101000000000000000000000001110000000000000000000000000000000000000000000000000000000000000010000000000000000000000000000000000000000000000000000000000110000000000000000000010011001000100000000000000000100000000000000000000000000110000000000000000000000000000000000000000000000000000000000000100000000110000000000000000000000000000000000000000000000010010000000000000000000000000001000000000000000000000000000000000000000000000000101110000000000000110000000000000000000000000000000000000000000000000010010000000000000000000000000000000000000000000000011000000000000000000010000000000000000000000000000000000001000000000000000000000101100000000000010010000000000000000000000000000000000000110000000000101000000000000000000000000000000000000000000000000000000000000000000000100000000011010000000000000000000001111100000000000000000100110110000000000011000000000000000000000000000000000000000010000000000100000000000000000000000000000000000000000000000000000000000000000000001000000011000110000000000000000000010001000000000000000011000000100011100000000000000000000000000000000000000000000000000000000000000010000000000000000000000000000000000000000000000000000000000000000000000000000011000000000000110000000011110000000000000001000100010000000000000000000000000000000000000000000000000000000000000000000000110000000000000000000000000000000000000000000000000000000000000000000000000001100000000000010010000000100000000000000000001101101000000000000000000000000000000000000000000000000000000000000110000000010100000000000000000000000000000000000000000000000000000000000000000000000000000000000000000011000000000111011000000000000010101000000000000000000000000000000000000000000000000000000000000001100000000001010000000000000000000000000000000000000000000000000000000000000000011100000000000000000000000000000010000100000000000000000000000000000000000000000000000000000000000001100000000000000000000000000000110110000000000000001000000000000000000000000000000000000000111000000000000000000000000000000000000001100000000000000000000101000000000000000000000000000000000000000000011000000000000000000000001110000101100000000000000101000000000000000000000000000000000111010001000000000000000000000000000000000000011110100001000000000000010000000000000000000000000000000000000000000000000000000000000000001000010000010100000000000000100000000000000000000000000000000010110000001000000000000000000000000000000000000000010000010000000000010100000000000000000000000000000000000000000000000000000000000000000000000110000101000000000000000000000000000000000000000000000000001000010010000000000000000000000000000000000000000000000100000000000010000000000000000000000000000000000000000000000000000000000000000000000000010001110000000000000000000000000000000000000000000000000001110001100000000000000000000000000000000000110000000000000000000000000000000000000000000000000000000000000000000000000000000000000000001100101100000000000000000000000000000000000000000000000000000010100000000001000000000000000000000000000000010010001100000000000000000000000000011000000000000000000000000000000000000000000000000000000101110000000000000000000000000000000000000000000000000000000000000000000001101000000000000000000000000000000100100100100000000000000000000000000110000000000000000000000000000000000000000000000000000000000000000000000000000000000000000000000000000000000000000000010000000000011111000000000000000000000000000000110000110000000000000000000000000000000000000000000000000000000000000000000000000000000000000000000000000000000000000000000000000000000000000000000000000110100000001001010000000000000000000000000000000000000000000000000000000000000000000000000000000000000000000000000000000000000000000000000000000000000000000000000000000000000000000000000000000000000000010000000110000110000000000000000000000000000000000000000000000000000000000110000000000000000000000000000000000000000000000000000000000000000000000000000000000000000000000000000001000000000000000000000000000000000001100000000000000000000000000000000000000000000000000000000010010000000000000000000000000000000000000000000000000000000000000000000000000000000000000000000000000000101000000000000000000000001000001000100000100000000000000000000000010000000000000000000000000000100100000000000000000000000000000000000000000000000000000000000000000000000000000000000000000000000000001010000000000000000000000101000110001000011000000000000000000000000100000000000000000000000000000110000000000000000000000000000000000000000000000000000000000000000000000000000000000000000000000000000001000000000000000000001101010001101000001000000000000000000000000001000000000000000000000000000000000000000000000000000000000000000000000000000000010000000000000000000000000000000000000000000000000000000000000000000000000000000000101000000100000000000000000000000000000000000000000000000000000000000000000000000000000000000000000000000000000000001110000000000000000000000000000000000000000000000000000000000000000000000000100110011100000000000000000000000000000000000000000000000000000000000001100000000000000000000000000000000000000000000000000111110000000000000000000000000000000000000000000000000100000000000000000000000111100100000000110000000000000000000000000000000000000000000000000000100100000000000000000000000000000000000000000000000000000110000000000000000000000000000000000000000000000001000000000000000000000000000000010000001100111000000000000000000000000000000000000000000000000110000000000000000000000000000000000000000000000000010001110000000000110000000000000001000000000000000000010000000000000000000000000000011000000000101110000000000000000000000000000000000000000000000000000000000000000000000000000000000000000011100000000011010000000000011000000000000000010000000000000000000000000000000000000000000000001010000000010010000000000000000000000000000000000000000000000000000000000000000000000000000000000000000001001000000000110000000000000001000000000000000100000000000000000000000000000000000000000000000110000000001100101011000000000000000000000000000000000000000000000000000000000000000000000000000000000000000000100000000000000001100000000000000000000000000000000000000000000000000000000000000000000001100000000001011100010000000000000000000000000000000000000000000000000000000000000000000000000000000000001000001000000000000000011000000000000000000111000111000000000000000000000000000000000000000000000000000000001000000100000000000000001000000000000000000000000000000000000000000000000010000000000000000001000010000000011000000000000000000001100000000000000000000000000000000000000000000000000000000000000000000001000010000000000000000101000000000000000000000000000000000000000000000000100000000000000000000100000000000110000000000000000001001000000001000000000000000000000000000000000000000000000000000000000000010001000000000000000001001000000000000000000000000000000000000000000000001000000000000000000000000000000000000000000000000000111001000000010000000000000000000000000000000000000000000000000000000000000011100000000000000000001100000000001010000000000000000000000000000000000000000000000000000000000000000000000000000000000000000000110000000100000000000000000000000000000000000000000000000000000000000000000000000000000000000000000000000010100000000000000000000000000000000000000000000000000000000000000000110000000000000000000011100000000000000000000000000000000000000000000000000000000000000000000000000000000000000000000000000000000000100000000000000000000000000000000000000000000000000000000000000000001100000000000000000001000001000000000000000000000000000000000000000000000000000000000000000000000000000001110000000000000000000000000000000000000000011100000000000000000000000000000000000000000000000100111000000000000000011001100000000000000000000000000000000001100000000000000000000000000000000000000000000000000000000000000000000110001110000000000000000000000000000000000000000000000000000000000001101101000000000000000100100000000000000000000000000000000000011000000000000000000000000000000000000000010000010000000000000000000011100011000000000000000100000000000000000000000000000000000000000000000000110000000000000000111000000000000000000000000000000000000000000000000000000000000000000000000000000100000100000000000000000000111000110000000000000001000000000000000000000000000000000111000000000000000000000000000000000000000000000000000000000000000000000000000000000000000000000000000000000000000001000001000000000000000000100100011000000000000000010000000000010000000000000000000000000000000000000000000111000000000000000000000000000000000000000000000000000000000000000000011000000000000000000000000000000000000000000000010100010000000000000000000000000000001010000000000000000000000000000100000000000001010000000000000000000000000000000000000000000000100000000000000110000110000000000000000000000000000000000000000000000101000000000000001100000000000000000010100000000000000000000000000001100000000000000000000110000000000000000011001110000000000000100000000000000001100000000000000000000000000000000000000000000000000000101101000000000110100000000000000000010000000000000000000000000001111000000000000001000010010000000000000000101011100000000000010011000000000011000000000000000000000000000000000000000000000000000000000000100000000011000000000000000000000000000000000000000000000001001100000000000000010000011000000000000000000100000000000000001000110000000000101000000000000000000000000000000000000000000000000000000000000000000000000000000000000000000000000000000000000000000000100010110000000000000000000000000000000000000000000000000000000001000000000000000010000000000000000000000000011100000000000000000000000000000010000000000000000000000000000000000000000000000000000000000000100000000000000000000000000000000000000000000000000000000000011100100000000001100011000000000000000000000000000000000000000000000000000001000100001100000000000000000000000000000000000000000000000000010001000000000000000000000000000000000000000000000000000000000111111100000000000001001000000000000000000000000100000000000000000000000000010011100011000000000000000000000000000000000000000000000000100000100110000000000000000000000000000000000000000000000000000000000001000000000000001010000000000000000000000001000000000000000000000000000011111000000000001110000000000000000000000000000000000000000000010001111000000000000000000000000000000000000000000000000000000001001000000000000001000000000000000000000000010000000000000000000000000000000000000000000000100000000000000000000000000000000000000000111000100001000000000000000000000000000000000000000000000000000000001010000000000000000000000000000000000000000000000000000000000000000000000000000000000000111000000000000000000000000000000000000000000000000000110000000000000000000000000000000000000000000000000000000001000000000000000000000000000000000000000000000000000000000000000000000100101000000001010000000000000000000000000000000000000000000000010000001000000000000000000000000001100000000000000000000000000000000000000000000000000000000000000000000000000000000000000000000000000001000011110000010100000000000000000000000000000000000000000000001010000000000000000000000000000000011000000000000000000000000000000000000000000000000000000000000000000000000000000000000000000000000000010000001110000111000000000000000000000000000000000000000000000010100000000000000000000000000000000000000000000000000000000000000000000000000000000000000000000000000000000000000000000000000000000000000010001000010000000000000000000000000000000000000000000000000000010000000000000000000000000000000000000000000001100000000000000000000000000000000000000000000000000000000000000000000000000000000000000000000110111000000000000000000000000000000000000000000000000000000000000000000000000000000000000000000000000000011000000000000000000000000000000000000000000000000000000000000000000000000000000000000000000011010100000000000000000000000000000000000000000000000000000000000000000000000000000000000000000000000000000000000000000000000000000000000000000000000000000000000000000000000000000000000000000000000000110110000000000000000000000000000000000000000000000000000000000000000000000000000000000000000000000000000000000000000000000000011000000000000000000000000000000000000000000000000000000000000000000000000101000000000000000000000000000000000000000000000000000000000000000000000000000000000000000000000000000000000000000000000000000110000000000000000000000000000000000000000000000000000000000000000000000000100000000000000000000000000000000000000000000000000000000000000000000000000000000000000000000000000000000000000000000000000000000000000000000000000000000000010000000000000000000000000000000000000000000000000000000000000000000000000000000000000000000000000000000000000000000000000000000000000110000000000000000000000000000000000000000000000000000000000000001010000000000000000000000000000000000000000000000000000000000000000000000000000000000000000000000000000000000000000000000000000000000001010000000000000000000000000000000000000000000000000000000000000010100000000000000000000000000000000000000000000000000000000000000000000000000000000000000000000000000000000000011000000000000000000000001000000000000000000000000000000000000000000000000000000000000000010000000000000000000000000000000001100000000000000000000000000000000000000000000000000000000000000000000000001001000000001100000011000000000000000000000000000000000000000000000000000000000000000000000000000000000000000000000000000000011000000000000000000000000011000000000000000000000000000000000000000000000001100000000011000001001000000000000000000000000000000000000000000000000111000000000000110000000110000000000000000000000000000000000000000000000000000000110000000000000000000000000000000000000000000000000000000000000000010100000000000000000000000000000000000000000000000000000000000000001100000010010000000000000000000000000000000000000000000000000000000000000000000000000001100000000000000000000000000000000000000000000010000000000000000000000000000000000000000000000000000000000000000000000000011000000000000000000000000000000000000000000000000000000000000000000000000000110000000000000000000000000000000000000000000000000000000000000000000000000000000000000000000000000000000000000000000000000000000000000000000000000000000000000000000000000000000000000000000000000000000000000000000000000000000000000000000000000000000000000000000000000000000000000000110000000000000000000000000000000000000000000000000000000000000000000000000000000000000000000000000000000000000000000000010000000000000000000000000000000000000000000000000000000000000000000000000000010010000000000000000000000000000000000000000000000000000000000000000000000000000000000000000000000000000000000000000000000010000000000000000000000000000000000000000000000000000000000000000000000000000101000000000000000000000000000000000000000000000000000000000000000000000000000001110000000000000000000000000000000000000000000000000000000000000000000000000000000000000000000000000000000000000000000000100000000000000000000000000000000000000000000000000000000000000000000000000000000000000000000000000000000000000000000000100100000000000000000000000000000000000000000000000000000000000000000000000000000000000000000000000000000000000000000000000000000000001100110000000000000000000000000000000000000000000000000000000000000001000000000000000000000000001000000000000000000000000000000000000000000000000000000000000000000000000001110000000000000000000000000011001100000000000000000000000000000000000000000000000000000000000011010000000000000000000000000101000000000000000000000000000000000000000000000000000000001100000000000000000000000000000000000000001100000000000000000000000000000000000000000000000000000000000000001100000000000000000000000000000001010000110000000000000000000000000000000000000000000000000100100000000000000000000011011000000000000011000000000000100000000000000000000000000000000000000000000000000011001100000000000000000000000000001000010010000000000000000000000000000000000000000000000001010000000000000000000000100010000000000000000000000000010100000000000000000000000000000000000000000000000000000000000000000000000001111100000000000011000000000000000000000000000000000000000001000000001000000000000000000011000111000000000000000000000000000101000000000000000000000000000000000000000000000000000000000000000000000000111110100000000000000000000000000000000000000000000000000000101000000000000000000000000001110000100000000000000000000000000000100000000000000000000000000000000000000000000000000000000000000000000000100000001000000000000000000000000110000000000000000000000000000110000000000000000000000000110000101000000000000000000000000000000000000000000000011000000000000000000000000000000000000000000000011000001011111100000000000000000000000010100000000000000000000000000000000000000000000000000000011100001010000000000000000000000000000000000000000000000110000000000000000000000000000000000000000000001001000011100110000000000000000000000000010000000000000000000000000000000000000000000000000000000010001001010000000000000000000000000000000000000000000000000000000000000000000000000000000000000000000010100000000000000000000000000000000000000000000000000000000000000000000000000000000000000000000000011010000000010000000000000000000000000000000000000000000000000000000000000000000000000000000000000000010000000100000000000000000000000000000000000000000000000000000000000000000000000000000000000000000000100000000100110000000000000000000000000000000000000000000000000000110100000000000000000000000000000000000110110000000000000000000000000000000000000000000000000000000000000000000000000000000000000000000000000010000010000000000000000000000000000000000000000000000000110001000000000000000000000000000000000010000000000000000000000000000000000000000000000000000000000000000000000000000000000000000000000000000000010100110000000000000000000000000000000000000000000000010001011000000000000000000000000000000001000010000000000000000000001100000011000000000000001100000000000000000000000000000000000000000000000000000110111000000000000000000000000000000000000000000001110011100111000000010000000000000000000000001011000000000110000000000011000000110000000000000100100000000000000000000000000000000000000000000000000000000100000000000000000000000000000000000000000001100111010001100000000100000000000000000000000000000000000010110000000000000001000000000000000000101000000000000000000000000000000000000000000000000000000000000000000000000000000000000100000000000000011101011000010000000001000000000000000000000000011100000000100100000000000000101000000000000000000100000000001000000000000000000000000000000000000000000000000000000000000000000000000001000000000000000110000001000000000110000000001000000000000000000100100000000101110000000000001001000000000000000000000000000101000000000000000000000000000000000000000000000000010000000000000000000000010000000000000011000001100000000001100000000101000110000000000000101000000000000000000000000001100000000010011100000000000001010000000000000000000000000000000000010000000010101011000000000000000000000000000000000000110000000000000000000000000010011110111000000000000100000000000000000000000000000000000001100000000000000000001000000000000000000000000000000000001110000011010010000000000000000000000000000000000000001000000000000000000000000000010001111110000000000000000000000000000000000000000000000000100100000000000000000000000000000000000000000000000000000001000000110100000000000000000000000000000000000000000000000000001000000000000000000000000000100000000110000000000000000000000000000000000000000111100000000000000000000000000000000000000000000000000000010001100000010000000000000000000000000000000000000000000000000000000000000000000000000001100000000010010000000000000010000000000000000000000010001000000000000000000000000000000000000000000000000000000010001111110000100000000000000000000000000000000000000000000000000000000000000000000000111011000000100100000000000001010011100000000000000000011100000000000000000000000000000000000000000000000000000000100001000011110000000000000000000000000000000000000000001110000000000000000000000000001100100000000110000000000000010100000000000000000000000101000110000000000000000000000000000000000000000000000000000010000000010000000000000000000000000000000000000000000001100000111000000000000110000000011000000000000000000000000010000000000000000000000000000011100000000000000000001000000000000000000000000000000000000000000000000000000000000000000000000000000000000000001101000000000011000001100000000000000000000000000000000000000000000000000000000000000000011000000000000000000101000000000000000000000000000000000000000000000000000000000000000000000000000000000000000001000110000000110000000000000000000000000000000000000000110000011000000000000000000100001000000000000000000001010000000000000000000000000000000000000000000000000000000000000000000000000000000000000000000000100000000000000000000000000000000000000000000000001100001001000000000000000000000000000000000000000000001000000000000000000000000000000000000000000000000000000000000000000000000000000000000000000000001000000000000000000000000000000000001000000000000000000010100000000000000000000000000000000000000000000000000000000000000000000000000000000000000000000000000000110000000000000000000000000000000000010000000000000000000000000000000000000010000000000000000000010000000000000000000000000000000000000000000000000000000000000000000000000000010000000000000000000000001100000000000000000000000000000000000001000000000000000000000000000000000000100000000000000000000000000000000000000000000000000000000000000000000000000000000000000000000000000100000000000000000000000000000000000000000000000000000111000000100000000000000011000000000000000000000000000000100000000000000000000000000000000000000000000000000000000000000000000000000000000000000001000000000000000000000000000000000000000000000000000000000000000000000000000001001000000001100000000000000000011000000000000000000000000000000000000000000000000000000000000000000000000000000000000000000000000000000000000000000000000000000000000000000000000000000000000000000000010010000000101000000000000000000101000000000000000000000000000000000000000000000000000000000000000000000000000000000000000000000000000000000000000000000000000000000000000000000000000000000000000000000011000000000100000000000000000000000000000000000000000000000000000000000000000000000000000000000000000000000000000000000000000000000000000000000000000001100000000000000000000000000000000000000000000000000000000000000000000000000000000000000000000000000000000000000000000000000000000000000000000000000000000000000000000000000000000000000000110000000000100100000000000000000000000000000000000000000000000000000000000000000000100000000000000000000000000000000000000000000000000000000000000000000000000000000000000000000000000000000000000000001100000000000110000000000000000000000000000000000000000000000000000000000000000000010100000000000000000000000000000000000000000000000000000000000000000000000000000000000000000000000000000000000000000000000000000000000000000000000000000000000000000000000000000000000000000000000000001010000000000000000000000000000000000000000000000000000000000000000000000000000000000000000000000000000000000000000000000000000000000000000000000000000000000000000000000000000000000000000000000000000101000000000000000000000000000000000000000000000000000000000000000000000000000000000000000000000000000000000000000000000000000000000000000000000000000000000000000000000000000000000000000000000000000000100000000000000000000000110000000000000000000000000000000000000000000000000000000000000000000000000010000000000000000000000000000000000000000000000000000000000000000000000000000000000000000000000000000000000000000000000000001100000000000000000000000000000000000000000000000000000000000000000000000000100000000000000000000000000000000000000000000000000000000000000000000000000000000000000000000000000000000000000000000000000000000000000000000000000000000000000000000000000000000000000000000000000000001000000000000000000000000000001000000000000000000000000000000000000000000000000000000000000000000000000000000000000000000000000000000000000000000000000000000000000000000000000000000000000000000000000000000000000000000000000000000101000000000000000000000000000000000000000000000000000000000000000000000000000000000000000000000000000000000000000000000000000000000000000000000000000000000000000000000000000000000000000000000000000001010000000000000000000000000000000000000000000000000000000000000000000000000000000000000000000000000000000000000000000000000000000000000000000000000000000000000000000000000000000000000000000000000000001000000000000000000000000000000000000000000000000000000000000000000000000000000000000000000000000000000000000000000000000000000000000000000000000000000000000000000000011100000000000000000000000000000000000000000000000000000000000000000000000000110000000000000000000000000000000000000000000000000000000000000000000000000000000000000000000000000000000000000000000000000000000000000000000000000000000000000000000000000011000000000000000000000000001100000000000000000000000000000000000000011110000000000000000000000000000000000000000000000000000000000000000000000000000000000000000000000000000000000000000000000000000000110000111000000000000000000000000000000000000000000000000000000000001100100000000000000000000000000000000000000000000000000000000000000000000000000000000000000110000000000000000000000011000000000000000000000000000000000000000000000000000000000000000000000000000000000110010000000000000000000000000000000000000000000000000000000000000000000000000000000000000001010000000000000000000000110000000000000000000000000000000000000000000000000000000000000000000000000000000000100100000000000000000000000000000000000000000000000000000000000000000000000000000000000000001100000000000000000000000000000000000000000000000000000000000000000000000000000000000000000000000000000000000110000000000000000000000000000000000000000000000000000000000000000000000000000000000000000000000000000000000000000000000000000000000000000000000000000000000000000000000000000000000000000000000000000000000000000000000000000000000000000000000000000000000000000000000000000