P1
200 200
0000000000000000000000000000000000000000000000000000000000000000000000000000000000000000000000000000000000000000100000000000000000000000000000000000000000000000000000000000000000000000010000000000000000000000000000000000000000000000000000000000000000000000000000000000000000000000000000000000000000000000010000010100000000000000000000000000000000000000000000000000000000000000000000001010000000000000000000000000000000000000000000000000000000000000000000000000000000000000000000000000000000000000000000001010000100100000000100000000000000000000000000000000000000000000000000000000000010100000000000000000000000000000000000000000000000000000000000000000000000000000000000000000000000000000000000000000000011000000110000000010100000000000000000000000000000000000100000000000000000000000010000000000000000000000000000000000000000000000000000000000000000000000000000000000000000000000000000000000000000000000000000000000000000101000000000000000000000000000011100010100000000000000000000000000011100000000000000000000000000000000000000000000000000000000000000000000000000000000000000011000000000000000000000000000000000000000000100000000000000000000000000000000000100100000000000000000000000000000000000000000000000000000000000000000000000000000000000000000000000000000000000000000000110000000000000000000000000000000000000000000000000000000000000000000000000000000110000000000000000000000000000000001000000000000000000000000000000000000000000000000000000000000000000000000000000000000000000000000000000000000000000000000001100000001100000000000000000000000000000000000000000001100000000000000000000111000000000000000000000000000000000000000000000000000000000000000000000000000000000000000000000000000000000000000000000000100100000100100000000000000000000000000000000000000000011000000000000000000011111000000000000000000000000000000000000000000000000000000000000000000000000000000000000000000000000000000000000000000000000110000000110000000000000000000000000000000000000000000000000000000000000000000111000000011000000000000000000000000000000000000000000000000000000000000000000000000000000000000000000000000000000000000000000000000000000000000000000000000000000000000000000000000000000000000000000011010000000000101000000000000000000000000000000000000000000000000000000000000000000000000000000000000000000000000000000000000000100000000000000000000000000000000000000000000000000000000000000000000000010100000100000010000000000000000000000000000000000000000000000000000000000000000000000100000000000000000000000000000000000000010100000000000000000000000000000000000000000000000000000000000000000000000110000010001010000000000000000000000000000000000000000000000000000000000000000000000001000000000000000000000000000000000000000101000000000000000000000000000000000000000000000000000000011000000000000000000000100000100000000000000000000000000000000000000000000000110000000000000000000000010000000000000000000000000000000000000000100000000000000000000000000000000000000000000000000000001001000000000000000000001001100000000000000000000000000000000000000000000000010010000000000000000000000000000000000000000000000000000000000000000000000000000000000000000000000000000000000000000000000010100000000000110000000011010110000000000000000000000000000000000000000000000101000000000000000000011100011100000000000000000000000000000000000000000000000000000000000000000000000000000000000000000000010000000000001100000001100101000000000000000000000000000000000000000000000000100000000000000000000000000000000000000000000000000000000000000000000000000000000000000000000000000000000000000000000000000000000000000000000000110000100000000000000000000000000000000000000000000000000000000000000000000000000000000000000000000000000000000000000000000000000000000000000100000101000000000000000000011000000000000000000000000000011010000000000000000000000000000000000000000000000000000000000000000000000000000000000000000000000000000000000000000000000000000000000000000011100010010000000000000000000110000000000000000000000000000001000000000000000000000000000000000000000000000000000000000000000000000000000000000000010000000000000000000000000000000000000000000000000001101000100010000000000000000000000000000000000000000000000000001011000000000000000000000000000000000000000000000000000000000000000000000000000000010010000000000000000000000000000000000000000000000000110000001001000000000000000000000000000000000000000000000000000111000000000000000000000000000000000000000000000000000000000000000000000000000000000100010000000000000000000000000000000000000000000000000110100001110000000000000000000000000000000000000000000000000001100000000000000000000000000000000000000000000000000000000000000000000000000010000000000100000000000000000000000000000000000000000000000000111000000000000000000000000000000000000000000000000000000000000000000000000000000000000000000000110000000000000000000000000000000000000001010001001100100000000000000000000000000000000000000000000000000100000000000000000000000000000000000000000000000000000000000000000000000000000000000000000000010010000000000000000000000000000000000000110110010111100000000000000000000000000000000000000000000000000000000000000000000000000000000000000000000000000000000000000000000000000000000000000000010100000100100000000000000000000000000000000000000101000101000011000000000000000000000000000000000000000000000000000000000000000000000000000000000000000000000000000000000000000000000000000000000000000000100000110000000000000000000000000000000000000001100000000000000000000000000000000000000000000000000000000000000000000110000000000000000000000000000001001000000000000000000000000000000000000010001000001000000000000000000000000000000000000000000000001000000000000000000000000000000000000001000000000000000000000000000010100001100000000000000000000000001010000000000000000000000000000000000000100000000001000000000000000000000000000000000000000000001011000000000000000000000000000000000000101000000000000000000000000000010000011000000000000000000000000011100000000000110110000000000000000000010010000000100000000000000000000000000000000000000000000010100000000000000000110000000000000000001010000000000000000000000000000000000000000000000000000000000000000000000000001100000000000000000000000000000001110000000000000011000000000000000000000000000000000000000000000000000010000000000000000001000000000000000000110000000000000000000000000000000000000000000000000000000011000000000000000000000100000001000000000000000001001000000000000000000000000000000000000000000000000001110000000000000000000000000000000000001010000000000000000000000000000000000000000000000000000000010000000010000000000000000010000000000000000000010100000000000000000000000000000000000000000000000000011000000000000000000000000000000000000001000000000000000000000000000000000000000000000000000000110000100001010000000000010010000000000000000000000010000000000000000000000000000000000000000000000000000010000000000000000000000000000000000000000000000000000000000000000000000001000000000000000111000010010000010010000000000011100000000000000000000000000000000000000000000000000000000000000000000000000000010000000000000000000000000000000000000000000010000000000000000000000000101000000000000011110001110000000011000000000000000000000000000000000000000000000000000000000000000001000000000000000000010000000100000000000000000000000000000000000000000001010000000000000000000000001010000000000001111000000000000000000000000000000000000000000000000000000000011000000000000000000000010000000000000000000110000000001110000000000000000000000000000000000100010100000000000000000000000001000000000000100000010000000000000000000000000000000000000000000000000000000110000000000000000000000100000000000000000010010000000000000000000000000000000000000000000010100010000000000000000000000000000000001110000110000111000000000000001100000000000000000000000000000000000000000000000000000000000000000000000000000000100100010000000000000000000000000000000000000000101000000000000000000000000000000000000000000001100010010000000000000010100000000000000000000000000010000000000000000000000000000000000000000000000000101110000100000000000000000000000000000000000000000100000000000000000000000000000000000000000000000000100000000000000000010000000000000000000000000001010000000000000000000000000000000000000000000000011011000001000101000000000000000000000000000000000000000000000000000000000000000000000000000000000000000000000000000000000000000000000000000000000000010010000000000000000000000000000000000000000000000000000000000010001000000000000000000000000000001100000001100000000000000000000000000000000000000000000011100000000000000000000000000000000000000011000011000000000000000000000000000000000000000000000000000110000000010000000000000000000000000000000011000000100100000000000000100000000000000000000000000000000000000000000000000000000000000000000000110000000000000000000000000000000000000000000000000000000010010000000001100000000000000000000000000000000000000110000000000000010100000000000000000000000000000000011000000000000000000000000000000000000000000000000000000000000000000000000000000000000000000000011000000000001000000000000000000000000000000000000000000000000001100000100000000000000000000000000000000110000000000000000000000000000000010000000000000000000000000000000000000000000000000000000000000000000000000100000000000000000000000000000000000000000000000011011001001000000000000000000000000000000000000000000000000000000000000000000100000000000000000000000000000000000000000000000000000000000000000000011001000000000000000000000000000000110000011000000000111001000010000000000000000000000000000000000000000000000001000000000000000001000000000000000000000000000000000000000000000000000000000000000000001000000000000000000000000000000010110100000110000000011000010010100000000000000000000000000000000000000000000000010000000000000000000000000000000000000000000000000000000000000000000000000000000000000011110000000000000000000000000010010001001000000011000010100100110000000000000000000000000000000000000000000000000100000000110000000001110000000000000000000000000000000000000000000000000000000000000000011000000000000000000000000000000110100111100000101110101001000000000000000000000000000000000000000000000000000000000000010010000000000000000000000000000000000000000000000000000000000000000000000000000000000000000000000000000000010000000010001110001001101000101000000000000000000000000000000000000000000000000000000000000010100000010000000000000000000000000000110000000000000000000000000000000000000000000000000000110000000000000000011010011001100001000101100010101000000000000000000000000000000000000000000000000000000000100010000100000000000000110000000000001100000000000000000000000000000000000000000000000000001100000000000000100100010000000000101000001110100010000000000000000000000000000000000000000000000000000000000100100001000000000000001100000000000000000000000000000000000000000000000000000000000000000000000000000000000010110100000000001100000110000010100000000000000000000000000000000000000000000000000000000000011000000000000000000000000000000000000000000000110000000000000000000000000000000000000000000000000000000000000011000000000001100000111010000000000000000000000000000000000000000000000000000000000001000000000000000000000000000000000000000000000000001010000000000000000000000000000001110000000000000000000000000000000000010000111001100000110000000000000000000000000000000000000000000000000000000000110111000000000000000000000110000011000000000000000010000000000000000000011000000000000000000000000000000000000000000000000000000000011000011000000000000000000000000000000000000000000000000000000000010010000000000000000001100010010000110000000000000000000000000000000000000101000000000000000000000000000000000000000000000000000000000110100000000000000000000000000000000000000000000000000000000000001100100100000000000000011000010100000000000000000000000000000000000000000000100000000000000000000000000000000000000000000000000000000000111001000000000000000000000000000000000000000000011000000000000000110001000000000000000000000010000000000000000000000000000000000000000000000000000000000000000000000000000000000000000000000000000000001110110000000000000000000000000000000000000000001001000000000000000100100100000000000000000000000000000000000000000000000000000000000000000000000000000000000000000000000000000000000000000000000000000000100100000000000000000000000000000000000000000010010000000000000001000010010000000000000000000000000000000000000000110000000000000000000000000000000000000000000000000000000000000000000000000000000000000010000000000000000000000000000000110000000000011000000000000000010011000100000000000000000000000000000000000000001100000110000000000000000000000000000000000000000001100000111000000000000000000000000000000000000000000000000000000000001100000000000000000000000000000011001100000000000000000000000000000000000000000000000011000000000000000000000000001100000000000000011000000000000000000000000000000000000000000000000000000000000000000000000000000000000000000000000000000010000000000000000000000000000000000000000000000000010110000000000000000000000100100000000000000000000000000000000000000000000000000000000000000000000000000000000000000000000000000000000000000010000000100000000000000000000000000000000000000000000000000000000000000000000000000000110000000000000000000000000000000000000000000000000000000000000000000000000000000000000000000000000000000000000000100010001000000000000000000000100000000000000000000000000011000000000000000000000000000000000000000000000000000000000000000000000000000000000000000000000000000000000000000000000000000000000000000000100000100000000000000000000000010100000000000000000000000001100010000000000000000000000000000000000000000000000000000000001000000000000000000000000000000000000000000000000000000000000000000000000000001110000000000000000000000000000101000000000000000000000000010001000000000000000000000000000000000000000000000000000000000010000000000000000000000000000000000000000000000000000000000110000000000000000001000000000000000000000000000000100000000000000000000000000000000000000000000000000000000000000000000000000000000000000000100000000110000000000000000000000000000000000000000000000010010000000000000000000000000010000010000000000000000000000000000000000000000000000000000000000000110000000000000000000000000000000000000000000000000010010000000000000000000000000000000000000000000000011000000000000000000010000001000001011000000000000000000101100000000000000000000000011100000000010010000000000000000000000000000000000000000000000000101000000000000000000000000000000000000000000000000000000000000000000000100000001101010011000000000000000011011000000000000000000000011001000000000011000000000000000000000000000000000000000000000000000100000010000000000000000000000000000000000000000000000000000000000000001000000000000100000000000000000001000001000000000000000000000100110011100000000000000000000000000000000000000000000000000000000000000001010000000000000000000000000000000000000000000000000000000011100000000000000011110000000000110000001101100000000000000000000001110000000000000000000000000000000000000000000000000000000000000000000000100100000000000000000000000000000000000000000000000000000000100100000000000010001000000000010010000000111000000000000000000000000000000000000000000000000000000000000000000000000000000000000110000100001011000000000000000000000000000000000000000000000000000000010001000000000000011110000000000011000000000000000000000000000000000000000000000000000000000000000000000000000000000000000000000001100100000100100000000000000000000000000000000000000000000000000000000101001000011100000010000000000000000000000000000000000000000000000001000000000000000000000000000000000000000001100000000000000000000000000111100000000000000000001000000000000000000000000000000000000011000000000000000000000000000000000000000000000000000000000000000001001100000000000000000000000000000000000000011000000000000000000000000001011000000000000000000101000000000000000000000000000000000011100000000000000000000000000000000000000000000011000001000000000000100110000000000000000000000000000000000000000000000000000000000000000000000000000000000000000000100000000000000000000000000000000011110001000000000000000000000000000000000000000011110000010000000000010111100000000000000000000000000000000000000000000000000000000000000001100011100000000000000000000000000000000000000000000000000000100000011100000000000000000000000000000000000000110100000100000000000110010000000000000000000000000000000000000000000000000000000000000000010010001101000000000000000000000000000000000000000000000000001111000101100000000000000000000000000000000000000100110000000000000000111000000000000000000000000000000000000000000000000000000000000000000011110001011000000000000000000000000000000000000000000000000000000000010110000000000000000000000000000000001111111100000000000000000100000000011000000000000000000000000000000000000000000000000000000000010000001110000000000000000000000000000000000000000000000000000000000101100000000000000000000000000000000101100000100000000000000000000000000110000000000000000000000000000000000000000000000000000000000000000000000000000000000000000000000000000000000000000000000000000001000000000000000000000000000000000000011000010000000000000000000000000000000000000000000000000000000000000000000000000000000000001011000000000000000000000000000000000000000000000000000000000000000000001000000000000000000000000000000000000000000000000000000000000000000000000000000000000000000000000000000000000000000000000000000001110000000000000000000000000000000000000000000000000000000000000000000000000000000000000000000000000000000000000000000000000000000000000110000000000000000000000000000000000000000000000000000000000000011000000000000000000000000000000000000001000000000000000000000111100000000000000000000000000000000000000000000000000000000000000000000010010000000000000000000000000000000000000000000000000000000000000000000000000000000000000000000000000000101000000000000000000000001100000000000111000000000000000000000000010000000000000000000000000000100100000000000000000000000000000000000000000000000000000000000000000000000000000000000000000000000000001010000000000000000000011100100011100000001000000000000000000000000100000000000000000000000000000110000000000000000000000000000000000000000000000100000000000000000000000000000000000000000000000000000001000000000000000000000010000000001010101010000000000000000000000001000000000000000000000000000000000000000000000000000000000000000000000000000011000100000000000000000000000000000000000000000000000000000000000000000000000000000000000011000000000000000000000000000000000000000000000000000000000000000000000000000000000000000000000000001110000001100000110000000000000000000000000000000000000000000000000000000000000000000000010100000000010010001000000000000000000000000000000000000000000000000001100000000000000000000000000000000000000100100000001100000100000000110000000000000000000000000000000000000100000000000000000000001001001110001001000010000000000000000000000000000000000000000000000000100100000000000000000000000000000000000001001000000000001000100000011000000000000000000000000000000000000001000000000000000000000100011011111111110010100000000000000000000000000000000000000000000000000110000000000000000000000000000000000000100100000000000110010000000001000000000000000001000000000000000000010000000000000000000000100100100000111011110000000000000000000000000000000000000000000000000000000000000000000000000000000000000000001001100000000001110000000000000000000000000000010000000000000000000000000000000000000000000110001101110010000000000000000000000000000000000000000000000000000000000000000000000000000000000000000000000001001110000000000000000000000000000000000000000100000000000000000000000000000000000000000000000001000000011000000000000000000000000000000000000000000000000000000000000000000000000000000000000000000000001000110000001110000001100000000000000000000000000000000000000000000000000000000000000000000000000000000000010000000000000000000000000000000000000000000000000000000000000000000000000000000000000000000001100100000011100000011000000000000011000111000111000000000000000000000000000000000000000000000000000000001010000000000000000000001000000000000000000000000000000000000000000000000010000000000000000000001110000000100000000000000000000000110000000000000000000000000000000000000000000000000000000000000000000100001100000000000000000101000000000000000000000000000000000000000000000000100000000000000000000000000000001110000000000000000000000000000001000000000000000000000000000000000000000000000000000000000001100011101000000000000001001000000000000000000000000000000000000000000000001000000000000000000000000000000000000000000000000000000000000000010000000000000000000000000000000000000000000000000000000000000010000100000000000000001100000000000001000000000000000000000000000000000000000000000000000000000000000000000000000000000000000000000000000100000000000000000000000000000000000000000000000000000000000000001110000000000000000000000000001000001000000000000000000000000000000000000000000000000000000000000110000000000000000000000000110000000000000000000000000000000000000000000000000000000000000000000000000000000000000000000000000000000010000010000000000000000000000000000000000000000000000000000000000010100110110000000000000000000100000000000000000000000000000000000000000000000000000000000000000000000000000001110000000000000000000010001110100000000000011100000000000000000000000000000000000000000000100000101110000000000000000110000000000000000000000000000000000001100000000000000000000000000000000000000000000000000000000000000000001000000000000000000000000000000000000000000000000000000000000000001010001001110000000000000011000000000000000000000000000000000000011000000000000000000000000000000000000000010000010000000000000000000001000000000000000000000100000000000000000000000000000000000000000001100001100100000000000001100000000000000000000000000000000000000000000000000000000000000000000000000000000100000100000000000000000011010000000000000000000001000000000000000000000000000000000111000000000000001001001000000000110011000000000000000000000000000000000000000000000000000000000000000000000000000001000001000000000000000001000110000000000011000000010000000000010000000000000000000000000000000000000010100101000000000100010000000000000000000000000000000000000000000000000000011000000000000000000000000000000000000000000000111101000000000001000000000000000000001010000000000000000000000000000000000000000001010000000000111000000000000000000000000000000000000000000000000110000110000000000000000000000000000000000000000000010000010000000000001100000000000000000010100000000000000000000000000000000000000000001000000110000100000000000000000000000000000000000110000000000001100000000000000000000000000000000000000000000000000011000101100000000000000000000000000000010000000000000000000000000011000000000000000000000010010000000000000001010000000000000000000001100000000011000000000000000000000000000000000000000000000000000000011101110000000001000000000000000000000000000000000000000000000001011000000000000000000000011000000000000000010100000000000000000000000000000000101000000000000000000000000000000000000000000000000000000001000000000001001000000000000000000000000000000000000000000000110111000000000000000000000000000000000000000011000000000000000001100000000000000010000000000000000000000000011100000000000000000000000000000000011100010000000000000000000000000000000000000000000000001000110000100000000000000000000000000000000000000000000000000000011000000000000001100011000000000000000000000000000000000000000000000000000001000111000101000011000000000000000000000000000000000000000010001100001100000000000000000000000000000000000000000000000000000000010000100000000001001000000000000000000000000100000000000000000000000000000001110000000000110000000000000000000000000000000000000000000001000000100000000000000000000000000000000000000000000000000000001000000100000000001010000000000000000000000001000000000000000000000000000000011000000000010001000000000000000000000000000000000000000100010011110100000000000000000000000000000000000000000000000000000010000001000000000001000000000000000000000000010000000000000000000000000000010000000000000001000000000000000000000000000000000000000000101001000000000000000000000000000000000000000000000000000000000000100000110000000000000000000000000000000000000000000000000000000000000001100100000000000010010000000000000000000000000000000000000000000000000010000000000000000000000000000000000000000000000000000000000000010000000000000000000000000000000000000000000000000000000000000000010100001000001000100000000000000000000000000000000000000000000000011000010000000000000000000000000001100000000000000000000000000001000100000000000000000000000000000000000000000000000000000000000000000000011100000001010000000000000000000000000000000000000000000000011111100010100000000000000000000000011000000000000000000000000000000100000000000000000000000000000000000000000000000000000000000000000000000000000000011000000000000000000000000000000000000000000000001000001000000000000000000000000000000000000000000000000000000000000000000000000000000000000000000000000000000000000000000000000000000000000000000000001000100000000000000000000000000000000000000000000010001000000000000000000000000000000000000000000001100000000000000000000000000000000000000000000000000000000000000000000000000000000000000000001000000010001000000000000000000000000000000000000000000000010000000000000000000000000000000000000000000000011000000000000000000000000000000000000000000000000000000000000000000000000000000000000000000110000001100010000000000000000000000000000000000000000000000000000000000000000000000000000000000000000000000000000000000000000000000000000000000000000000000000000000000000000000000000000000000000000001010000110000000000000000000000000000000000000000000000000000000000000000000000000000000000000000000000000000000000000000000000011000000000000000000000000000000000000000000000000000000000000000000000000001111000000000000000000000000000000000000000000000000000000000000000000000000000000000000000000000000000000000000000000000000110000000000000000000000000000000000000000000000000000000000000000000000000001100000000000000000000000000000000000000000000000000000000000000000000000000000000000000000000000000000000000000000000000000000000000000000000000000000000010000000000000000000000000000000000000000010000000000000000000000000000000000000000000000000000000000000000000000000000000000000000000110000000000000000000000000000000000000000000000000000000000000001010000000000000000000000000000000000000000001000000000000000000000000000000000000000000000000000000000000000000000000000000000000000001010000000000000000000000000000000000000000000000000000000000000010100000000000000000000000000000000000000000000000000000000000000000000000000000000000000000000000000000000000011000000000000000000000001000000000000000000000000000000000000000000000000000000000000000010000000000000000000000000000000001100000000000000000000000000000000000000000000000000000000000000000000000001001000000001100000011000000000000000000000000000000000000000000000000000000000000000000000000000000000000000000000000000000011000000000000000000000000011000000000000000000000000000000000000000000000001100000000011000001001000000000000000000000000000000000000000000000000111000000000000110000000110000000000000000000000000000000000000000000000000000000110000000000000000000100000000000000000000000000000000000000000000010100000000000000000000000000000000000000000000000000000000000000001100000010010000000000000000000000000000000000000000000000000000000000000000000000000010100000000000000000000000000000000000000000000010000000000000000000000000000000000000000000000000000000000000000000000000011000000000000000000000000000000000000000000000000000000000000000000000000000101000000000000000000000000000000000000000000000000000000000000000000000000000000000000000000000000000000000000000000000000000000000000000000000000000000000000000000000000000000000000000000000000000000100000000000000000000000000000000000000000000000000000000000000000000000000000000110000000000000000000000000000000000000000000000000000000000000000000000000000000000000000000000000000000000000000000000000000000000000000000000000000000000000000000000000000000000000000000000000000010010000000000000000000000000000000000000000000000000000000000000000000000000000000000000000000000000000000000000000000000000000000000000000000000000000000000000000000000000000000000000000000000000000101000000000000000000000000000000000000000000000000000000000000000000000000000001110000000000000000000000000000000000000000100000000000000000000000000000000000000000000000000000000000000000000000000000100000000000000000000000000000000000000000000000000000000000000000000000000000000000000000000000000000000000000000000000011100000000000000000000000000000000000000000000000000000000000000000000000000000000000000000000000000000000000000000000000000000000001100110000000000000000000000000000000000000000000000000000000000001101100000000000000000000000001000000000000000000000000000000000000000000000000000000000000000000000000001110000000000000000000000000011001100000000000000000000000000000000000000000000000000000000000001110000000000000000000000000101000000000000000000000000000000000000000000000000000000001100000000000000000000000001000000000000001100000000000000000000000000000000000000000000000000000000000000001100001000000000000000000000000001010000110000000000000000000000000000000000000000000000000100100000000000000000000000111000000000000011000000000000100000000000000000000000000000000000000000000000000011000000000000000000000010000000001000010010000000000000000000000000000000000000000000000001010000000000000000000000011001000000000000000000000000010100000000000000000000000000000000000000000000000000000000000000000000000000101000000000000011000000000000000000000000000000000000000001000000001000000000000000001000001111010000000000000000000000000101000000000000000000000000000000000000000000000000000000000000000000000011101011000000000000000000000000000000000000000000000000000000101000000000000000000000000010000101011100000000000000000000000000100000000000000000000000000000000000000000000000000000000000000000000011001000000000000000000000000000000110000000000000000000000000000110000000000000000000000000000001110000000000000000000000000000000000000000000000011000000000000000000000000000000000000000000000011000001000000000000000000000000000000010100000000000000000000000000000000000000000000000000000000000011000000000000000000000000000000000000000000000000110000000000001110000000000000000000000000000001001000000000000000000000000000000000000010000000000000000000000000000000000000000000000000000000000000100000000000111000000000000000000000000000000000000000000000000010010000000000000000000000000000010100000000001000000000000000000000000000000000000000000000000000000000000000000000000000000000000000001001000000001011000000000000000000000000000000000000000000000000110010000000000000000000000000000010000000000100000000000000000000000000000000000000000000000000000000000000000000000000000000000000000001100000000100001000000000000000000000000000000000000000000000000000000000000000000000000000000000000001000010000000111000000000000000000000000000000000000000000000000000000000000000000000000000000000000000000000110001000000000000000000000000000000000000000000000000000010000000000000000000000000000000000000000000010000000000000000000000000000000000000000000000000000000000000000000000000000000000000000000000000000010000000000000000000000000000000000000000000000000011100000000000000000000000000000001100000000000000100000000001100000011000000000000001100000000000000000000000000000000000000000000000000000000111100010000000000000000000000000000000000000000000000000000100000010000000000000000000000000000000000010000000000000011000000110000000000000100100000000000000000000000000000000000000000000000000000000001000000000000000000000000000000000000000000100001000010011000000100000010001000000000000000001000001000100000000000000001000000000000000000101000000000000000000000000000000000000000000000000000000100010000000000000000000000000100000000000000010100100000000110000001000001101101100000000000011000100001001111000000000000101000000000000110000100000000001000000000000000000000000000000000000000000000100010000000000000000000000001000000000000000011000100001110000110000000000001011000000000000100001000001100001000000000001001000000000001110000000000000101000000000000000000000000000000000000110000001010000100000000000000000000010000000000000000000000000000000001100000000000010001000000000001100010000000000000000000000001100000000000000010000000000001010000000000000000000000000000000000011011000000001110000000000000000000000000000000000000000000000000000000000000000000000011101100000000000101000000001101100000000000000000000000000010100000000000001000000000000000000000000000000000000100100111000011100000000000000000000000000000000000000000000000000000000000000000001101011000100000000000100000000001010000000000000000000011000010000000000000000000000000000000000000000000000000000011111010111100000000000000000000000000000000000000000000000000000000000000000000000011011100010100000110000000000000000000000000000000000001000000100100000000000000000000000000000000000000000000000000100010000000000000000000000000000000000000000000000000000000000000000000000000000000010111000101000010010000000000000001110000000000000000010000000001000000000000000000000000000000000000000000000000001000101100000000000000000000000000000000000000000000000000000000000000000000000000000000010000110000100100000000000000000000000000000000000100000000100000000000000000000000000000000000000000000000000010000001000000000000000000000000000000000000000000000000000000001000000000000000000000000011010000000110000000000000000001000000000000000000010110110000000000000000000000000000000000000000000000000000010000000000000000000000000000000000000000000000000000000001100100000000000000000110000000010000000000000000000000000011000000000000000000000000000000011000000000000000001000000000000000000000000000000010001000000000000000000000000000000000000000000000000000001100100000000011000001100000000000000000000000000000000000000000000000000000000000000000000001000000000000000101000000000000000000000000000000011100000000000000000000000000000000000000000000000000000100000000000000110000000000000000000000000000000000000000110100011000000000000000000000000000100000000000000001010000000000000000000000000000000000000000000000000000000000000000000000000000000000000000110000000000000000000000000000000000000000000000000000000010001001000000000000000000000000110000000000000000001000000000000000000000000000000000000000000000000000000000000000000000000000000000000000000000000000000000000000000000000000000000001000000000000000100010100000000000000000000000000000000000000000000000000000000000000000000000000000000000000000000000000000110000000000000000000000000000000000000000000000000000000000000000000000000010000000100000000000010000000000000000000000000000000000000000000000000000000000000000000000000000010000000000000000000000001100000000000000000000000000000000000000000000000000000000000000000000000000100000011000000000000000000000000000000000000000000000000000000000000000000000000000000000000000000100000000000000000000000000000000000000000000000000000111000000000000000000000011000000000000000000000000000101000000000000000000000000000000000000000000000000000000000000000000000000000000000000000001000000000000000000000000000000000000000000000000000000000000000000000000000001001000000001100000000000000000000000000000000000000000000000000000000000000000000000000000000000000000000000000000000000000000000000000000000000000000000000000000000000000000000000000000000000000000010010000000101000000000000000000000000000000000000000000000000000000000000000000000000000000000000000000000000000000000000000000000000000000000000000000000000000000000000000000000000000000000000000000011000000000100000000000000000000000000000000000000000000000000000000000000000000000000000000000000000000000000000000000000000000000000000000000000000001100000000000000000000000000000000000000000000000000000000000000000000000000000000000000000000000000000000000000000000000000000000000000000000000000000000000000000000000000000000000000000110000000000100100000000000000000000000000000000000000000000000000000000000000000000100000000000000000000000000000000000000000000000000000000000000000000000000000000000000000000000000000000000000000001100000000000110000000000000000000000000000000000000000000000000000000000000000000010100000000000000000000000000000000000000000000000000000000000000000000000000000000000000000000000000000000000000000000000000000000000000000000000000000000000000000000000000000000000000000000000000001010000000000000000000000000000000000000000000000000000000000000000000000000000000000000000000000000000000000000000000000000000000000000000000000000000000000000000000000000000000000000000000000000000101000000000000000000000000000000000000000000000000000000000000000000000000000000000000000000000000000000000000000000000000000000000000000000000000000000000000000000000000000000000000000000000000000000100000000000000000000000110000000000000000000000000000000000000000000000000000000000000000000000000010000000000000000000000000000000000000000000000000000000000000000000000000000000000000000000000000000000000000000000000000001100000000000000000000000000000000000000000000000000000000000000000000000000100000000000000000000000000000000000000000000000000000000000000000000000000000000000000000000000000000000000000000000000000000000000000000000000000000000000000000000000000000000000000000000000000000001000000000000000000000000000001000000000000000000000000000000000000000000000000000000000000000000000000000000000000000000000000000000000000000000000000000000000000000000000000000000000000000000000000000000000000000000000000000000101000000000000000000000000000000000000000000000000000000000000000000000000000000000000000000000000000000000000000000000000000000000000000000000000000000000000000000000000000000000000000000000000000001010000000000000000000000000000000000000000000000000000000000000000000000000000000000000000000000000000000000000000000000000000000000000000000000000000000000000000000000000000000000000000000000000000001000000000000000000000000000000000000000000000000000000000000000000000000000000000000000000000000000000000000000000000000000000000000000000000000000000000000000000000011100000000000000000000000000000000000000000000000000000000000000000000000000110000000000000000000000000000000000000000000000000000000000000000000000000000000000000000000000000000000000000000000000000000000000000000000000000000000000000000000000000011000000000000000000000000001100000000000000000000000000000000000000110000000000000000000000000000000000000000000000000000000000000000000000000000000000000000000000000000000000000000000000000000000000110000111000000000000000000000000000000000000000000000000000000011001110011000000000000000000000000000000000000000000000000000000000000000000000000000000000000110000000000000000000000011000000000000000000000000000000000000000000000000000000000000000000000000000001100001010010000000000000000000000000000000000000000000000000000000000000000000000000000000000001010000000000000000000000110000000000000000000000000000000000000000000000000000000000000000000000000000001011010001000000000000000000000000000000000000000000000000000000000000000000000000000000000000001100000000000000000000000000000000000000000000000000000000000000000000000000000000000000000000000000000001100010000000000000000000000000000000000000000000000000000000000000000000000000000000000000000000000000000000000000000000000000000000000000000000000000000000000000000000000000000000000000000000000000000000000000000000000000000000000000000000000000000000000000000000000000000