P1
200 200
0000000000000000000000000000000000000000000000000000000000000000000000000000000000000000000000000000000000000000100000000000000000000000000000000000000000000000000000000000000000000000010000000000000000000110000000000000000000000000000000000000000000000000000000000000000000000000000000000000000000000000010000010100000000000000000000000000000000000000000000000000000000000000000000001010000000000000101010001000000000000000000000000000000000000000000000000000000000000000000000000000000000000000000000001010000100100000000100000000000000000000000000000000000000000000000000000000000010100000000000000011111010000000000000000000000000000000000000000000000000000000000000000000000000000000000000000000000011000000110000000010100000000000000000000000000000000000100000000000000000000000010000000000000010011000000000000000000000000000000000000000000000000000000000000000000000000000000000000000000000000000000000000000000000101000000000000000000000000000011100010100000000000000000000000000011100000000110000110000000000000000000000000000000000000000000000000000000000000000000000011000000000000000000000000000000000000000000100000000000000000000000000000000000100100000000000000000000000000000000000000000000011000000000000000000000000000000000000000000000000000000000000000000000110000000000000000000000000000000000000000000000000000000000000000000000000000000110000000000000000000000000000000000000011001111101000000000000000000000000000000000000000000000000000000000000000000000000000000000000000000000000000000000001100000001100000000000000000000000000000000000000000001100000000000000000000000000100100000000000000000000000000000000000000000000000000000000000000000000000000000000000000000000000000000000000000000100100000100100000000000000000000000000000000000000000011000000000000000000000000000111010111100000000000000000000000000000000000000000000000000000000000000000000000000000000000000000000000000000000000110000000110000000000000000000000000000000000000000000000000000000000000000000000000101101111000000000000000000000000000000000000000000000000000000000000000000000000000000000000000000000000000000000000000000000000000000000000000000000000000000000000000000000000110000000000001100000000000011011000000000000000000000000000000000000000000000000000000000000000000000000000000000000000000000000000000000000000100000000000000000000000000000000000000000000000000000100010000000000101000000000001111100000000000000000000000000000000000000000000000000000000000000000000000100000000000000000000000000000000000000010100000000000000000000000000000000000000000000000000010000000000000000000000000110011100000000000000000000000000000000000000000000000000000000000000000000000001000000000000000000000000000000000000000101000000000000000000000000000000000000000000000000001000000100000000000000000010010000000000000000000000000000000000000000000000000000110000000000000000000000010000000000000000000000000000000000000000100000000000000000000000000000000000000000000000000100010110000000000010100000011000000000000000000000000000000000000000000000000000010010000000000000000000000000000000000000000000000000000000000000000000000000000000000000000000000000000000000000000001010011000000000001101000000100000000000000000000000000000000000000000000000000000101000000000000000000011100011100000000000000000000000000000000000000000000000000000000000000000000000000000000000000001000000000000000011010000000000000000000000000000000000000000000000000000000000000100000000000000000000000000000000000000000000000000000000000000000000000000000000000000000000000000000000000000000000000000000000000000001000000000000000000000000000000000000000000000000000000000000000000000000000000000000000000000000000000000000000000000000000000000000000000000000000000000000000000000000000000011000000000000000000000000000000000000000000000000000000000000000000000000000000000000000000000000000000000000000000000000000000000000000000000000000000000000000000000000000000000000000000000000000000110000000000100000000111100000000000000000000000000000000000000000000000000000000000000000000000000000000000000000000000000000000000000000000000000000000000000000000000000000000000000000000000000000000000000000001000000010001000000000000000000000000000000000000000000000000000000000000000000000000000000000000000000000000000000000000000000000000000000000000000000000000000000000000000000000000000000000000000000010000000011100000000000000000000000000000000000000000000000000000000000000000000000000000000000000001100000000000000000000000000000000000000000000000000000000010000000000000000000000000000000000000000000000010011100000000000000000000000000000000000000000000000000000000000000000000000000000000000001000110000000000000000000000000000000000000000000000000000000000000000000000000000000000000000000000000000001100000000000000000000000000000000000000000000000110000000000000000000000000000000000000000000000100000000000000000000000000000000000000000000000000000000001100000000000000000000000000000000000000000101100000000000000000000000000000000000000000000010010000000000000000000000000000000000000110000001000000000000000000000000000000000000000000000000000000000011010000000000000000000000000000000000000011001000000000000000000000000000011100000000000000100100000000000000000000000000000000000001000000100000000000000000000000000000000000000000000000000000000000100000000000000000000000000000000000000000011111000100000000000000000000000000100000000000000110000000000000000000000000000000000000100000000000000000000000000000000000000000000000000000000000000000000000000000000000000000000000000000000000000010001100100000000000000000000010000000000000000000000000000000000000000000000000000000000110010000000000000000000000000000000000001000000000000000000000000000000000001100000000000000000000000000000000000011110000000000000000000000100001000000000110000000000000000000000000000000000000000000110000000000000000000000000000000000000101000000000000000000000000010100000011000000000000000000000000000000000000001000000000000000000000001000011000000001100000000000000000000000000000000000000000000000000110000000000000000000000000000001010000000000000000000000011000110000000000000000000000000000000000000000000000000000000000000000000001101100000000000000000000011000000000000000000000000000000000000001100000000000000000000000000000001000000000000000000000000100010100000000000000000000000000000000000000000001110000000000000000000000000000000000000000000000001001000000000000000000000000000000000000000000000000000000000000000000000000000000000000000000000001100010000000000000000000000000000000000000000000010001000000010000000000000000000000000000000000000010100000000000000000000000000000000000000000000000011000000000000000000000000000000000000000000000011000100000000000000000000000000000000000000000011000000000001010000000000000000000000000000000000000010000000000000000000000000000000000000000000000001001000000000000000000000000000000000000000000000001110000000000000000000000001000000000000000000110100100000010010000000000000000000000000000000000000000000000000000000000000000000000000000000000000001100000001000000000000000000000000000000000000000011100000000000000000000000101000000000000000110011100000000011000000000001100000000000000000000000000000000000000000000000000001000000000000000000000000000001010000000000000000000000000000000000000000000000000000000000000000001010000000000000001101110000000000000000000111101000000000000000000000000000011000000000000000000000010000000000000000000000000001110000000000000000000000000000000000000100000000000000000000000000000001000000000000000000000000000000000000000010000000100000000000000000000000000110000000000000000000000100000000000000000000000000000000000000000000000000000000000000000010100000000000000000000000000000000000001110000000001110000000000000000000011100001000000000000000000000000000000000000000000000000000000000000000000000000000000000000000000000000000000000000000000000101000000000000000000000000000000000000000000000000001000000000000000000000000000000001000000000000010000000000000000000000000000000000000000000000000000000000000000000000000000000000000000000000000000100000000000000000000000000000000000000000000000010001000000000000000000000001000100000000000000001010000000000000000000000000000000000000000000000000000011100000000000000000000000000000000000000000000000000000000000000000000000000000000000000000000011101000000000000000000000010000000010000000000010010000000000000000000000000000000000000000000000000000000001001100000000000000000000000000000001100000001100000000000000000000000000000000000000000000111100000000000000000000000010001000000000011000011000000000000000000000000000000000000000000000000000000100010111000000000000000000000000000000100100000100100000000000000000000000000000000000000000000000000000000000000000000000000000010000000110000000000000000000000000000000000000000000000000000000000000100100110000000000000000000000000000000110000000110000000000000000000000000000000000000000000000000011000000000000000000000011011000000000000000000000000000000000000000000000000000000000000000000000000000000000000000000000000000000000000000000000000000000000000000011000000000000000000000000000000000110000000000000001100000000000000010000000000000000000000000000000000000000000000000000000000000000000000000000000000000000000000000000000000000000000000000000000001001000000000000000000000000000000000000000000000000100001000100000000100000000000000000000000000000000000000000000000000000000000000000000000000000000000000000000000000000000000001000000000000000000001100000000000000000000000000000000000000000000000001000101110100000001000000000000000000000000000000000000000000000000000000000000000000010000000000000000000000000000000000000000101000000000000000000000000000000000000000000000000000000000000000000000010000100001000000000000000000000000000000000000000000000000000000000000000000000000000100000000000000000000000011000000000000000001000000000000000000000000000000000000000000000000000000000000000000000011000001100001110001110000000000000000000000000000000000000000000000000000000000000001000000000000000000000001001000000000000100100000000000000000000000000000000000000000000000000000000000000000000000001000100000000000000000000000000000000000000000000000000000000000000000000000000000000000000000000000000000000100000000011011001000000000011000000000000000000000000000000000000000000000000000000000000010001000000000010000000000000000000000000000110000000000000000000000000000000000000000000000000000110000000000000000001101110010000110101001000000000000000000000000000000000000000000000000000000000000011100000000000100000000000000110000000000001100000000000000000000000000000000000000000000000000001100000000000000000000000001111111001100000000000000000000000000000000000000000000000000000000000000000000000000000001000000000000001100000000000000000000000000000000000000000000000000000000000000000000000000000000000000000000000000001011011100000000000000000000000000000000000000000000000000000000000000000000000000000000000000000000000000000000000000000000000000010000000000000000000000000000000000000000000000000000000000000000011001000000000000000000000000000000000000000000000000000000000000000000000000011000000000000000000000000000000000000000000000000000001000000000000000000000000001110000000000000000000000000000000000000000000000000000000000000000000000000000000000000000000000000000000000000000100000000000000000000000000110000011000000000000000000000011000000000000011000000000000000000000000000000000000000000000000000000000000000000000000000000000000000000000000000000000000000000000000000010011000000000000000001100010010000110000000000000000000000010000000000000101000000000000000000000000000000000000000000000000000000000000000000000000000000000000000000000000000000000000000000000000000000110011000000000000011000010100000000000000000000000000000000000000000000100000000000000000000000000000000000000000000000000000000000000000000000000000000000000000000000000000000000011000000000000010000000110000000000000000000010000000000000000000000000000000000000000000000000000000000000000000000000000000000000000000000000000000000000000000000000000000000000000000000000000000001001000000000000011111000000000000000000000000000000000000000000000000000000000000000000000000000000000000000000000000000000000000000000000000000000000000000000000000000000000000000000000000000000000010010000000000000000000000000000000000000000000000000000000000000000110000110000000000000000000000000000000000000000000000000000000000000000000000000000000000000000000000000000000000000000110000000000011000000000000000111100000000000000000000000000000000000000000000001100000110000000000000000000000000000000000000000001100000111000000000000000000000000000000000000000000000000000000000001100000000000000000000000000011000000000000000000000000000000000000000000000000011000000000000000000000000000000001100000000000000011000000000000000000000000000000000000000000000000000000000000000000000000000000000000000000000001000100000000000000000000000000000000000000000000000011010011000000000000000000000000100100000000000000000000000000000000000000000000000000000000000000000000000000000000000000000000000000000000000000010110000000000000000000000000000000000000000000000001011111111000000000000000000000000110000000000000000000000000000000000000000000000000000000000000000000000000000000000000000000000000000000000000000011000000000000000000000000000100000000000000000000100100000010000000000000000000000000000000000000000000000000000000000000000000000000000000000000000000000000000000000000000000000000000000000000000000000000000011101100000000000010100000000000000000000110010001100000000000000000000000000000000000000000000000000000000000000000000000000000000000000000000000000000000000000000000000000000000000000000000000000001011111000000000000101000000000000000000000000110100000000000000000000000000000000000000000000000000000000000000000000000000000000000000000000000000000000000000000000000110000000000000000000000000000010000001000000000000100000000000000000000000000111110000000000000000000000000000000000000000000000000000000000000000000000000000000000000000000000000000000000000000000010010000000000000000000000000000011100000000000000000000000000000011000000000000101010000000000000110000000000000000000000000000000000000000000000001100000000000000000000000000000000000000000000000000011000000000000000000000000000000011000000000000000000000000000010000000000000000000010000000000010010000000000000000000000000000000000000000000001111000000000000000000000000000000000000000000000000000000000000000000000000010000000000000000000000000000000000000001000010000000001011100100000000000011000000000000000000000000000000000000000000100010001000000000000000000000000000000000000000000000000000000000000000000000000100000000000000000000000000000000000000000000010000000001011011000000000000000000000000000000000000000000000000000000010110010001000000000000000000000000000000000000000000000000000000000000000000000001000000000000000000000000110000000011000011000000000000000001000000000000000000000000000000000000000000000000000000001100101000100000000000000000000000000000000000000000000000000000000000000000000000000000000000000000000000010010000001001000010000100000000000000000000000000000000000000000000000000000000000000000000011010011001110000000000000000000000000000000000000000000000000000000000000000000000001110100000000000000000011000000001010000100000000000010100000000000000000000000000000000000000000000000000000000000001010001101010000000000000000000000000000000000000000000000000000000000000000000000001000000000000000000000000000000001000001000000000000011000000000000000000000000000000000000000000001100000000000000010000001000010000000000000000000001000000000000000000000000000000000000000000000000001101000000000000000000000000000000000001000100000000000000000000000000000000000000000000000000000011000000000000000011000010001000000000000000000000101000000000000000000000000000000000000000000000000001100000000000000000000000000000000000001110000000000000000000000000000000000000000000000000000000000000000000000000110000011100010000000000000000000100000000000000000000000000000000000000000000000000001000000000000000000000000000000000000000000000001100000000000000000000000000000000000000000000000000000000000000000000000000000100000000000000000000000000000000000000000000000000000000000111000000000000000000000000000000000000000000000000000000000011000000000000000000000000000000000000000000000000000000000000000000000000000001000000000000000000000000000000000000000000000000000000000011001000000000000000000000000000000000000110000000000000000000000000000000000000000000000000000000000000000000000000000000000000000000000000000000000000000000000000000000000000000000000000000000000001100010010010000000000000000000000000000010010001100000000000000000000000000011000000000000000000000000000000000000000000000000000000000001110000000000000000000000000000000000000000000000000000000001100100100111000100000000000000000000000000100100100100000000000000000000000000110000000000000000000000000000000000000000000000000000000000000000000000000000000000000000000000000000000000000000000000011101111001100011100000000000000000000000000110000110000000000000000000000000000000000000000000000000000000000000000000000000000000000000000000000000000000000000000000000000000000000000000000000000000100010100000000000000000000000000000000000000000000000000000000000000000000000000000000000000000000000000000000000000000000000000000000000110000000000000000000000000000000000000000000000000000000000000110001100000000100000000000000000000000000000000000000000000000000000000110000000000000000000000000000000000000000000000000000000000000001100000000000000000000000000000000000001000000000000000000000000001011000000100000000000000000000000000000000000000000000000000000000010010000000000000000000000000000000000000000000000000000000000000000000000000000000000000000000000000000101000000000000000000000001101110000001001000000000000000000000000010000000000000000000000000000100100000000000000000000000000000000000000000000000000000000000000000000000000000000000000000000000000001010000000000000000000000001000000000011100000000000000000000000000100000000000000000000000000000110000000000000000000000000000000000000000000000000000000000000000000000000000000000000000000000000000001000000000000000000000000000000000000000000000000000000000000000001000000000000000000000000000000000000000000000000000000000000000000000000000000000000000000000000000000000000000000000000000000000000000000000000000000000000000000000000000000000000000000000000000000000000000000000000000000000000000000000000000000000000000000000000000000000000000000000000000000000000000000000000000000000000000000000000000000000000000000000000000000000000000000000000000000000000000000000000000000000000000001100000000000000000000000000000000000000000010000001000000000000000000000000000000000000000000000000000000100000000000000000000000000011000000000000000000000000000000000000000000000000000000000000000100100000000000000000000000000000000000000001100011111000000000000000000000000000000000000000000000000000001000000000000000000000000001000110000000000000000000000000000000000000000000000000000000000000110000000000000000000000000000000000000000010011011111000000000000000011100000000000001000000000000000000010000000000000000000000000100000110110001000000000000000000000000000000000000000000000000000000000000000000000000000000000000000000000000000100000011000110000000000111000000000000010000000000000000000000000000000000000000000001010011010010101000000000000000000000000000000000000000000000000000000000000000000000000000000000000000000000001001110000000011100000000110000000000000000100000000000000000000000000000000000000000000001000110101101011000000000000000000000000000000000000000000000000000000000000000000000000000000000000000000000010000100010000100001100001001110000000000000000000000000000000000000000000000000000000000000101111100110010000000000000000000000000000000000000000000000000000000000000000000000000000000000000000000000100010001000011000010000000000000000000111000111000000000000000000000000000000000000000000000001000000011000000000000000000000001000000000000000000000000000000000000000000000000010000000000000000000000000000100001110000000000100000000000000000000000000000000000000000000000000000000000000000010100000000000000000000000000000000101000000000000000000000000000000000000000000000000100000000000000000000000000000000001010000000001000110000000000001000000000000000000000000000000001000000000000000010000000000000000000000000000000001001000000000000001000000000000000000000000000000001000000000000000000000000000000000001100000000001001000000000000010000000000000000000000000000011111000000000000000000000000000000000000000000000000001100000000000000101000000000000000000000000000000000000000000000000000000000000000000000000000000010100000000000000100000000000000000000000000001000001000000000000000000000000000000000000000000000000000000000000000011011000000000000000000000000000000000000000000000000000000000000000000000000000000000000000000000000000000000000000000000000000000000010000000000000000000000000000000000000000000000000000000000000000100100000000000000000000000000000000000000000000000000000000000000000000000000000000000000000000000000000000000000000000100000010000001000000000000000000000000000000000001110000000000000000000000000010001000000000011100000000000000000000000000000000000000000000000000000000000000000000000000000000000000000000000000000010000000100111100000000000000000000000000000000000000000000000000000000000000000000010000000000000000000000000000000000000000000000000000000000000010000000000000000000000000000000000000000000000000101100100001111001000000000000000000000000000000000010000010000000000000000000000000000000000000000000100000000000000000000000000000000000000000000001110000000000000000000000000000000000000000000000000000110000000000100000000000000000000000000000000000100000100000000000000000000000000101100000000000001000000000000000000000000000000000111000000000011100000000000000000000000000000000000000110000000000001000000000000000000000000000000000000000000000001000001000000000000000000100000101100000000000000010000000000010000000000000000000000000000000000000000000000000000000000000000000000000011100000010000001100000000000000000000011000000000000000000000000000000000000000000000010100000000000000000000000000000000001010000000000000000000000000000000000000000011000000000000000000000000000011001000000011011001000000000000000110000110000000000000000000000000000000000000000000000101000100100000000000000000000000000010100000000000000000000000000000111000000000110000000110000000000000000000100100110000110011000000000000000001100000000000000000000000000000000000000000000000000000100000000000000000000000000000000000010000000000000000000000000000001110000000000000000010010000000000000000010010000000000110010000000000000010000000000000000000000000000000000000000000000000000000000000001000110000000000000000000000000000000000000000000000000000000100010011000011000000011000000000000000000000000000000000111000000000000000110000000000000000000000000000000000000000000000000000000000000000000100000000000000000000000000000000000000000000000000000001011001001000110000000000000000000000000000000000000000000000000000000000000110000000000000000000000000011100000000000000000000000000000000010000000000000000000000000000000000000000000000000000000000001110001100000000000000000000000000000000000000000000000000000000000000001100000011000000000000000000000000000000000000000000000000000000000010100000110000000000000000000000000000000000000000000000000000000000000000000000000000000000000000000000000000000000000000000000001111100001001000000000000000000000000100000000000000000000000000001000001100110010000000000000000000000000000000000000000000000000000000000000000000000000000000000000000000000000000000000000000011000011100000001010000000000000000000000001000000000000000000000000001110000111000000100000000000000000000000000000000000000000000000000000000000000000000000000000000000000000000000000000000000000001001000000000000001000000000000000000000000010000000000000000000000000000101100011001010000000000000000000000000000000000000000000000000000000000000000000000000000000000000000000000000000000000000000001010000000000000000000000000000000000000000000000000000000000000000000000110111011000000000000000000000000000000000000000000000000000000000000000000000000000000000000000000000000000000000000000000000001000000000000000000000000000000000000000000000000000000000000000000000000011111000000000000000000000000000000000000000000000000000000010000000000000000000000000000000001100000000000000000000000000000000000000000000000000000000000000000000000000000000000000000000000000000000101010000000000000000000000000000000000000000000000000000001010000000000000000000000000000000011000000000000000000000000000000000000000000000000000000000000000000000000000000000000000000000000000000000000000000000000000000000000000000000000000000000000000000010100000000000000000000000000000000000000000000000000000000000000000000000000000000000000000000000000000000000000000000000000000000000000000000100000000000000000000000000000000000000000000000000000000010000000000000000000000000000000000000000000001100000000000000000000000000000000000000000000000000000000000000000000000000000000000000000000001000000000000000000000000000000000000000000000000000000000000000000000000000000000000000000000000000000011000000000000000000000000000000000000000000000000000000000000000000000000000000000000000000000000000000000000000000000000000000000000000000000000000000000000000000000000000000000000000000000000000000000000000000000000000000000000000000000000000000000000000000000000000000000000000000000000000000000000000000000000000000000000000000000000000000000000000000000000000000000000000000000000000000000000000000000000000000000011000000000000000000000000000000000000000000000000000000000000000000000000000000000000000000000000000000000000110000000000000000000000000000000000000000000000000000000000000000000000000000000000000000110000000000000000000000000000000000000000000000000000000000000000000000000000000000000000000000000000000000001100000000000000000000000000000000000000000000000000000000000000000000000000000000000000000000000000000000000000000000000010000000000000000000000000000000000000000000000000000000000000000000000000000000000000000000000000000000000000000000000000000000000000110000000000000000000000000000000000000000000000000000000000000001010000000000000000000000000000000000000000000000000000000000000000000000000000000000000000000000000000000000000000000000000000000000001010000000000000000000000000000000000000000000000000000000000000010100000000000000000000000000000000000000000000000000000000000000000000000000000000000000000000000000000000000011000000000000000000000001000000000000000000000000000000000000000000000000000000000000000010000000000000000000000000000000001100000000000000000000000000000000000000000000010000000000000000000000000001001000000001100000011000000000000000000000000000000000000000000000000000000000000000000000000000000000000000000000000000000011000000000000000000000000011000000000000000011010000000000000000000000000001100000000011000001001000000000000000000000000000000000000000000000000111000000000000110000000110000000000000000000000000000000000000000000000000000000110000000000000001101000000000000000000000000000000000000000000000010100000000000000000000000000000000000000000000000000000000000000001100000010010000000000000000000000000000000000000000000000000000000000000000000000011000000000000000000000000000000000000000000000000010000000000000000000000000000000000000000000000000000000000000000000000000011000000000000000000000000000000000000000000000000000000000000000000000000000000000000000000000000000000000000000000000000000000000000000000000000000000000000000000000000000000000000000000000000000000000000000000000000000000000000000000000000000000000000000000000000000000010000110000000000000000000000000000000000000000000000000000000000000000000000000000000110000000000000000000000000000000000000000000000000000000000000000000000000000000000000000000000000000000000000001101001100000000000000000000000000000000000000000000000000000000000000000000000000000010010000000000000000000000000000000000000000000000000000000000000000000000000000000000000000000000000000000000000001010111000000000000000000000000000000000000000000000000000000000000000000000000000000101000000000000000000000000000000000000000000000000000000000000000000000000000001110000000000000000000000000000000000100100000000000000000000000000000000000000000000000000000000000000000000000000000000100000000000000000000000000000000000000000000000000000000000000000000000000000000000000000000000000000000000000000001001000000000000000000000000000000000000000000000000000000000000000000000000000000000000000000000000000000000000000000000000000000000000001100110000000000000000000000000000000000000000000000000000000010100000000000000000000000000000001000000000000000000000000000000000000000000000000000000000000000000000000001110000000000000000000000000011001100000000000000000000000000000000000000000000000000000000010000000000000000000000000000000101000000000000000000000000000000000000000000000000000000001100000000000000000000000000000000000000001100000000000000000000000000000000000000000000000000000000000000000000000000000000000000000000000001010000110000000000000000000000000000000000000000000000000100100000000000000000000000000000000000000011000000000000100000000000000000000000000000000000000000000000000000000000000000000000000000000000001000010010000000000000000000000000000000000000000000000001010000000000000000000000000000000000000000000000000000010100000000000000000000000000000000000000000000000000000000000000000000000000100100000000000011000000000000000000000000000000000000000001000000001000000000000000000000000000000000000000000000000000000101000000000000000000000000000000000000000000000000000000000000000000000000010001000000000000000000000000000000000000000000000000000000101000000000000000000000000000000000000000000000000000000000000000100000000000000000000000000000000000000000000000000000000000000000000000000110001000000000000000000000000110000000000000000000000000000110000000000000000000000000000000000000000000000000000000000000000000000000000000011000000000000000000000000000000000000000000000001000000000000111000000000000000000000010100000000000000000000000000000000000000000000000000000000000001101110000000000000000000000000000000000000000000110000000000000000000000000000000000000000000000101000000000100010001100000000000000000010000000000000000000000000000000000000000000000000000000000000001000011000000000000000000000000000000000000000000000000000000000000000000000000000000000000000010010000000101000100100100000000000000000000000000000000000000000000000000000000000000000000000000000000000000010000000000000000000000000000000000000000000000000000000000000000000000000000000000000000011000001100000010000101000000000000000000000000000000000000000000000000000000000000000000000000000000000000001110000000000000000000000000000000000000000000000000000000000000000000000000000000000000000000000100000001000000100000000000000000000000000000000000000000000000000000000000000000000000000000000000010011000000000000000000000000000000000000000000000000000000000000000000000001110000000000000000000001000110000000000000000001111000000000000000000000000000000000000000000000000000000000000000000000001000011100000000000000000000000000000000000000000000000000000110000000000000000000000000000000000000011000000100000000000000100001000011000000000100001100000000000000000000000000000000000000000000000000000011100000000000000000000000000000000000000000000000000010000000000000010000010000000000000000000000001001100000000000000000000000110000000010100100100000000000000000000000000000000000000000000000000100001000000000000000000000000000000000000000000000000000110000000000000100001010000000000000000000011010100111000000001000001000000000000000100000101000000000000000000000000000000000000000000000001010010001000000000000000000000000000100000000000000000000001110000000000001000110100000000000000000000000101000100100000010100000000000000000000001000100000000001000000000000000000000000000001000000110110110010000000000000000000000000001000000000000000000110011000000000110000001100100000000000000000000000000000010100000111000000000000000000000000000000000000101000000000000000000000000000111000010000000001100000000000000000000000000010000000000000000001010011101100001100000011011000000000000000000000001001000010011000011110000000000000000010100000000000001010000000000000000000000000011001100011000000100011100000000000000000000000000000000000000000010100011111000000000000010111000000000000000000000100100000110110000111011000000000000000010000000000000001000000000000000000000000001100011000000000111110110100000000000000000000000000000000000000000010000001000000000000000000001101000000000000000001001000000011100000010000000000100000000000000000000000000000000000000000000000000011000110000000011110100001000000000000000000000000000000000000000000001000000000100000000001000001010000000000110000001100001000000000000010011000100111000000000000000000000000000000000000000000000001000110000000001001000001100000000000000000000000000000000000000000000011100001111000000001101100000100000000010010000000000101010100000000110010001000111000000000000000000000000000000000000000000000010110000000000010100000000000000000000000000000000000000000000001100000000100111000000000011100100000000000000100100000000101010000000000000011100010001111000000000000000000000000000000000000000000000011100000000000010000000000000000000000000000000000000000000000100100000101110001100000000100110100000000000000110001100110011100001000000000000000011000111000000000000000000000000000000000000000000000000000000000000000000000000000000000000000000000000000000000001010000001010011001000000000101010000000000000000000001011011000000010100000000000000111001100000000000000000000000001000000000000000000000000000000000000000000000000000000000000000000000000000000001011000000000000110000000000000111000000000000000000000001000000000001100000000000000000011110000000000000000000000000101000000000000000000000000000000000000000000000000000000000000000000000000000000001100000000000000000000000000000000000000000000000000000000000000000000000000000000000000111000000000000000000000000001010000000000000000000000000000000000000000000000000000000000000000000000000000000000000000000000000000000000000000000000000000000000000000000000001100000000000000000000000100000000000000000000000000001000000000000000000000000000000000000000000000000000000000000000000000000000000000000000000000000000000000000000000000000000000000001000000000000011000000000000000000000000000000000000000000000000000000000000000000000000000000000000000000000000000000000000110000000000000000000000000000000000000000000000000000000000000000000000000010000000000000000000000000000000000000000000000000000000000000000000000000000000000000000000000000010000000000000000000000001100000000000000000000000000000000000110000000000000000000000000000000000000100000000000000000000000000000000000000000000000000000000000000000000000000000000000000000000000000100000000000000000000000000000000000000000000000000000111000001100000000000000011000000000000000000000000000000000000000000000000000000000000000000000000000000000000000000000000000000000000000000000001000000000000000000000000000000000000000000000000000000000000000000000000000001001000000001100000000000000000000000000000000000000000000000000000000000000000000000000000000000000000000000000000000000000000000000000000000000000000000000000000000000000000000000000000000000000000010010000000101000000000000000000000000000000000000000000000000000000000000000000000000000000000000000000000000000000000000000000000000000000000000000000000000000000000000000000000000000000000000000000011000000000100000000000000000000000000000000000000000000000000000000000000000000000000000000000000000000000000000000000000000000000000000000000000000001100000000000000000000000000000000000000000000000000000000000000000000000000000000000000000000000000000000000000000000000000000000000000000000000000000000000000000000000000000000000000000110000000000100100000000000000000000000000000000000000000000000000000000000000000000100000000000000100000000000000000000000000000000000000000000000000000000000000000000000000000000000000000000000000001100000000000110000000000000000000000000000000000000000000000000000000000000000000010100000000000011000000000000000000000000000000000000000000000000000000000000000000000000000000000000000000000000000000000000000000000000000000000000000000000000000000000000000000000000000000000000001010000000000000101000000000000000000000000000000000000000000000000000000000000000000000000000000000000000000000000000000000000000000000000000000000000000000000000000000000000000000000000000000000000101000000000000000000000000000000000000000000000000000000000000000000000000000000000000000000000000000000000000000000000000000000000000000000000000000000000000000000000000000000000000000000000000000000100000000000000000000000000000000000000000000000000000000000000000000000000000000000000000000000000010000000000000000000000000000000000000000000000000000000000000000000000000000000000000000000000000000000000000000000000000010000000000000000000000000000000000000000000000000000000000000000000000000000100000000000000000000000000000000000000000000000000000000000000000000000000000000000000000000000000000000000000000000001000110000000000000000000000000000000000000000000000000000000000000000000000000001000000000000000000000000000001000000000000000000000000000000000000000000000000000000000000000000000000000000000000000000000100000000000000000000000000000000000000000000000000000000000000000000000000000000000000000000000000000000101000000000000000000000000000000000000000000000000000000000000000000000000000000000000000011101100000000000000000000000000000000000000000000000000000000000000000000000000000000000000000000000000000001010000000000000000000000000000000000000000000000000000000000000000000000000000000000000000000010000000000000000000000000000000000000000000000000000000000000000000000000000000000000000000000000000000001000000000000000000000000000000000000000000000000000000000000000000000000000000000000000010001000000000000000000000000000000000000000000000000000000000000000000000000011100000000000000000000000000000000000000000000000000000000000000000000000000110000000000000000000000000000000000000000000010010000000000000000000000000000000000000000000000000000000000000000000000000000000000000000000000000000000000000000000000000011000000000000000000000000001100000000000000000000000000000000000000000000111000000000000000000000000000000000000000000000000000000000000000000000000000000000000000000000000000000000000000000000000000110000111000000000000000000000000000000000000000000000000000000000000000000000000000000000000000000000000000000000000000000000000000000000000000000000000000000110000000000000000000000011000000000000000000000000000000000000000000000000000000000000000000000000000000000000000000000000000000000000000000000000000000000000000000000000000000000000000000000000000001010000000000000000000000110000000000000000000000000000000000000000000000000000000000000000000000000000000000000000000000000000000000000000000000000000000000000000000000000000000000000000000000000000001100000000000000000000000000000000000000000000000000000000000000000000000000000000000000000000000000000000000000000000000000000000000000000000000000000000000000000000000000000000000000000000000000000000000000000000000000000000000000000000000000000000000000000000000000000000000000000000000000000000000000000000000000000000000000000000000000000000000000000000000000000000000000000