P1
200 200
0111000000000000000000000000000000000000000000000000000000000000000000000000000000000000000000000000000000000000100000000000000000000000000000000000000000000000000000000000000000000000010000000000000000000000000000000000000000000000000000000000000000000000000000000000000000000000000000000111100100000000010000010100000000000000000000000000000000000000000000000000000000000000000000001010000000000000100001000000000000000000000000000000000000000000000000000000000000000000000000000000000000000110000000001010000100100000000100000000000000000000000000000000000000000000000000000000000010100000000000001000010000000000000000000000000000000000000000000000000000000000000000000000000000000000001000000000000011000000110000000010100000000000000000000000000000000000100000000000000000000000010000000000000010000100000000000000000000000000000000000000000000000000000000000000000000000000000000000000100000000000000000000000000000101000000000000000000000000000011100010100000000000000000000000000000010000000011100000000000000000000000000000000000000000000000000000000000000000000000000011000000000111000000000000000000000000000000100000000000000000000000000000000000100100000000000000000000000000001010000000000000000000000000000000000000000000000000000000000000000000000000000000000000110000000000000000000000000000000000000000000000000000000000000000000000000000000110000000000000000000000000000110100000001110000000000000000000000000000000000000000000000000000000000000000000000000000000000000000000000000000000000000000001100000001100000000000000000000000000000000000000000001100000000000000001010010000100001000000000000000000000000000000000000000000000000000000000000000000000000000000000000000000000000000000000000000100100000100100000000000000000000000000000000000000000011000000000000000110000000001000010000000000000000000000000000000000000000000000000000000000000000000000000000000000000000000000000000000000000000110000000110000000000000000000000000000000000000000000000000000000000000100010000010000100000000000000000000000000000000000000000000000000000000000000000000000000000000000000000000000000000000000000000000000000000000000000000000000000000000000000000000000000000000000000011000110000000000000000000000000000000000000000000000000000000000000000000000000000000000000000000000000000000000000000000000000000000100000000000000000000000000000000000000000000000000000000000000000110001000000111000000000000000000000000000000000000000000000000000000000000000000000000000000100000000000000000000000000000000000000010100000000000000000000000000000000000000000000000000000000000000001000010000000000000000000000000000000000000000000000000000000000000000000000000000000000000001000000000000000000000000000000000000000101000000000000000000000000000000000000000000000000000000000000000000001000000000000000000000000000000000000000000000000000000000000000110000000000000000000000010000000000000000000000000000000000000000100000000000000000000000000000000000000000000000000000000000000110000100000000000000000000000000000000000000000000000000000000000000010010000000000000000000000000000000000000000000000000000000000000000000000000000000000000000000000000000000000000000000000000000001100010000000000000000000000000000000000000000000000000000000000000000101000000000000000000011100011100000000000000000000000000000000000000000000000000000000000000000000000000000000000000000000000000100011000000000000000000000000000000000000000000000000000000000000000000100000000000000000000000000000000000000000000000000000000000000000000000000000000000000000000000000000000000000000000000000000000110110000000000000000000000000000000000000000000000000000000000000000000000000000000000000000000100000000000000000000000000000000000000000000000000000000000000000000000000000000000000011000001100000001100000000110000000000000000000000000000000000000000000000000000000000000000000000000000000000001000000000000000000000000000000000000000000000000000000000000000000000000000000000000000110000011000000000000001100100000000000000000000000000000000000000000000000000000000000000000000000000000000000010000000000000000000000000000000000000000000000000000000000000000000000000000000000000000000000000000000000000011000000000000000000000000000000000000000000000000000000000000000000000000000000000000000000000000000000000000000000000000000000000000000000000000000000000000000000000000000000000000000000110000000000111000000000000000000000000000000000000000000000000000000000000000000000000000000000000000000000000000000000000000000000000000000000000000000000000000000000000000000000000000000000000000001100000000000000000000000000000000000000000000000000000000000000000000000000000000000000000000000000000000000000000000000000000000000000000000000000000000000000000000000000000000000000000000000000000000000000000000000000000000000000000000000000000000000000110000000000000000000000000000000000000000000000100000000000000000000000000000000000000000000000000000000000000000000000000000000000000000000000000000000000000000000000000000000000000000000000000000010010000000000000000000000000000000000000000000001000000000000000000000000000000000000000000000000000000000000000000000000000000000000000000000000000000000000000010000000000000000000000000000000000000100100000000000000000000000000000000000000000000010000000000000000000000000000000000000000000000000000000000000010000000000000000000000000000000000000000000000001010000000000000000000000000000000000000110000000000000000000000000000000000000000000000000000000000000000000000000000000000000000000000000000000000001010000000000000000000000000000000000000000000000010100000000000000000000000000000000000000000000000000000000000000000000000000000011100001101100000000000001000000000000001000000000000000000000000000110100000100000000000000000000000000000000000000000010000000000000000000000000000000000110000000000000000000000000000000000000000000101000111010000000000000100001000000000101000000000000000000000000111000000010100111000000000000000000000000000000000000000000000000000000000000000000000001100000000000000000000000000000000000000000010011000000000000000000001000010000000001010000000000000000000000000001100000110000100000000000000000000000000000000000000000000000000000000000000000000000000000000000011000000000000000000000000000000100100001100000000000000011000010000000001000000000000000000000000011011000000110011100000000000000000000000000000000001000000000000000000000000000000000000000000000001001000000000000000000000000000001001000000000000000000000110000001000000000000000000000000000000000110000000000110011000000000000000000000000000000000111000000010000000000000000000000000000000000000010100000000000000000000000000000001100000000000000011000000100000010000000000000000000000000000000000111101110001010000000000000000000000000000000000010000000001010000000000000000000000000000000000000010000000000000000000000000000000000000000000000001001000000100110010000000000000000000000000000000010100000000001110000000000000000000000000000000000011000000010010000000000000000000000000000000000000000000000000000000000000000000000000000000000000001100000000000101000000000000000000000000000000000010000000000000000000000000000000000000000000000000100000000011000000000000000000000000000000000000000000000000000000000000000001000000000000000000000000000000101001110000000000000000000000000000000000000000000000000000000000000000000000000000000000000000000000000000000000000000000000000000000000000000011000000000000000000000010000000000000000000000000000001010000000000000000000000000000000000000000000000000000000000000000000000000000000000000000000000000000000000000000000000000000000000000000000000110000000000000000000000100000000000000000000000000000011100000000000000000000000000000000000000000000000000000000000000001000000001110000000000000000000000000000000000000000000000000000000000000000000000000000000000000000000000000000000000000000000000000000000100000000000000000000000000000000000000000000000000000000000111000000000000000000000000000000000000000000000011100000000000000000010000000000000000000000000000000000000000000000000000000000000000000010000000000000000000000000000000000000000000000000000000000000001000000000000000000000000000000000000000000000100100000000000000001010000000000000000000000000000000000000000000000000000000000000000000101000000000000000000000000000000010000000000000000000000000000111000000000000000000000000000000000000000000000110010000000000000010010000000000000000000000000000000000000000000000000000000010000000000100000000000000000000000000000000101000000000000000000000000010100000000000000000000000000000000000000000000000000100000000011000011000000000000000000000000000000000000000000000000000000000100000000000000000000000000000000000000000001100000000000000000000010000110000000000000000000000000000000000000000000001000001000000000110000000000000000000000000000000000000000000000000000000000000001000000000000000000000000000000000000001000000000000000000000000001100110000000000000000000000000011000000000000000000100000100000000000000000000000000000000000000000000000000000000000000000000000000000000000000000000000000000000000000000010000000000000000000000000001010100000000000000000000000000110000000000000000000100000110000000000000000000000000000000000000000000000000000000000000000000000000000000000000000000000000000000000000001010000000000000000000000000001110000000000000000000000000000000000000000000000000100110111000000000000000000000000000000000000000000000000000000000000000000000000000000000000000000000000000000000000000000000000000000000000000000001000000000000000000000000000000000000000000000000000100011111000000000000000000000000000000000000000000000000000000000000000000000010000000000000000000000000000000000110111011000000000000000000000000000000000000000000000000000000000000000000000000000011000011101000000000000000000000000000000000000000000000000000000000000000000000100000000000000000000100000000001011010001011010000000000000000000000000000000000000000000000000000000000000000000000001101000100110000000000000000000000000000000000000000000000000000000011100000000001000000000000000000010100000000111110100010111110000000000000000000000000000000000000000000000000000000000000000000000011000000000000000000000000000000000000000000000000000000000000000000001000000000000000000000000000000100100000000110010000010011000000000000000000000000000000000000000000000000000000000000000000000000000000101000000000000000000000000000000000110000000000000000000000000100000000000000000000000000110000110000000000000110001100000000000000000000000000000000000000000000000000000000000000000000000000000000001001000000000000000000110000000000001100000000000000000000000000000000000000000000000000001100000000000000100100100010010010000000000000000000000000000000000000000000000000000000000000000000000100000010110000000000000000001100000000000000000000000000000000000000000000000000000000000000000000000000000000000000010101010000000000000000000000000000000000000000000000000000000000000000000000000000110001110000000000000000000000000000000000000000000000000000011000000000000000000000000000000000000000000000000001000110001100010000000000000000000000000000000000000000000000000000000000000000000000000000101000000000000000000000000000000000000000000000000000000110000000000000000000000001110000000000000000000000000001000001000000000000000000000000000000000000000000000000000000000000000000000000000000001100000100000000000000000110000011000000000000000000000000000000000000110000000000000000000000000000000000000000100000001000000000000000000000000000000000000000000000000000000000000000000000000000000000000110100000000001100010010000110000000000000000000000000000000000010100000000000000000000000000000000010110000000000000000000000000000000000000000000000000000000000000000000000000000000000000000000000001001000000000011000010100000000000000000000000000000000000000000000000000000000000000000000000000000011010000000000000000000000000000000000000000000000000000000000000000000000011000000000000000000000000100000000000000000010000000000000000000000000000000000000000010100000000000000000000000000000000000111000000000000000000000000000000000000000000000000000000000000000000000001001000000000000000001101110000000000000000000000000000000000000000000000000000000000000100101100000000000000000000000000000000000000000000000000000000000000000000000000000000000000000000000000000000010010000000000000000011011000000000000000000000000000000000000000000000000000000000000000100011000000000000000000000000000000000000000000011000000000000000000000000000000000000000000000000110000000000011000000000000000000001000000000000000000000000000000000000000000000000000000000000000000001000000000000000000000000001100000000000000011001000000000000000000000000000000000000000000000001100000000000000000000000000000000000000000000000000000000000000000000000000000000010000000000000000001000000000001100000000000000011000000000000000000001000000000000000000000000000000000000000000000000000000000000000000000000000000000000000000000000000000000000000000000000000000001001000000000000000001000000000100100000000000000000000000000000001001100000000000000000000000000000000000000000000000000000000000000000000000000000000000000000000000000000000000000000000000000100000011011100000000000000000000000000110000000000000000000000000000000001100000000000000000000000000000000000000000000000000000000000000000000000000000000000000000000000000000000000000000000000000001000000100111000000000000000000000000000000000000000000000000000000000000000000000000000000000000000000000000000000000000000000000000000000000000000000000000000111000000000000000000000000000000000000010000000001011000000000000000000000000000000000000000000000000000000000000000000000000000000000000000000000000000000000000000000000000000000000000000000000000001010010000000000000000000000000000000000000000110000110000000000000000000000000000000000000000000000000000000000000000000000000000000000000000000000000000000000000000000000110000000000000000000000000010101110000000000000000000000000000000000000011000001100000000000000000000000000000000000000000000000000000000000000001100000000000000000000000000000000000000000000000000010010000000000000000000000000011000100000000000000000000000000000000000000010111000000000000000000110000000000000000000000000000000000000000000000000000000000000000000000000000000000000000000000000000011000000000000000000000000000011100000000000000011100000000000000000001010000011000000000000000010010000000000000000000000000000000000000000000000000000000000000000000000000000000000000000000000000000000000000000000000000000000000111000000000000000100100000000000000000010001011100000000000000000011000000000000000000000000000000000000000000000000000000000000000000000000000000000000000000000000000000000000000000000000000000000000000000000000000010000100000000000000000101000001100000000000000000000000000000000000000000000000000000000000010000000000000000000000000000000000000000000000000000000000000000000000000000000000000000000000000000000000100001000000000000000000000101110000000000000000000000000000000000000000000000000000000000001010000000000000000000000000000000000000000000000000000000000000000000000000000000000000000000000000000000001001011000000000000000000011000001100000000000000000000000000000000000000000000000000000000010100000000000000000000000000000000000000000000000000000000000000000000000000000000000000000000000000000000001000100000000000000000000011000011000000000000000000000000000000000000000000000000000000000010000000000000000000000000000000000000000000000000000000000000000000000000000000000001000000000000000000000000110000000000000000000000000010110000000000000000000000000000000000000000001100000000000000000000000000001100000000000000000001000000000000000000000000000000000000000000000000111000000000000000000000000000000000000000000000000100111000000000000000000000000000000000000000000011000000000000000000000000000001100000000000000000101000000000000000000000000000000000000000000000001011000000000000000000000000000000000000000000000001101110000000000000000000000000000000000000000000000000000000000000000001110111001000000000000000000100000000000000000000000000000000000000000000000000010000000000000000000000000000000000000000000000010010000000000000000000000000000000000000000000000000000000000000000000000001111100000000000000000000000000000000000000000000000000000000000000000110001100000000000000000000000000000000000000000000000010000000000000000000000000000000000000000000000000000000000000000000000000011011000000000000000000000000000000000000000000000000000000000000000001100111000000000000000000000000000010000000000000000000000000000000000000000000000000000000000000000000000000000000000000000000000000000000000000000000000000000000000000000000000000000000000000000000001100000000000000000000000000000000100001100000000000000000000000000011000000000000000000000000000000000000000000000000000000000001110000000000000000000000000000000000000000000000000000000000000000000101000000000000000000000000000000001000100100000000000000000000000000110000000000000000000000000000000000000000000000000000000000010100000000000000000000000000000000000000000000000000000000000000000010000000000000000000000000000000000000000110000000000000011000000000000000000000000000000000000000000000000000000000000000000000111101000000000000000000000000000000000000000000000000000000000000000001100011100000000000000000000000000000000000000000000000000110000000000000000000000000000000000000000000000000000000000000000000001001100000000000000000000000000000000000000000000000000000000000001000110000100110000000000000000000000000000000000000000000000000000000110000000000000000000000000000000000000000000000000000000000000001110000000000000000000000000000000000001000000000000000000000000101000110001010000000000000000000000000000000000000000000000000000000010010000000000000000000000000000000000000000000000000000000000000001000000000000000000000000000000000000101000000000000000000000010010000000110000000000000000000000000000010000000000000000000000000000100100000000000000000000000000000000000000000000000000000000000000000000000000000000000000000000000000001010000000000000000000000011000000001100000000000000000000000000000100000000000000000000000000000110000000000000000000000000000000000000000000000000000000000000000000000000000000000000000000000000000001000000000000000000000000000000000101000000000000000000000000000001000000000000000000000000000000000000000000000000000000000000000000000000000000000000000000000000000000000000000000000000011100110000000001100000000000000000000011110000100000000000000000000000000000000000000000000000000000000000000000000000000000000000000000000000000000000000000000000000111000000000000000000000000000000000011000000000000100000000000000000000100010000000000000000000000000000000000000000000000000000000000001100000000000000000000000000000000000000000000000000000000000000110000000000000000000000000000000000011000100000000000000000000000000001000000000000000000000000000000000000000000000000000000000000000100100000000000000000000000000000000000000000110000000000000000001010000000000000000000000000000000001100001000000000000000000000000000001000000000000000000000000000000000000000000000000000000000000000110000000000000000000000000000000000000000010010000000000000011001010000000000000000001000000000000010000010000000000000000000000000000010000001010000000000000000000000000000000000000000000000000000000000000000000000000000000000000000000000000010100000001100000010101100000000000000000010000000000000000000000000000000000000000000000000010101100000000000000000000000000000000000000000000000000000000000000000000000000000000000000000000000000000010000000011000000001010000000000000000000100000000000000000000000000000000000000000000000000100011011000000000000000000000000000000000000000000000000000000000000000000000000000000000000000000000000000000000000110001100010000000000000000000000000000000000000000000000000000000000000000000000000000010100000000000000000000000000000000000000000000000000000000000000000000000000000000000000000000000000000000000001111100000001000000000000000111000111000000000000000000000000110000000000000000000111000011000000000000000000000000001000000000000000000000000000000000000000000000000010000000000000000000000000000000010011100001100000000000000000000000000000000000000000000000001100000000000000000000000000000000000000000000000000000101000000000000000000000000000000000000000000000000100000000000000000000000000000000010100000000000000000000000000001000000000000000000000000000000000000000000000000000000000000000000000000000000000001001000000000000000000000000000000000000000000000001000000000000000000000000000000000000000100100000000000000000000010000000000000000000000000000000000000000000000000000000000000000000000000000000000001100000000000000000000000000000000000000000000000000000000000000000000000000000000000000000111000000000000000000000100000000000000000000000110000000000000000000000000000000000000000000000000000000000000000000000000000000000000000000000000000000000000000000000000000000000000000000000010000000000000000000000000000000000000000000000000000000010000000000000000000000000000000000000000000000000000000000000000000000000000000000000000000000000000000000000000000000000000000000000000000000110100000000000000000000000000000000000000000000000001011100000000000000000000000000000000000000000001110000000000000000000000000000000000000000011100000000000000000000000000000000000000000000000000000111000000000000000000000000000000000000000000000000110000000000000000000000000000000000000000000000000000000000000000000000000000000000000000000000000000000000000000000000000000000000000000000000000000100000000000000000000000000000000000010000000000001000010000000000000000000000000000000000000000010000010000000000000000000000000000000000000100000100000000000000000000000000000000000000000000000000000000000000000000000000000000000000001110000000000010110010000000000000000000000000000000000000000100000100000000000000000000000000000000000001000001000000000000000000000000000000000111000000000000000000000000000000000000000000000000001100100000000000100000100000000000000000000000000000000000000001000001000000000000000000100000000000000000000000010000000000010000000000000000000000000000000000000000100000100000000000000000000000000010010001110000001011111000000000000000011000000000000000000000000000000000000000000000010100000000000000000100000000000000001010000000000000000000000000000000000000001000001000000000000000000000000000000101000010000000100010110000000110000110000000000000000000000000000000000000000000000101000000000000000001000100000000000010100000000000000000000000000000000000000010000010001100000000000000000000000100000000100000000111101110000001100000000000000000000000000000110011000000000000000000100000000000000000000000000000000000010000000000000000000000000000000000000000000000000100100000000000000000000000110000011000000010001011000000000000000000000000000000000000001111110000000000000000000000000000000000000101000000000000000000000000000000000000000000000000000011100011100000110000000000000000000000000100000000000010111110000000000000000000000000000000000000000011001100000000000000000000000001100000011000100000000000000000000000000000000000000000000000000000000000000000000000000000000000000000000000100010000000100000100000000000000000000000000000000000011100000000000000000000000000000000011000001111000000000000000000000000000000000000000000000000000000000000100000000000000000000000000000000000000010000110001011001000000000000011000000000000000000000000000000000000000000000000000000000000000100100000000000000000000000000000000000000000000000000000000000001000000000000000000000000000000000000000000001100010000100000000000001001000000000000000000000000100000000000000000000000000000000000011010100000000000000000000000000000000000000000000000000000000000010000000000000000000000000000000000000000000000000110000000000000000001010000000000000000000000001000000000000000000000000000000000001101101100000000000000000000000000000000000000000000000000000000000000000000000000000000000000000000000000000000000000101110000000000000001000000000000000000000000010000000000000000000000000000000000001111010000000000000000000000000000000000000000000000000000000000000000000000000000000000000000000000000000000000000000000100000000000000000000000000000000000000000000000000000000000000000000000000000001010010000000000000000000000000000000000000000000000000000000000000000000000000000000000000000000000000000000000000000110000000000000000000000000000000000000000000000000000000000000000000000000000000001100000000000000000000000000000000000000000000000000010000000000000000000000000000000001100000000000000000000000000000000000000000000000000000000000000000000000000000000000000000000000000000000000000000000000000000000000000000000000000000000000000000001010000000000000000000000000000000011000000000000000000000000000000000000000000000000000000000000000000000000000000000000000000000000000000000000000000000000000000000000000000000000000000000000000000010100000000000000000000000000000000000000000000000000000000000000000000000000000000000000000000000000000000000000000000000000000000000000000000000000000000000000000000000000000000000000000000000000000010000000000000000000000000000000000000000000001100000000000000000000000000000000000000000000000000000000000000000000000000000000000000000000000000000000000000000000000000000000000000000000000000000000000000000000000000000000000000000000000000000011000000000000000010000000000000000000000000000000000000000000000000000000000000000000000000000000000000000000000000000000000000000000000000000000000000000000000000000000000000000000000000000000000000000000000000000001010000000000000000000000000000000000000000000000000000000000000000000000000000000000000000000000000000000000000100000000000000000000000000000000000000000000000000000000000000000000000000000000000000010100000000000000000000000000000000000000000000000000000000000000000000000000000000000000000000000000000000000001100000000000000000000000000000000000000000000000000000000000000000000000000000000000000010000000000000000000000000000000000000000000000000000000000000000000000000000000000000000000000000000000000101010110000000000000000000000000000000000000000000000000000000000000000000000000000000000000000000000000000000000000000000000010000000000000000000000000000000000000000000000000000000000000000000000001100011100000000000000000000000000000000000000000000000000000110000000000000000000000000000000000000000000000000000000000000001010000000000000000000000000000000000000000000000000000000000000000000000000001101100000000000000000000000000000000000000000000000000001010000000000000000000000000000000000000000000000000000000000000010100000000000000000000000000000000000000000000000000000000000000000000100000011010000000000000000000000000000011000000000000000000000001000000000000000000000000000000000000000000000000000000000000000010000000000000000000000000000000001100000000000000000000000000000000010100001001000000000000000000000000000001001000000001100000011000000000000000000000000000000000000000000000000000000000000000000000000000000000000000000000000000000011000000000000000000000000011000000101000000000000000000000000000000000000001100000000011000001001000000000000000000000000000000000000000000000000111000000000000110000000110000000000000000000000000000000000000000000000000000000110000000100001010000000000000000000000000000000000000000000000000010100000000000000000000000000000000000000000000000000000000000000010010000010010000000000000000000000000000000000000000000000000000000000000000000001000000000000000000000000000000000000000000000000000010000000000000000000000000000000000000000000000000000000000000000100000000011000000000000000000000000000000000000000000000000000000000000000000000000000000000000000000000000000000000000000000000000000000000000000000000000000000000000000000000000000000000000000000000000000000000000000000000000000000000000000000000000000000000000000000000000000000000000000000000000000000000000000000000000000000000000000000000000000000000000000000000110000000000000000000000000000001010000000000000000000000000000000000000000000000000000000000000000000000000000000000000000000000000000000000000000000000110000000000000000000000000000000000000000000010010000000000000000000000000000000000110000000000000000000000000000000000000000000000000000000000000000000000000000001000000000000000000000000000000000011010000000000000000000000000000000000000000000101000000000000000000000000000000000010000000000000000000000000000000000000000001110000000000000000000000000000000000101000000000000000000000000000000000110000000000000000000000000000000000000000000000100000000000000000000000000000000000011000000000000000000000000000000000000000000000000000000000000000000000000000000100000000000000000000000000000000000000000000000000000000000000000000000000000000000000000000000000000000000000000000000000000000000000001100110000000000000000000000000000000000000000000000000000000000000000000000000000000000000000001000000000000000000000000000000000000000000000000000000000000000000000000001110000000000000000000000000011001100000000000000000000000000000000000000000000000000000000000000000000000000000000000000000101000000000000000000000000000000000000000000000000000000001100000000000000000000000000000000000000001100000000000000000000000000000000000000000000000000000000000000000000000000000000000000000000000001010000110000000000000000000000000000000000000000000000000100100000000000000000000000000000000000000011000000000000100000000000000000000000000000000000000000000000000000000000000000000000000000000000001000010010000000000000000000000000000000000000000000000001010000000000000000000000000000000000000000000000000000010100000000000000000000000000000000000000000000000000000000000000000000000000000000000000000011000000000000000000000000000000000000000001000000001000000000000000000000000000000000000000000000000000000101000000000000000000000000000000000000000000000000000000000000000000000000000110000000000000000000000000000000000000000000000000000000101000000000000000000000000000000000000000000000000000000000000000100000000000000000000000000000000000000000000000000000000000000000000000000010010000000000000000000000000110000000000000000000000000000110000000000000000000000000000000000000000000000000000000000000000000000000000000011000000000000000000000000000000000000000000000001000000000100100000000000000000000000010100000000000000000000000000000000000000000000000000000000000001110000000000000000000000000000000000000000000000110000000000000000000000000000000000000000000000101000000000110000000000000000000000000010000000000000000000000000000000000000000000000000000000000000000000110000000000000000000000000000000000000000000000000000000000000000000000000000000000000000010010000000000000000000000000000000000000000000000000000000000000000000000000000000000000000000000000000000010010000000000000000000000000000000000000000000000000000000000000000000000000000000000000000011000000000000000000000000000000000000000000000000000000000000000000000000000000000000000000000000000000000101000000000000000000000000000000000000000000000000000000000000000000000000001100000000000000000000000000000000000000000000000000000000000000000000000000000000000000000000000000000000000000000000000000100000000000000000000000000000000000000000000000000000000000000000000000001101100000000000000000000000000000000000000001110000000000000000000000000011000110110000000000000000000000000000000000000011000000000000000000000000000000000000000000000000000000000000000000000000000011001000000000000000000000001100000000000001000001000000011000000000000010010001001100000000000000000000000000000000000000110000000000000000000000000000000000000000000000000000000000000000000000001110011000000000000000000000000100100000000101110000010000000110000000000010101110110100010000000000000000000000000000000000000000000000000000000000000000000000000000000000000000000000000000000000000100101110000000000000000000000000101000001101111000000010000000000000000000101111100001000010000000000000000000000000000000000000000000000110000000000000000000000000100000000000000000000000000000000011111011100000000000000000000000000100000010000111010001000000000000000000000100001100111011000000000000000000000000000000000000000010000001100000000000000000000000001000000000000000000000000000000001101000000000000000000000000000000000000000011110000100010000000000000000000000000110100110110000000000000000000000000000000000000001010000000000000000000000000000000010000000000000000000000000000000001010000010000000000000000000000000000000000001101110000000000000000000000000001101100000000000000000000000000000000000000000000001100100000000100000000000000000000000000000000000000000000000000000000001100000100000000000000000000000000000000000000010000000000000000000000000111001010000000000000000000000000000000000000000000000010000000000010100000000000000000000000000000000011000000000000000000000000000001000000000000000000000000000000000000000000000000000000000000000000000000000000000000000000000000000000001100000000000000100001000001001000000000000000000000000000000000110000010000010000000000000000000000000000000000000110000000000000000000000100000000000000000000110000000000000000000000000000000000000011000000000000000100110000001100000000000000000000000000000000000000001010001010000000000000000000000000000000000010010000000000000000000001001100000000000000001100000000000000000000000000000000000000000000000000000000010000000000000000000000000000000000000000000000000100010100010000000000000000000000000000000000100100110001100000111000010001100000000000000000000000000000000000000000000000000000000000000000000000000000000000000000000000000000000000000000000000000000101000101000000000000000000000000000000000000110001100100100001110000110001100000000000101000000000000000000000000000000000000000000000000000000000000000000000000000000000000000000000000000000000000000100000100000000000000000000000000000000000000000000000101000000000000010011000000000010000110000000000000000000001000000000000000000000000000000000000000000000000000000000000000000000000000000000000000000000000000000000000000000000000000000000000000000000100000000000000000000000000000010110000000000000000000000101000000000000000000000000000000000000000000000000000000000000000000000000000000000000010000010000000000000000000000000000000000000000000000000000000000000000000000000000000010000000000000000000000001010000000000000000000000000000000000000000000000000000000000000000000000000000000000001010001010000000000000000000000000000000000000000000000000001100000000000000000000000000000000000000000000000000001000000000000000000000000000000000000000000000000000000000000000000000000000000000000100010100010000000000000000000000000000000000001000000000000010100000000000000000000000000000000000000000000000000000000000000000000000000000000000000000000000000000000000110000000000000000000000000000101000101000000000000000000000000000000000000010000000000000000000000000000000000000111000000000000000000000000000000000000000000000000000000000010000000000000000000000001100000000000000000000000000000100000100000000000000000000000000000000000000100000000000000100000000000110000000000000000000000000000000000000000000000000000000000000000000000100000000000000000000000000000000000000000000000000000000000000000011100000000011000000000000000000000000000000000010010000000011011000000000001000000000000000000000000000000000000000000000000000000001000000000000000000000000000000000000000000000000000000000000000110111000000001001000000001100000000000000000000001111000000000100110000111000010000000000000000000000000000000000000000000000000000000000000000000000000000000000000000000000000000000000000000000000100010110000000010010000000101000000000000000000000011000000000000011000100100000100000000000000000000000000000000000000000000000000000000000000000000000000000000000000000000000000000000000000000000000000101000000000011000000000100000000000000000000000000100000000000111011111000000000000000000000000000000000000000000000000000000000000000000000000000000000000000000001100000000000000000000000000000000001110000000000000000000000000000000000000000000000001100000000001110001110111000000000000000000000000000000000000000000000000000000000000000000000000000110000000000100100000000000000000000000000000111000000000000000000000000000000000000100000000000001001000000000001011101100000000000000000000000000000000000000000000000000000000000000000000000000000001100000000000110000000000000000000000000000000000000000000000000000000000000000000010100000000000011100000000000100011110000000000000000000000000000000000000000000000000000000000000000000000000000000000000000000000000000000000000000000000000000000000000000000000000000000000000000001010000000000000010000000000001100001100000000000000000000000000000000000000000000000000000000000000000000000000000000000000000000000000000000000000000000000000000000000000000000000000000000000000000101000000000000000000000000000011000100000000000000000000000000000000000000000000000000000000000000000000000000000000000000000000000000000000000000000000000000000000000000000000000000000000000000000000100000000000000000000000000000010001000000000000000000000000000000000000000000000000000000000000000010000000000000000000000000000000000000000000000000000000000000000000000000000000000000000000000000000000000000000000000000000000000010100000000000000000000000000000000000000000000000000000000000000000100000000000000000000000000000000000000000000000000000000000000000000000000000000000000000000000000000000000000000000000000000000000010000000000000000000000000000000000000000000000000000000000000000001000000000000000000000000000001000000000000000000000000000000000000000000000000000000000000000000000000000000000000000000000000000000000000000000000000000000000000000000000000000000000000000000000000000000000000000000000000000000101000000000000000000000000000000000000000000000000000000000000000000000000000000000000000000000000000000000000000000000000000000000000000000010000000000000000000000000000000000000000000000000000000001010000000000000000000000000000000000000000000000000000000000000000000000000000000000000000000000000000000000000000000000000000000000000000001100000000000000000000000000000000000000000000000000000000001000000000000000000000000000000000000000000000000000000000000000000000000000000000000000000000000000000000000000000000000000000000000000000110100000000000000000000000011100000000000000000000000000000000000000000000000000000000000000000000000000110000000000000000000000000000000000000000000000000000000000000000000000000000000000000000000011000000000000000000000000000000000000000000000000000000000000000000000000000011000000000000000000000000001100000000000000000000000000000000000000000000000000000000000000000000000000000000000000000001100000000000000000000000000000000000000000000000000000000000000000000000000000110000111000000000000000000000000000000000000000000000000000000000000000000000000000000000000000000000000000000000000000001100000000000000000000000000000000000110000000000000000000000011000000000000000000000000000000000000000000000000000000000000000000000000000000000000000000000000000000000000000000000000000000000000000000000000000000000000000000000000000001010000000000000000000000110000000000000000000000000000000000000000000000000000000000000000000000000000000000000000000000000000000000000000000000000000000000000000000000000000000000000000000000000000001100000000000000000000000000000000000000000000000000000000000000000000000000000000000000000000000000000000000000000000000000000000000000000000000000000000000000000000000000000000000000000000000000000000000000000000000000000000000000000000000000000000000000000000000000000000000000000000000000000000000000000000000000000000000000000000000000000000000000000000000000000000000000000