P1
200 200
0000000000000000000000000000000000000000000000000000000000000000000000000000000000000000000000000000000000000000100000000000000000000000000000000000000000000000000000000000000000000000010000000000000001100010000000000000000000000000000000000000000000000000000000000000000000000000000000000000000000000000010000010100000000000000000000000000000000000000000000000000000000000000000000001010000000000000100001100000000000000000000000000000000000000000000000000000000000000000000000000000000000000000000000001010000100100000000100000000000000000000000000000000000000000000000000000000000010100000000000001000110100000000000000000000000000000000000000000000000000000000000000000000000000000000000000000000000011000000110000000010100000000000000000000000000000100000100000000000000000000000010000100000000001000010000000000000000000000000000000000000000000000000000000000000000000000000000000000000000000000000000000000000000000101000000000000000000000000000001000010100000000000000000000000000001000000000001011100000000000000000000000000000000000000000000000000000000000000000000000011000000000000000000000000000000000000000000100000000000000000000000000000010000100100000000000000000000000000010000000000001000000000000000000000000000000000000000000000000000000000000000000000000000110000000000000000000000000000000000000000000000000000000000000000000000000000000110000000000000000000000000000000000000011000111110000000000000000000000000000000000000000000000000000000000000000000000000000000000000000000000000000000000001100000001100000000000000000000000000000000000000000001100000000000000000000000000101111000100000000000000000000000000000000000000000000000000000000000000000000000000000000000000000000000000000000000100100000100100000000000000000000000000000000000000000011000000000000000000000000000110001000010000000000000000000000000000000000000000000000000000000000000000000000000000000000000000000000000000000000110000000110000000000000000000000000000000000000000000000000000000000000000000000000001010000100000000000000000000000000000000000000000000000000000000000000000000000000000000000000000000000000000000000000000000000000000000000000000000000000000000000000000000000000000000000000100000000000100001000000000000000000000000000000000000000000000000000000000000000000000000000000000000000000000000000000000000000100000000000000000000000000000000000000000000000000000000010000000000010100000000000011000000000000000000000000000000000000000000000000000000000000000000000000000000000000000000000000000000000000000010100000000000000000000000000000000000000000000000000000110010000000001101000010100000100000000000000000000000000000000000000000000000000000000000000000000000011100000000000000000000000000000000000000101000000000000000000000000000000000000000000000000000011001000000000000011000011000000000000000000000000000000000000000000000000000000110000000000000000000000000000000000000000000000000000000000000000100000000000000000000000000000000000000000000000000001100110000000000000000000010000000000000000000000000000000000000000000000000000010010000000000000000000100000100000000000000000000000000000000000000000000000000000000000000000000000000000000000000000111011000000000000011100000000000000000000000000000000000000000000000000000000000101000000000000000000001000001000000000000000000000000000000000000000000000000000000000000000000000000000000000000000000101001000000000001010000000000000000000000000000000000000000000000000000000000000100000000000000000000010000010000000000000000000000000000000000000000000000000000000000000000000000000000000000000000000111110000000000010100000000000000000000000000000000000000000000000000000000000000000000000000000000000000000000000000000000000000000000000000000000000000000000000000000000000000000000000000000011000000110000000000000010000000000000000000000000000000000000000000000000000000000000000000000000000000000000000000000000000000000000000000000000000000000000000000000000000000000000000000000000000000110000000000000000001100000000000000000000000000000000000000000000000000000000000000000000000000000000000000000000000000000000000000000000000000000000000000000000000000000000000000000000000000000000000000000000011100000100011000000000000000000000000000000000000000000000000000000000000000000000000000000000000000000000000000000000000000000000000000000000000000000000000000110000000000000000000000000000000000000000000000010000000000000000000000000000000000000000000000000000000000000000000000000000000000000000000100000000000000000000000000000000000000000000000000000000010010000000000000000000000000000000000000000000000100000000000000000000000000000000000000000000000000000000000000000000000000000000000000000010100000000000000000000000000000000000000000000000000000000100100000000000000000000000000000000000000000000011000000000000000000000000000000000000000000000110000000000000000000000000000000000000000001011000000000000000000000000000000000000000000000000000000001001000100000000000000000000000000000000000000011010001000000000000000000000000000000000000000010010000000000000000000000000000000000000000110100000000000000000000000000000000000000000000000000000000000110010010000000000000000000000000000000000000100010100000000000000000000000000000000000000000100100000000000000000000000000000000000001101110000000000000000000000000000000000000000000000000000000000000000011000000000000000000000000000000000000001000100000000000000000000000000010000000000000000110000000000000000000000000000000000000100100000000000000000000000000000000000000000000000000000000000000000000000000000000000000000000000000000000000001101011000000000000000000000001110000000000000000000000000000000000000000000000000000000110000000000000000000000000000000000000001000000000000000000000000000000000001100000000000000000000000000000000000010110000000000000000000000110110000000000110000000000000000000000000000000000000000000000000000000000000000000000000000000000101000000000000000000000000000000000011000000000000000000000000000000000000000000000000000000000000000100110000000001100000000000000000000000000000000000000000000000000110000000000000000000000000000001010000000000000000000000001111100000000000000000000000000000000000000000000000000000000000000000000001000000000000000000000000011000000000000000000000000000000000000001100000000000000000000000000000001000000000000000000000000010000100000000000000000000000000000000000000000000110000000000000000000000000100000000000000000000001001000000000000000000000000000000000000000000000000000000000000000000000000000000000000000000000000110010000000000000000000000000000000000000000000010100000000010000000000000000000000000000000000000010100000000000000000000000000000000000000000000000011000000000000000000000000000000000000000000000000111000000000000000000000000000000000000000000001011000000001010000000000000000000000000000000000000010000000000000000000000000000000000000000000000001001000000110000000000000000000000000000000000000000100000000000000000000000001000000000000000000100110000000010010000000000000000000000000000000000000000000000000000000000000000000000000000000000000001100000001110000000000000000000000000000000000000000000000000000000000000000101000000000000000000111001000000011000000000000000000000000000000000000000000000000000000000000000000000000000000000000000000000011010000000000000000000000000000000000000000000000000000000000000000001010000000000000000110010010000000000000000000001100000000000000000000000000011000000000000000000000111000000000000000000000000000110011000000000000000000000000000000000000000000000000000000000000000001000000010000000000110000000000000000000001110100100000000000000000000000000110000000000000000000000000000000000000000000000000001100000000000000000000000000000000000010100000000000000000000000000000000000000100000001000000100000000000000000101010010000000000000000000000000000000000000000000000000000000000000000000000000000000000000000000000000000000000000000000001010100000000000000000000000000000000000001000000001101000101100000000000000000110000100000000000000010000000000000000000000000000000000000000000000000000000000000000000000000000000000000000000000000000000000000000000000000000000000000000000000000000011000000000000000000000000001110111100000000000001010000000000000000000000000000000000000000000000000000010000000000000000000000000000000000000000010000000100000000000000000000000000000000000000000000001111000000000000000000000000101001000000000000010010000000000000000000000000000000000000000000000000000110010111000000000000000000000000000000001000000000100000000000000000000000000000000000000000000000100000000000000000000000011000110000000011000011000000000000000000000000000000000000000000000000000010100111110000000000000000000000000000000001000000010000000000000000000000000000000000000000000000000000000000000000000000000010011000000000110000000000000000000000000000000000000000000000000000000000000001011100000000000000000000000000000000100000000010000000000000000000000000000000000000000000000000011000000000000000000111100000000000000000000000000000000000000000000000000000000000000000000000000000000000000000000000000000000000000000000100000001000000000000000011000000000000000000000000000000000110000000000000000011111000000000000000000000000000000000000000000000000000000000000000000000000000000000000000000000000000000000000000000000000000000000000000000001001000000000000000000000000000000000000000000000000001100011000000001110000000000000000000000000000000000000000000000000000000000000000000000000000000000000000000000000000000000000010000000000000000001100000000000000000000000000000000000000000000000000111000111000000000000000000000000000000000000000000000000000000000000000000000000000000000000000000000000000000000000000000001010000000000000000000000000000000000000000000000000000000000000000000000000110001100000010000010000000000000000000000000000000000000000000000000000000000000001110000000000000000000000001000000000000010110000000000000000000000000000000000000000000000000000000000000000000000000111110000000100000100000000000000000000000000000000000000000000000000000000000000000000000000000000000000000110000000000000010000000000000000000000000000000000000000000000000000000000000000000000000000111000000001000001000000000000000000000000000000000000000000000000000000000000000000000000000000000000000001000000000000000011000000010110000000000000000000000000000000000000000000000000000000000000000100000000000000000000000000000000000000000110000000000000000000000000000000000000000000000000000110000000110000000000111001000100010100010000000000000000000000000000000000000000000000000000000000000000000000000001110000000000000110000000000001100000000000000000000000000000000000000000000000000001100000000000000000000101111000100101000100000000000000000000000000000000000000000000000000000000000000000000000000000000000000000001100000000000000000000000000000000000000000000000000000000000000000000000000000001100000000111100111001100101000000000000000000000000000000000000000000000000000000000000000000001100000000000000000000000000000000000000000000000000000011000000000000000000000000010000000000000000000000000000000100000010000000000000000000000000000000000000000000000000000000000000000000000000000011000000000000000000000000000000000000000000000000000000110000000000000000000000000100000000000000000000000000000000000000000000000000000000000000000000000000000000000000000000000000000000000000000000000000000000000000000000110000011000000000000000000001000000000000000011000000000001000000000000000000000000000000000000000000000000000000000000000000000000000000000000000000000000000000000000000001110000000000000000001100010010000110000000000000000000000100000000000000101000000000000000000000000000000000000000000000000000000000000000000000000000000000000000000000000000000000000000000000000000010100011000000000000011000010100000000000000000000000100001000000000000000100000000000000000000000000000000000000000000000000000000000000000000000000000000000000000000000000000000000011000000000000001001000110000000000000000000010000000000000000000000001000000000000000000000000000000000000000000000000000000000000000000000000000000000000000000000000000000000000000000000000000000001001000000000000011100000000000000000000000000000000000000000000000000000100000000000000000000000000000000000000000000000000000000000000000000000000000000000000000000000000000000000000000000000000000010010000000000000111000000000000000000000000000000000000000000000000110000101000000000000000000000000000000000000000000000000001000000000000000000000000000000000000000000000000000000000000110000000000011000000000000000100100000000000000000000000000000000000000000000001100000100000000000000000000000000000000000000000001100000010000000000000000000000000000000000000000000000000000000000001100000000000000000000000000001000000000000000000000000000000000000000000000000000000000000000000000000000000000001100000000000000011000000100000000000000000000000000000000000000000000000000000000000000000000000000000000000000000110110000000000000000000000000000000000000000000000000111100000000000000000000000000100100000000000000000000000000000000000000000000000000000000000000000000000000000000000000000000000000000000000000011000000000000000000000000000000000000000000000000000100000100000000000000000000000000110000000000000000000000000000000000000000000000000000000000000000000000000000000000000000000000000000000000000000000000000000000000000000000000100000000000000000000011000001100000000000000000000000000000000000000000000000000000000000000000000000000000000000000000000000000000000000000000000000000000000000000000000000000000000000000000000000010100000000000000000000000000110000000000000000000000000000000000000000000000000000000000000000000000000000000000000000000000000000000000000000000000000000000000000000000000000000001100011000000000000101000000000000000000010000001000000000000000000000000000000000000000000000000000000000000000000000000000000000000000000000000000000000000000000000000110000000000000000000000000000001010110000000000000100000000000001100000000000100000000000000000000000000000000000000000000000000000000000000000000000000000000000000000000000000000000000000000000000010010000000000000000000000000000001101100000000000000000000000000111000000001100011100000000000000110000000000000000000000000000000000000000000000000000000000000000000000000000000000000000000000000000011000000000000000000000000000100000000000000000000000000000001001011000000000001111000000000000010010000000000000000000000000000000000000000000000110000000000000000000000000000000000000000000000000000000000000000000000000000000000000000000000000000000000000000000110100000000000100001000000000000011000000000000000000000000000000000000000000100010011000000000000000000000000000000000000000000000000000000000000000000000001110010001000000000000000000000000000000000000100000000010001100000000000000000000000000000000000000000000000000000000010101000110000000000000000000000000000000000000000000000000000000000000000000000000000000010000000000000000110000000011000000100000000000100011000000000000000000000000000000000000000000000000000000001001010000000000000000000000000000000000000000000000000000000000000000000000000000000001000010000000000000010010000001001000000110000000000010000000000000000000000000000000000000000000000000000000000001100100100000000000000000000000000000000000000000000000000000000000000000000000000000110000000000000000000011000000001010000001110000000011100000000000000000000000000000000000000000000000000000000000000001101001010000000000000000000000000000000000000000000000000000000000000000000000000100010000000000000000000000000001000000010100000000000000000000000000000000000000000000000000000001100000000000000001101110100100000000000000000000001000000000000000000000000000000000000000000000000000111000000000000000000000000000000000000111000000000000000000000000000000000000000000000000000000011000000000000000011011100101000000000000000000000101000000000000000000000000000000000000000000000000000000000000000000000000000000000000000000000000000000000000000000000000000000000000000000000000000000000000000000000000010000000000000000000000000000100000000000000000000000000000000000000000000000000000000000000000000000000000000000000000000000000001100000000000000000000000000000000000000000000000000000000000000000001000000001110000000000000000000000000000000000000000000000000000000000000011000000000000000000000000000000000000000000000000000000011000000000000000000000000000000000000000000000000000000000000000000000000000000000000000000000000000000000000000000000000000000000000000000000110010000000000000000000000000000000110000000000000000000000000000000000000000000000000000000000000000000000000000000000000000000000010000000000000000000000000000000000000000000000000000000000001101100001010000000000000000000000000000010010001100000000000000000000000000011000000000000000000000000000000000000000000000000000000000000100000000000000000000000000000000000000000000000000000000000011001100010010000000000000000000000000000100100100100000000000000000000000000110000000000000000000000000000000000000000000000000000000000001000000000000000000000000000000000000000000000000000000000001000010000101100000000000000000000000000000110000110000000000000000000000000000000000000000000000000000000000000000000000000000000000000000000000000000000000000000000000000000000000000000000000000000011100101011111111100000000000000000000000000000000000000000000000000000000000000000000000000000000000000000000000000000000000000000000000110000000000000000000000000000000000000000000000000000000000000110101011100010011000000000000000000000000000000000000000000000000000000110000000000000000000000000000000000000000000000000000000000000001100000000000000000000000000000000000001000000000000000000000000101101110001001100000000000000000000000000000000000000000000000000000010010000000000000000000000000000000000000000000000000000000000000000000000000000000000000000000000000000101000000000000000000000000100000000001100000000000000000000000000000000000000000000000000000000100100000000000000000000000000000000000000000000000000000000000000000000000000000000000000000000000000001010000000000000000000000000000000000000000000000000000000000000001110000000000000000000000000000110000000000000000000000000000000000000000000000000000000000000000000000000000000000000000000000000000001000000000000000000000000000000000000000000000000000000000000000000000000000000000000000000000000000000000000000000000000000000000000000000000000000000000000000000000000000000000000000000000000000000000000000000000000000000000000000000000000000000000000000000000000000000000000000000000000000000000000000000000000000000000000000000000000000000000000000000000000000000000000000000000000000000000000000000000000000000000000000000000000000000000000000000000000000000000000000000000000000000000001100000000000000000000000000000000000000000000000000000000000000000000000000000000000000000000000000000000000000000000000000000000000000000000000000000000000000000000000000000000000000000000000000000100100000000000000000000000000000000000000000110000000000000000000000000000000000000000000000000000000000011100000000000000000000000000111000000100000000000000000000000000000000000000000000000000000000110000000000000000000000000000000000000000110000101110000001000000000001100000000000000000000000000000000000000000000000000000000000001101000010010000000000000000000000000000000000000000000000000000000000000000000000000000000000000000000000001101010010110000100000000001000000000000000111000000000000000000000000000000000000000000000101011001000010000000000000000000000000000000000000000000000000000000000000000000000000000000000000000000000001101000000000001001000000010010000000000000000000000000000000000000000000000000000000000001111100010001100000000000000000000000000000000000000000000000000000000000000000000000000000000000000000000000001000001110000001111000000011000000000001000001000000000000000000000000000000000000000000000010000100000100000000000000000000000000000000000000000000000000000000000000000000000000000000000000000000000000000110000000000000000000110000000000010000010000000000000000000000000000000000000000000001110000100010000000000000000000000001000000000000000000000000000000000000000000000000000000000000000000000000010010000000111000010000010010000000000100000100000000000000000000000000000000000000000000000000000000100000000000000000000000101000000000000000000000000000000000000000000000001110000000000000000000000011000000001001001000000000100000000000000000000000000000000000000000000000000000000000000000000000000000000000000000000000001001000000000000000000000000000000000000000000000000000000000000000000000000000000000001100000000001110000000000000111000000000000000000000000000000000000000000000000000000000000000000000000000000000001100000000000000000000000000000000000000000000000000000000000000000000000000000000000000000000000000000000000000000000000000000000000000000000010101110000000000000000000000000000000000000000000000000000000000000000001110000000000000000000000000000000000000000000000000000000000000000000000000000000000000000000000000000000000000000000000000000111000100000000000000000000000000000000000010000000000000000000000000000100100000000000100000000000000000000000000000000000000000000000000000000000000000000000000000000000000000000000000000000001000110100001000000000000000000000000000000000000100000000000000000000000000001100000000000001000000000000000000000000000000000000000000000000000000000000000000000000000000000000000000000000000000011000000011010000000000000000000000000000000000000001000000000000000000000000000000000000000000010000000000000000000000000000000000000000000000000000000000000000000000000000000000000000000000000001000110000000000110000000000000000000000000000000000000000000000000000000000000000000001001000000000000000000000000000000000000000000000001000000000001110000000000000000000000000000000000000000001000111000001000000001000000000000000000000000000000000001110001110000000000000000000000000001100000000000011100000000000000000000000000000000010000000000000000000000000000000000000000000000000000000111110000011011001000000000000000000000000000000000000000000000000000000000000000000100000011000000000000000000000000000010000000000000000000000100000000000101000000000000000000000000000000000000011010000100100000110001010000000000000011000000000000000000000000000000000000000000000010100000111000000000000000000000000001010000000000000000000000000000000001010000000000000000000000000000000000000110011000001100011000000000000000110000110000000000000000000000000000000000000000000000101000001110000000000000000000000000010100000000000000000000000000000000000000000111000000110000000000000000000101000100001000001000000000000000001100000000000000000000000000000000000000000000000000000100000000011000000000000000000000000010000000000000000000000000000001100000000111000000010010000000000000001010000000100000011100000000000010100000000000000000000000000000000000000000000000000000000000000000010110000000000000000000000000000000000000000000000000000000101100001000011100000011000000000000000001100000001001000000000000000001001100000000000000000000000000000100000000000000000000000000000000001101000000000000000000000000000000000000000000000000000000001010000110000000000000000000000000000000000100000000000000000000000000010000100000000000000000000000000001000000000000000000000000000000000011100000000000000000000000000000000000000000000000000000000001000001000000000000000000000000000000000001100000000000000000000000001101001000011000000000000000000000010000000000000000000000000000000011100001100000000000000000000000000000000000000000000000000000000000000000000000000000000000000000000000000000000000000000000000000001011100001001000000000000000000000000000000000000000000000000000001000010000100110000000000000000000000000000000000000000000000000000000000000000000000000000000000000000000000000000000000000000011000001100000001010000000000000000000000011100000000000000000000000000010001010001001100000000000000000000000000000000000000000000000000000000000000000000000000000000000000000000000000000000000000001001000000000000001000000000000000000000000000000000000000000000000000000100001000010000000000000000000000000000000000000000000000000000000000000000000000000000000000000000000000000000000000000000000001010000000000000000000000000000000000000000000000000000000000000000000000110000011000000000000000000000000000000000000000000000000000000000000000000000000000000000000000000000000000000000000000000000001000000000000000000000000000000000000000000000000000000000000000000000000010001000000000000000000000000000000000000000000000000000000010000000000000000000000000000000001100000000000000000000000000000000000000000000000000000000000000000000000000000000000000000000000000000000100010000000000000000000000000000000000000000000000000000001010000000000000000000000000000000011000000000000000000000000000000000000000000000000000000000000000000000000000000000000000000000000000000000111000000000000000000000000000000000000000000000000000000010100000000000000000000000000000000000000000000000000000000000000000000000000000000000000000000000000000000000000000000000000000000000000000000000000000000000000000000000000000000000000000000000000000010000000000000000000000000000000000000000000001100000000000000000000000000000000000000000000000000000000000000000000000000000000000000000000000000000000000000000000000000000000000000000000000000000000000000000000000000000000000000000000000000000011000000000000000000000000000000000000000000000000000000000000000000000000000000000000000000000000000000000000000000000000000000000000000000000000000000000000000000000000000000000000000000000000000000000000000000000000000000000000000000000000000000000000000000000000000000000000000000000000000000000000000000000000000000000000000000000000000000000000000000000000000000000000000000000000000000000000000000000000000000000011000000000000000000000000000000000000000000000000000000000000000000000000000000000000000000000000000000000000110000000000000000000000000000000000000000000000000000000000000000000000000000000000000000110000000000000000000000000000000000000000000000000000000000000000000000000000000000000000000000000000000000001100000000000000000000000000000000000000000000000000000000000000000000000000000000000000000000000000000000000000000000000010000000000000000000000000000000000000000000000000000000000000000000000000000000000000000000000000000000000000000000000000000000000000110000000000000000000000000000000000000000000000000000000000000001010000000000000000000000000000000000000000000000000000000000000000000000000000000000000000000000000000000000000000000000000000000000001010000000000000000000000000000000000000000000000000000000000000010100000000000000000000000000000000000000000000000000000000000000000000000000000000000000000000000000000000000011000000000000000000000001000000000000000000000000000000000000000000000000000000000000000010000000000000000000000000000000001100000000000000000000000000000000000000000000000000000000000000000000000001001000000001100000011000000000000000000000000000000000000000000000000001000000000000000000000000000000000000000000000000000011000000000000000000000000011000000000000000001100000000000000000000000000001100000000011000001001000000000000000000000000000000000000000000000000010000000000000110000000110000000000000000000000000000000000000000000000000000000110000000000000000101100000000000000000000000000000000000000000000010100000000000000000000000000000000000000000000000000100000000000001100000010010000000000000000000000000000000000000000000000000000000000000000000000001000000000000000000000000000000000000000000000000010000000000000000000000000000000000000000000000000000000000000000000000000011000000000000000000000000000000000000000000000000000000000000000000000000101110000000000000000000000000000000000000000000000000000000000000000000000000000000000000000000000000000000000000000000000000000000000000000000000000000000000000000000000000000000000000000000000000000000100000000000000000000000000000000000000000000000000000000000000000000000000000000110000000000000000000000000000000000000000000000000000000000000000000000000000000000000000000000000000000000000000111000000000000000000000000000000000000000000000000000000000000000000000000000000000010010000000000000000000000000000000000000000000000000000000000000000000000000000010000000000000000000000000000000000100110000000000000000000000000000000000000000000000000000000000000000000000000000000101000000000000000000000000000000000000000000000000000000000000000000000000000000100000000000000000000000000000000001001000000000000000000000000000000000000000000000000000000000000000000000000000000000100000000000000000000000000000000000000000000000000000000000000000000000000000001000000000000000000000000000000000001110000000000000000000000000000000000000000000000000000000000000000000000000000000000000000000000000000000000010000000000000000000000000001100110000000000000000000000000000000000000000000000000000000000000000000000000000000000000000001000000000000000000000000000000000000000000000000000000000000000000000000000100000000000000000000000000011001100000000000000000000000000000000000000000000000000000000000000000000000000000000000000000101000000000000000000000000000000000000000000000000000000001100000000000000001000000000000000000000001100000000000000000000000000000000000000000000000000000000000000000000000000000000000000000000000001010000110000000000000000000000000000000000000000000000000100100000000000000000000000000000000000000011000000000000100000000000000000000000000000000000000000000000000000000000000000000000000000000000001000010010000000000000000000000000000000000000000000000001010000000000000000000000000000000000000000000000000000010100000000000000000000000000000000000000000000000000000000000000000000000000000000000000000011000000000000000000000000000000000000000001000000001000000000000000000000000000000000000000000000000000000101000000000000000000000000000000000000000000000000000000000000000000000000000110000000000000000000000000000000000000000000000000000000101000000000000000000000000000000000000000000000000000000000000000100000000000000000000000000000000000000000000000000000000000000000000000000110011000000000000000000000000110000000000000000000000000000110000000000000000000000000000000010000000000000000000000000000000000000000000000011000000000000000000000000000000000000000000000001000000001101000000000000000000000000010100000000000000000000000000000000000000000000000000000000000000100000000000000000000000000000000000000000000000110000000000000000000000000000000000000000000000101000000011010010000000000000000000000010000000000000000000000000000000000000000000000000000000000000001111110000000000000000000000000000000000000000000000000000000000000000000000000000000000000000010010000000010100100111000000000000000000000000000000000000000000000000000000000000000000000000000000000000100010000000000000000000000000000000000000000000000000000000000000000000000000000000000000000011000000001001000100010000000000000000000000000000000000000000000000000000000000000000000000000000000000010001100000000000000000000000000000000000000000000000000000000000000000000000010000000000000000000000001010111000000100000000000000000000000000000000000000000000000000000000000000000000000000000000000100000000000000000000000000000000000000000000000000000000000000110000000000000100000000000000000000000110011000000000000000000111000000000000000000000000000000000000000000000000000000000000000000000001000000000000000000000000000000000000000000000000000000000000011100000000000001000000000000000000000000110100001000000000000011111000011000000000000001000000000000000000000000000000000000000000000000000010111000000000000000000000000000000000000000000000000000000100000000000000000000000000000000000000000101001000100010000001000000000110000000011000011000000000000000000000000000000000000000000000000000001001000000000000000000000000000000000000000000000000000000101000000001110001110000000000000000000000110110001000000000000000000000000000000101000011000000000000000000000000000000000000000000000010010000100000000000000000000000000000000000000000000000000000001010000000000000000000000000000000000000000000110000010000011000000000000000000000011000000000000001000000000000000000000000000000000000001101110000000000000000000000000000011100000000000000000000000010000000110000000101000000000000000000000000001111011100000110000100000000000000000110000000000000101000000000000000000000000000010000110111101001000000000000000000000000000000000000000000000000110000111000001100000000100011000000000000000000000010011000000000110001000000000000000001100000000000001010000000000000000000000000000110000000110101101000100000000000000000000000000000000000000000011000010110000000000000000010000000000000000000000001001110000100000011000000000000000000100000000000000001000000000000000000000000000100110000011011100010010100000000000000000000000000000000000000000011000110000000000000000111100001000000000000000000111101101101100000000010000001100000000000001100000000000000000000000000000000000001001000000001111100001001000000000000000000000000000000000000000000111011000000100000000010000010010000000000110000000001101011101000000001100000100100000000001000100110000000000000000000000000000011010100000000010101000001100000000000000000000000000000000000000000000001110000100100000001000000100100000000010010000000001100111010000000010100000000010000000010110000000000000000000000000000000000001010000000000000000000000000000000000000000000000000000000000001100000000000010001000000000001001100000000000100100110000010101011001000000010100011000110000000100000000000000000000000000000000000000000000000000000010000000000000000000000000000000000000000000011000100000011000100100000000011001100000000000000110001111000100010010010000000000000000000010000000000000000000000000000000000000000000000000000000000000100000000000000000000000000000000000000000000111000000011100001010000000000010101000000000000000000000001001000000000100000000000000011011000000000000000000000000001000000000000000000000000000000000000000000000000000000000000000000000000000000000100001000110000110000000000000000000000000000000000000000000100000001010000101000000000011100000000000000000000000000101000000000000000000000000000000000000000000000000000000000000000000000000000000000001100000000001100000000000000111000000000000000000000000000000000000000000100000000000000000000000000000000000000001010000000000000000000000000000000000000000000000000000000000000000000000000000000000000000000000010000000000000000000000000000000000000000000000001100000000000000000000000000000000000000000000000000001000000000000000000000000000000000000000000000000000000000000000000000000000000000000000000000000000000000000000000000000000000000000000000000000011000000000000000000000000000000000000000000000000000000000000000000000000000000000000000000000000000000000000110000000000000000000000000000000000000000000000000000000000000000000000000111000000000000000000000000000000000000000000000000000000000000000000000000000000000000000000000000000000000000000000000000001100000000000000000000000000001000000110000000000000000000000000000000000000000000000000000000000000000000000000000000000000000000000000000000000000000000000000000000000000001110000000000000000000000000000000000000000000000000000010000001100000000000000011000000000000000000000000000000000000000000000000000000000000000000000000000000000000000000000000000000000000000000000000000000000000000000000000000000000000000000000000000000100000000000000000000001001000000001100000000000000000000000000000000000000000000000000000000000000000000000000000000000000000000000000000000000000000000000000000000000000000000000000000000000000000000000000000000000000000010010000000101000000000000000000000000000000000000000000000000000000000000000000000000000000000000000000000000000000000000000000000000000000000000000000000000000000000000000000000000000000000000000000011000000000100000000000000000000000000000000000000000000000000000000000000000000000000000000000000000000000000000000000000000000000000000000000000000001100000000000000000000000000000000000000000000000000000000000000000000000000000000000000000000000000000000000000000000000000000000000000000000000000000000000000000000000000000000000000000110000000000100100000000000000000000000000000000000000000000000000000000000000000000100000000000000000000000000000000000000000000000000000000000000000000000000000000000000000000000000000000000000000001100000000000110000000000000000000000000000000000000000000000000000000000000000000010100000000000001100000000000000000000000000000000000000000000000000000000000000000000000000000000000000000000000000000000000000000000000000000000000000000000000000000000000000000000000000000000000001010000000000000010100000000000000000000000000000000000000000000000000000000000000000000000000000000000000000000000000000000000000000000000000000000000000000000000000000000000000000000000000000000000101000000000000000100000000000000000000000000000000000000000000000000000000000000000000000000000000000000000000000000000000000000000000000000000000000000000000000000000000000000000000000000000000000000100000000000000000000000000000000000000000000000000000000000000000000000000000000000000000000000000000000000000000000000000000000000000000000000000000000000000000000000000000000000000000000000000000000000000000000000000001100000000000000000000000000000000000000000000000000000000000000000000000000001110000000000000000000000000000000000000000000000000000000000000000000000000000000000000000000000000000000000000000000001001100000000000000000000000000000000000000000000000000000000000000000000000000000000000000000000000000000000001000000000000000000000000000000000000000000000000000000000000000000000000000000000000000010000100000000000000000000000000000000000000000000000000000000000000000000000000000000000000000000000000000000101000000000000000000000000000000000000000000000000000000000000000000000000000000000000000101111000000000000000000000000000000000000000000000000000000000000000000000000000000000000000000000000000000001010000000000000000000000000000000000000000000000000000000000000000000000000000000000000001100100000000000000000000000000000000000000000000000000000000000000000000000000100000000000000000000000000000001000000000000000000000000000000000000000000000000000000000000000000000000000000000000000001110000000000000000000000000000000000000000000000000000000000000000000000000001000000000000000000000000000000000000000000000000000000000000000000000000000110000000000000000000000000000000000000000000001000000000000000000000000000000000000000000000000000000000000000000000000000010000000000000000000000000000000000000000000000011000001000000000000000000001100000000000000000000000000000000000000000000000000000000000000000000000000000000000000000000000000000000000000000000000000000000000000000000000000000000000000000000000000110000010000000000000000000000000000000000000000000000000000000000000000000000000000000000000000000000000000000000000000000000000000000000000000000000000000000110000000000000000000000011000000000000000000000100000000000000000000000000000000000000000000000000000000000000000000000000000000000000000000000000000000000000000000000000000000000000000000000000000001010000000000000000000000110000000000000000000000000000000000000000000000000000000000000000000000000000000000000000000000000000000000000000000000000000000000000000000000000000000000000000000000000000001100000000000000000000000000000000000000000000000000000000000000000000000000000000000000000000000000000000000000000000000000000000000000000000000000000000000000000000000000000000000000000000000000000000000000000000000000000000000000000000000000000000000000000000000000000000000000000000000000000000000000000000000000000000000000000000000000000000000000000000000000000000000000000