P1
200 200
0000000000000000000000000000000000000000000000000000000000000000000000000000000000000000000000000000000000000000100000000000000000000000000000000000000000000000000000000000000000000000010000000000000000000110000000000000000000000000000000000000000000000000000000000000000000000000000000000000000000000000010000010100000000000000000000000000000000000000000000000000000000000000000000001010000000000000100010010000000000000000000000000000000000000000000000000000000000000000000000000000000000000000000000001010000100100000000100000000000000000000000000000000000000000000000000000000000010100000000000001111101110000000000000000000000000000000000000000000000000000000000000000000000000000000000000000000000011000000110000000010100000000000000000000000000000100000100000000000000000000000010000100000000011000001000000000000000000000000000000000000000000000000000000000000000000000000000000000000000000000000000000000000000000101000000000000000000000000000001000010100000000000000000000000000001000000000000001110000000000000000000000000000000000000000000000000000000000000000000000011000000000000000000000000000000000000000000100000000000000000000000000000010000100100000000000000000000000000010000000001000000011000000000000000000000000000000000000000000000000000000000000000000000110000000000000000000000000000000000000000000000000000000000000000000000000000000110000000000000000000000000000000000000010000111001000000000000000000000000000000000000000000000000000000000000000000000000000000000000000000000000000000000001100000001100000000000000000000000000000000000000000001100000000000000000000000000100110000010000000000000000000000000000000000000000000000000000000000000000000000000000000000000000000000000000000000100100000100100000000000000000000000000000000000000000011000000000000000000000000000111011100000000000000000000000000000000000000000000000000000000000000000000000000000000000000000000000000000000000000110000000110000000000000000000000000000000000000000000000000000000000000000000000000000101011000000000000000000000000000000000000000000000000000000000000000000000000000000000000000000000000000000000000000000000000000000000000000000000000000000000000000000000000000000000000001100000000000000010000000000000000000000000000000000000000000000000000000000000000000000000000000000000000000000000000000000000000100000000000000000000000000000000000000000000000000000011110000000000100100000000001100100000000000000000000000000000000000000000000000000000000000000000000000000000000000000000000000000000000000000010100000000000000000000000000000000000000000000000000001111010000000001000000000110001010000000000000000000000000000000000000000000000000000000000000000000000011100000000000000000000000000000000000000101000000000000000000000000000000000000000000000000000111100000000000000001000000100000000000000000000000000000000000000000000000000000110000000000000000000000000000000000000000000000000000000000000000100000000000000000000000000000000000000000000000000011000111000000000010000000111000000000000000000000000000000000000000000000000000010010000000000000000000100000100000000000000000000000000000000000000000000000000000000000000000000000000000000000000001110001000000000000111000000000000000000000000000000000000000000000000000000000000101000000000000000000001000001000000000000000000000000000000000000000000000000000000000000000000000000000000000000000000000010000000000001001000000000000000000000000000000000000000000000000000000000000100000000000000000000010000010000000000000000000000000000000000000000000000000000000000000000000000000000000000000000000000000000000000010000000000000000000000000000000000000000000000000000000000000000000000000000000000000000000000000000000000000000000000000000000000000000000000000000000000000000000000000000000011000000000000000000000001000000000000000000000000000000000000000000000000000000000000000000000000000000000000000000000000000000000000000000000000000000000000000000000000000000000000000000000000000000110000000000000000000111100000000000000000000000000000000000000000000000000000000000000000000000000000000000000000000000000000000000000000000000000000000000000000000000000000000000000000000000000000000000000000011100000010100000000000000000000000000000000000000000000000000000000000000000000000000000000000000000000000000000000000000000000000000000000000000000000000000000110000000000000000000000000000000000000000000000100100000000000000000000000000000000000000000000000000000000000000000000000000000000000000000100000000000000000000000000000000000000000000000000000000100001000000000000000000000000000000000000000000000001000000000000000000000000000000000000000000000000000000000000000000000000000000000000000110100000000000000000000000000000000000000000000000000000001000000000000000000000000000000000000000000000001100010000000000000000000000000000000000000000000110000000000000000000000000000000000000000011101100000000000000000000000000000000000000000000000000000000000010000000000000000000000000000000000000000101000000000000000000000000000000000000000000000010010000000000000000000000000000000000000011111110000000000000000000000000000000000000000000000000000000000111001000000000000000000000000000000000000001001000100000000000000000000000001000000000000000100100000000000000000000000000000000000001100111000000000000000000000000000000000000000000000000000000000000000010000000000000000000000000000000000000011100000100000000000000000000000111000000000000000110000000000000000000000000000000000000100111000000000000000000000000000000000000000000000000000000000000000000000000000000000000000000000000000000000000011000100000000000000000000010111000000000000000000000000000000000000000000000000000000111100000000000000000000000000000000000001000000000000000000000000000100000001100000000000000000000000000000000000001110000000000000000000000110101000000000110000000000000000000000000000000000000000000000000000000000000000000000000000000000101000000000000000000000000100010000011000000000000000000000000000000000000000000000000000000000000000111010000000001100000000000000000000000000000000000000000000000000110000000000000000000000000000001010000000000000000000000001000100000000000000000000000000000000000000000000000000000000000000000000000101100000000000000000000011000000000000000000000000000000000000001100000000000000000000000000000001000000000000000000000000100000100000000000000000000000000000000000000000000110000000000000000000000000000000000000000000000001001000000000000000000000000000000000000000000000000000000000000000000000000000000000000000000000001100110000000000000000000000000000000000000000000011010000000010000000000000000000000000000000000000010100000000000000000000000000000000000000000000000011000000000000000000000000000000000000000000000001000000000000000000000000000000000000000000000001001110000001010000000000000000000000000000000000000010000000000000000000000000000000000000000000000001001000000010000000000000000000000000000000000000001110000000000000000000000001000000000000000000110011100000010010000000000000000000000000000000000000000000000000000000000000000000000000000000000000001100000010000000000000000000000000000000000000000001000000000000000000000000101000000000000000010000100000000011000000000000000000000000000000000000000000000000000000000000000000000000000000000000000000000010001000000000000000000000000000000000000000000000000000000000000000001010000000000000001101100000000000000000000110111100000000000000000000000000011000000000000000000000111000000000000000000000000001001000000000000000000000000000000000000100000000000000000000000000000001000000010000000000011000000000000000000001001100000000000000000000000000000110000000000000000000000000000000000000000000000000001000000000000000000000000000000000000010100000000000000000000000000000000000000100000000000100000000000000000000011011101100000000000000000000000000000000000000000000000000000000000000000000000000000000000000000000000000000000000000000000101000000000000000000000000000000000000001000000010010000000000000000000000000011011110000000000000010000000000000000000000000000000000000000000000000000000000000000000000000000000000000000000000000000100000000000000000000000000000000000000000000000010001000000000000000000000000100101110000000000001010000000000000000000000000000000000000000000000000000011000000000000000000000000000000000000000000000000000000000000000000000000000000000000000000000011101000000000000000000000010100001100000000000010010000000000000000000000000000000000000000000000000000010110001000000000000000000000000000000001100000001100000000000000000000000000000000000000000000010010000000000000000000000011111011000000011000011000000000000000000000000000000000000000000000000000001011110011000000000000000000000000000000100100000100100000000000000000000000000000000000000000000000000000000000000000000000001101100000000110000000000000000000000000000000000000000000000000000000000000011000100000000000000000000000000000000110000000110000000000000000000000000000000000000000000000000011000000000000000000000001010000000000000000000000000000000000000000000000000000000000000000000000000000000000000000000000000000000000000000000000000000000000000000011000000000000000000000000000000000110000000000000000100000000000000000000000000000000000000000000000000000000000000000000000000000000000000000000000000000000000000000000000000000000000000000000000001001000000000000000000000000000000000000000000000000011001000000000001110000000000000000000000000000000000000000000000000000000000000000000000000000000000000000000000000000000000000000000000000000000001100000000000000000000000000000000000000000000000001110101011100000000000000000000000000000000000000000000000000000000000000000000000000000000000000000000000000000000000000000000111000000000000000000000000000000000000000000000000000000000000000000000001100100110000010000010000000000000000000000000000000000000000000000000000000000000001110000000000000000000000011000000000000000110000000000000000000000000000000000000000000000000000000000000000000000001000001000000100000100000000000000000000000000000000000000000000000000000000000000000000000000000000000000000110000000000000100100000000000000000000000000000000000000000000000000000000000000000000000001111100000001000001000000000000000000000000000000000000000000000000000000000000000000000000000000000000000010100000000011001110000000010000000000000000000000000000000000000000000000000000000000000000001110000000000000000000000000000000000000000110000000000000000000000000000000000000000000000000000110000000000000000000101001010000010001111000000000000000000000000000000000000000000000000000000000000001000000000001110000000000000110000000000001100000000000000000000000000000000000000000000000000001100000000000000000001010001001101101101110000000000000000000000000000000000000000000000000000000000000000000000000000000000000000001100000000000000000000000000000000000000000000000000000000000000000000000000000000000000000000001001001110001000000000000000000000000000000000000000000000000000000000000000000001100000000000000000000000000000000000000000000000000000011000000000000000000000000010000000000000000000000000000000000000011000000000000000000000000000000000000000000000000000000000000000000000000000000000000000000000000000000000000000000000000000000000001000000000000000000000000000100000000000000000000000000000000000000000000000000000000000000000000000000000000000000000000000000000000000000000010010000000000000000000000110000011000000000000000000000011100000000000011000000000001000000000000000000000000000000000000000000000000000000000000000000000000000000000000000000000000000000000000000011000000000000000000001100010010000110000000000000000000000000000000000000101000000000000000000000000000000000000000000000000000000000000000000000000000000000000000000000000000000000000000000000000000110110011000000000000011000010100000000000000000000000000000000000000000000100000000000000000000000000000000000000000000000000000000000000000000000000000000000000000000000000000000000011000000000000011101000110000000000000000000010000000000000000000000000000000000000000000000000000000000000000000000000000000000000000000000000000000000000000000000000000000000000000000000000000000001001000000000000000111000000000000000000000000000000000000000000000000000000000000000000000000000000000000000000000000000000000000000000000000000000000000000000000000000000000000000000000000000000000010010000000000000000000000000000000000000000000000000000000000000000110000110000000000000000000000000000000000000000000000000001000000000000000000000000000000000000000000000000000000000000110000000000011000000000000000011100000000000000000000000000000000000000000000001100000100000000000000000000000000000000000000000001100000010000000000000000000000000000000000000000000000000000000000001100000000000000000000000000011010000000000000000000000000000000000000000000000000001001000000000000000000000000001100000000000000011000000100000000000000000000000000000000000000000000000000000000000000000000000000000000000000001000100000000000000000000000000000000000000000000000010000000000000000000000000000000100100000000000000000000000000000000000000000000000000000000000000000000000000000000000000000000000000000000000000010110000000000000000000000000000000000000000000000001011100110000000000000000000000000110000000000000000000000000000000000000000000000000000000000000000000000000000000000000000000000000000000000000000010000000000000000000000000000100000000000000000000100100110110000000000000000000000000000000000000000000000000000000000000000000000000000000000000000000000000000000000000000000000000000000000000000000000000000010001000000000000010100000000000000000000110001101000000000000000000000000000000000000000000000000000000000000000000000000000000000000000000000000000000000000000000000000000000000000000000000000000001011111000000000000101000000000000000000000000010000000000000000000000000000000000000000000000000000000000000000000000000000000000000000000000000000000000000000000000000110000000000000000000000000000010000001000000000000100000000000001000000000000100100000000000000000000000000000000000000000000000000000000000000000000000000000000000000000000000000000000000000000000010010000000000000000000000000000011110100000000000000000000000000010000000000000101100000000000000110000000000000000000000000000000000000000000000001000000000000000000000000000000000000000000000000000011000000000000000000000000000000000000000000000000000000000000011100000000000011001100000000000010010000000000000000000000000000000000000000000001111000000000000000000000000000000000000000000000000000000000000000000000000000000000000000000000000000000000000000000110110000000001011001100000000000011000000000000000000000000000000000000000000100100001000000000000000000000000000000000000000000000000000000000000000000000001110000000000000000000000000000000000000001101100000000010001010000000000000000000000000000000000000000000000000000000010100001110000000000000000000000000000000000000000000000000000000000000000000000000000000000000000000000000110000000011000001001000000000000001000000000000000000000000000000000000000000000000000000001001000111100000000000000000000000000000000000000000000000000000000000000000000000000010100000000000000000010010000001001000000111000000001000000000000000000000000000000000000000000000000000000000000001000101100000000000000000000000000000000000000000000000000000000000000000000000000001000100000000000000000011000000001010000111011000000010010000000000000000000000000000000000000000000000000000000000010110000001110000000000000000000000000000000000000000000000000000000000000000000000001000100000000000000000000000000001000000111110000000011000000000000000000000000000000000000000000001100000000000000000000001110100000000000000000000001000000000000000000000000000000000000000000000000001000000000000000000000000000000000000000111000000000000000000000000000000000000000000000000000000011000000000000000011000011111000000000000000000000101000000000000000000000000000000000000000000000000001110000000000000000000000000000000000000100000000000000000000000000000000000000000000000000000000000000000000000000010000000000000000000000000000000100000000000000000000000000000000000000000000000000000000000000000000000000000000000000000000000000001100000000000000000000000000000000000000000000000000000000000000000000000000001110000000000000000000000000000000000000000000000000000000000000100100000000000000000000000000000000000000000000000000000011000000000000000000000000000000000000000000000000000000000000000000000000000000000000000000000000000000000000000000000000000000000000000011110000010000000000000000000000000000000110000000000000000000000000000000000000000000000000000000000000000000000000000000000000000000000010000000000000000000000000000000000000000000000000000000000001001100000010000000000000000000000000000010010001100000000000000000000000000011000000000000000000000000000000000000000000000000000000000000100000000000000000000000000000000000000000000000000000000000100000101111000000000000000000000000000000100100100100000000000000000000000000110000000000000000000000000000000000000000000000000000000000001000000000000000000000000000000000000000000000000000000000011010110000000011100000000000000000000000000110000110000000000000000000000000000000000000000000000000000000000000000000000000000000000000000000000000000000000000000000000000000000000000000000000000000000010100000000010000000000000000000000000000000000000000000000000000000000000000000000000000000000000000000000000000000000000000000000000110000000000000000000000000000000000000000000000000000000000000110100000000000101000000000000000000000000000000000000000000000000000000110000000000000000000000000000000000000000000000000000000000000001100000000000000000000000000000000000001000000000000000000000000100011000000101100000000000000000000000000000000000000000000000000000010010000000000000000000000000000000000000000000000000000000000000000000000000000000000000000000000000000101000000000000000000000001110110000001110000000000000000000000000000000000000000000000000000000100100000000000000000000000000000000000000000000000000000000000000000000000000000000000000000000000000001010000000000000000000000000000000000001000000000000000000000000001110000000000000000000000000000110000000000000000000000000000000000000000000000000000000000000000000000000000000000000000000000000000001000000000000000000000000000000000000000000000000000000000000000000000000000000000000000000000000000000000000000000000000000000000000000000000000000000000000000000000000000000000000000000000000000000000000000000000000000000000000000000000000000000000000000000000000000000000000000000000000000000000000000000000000000000000000000000000000000000000000000000000000000000000000000000000000000000000000000000000000000000000000000000000000000000000000000000000000000000000000000000000000000000000001100000000000000000000000000000000000000000000000000000000000000000000000000000000000000000000000000000000000000000000000000000000000001000000000000000000000000000000000000000000000000000000000000000100100000000000000000000000000000000000000001110000111000000000000000000000000000000000000000000000000000011100000000000000000000000000111100000000000000000000000000000000000000000000000000000000000000110000000000000000000000000000000000000000010001110001000000000000000001000000000000000000000000000000000000000000000000000000000000011001100110000000000000000000000000000000000000000000000000000000000000000000000000000000000000000000000000000000011000001000110000000000111000000000000111000000000000000000000000000000000000000000001110001010010111000000000000000000000000000000000000000000000000000000000000000000000000000000000000000000000001000110000100001000100000010000000000000000000000000000000000000000000000000000000000000000000001100101010000000000000000000000000000000000000000000000000000000000000000000000000000000000000000000000011100000100000100000100001101100000000001000001000000000000000000000000000000000000000000000011001010010010000000000000000000000000000000000000000000000000000000000000000000000000000000000000000000000011110001000010000010000001101100000000010000010000000000000000000000000000000000000000000001110000000011000000000000000000000001000000000000000000000000000000000000000000000000000000000000000000000000001001100000100001000000011011000000000100000100000000000000000000000000000000000000000000011100000000000000000000000000000000101000000000000000000000000000000000000000000000001110000000000000000000000010000000001001000000000100100000000000000000000000000000000000000000000000000000000000000000000000000000000000000000000000001001000000000000000000000000000000000000000000000000000000000000000000000000000000000001100000000001110000000000000111000000000000000000000000000000111000000000000000000000000000000000000000000000000001100000000000000111000000000000000000000000000000000000000000000000000000000000000000000000000000001100000000000000000000000000000000000000000001110101000000000000000000000000000000000000000000000000000000000000000001010000000000000000000000000000000000000000000000000000000000000000000000000000000000000000000000000000000000000000000000000000011111110000000000000000000000000000000000010000000000000000000000000000100100000000000100000000000000000000000000000000000000000000000000000000000000000000000000000000000000000000000000000000100000010100100000000000000000000000000000000000000100000000000000000000000000001110000000000001000000000000000000000000000000000000000000000000000000000000000000000000000000000000000000000000000100010100000110111000000000000000000000000000000000000001000000000000000000000000000011100000000000010000000000000000000000000000000000000000000000000000000000000000000000000000000000000000000000000000100100000000100001000000000000000000000000000000000000000000000000000000000000000000010010000000000000000000000000000000000000000000000001000000000001110000000000000000000000000000000000000000010000000100111000000001100000000000000000000000000000000001110001110000000000000000000000000100000000000000011100000000000000000000000000000000010000000000001000000000000000000000000000000000000000110000000000000000000000000000000000000000000000000000000000000000000000000000000000000100000011011000000000000000000000000010000000000000000000000100000000000000000000000000000000000000000000000000001000000110000001100000000000000000000011000000000000000000000000000000000000000000000010100001100000000000000000000000000001010000000000000000000000000000000000000000011000000000000000000000000000001000001000010011001000000000000000110000110000000000000000000000000000000000000000000000101000011000000000000000000000000000010100000000000000000000000000000010000000000110000000110000000000000000000111110000000110010100000000000010001100000000000000000000000000000000000000000000000000000100000110000000000000000000000000000010000000000000000000000000000001110000000000000000010010000000000000000100010001100000011000000000000000010000000000000000000000000000000000000000000000000000000000000000110110000000000000000000000000000000000000000000000000000000100010011000011000000011000000000000000001000000000000000011000000000001000010000000000000000000000000000100000000000000000000000000000000000111000000000000000000000000000000000000000000000000000000001011001001000110000000000000000000000000000000000000000000000000000000000000100000000000000000000000000001000000000000000000000000000000000101100000000000000000000000000000000000000000000000000000000001100001100000000000000000000000000000000001100000000000000000000000000000101000011000000000000000000000010000000000000000000000000000000010001100000000000000000000000000000000000000000000000000000000000000000000000000000000000000000000000000000000000000000000000000000010011000001001000000000000000000000000000000000000000000000000000010000001000011110000000000000000000000000000000000000000000000000000000000000000000000000000000000000000000000000000000000000000011000011000000001010000000000000000000000011100000000000000000000000000100100010010111100000000000000000000000000000000000000000000000000000000000000000000000000000000000000000000000000000000000000001001000000000000001000000000000000000000000000000000000000000000000000001001001001001000000000000000000000000000000000000000000000000000000000000000000000000000000000000000000000000000000000000000000001010000000000000000000000000000000000000000000000000000000000000000000000110000011000000000000000000000000000000000000000000000000000000000000000000000000000000000000000000000000000000000000000000000001000000000000000000000000000000000000000000000000000000000000000000000000011011000000000000000000000000000000000000000000000000000000010000000000000000000000000000000001100000000000000000000000000000000000000000000000000000000000000000000000000000000000000000000000000000000101010000000000000000000000000000000000000000000000000000001010000000000000000000000000000000011000000000000000000000000000000000000000000000000000000000000000000000000000000000000000000000000000000000000000000000000000000000000000000000000000000000000000000010100000000000000000000000000000000000000000000000000000000000000000000000000000000000000000000000000000000000000000000000000000000000000000001110000000000000000000000000000000000000000000000000000000010000000000000000000000000000000000000000000001100000000000000000000000000000000000000000000000000000000000000000000000000000000000000000000000000000000000000000000000000000000000000000000000000000000000000000000000000000000000000000000000000000011000000000000000000000000000000000000000000000000000000000000000000000000000000000000000000000000000000000000000000000000000000000000000000000000000000000000000000000000000000000000000000000000000000000000000000000000000000000000000000000000000000000000000000000000000000000000000000000000000000000000000000000000000000000000000000000000000000000000000000000000000000000000000000000000000000000000000000000000000000000011000000000000000000000000000000000000000000000000000000000000000000000000000000000000000000000000000000000000110000000000000000000000000000000000000000000000000000000000000000000000000000000000000000110000000000000000000000000000000000000000000000000000000000000000000000000000000000000000000000000000000000001100000000000000000000000000000000000000000000000000000000000000000000000000000000000000000000000000000000000000000000000010000000000000000000000000000000000000000000000000000000000000000000000000000000000000000000000000000000000000000000000000000000000000110000000000000000000000000000000000000000000000000000000000000001010000000000000000000000000000000000000000000000000000000000000000000000000000000000000000000000000000000000000000000000000000000000001010000000000000000000000000000000000000000000000000000000000000010100000000000000000000000000000000000000000000000000000000000000000000000000000000000000000000000000000000000011000000000000000000000001000000000000000000000000000000000000000000000000000000000000000010000000000000000000000000000000001100000000000000000000000000000000000000000000010000000000000000000000000001001000000001100000011000000000000000000000000000000000000000000000000001000000000000000000000000000000000000000000000000000011000000000000000000000000011000000000000000001010000000000000000000000000001100000000011000001001000000000000000000000000000000000000000000000000010000000000000110000000110000000000000000000000000000000000000000000000000000000110000000000000001100100000000000000000000000000000000000000000000010100000000000000000000000000000000000000000000000000100000000000001100000010010000000000000000000000000000000000000000000000000000000000000000000000010000000000000000000000000000000000000000000000000010000000000000000000000000000000000000000000000000000000000000000000000000011000000000000000000000000000000000000000000000000000000000000000000000000000010000000000000000000000000000000000000000000000000000000000000000000000000000000000000000000000000000000000000000000000000000000000000000000000000000000000000000000000000000000000000000000000000010000010000000000000000000000000000000000000000000000000000000000000000000000000000000110000000000000000000000000000000000000000000000000000000000000000000000000000000000000000000000000000000000000000111000100000000000000000000000000000000000000000000000000000000000000000000000000000010010000000000000000000000000000000000000000000000000000000000000000000000000000010000000000000000000000000000000001001010000000000000000000000000000000000000000000000000000000000000000000000000000000101000000000000000000000000000000000000000000000000000000000000000000000000000000100000000000000000000000000000000000000100000000000000000000000000000000000000000000000000000000000000000000000000000000100000000000000000000000000000000000000000000000000000000000000000000000000000001000000000000000000000000000000000001110000000000000000000000000000000000000000000000000000000000000000000000000000000000000000000000000000000000010000000000000000000000000001100110000000000000000000000000000000000000000000000000000000011100000000000000000000000000000001000000000000000000000000000000000000000000000000000000000000000000000000000100000000000000000000000000011001100000000000000000000000000000000000000000000000000000000000000000000000000000000000000000101000000000000000000000000000000000000000000000000000000001100000000000000001000000000000000000000001100000000000000000000000000000000000000000000000000000000000000000000000000000000000000000000000001010000110000000000000000000000000000000000000000000000000100100000000000000000000000000000000000000011000000000000100000000000000000000000000000000000000000000000000000000000000000000000000000000000001000010010000000000000000000000000000000000000000000000001010000000000000000000000000000000000000000000000000000010100000000000000000000000000000000000000000000000000000000000000000000000000011000000000000011000000000000000000000000000000000000000001000000001000000000000000000000000000000000000000000000000000000101000000000000000000000000000000000000000000000000000000000000000000000000001111000000000000000000000000000000000000000000000000000000101000000000000000000000000000000000000000000000000000000000000000100000000000000000000000000000000000000000000000000000000000000000000000000110001000000000000000000000000110000000000000000000000000000110000000000000000000000000000000000010000000000000000000000000000000000000000000011000000000000000000000000000000000000000000000001000000000001010000000000000000000000010100000000000000000000000000000000000000000000000000000000000001101001000000000000000000000000000000000000000000110000000000000000000000000000000000000000000000101000000000000010001100000000000000000010000000000000000000000000000000000000000000000000000000000000001010010000000000000000000000000000000000000000000000000000000000000000000000000000000000000000010010000000101111000010100000000000000000000000000000000000000000000000000000000000000000000000000000000010000010000000000000000000000000000000000000000000000000000000000000000000000000000000000000000011000000111101110000111000000000000000000000000000000000000000000000000000000000000000000000000000000000001001100000000000000000000000000000000000000000000000000000000000000000000000010000000000000000000000011010000000000000000000000000000000000000000000000000000000000000000000000000000000000000000000001010001000000000000000000000000000000000000000000000000000000000000000000000000100000000000000000000001101100000000000000000000101000000000000000000000000000000000000000000000000000000000000000000000001000001100000000000000000000000000000000000000000000000000000110000000000000001000000000000000000000001010010100000000000000110101000011000000000000001100000000000000000000000000000000000000000000000000001001000000000000000000000000000000000000000000000000000001100000000000000000000000000000000000000001100011000000000000001111100000110000000011100100100000000000000000000000000000000000000000000000001000001000000000000000000000000000000000000000000000000000010000000000001110001110000000000000000000001110100110000000001110110000000000000000101000101000000000000000000000000000000000000000000000000010000110000000000000000000000000000000000000000000000000000100000000000000000010100000000000000000000000101000101010000011000000000000000000000111000100000000001000000000000000000000000000000000000111101111100000000000000000000000000011100000000000000000010001000000000110000000100000000000000000000000000011001000100000000000000000000000000000100000000000000101000000000000000000000000000111000010100000001000000000000000000000000000000000000000000000001100011001100001100000001111000000000000000000000001110000110110000101100000000000000000010100000000000001010000000000000000000000000001001000011000001001000100000000000000000000000000000000000000000010100001110000000000000010001000000000000000000000010100000010110000011010000000000000000010000000000000001000000000000000000000000000100011000000000000111110100000000000000000000000000000000000000000001000000000000000000000000001001000000000000000000110000000000000000000110000001100000000000000000000000000000000000000000000000000011010100000000001100001001000000000000000000000000000000000000000000000000000000000000000010000001110000000000110000001100000100010000000011010000000101000000000001100000000000000000000000000000000001000100000000001101000001100000000000000000000000000000000000000000000101100000011100000000101100001000000000010010000000000101000100100000010110001110101000000010000000000000000000000000000000000000010110000000000011100000000000000000000000000000000000000000000001100000010100111000000000001100100100000000000100100010000111011110000000000011000010110001000000100000000000000000000000000000000000000011000000000000000000000000000000000000000000000000000000000000011000000111001001110000000100010100000000000000110001001010010011110001000000000000011010010000000000000000000000000000000000000000000000000000000000000000000000000000000000000000000000000000000000101010000000010011000000000000101010000000000000000000001010011000001110010000000000000000000100000000000000000000000001000000000000000000000000000000000000000000000000000000000000000000000000000000000110000000010000000000000000000110000000000000000000000001000000000000010000000000000000100010000000000000000000000000101000000000000000000000000000000000000000000000000000000000000000000000000000000001000000000000001000000000000000000000000000000000000000000000000000000000000000000000000111000000000000000000000000001010000000000000000000000000000000000000000000000000000000000000000000000000000000000000000000000010000000000000000000000000000000000000000000000001100000000000000000000000000000000000000000000000000001000000000000000000000000000000000000000000000000000000000000000000000000000000000000000000000000000000000000000000000000000000000000000000000000011000000000000000000000000000000000000000000000000000000000000000000000000000000000000000000000000000000000000110000000000000000000000000000000000000000000000000000000000000000000000000111000000000000000000000000000000000000000000000000000000000000000000000000000000000000000000000000000000000000000000000000001100000000000000000000000000001000000110000000000000000000000000000000000000000000000000000000000000000000000000000000000000000000000000000000000000000000000000000000000000001110000000000000000000000000000000000000000000000000000010000001100000000000000011000000000000000000000000000000000000000000000000000000000000000000000000000000000000000000000000000000000000000000000000000000000000000000000000000000000000000000000000000000100000000000000000000001001000000001100000000000000000000000000000000000000000000000000000000000000000000000000000000000000000000000000000000000000000000000000000000000000000000000000000000000000000000000000000000000000000010010000000101000000000000000000000000000000000000000000000000000000000000000000000000000000000000000000000000000000000000000000000000000000000000000000000000000000000000000000000000000000000000000000011000000000100000000000000000000000000000000000000000000000000000000000000000000000000000000000000000000000000000000000000000000000000000000000000000001100000000000000000000000000000000000000000000000000000000000000000000000000000000000000000000000000000000000000000000000000000000000000000000000000000000000000000000000000000000000000000110000000000100100000000000000000000000000000000000000000000000000000000000000000000100000000000000000000000000000000000000000000000000000000000000000000000000000000000000000000000000000000000000000001100000000000110000000000000000000000000000000000000000000000000000000000000000000010100000000000011100000000000000000000000000000000000000000000000000000000000000000000000000000000000000000000000000000000000000000000000000000000000000000000000000000000000000000000000000000000000001010000000000000100000000000000000000000000000000000000000000000000000000000000000000000000000000000000000000000000000000000000000000000000000000000000000000000000000000000000000000000000000000000000101000000000000000100000000000000000000000000000000000000000000000000000000000000000000000000000000000000000000000000000000000000000000000000000000000000000000000000000000000000000000000000000000000000100000000000000000000010000000000000000000000000000000000000000000000000000000000000000000000000000000000000000000000000000000000000000000000000000000000000000000000000000000000000000000000000000000000000000000000000000010010000000000000000000000000000000000000000000000000000000000000000000000000001110000000000000000000000000000000000000000000000000000000000000000000000000000000000000000000000000000000000000000000001000010000000000000000000000000000000000000000000000000000000000000000000000000000000000000000000000000000000001000000000000000000000000000000000000000000000000000000000000000000000000000000000000000100000100000000000000000000000000000000000000000000000000000000000000000000000000000000000000000000000000000000101000000000000000000000000000000000000000000000000000000000000000000000000000000000000000001101100000000000000000000000000000000000000000000000000000000000000000000000000000000000000000000000000000001010000000000000000000000000000000000000000000000000000000000000000000000000000000000000001011000000000000000000000000000000000000000000000000000000000000000000000000000100000000000000000000000000000001000000000000000000000000000000000000000000000000000000000000000000000000000000000000000010011000000000000000000000000000000000000000000000000000000000000000000000000001000000000000000000000000000000000000000000000000000000000000000000000000000110000000000000000000000000000000000000000000011100000000000000000000000000000000000000000000000000000000000000000000000000010000000000000000000000000000000000000000000000011000001000000000000000000001100000000000000000000000000000000000000000000010000000000000000000000000000000000000000000000000000000000000000000000000000000000000000000000000000000000000000000000000000110000010000000000000000000000000000000000000000000000000000000000000000000000000000000000000000000000000000000000000000000000000000000000000000000000000000000110000000000000000000000011000000000000000000000100000000000000000000000000000000000000000000000000000000000000000000000000000000000000000000000000000000000000000000000000000000000000000000000000000001010000000000000000000000110000000000000000000000000000000000000000000000000000000000000000000000000000000000000000000000000000000000000000000000000000000000000000000000000000000000000000000000000000001100000000000000000000000000000000000000000000000000000000000000000000000000000000000000000000000000000000000000000000000000000000000000000000000000000000000000000000000000000000000000000000000000000000000000000000000000000000000000000000000000000000000000000000000000000000000000000000000000000000000000000000000000000000000000000000000000000000000000000000000000000000000000000