P1
200 200
0001000000000000000000000000000000000000000000000000000000000000000000000000000000000000000000000000000000000000100000000000000000000000000000000000000000000000000000000000000000000000010000000000000000011000000000000000000000000000000000000000000000000000000000000000000000000000000000000000000000000000010000010100000000000000000000000000000000000000000000000000000000000000000000001010000000000000001010000000000000000000000000000000000000000000000000000000000000000000000000000000000000000000000000001010000100100000000100000000000000000000000000000000000000000000000000000000000010100000000000000000000000000000000000000000000000000000000000000000000000000000000000000000000000000000000000000000000011000000110000000010100000000000000000000000000000000000100000000000000000000000010000000000000011100000000000000000000000000000000000000000000000000000000000000000000000000000000000000000000000000000000000000000000000101000000000000000000000000000011100010100000000000000000000000000011100000000000000000000000000000000000000000000000000000000000000000000000000000000000000011000000000000000000000000000000000000000000100000000000000000000000000000000000100100000000000000000000000000000000000000000000000000000000000000000000000000000000000000000000000000000000000000000000110000000000000000000000000000000000000000000000000000000000000000000000000000000110000000000000000000000000000000100000000000000000000000000000000000000000000000000000000000000000000000000000000000000000000000000000000000000000000000000001100000001100000000000000000000000000000000000000000001100000000000000000010100000000000000000000000000000000000000000000000000000000000000000000000000000000000000000000000000000000000000000000000000100100000100100000000000000000000000000000000000000000011000000000000000000101000000010010000000000000000000000000000000000000000000000000000000000000000000000000000000000000000000000000000000000000000110000000110000000000000000000000000000000000000000000000000000000000000000100000001010110000000000000000000000000000000000000000000000000000000000000000000000000000000000000000000000000000000000000000000000000000000000000000000000000000000000000000000000000000000000000011100000000001001000000000000000000000000000000000000000000000000000000000000000000000000000000000000000000000000000000000000000000000100000000000000000000000000000000000000000000000000000000000000011011000000000000000000000000000000000000000000000000000000000000000000000000000000000000000000100000000000000000000000000000000000000010100000000000000000000000000000000000000000000000000000000000000100100000000000000000000000000000000000000000000000000000000000000000000000000000000000000000001000000000000000000000000000000000000000101000000000000000000000000000000000000000000000000000000000111100000000000000000000000000000000000000000000000000000000000000000000000110000000000000000000000010000000000000000000000000000000000000000100000000000000000000000000000000000000000000000000000000010001001100001110000000000000000000000000000000000000000000000000000000000010010000000000000000000000000000000000000000000000000000000000000000000000000000000000000000000000000000000000000000000000001000000000000010000000000000000000000000000000000000000000000000000000000000101000000000000000000011100011100000000000000000000000000000000000000000000000000000000000000000000000000000000000000000000001000100000000000000000000000000000000000000000000000000000000000000000000000100000000000000000000000000000000000000000000000000000000000000000000000000000000000000000000000000000000000000000000000000001000000000010000000000000000000000000000000000000000000000000000000000000000000000000000000000000000100000000000000000000000000000000000000000000000000000000000000000000000000000000000000011000001100001100000000100100000000000000000000000000000000000000000000000000000000000000000000000000000000000001000000000000000000000000000000000000000000000000000000000000000000000000000000000000000110000011000000000001010010000000000000000000000000000000000000000000000000000000000000000000000000000000000000010000000000000000000000000000000000000000000000000000000000000000000000000000000000000000000000000000000000100110000000000000000000000000000000000000000000000000000000000000000000000000000000000000000000000000000000000000000000000000000000000000000000000000000000000000000000000000000000000000000000110000010000000000000000000000000000000000000000000000000000000000000000000000000000000000000000000000110000000000000000000000000000000000000000000000000000000000000000000000000000000000000000000000001100000100000000000000000000000000000000000000000000000000000000000000000000000000000000000000000000000010000000000000000000000000000000000000000000000000000000000111000000000000000000000000000000000000000000111000000000000000000000000000000000000000000000110000000000000000000000000000000000000000001000100000000000000000000000000000000000000000000000000000000001110000000000000000000000000000000000000000000000000011000000000000000000000000000000000000010010000000000000000000000000000000000000000000000110000000000000000000000000000000000000000000000000000000000010000000000000000000000000000000000000000000000000111000000000000000000000000000000000000100100000000000000000000000000000000000000001011010010000000000000000000000000000000000000000000000000000000000110000000000000000000000000000000000000000000010000110000000000000000000000000000000000000110000000000000000000000000000000000000000110100100100000000000000000000000000000000000000000000000000000000001100000000000000000000000000000000000000000000110011100000000000000000000000000000000000000000000000000000000000000000000000000000000101010001000000000000000000000000000001000000000000000000000000010000000001100000000000000000000000000000000000000100110000000000000000000000000000000000110000000000000000000000000000000000000000000000100011000000000000000000000000000000101000000000000000000000000010100000011000000000000000000000000000000000000000000000000000000000000000000000000000001100000000000000000000000000000000000000000000000011100000000000000000000000000000001010000000000000000000000000001000000000000000000000000000000000000000000000000000100000000000000000000000000000000000000000000011000000000000000000000000000001000000000000000000000000000000000000000001000000000000000000000000000000000000000000000000000000000000000000000000001001001000000000000000000110000000000000000000000001001000000000000000000000000000101000000000000000000000000000000000000000000000000000000000000000000000000000000000000000000000000000000000000000000101000000000010000000000000110000000000000000000000010100000000000000000000000000000000000000000000000011000000000000000000000000000000000000000000000000000000000000000000000000000000000000000000000000011001100001010000000000101000000000000000000000000010000000000000000000000000000000000000000000000001001000000000000000000000000000000000000000000000000000000000000000000000000001000000000000000000000011010000010010000000001100000000000000000000000000000000000000000000000000000000000000000000000000001100000100000000000000000000000000000000000000000000000000000000000000000000101000000000000000000001100000000011000000000000000000000000000000000000000000000000000000000000000001000000000000000000000000000111100000000000000000000000000000000000000000000000000000000000000000001010000000000000000011011000000000000000000000000000000000000000000000000000011000000000000000000000010000000000000000000000000000000100000000000000000000000000000000000000000000000000000000000000000001000000000000000000001000000000000000000000011100000000000000000000000000000110000000000000000000000100000000000000000000000000010011100000000000000000000000000000000000000000000000000000000000000000000000001110000000000000000000000000000000010111000000000000000000000000000000000000000000000000000000000000000000000000000000000011001000000000000000000000000000000100000000000000000000000000000000000000000000000000000000000000000000000000001100011000000000000000000010000000000000000000000000000000000000000000000000000000000000011011000000000000000000000000000010100000000000000000000000000000000000000000000000000000000000000000000000000011100100000000000000000001010000000000000000000000000000000000000000000000000000000000000110111000000000000000000000000000000010000000000000000000000000000000000000000000000000000000000000000000000000111001011000000000000000010010000000000000000000000000000000000000000000000000000000010000101000000000000000000000000000010000010000000000000000000000000000000000000000000000000000000000000000000000000000010001000000000011000011000000000000000000000000000000000000000000000000000000000100000000000000000000000000000000000000000011000000000000000000000000000000000000000000000000000000000000000000000001011100010000000000110000000000000000000000000000000000000000000000000000000000000001000000000000000000000000000000000001000101010000000000000000000000000000000000000000000000000000011000000000000000010000111000000000000000000000000000000000000000000000000000000000000000000001100000000000000000000000000000000000000000000010001000000000000000000011000000000000000000000000000000000110000000000000000000001110000000000000000000000000000000000000000000000000000000000000000000101000000000000000000000000000000000000000000010000000000000000000000001001000000000000000000000000000000000000000000000000000011100000000000000000000000000000000000000000000000000000000000000000000000010000000000000000000000000000000000000000000000000000001100000000000001100000000000000000000000000000000000000000000000000000001000000000001000000000000000000000000000000000000000000000000000000000000000000010000000000000000000000000001101100110000000000011010000000000000000000000000000000000000000000000000000000000000000000000000000000111000000000000000000000000000000000000000000000000000000000000000000100000000000000000000100000100000100000000000001000100000000000000000000000000000000000000000000000000000000000000000000000000000011011000000000000000000000000000000000000000000000000000000000000000001000000000000000000010100000100000000000000001100111000000000000000000000000000000000000000000000000000000000000000000000000000000011100000000000000000000000000000000000000000000000000000000000000000000000000000000000000100100101100011011100000011000100000000000000000000000000000000000000000000000000000000000000000000000000000000010000000000000000000000000000110000000000000000000000000000000000000000000000000000110000110010000000011011000000110010010000000000000000000000000000000000000000000000000000000000000000000000000000000000000000000000110000000000001100000000000000000000000000000000000000000000000000001100000000010010000010100000000000100100000000000000000000000000000000000000000000000000000000000000000000000000000000000000000000001100000000000000000000000000000000000000000000000000000000000000000000000000000011010000010000000000000100000000000000000000000000000000000000000000000000000000000000000000000001100000000000000000000000000000000000000000000000000000011000000000000000000000000000000000000000000000001000000000000000000000000000000000000000000000000000000000000000000000000000000000000000000000011000000000000000000000000000000000000000000000000000000110000000000000000000000001110000000000000000000000000000000000000000000000000000000000000000000000000000000000000000000000000000000000000000000000000000000000000000000110000011000000000000000000000000000000000000011000000000000000000000000000000000000000000000000000000000000000000000000000000000000000000000000000000000000000000000000000000000000000000000000001100010010000110000000000000000000000000000000000000101000000000000000000000000000000000000000000000000000000000000000000000000000000000000000000000000000000000000000000000000000000000011000000000000011000010100000000000000000000000000000000000000000000100000000000000000000000000000000000000000000000000000000000000000000000000000000000000000000000000000000000011000000000000000000000110000000000000000000010000000000000000000000001110000000000000000000000000000000000000000000000000000000000000000000000000000000000000000000000000000000000000000000000000000001001000000000000000000000000000000000000000000000000000000000000000001001100000000000000000000000000000000000000000000000000000000000000000000000000000000000000000000000000000000000000000000000000000010010000000000000000000000000000000000000000000000000000000000000000101100100000000000000000000000000000000000000000000000000000000000000000000000000000000000000000000000000000000000000000110000000000011000000000000000000000000000000000000000000000000000000000000000001100010100000000000000000000000000000000000000000001100000111000000000000000000000000000000000000000000000000000000000001100000000000000000000000000000000000000000000000000000000000000000000000000000001100010000000000000000000000000001100000000000000011000000000000000000000000000000000000000000000000000000000000000000000000000000000000000000000000001000000000000000000000000000000000000000000000000011000000000000000000000000000000100100000000000000000000000000000000000000000000000000000000000000000000000000000000000000000000000000000000000000000111000000000000000000000000000000000000000000101000111000000000000000000000000000000110000000000000000000000000000000000000000000000000000000000000000000000000000000000000000000000000000000000000000011010000000000000000000000000000000000000000001011100110000000000000000000000000000000000000000000000000000000000000000000000000000000000000000000000000000000000000000000000000000000000000000000000000110000000000000000000000000000000000000000000101101000000000000000000000000000000000000000000000000000000000000000000000000000000000000000000000000000000000000000000000000000000000000000000000000000011100000000000000000000000000111000000000000001010001000110000000000000000000000000000000000000000000000000000000000000000000000000000000000000000000000000000000000000000000000000110000000000000000000000000000001100000000000000000000000000000000000000000000100000000000000000000000000000000000000000000000000000000000000000000000000000000000000000000000000000000000000000000000010010000000000000000000110000000011100000000000000000000000000000010001100001011000000000000000000110000000000000000000000000000000000000000000000000000000000000000000000000000000000000000000000000000011000000000000000000001010000000100100000000000000001100000000001000000000001000000000000000000010010000000000000000000000000000000000000000000000000000000000000000000000000000000000000000000000000000000000000000000000000100010000000110000000000000001101000000000010010000000000000000000000000000011000000000000000000000000000000000000000000000000000000000000000000000000000000000000000000000000000000000000000000000000000000010010001000000000000000100000000000000100000000000100000000000000000000000000000000000000000000000000000000000000010000000000000000000000000000000000000000000000000000000000000000000000000000000000000111100000000000000000001001001100000000100011000010110000000000000000000000000000000000000000000000000000000000001010000000000000000000000000000000000000000000000000000000000000000000000000000000011000010000000000000000000100111111100000000100010000000100000000000000000000000000000000000000000000000000000000000010100000000000000000000000000000000000000000000000000000000000000000000000000000000011000000000000000000000001100011100000000000111000100011000000000000000000000000000000000000000000000000000000000000010000011100000000000000000000000000000000000000000000000000000000000000000000000000000100000000000000000000001000010010000000000000010000100000000000000000000000000000000000000000000001100000000000000000000100000000000000000000000000001000000000000000000000000000000000000000000000000000000000000000000000000000000111100000000000001100110100000000000000000000000000000000000000000000011000000000000000000000100001000000000000000000000101000000000000000000000000000000000000000000001100000000000000000000000000010001111000000000000111011011011000000000000000000000000000000000000000000000000000000000000000000100010000000000000000000000100000000000000000000000000000000000000000000100000001000000000000000000000001100000000000000000000010100000000000000000000000000000000000000000000000000000000000000000000000010110000000000000000000000000000000000000000000000000000000000000000000000100011000000000000000000000000000000000000000000000011011100000000000000000000000000000000000000000000000000000000000000000000000000000000000000000000000000000000000000000000000000000000000000001001001000110000000000000000000000000010000000000000000000000110000000000000000000000000000000000000000000000000000000000000000000000000000000000000000000000000000000000000000000000000000000000000101101111111000000000000000000000000000000100001100000000000000000000000000011000000000000000000000000000000000000000000000000000000000000000000000000000000000000000000000000000000000000000000000000001010100000011100000000000000000000000000001000100100000000000000000000000000110000000000000000000000000000000000000000000000000000000000000000000000000000000000000000000000000000000000000000000000000100000000001000000000000000000000000000000000000110000000000000000000000000000000000000000000000000000000000000000000000000000000000000000000000000000000000000000000000000000000000000000000000000000000111100000010101000000000000000000000000000000000000000000000000000000000000000000000000000000000000000000000000000000000000000000000000110000000000000000000000000000000000000000000000000000000000000001011000000011011000000000000000000000000000000000000000000000000000000110000000000000000000000000000000000000000000000000000000000000001010000000000000000000000000000000000001000000000000000000000000011100000000000000000000000000000000000000000000000000000000000000000010010000000000000000000000000000000000000000000000000000000000000000000000000000000000000000000000000000101000000000000000000000000000000000000000000000000000000000000000010000000000000000000000000000100100000000000000000000000000000000000000000000000000000000000000010000000000000000000000000000000000001010000000000000000000000000000000000000000000000000000000000000000100000000000000000000000000000110000000000000000000000000000000000000000000000000000000000000001001000000000000000000000000000000000001000000000000000000000000000000000000000000000000000000000000000001000000000000000000000000000000000000000000000000000000000000000000000000000000000000000000000111100000000000000000000000000000000000000000000000000000000000000000000000000000000000000000000000000000000000000000000000000000000000000000000000000000000000000000000000000000000000000000000000000001100000000000000000000000000000000000000000000000000000000000000000000000000000000000000000000000000000000000000000000000000000000001100000000000000000000000000000000000000000000000000000000000000000000010000000000000000000000000000000000100000000000000000000000000000000000000000000000000000000000000000000000000000000000000000000100100000000000000000000000000000000000000000110000000000000000000000000110000000000000000000000000000000001000000000000000000000000000000000000000000000000000000000000000000000000000000000000000000000110000000000000000000000000000000000000000010010000111000000001100000100100000000000001000000000000000000010000000000000000000000000000000000000000000000000000000000000000000000000000000000000000000000000000000000000000000000000000000000000000010100000000000000011000001110000000000000010000000000000000000000000000000000000000000000000111000000000000000000000000000000000000000000000000000000000000000000000000000000000000000000000000000000000010001000001000000000000001000000000000000100000000000000000000000000000000000000000000000001001100000000000000000000000000000000000000000000000000000000000000000000000000000000000000000000000000000000000010000010000000000000000000000000000000000000000000000000000000000000000000000000000000011001000000000000000000000000000000000000000000000000000000000000000000000000000000000000000000000000000000000000100000100001110000000000000000000111000111000000000000000000110110000000000000000000000001010000000000000000000000000000001000000000000000000000000000000000000000000000000010000000000000000000000000000011100000010100000000000000000000000000000000000000000000001000001000000000000000000000001000000000000000000000000000000101000000000000000000000000000000000000000000000000100000000000000000000000000000101000001001000000000000000000000001000000000000000000000010000001000000000000000000000000000000000000000000000000000001001000000000000000000000000000000000000000000000001000000000000000000000000000001010000011100011000000000000000000010000000000000000000001010000010000000000000000000000000000000000000000000000000000001100000000000000000000000000000000000000000000000000000000000000000000000000000111000011110111010000000000000000000100000000000000000000000000100000000000000000000000000000000000000000000000000000000000000000000000000000000000000000000000000000000000000000000000000000000000000001100000101011110000000000000000000000000000000000000000000000000001000000000000000000000000000000000000000000000000000000000000000000000000000000000000000000000000000000000000000000000000000000000000010001100101011111000000000000000000000000000000000000000101100010010000000000000000000000000000000000000001110000000000000000000000000000000000000000011100000000000000000000000000000000000000000000000110011001000000010000000000000000000000000000000000000001110100100100000000000000000000000000000000000000000000000000000000000000000000000000000000000000000000000000000000000000000000000000000000000000010101001100000000000000000000000000000000000000000000100000011010000000000000000000000000000000000000010000010000000000000000000000000000000000000000000100000000000000000000000000000000000000000000000110010011100000000000000000000000000000000000011000011001101111000010000000000000000000000000000000000100000100000000000000000000000000000000000000000001000000000000000000000000000000000111000000000000111000001110000000000000000000000000000000001110000110011111100001110000000000000000000000000000000001000001000000000000000000100000000000000000000000010000000000010000000000000000000000000000000000000010000011100000000000000000000000000000011000010000111000000000110110000000011000000000000000000000000000000000000000000000010100000001000000000000000000000000001010000000000000000000000000000000000000100000010000000000000000000000000000001000000100000001100000000000110110000110000000000000000000000000000000000000000000000101000000111000000000000000000000000010100000000000000000000000000000000000111100000010001100000000000000000000000110000001100010010000000000001111100000000000000000000000000000000000000000000000000000100000010011000011000000000000000000010000000000000000000000000000000000011011100011100100100000000000000000000001000000000000100100000000000011000000000000000000000000000000000000000000000000000000000000001110110000001000000000000000000000000000000000000000000000000000001100011001000000110000000000000000000000011110000000001010000001101101100000000000000000000000000000000000000000000000000000000000000001101110000000000000000000000000000000000000000000000000000000000001011111010100000000000000000000000000000011000000000001000000011011110000000000000000000000000000011100000000000000000000000000000000001101000010000000000000000000000000000000000000000000000000000000001111011110000000000000000000000000000000000000000000000000000001001000000011000000000000000000000000000000000000000000000000000000000001100000001000000000000000000000000000000000000000000000000000000000100010000000000000000000000000000000000000000000000011000001100000000001001000000000000000000000000100000000000000000000000000000000100000001000000000000000000000000000000000000000000000000000000000000110000000000000000000000000000000000000000000000000101000011000000000001010000000000000000000000001000000000000000000000000000000001000110011100000000000000000000000000000000000000000000000000000000000100000000000000000000000000000000000000000000000001001000000000000000001000000000000000000000000010000000000000000000000000000000100011110000000000000000000000000000000000000000000000000000000000000000000000000000000000000000000000000000000000000000001010011100000000000000000000000000000000000000000000000000000000000000000000000100000010000000000000000000000000000000000000000000000000000000000000000000000000000000000000000000000000000000000000000000010000000000000000000000000000000000000000000000000000000000000000000000000000000111000000000000000000000000000000000000000000000000000010000000000000000000000000000000001100000000000000000000000000011101010000000000000000000000000000000000000000000000000000000000000000000000000001100000000000000000000000000000000000000000000000000001010000000000000000000000000000000011000000000000000000000000000110001000000000000000000000000000000000000000000000000000000000000000000000000000000000000000000000000000000000000000000000000000000000010100000000000000000000000000000000000000000000000000000000000000000000000000000000000000000000000000000000000000000000000000000000000000000000000000000000000000000000000000000000000000000000000000000010000000000000000000000000000000000000000000001100000000000000000000000000000000000000000000000000000000000000000000000000000000000000000000000000000000000000000000000000000000000000000000000000000000000000000000000000000000000000000000000000000011000000000000001010000000000000000000000000000000000000000000000000000000000000000000000000000000000000000000000000000000000000000000000000000000000000000000000000000000000000000000000000000000000000000000000000000100001100000000000000000000000000000000000000000000000000000000000000000000000000000000000000000000000000000000000000000000000000000000000000000000000000000000000000000000000000000000000000000000000000100001000000000000000000000000000000000000000000000000000000000000000000000000000000000000000000000000000000000000110000000000000000000000000000000000000000000000000000000000000000000000000000000000000111100000000000000000000000000000000000000000000000000000000000000000000000000000000000000000000000000000000000001100000000000000000000000000000000000000000000000000000000000000000000000000000000000000000000000000000000000000000000000010000000000000000000000000000000000000000000000000000000000000000000000000000000000000000000000000000000000000000000000000000000000000110000000000000000000000000000000000000000000000000000000000000001010000000000000000000000000000000000000000000000000000000000000000000000000000000000000000000000000000000000000000000000000000000000001010000000000000000000000000000000000000000000000000000000000000010100000000000000000000000000000000000000000000000000000000000000000000100000000000000000000000000000000000000011000000000000000000000001000000000000000000000000000000000000000000000000000000000000000010000000000000000000000000000000001100000000000000000000000000000000010000000001000000000000000000000000000001001000000001100000011000000000000000000000000000000000000000000000000000000000000000000000000000000000000000000000000000000011000000000000000000000000011000000000000000101100000000000000000000000000001100000000011000001001000000000000000000000000000000000000000000000000111000000000000110000000110000000000000000000000000000000000000000000000000000000110000000000000001000100000000000000000000000000000000000000000000010100000000000000000000000000000000000000000000000000000000000000001100000010010000000000000000000000000000000000000000000000000000000000000000001110001001000000000000000000000000000000000000000000000010000000000000000000000000000000000000000000000000000000000000000000000000011000000000000000000000000000000000000000000000000000000000000000000100010001100000000000000000000000000000000000000000000000000000000000000000000000000000000000000000000000000000000000000000000000000000000000000000000000000000000000000000000000000000000000000000000001000010000000000000000000000000000000000000000000000000000000000000000000000000000000000000110000000000000000000000000000000000000000000000000000000000000000000000000000000000000000000000000000000000001001000000000000000000000000000000000000000000000000000000000000000000000000000000000000010010000000000000000000000000000000000000000000000000000000000000000000000000000000000000000000000000000000000000100000000000000000000000000000000000000000000000000000000000000000000000000000000000000101000000000000000000000000000000000000000000000000000000000000000000000000000001110000000000000000000000000000000000000000000000000000000000000000000000000000000000000000000000000000000000000000000000100000000000000000000000000000000000000000000000000000000000000000000000000000000000000000000000000000000000000000000000000000000000000000000000000000000000000000000000000000000000000000000000000000000000000000000000000000000000000000000000000000000000001100110000000000000000000000000000000000000000000000000000000000000000000000000000000000000000001000000000000000000000000000000000000000000000000000000000000000000000000001110000000000000000000000000011001100000000000000000000000000000000000000000000000000000000000000000000000000000000000000000101000000000000000000000000000000000000000000000000000000001100000000000000000000000000000000000000001100000000000000000000000000000000000000000000000000000000000000000000000000000000000000000000000001010000110000000000000000000000000000000000000000000000000100100000000000000000000000000000000000000011000000000000100000000000000000000000000000000000000000000000000000000000000000000000000000000000001000010010000000000000000000000000000000000000000000000001010000000000000000000000000000000000000000000000000000010100000000000000000000000000000000000000000000000000000000000000000000000000000000000000000011000000000000000000000000000000000000000001000000001000000000000000000000000000000000000000000000000000000101000000000000000000000000000000000000000000000000000000000000000000000000000110000000000000000000000000000000000000000000000000000000101000000000000000000000000000000000000000000000000000000000000000100000000000000000000000000000000000000000000000000000000000000000000000000010010000000000000000000000000110000000000000000000000000000110000000000000000000000000000000000000000000000000000000000000000000000000000000011000000000000000000000000000000000000000000000001000000000100100000000000000000000000010100000000000000000001100000000000000000000000000000000000000001110000000000000000000000000000000000000000000000110000000000000000000000000000000000000000000000101000000000110000000000000000000000000010000000000000000000000000000000000000000000000000000000000000000000110000000000000000000000000000000000000000000000000000000000000000000000000000000000000000010010000000000000000000000000000000000000000000000000000000000010000000000000000000000000000000000000000000010010000000000000000000000000000000000000000000000000000000000000000000000000000000000000000011000000000000000000000000011110000000000000000000000000000000111000000000000000000000000000000000000000000101000000000000000000000000000000000000000000000000000000000000000000000000000000000000000000000000000000000000000001110000001000000000000000000000000000111011000000000000000000000000000000000000000000100000000000000000000000000000000000000000000000000000000000000000000000000000000000000000000000000000000000000000101101100010000000000000000000000000000110100000000000000000000000000000000000000000000000000000000000000000000000000000000000000000000000000000000000000000000000000000000000000000000000001100001110001000110000010000011000000000000000000000010000000000000000000000000000000000000000000000000000000000000000000000000000000000000000000000000000000000000000000000010000000000000000000000000100100011101010100011111100000110000000000000000000000000000000000000000000000000000000000000000000000000000000000000000000000000000000000000000000000000000000110001000000000111000000000000000000000000101001001010001000011110000000000000000000000000000000000000000000000000000000000000000000000000001000000110000000000000000000000000100000000000000000000000000110100010000000000000000000000000000000000100110100101111100000000000000000000010000000000000000001000000000000000000000000000000000000000101000001100000000000000000000000001000000000000000000000000010001010010000010000000000000000000000000000000100111110000010000000000000000011100001100000000000101000000000000000000000000000011000000111010000000000000000000000000000000010000000000000000000000000000111001100000000000000000000000000000000000000111101000000000000100000000000110001100100000000001010000000000000000000000000001010001011101100000000100000000000000000000000000000000000000001100000111000100000000000100100000000000000000000000000000000000000000000010110000000001011000000010000000001000000000000000000000000000010001000110100000000010100000000000000000000000000000000011000011000111011010000000000000101000000000000000000000000000000000000000000000100010000000000010000011110000000000000000000000000000001100000110000100000000000001001000000000000000000000000000000000110001100110000100000000000000000110000000000000000110000000000000000000000000000000010000000111010000000010000000000000000000000000000011000000000001000000000000001100000000000000000000000000000000000000001001000111010000000000000000000000000000000010010000000000000001100000010000101000000000111011000111000000000000000000000000000000000000000001000000000000000000000000000000000000000000000000000000011001000000111110000000000000000000000000000000100100110001100000100100001010000000000000001110000110100000000000000000000000000000000000000000000000000000000000000000000000000000000000000000000000000000111110111100100000000000000000000000000000000110001100100100001001000101110000000000000000000000000000000000000000000000000000000000000000000000000000000000000000000000000000000000000000000000000000111011000000010000000000000000000000000000000000000000000101000001100001100100000000000000000000000000000000000000001000000000000000000000000000000000000000000000000000000000000000000000000000000000000000000111101000000000000000000000000000000000000000000000100000000000100010000000000100000000000000000000000000000101000000000000000000000000000000000000000000000000000000000000000000000000000000000001010011100100000000000000000000000000000000000000000000000000000000001101100000000011100000000000000000000000000001010000000000000000000000000000000000000000000000000000000000000000000000000000000000011011110000000000000000000000000000000000000000000000000000001100000000000000000000101100000000000000000000000000001000000000000000000000000000000000000000000000000000000000000000000000000000000000000000010110000000000000000000000000000000000000001000000000000011000000000000000000011010000000000000000000000000000000000000000000000000000000000000000000000000000000000000110000000000000000000000000000001101111100000000000000000000000000000000000010000000000000000000000000000000000111001000000000000000000000000000000000000000000000000000000000010000000000000000000000001100000000000000000000000000001110010111000000000000000000000000000000000000100000000000000000000000000000000001110000000000000000000000000000000000000000000000000000000000000100000000000000000000000000000000000000000000000000000011100000000000000000000011000000000000000000000000000000000000000000000000000000000010000000000000000000000000000000000000000000000000000000000001000000000000000000000000000000000000000000000000000000110000000000000000000001001000000001100000000000000000000000000000000000000000000000111000000000000000000000000000000000000000000000000000000000000000000000000000000000000000000000000000000000000000000000000000000000000000010010000000101000000000000000000000000000000000000000000000000000000000000000000000000000000000000000000000000000000000000000000000000000000000000000000000000000000000000000000000000000000000000000000011000000000100000000000000000000000000000000000000000000000000000000000000000000000000000000000000000000000000000000000000000000000000000000000000000001100000000000000000000000000000000000000000000000000000000000000000000000000000000000000000000000000000000000000000000000000000000000000000000000000000000000000000000000000000000000000000110000000000100100000000000000000000000000000000000000000000000000000000000000000000100000000000000111000000000000000000000000000000000000000000000000000000000000000000000000000000000000000000000000001100000000000110000000000000000000000000000000000000000000000000000000000000000000010100000000000001110000000000000000000000000000000000000000000000000000000000000000000000000000000000000000000000000000000000000000000000000000000000000000000000000000000000000000000000000000000000001010000000000001100000000000000000000000000000000000000000000000000000000000000000000000000000000000000000000000000000000000000000000000000000000000000000000000000000000000000000000000000000000000000101000000000000010011100000000000000000000000000000000000000000000000000000000000000000000000000000000000000000000000000000000000000000000000000000000000000000000000000000000000000000000000000000000000100000000000000000000000000000000000000000000000000000000000000000000000000000000000000000000000000010000000000000000000000000000000000000000000000000000000000000000000000000000000000000000000000000000000000000000001000000000000000000000000000000000000000000000000000000000000000000000000000000000000100000000000000000000000000000000000000000000000000000000000000000000000000000000000000000000000000000000000000000010001100000000000000000000000000000000000000000000000000000000000000000000000000000001000000000000000000000000000001000000000000000000000000000000000000000000000000000000000000000000000000000000000000010010000000000000000000000000000000000000000000000000000000000000000000000000000000000000000000000000000000000000101000000000000000000000000000000000000000000000000000000000000000000000000000000000000101000000000000000000000000000000000000000000000000000000000000000000000000000000000000000000000000000000000000001010000000000000000000000000000000000000000000000000000000000000000000000000000000000000000000000000000000000000000000000000000000000000000000000000000000000000000000000000000000000000000000000000000001000000000000000000000000000000000000000000000000000000000000000000000000000000000000000000000000000000000000000000000000000000000000000000000000000000000000000000000011100000000000000000000000000000000000000000000000000000000000000000000000000110000000000000000000000000000000000000000000000000000000000000000000000000000000000000000000000000000000000000000000000000000000000000000000000000000000000000000000000000011000000000000000000000000001100000000000000000000000000000000000000000000000000000000000000000000000000000000000000000000000000000000000000000000000000000000000000000000000000000000000000000000000000110000111000000000000000000000000000000000000000000000000000000000000000000000000000000000000000000000000000000000000000000000000000000000000000000000000000000110000000000000000000000011000000000000000000000000000000000000000000000000000000000000000000000000000000000000000000000000000000000000000000000000000000000000000000000000000000000000000000000000000001010000000000000000000000110000000000000000000000000000000000000000000000000000000000000000000000000000000000000000000000000000000000000000000000000000000000000000000000000000000000000000000000000000001100000000000000000000000000000000000000000000000000000000000000000000000000000000000000000000000000000000000000000000000000000000000000000000000000000000000000011000000000000000000000000000000000000000000000000000000000000000000000000000000000000000000000000000000000000000000000000000000000000000000000000000000000000000000000000000000000000000000000000000000000000000000000000