P1
200 200
0000000000000000000000000000000000000000000000000000000000000000000000000000000000000000000000000000000000000000100000000000000000000000000000000000000000000000000000000000000000000000010000000000000000000000000000000000000000000000000000000000000000000000000000000000000000000000000000000000000000000000010000010100000000000000000000000000000000000000000000000000000000000000000000001010000000000000110000100000000000000000000000000000000000000000000000000000000000000000000000000000000000000000000000001010000100100000000100000000000000000000000000000000000000000000000000000000000010100000000000001011101100000000000000000000000000000000000000000000000000000000000000000000000000000000000000000000000011000000110000000010100000000000000000000000000000100000100000000000000000000000010000100000000001001011000000000000000000000000000000000000000000000000000000000000000000000000000000000000000000000000000000000000000000101000000000000000000000000000001000010100000000000000000000000000001000000000000111000000000000000000000000000000000000000000000000000000000000000000000000011000000000000000000000000000000000000000000100000000000000000000000000000010000100100000000000000000000000000010000000000000000000000000000000000000000000000000000000000000000000000000000000000000000110000000000000000000000000000000000000000000000000000000000000000000000000000000110000000000000000000000000000000000000011111111000000000000000000000000000000000000000000000000000000000000000000000000000000000000000000000000000000000000001100000001100000000000000000000000000000000000000000001100000000000000000000000000111100001100000000000000000000000000000000000000000000000000000000000000000000000000000000000000000000000000000000000100100000100100000000000000000000000000000000000000000011000000000000000000000000000000100100100000000000000000000000000000000000000000000000000000000000000000000000000000000000000000000000000000000000110000000110000000000000000000000000000000000000000000000000000000000000000000000000000001001000000000000000000000000000000000000000000000000000000000000000000000000000000000000000000000000000000000000000000000000000000000000000000000000000000000000000000000000000000000000000000000000010010010000000000000000000000000000000000000000000000000000000000000000000000000000000000000000000000000000000000000000100000000000000000000000000000000000000000000000000000000000000000000001000001101100011000000000000000000000000000000000000000000000000000000000000000000000000000000000000000000000000000000000000000010100000000000000000000000000000000000000000000000000000011110000000000111000011111111000000000000000000000000000000000000000000000000000000000000000000000000011100000000000000000000000000000000000000101000000000000000000000000000000000000000000000000000001100000000000001010000000001110000000000000000000000000000000000000000000000000110000000000000000000000000000000000000000000000000000000000000000100000000000000000000000000000000000000000000000000000111000000000000000110000000000000000000000000000000000000000000000000000000000010010000000000000000000100000100000000000000000000000000000000000000000000000000000000000000000000000000000000000000000011001010000000000001000000000000000000000000000000000000000000000000000000000000101000000000000000000001000001000000000000000000000000000000000000000000000000000000000000000000000000000000000000000000011011000000000000110000000000000000000000000000000000000000000000000000000000000100000000000000000000010000010000000000000000000000000000000000000000000000000000000000000000000000000000000000000000000011000000000000011000000000000000000000000000000000000000000000000000000000000000000000000000000000000000000000000000000000000000000000000000000000000000000000000000000000000000000000000000000011000000000000000101000000000000000000000000000000000000000000000000000000000000000000000000000000000000000000000000000000000000000000000000000000000000000000000000000000000000000000000000000000000000110000000000000000000000000000000000000000000000000000000000000000000000000000000000000000000000000000000000000000000000000000000000000000000000000000000000000000000000000000000000000000000000000000000000000000011100010011100000000000000000000000000000000000000000000000000000000000000000000000000000000000000000000000000000000000000000000000000000000000000000000000000000011000000000000000000000000000000000000000000000000110000000000000000000000000000000000000000000000000000000000000000000000000000000000000000010000000000000000000000000000000000000000000000000000000001000000000000000000000000000000000000000000000000100100000000000000000000000000000000000000000000000000000000000000000000000000000000000000010100000000000000000000000000000000000000000000000000000000100000001000000000000000000000000000000000000000010000000000000000000000000000000000000000000000110000000000000000000000000000000000000000001010000000000000000000000000000000000000000000000000000000000101000001000000000000000000000000000000000000001011011000000000000000000000000000000000000000010010000000000000000000000000000000000000000011000000000000000000000000000000000000000000000000000000000000110001100000000000000000000000000000000000000010000110000000000000000000000000000000000000000100100000000000000000000000000000000000001100010000000000000000000000000000000000000000000000000000000000000000010000000000000000000000000000000000000000110101000000000000000000000000000000000000000000110000000000000000000000000000000000000100100000000000000000000000000000000000000000000000000000000000000000000000000000000000000000000000000000000000000011110000000000000000000000001110000000000000000000000000000000000000000000000000000000110000000000000000000000000000000000000001000000000000000000000000000000000001100000000000000000000000000000000000000100000000000000000000000011100000000000110000000000000000000000000000000000000000000000000000000000000000000000000000000000101000000000000000000000000000010000011000000000000000000000000000000000000000000000000000000000000000100100000000001100000000000000000000000000000000000000000000000000110000000000000000000000000000001010000000000000000000000001100000000000000000000000000000000000000000000000000000000000000000000000010111000000000000000000000011000000000000000000000000000000000000001100000000000000000000000000000001000000000000000000000000010011000000000000000000000000000000000000000000000110000000000000000000000001000000000000000000000001001000000000000000000000000000000000000000000000000000000000000000000000000000000000000000000000000011100000000000000000000000000000000000000000000010100000000010000000000001000000000000000000000000010100000000000000000000000000000000000000000000000011000000100000000000000000000000000000000000000000010000000000000000000000000000000000000000000000010000000001010000000000000000000000000000000000000010000000000000000000000000000000000000000000000001001000000110000000000000000000000000000000000000000000000000000000000000000001000000000000000000011000000000010010000000000000010000000000000000000000000000000000000000000000000000000000000000000000001100000000000000000000000000000000000000000000000000000000000000000000000000101000000000000000001110001100000011000000000000100000000000000000000000000000000000000000000000000000000000000000000000000000000000000100000000000000000000000000000000000000000000000000000000000000001010000000000000000100000111000000000000000000000100000000000000000000000000011000000000000000000000111000000000000000000000000000111011000000000000000000000000000000001110000000000000000000000000000001000000010000000100011100110000000000000001100011000000000000000000000000000110000000000000000000000000000000000000000000000000001000000000000000000000000000000000000000000000000000000000000000000000000000000100000001000100110110000000000000101110000000000000000000000000000000000000000000000000000000000000000000000000000000000110000000000000000000000000000000000001010100000000000000000000000000000000000001000000001101000111000000000000001000101000000000000000000010000000000000000000000000000000000000000000000000000000000011100000000000000000000000000000000000011011000000000000000000000000000000000000000000000000101101100000000000000001000000011100000000000001010000000000000000000000000000000000000000000000000000000000110101000000000000000000000000000000011000001100000000000000000000000000000000000000000000000110000000000000000000000001110100000000000000010010000000000000000000000000000000000000000000000000001100001011100000000000000000000000000000010010010010010000000000000000000000000000000000000000000000000000000000000000000000001110100000000011000011000000000000000000000000000000000000000000000000000001101110010000000000000000000000000000000101001010010100000000000000000000000000000000000000000000000000000000000000000000000001110000000000110000000000000000000000000000000000000000000000000000000000100000000000000000000000000000000000000001001001001001000000000000000000000000000000000000000000000000011000000000000000000010000100000000000000000000000000000000000000000000000000000000000000000000000000000000000000000000000000000000000000000110000011000000000000000011000000000000000000000000000000000110000000000000000001110000000000000000000000000000000000000000000000000000000000000000000000000000000000000000000000000000000000000000000000011011000000000000000001001000000000000000000000000000000000000000000000000000110110000000001110000000000000000000000000000000000000000000000000000000000000000000000000000000000000000000000000000000000101010000000000000000001100000000000000000000000000000000000000000000000000011101110000000000000000000000000000000000000000000000000000000000000000000000000000000000000000000000000000000000000000000000000000000000000000000000000000000000000000000000000000000000000000000000000011011000000010000010000000000000000000000000000000000000000000000000000000000000001110000000000000000000000001000000000000110110000000000000000000000000000000000000000000000000000000000000000000000000011100000000100000100000000000000000000000000000000000000000000000000000000000000000000000000000000000000001010000000000011101000000000100000000000000000000000000000000000000000000000000000000000000000010000000001000001000000000000000000000000000000000000000000000000000000000000000000000000000000000000000100100000000000111110001000100100000000000000000000000000000000000000000000000000000000000000000000000000000000000000000000000000000000000110000000000000000000000000000000000000000000000000000110000000011100000000001010010100001000100000000000000000000000000000000000000000000000000000000000000000000000000001110000000000000110000000000001100000000000000000000000000000000000000000000000000001100000000111110000000011011001100010001000000000000000000000000000000000000000000000000000000000000000000000000000000000000000000001100000000000000000000000000000000000000000000000000000000000000000000000000000011100000000110000001110000010000000000000000000000000000000000000000000000000000000000000000000001100000000000000000000000000000000000000000000000000000011000000000000000000000000010000000000000000000000000000000000000001111001000000000000000000000000000000000000000000000000000000000000000000000011000000000000000000000000000000000000000000000000000000110000000000000000000000000100000000000000000000000000000000000000001101000000000000000000000000000000000000000000000000000000000000000000000000000000000000000000000000110000011000000000000000000001000000000000000011000000000001000000000000000000000000000000000000000000000000000000000000000000000000000000000000000000000000000000000000000000000000000000000000001100010010000110000000000000000001001000000000000000101000000000000000000000000000000000000000000000000000000000000000000000000000000000000000000000000000000000000000000000000000011100011000000000000011000010100000000000000000000000010010000000000000000100000000000000000000000000000000000000000000000000000000000000000000000000000000000000000000000000000000000011000000000000001001000110000000000000000000010000000000000000000000000100100000000000000000000000000000000000000000000000000000000000000000000000000000000000000000000000000000000000000000000000000001001000000000000011000000000000000000000000000000000000000000000000000000101100000000000000000000000000000000000000000000000000000000000000000000000000000000000000000000000000000000000000000000000000010010000000000000000000000000000000000000000000000000000000000000000110000010000000000000000000000000000000000000000000000000001000000000000000000000000000000000000000000000000000000000000110000000000011000000000000000010010000000000000000000000000000000000000000000001100000000000000000000000000000000000000000000000001100000010000000000000000000000000000000000000000000000000000000000001100000000000000000000000000000011000000000000000000000000000000000000000000000000000000000000000000000000000000001100000000000000011000000100000000000000000000000000000000000000000000000000000000000000000000000000000000000000000110000000000000000000000000000000000000000000000000000001000000000000000000000000000100100000000000000000000000000000000000000000000000000000000000000000000000000000000000000000000000000000000000000001110000000000000000000000000000000000000000000000000001111000000000000000000000000000110000000000000000000000000000000000000000000000000000000000000000000000000000000000000000000000000000000000000000011100000000000000000000000000100000000000000000001001100011000000000000000000000000000000000000000000000000000000000000000000000000000000000000000000000000000000000000000000000000000000000000000000000001000000011000000000000000010100000000001100000010100000100000000000000000000000000000000000000000000000000000000000000000000000000000000000000000000000000000000000000000000000000000000000000000000000000000001000010000000000000101000000000000000000001111110000000000000000000000000000000000000000000000000000000000000000000000000000000000000000000000000000000000000000000000000110000000000000000000000000000001011100000000000000100000000010001000000000000000000000000000000000000000000000000000000000000000000000000000000000000000000000000000000000000000000000000000000000000010010000000000000000000000001100001100100000000000000000000000100011100000000000000000000000000000110000000000000000000000000000000000000000000000000000000000000000000000000000000000000000000000000000011000000000000000000000000100000000000000000000000000000000001010010100000000000111000000000000010010000000000000000000000000000000000000000000000110000000000000000000000000000000000000000000000000000000000000000000000000000000010000000000000000000000000000000000100101000000000010010000000000000011000000000000000000000000000000000000000000000010010000000000000000000000000000000000000000000000000000000000000000000000001110000110000000000000000000000000000000000011000000000001101100000000000000000000000000000000000000000000000000000000011000010100000000000000000000000000000000000000000000000000000000000000000000000000000010010000000000000000110000000011000000000000000000000000000000000000000000000000000000000000000000000000000000001011000101000000000000000000000000000000000000000000000000000000000000000000000000000000100100000000000000010010000001001000000010000000010111000000000000000000000000000000000000000000000000000000000010000001000000000000000000000000000000000000000000000000000000000000000000000000000000010010000000000000000011000000001010000001010000000011000000000000000000000000000000000000000000000000000000000000000000101000100000000000000000000000000000000000000000000000000000000000000000000000000101100000000000000000000000000001000000000000000000000000000000000000000000000000000000000000000001100000000000000100100100011000000000000000000000001000000000000000000000000000000000000000000000000000100000000000000000000000000000000000000111000000000000000000000000000000000000000000000000000000011000000000000000011110000010000000000000000000000101000000000000000000000000000000000000000000000000000000000000000000000000000000000000000000000000000000000000000000000000000000000000000000000000000000000000000000000001100000000000000000000000000000100000000000000000000000000000000000000000000000000000000000000000000000000000000000000000000000000001100000000000000000000000000000000000000000000000000000000000000000011000000001110000000000000000000000000000000000000000000000000000000000000011000000000000000000000000000000000000000000000000000000001000000000000000000000000000000000000000000000000000000000000000000000000000000000000000000000000000000000000000000000000000000000000000000000011100000000000000000000000000000000110000000000000000000000000000000000000000000000000000000000000000000000000000000000000000000000010000000000000000000000000000000000000000000000000000000000000001000010100000000000000000000000000000010010001100000000000000000000000000011000000000000000000000000000000000000000000000000000000000000100000000000000000000000000000000000000000000000000000000000011110001101100000000000000000000000000000100100100100000000000000000000000000110000000000000000000000000000000000000000000000000000000000001000000000000000000000000000000000000000000000000000000000001000010011010000010000000000000000000000000110000110000000000000000000000000000000000000000000000000000000000000000000000000000000000000000000000000000000000000000000000000000000000000000000000000000010010100111000110010000000000000000000000000000000000000000000000000000000000000000000000000000000000000000000000000000000000000000000000110000000000000000000000000000000000000000000000000000000000000011101010000010011000000000000000000000000000000000000000000000000000000110000000000000000000000000000000000000000000000000000000000000001100000000000000000000000000000000000001000000000000000000000000010001000000110000000000000000000000000000000000000000000000000000000010010000000000000000000000000000000000000000000000000000000000000000000000000000000000000000000000000000101000000000000000000000000000000000001100000000000000000000000000000000000000000000000000000000100100000000000000000000000000000000000000000000000000000000000000000000000000000000000000000000000000001010000000000000000000000000000000000000000000000000000000000000001110000000000000000000000000000110000000000000000000000000000000000000000000000000000000000000000000000000000000000000000000000000000001000000000000000000000000000000000000000000000000000000000000000000000000000000000000000000000000000000000000000000000000000000000000000000000000000000000000000000000000000000000000000000000000000000000000000000000000000000000000000000000000000000000000000000000000000000000000000000000000000000000000000000000000000000000000000000000001100000000000000000000000000000000000000000000000000000000000000000000000000000000000000000000000000000000000000000000000000000000000000000000000000000000001100000000000000000000000000000000000000000000010000000000000000000000000000000000000000000000000000000000000000000000000000000000000000000000000000000000000000000000000000000000000000000000000000000100100000000000000000000000000000000000000001000010000000000000000000000000000000000000000000000000000000011100000000000000000000000000001000000000000000000000000000000000000000000000000000000000000000110000000000000000000000000000000000000000010111000000000000000000000000000000000000000000000000000000000000000000000000000000000000001101000001000000000000000000000000000000000000000000000000000000000000000000000000000000000000000000000000000110110011100000000000000000111000000000000111000000000000000000000000000000000000000000000100110000111000000000000000000000000000000000000000000000000000000000000000000000000000000000000000000000000000101111011010011111000000110001000000000000000000000000000000000000000000000000000000000000110000010001100000000000000000000000000000000000000000000000000000000000000000000000000000000000000000000000001000000000100000011000000000000000000001000001000000000000000000000000000000000000000000000110000011001000000000000000000000000000000000000000000000000000000000000000000000000000000000000000000000000001000010000000011110000000000100000000010000010000000000000000000000000000000000000000000000100000011110000000000000000000000001000000000000000000000000000000000000000000000000000000000000000000000000001110000000110001100000100010000000000100000100000000000000000000000000000000000000000000001000000000000000000000000000000000101000000000000000000000000000000000000000000000001110000000000000000000000000000000000110011000000111000000000000000000000000000000000000000000000000000000000000000000000000000000000000000000000000001001000000000000000000000000000000000000000000000000000000000000000000000000000000000000100000000000000000000000000111000000000000000000000000000110000000000000000000000000000000000000000000000000000001100000000000000000000000000000000000000000000000000000000000000000000000000000000000000000000000000000000000000000000000000000000000000000000001001100000000000000000000000000000000000000000000000000000000000000000000000000000000000000000000000000000000000000000000000000000000000000000000000000000000000000000000000000000000000000000000010000110001000000000000000000000000000000000000010000000000000000000000000000011100000000000100000000000000000000000000000000000000000000000000000000000000000000000000000000000000000000000000000000100010000101001000000000000000000000000000000000000100000000000000000000000000000100100000000001000000000000000000000000000000000000000000000000000000000000000000000000000000000000000000000000000000000001001101011100000000000000000000000000000000000001000000000000000000000000000010000000000000010000000000000000000000000000000000000000000000000000000000000000000000000000000000000000000000000001010011100100000100000000000000000000000000000000000000000000000000000000000000000000000110000000000000000000000000000000000000000000000001000000000001100000000000000000000000000000000000000000000000100010101000100000000000000000000000000000000000000001110001110000000000000000000000010001100000000000011100000000000000000000000000000000010000000000001000000000000000000000000000000000000000000011000100001100000111100000000000000000000000000000000000000000000000000000000000000100000100000000000000000000000000000010000000000000000000000100000000000010000000000000000000000000000000000000000010110011000000100000000000000000000011000000000000000000000000000000000000000000000010100000010000000000000000000000000001010000000000000000000000000000000100100000001100000000000000000000000000001111111001100010011000000000000000110000110000000000000000000000000000000000000000000000101000000111000000000000000000000000010100000000000000000000000000000010011100000100100000110000000000000000011000100000001001110000000000000000001100000000000000000000000000000000000000000000000000000100000000110000000000000000000000000010000000000000000000000000000000000001000011100000010010000000000000001110110111110100000000000000000010000000000000000000000000000000000000000000000000000000000000000000001100000000000000000000000000000000000000000000000000000000011000011000010100000011000000000000000000001111110010000000000000000000110100000000000000000000000000000100000000000000000000000000000000000100000000000000000000000000000000000000000000000000000000001110001100000010000000000000000000000000000101100000000000000000000000000001000000000000000000000000000001000000000000000000000000000000000010001000000000000000000000000000000000000000000000000000000000000000000000000000000000000000000000000000111000000000000000000000000110110000011000000000000000000000010000000000000000000000000000000001000001000000000000000000000000000000000000000000000000000000000000000000000000000000000000000000000000001000000000000000000000000001110000001001000000000000000000000000000000000000000000000000000000100010001000110000000000000000000000000000000000000000000000000000000000000000000000000000000000000000000000000000000000000000011000000000000001010000000000000000000000011100000000000000000000000000001001010010001100000000000000000000000000000000000000000000000000000000000000000000000000000000000000000000000000000000000000001001000000000000001000000000000000000000000000000000000000000000000000000010001000100000000000000000000000000000000000000000000000000000000000000000000000000000000000000000000000000000000000000000000001010000000000000000000000000000000000000000000000000000000000000000000000010000010000000000000000000000000000000000000000000000000000000000000000000000000000000000000000000000000000000000000000000000001000000000000000000000000000000000000000000000000000000000000000000000000010001000000000000000000000000000000000000000000000000000000010000000000000000000000000000000001100000000000000000000000000000000000000000000000000000000000000000000000000000000000000000000000000000000011100000000000000000000000000000000000000000000000000000001010000000000000000000000000000000011000000000000000000000000000000000000000000000000000000000000000000000000000000000000000000000000000000000000000000000000000000000000000000000000000000000000000000010100000000000000000000000000000000000000000000000000000000000000000000000000000000000000000000000000000000000000000000000000000000000000000000000000000000000000000000000000000000000000000000000000000010000000000000000000000000000000000000000000001100000000000000000000000000000000000000000000000000000000000000000000000000000000000000000000000000000000000000000000000000000000000000000000000000000000000000000000000000000000000000000000000000000011000000000000000000000000000000000000000000000000000000000000000000000000000000000000000000000000000000000000000000000000000000000000000000000000000000000000000000000000000000000000000000000000000000000000000000000000000000000000000000000000000000000000000000000000000000000000000000000000000000000000000000000000000000000000000000000000000000000000000000000000000000000000000000000000000000000000000000000000000000000011000000000000000000000000000000000000000000000000000000000000000000000000000000000000000000000000000000000000110000000000000000000000000000000000000000000000000000000000000000000000000000000000000000110000000000000000000000000000000000000000000000000000000000000000000000000000000000000000000000000000000000001100000000000000000000000000000000000000000000000000000000000000000000000000000000000000000000000000000000000000000000000010000000000000000000000000000000000000000000000000000000000000000000000000000000000000000000000000000000000000000000000000000000000000110000000000000000000000000000000000000000000000000000000000000001010000000000000000000000000000000000000000000000000000000000000000000000000000000000000000000000000000000000000000000000000000000000001010000000000000000000000000000000000000000000000000000000000000010100000000000000000000000000000000000000000000000000000000000000000000000000000000000000000000000000000000000011000000000000000000000001000000000000000000000000000000000000000000000000000000000000000010000000000000000000000000000000001100000000000000000000000000000000000000000000000000000000000000000000000001001000000001100000011000000000000000000000000000000000000000000000000001000000000000000000000000000000000000000000000000000011000000000000000000000000011000000000000000000100000000000000000000000000001100000000011000001001000000000000000000000000000000000000000000000000010000000000000110000000110000000000000000000000000000000000000000000000000000000110000000000000000010100000000000000000000000000000000000000000000010100000000000000000000000000000000000000000000000000100000000000001100000010010000000000000000000000000000000000000000000000000000000000000000000000001000000000000000000000000000000000000000000000000010000000000000000000000000000000000000000000000000000000000000000000000000011000000000000000000000000000000000000000000000000000000000000000000000000110100000000000000000000000000000000000000000000000000000000000000000000000000000000000000000000000000000000000000000000000000000000000000000000000000000000000000000000000000000000000000000000000000001101100000000000000000000000000000000000000000000000000000000000000000000000000000000110000000000000000000000000000000000000000000000000000000000000000000000000000000000000000000000000000000000000000010011000000000000000000000000000000000000000000000000000000000000000000000000000000010010000000000000000000000000000000000000000000000000000000000000000000000000000010000000000000000000000000000000000010010000000000000000000000000000000000000000000000000000000000000000000000000000000101000000000000000000000000000000000000000000000000000000000000000000000000000000100000000000000000000000000000000000111000000000000000000000000000000000000000000000000000000000000000000000000000000000100000000000000000000000000000000000000000000000000000000000000000000000000000001000000000000000000000000000000000000000000000000000000000000000000000000000000000000000000000000000000000000000000000000000000000000000000000000010000000000000000000000000001100110000000000000000000000000000000000000000000000000000000000000000000000000000000000000000001000000000000000000000000000000000000000000000000000000000000000000000000000100000000000000000000000000011001100000000000000000000000000000000000000000000000000000000000000000000000000000000000000000101000000000000000000000000000000000000000000000000000000001100000000000000001000000000000000000000001100000000000000000000000000000000000000000000000000000000000000000000000000000000000000000000000001010000110000000000000000000000000000000000000000000000000100100000000000000000000000000000000000000011000000000000100000000000000000000000000000000000000000000000000000000000000000000000000000000000001000010010000000000000000000000000000000000000000000000001010000000000000000000000000000000000000000000000000000010100000000000000000000000000000000000000000000000000000000000000000000000000000000000000000011000000000000000000000000000000000000000001000000001000000000000000000000000000000000000000000000000000000101000000000000000000000000000000000000000000000000000000000000000000000000000110000000000000000000000000000000000000000000000000000000101000000000000000000000000000000000000000000000000000000000000000100000000000000000000000000000000000000000000000000000000000000000000000000010010000000000000000000000000110000000000000000000000000000110000000000000000000000000000000010000000000000000000000000000000000000000000000011000000000000000000000000000000000000000000000001000000000100100000000000000000000000010100000000000000000000000000000000000000000000000000000000000000100000000000000000000000000000000000000000000000110000000000000000000000000000000000000000000000101000000001101000000000000000000000000010000000000000000000000000000000000000000000000000000000000000001000110000000000000000000000000000000000000000000000000000000000000000000000000000000000000000010010000000011010000000000000000000000000000000000000000000000000000000000000000000000000000000000000000000010010000000000000000000000000000000000000000000000000000000000000000000000000000000000000000011000000000010100001110000000000000000000000000000000000000000000000000000000000000000000000000000000000001101100000000000000000000000000000000000000000000000000000000000000000000000010000000000000000000000000110100010010010000000000000000000000000000000000000000000000000000000000000000000000000000000000010010000000000000000000000000000000000000000000000000000000000000000000000000100000000000000000000000011011000110010000000000001000000000000000000000000000000000000000000000000000000000000000000000000010100000000000000000000000000000000000000000000000000000000001100000000000001000000000000000000000000011001100010001000000001101000011000000000000000000000000000000000000000000000000000000000000000000110011000000000000000000000000000000000000000000000000000001101100000000000000000000000000000000000000011001111100100000000100111000110000000010000111000000000000000000000000000000000000000000000000010000110000000000000000000000000000000000000000000000000000011011000000001110000000000000000000000000000010000110011000000011001100000000000000110001110000000000000000000000000000000000000000000000001100000100000000000000000000000000000000000000000000000000001100000000000000000011100000000000000000000000000001010100000001010011000000000000000010001100000000001000000000000000000000000000000000000100001000000000000000000000000000000011100000000000000000000101001000000110000000010000000000000000000000000000101010001000010011000000000000110000100000000000000101000000000000000000000000110000000011100101000010000000000000000000000000000000000000000000000011100010000001100000000000000000000000000000000000011011000010000100100000000000000000111000000000000001010000000000000000000000000001100000010000100010000100000000000000000000000000000000000000000001101010100000000000000000001110000000000000000000000101000010000000010000000000000000001000000000000000001000000000000000000000000000001100000011000001100010100000000000000000000000000000000000111000001011010000000000000000001000010000000000000000000011000000011000000000000000000100000000000000100111000000000000000000000000000000000110000000001000100001001000000000000000000000000000000000001111100001100000000000000000000101000100000000000110000000100010000110000000000110000010100000000000010111110000000000000000000000000000011101000000000010101000001100000000000000000000000000000000001101000001001000000001100000001110100001000000000010010000001000111100010000000011010001101000000000101101101000000000000000000000000000000000000000000000011100000000000000000000000000000000000000000011101000000010011000110100000011000001100000000000100100110010000011101010000000001110000101100000001000000000000000000000000000000000000000000000000000000010000000000000000000000000000000000000000000011010000000001000110000000000001000100000000000000110001100100100100000010000000001100000001100000000000000000000000000000000000000000000000000000000000000000000000000000000000000000000000000000000000011010000001001011000000000000010001000000000000000000000000101000001101000011000000000001010000000000000000000000000001000000000000000000000000000000000000000000000000000000000000000000000000000000000000110000111111111000000000000011100000000000000000000000000100000000100000111000000000011000000000000000000000000000101000000000000000000000000000000000000000000000000000000000000000000000000000000000001000000011000000000000000000000000000000000000000000000000000000000000000000000000000000000000000000000000000000001010000000000000000000000000000000000000000000000000000000000000000000000000000000000000000000110000000000000000000000000000000000000000000000000001100000000000000000000000000000000000000000000000000001000000000000000000000000000000000000000000000000000000000000000000000000000000000000000000000000000000000000000000000000000000000000000000000000011000000000000000000000000000000000000000000000000000000000000000000000000000000000000000000000000000000000000110000000000000000000000000000000000000000000000000000000000000000000000000111000000000000000000000000000000000000000000000000000000000000000000000000000000000000000000000000000000000000000000000000001100000000000000000000000000001000000110000000000000000000000000000000000000000000000000000000000000000000000000000000000000000000000000000000000000000000000000000000000000001110000000000000000000000000000000000000000000000000000010000001100000000000000011000000000000000000000000000000000000000000000000000000000000000000000000000000000000000000000000000000000000000000000000000000000000000000000000000000000000000000000000000000100000000000000000000001001000000001100000000000000000000000000000000000000000000000000000000000000000000000000000000000000000000000000000000000000000000000000000000000000000000000000000000000000000000000000000000000000000010010000000101000000000000000000000000000000000000000000000000000000000000000000000000000000000000000000000000000000000000000000000000000000000000000000000000000000000000000000000000000000000000000000011000000000100000000000000000000000000000000000000000000000000000000000000000000000000000000000000000000000000000000000000000000000000000000000000000001100000000000000000000000000000000000000000000000000000000000000000000000000000000000000000000000000000000000000000000000000000000000000000000000000000000000000000000000000000000000000000110000000000100100000000000000000000000000000000000000000000000000000000000000000000100000000000000000000000000000000000000000000000000000000000000000000000000000000000000000000000000000000000000000001100000000000110000000000000000000000000000000000000000000000000000000000000000000010100000000000000000000000000000000000000000000000000000000000000000000000000000000000000000000000000000000000000000000000000000000000000000000000000000000000000000000000000000000000000000000000000001010000000000000011100000000000000000000000000000000000000000000000000000000000000000000000000000000000000000000000000000000000000000000000000000000000000000000000000000000000000000000000000000000000101000000000000000100000000000000000000000000000000000000000000000000000000000000000000000000000000000000000000000000000000000000000000000000000000000000000000000000000000000000000000000000000000000000100000000000000000100000000000000000000000000000000000000000000000000000000000000000000000000000000000000000000000000000000000000000000000000000000000000000000000000000000000000000000000000000000000000000000000000000000000000000000000000000000000000000000000000000000000000000000000000000000000000001110000000000000000000000000000000000000000000000000000000000000000000000000000000000000000000000000000000000000000000000001100000000000000000000000000000000000000000000000000000000000000000000000000000000000000000000000000000000001000000000000000000000000000000000000000000000000000000000000000000000000000000000000000011101000000000000000000000000000000000000000000000000000000000000000000000000000000000000000000000000000000000101000000000000000000000000000000000000000000000000000000000000000000000000000000000000000100110000000000000000000000000000000000000000000000000000000000000000000000000000000000000000000000000000000001010000000000000000000000000000000000000000000000000000000000000000000000000000000000000000111000000000000000000000000000000000000000000000000000000000000000000000000000100000000000000000000000000000001000000000000000000000000000000000000000000000000000000000000000000000000000000000000000000100000000000000000000000000000000000000000000000000000000000000000000000000001000000000000000000000000000000000000000000000000000000000000000000000000000110000000000000000000000000000000000000000000000000000000000000000000000000000000000000000000000000000000000000000000000000010000000000000000000000000000000000000000000000011000001000000000000000000001100000000000000000000000000000000000000000000000000000000000000000000000000000000000000000000000000000000000000000000000000000000000000000000000000000000000000000000000000110000010000000000000000000000000000000000000000000000000000000000000000000000000000000000000000000000000000000000000000000000000000000000000000000000000000000110000000000000000000000011000000000000000000000100000000000000000000000000000000000000000000000000000000000000000000000000000000000000000000000000000000000000000000000000000000000000000000000000000001010000000000000000000000110000000000000000000000000000000000000000000000000000000000000000000000000000000000000000000000000000000000000000000000000000000000000000000000000000000000000000000000000000001100000000000000000000000000000000000000000000000000000000000000000000000000000000000000000000000000000000000000000000000000000000000000000000000000000000000000000000000000000000000000000000000000000000000000000000000000000000000000000000000000000000000000000000000000000000000000000000000000000000000000000000000000000000000000000000000000000000000000000000000000000000000000000