P1
200 200
0000000000000000000000000000000000000000000000000000000000000000000000000000000000000000000000000000000000000000100000000000000000000000000000000000000000000000000000000000000000000000010000000000000000000000000000000000000000000000000000000000000000000000000000000000000000000000000000000000000000000000010000010100000000000000000000000000000000000000000000000000000000000000000000001010000000000000000000000000000000000000000000000000000000000000000000000000000000000000000000000000000000000000000000001010000100100000000100000000000000000000000000000000000000000000000000000000000010100000000000000000000000000000000000000000000000000000000000000000000000000000000000000000000000000000000000000000000011000000110000000010100000000000000000000000000000100000100000000000000000000000010000100000000000000000000000000000000000000000000000000000000000000000000000000000000000000000000000000000000000000000000000000000000000101000000000000000000000000000001000010100000000000000000000000000001000000000000000000000000000000000000000000000000000000000000000000000000000000000000000011000000000000000000000000000000000000000000100000000000000000000000000000010000100100000000000000000000000000010000000000000000000000000000000000000000000000000000000000000000000000000000000000000000110000000000000000000000000000000000000000000000000000000000000000000000000000000110000000000000000000000000000000000000000000000000000000000000000000000000000000000000000000000000000000000000000000000000000000000000000000000000000000000001100000001100000000000000000000000000000000000000000001100000000000000000000000000000000000000000000000000000000000000000000000000000000000000000000000000000000000000000000000000000000000000000000000100100000100100000000000000000000000000000000000000000011000000000000000000000100000000000000000000000000000000000000000000000000000000000000000000000000000000000000000000000000000000000000000000000000110000000110000000000000000000000000000000000000000000000000000000000000000011100000001110000000000000000000000000000000000000000000000000000000000000000000000000000000000000000000000000000000000000000000000000000000000000000000000000000000000000000000000000000000000000000001001100001110000011000000000000000000000000000000000000000000000000000000000000000000000000000000000000000000000000000000000000000100000000000000000000000000000000000000000000000000000000000000000000100001000000110000110000000000000000000000000000000000000000000000000000000000000000000000000000000000000000000000000000000000000010100000000000000000000000000000000000000000000000000000000000000000000000010000001101000000000000000000000000000000000000000000000000000000000000000000000000011100000000000000000000000000000000000000101000000000000000000000000000000000000000000000000000000011000000000000000000000001010000000000000000000000000000000000000000000000000110000000000000000000000000000000000000000000000000000000000000000100000000000000000000000000000000000000000000000000000001001000000000000100000000000100000000000000000000000000000000000000000000000010010000000000000000000100000100000000000000000000000000000000000000000000000000000000000000000000000000000000000000000000010100000000001001000000001110000000000000000000000000000000000000000000000000101000000000000000000001000001000000000000000000000000000000000000000000000000000000000000000000000000000000000000000000000010000000000001100000000100010000000000000000000000000000000000000000000000000100000000000000000000010000010000000000000000000000000000000000000000000000000000000000000000000000000000000000000000000000000000000000000000000001000100000000000000000000000000000000000000000000000000000000000000000000000000000000000000000000000000000000000000000000000000000000000000000000000000000000000000000011000000000000000000000000000000111000000000000000000000000000000000000000000000000000000000000000000000000000000000000000000000000000000000000000000000000000000000000000001100001000000000000000000000110000000000000000000000000000000000100000000000000000000000000000000000000000000000000000000000000000000000000000000000000000000000000000000000000000000000000000000000000011000101100000000000000000000000000000000000000000000000000111000000000000000000000000000000000000000000000000000000000000000000000000000000000000110000000000000000000000000000000000000000000000000001000001010000000000000000000000000000001000000000000000000001011000000000000000000000000000000000000000000000000000000000000000000000000000100000000000000000000000000000000000000000000000000000000000001100001000000000000000000000000000000100000000000000000000010100000000000000000000000000000000000000000000000000000000000000000000000000000000110111010000000000000000000000000000000000000000000000000011000000000000000000000000000000000001010000000000000000000111000000000000000000000000000000000110000000000000000000000000000000000000000100000010000100000000000000000000000000000000000000000000000000000000000000000000000000000000000000001100000000000000000000000000000000000000000000000000000010010000000000000000000000000000000000000001110010010101000000000000000000000000000000000000000000000000000000000000000000000000000000000000000001100000000000000000000000000000000000000000000000000000100100000000000000000000000000000000000000001111000000010000000000000000000000000000000000000000000000000000000000000000000000000000000000000001011010000000000000000000000000000000000000000000001000000110000000000000000000000000000000000000000001011000001000000000000000000000000000000000000000000000000000000000110000000000000000000000000000010011100000000000000000000000000000000000001010000110000000000000000000000000000000000000000000000000000000000100000000000000000000000000001000000000000000000000000000010100001100000000000000000000000000000000000000101000000000000000000000111010010011001000000000000000000000000000000000000000000001100100000100000000000000000000000000000101000000000000000000000000000010000011000000000000000000000000000000000000000000000000000000000000000010001010110000000000000000000000000000000000000000000000011000100010000000000000000000000000000001010000000000000000000000000000000000000000000000000000000000000000000000000000011000000000000000000000011110100000000000000000011000000000000000000000000000000000000010000000000000000000000000000000001000000000000000000110000000000000000000000000000000000000000000000000000000110110000000000000000000100111000100000000000000001001000000000000000000000000000000000000000000000000111000000000000000000000000000000000000001010000000000000000000000000000000000000000000000000000001101000000010000000000000110000010000000000000000010100000000000000000000000000000000000000000000000000100000000000000000000000000000000000000001000000000000000000000000000000000000000000000000000000110010000001010000000000000000110100000000000000000010000000000000000000000000000000000000000000000000000010000000000000000000000000000000000000000000000000000000000000000000000001000000000000000001001000100000010010000000000000001000000000000000000000000000000000000000000000000000000000000000000000000010100000000000000000000000000000000000000000000010000000000000000000000000101000000000000000110000000000000011000000000000000000000000000000000000000000000000000000000000000000000000000000000000000001000100010000000000000000000000000000000000000001010000000000000000000000001010000000000000001000000000000000000000000000000000000000000000000000000000011000000000000000000000111000000000000000000100000110000100000000000000000000000000000000000100010100000000000000000000000001000000010000111011100110000000000000000000000000000000000000000000000000000110000000000000000000000000000000000000000001110000000001000000000000000000000000000000000010100010000000000000000000000000000000000100000000010010000000000000001100000000000000000000000000000000000000000000000000000000000000000000000000000000001000000000000000000000000000000000000000000000101000000000000000000000000000000000000001000000000010100000000000000010100000000000000000000000000010000000000000000000000000000000000000000000000000100000000111000000000000000000000000000000000000000100000000000000000000000000000000000000000000000000111000000000000000010000000000000000000000000001010000000000000000000000000000000000000000000000001000100001101100000000000000000000000000000000000000000000000000000000000000000000000000000000000000000000000000000000000000000000000000000000000000010010000000000000000000000000000000000000000000000010000000011011000000000000000000000000000000001100000001100000000000000000000000000000000000000000000000000000000000000000000000000000000000000011000011000000000000000000000000000000000000000000000000000010000010000000000000000000000000000000000011000000100100000000000000000000000000000000000000000000000000000000000000000000000000000000000000110000000000000000000000000000000000000000000000000000000001100000011011000000000000000000000000000000000000000110000000000000000000000000000000000000000000000000011000000000000000000000000000000000000000000000000000000000000000000000000000000000000000000000010000000000100000000000000000000000000000000000000000000000000001000011000000000000000000000000000000000110000000000000000000000000000000000000000000000000000000000000000000000000000000000000000000000000000000011000000000000000000000000000000000000000000000000000111001001000000000000000000000000000000000000000000000000000000000000000001110000000000000000000000000000000000000000000000000000000000000000000000100000000000000000000000000000010100000011000000000001001101100000000000000000000000000000000000000000000000000000000000000000000000000000000000000000000000000000000000000000000000000000000000000000010000000000000000000000000000001101100000110000000001011111000000000000000000000000000000000000000000000000000111000000000000000000010000000000000000000000000000000000000000000000000000000000000001001000000000000000000000000000000001000010000000000000110111100000000000000000000000000000000000000000000000000000000000000001101100000100000000000000000000000000000000000000000000000000000000000000001100000000000000000000000000000010000000010000000011000000000000000000000000000000000000000000000000000000000000000000000000010011000001000000000000000000000000000000000000000000000000000000000000000000000000000000000000000000000000100000000100000000101000100000000000000000000000000000000000000000000000000000000000000000001001100000000000000000000000000000000110000000000000000000000000000000000000000000000000000110000000000000001000000001000011000010000000001100000000000000000000000000000000000000000000000000000000000011000001110000000000000110000000000001100000000000000000000000000000000000000000000000000001100000000000000000010000100001000111000000111011100000000000000000000000000000000000000000000000000000000000000000000000000000000001100000000000000000000000000000000000000000000000000000000000000000000000000000000000001101100000010000100000000000110000000000000000000000000000000000000000000000000000000000000000000000000000000000000000000000000000000000000000000000000000000000000000000000010000000000000000000000000001010000000110110000001000000000000000000000000000000000000000000000000000000000000000000011000000000000000000000000000000000000000000000000010000000000000000000000000000000100000000000000000000000000000000000000011000000000000000000000000000000000000000000000000000000000000000000000000001000000000000000000000000110000011000000000000000001100000000000000000011000000000001000000000000000000000000000000000000000000000011011110000000000000000000000000000000000000000000000000000000000000101100000000000000001100010010000110000000000000000010100000000000000000101000000000000000000000000000000000000000000000000000000000010111110000000000000000000000000000000000000000000000000000000000001010000000000000000011000010100000000000000000000000000000000000000000000100000000000000000000000000000000000000000000000000000000000001001000000000000000000000000000000000000000000011000000000000000100000000000000000000000000010000000000000000000000000000000000000000000000000000000000000000000000000000000000000000000000000000000000011100000000000000000000000000000000000000000001001000000000000001010000000000000000000000000000000000000000000000000000000000000000000000000000000000000000000000000000000000000000000000000000000000000010000000000000000000000000000000000000000000010010000000000000111000010000000000000000000000000000000000000000000110000000000000000000000000000000000000000000000000000000001000000000000000000000000000000000000000000000000000000000000110000000000011000000000000001001111110000000000000000000000000000000000000000001100000000000000000000000000000000000000000000000001100000010000000000000000000000000000000000000000000000000000000000001100000000000000000000000000010110001011000000000000000000000000000000000000000000000010000000000000000000000000001100000000000000011000000100000000000000000000000000000000000000000000000000000000000000000000000000000000000000000100101101110000000000000000000000000000000000000000000001011000000000000000000000000100100000000000000000000000000000000000000000000000000000000000000000000000000000000000000000000000000000000000000111010100011100000000000000000000000000000000000000000000010010000000000000000000000000110000000000000000000000000000000000000000000000000000000000000000000000000000000000000000000000000000000000000011011000000000000000000000000000100000000000000000000000000001100000000000000000000000000000000000000000000000000000000000000000000000000000000000000000000000000000000000000000000000000000000000000000110100000000010000000000000000010100000000000000000000000000110000000000000000000000000000000000000000000000000000000000000000000000000000000000000000000000000000000000000000000000000000000000000000000110000000000100000000000000000101000000000000000000000000010000000000000000000000000000000000000000000000000000000000000111000000000000000000000000000000000000000000000000000000000110000000000000000000000000000110000000000000000000100000000000000000000000001100010000000000000000000000000000000000000000000000000000000000000000000110000000000000000000000000000000000000000000000010010000000000000000000000000001010000000000000000000000000000000000000000000011000000000000000000110000000000000000000000000000000000000000000000000010010000000000000000000000000000000000000000000000011000000000000000000000000000011101100000000000000000000001000000000000000000110000001000000000010010000000000000000000000000000000000000000000000000101000000000000000000000000000000000000000000000000000000000000000000001110000000101100100000000000000000001010100000000000000011000000010000100000011000000000000000000000000000000000000000000000000000100000000000000000000000000000000000000000000000000000000000000000000000000000000000001000000000000000000111100100000000000000110000000100001000000000000000000000000000000000000000000000000000000000000000011100000000000000000000000000000000000000000000000000000000000000000000000000010110000000000110000001110101100000000000011000001100000010000000000000000000000000000000000000000000000000000000000000000001000000000000000000000000000000000000000000000000000000000000000000000000001110000000000010010000000010011000000000000110000011100000000000000000000000000000000000000000000000000000000000110000000001100000000000000000000000000000000000000000000000000000000000100000000100000011100000000000011000000000100000000000000000010000100000000000000000000000000000000000000000000000000000000000001100000000000000000000000000000000000000000000000000000000000000000000011100000001000000000000000000000000000000111001010000000000000000011000000000000000000000000000000000000000001100000000000000000000000111000001100000000000000001000000000000000000000000000000000001001001100000010000000000000000000000000000001100011000000000000000010110000000000000000000000000000000000000000011000000000000000000000001001010110110000000000000101000000000000000000000000000000000100001000100000000000000000000000000000000000000001000000000000000001000100000000000000000000000000000000000000000000000000000000000000000011000000000110000000000000100000000000000000000000000000000001000010001100000000000000000000000000000000000110010000111000000000001010000000000000000000000000000000000000000000000000000000000000000000001101010000000000000000000000000000000000000000000000000000111110000010000000000000000000000000000000000010011000000000000000000001000000000000000000000000000000000000000000000000000000000000000000000001011010001000000000000000000000000000000000000000000000000001110000100000000000000000000000000000000000100000000000000000000000000000000000000000000000000000000000000000000000000000000000000000001110101100011100000000000000000000000000000000000000000000000000000000000000000000000000000000000000000000010010001100000000000000000000000000011000000000000000000000000000000000000000000000000000000010011000000000000000000000000000000000000000000000000000000000000000000101010000000000000000000000000000000100100100100000000000000000000000000110000000000000000000000000000000000000000000000000000000011100000000000000000000000000000000000000000000000000000000000000000000110000000000000000000000000000000000110000110000000000000000000000000000000000000000000000000000000000000000000000000000000000000010000000000000000000000000000000000000000000000000000000000000000000010110000000000000000000000000000000000000000000000000000000000000000000000000000000000000000000000000000000000000000000000000000000000000000000000000000000000000000000000000000000000000000000000000000011100000000000000000000000000000000000000000000000000000000000000110000000000000000000000000000000000000000000000000000000000000000000000000000000000000000000000000000001000000000000000000000000000010011001000000000000000000000000000000000000000000000000000000000010010000000000000000000000000000000000000000000000000000000000000000000000000000000000000000000000000000101000000000000000000000101000111000110000000000000000000000000000000000000000000000000000000000100100000000000000000000000000000000000000000000000000000000000000000000000000000000000000000000000000001010000000000000000000001001000110001000100000000000000000000000001110000000000000000000000000000110000000000000000000000000000000000000000000000011100000000000000000000000000000000000000000000000000001000000000000000000000010100011100000011100000000000000000000000000000000000000000000000000000000000000000000000000000000000000000000000000000000000100000000000000000000000000000000000000000000000000000000000000000000000000011111011000001000000000000000000000000000000000000000000000000000000000000000000000000000000000000000000000000000000000110001000000000000000000000000000000000000000000000000000000000000000000000000000110000110000011011000000000000000000000000000000000000000000000000001100000000000000000000000000000000000000000000000001100101100000000000000000000000000000000000000000000000000000000000000000000000100100000000001000001000000000000000000000000000000000000000000000000100100000000000000000000000000000000000000010000000001000011000000000110000000000000000000000000000000000011100000000000000000000001110111000000100110001000000000000000000000000000000000000000000000000110000000000000000000000000000000000000001110000000110001110000000001010000000000000000000000000000000000000000000000000000000000001000100110001000000000000000000000000000000000000000000000000000000000000000000000000000000000000000000000000110010000000100010000000000010000000000000000111000000000000000000000000000000000000000000000000111000011000110000000000000000000000000000000000000000000000000000000000000000000000000000000000000000000000000000000111000000000000000000000000000000000000000000000000000000000000000000000000000000001100000011010000000100000000000000000000000000000000000000000000000000000000000000000000000000000000000000001100000001110000001100000000000000000001000001000000000000000000000000000000000000000000000000000000000000000001100000000000000000000000000000000000000000000000000000000000000000000000000000000000000011000000001100000011000000000000010000010000010000000000000000000000000000000000000000000000000000000001001011010000000000000001000000000000000000000000000000000000000000000000000000000000000000000000110000000011000000000000000000000110000100000100000000000000000000000000000000000000000000000000000000010100011000000000000000101000000000000000000000000000000000000000000000001110000000000000000000000000000000110000000000000000000000110000000000000000000000000000000000000000000000000000000000000000000101011000000000000000001001000000000000000000000000000000000000000000000000000000000000000000000000000000000000000000000000000000001100000111000000000000000000000000000000000000000000000000000000000000111010000000000000000001100000000000000000000000000000000000000000000000000000000000000000000000000000000000000000000000000001100000000000000000000000000000000000000000000000000000000000000000000000000011000000000000000000000000000000000000000000000000000000000000000000000000000000000000000000000000000000000000000000000000001000000000000000000000000000000000000000000000000000000000000000000000000000100000010000000000000000000000001010000000000000000100000000000000000000000000000000000000000000000110111000000000000000000001000000000000000000000000000000000000000000000000000000000000000000000000000000000100000000000000000000000010010110000000000001000000000000000000000000000000000000000000000001000011000000000000001100111000000000000000000000000000000000001100000000000000000000000000000000000000000001000000000000000000000000101001100000000000010000000000000000000000000000000000000000000000010000001000000000000000010110000000000000000000000000000000000011000000000000000000000000000000000000000000000000000000000000000000100011110000000000000000000000000000000000000000000000000001000000000010000010000000000000001101100000000000000000000000000000000000000000000000000000000000000000000000000001110001110000000000000000001000001000000000000000011100000000000000000000000000000000010000000000001101100001000000000001010000000000000000000000000000000000000000000000000000000000000000000000000000000000000000000000000000000111000001000000000000000000000000000010000000000000000000000100000000000000000000101000000000001000000000000000000000000000000000000000000000000000000011000000000000000000000000000000000000000000000000000000000000001100000000000000000001010000000000000000000000000000000000000000001010000000000000000000000000000010000000000000001100000000000000110000110000000000000000000000000000000000000000000000100001000000000011100000000000000000010100000000000000000000000000000000000000000001000000110000000000000000011000010000000000001111100000000000001100000000000000000000000000000000000000000000000000000110011000000001000000000000000000000010000000000000000000000000000000000000000000000000010010000000000000000100110100000000000011001100000000011000000000000000000000000000000000000000000000000000000001100000000000011100000000000000000000000000000000000000000000000011000000000000000000000011000000000000000000111110000000000001110000000000000101000000000000000000000000000100000000000000000000000000000000000000000110000000000000000000000000000000000000000000000001100000000000000000000000000000000000000000000111000000000000001110000000000000010000000000000000000000000001000000000000000000000000000000000000000000000000000000000000000000000000000000000000000000001100100000000000000000000000000000000000000000000000000000000100000000000000001100011000000000000000000000010000000000000000000000000000001101110001100000000000000000000000000000000000000000000000000011000010000000000000000000000000000000000000000000000000000000000011000000000000001001000000000000000000000000000000000000000000000000000010010100011000000011000000000000000000000000000000000000000000101000100000000000000000000000000000000000000000000000000000001000011110000000000001010000000000000000000000011100000000000000000000000000100001000000000001001000000000000000000000000000000000000000001010100011000000000000000000000000000000000000000000000000000000110101100000000000001000000000000000000000000000000000000000000000000000000100110000000000010010000000000000000000000000000000000000000110010111001000000000000000000000000000000000000000000000000000000001011000000000000000000000000000000000000000000000000000000000000000000001100010000000000101100000000000000000000000000000000000000001100000011001000000000000000000000000000000000000000000000000000000001000000000000000000000000000000000000000000000000000000000000000000000100011100000001110010000000000000000000000000000000000000000001011000001100000000000000000000000001100000000000000000000000000000000000000000000000000000000000000000000000000000000000000000000000000010100001101000100000000000000000000000000000000000000000000000011010000000000000000000000000000000011000000000000000000000000000000000000000000000000000000000000000000000000000000000000000000000000000000000011011001001100000000000000000000000000000000000000000000010100000000000000000000000000000000000000000000000000000000000000000000000000000000000000000000000000000000000000000000000000000000000000000010111001001110000000000000000000000000000000000000000000000010000000000000000000000000000000000000000000001100000000000000000000000000000000000000000000000000000000000000000000000000000000000000000000101110100000000000000000000000000000000000000000000000000000000000000000000000000000000000000000000000000011000000000000000000000000000000000000000000000000000000000000000000000000000000000000000000000101011000000000000000000000000000000000000000000000000000000000000000000000000000000000000000000000000000000000000000000000000000000000000000000000000000000000000000000000000000000000000000000000000001000000000000000000000000000000000000000000000000000000000000000000000000000000000000000000000000000000000000000000000000000011000000000000000000000000000000000000000000000000000000000000000000000000100000000000000000000000000000000000000000000000000000000000000000000000000000000000000000000000000000000000000000000000000000110000000000000000000000000000000000000000000000000000000000000000000000001011000000000000000000000000000000000000000000000000000000000000000000000000000000000000000000000000000000000000000000000000000000000000000000000000000000000010000000000000000000000000000000000000000001000000000000000000000000000000000000000000000000000000000000000000000000000000000000000000110000000000000000000000000000000000000000000000000000000000000001010000000000000000000000000000000000000000000000000000000000000000000000000000000000000000000000000000000000000000000000000000000000001010000000000000000000000000000000000000000000000000000000000000010100000000000000000000000000000000000000000000000000000000000000000000000000000000000000000000000000000000000011000000000000000000000001000000000000000000000000000000000000000000000000000000000000000010000000000000000000000000000000001100000000000000000000000000000000000000000000000000000000000000000000000001001000000001100000011000000000000000000000000000000000000000000000000001000000000000000000000000000000000000000000000000000011000000000000000000000000011000000000000000000000000000000000000000000000001100000000011000001001000000000000000000000000000000000000000000000000010000000000000110000000110000000000000000000000000000000000000000000000000000000110000000000000000000100000000000000000000000000000000000000000000010100000000000000000000000000000000000000000000000000100000000000001100000010010000000000000000000000000000000000000000000000000000000000000000000000000010100000000000000000000000000000000000000000000010000000000000000000000000000000000000000000000000000000000000000000000000011000000000000000000000000000000000000000000000000000000000000000000000000000101000000000000000000000000000000000000000000000000000000000000000000000000000000000000000000000000000000000000000000000000000000000000000000000000000000000000000000000000000000000000000000000000000000100000000000000000000000000000000000000000000000000000000000000000000000000000000110000000000000000000000000000000000000000000000000000000000000000000000000000000000000000000000000000000000000000000000000000000000000000000000000000000000000000000000000000000000000000000000000000010010000000000000000000000000000000000000000000000000000000000000000000000000000010000000000000000000000000000000000000000000000000000000000000000000000000000000000000000000000000000000000000000000000101000000000000000000000000000000000000000000000000000000000000000000000000000000100000000000000000000000000000000000000000000000000000000000000000000000000000000000000000000000000000000000000000000000100000000000000000000000000000000000000000000000000000000000000000000000000000001000000000000000000000000000000000000000001000000000000000000000000000000000000000000000000000000000000000000000000000000000000000000000000000000010000000000000000000000000001100110000000000000000000000000000000000000000000000000000000000000111000000000000000000000000001000000000000000000000000000000000000000000000000000000000000000000000000000100000000000000000000000000011001100000000000000000000000000000000000000000000000000000000000001110000000000000000000000000101000000000000000000000000000000000000000000000000000000001100000000000000001000000000000000000000001100000000000000000000000000000000000000000000000000000000000000001100000000000000000000000110000001010000110000000000000000000000000000000000000000000000000100100000000000000000000011011000000000000011000000000000100000000000000000000000000000000000000000000000000011000000000000000000000000010000001000010010000000000000000000000000000000000000000000000001010000000000000000000000100010000000000000000000000000010100000000000000000000000000000000000000000000000000000000000000000000000000110010000000000011000000000000000000000000000000000000000001000000001000000000000000000100001111000000000000000000000000000101000000000000000000000000000000000000000000000000000000000000000000000000100000000000000000000000000000000000000000000000000000000000101000000000000000000000000110000010000000000000000000000000000000100000000000000000000000000000000000000000000000000000000000000000000000111100100100000000000000000000000110000000000000000000000000000110000000000000000000000010000001011000000000000000000000000000000000000000000000011000000000000000000000000000000000000000000000011000011001000110000000000000000000000010100000000000000000000000000000000000000000000000000000100001111000000000000000000000000000000000000000000000000110000000000000000000000000000000000000000000001001000000000000000000000000000000000000010000000000000000000000000000000000000000000000000000000011010001100000000000000000000000000000000000000000000000000000000000000000000000000000000000000000000010100001101100000000000000000000000000000000000000000000000000000000000000000000000000000000000000000111111000000000000000000000000000000000000000000000000000000000000111000000000000000000000000000000010000010011000000000000000000000000000000000000000000000000000000000000000000000000000000000000000000010000000000011100000000000000000000000000000000000000000000000010001000000000000000000000000000000000000000000000000000000000000000000000000000000000000000000000000000000000000000000000000000000000000000000000000000100000000000000000000000000000000000000000000000100011000000000000000000000000000000000100000000000000000000000000000000000000000000000000000000000000000000000000000000000000000000000000000000100000001000000000000000000000000000000000000000000001001000111000000000000000000000000000000001011000000000011100000000001100000011000000000000001100000000000000000000000000000000000000000000000000000100010110000000000000000000000000000000000000000011001001011100100000000000000000000000000000001111000000000101000000000011000000110000000000000100100000000000000000000000000000000000000000000000000001001110000000000000000000000000000000000000000001000010100001001000001110000000000000000000000000010000000010001000000000000001000000000000000000101000000000000000000000000000000000000000000000000000000011100000000000000000000000000000000000000000001100000001111000000000000000000000000000000000010110000000011010000000000000101000000000000000000100000000001000000000000000000000000000000000000000000000000001000000000000000000000011100000000000000011000101100000000110000000011101110000000000000100100000000010110000000000001001000000000000100000000000000101000000000000000000000000000000000001000000011100111000000000000000000000000000000000000000000010000000000001100000001001100010000000000000101000000000011000000000000001100000000010011000000000000001010000000000000000000000000000000000101000000111000010000000000000000000000000000000000000000000000000000000000000000011111011000000000000000100000000000000000000000000000000000011110000000000000000001000000000000000000000000000000000000011001100010000000000000000000000000000000000000000000000000000000000000000000000000000000111000000000000000000000000000000000000000000000000110100100000000000000000000000000000000000000000000000000000110100110000000000000000000000000000000000000000000000000000000000000000000000000000000001110000000110000000000000000000000000000000000000011001001000000000000000000000000000000000000000000000000000010000000000000000000000000000000000000000000000000000000000000000000000000000000000000000100100000010010000000000000010000100000000000000000101000010000000000000000000000000000000000000000000000000000101100000000000000000000000000000000000000000000000000000000000000000000000000000000000001101000000100100000000000001010001000000000000000001010000000000000000000000000000000000000000000000000000000000111111000000000000000000000000000000000000000000000000001010000000000000000000000000000011010000000110000000000000110100010000000000000000001101011010000000000000000000000000000000000000000000000000000000000000000000000000000000000000000000000000000000000010110000000000000000000110000000000000000000000000000000000001000000000000000000000000001010010000000000000000001000000000000000000000000000000000000000000000000000000000000000000000000000000000000000010010010000000011000001100000000000000000000000000000000010010000000000000000000000000000011100000000000000000101000000000000000000000000000000000000000000000000000000000000000000000000000000000000000010101101000000110000000000000000000000000000000000000000001000011000000000000000000000000000000000000000000001010000000000000000000000000000000000000000000000000000000000000000000000000000000000000000010001010000000000000000000000000000000000000000000000000100001001000000000000000000000000000000000000000000001000000000000000000000000000000000000000000000000000000000000000000000000000000000000000000000001000000000000000000000000000000000000000000000000000000010100000000000000000000000000000000000000000000000000000000000000000000000000000000000000000000000000000110000000000000000000000000000000000000000000000000000000000000000000000000111000000000000000000010000000000000000000000000000000000000000000000000000000000000000000000000000000000000000000000000000001100000000000000000000000000001000000000000000000000000000000000000000000000000000000000000000000000000000000000000000000000000000000000000000000000000000000000000000000000001110000000000000000000000000000000000000000000000000000010000000000000000000000011000000000000000000000000000011100000000000000000000000000000000000000000000000000000000000000000000000000000000000000000000000000000000000000000000000000000000000000000000000100000000000000000000001001000000001100000000000000000100000000000000000000000000000000000000000000000000000000000000000000000000000000000000000000000000000000000000000000000000000000000000000000000000000000000000000000000010010000000101000000000000000000100000000000000000000000000000000000000000000000000000000000000000000000000000000000000000000000000000000000000000000000000000000000000000000000000000000000000000000000011000000000100000000000000000000000000000000000000000000000000000000000000000000000000000000000000000000000000000000000000000000000000000000000000000001100000000000000000000000000000000000000000000000000000000000000000000000000000000000000000000000000000000000000000000000000000000000000000000000000000000000000000000000000000000000000000110000000000100100000000000000000000000000000000000000000000000000000000000000000000100000000000000000000000000000000000000000000000000000000000000000000000000000000000000000000000000000000000000000001100000000000110000000000000000000000000000000000000000000000000000000000000000000010100000000000000000000000000000000000000000000000000000000000000000000000000000000000000000000000000000000000000000000000000000000000000000000000000000000000000000000000000000000000000000000000000001010000000000000000000000000000000000000000000000000000000000000000000000000000000000000000000000000000000000000000000000000000000000000000000000000000000000000000000000000000000000000000000000000000101000000000000000000000000000000000000000000000000000000000000000000000000000000000000000000000000000000000000000000000000000000000000000000000000000000000000000000000000000000000000000000000000000000100000000000000000000000110000000000000000000000000000000000000000000000000000000000000000000000000000000000000000000000000000000000000000000000000000000000000000000000000000000000000000000000000000000000000000000000000000001100000000000000000000000000000000000000000000000000000000000000000000000001110000000000000000000000000000000000000000000000000000000000000000000000000000000000000000000000000000000000000000000000000000000000000000000000000000000000000000000000000000000000000000000000000000000000000000000000000000000000001000000000000000000000000000000000000000000000000000000000000000000000000000000000000000000000000000000000000000000000000000000000000000000000000000000000000000000000000000000000000000000000000000000101000000000000000000000000000000000000000000000000000000000000000000000000000000000000000000000000000000000000000000000000000000000000000000000000000000000000000000000000000000000000000000000000000001010000000000000000000000000000000000000000000000000000000000000000000000000000000000000000000000000000000000000000000000000000000000000000000000000000000000000000000000100000000000000000000000000000001000000000000000000000000000000000000000000000000000000000000000000000000000000000000000000000000000000000000000000000000000000000000000000000000000000000000000000000001000000000000000000000000000000000000000000000000000000000000000000000000000110000000000000000000000000000000000000000000000000000000000000000000000000000000000000000000000000000000000000000000000000010000000000000000000000000000000000000000000000011000001000000000000000000001100000000000000000000000000000000000000100011000000000000000000000000000000000000000000000000000000000000000000000000000000000000000000000000000000000000000000000000000000110000010000000000000000000000000000000000000000000000000000000000110101110000000000000000000000000000000000000000000000000000000000000000000000000000000000000110000000000000000000000011000000000000000000000100000000000000000000000000000000000000000000000000000000001000011100000000000000000000000000000000000000000000000000000000000000000000000000000000000001010000000000000000000000110000000000000000000000000000000000000000000000000000000000000000000000000000000010001000000000000000000000000000000000000000000000000000000000000000000000000000000000000000001100000000000000000000000000000000000000000000000000000000000000000000000000000000000000000000000000000000011100000000000000000000000000000000000000000000000000000000000000000000000000000000000000000000000000000000000000000000000000000000000000000000000000000000000000000000000000000000000000000000000000000001000000000000000000000000000000000000000000000000000000000000000000000