P1
200 200
0000000000000000000000000000000000000000000000000000000000000000000000000000000000000000000000000000000000000000100000000000000000000000000000000000000000000000000000000000000000000000010000000000000000000000000000000000000000000000000000000000000000000000000000000000000000000000000000000000000000000000010000010100000000000000000000000000000000000000000000000000000000000000000000001010000000000000011000000000000000000000000000000000000000000000000000000000000000000000000000000000000000000000000000001010000100100000000100000000000000000000000000000000000000000000000000000000000010100000000000000010000110000000000000000000000000000000000000000000000000000000000000000000000000000000000000000000000011000000110000000010100000000000000000000000000000100000100000000000000000000000010000100000000001010000010000000000000000000000000000000000000000000000000000000000000000000000000000000000000000000000000000000000000000101000000000000000000000000000001000010100000000000000000000000000001000000000101111010010000000000000000000000000000000000000000000000000000000000000000000011000000000000000000000000000000000000000000100000000000000000000000000000010000100100000000000000000000000000010000000001010100101000000000000000000000000000000000000000000000000000000000000000000000110000000000000000000000000000000000000000000000000000000000000000000000000000000110000000000000000000000000000000000000010011101000000000000000000000000000000000000000000000000000000000000000000000000000000000000000000000000000000000000001100000001100000000000000000000000000000000000000000001100000000000000000000000000100100001000000000000000000000000000000000000000000000000000000000000000000000000000000000000000000000000000000000000100100000100100000000000000000000000000000000000000000011000000000000000000000000001000110000000000000000000000000000000000000000000000000000000000000000000000000000000000000000000000000000000000000000110000000110000000000000000000000000000000000000000000000000000000000000000000000010101000000000000000000000000000000000000000000000000000000000000000000000000000000000000000000000000000000000000000000000000000000000000000000000000000000000000000000000000000000000000000000001100000100100000011000000000000000000000000000000000000000000000000000000000000000000000000000000000000000000000000000000000000000100000000000000000000000000000000000000000000000000000000000000000000100000000110000000110000000000000000000000000000000000000000000000000000000000000000000000000000000000000000000000000000000000000010100000000000000000000000000000000000000000000000000000000000000000001001000000100000000000000000000000000000000000000000000000000000000000000000000000000000011100000000000000000000000000000000000000101000000000000000000000000000000000000000000000000000000011000000000000100000001110000000000000000000000000000000000000000000000000000110000000000000000000000000000000000000000000000000000000000000000100000000000000000000000000000000000000000000000000000001001000000000000010000010100000000000000000000000000000000000000000000000000010010000000000000000000100000100000000000000000000000000000000000000000000000000000000000000000000000000000000000000000000010100000000010001000001001000000000000000000000000000000000000000000000000000101000000000000000000001000001000000000000000000000000000000000000000000000000000000000000000000000000000000000000000000000010000000000010000000010100000000000000000000000000000000000000000000000000000100000000000000000000010000010000000000000000000000000000000000000000000000000000000000000000000000000000000000000000000000000000000000100100000111000000000000000000000000000000000000000000000000000000000000000000000000000000000000000000000000000000000000000000000000000000000000000000000000000000000000000000000011000000000000000000000011000000000000000000000000000000000000000000000000000000000000000000000000000000000000000000000000000000000000000000000000000000000000000000000000000000000000000000000000000000110000000000000000000001001000000000000000000000000000000000000000000000000000000000000000000000000000000000000000110000000000000000000000000000000000000000000000000000000000010000000000000000000000000000000000011100000000010010000000000000000000000000000000000000000000000000000000000000000000000000000000000000011000000000000000000000000000000000000000000000000000000000001110000000000000000000000000000000000000000000001000100000000000000000000000000000000000000000000000000000000000000000000000000000000000001000011000000000000000000000000000000000000000000000000000000101010000000000000000000000000000000000000100000001010000000000000000000000000000000000000000000000000000000000000000000000000000000000000110000001000000000000000000000000000000000000000000000000000011100110000000000000000000000000000000000010100000001000000000000000000000000000000000000000000110000000000000000000000000000000000000000000101101110000000000000000000000000000000000000000000000000000101001000000000000000000000000000000000011000000000000000000000000000000000000000000000000000010010000000000000000000000000000000000000000000000001000000000000000000000000000000000000000000000000000010000000000000000000000000000000000000000100000000000000000000000000000000000000000000000000000100100000000000000000000000000000000000000000000001000000000000000000000000000000000000000000000000000000010101100000000000000000000000000000000001000110000000000000000000000000000000000000000000000000110000000000000000000000000000000000000000000000110000000000000000000000000000000000000000000000000000000000100100000000000000000000000000000000001100100000000000000000000000000000000001110000000000000000000000000000000000000000000000000000000000001000000000000000000000000000000001000000000000000000000001111110100001100000000000000000000000000000111000010000000000000000000000000000000000000000110000000000000000000000000000000000000000001100000100000000000000000000000000000000101000000000000000000000000010000000011000000000000000000000000000000000000100100000000000000000000000000000110000001100000000000000000000000000000000000000000011000001001000000000000000000000000000001010000000000000000000110110010000000000000000000000000000000000000000000000001000000000000000000000000010000100000000000000000011000000000000000000000000000000000000001100000000000000000000000000000001000000000000000000001001000000010000000000000000000000000000000000000000000000000000000000000000000000000001000000000000000001001000000000000000000000000000000000000000000000000000000000000000000000000000000000000000000011000000000100000000000000000000000000000000000000000000100000000010000000000000000100100000000000000000010100000000000000000000000000000000000000000000000011000000000000000000000000000000000000000000001000010000000000000000000000000000000000000000000010011110000001010000000001100001100000000000000000000010000000000000000000000000000000000000000000000001001000000000000000000000000000000000000000000000000100000000000000000000000001000000000000000000110001100000010010000011000110000000000000000000000000000000000000000000000000000000000000000000000000001100001000000000000000000000000000000000000000000000000000000000000000000000101000000000000000101000001000000011000001000100001100000000000000000000000000000000000000000000000000000000000000000000000000000101000000000000000000000000000000000000000011010000000000000000000000001010000000000000011111111100000000000000111100000000000000000000000000000000011000000000000000000000111000000000000000000000000010001000000000000000000000000000000000000100001100000000000000000000000001000000010000001101100110000000000000001000000010000000000000000000000000000110000000000000000000000000000000000000000000000000010100000000000000000000000000000000000010100000000000000000000000000000000000000100000001110001000000000000000010000001000000000000000000000000000000000000000000000000000000000000000000000000000100000010000000000000000000000000000000000000101000000000000000000000000000000000000001000000001000000000000000000000010000000000000000000000000010000000000000000000000000000000000000000000000000000010000000000000000000000000000000000000000000000100000000000000000000000000000000000000000000000000000000000000000000000000000000000000000000000001010000000000000000000000000000000000000000000000000001110000100000000000000000000000000000000000000000000000000000000000000000000000000000000000000000000000000000000000000000000000000000000000000000010010000000000000000000000000000000000000000000000000001000010100000000000000000000000000000000001100000001100000000000000000000000000000000000000000000000000000000000000000000000000000000000000011000011000000000000000000000000000000000000000000000000000001000011000000000000000000000000000000000100100000100100000000000000000000000000000000000000000000000000000000000000000000000000000000000000110000000000000000000000000000000000000000000000000000000000000000100000000000000000000000000000000000110000000110000000000000000000000000000000000000000000000000011000000000000000000000000000000000000000000000000000000000000000000000000000000000000000000000000000000000000000000000000000000000000000000000010000000000000000000011000000000000000000000000000000000110000000000000000000000000000000000000000000000000000000000000000000000000000000000000000000000000000000000000000000000000000000000000000000000011000000000000000001001000000000000000000000000000000000000000000000000000000001000000001110000000000000000000000000000000000000000000000000000000000000000000000000000000000000000000000000000000000010110000000000000000001100000000000000000000000000000000000000000000000000000000011000000000000000000000000000000000000000000000000000000000000000000000000000000000000000000000000000000000000000000111000000000000000000000000000000000000000000000000000000000000000000000000111000000011000010000010000000000000000000000000000000000000000000000000000000000000001110000000000000000000000000000000000000000000000000000000000000000000000000000000000000000000000000000000000000000000001011010000100000100000000000000000000000000000000000000000000000000000000000000000000000000000000000000000000000000010001000000000000000000000000000000000000000000000000000000000000000000000000000000101110100001000001000000000000000000000000000000000000000000000000000000000000000000000000000000000000000000000000001100010000000000000000011000000000000000000000000000000000000000000000000000000000000100000000000000000000000000000000000000000110000000000000000000000000000000000000000000000000000110000000000000000001011000000000001100000101000000000000000000000000000000000000000000000000000000000000000000000001110000000000000110000000000001100000000000000000000000000000000000000000000000000001100000000000000000001100000000000010000000010000000000000000000000000000000000000000000000000000000000000000000000000000000000000001100000000000000000000000000000000000000000000000000000000000000000000000000000000000000000000000000000111000010100000000000000000000000000000000000000000000000000000000000000000000000000000000000000000000000000000000000000000000000000000000000000000000000000010000000000000000000000000000000000000000000000000110000000000000000000000000000000000000000000000000000000000000000000100000000000000000000000000000000000000000000000000000000000000000000000000000000100000000000000000000000000000000000000000000000000000000000000000000000000000000000000000000000000000000000000000000010100000000000000000000110000011000000000000000000000000000000000000011000000000001000000000000000000000000000000000000000000000000000000000000000000000000000000000000000000000000000000000000000000000000100000000000001100010010000110000000000000000000000000000000000000101000000000000000000000000000000000000000000000000000000000000000000000000000000000000000000000000000000000000000000000000000000001101100000000000011000010100000000000000000000000000000000000000000000100000000000000000000000000000000000000000000000000000000000000000000000000000000000000000000000000000000000011000000000000000000011010000000000000000000010000000000000000000000000000110000000000000000000000000000000000000000000000000000000000000000000000000000000000000000000000000000000000000000000000000001001000000000000011100010000000000000000000000000000000000000000000000000011000000000000000000000000000000000000000000000000000000000000000000000000000000000000000000000000000000000000000000000000000010010000000000000011010100000000000000000000000000000000000000000000110000001000000000000000000000000000000000000000000000000001000000000000000000000000000000000000000000000000000000000000110000000000011000000000000000111111000000000000000000000000000000000000000000001100000000000000000000000000000000000000000000000001100000010000000000000000000000000000000000000000000000000000000000001100000000000000000000000000001110000000000000000000000000000000000000000000000000000000000000000000000000000000001100000000000000011000000100000000000000000000000000000000000000000000000000000000000000000000000000000000000000000010010000000000000000000000000000000000000000000000000011100000000000000000000000000100100000000000000000000000000000000000000000000000000000000000000000000000000000000000000000000000000000000000000010101100000000000000000000000000000000000000000000000011000100000000000000000000000000110000000000000000000000000000000000000000000000000000000000000000000000000000000000000000000000000000000000000001000011000010000000000000000000100000000000000000000011110000000000000000000000000000000000000000000000000000000000000000000000000000000000000000000000000000000000000000000000000000000000000000000000001111000001010000000000000000010100000000000000000000101110001000000000000000000000000000000000000000000000000000000000000000000000000000000000000000000000000000000000000000000000000000000000000000000001100000100010011000000000000101000000000000000000000100001010000000000000000000000000000000000000000000000000000000000000000000000000000000000000000000000000000000000000000000000110000000000000000000000000001000100110000000000000100000000000000000000000000000000000000000000000000000000000000000000000000000000000000000000000000000000000000000000000000000000000000000000000000010010000000000000000000000000010001000000000000000000000000000000000000000000001000000100000000000110000000000000000000000000000000000000000001000000000000000000000000000000000000000000000000000000000011000000000000000000001100000010100000000000000000000000000000000000000000000011011100000000000010010000000000000000000000000000000000000000101000000100000000000000000000000000000000000000000000000000000000000000000000000111100000010000000000000000000000000000000000000000000000001101110100000000011000000000000000000000000000000000000000000001000010010000000000000000000000000000000000000000000000000000000000000000000000011000000000000000000000000000000000000011100000000000000001000011000000000000000000000000000000000000000000000000000010000100101011000000000000000000000000000000000000000000000000000000000000000000010000000000000000000000000110000000011000111100000000000001011000100000000000000000000000000000000000000000000000000000000000101111010000000000000000000000000000000000000000000000000000000000000000000000000000000000000000000010010000001001000110100000000001000010000000000000000000000000000000000000000000000000000000000000000101100100000000000000000000000000000000000000000000000000000000000000000000000100000000000000000000011000000001011000010000000000010001000000000000000000000000000000000000000000000000000000001100011000000011000000000000000000000000000000000000000000000000000000000000000000000001000000000000000000000000000000001000000000000000000011100000000000000000000000000000000000000000001100000000000011111001000011000000000000000000000001000000000000000000000000000000000000000000000000010000000000000000000000000000000000000000000000000000000000000000000000000000000000000000000000000011000000000000001010010000110001000000000000000000101000000000000000000000000000000000000000100000000000000000000000000000000000000000000000000000000000000000000000000000000000000000000000000000000000000000000000000000000000000000011000000000000000000100000000000000000000000000000000000000110100000000000000000000000000000000000000000000000111000000001100000000000000000000000000000000000000000000000000000000000000000000000000000111000000000000000000000000000000000000000000000000000001111011110000000000000000000000000000000000000000000000000000000011000000000000000000000000000000000000000000000000000000000000000000000000111111100000000000000000000000000000000000000000000000000000011111000100000000000000000000000000000000000110000000000000000000000000000000000000000000000000000000000000000000000000000000000000000000010111110000000000000000000000000000000000000000000000000000001000001111000000000000000000000000000000000010010001100000000000000000000000000011000000000000000000000000000000000000000000000000000000000100000100000000000000000000000000000000000000000000000000000110000100000000000010000000000000000000000000100100100100000000000000000000000000110000000000000000000000000000000000000000000000000000000001100100000000000000000000000000000000000000000000000000000000110000000000010000100000000000000000000000000110000110000000000000000000000000000000000000000000000000000000000000000000000000000000000000000000000000000000000000000000000000000000000000000000000000000000000001101111110000000000000000000000000000000000000000000000000000000000000000000000000000000000000000000000000000000000000000000000000110000000000000000000000000000000000000000000000000000000000000000000000011100100000000000000000000000000000000000000000000000000000000110000000000000000000000000000000000000000000000000000000000000000000000000000000000000000000000000000001000000000000000000000000000000000001001000000000000000000000000000000000000000000000000000000010010000000000000000000000000000000000000000000000000000000000000000000000000000000000000000000000000000101000000000000000000000000000000000001010000000000000000000000000000000000000000000000000000000100100000000000000000000000000000000000000000000000000000000000000000000000000000000000000000000000000001010000000000000000000000011000110000010100000000000000000000000001110000000000000000000000000000110000000000000000000000000000000000000000000000000000000000000000000000000000000000000000000000000000001000000000000000000000001110010010000010100000000000000000000000000000000000000000000000000000000000000000000000000000000000000000000000000000000000000000000000000000000000000000000000000000000000000000000000000000000000000010000100000000000000000000000000000000000000000000000000000000000000000000000000000000000000000000000000000000000000000000000000000000000000000000000000000000000000000000000000000000000000000000000000011001001000100001000000000000000000000000000000000000000000000000001100000000000000000000000000000000000000000101001000000000000000000000000000000000000000000000000000000000000000000000000000000000000100101000000011110000000000000000000000000000000000000000000000000100100000000000000000000000000000000000000001000100011000000000000000000000000000000000000000000000000000011100000000000000000000001100000011000011000000000000000000000000000000000000000000000000000000110000000000000000000000000000000000000000000000000011000000000000000000000000000000000000000000000000000000000000000000000000000111010000110000000000000000000000000000000000000000000000000000000000000000000000000000000000000000000000000000000000000001010000000000000000001000000000000111000000000000000000000000000000000000000000100110001000000000011000000000000000000000000000000000000000000000000000000000000000000000000000000000000000000000000000001000000000000000000101000000000000000000000000000000000000000000000000000000000110000101110000001011000000000000000000000000000000000000000000000000000000000000000000000000000000000000000000000000000000000000001100000000000000000001000001000000000000000000000000000000000000000000000000111100110010110000000000000000000000000000000000001000000000000000000000000000000000000000000000000000001101100000000000000011000000011000000000010000010000000000000000000000000000000000000000000000000110000000010000000000000000000001000000000000000110000000000000000000000000000000000000000000000000000011000000000011000000000000000001100000000100000100000000000000000000000000000000000000000000000000000000000000000000000000000000101000000000000011010000000000000000000000000000001110000000000000000000001000000000110000000000000000000110000000000000000000000000000000000000000000000000000000000000000000000000000000000000000000001001000000000000111000000000000000000000000000000000000000000000000000000000000000000000000000000000000101100000000111000000000000000000000000000000000000000000000000000000000000000000000000000000000001100000000000010110000000000000000000000000000000000000000000000000000000000000000000000000000000000001100000000000000000000000000000000000000000000000000000000000000000000000000000000000000000000000000000000000001100000000000000000000000000000000000000000000000000000000000000000010000000000000000000000000000000000000000000000000000000000000000000000000000000000000000000000000000000010000000000000000000000000000100000000000000100000000000000000000000000000000000000000000000000100000000000000000000000000000000000000000000000000000000000000000000000000000000000000000000000000000000100000000000000000000000000001100000000000001000000000000000000000000000000000000000000000000011000000000000000000000000000000000000000000000000000001110001100000000000000000000000000000000000000000001000000000000000000000000000011100000000000010000000000000000000000000000000000000000000000000000000000000000000000000000000000000000000000000000000001110011000000000000000000000000000000000000000000000000000000000000000000000000010100000000000000000000000000000000000000000000000001000000011100001110000000000000000000000000000000000101100000000000010000000000000000000000000000000000000000000001110001110000000000000000000000000000000000000000011100000000000000000000000000000000010000000111000000000000000000000000000000000000000000110000000000001100000000000000000000000000000000000000000000000000000000000000000000000100001100000000000000000000000000000010000000000000000000000100000000110110000000000000000000000000000000000000000000000000000101000000000000000000000011000000000000000000000000000000000000000000000010100010100000000000000000000000000001010000000000000000000000000001010101100000011000000000000000000000000000110000000000000011011000000000000000110000110000000000000000000000000000000000000000000000101000010010100000000000000000000000010100000000000000000000000000110010010000000110000000110000000000000000010010011000000000010010000000000000001100000000000000000000000000000000000000000000000000000100000100011100000000000000000000000010000000000000000000000000100010100000000000000000010010000000000000000011001001000000000110110000000000011000000000000000000000000000000000000000000000000000000000000000000010100000000000000000000000000000000000000000000000001000100011000000011000000011000000000000000000000001100000000000101000000000000101000000000000000000000000000100000000000000000000000000000000001010001101110000000000000000000000000000000000000000000010001010100001110110000000000000000000000000000000000000000000000100000000000000010000000000000000000000000001000000000000000000000000000000000110001010010100000000000000000000000000000000000000000000000010001000011000000000000000000000000000000000000000000000000000000000000000001100011000000000000000000000010000000000000000000000000000000000101011000100100000000000000000000000000000000000000000000001111100001100000000000000000000000000000000000000000000000000000000000000000000001001000000000000000000000000000000000000000000000000000001000111100000101000000000000000000000000000000000000000000000000011010110000000000000000000000000000000000000000000000000000000011000000000000001010000000000000000000000011100000000000000000000000001101111100000001110000000000000000000000000000000000000000000000000000111000000000000000000000000000000000000000000000000000000001001000000000000001000000000000000000000000000000000000000000000000000010011100000000000000000000000000000000000000000000000000000000000000000000000000000000000000000000000000000000000000000000000000001010000000000000000000000000000000000000000000000000000000000000000000000101100000000000000000000000000000000000000000000000000000000000000000000000000000000000000000000000000000000000000000000000000001000000000000000000000000000000000000000000000000000000000000000000000101000100000000000000000000000000000000000000000000000000000000010000000000000000000000000000000001100000000000000000000000000000000000000000000000000000000000000000000000000000000000000000000000000000100010100000000000000000000000000000000000000000000000000000001010000000000000000000000000000000011000000000000000000000000000000000000000000000000000000000000000000000000000000000000000000000000000000000101000000000000000000000000000000000000000000000000000000010100000000000000000000000000000000000000000000000000000000000000000000000000000000000000000000000000000000000000000000000000000000000000000001100000000000000000000000000000000000000000000000000000000010000000000000000000000000000000000000000000001100000000000000000000000000000000000000000000000000000000000000000000000000000000000000000000000000000000000000000000000000000000000000000000000000000000000000000000000000000000000000000000000000000011000000000000000000000000000000000000000000000000000000000000000000000000000000000000000000000000000000000000000000000000000000000000000000000000000000000000000000000000000000000000000000000000000000000000000000000000000000000000000000000000000000000000000000000000000000000000000000000000000000000000000000000000000000000000000000000000000000000000000000000000000000000000000000000000000000000000000000000000000000000011000000000000000000000000000000000000000000000000000000000000000000000000000000000000000000000000000000000000000000000000000000000000000000000000000000000000000000000000000000000000000000000000000000110000000000000000000000000000000000000000000000000000000000000000000000000000000000000000000000000000000000000000000000000000000000000000000000000000000000000000000000000000000000000000000000000000000000000000000000000000000000000010000000000000000000000000000000000000000000000000000000000000000000000000000000000000000000000000000000000000000000000000000000000000110000000000000000000000000000000000000000000000000000000000000001010000000000000000000000000000000000000000000000000000000000000000000000000000000000000000000000000000000000000000000000000000000000001010000000000000000000000000000000000000000000000000000000000000010100000000000000000000000000000000000000000000000000000000000000000000000000011000000000000000000000000000000011000000000000000000000001000000000000000000000000000000000000000000000000000000000000000010000000000000000000000000000000001100000000000000000000000000000000000000000000000000000000000000000000000001001000000001100000011000000000000000000000000000000000000000000000000001000000000000000000000000000000000000000000000000000011000000000000000000000000011000000000000000000000000000000000000000000000001100000000011000001001000000000000000000000000000000000000000000000000010000000000000110000000110000000000000000000000000000000000000000000000000000000110000000000000000000000000000000000000000000000000000000000000000010100000000000000000000000000000000000000000000000000100000000000001100000010010000000000000000000000000000000000000000000000000000000000000000000000000011100000000000000000000000000000000000000000000010000000000000000000000000000000000000000000000000000000000000000000000000011000000000000000000000000000000000000000000000000000000000000000000000000000001000000000000000000000000000000000000000000000000000000000000000000000000000000000000000000000000000000000000000000000000000000000000000000000000000000000000000000000000000000000000000000000000000011000000000000000000000000000000000000000000000000000000000000000000000000000000000110000000000000000000000000000000000000000000000000000000000000000000000000000000000000000000000000000000000000001000100000000000000000000000000000000000000000000000000000000000000000000000000000000010010000000000000000000000000000000000000000000000000000000000000000000000000000010000000000000000000000000000000001010001100000000000000000000000000000000000000000000000000000000000000000000000000000101000000000000000000000000000000000000000000000000000000000000000000000000000000100000000000000000000000000000000001100010000000000000000000000000000000000000000000000000000000000000000000000000000000100000000000000000000000000000000000000000000000000000000000000000000000000000001000000000000000000000000000000000010000110000000000000000000000000000000000000000000000000000000000000000000000000000000000000000000000000000000010000000000000000000000000001100110000000000000000000000000000000000000000000000000000000000000000000000000000000000000000001000000000000000000000000000000000000000000000000000000000000000000000000000100000000000000000000000000011001100000000000000000000000000000000000000000000000000000000000100000000000000000000000000000101000000000000000000000000000000000000000000000000000000001100000000000000001000000000000000000000001100000000000000000000000000000000000000000000000000000000000000001010000000000000000000000000000001010000110000000000000000000000000000000000000000000000000100100000000000000000000000000000000000000011000000000000100000000000000000000000000000000000000000000000000011100000000000000000000000000000001000010010000000000000000000000000000000000000000000000001010000000000000000000000001000000000000000000000000000010100000000000000000000000000000000000000000000000000110000000000000000000000000000000000000011000000000000000000000000000000000000000001000000001000000000000000000000000111000000000000000000000000000101000000000000000000000000000000000000000000000000000000000000000000000000000000000000000000000000000000000000000000000000000000000000101000000000000000000000000000000011001000000000000000000000000000100000000000000000000000000000000000000000000000000000000000000000000000000000000000000000000000000000000110000000000000000000000000000110000000000000000000000000000001100110000000000000000000000000000000000000000000011000000000000000000000000000000000000000000000001000000001110110000000000000000000000010100000000000000000000000000000000000000000000000000000000000110000000000000000000000000000000000000000000000000110000000000000000000000000000000000000000000000110000000011001110000000000000000000000010000000000000000000000000000000000000000000000000000000000000101010000000000000000000000000000000000000000000000000000000000000000000000000000000000000000000011100000000001010100000000000000000000000000000000000000000000000000000000000000000000000000000000000000000001000000000000000000000000000000000000000000000000000000000000000000000000000000000000000000000000000010000011000000000000000000000000000000000000000000000000000000000000000000000000000000000000000100000000000000000000000000000000000000000000000000000000000011000000000000000000000000000000000000000000100000100000110000000000000000000000000000000000000000000000000000000000000000000000000000000000100110000000000000000000000000000000000000000000000000000001111000000000000000000000000000000000000000000000001001101000000000000000000000000000000000000000000000000000000000000000000000000000000000000010011011000000000000000000000000000000000000000000000000100001000000000000000000000000000000000000000100110000010100000000001100000011000000000000001100000000000000000000000000000000000000000000000000000110000000000000000000000000000000000000000000000000100010010000000000000000000000000000000000000010100000001001000000100011000000110000000000000100100000000000000000000000000000000000000000000000010100000000000000000000000000000000000000000000000000001111000010000000001110000000000000000000000001001000000001100000100100000000000000000000000000101000000000000000000000000000000000000000000000000011000000000000000000000000000000000000000000000000000001110000100000000000000000000000000000000000001100000000000000010101000000000000000000000000000100000000001000000000000000000000000000000000000000001010000000000000000000000000000011100000000000001000000010010000000110000000011000000000000000000000000000000000001101100000001000000000000000100000000000000101000000000000000000000000000000000000000000000000000000000000000000000000000000000000000010110000000000000001100000111101000000000000000000000000000000000001100000000111000000000000001000000000000001010000000000000000000000000000000011000110110000000110000000000000000000000000000000000000001011000000000000000000000000000001100000000000000000000000101001010000000010111000000000000010000000000000001000000000000000000000000000000000111000101100100100000000000000000000000000000000000000000000000000000000000000000011100000100100000000000000000000001010011000000000010111000000011000000000000000000000000000000000000000000000000000000001000011000010001000000000000000000000000000000000000000001100000000000000000000011000010000100000000110000000000000000010000000000000000000001001000000000000000000000000000000000000000000010000000000010000010001101100000000000000000000000000000000000000000000000000000000110001010000001100001000000010010000000000000100000000000000000000100010100000000000000000000000000000000000000000001000000000000010000000000010000000000000000000000000000000000000000000000001110000011110011000000011000010000000100100000000111000000000000000000000001100000100000000000000000000000000000000000000000001000000000000001110000111000000000000000000000000000000000000000000000000011001000100010000000000010001000000000110000000001110111001000000000000000011000011000000000000000000000000000000000000000000000111000000000000000000100000000000000000000000000000000000000000000000000110001100111000000110000011000000000000000000000000000111001000000000000000000000101000000000000000000000001000000000000000000000110000000000000000000000000000000000000000000000000000000000000000000000010000000100000001000000000000000000000000000000000000000010000000000000000000000010000000000000000000000101000000000000000000000000000000000000000000000000000000000000000000000000000000000000000000000001110000000000000000000000000000000000000000000000010100100000000000000000000001000000000000000000000001010000000000000000000000000000000000000000000000000000000000000000000000000000000000000000000000000000000000000000000000000000000000000000000000001101010000000000000000001011000000000000000000000000001000000000000000000000000000000000000000000000000000000000000000000000000000000000000000000000000000000000000000000000000000000000000000000000000010001000000000000000000011000000000000000000000000000000000000000000000000000000000000000000000000000000000000110000000000000000000000000000000000000000000000000000000000000000000000000111000000000000000000000000000000000000000000000000000000000000000000000000000000000000000000000000000000000000000000000000001100000000000000000000000000001000000110000000000000000000000000000000000000000000000000000000000000000000000000000000000000000000000000000000000000000000000000000000000000001110000000000000000000000000000000000000000000000000000010000001100000000000000011000000000000000000000000000000000000000000000000000000000000000000000000000000000000000000000000000000000000000000000000000000000000000000000000000000000000000000000000000000100000000000000000000001001000000001100000000000000000000000000000000000000000000000000000000000000000000000000000000000000000000000000000000000000000000000000000000000000000000000000000000000000000000000000000000000000000010010000000101000000000000000000000000000000000000000000000000000000000000000000000000000000000000000000000000000000000000000000000000000000000000000000000000000000000000000000000000000000000000000000011000000000100000000000000000000001100000000000000000000000000000000000000000000000000000000000000000000000000000000000000000000000000000000000000000001100000000000000000000000000000000000000000000000000000000000000000000000000000000010100000000000000000000000000000000000000000000000000000000000000000000000000000000000000000000000000000110000000000100100000000000000000000000000000000000000000000000000000000000000000000100000000000100000000000000000000000000000000000000000000000000000000000000000000000000000000000000000000000000000001100000000000110000000000000000000000000000000000000000000000000000000000000000000010100000000000000000000000000000000000000000000000000000000000000000000000000000000000000000000000000000000000000000000000000000000000000000000000000000000000000000000000000000000000000000000000000001010000000000000000000000000000000000000000000000000000000000000000000000000000000000000000000000000000000000000000000000000000000000000000000000000000000000000000000000000000000000000000000000000000101000000000000000000000000000000000000000000000000000000000000000000000000000000000000000000000000000000000000000000000000000000000000000000000000000000000000000000000000000000000000000000000000000000100000000000000000000000110000000000000000000000000000000000000000000000000000000000000000000000000000000000000000000000000000000000000000000000000000000000000000000000000000000000000000000000000000000000000000000000000000001100000000000000000000000000000000000000000000000000000000000000000000000001110000000000000000000000000000000000000000000000000000000000000000000000000000000000000000000000000000000000000000000000000000000000000000000000000000000000000000000000000000000000000000000000000000000000000000000000000000000000001000000000000000000000000000000000000000000000000000000000000000000000000000000000000000000000000000000000000000000000000000000000000000000000000000000000000000000000000000000000000000000000000000000101000000000000000000000000000000000000000000000000000000000000000000000000000000000000000000000000000000000000000000000000000000000000000000000000000000000000000000000000000000000000000000000000000001010000000000000000000000000000000000000000000000000000000000000000000000000000000000000000001100000000000000000000000000000000000000000000000000000000000000000000000000100000000000000000000000000000001000000000000000000000000000000000000000000000000000000000000000000000000000000000000000001001000000000000000000000000000000000000000000000000000000000000000000000000001000000000000000000000000000000000000000000000000000000000000000000000000000110000000000000000000000000000000000000000000001100000000000000000000000000000000000000000000000000000000000000000000000000010000000000000000000000000000000000000000000000011000001000000000000000000001100000000000000000000000000000000000000000000000000000000000000000000000000000000000000000000000000000000000000000000000000000000000000000000000000000000000000000000000000110000010000000000000000000000000000000000000000000000000000000000000000011000000000000000000000000000000000000000000000000000000000000000000000000000000000000110000000000000000000000011000000000000000000000100000000000000000000000000000000000000000000000000000000000000000100110000000000000000000000000000000000000000000000000000000000000000000000000000000001010000000000000000000000110000000000000000000000000000000000000000000000000000000000000000000000000000000000000001000100000000000000000000000000000000000000000000000000000000000000000000000000000000001100000000000000000000000000000000000000000000000000000000000000000000000000000000000000000000000000000000000000001110000000000000000000000000000000000000000000000000000000000000000000000000000000000000000000000000000000000000000000000000000000000000000000000000000000000000000000000000000000000000000000000000000000000000000000000000000000000000000000000000000000000000000000000