P1
200 200
0000000000000000000000000000000000000000000000000000000000000000000000000000000000000000011111100000000000000000100000000000000000000000000000000000000000000000000000000000000000000000010000000000000000000000000000000000000000000000000000000000000000000000000000000000000000000000000000001000101100000000010000010100000000000000000000000000000000000000000000000000000000000000000000001010000000000000011100000000000000000000000000000000000000000000000000000000000000000000000000000000000001100000000000001010000100100000000100000000000000000000000000000000000000000000000000000000000010100000000000000111000000000000000000000000000000000000000000000000000000000000000000000000000000000000011100000000000011000000110000000011100000000000000000000000000000000000100000000000000000000000010000000100000000100000000000000000000000000000000000000000000000000000000000000000000000000000000000000010000000000000000000000000000001010100000000000000000000000000011100010100000000000000000000000000000110100000000000000000000000000000000000000000000000000000000000000000000000000000000000011000000000000100000000000000000000000000010001000000000000000000000000000000000100100000000000000000000000000011000100000000000000000000000000000000000000000000000000000000000000000000000000000000000110000000000000000000000000000000000000011000001100000000000000000000000000000000110000000000000000000000000000000010000000000000000000000000000000000000000000000000000000000000000000000000000000000000000000000000000000000000000000000000001000010000100000000000000000000000000000000000000000001100000000000000001001100000001000000000000000000000000000000000000000000000000000000000000000000000000000000000000000000000000000000000000000000111001010011100000000000000000000000000000000000000000011000000000000000011011000000111000000000000000000000000000000000000000000000000000000000000000000000000000000000000000000000000000000000000000000100001000010000000000000000000000000000000000000000000000000000000000000010100000001110000000000000000000000000000000000000000000000000000000000000000000000000000000000000000000000000000000000000000000110000011000000000000000000000000000000000000000000000000000000000000000010000000000000000000000000000000000000000000000000000000000000000000000000000000000000000000000000000000000000000000000000000000010001000000000000000000000000000000000000000000000000000000000000000000000000000000000000000000000000000000000000000000000000000000000000000000000000000000000000100000000000000000000000000000000000000101010000000000000000000000000000000000000000000000000000000000000000000000000000000000000000000000000000000000000000000000000000000000000000000000000000000000001000000000000000000000000000000000000000111000000000000000000000000000000000000000000000000000000000000000000000000000000000000000000000000000000000000000000000000000000000000110000000000000000000000010000000000000000000000000000000000000000100000000000000000000000000000000000000000000000000000000000000000000000000000000000000000000000000000000000000000000000000000000000010010000000000000000000000000000000000000000000000000000000000000000000000000000000000000000000000000000000000000000000000000000000010110100000000000000000000000000000000000000000000000000000000000000101000000000000000000011100011100000000000000000000000000000000000000000000000000000000000000000000000000000000000000000000000000001010001000000000000000000000000000000000000000000000000000000000000000100000000000000000000000000000000000000000000000000000000000000000000000000000000000000000000000000000000000000000010100000000000001011001100000000000000000000000000000000000000000000000000000000000000000000000000000000000000100000000000000000000000000000000000000000000000000000000000000000000000000000000000000000101111000000000000001001000000000000000000000000000000000000000000000000000000000000000000000000000000000000001000000000000000000000000000000000000000000000000000000000000000000000000000000000000000000101110000000000000010010000000000000000000000000000000000000000000000000000000000000000000000000000000000000010000000000000000000000000000000000000000000000000000000000000000000000000000000000000011000000100000000000000011000000000000000000000000000000000000000000000000000000000000000000000000000000000000000000000000000000000000000000000000000000000000000000000000000000000000000000000000000001001000000000110000000000000000000000000000000000000000000000000000000000000000000000000000000000000000000000000000000000000000000000000000000000000000000000000000000000000000000000000000000000000000000010000000001100000000000000000000000000000000000000000000000000000000000000000000000000000000000000000000000000000000000000000000000000000000000000000000000000000000000000000000000000000000000000000000010000000000000000000000000000000000000000000000000000000000000000110000000000000000000000000000000000000000000000000000000000000000000000000000000000000000000000000000000000000000000000000000000000011100000000000000000000000000000000000000000000000000000000000000010010000000000000000000000000000000000000000000001000000000000000000000000000000000000000000000000000000000000000000000000000000000000000000001000000000000000000010000000000000000000000000000000000000100100000000000000000000000000000000000000000000111000000000000000000000000000000000000000000000000000000000000000000000000000000000000000000010000000000000000001010000000000000000000000000000000000000110000000000000000000000000000000000000000000010101000000000000000000000000000000000000000000000000000000001000101000000000000000000000000000000000000000000000010100000000000000000000000000000000000000000000000000000000000000000000000000000001001110111000000000000000000000000000001000000000000000000000000100101110000000000000000000001110000000000000000000000010000000000000000000000000000000000110000000000000000000000000000000000000000000101001010100000000000000000000000000000101000000000000000000000001010010100000011100000000000011000000000000000000000000000000000000000000000000000000000001100000000000000000000000000000000000000000010010001110000000000000000001000000000001010000000000000000000000010010110000001100100000000000110000000000000000000000000000000000000000000000000000000000000000000000011000000000000000000000000000000011000001000000000000000000111000000000001000000000000000000000000011111100001101011000000000000000110000000000000000000000000000000000000000000000000000000000000000001001000000000000000000000000000000000000000000000000000000000110000000000000000000000000000000000000001000011000010000000000000000011100000000000000000000000000010000000000000000000000000000000000000010100000000000000000000000000000000000000000000000011000000100100000000000000000000000000000000000000000000010000100000000000000000100000000000000000000000000001010000000000000000000000000000000000000010000000000000000000000000000000000000000000000001001000001001011000000000000000000000000000000000000100010010101000000000000000111000000000000000000011100000010010000000000000000000000000000000000000000000000000000000000000000000000000000000000000001100000000000000000000000000000000000000000000000010110010000010000000000000000000000000000000000000101000000011000000000000000000000000000000000000000000000000000000000000000001000000000000000000000000000000001000100000000000000000000000000000000000100001000000000000000000000000000000000000000000010010000000000000000000000000000000000000000000000000011000000000000000000000010000000000000000000000000000101100001100000000000000000000000000000000000000100000000000000000000000000000000000000000000111000000000000000000000000000000000000000000000000000110000000000000000000000100000000000000000000000000000100010101000000000000000000000000000000000000000000000000000000000000000000001110000000000001110000000000000000000000000000000000000000000000000000000000000000000000000000000000000000000000000000000000000000110000000000000000000000000000000001000000000000000000000000000000000000000000000000001001000000000000000000000000000000000000000010000000000000000000000000000000000000000000000000000000000000000000001100000000000000000000000000000000010100000000000000000000011100000000000000000000000010000000000000000000000000000000000000000001010000000000000000000000000000000000000000000000000000000000000000000000000000000000000000000000000000000110000000000000000000000110100000000000000000000000000100000000000000000000100000000000000000010010000000000000000000000000000000000000000000000000000000010000000000000000000000000000000000000000000000000000000000000000000110100100000000000000000000000000000000000000000000011100000000000011000011000000000000000000000000000000000000000000000000000000000100000000000000000000000000000000000000000000000000000000000000000001110110000000000000000000000001000000000000000000001101000000000000110000000000000000000000000000000000000000000000000000000000000001000000000000000000000000000000000000000000000000000000000000000000010010000000000000000000000000001000000000000000000010011000000000000000000000000000000000000000000000000000000000000000000000000000000000000000000000000000000000000000000010000000000000000000000000000010100000000000000000000000000110000000000000000011100010000000000000000000000000000000000000000000000000000000000000000000000000000000000000000000000000000000000000000000100000000000000000000000000000010000000000000000000000000000000000000000000000010110010000000000000000000000000000000000000000000000000000000000000000000000000000000000000000000000000000000000000000011100000000000000000000000000000000000000000000000000000000000000000000000000000011101100000000000000000000000000000000000000000000000000000000000000000000000000010000000000000000000000000000000000000000000000000000000000000000000000000000000000000000000000000000000000000000000000001001000100000000000000000000000000000000000000000000000000000000000000000000000100000000000000000000100000000000000100000100000000000000000000000000000000000000000000000000000000000000000000000000000001100011000000000000000000000000000000000000000000000000000000000000000000000001000000000000000000010100000000000100000000010000000000000000000000000000000000000000000000000000000000000000000000000000000101001000000000000000000000000000000000000000000000000000000000000000000000000000000000000000000100100000000011000010000110000000000000000000000000000000000000000000000000000000000000000000000000000001011110000000000000000000000000000000110000000000000000000000111000000000000000000000000000110000110000000001100001110000110000000000000000000000000000000000000000000000000000000000000000000000000001101011110000000000000000110000000000001100000000000000000000000010000000000000000000000000001100000000000000001001110111001000000000000000000000000000000000000000000000000000000000000000000000000000010000101010000000000000001100000000000000000000000000000000000001000000000000000000000000000000000000000000000001101000101100000000000000000000000000000000000000000000000000000000000000000000000000000100000001000000000000000000000000000000000000000000000000011000000000000000000000000000000000000000000000010000001100000110000000000000000000000000000000000000000000000000000000000000000000000000000000100100000000000000000000000000000000000000000000000000000110000000000000000000000001110000000000000000011100000000000000000000000000000000000000000000000000000000000000000000000000000000000000000000000100010000000000000000000110000011000000000000000000000000000000000000000000000000000000000000000000000111000000000000000000110000000000000000000000000000000000000000000000000000000000000000000000000000000100000000000001100010010000110000000000000000000000000000000011001100000000000000000000000000000000111110000000000000001100000000000000000000000000000000000000000000000000000000000000000000000000000010100000000000011000010100000000000000000000000000000000000000000000100000000000000000000000000000000000100000000000000000000000000000000000000000000000000000000000000000000000011000000000000000000000000000000000000000000010000000000000000000000000000000000000000000000100000000000000000000000000000000001000000000000001000000000000000000000000000000000000000000000000000000001001000000000000000000011011000000000000000000000000000000000000000000000000000000000000000001000000000000000000000000000000000000000000000100001000000000000000000000000000000000000000000000000000000010010000000000000000000100010000000000000000000000000000000000000000000000000000000000000010001000000000000000000000000000000000000000000001000010000000000000000000000000000000000000000000110000000000011000000000000000000011110000000000000000000000000000000000000000000000000000000000000000011100000000000000000000000001100000000000000000001011000000000000000000000000000000000000000000001100000000000000000000000000000000010110100000000000000000000000000000000000000000000000000000000000000011000000001100000000000000011000000000000000000010100000000000000000000000000000000000000000000000000000000000000000000000000000000000111100000000000000000000000000000000000000000000000000000000000000000000000100100000000000000000000000000000000000100000000000000000000000000000000000000000000000000000000000000000000000000000000000100010000000000000000000000000000000000100000000000000000000000000000000000000110000000000000000000000000000000000010000000000000000000000000000000000000000000000000000000000000000000000000000000000001101100000000000000000000000000000000001000000011100000000000000000000000000000000000000000000000000000000000000001001010000000000000000000000000000000000000000000000000000000000000000000000000000000000000000000000000000000000000000000000010000000100100000000000000000000000000000000000000000000000000000000000000001001000000000000000000000000000000000000000000000000000000000000000000000000000000000010100000000000000000000000000000000000000000010001000000000000000000000000000000000000000000000000000000000000000001110000000000000000000000000000000000000000000000000000110000000000000000000000000000010000000000000000000000000000000000000000000000001000000000000000000000000000000000000000000000000000000000000000000000000000000000000000000000000000000000000000000000010010000000000000000000000000000100000000000000000000000000000000000000000110001100000000000000000110000000000000000000000000000000000000000000000000000000000000000000000000000000000000000000000000000011000000000000000000000000000000000000000000000000000000000000000000000100000100000000000000000010010000000000000000000000000000000000000000000000000000000000000000000000000000000000000000000000000000000000000000000000000000000000000000000000000000000000000000000000000001000010000000000000000000011000000000000000000000000000000000000000000000000000000000000000000000000000000000000000000000000000000000000000000000000000000000000000000000000000000000000000000000000000010000010000000000000000000000000000000000000000000000000000000000000010000000000000000000000000000000000000000000000000000000000000000000000000000000000000000000000000000000001011100000000000000000000001100011000000000000000000000000000000000000000000000000000000000001010000000000000000000000000000000000000000000000000000000000000000000000000000000000000000000000000000000101100100000000000000000000000000001000000000000000000000000000000000000000000000000000000000010100000000000000000000000000000000000000000000000000000000000000000000000000000000000000000000000000000001111010000000000000000000000001000100000000000000000000000000000000000000000000000000000000000010000000000000000000000000000000000000000000000000000000000000000000000000000000000000000000000000000000011011000000000000000000000000001001000000000000000000000000000000000000000000001100000000000000000000000000110000000000000000000001000000000000000000000000000000000000000000000000000000000000000000000000000000000000000000000000000011100000000000000000000000000000000000000000000011000000000000000000000000010010000000000000000000101000000000000000000000000000000000000000000000000000000000000000000000110000000000000000000000000000000000000000000000000000000000000000000000000000000000000000000000000000000100100000000000000000000100000000000000000000000000000000000000000000000000000000000000000000000000000000000000000000000000000000000000000000000000000000000000000000000000000000000000000000000000000001010000000000000000000000000000000000000000000000000000000000000000000000010000000000000000000000000000000000000000000000000000000000000000000000000000000000000000000000000000000000000000000000000011110000000000000000000100000000000000000000000000000000000000000000000000001110000000000000000000000000000010000000000000000000000000000000000000000000000000000000000000000000000000000000000000000000100110000000000000000011100000000000000000000000000000000000000000000000000100110000000000000000000000000000100001100000000000000000001000000011000000000000000000000000000000000000000000000000000000000111000000000000000000000000000000000000000000000000000000000000000000000000000100000000000000000000000000001000100100000000000000001100000000110000000000000000000000000000000000000000000000000000000000100000000000000000000000000000000000000000000000000000000000000000000000000111000000000000000000000000000000000110000000000000000001100000000000000000000000000000000000000000000000000000000000000000000000000000000000000011100000000000000000000000000000000000000000000000000110110000000000000000000000000000000000000000000000000111000000000000000000000000000000000000000000000000000000000000000000000000000000000000000000010000000000000000000000000000000000000000001000000110100000000000000000000000000000000000000000000000000000000000110000000000000000000000000000000000000000000000000000000000000000000000000000000000000000000000100000000000000000000000000000000101000001001100000000000000000000000000000000000000000000000000000000010010000000000000000000000000000000000000000000000000000000000000000000000000000000000000000000001000000110000000000000000000000010010000001100000000000000000000000000000010000000000000000000000000000100100000000000000000000000000000000000000000000000000000000000000000000000000000000000000000000010001111010000000000000000000000011000000000000000000000000000000000000000100000000000000000000000000000110000000000000000000000000000000000000000000000000000000000000000000000000000000000000000000000000111010010000000000000000000000000000000000000000000000000000000000000001000000000000000000000000000000000000000000000000000000000000000000000000000000000000000000000000000000000000000000000000011100010011111100000000000000000000000000000001000000000000000000000000000000000000000000000000000000000000000000000000000000000000000000000000000000000000000000000000000000000000000000000000000000000000000010001100100000000000000000000000000000101000000000000000000000000000000000000000000000000000000001100000000000000000000000000000000000000000000000000000000000000000000000000000000000000000000000000100000010011000000000000000000000000110000110000000000000000000000000000000000000000000000000000000100100000000000000000000000000000000000000000110000000000000111000010000000000000000000000000000000001000000110000000000000000000000000010100000000000000000000000000000000000000000000000000000000000000110000000000000000000000000000000000000000010010000000000000100001000000000000000000001000000000000010000001001000000000000000000000000100001100000000000000000000000000000000000000000000000000000000000000000000000000000000000000000000000000000010100000000000000111010000000000000000000010000000000000000000000000000000000000000000000000111000100000000000000000000000000000000000000000000000000000000000000000000000000000000000000000000000000000010000000000000000100100000000000000000000100000000000000000000000000000000000000000000000000100001000000000000000000000000000000000000000000000000000000000000000000000000000000000000000000000000000000000000000001000001011100000000000000000000000000000000000000000000000000000000000000000000000110110000000000000000000000000000000000000000000000000000000000000000000000000000000000000000000000000000000000000000111000010010000000000000000111000111000000000000000000000000110000000000000000000000110000000000000000000000000000001000000000000000000000000000000000000000000000000010000000000000000000000000000000011001000000000000000000000000000000000000000000000000000000001100000000000000000000000000000000000000000000000000000101000000000000000000000000000000000000000000000000100000000000000000000000000000000000000001110000000000000000000001000000000000000000000000000000000000000000000000000000000000000000000000000000000001001000000000000000000000000000000000000000000000001000000000000000000000000000000000000100000000000000000000000000010000000000000000000000000000000000000000000000000000000000000000000000000000000000001100000000000000000000000000000000000000000000000000000000000000000000000000000000000000000000000000000000000000000100000000000000000000000000000000000000000000000000000000000000000000000000000000000000000000000000000000000000000000000000000000000000000000000000000000000000000000000001101000000000000000000000000000000000000000000000000000000000000000000000000000000000000000000000000000000000000000000000000000000000000000000000000000000000000000000000000000000000000000000000000000001100000000000000000000000000000000000000000000000000000000000000000000000000000000000000000000000001110000000000000000000000000000000000000000000000000000000000000000000000000000000000000000000000000000000000000000000000000000000000000000000000000000000100000000000000000000000000000000000000000000000000000000000000000000000000000000000000000000000000000000000000000000000000000000000000000000000000000000000000000000000000000000000000000000000000000011100000000000000000000000000000000000000000010000010000000000000000000000000000000000010001100000000000000000000000000000000000000000000000000000000000000000000000000000000000000000000000000000000001100100000000000000000000000000000000000000000100000100000000000000000000000000000000000100011100000000000000000000000000000000000111000000000000000000000000000000000000000000000000000110000000000000010111000000000000000000000000000000000000000001000001000000000000000000100000000000000000000110000000000000010000000000000000000000000000000000000000100000100000000000000000000000000000101100000000000110101100000000000000011000000000000000000000000010000000000000000000010100000000000000000000000000000000001010000000000000000000000000000000000000001000001000000000000000000000000000000000100000000000000100100000000110000110000000000000000000000000100000000000000000000101000000000000010010000000000000000010100000000000000000000000000000000000000010000010001100000000000000000000000000001000000000000011111100000001100000000000000000000000000000000100000000000000000000100000000000000011100000000000000000010000000000000000000000000000000000000000000000000100100000000000000000000000001110000000000000010010000000000000000000000000000000000000000010000000000000000000000000000000000000000000000000000000000000000000000000000000000000000000000011100011100000110000000000000000000000000000000000000001101011000000000000000000000000000000000000000001010000000000000000000000000001100000001010000000000000000000000000000000000000000000000000000000000000000000000000000000000000000000000000000000000000010111000000000000000000000000000000000000011100001100000000000000000000000000011000000000110000000000000000000000000000000000000000000000000000000000100000000000000000000000000000000000000000000110000110010000000000000011000000000000000000000000000000000000000000000000000000000000000010000011000000000000000000000000000000000000000000000000000000001000000000000000000000000000000000000000000001100000111000000000000001001000000000000000000000000100000000000000000000000000000000000000100111011000000000000000000000000000000000000000000000000000000010000000000000000000000000000000000000000000000000000100000000000000001010000000000000000000000001000000000000000000000000000000000000001110110000000000000000000000000000000000000000000000000000000000000000000000000000000000000000000000000000000000000000000000000000000001000000000000000000000000010000000000000000000000000000000000000000000100100000000000000000000000000000000000000000000000000000000000000000000000000000000000000000000000000000000000000000000000000000000000000000000000000000000000000000000000000000000000000000000000000000010000000000000000000000000000000000000000000000000000000000000000000000000000000000000000000000000000000000000000000000000000000000000000000000000000000000000000000000000000000000000000000000000000011000000000000000000000000000000000000000000000010000000000000000000000000000000001100000000000000000000000000000000000000000000000000000000000000000000000000000000000000000000000000000000000000000000000000000000000000000000000000000000000000000001010000000000000000000000000000000011000000000000000000000000000000000000000000000000000000000000000000000000000000000000000000000000000000000000000000000000000000000000000000000000000000000000000000010100000000000000000000000000000000000000000000000000000000000000000000000000000000000000000000000000000000000000000000000000000000000000000000000000000000000000000000000000000000000000000000000000000010000000000000000000000000000000000000000000001100000000000000000000000000000000000000000000000000000000000000000000000000000000000000000000000000000000000000000000000000000000000000000000000000000000000000000000000000000000000000000000000000000011000000000000000010000000000000000000000000000000000000000000000000000000000000000000000000000000000000000000000000000000000000000000000000000000000000000000000000000000000000000000000000000000000000000000000000000001010000000000000000000000000000000000000000000000000000000000000000000000000000000000000000000000000000000000000000000000000000000000000000000000000000000000000000000000000000000000000000000000000000010100000000000000000000000000000000000000000000000000000000000000000000000000000000000000000000000000000000000000110000000000000000000000000000000000000000000000000000000000000011000000001100001100000010000000000000000000000000000000000000000000000000000000000000000000000000000000000000000000000000000000000001000010000000000000000000000000000000000000000000000000000000000000000000000000000000000000000000000000000000000000000000000000000000000000000000000000000000000000000000000000000000000000000000000000010111000000000000000000000000000000000000000000000000000000110000000000000000000000000000000000000000000000000000000000000000000000000000000000000000000000000000000000000000000000000000000000000000000110101000000000000000000000000000000000000000000000000000001010010000000000000000000000000000000000000000000000000000000000011100000000000000000000000000000000000000000000000000000000000000000000100000000000000000000000000000000000000000000000000000000000000001000100000000000000000000000000000000000000000000000000000000001000100000000000000000000000000000001100000000000000000000000000000000010100000000000000000000000000000000000000011000000001100000011000000000000000000000000000000000000000000000000000000000000000000100000100000000000000000000000000000011000000000000000000000000011000000101000110000000000000000000000000000000000101000000011000001001000000000000000000000000000000000000000000000000111000000000000010001000100000000000000000000000000000000000000000000000000000000110000000100001010000000000000000000000000000000010010000000000000010100000000000000000000000000000000000000000000000000000000000000000100101001000000000000000000000000000000000000000000000000000000000000000000000001000000000000000000000000000000000110000000000000000010000000000000000000000000000000000000000000000000000000000000000001000100010000000000000000000000000000000000000000000000000000000000000000000000000000000000000000000000000000000000110000000000000000000000000000000000000000000000000000000000000000000000000000000000001000001000000000000000000000000000000000000000000000000000000000000000000000000000000000000000000000000000000000000000011000000000000000000000000000000000000000000000110000000000000000000000000000000001000100000000000000000000000000000000000000000000000000000000000000000000000000000000000000000000000000000000000000000101000000000000000000000000000000000000000000010010000000000000000000000000000000001110000000000000000000000000000000000000000000000000000000000000000000000000000001000000000000000000000000000000011100010000000000000000000000000000000000000000000101000000000000000000000000000000000000000000000000000000000000000000000000000001110000000000000000000000000000000000101000000000000000000000000000001000001000000000000000000000000000000000000000000000100000000000000000000000000000000110000000000000000000000000000000000000000000000000000000000000000000000000000000000100000000000000000000000000000100000000000000000000000000000000000000000000000000000000000000000000000000000000000001100000000000000000001100110000000000000000000000000000000000000000000000000000000000000000000000000000000000000000100001000000000000000000000000000000000000000000000000000000000000000000000001110000000000000000000000000011001100000000000000000000000000000000000000000000000000000000000000000000000000000000000000001001000000000000000000000000000000000000000000000000000000001100000000000000000000000000000000000000001100000000000000000000000000000000000000000000000000000000000000000000000000000000000000000000000001010000110000000000000000000000000000000000000000000000000100100000000000000000000000000000000000000011000000000000100000000000000000000000000000000000000000000000000000000000000000000000000000000000000000010010000000000000000000000000000000000000000000000001010000000000000000000000000000000000000000000000000000010100000000000000000000000000000000000000000000000000000000000000000000000000000000000000000011000000000000000000000000000000000000000001000000001000000000000000000000000000000000000000000000000000000101000000000000000000000000000000000000000000000000000000000000000000000000000110000000000000000000000000000000000000000000000000000000101000000000000000000000000000000000000000000000000000000000000000100000000000000000000000000000000000000000000000000000000000000000000000000010010000000000000000000000000110000000000000000000000000000110000000000000000000000000000000000000000000000000000000000000000000000000000000011000000000000000000000000000000000000000000000001000000000100100000000000000000000000010100000000000000000000000000000000000000000000000000000000000001110000000000000000000000000000000000000000000000110000000000000000000000000000000000000000000000101000000000110000000000000000000000000010000000000000000000000000000000000000000000000000000000000000000000110000000000000000000000000000000000000000000000000000000000000000000000000000000000000000010010000000000000000000000000000000000000000000000000000000000000000000000000000000000000000000000000000000010010000000000000000000000000000000000000000000000000000000000000000000000000000000000000000011000000000000000000000000000000000000000000000000000000000000000000000000000000000000000000000000000000000101000000000000000000000000000000000000000000000000000000000000000000000000000000000000000000000000000000000000000000000000000000000000000000000000000000000000000000000000000000000000000000000000000000100000000000000000000000000000000000000000000000000000000000000000000000000000000000000000000000000000000000000000000000000000000000000000000000000000000000000000000000000000000000000000000000000011000000000000000000000000000000000000000000000000000000000000000000000000000000110000000000000000000000001100000000000000010000000000011000000000000000110001100000000000000000000000000000000000000000110000000000000000000000000000000000000000000000000000000000000000000000000000010010000000000000000000000100100000000001111110000000000110000000000000110100010110000000000000000000000000000000000000000000000000000000000000000000000000000000000000000000000000000000000000000000010000100000000000000000000000101000000001100001110000000000000000000000001000000000100000000000000000000000000000000000000000000000000110000000000000000000000000100000000000000000000000000000000000001111110000000000000000000000000100000000010001000110000000000000000000000010100000101000000000000000000000000000000000000000000000000001100000000000000000000000001000000000000000000000000000000000000110100000000000000000000000000000000000000111010000000000000000000000000000011011101100000000000000000000000000000000000000000000100000000000000000000000000000000010000000000000000000000000000000000000101000000000000000000000000000000000000000000000000000000000000000000000000001000100000000000000000000000000000000000000000000010000000000100000000000000000000000000000000000000000000100000000000000000110000000000000000000000000000000000000000000000000000000000000000011000001100001000000000000000000000000000000000000000000000011000000010100000000000000000000000000000000011000000001000000000000000000000000000000000000000000000000000000000010100000000000000000000000110000011111100000000000000000000000000001100000000000000000101000001001000000000000000000000000000000000110000000010000000000000000000000000000000000000000110000000000000000111011000000000000000000001111100011000000000000000000000000000000011000000000000000000101000001100000000000000000000000000000000000000000100000100000000000000000000000000000000000010010000000000000000100100001000000000000000011010010100000000000000000000000000000000000000000000000000000100000000000000000000000000000000000000000000000001010101000000000000000000000000000000000000100100110001100000000000100010000000000000000110000110000000000000000000000000000000000000000000000000000000000000000000000000000000000000000000000000000000010000010000000000000000000000000000000000000110001100100100000000001111010000000000000000100111100000000000000000000000000000000000000000000000000000000000000000000000000000000000000000000000000000000000000000000000000000000000000000000000000000000000000101000000000001001100000000000000001000000000000000000000001000000000000000000000000000000000000000000000000000000000000000000000000000000000000000000000000000000000000000000000000000000000000000000000100000000000000110000000000000000110000000000000000000000101000000000000000000000000000000000000000000000000000000000000000000000000000000000000000000000000000000000000000000000000000000000000000000000000000000000001000000000000000000110000000000000000000001010000000000000000000000000000000000000000000000000000000000000000000000000000000000000100000100000000000000000000000000000000000000000000000000000000000000000000000000000000000000000000000000000000001000000000000000000000000000000000000000000000000000000000000000000000000000000000000001010101000000000000000000000000000000000000001000000000000000000000000000000000000000000000000000000000000000000000000000000000000000000000000000000000000000000000000000110000000000000000000000000000010000010000000000000000000000000000000000000010000000000001100000000000000000000000111000000000000000000000000000000000000000000000000000000000010000000000000000000000001100000000000000000000000000000000100000000000000000000000000000000000000000100000000000010110000000000000000000000000000000000000000000000000000000000000000000000000000000000100000000000000000000000000000000000000000000000000000000001000000000000000000011000000000000000000000000000000000100010000000000000000001000001000000000000000000000000000000000000000000000000000000001000000000000000000000000000000000000000000000000000000000010000000100000000001001000000001100000000000000000000001100100000000011000000010000010000000000000000000000000000000000000000000000000000000000000000000000000000000000000000000000000000000000000000000000000011100000000010010000000101000000000000000000000001110000000001001000000100000100000000000000000000000000000000000000000000000000000000000000000000000000000000000000000000000000000000000000000000000001001100000000011000000000100000000000000000000000001000000000010000100000000000000000000000000000000000000000000000000000000000000000000000000000000000000000000000001100000000000000000000000000000000110001000000000000000000000000000000000000000000000000000000000011111100000111000000000000000000000000000000000000000000000000000000000000000000000000000110000000000100100000000000000000000000000000000101100000000000000000000000000000000100000000000000000000000000000101100000000000000000000000000000000000000000000000000000000000000000000000000000000001100000000000110000000000000000000000000000000000011000000000000000000000000000000010100000000000000000000000000001010000000000000000000000000000000000000000000000000000000000000000000000000000000000000000000000000000000000000000000000000000000000000000000000000000000000000000000001010000000000000000000000000000011000000000000000000000000000000000000000000000000000000000000000000000000000000000000000000000000000000000000000000000000000000000000000000000000000000000000000000000101000000000000000000000000000000000000000000000000000000000000000000000000000000000000000000000000000000000000000000000000000000000000000000000000000000000000000000000000000000000000000000000000000000100000000000000000000000000000000001100000000000000000000000000000000000000000000000000000000000000010000000000000000000000000000000000000000000000000000000000000000000000000000000000000000000000000000000000000000000000000000000000000011000000000000000000000000000000000000000000000000000000000000000100000000000000000000000000000000000000000000000000000000000000000000000000000000000000000000000000000000000000000000000000000000000000000000000000000000000000000000000000000000000000000000000000000001000000000000000000000000000001000000000000000000000000000000000000000000000000000000000000000000000000000000000000000000000000000000000000000000000000000000000000000000000000000000000000000000000000000000000000000000000000000000101000000000000000000000000000000000000000000000000000000000000000000000000000000000000000000000000000000000000000000000000000000000000000000000000000000000000000000000000000000000000000000000000000001010000000000000000000000000000000000000000000000000000000000000000000000000000000000000000000000000000000000000000000000000000000000000000000000000000000000000000000000000000000000000000000000000000001000000000000000000000000000000000000000000000000000000000000000000000000000000000000000000000000000000000000000000000000000000000000000000001110000000000000000000000011100000000000000000000000000000000000000000000000000000000000000000000000000110000000000000000000000000000000000000000000000000000000000000000000000000000000000000000000001110100000000000000000000000000000000000000000000000000000000000000000000000011000000000000000000000000001100000000000000000000000000000000000000000000000000000000000000000000000000000000000000000000010010000000000000000000000000000000000000000000000000000000000000000000000000110000111000000000000000000000000000000000000000000000000000000000000000000000000000000000000000000000000000000000000000000100000000000000000000000000000000000110000000000000000000000011000000000000000000000000000000000000000000000000000000000000000000000000000000000000000000000000000000000000000110000000000000000000000000000000000000000000000000000000000001010000000000000000000000110000000000000000000000000000000000000000000000000000000000000000000000000000000000000000000000000000000000000000000000000000000000000000001000000000000000000000000000000000001100000000000000000000000000000000000000000000000000000000000000000000000000000000000000000000000000000000000000000000000000000000000000000000000000000000000000000010100000000000000000000000000000000000000000000000000000000000000000000000000000000000000000000000000000000000000000000000000000000000000000000000000000000000000000000000000000000000000000000000000000101000000000000