P1
200 200
0011000000000000000000000000000000000000000000000000000000000000000000000000000000000000111000000000000000000000100000000000000000000000000000000000000000000000000000000000000000000000010000000000000000101000000000000000000000000000000000000000000000000000000000000000000000000000000000001100100000000000010000010100000000000000000000000000000000000000000000000000000000000000000000001010000000000000000011000000000000000000000000000000000000000000000000000000000000000000000000000000000000101000000000001010000100100000000100000000000000000000000000000000000000000000000000000000000010100000000000000001100000000000000000000000000000000000000000000000000000000000000000000000000000000000001000100000000011000000110000000010100000000000000000000000000000000000100000000000000000000000010000000000000000101000000000000000000000000000000000000000000000000000000000000000000000000000000000000010001000000000000000000000000000101000000000000000000000000000011100010100000000000000000000000000011100000000011000000000000000000000000000000000000000000000000000000000000000000000000000011000000000100010000000000000000000000000000100000000000000000000000000000000000100100000000000000000000000000000000000001100000000000000000000000000000000000000000000000000000000000000000000000000000110000000000010000000000000000000000000000000000000000000000000000000000000000000110000000000000000000000000000000100000011000000000000000000000000000000000000000000000000000000000000000000000000000000000000000000000000000000000000000000001100000001100000000000000000000000000000000000000000001100000000000000000010100000110011000000000000000000000000000000000000000000000000000000000000000000000000000000000000000000000000000000000000000100100000100100000000000000000000000000000000000000000011000000000000000000101000001100111000000000000000000000000000000000000000000000000000000000000000000000000000000000000000000000000000000000000000110000000110000000000000000000000000000000000000000000000000000000000000000100000000000000000000000000000000000000000000000000000000000000000000000000000000000000000000000000000000000000000000000000000000000000000000000000000000000000000000000000000000000000000000000000000000000000011000000000000000000000000000000000000000000000000000000000000000000000000000000000000000000000000000000000000000000000000100000000000000000000000000000000000000000000000000000000000000001100000000000010000000000000000000000000000000000000000000000000000000000000000000000000000000100000000000000000000000000000000000000010100000000000000000000000000000000000000000000000000000000000000011010000000000100000000000000000000000000000000000000000000000000000000000000000000000000000001000000000000000000000000000000000000000101000000000000000000000000000000000000000000000000000000000000100010100000000000000000000000000000000000000000000000000000000000000000110000000000000000000000010000000000000000000000000000000000000000100000000000000000000000000000000000000000000000000000000000010000110000000000000000000000000000000000000000000000000000000000000000010010000000000000000000000000000000000000000000000000000000000000000000000000000000000000000000000000000000000000000000000000001100001100001000000000000000000000000000000000000000000000000000000000000101000000000000000000011100011100000000000000000000000000000000000000000000000000000000000000000000000000000000000000000000000000000000011101000000000000000000000000000000000000000000000000000000000000100000000000000000000000000000000000000000000000000000000000000000000000000000000000000000000000000000000000000000000000000000100000000111010000000000000000000000000000000000000000000000000000000000000000000000000000000000000100000000000000000000000000000000000000000000000000000000000000000000000000000000000000011000001100001000000001001000000000000000000000000000000000000000000000000000000000000000000000000000000000000001000000000000000000000000000000000000000000000000000000000000000000000000000000000000000110000011000000110000010000000000000000000000000000000000000000000000000000000000000000000000000000000000000000010000000000000000000000000000000000000000000000000000000000000000000000000000000000000000000000000000000001001000000000000000000000000000000000000000000000000000000000000000000000000000000000000000000000000000000000000000000000000000000000000000000000000000000000000000000000000000000000000000000000110000001110011000000000000000000000000000000000000000000000000000000000000000000000000000000000000000000000000000000000000000000000000000000000000000000000000000000000000000000000000000000000000000001100000000001001000000000000000000000000000000000000000000000000000000000000000000000000000000000000000000000000000000000000000000000000000000000000000000000000000000000000000000000000000000000000000000000000000001100000000000000000000000000000000000000000110000000000000000000000000000000000000000000000000000000000000000000000000000000000000000000000000000000000100100000000000000000000000000000000000000000000000000000000000000000000000000000000000000010010000000000000000000000000000000000000000001100000000000000000000000000000000000000000000000000000000000001001000000000000000000000000000000000000000000000001110000000000000000000000000000000000000100100000000000000000000000000000000000000000100100000000000000000000000000000000000000000000000000000000000100001000000000000000000000000000000000000000000000010010000000000000000000000000000000000000110000000000000000000000000000000000000000001101100000000000000000000000000000000000000000000000000000000001110000000000000000000000000000000000000000000000001101000000000000000000000000000000000000000000000000000000000000000000000000000000110001010000000000000000000000000000000001000000000000000000000001101100000001100000000000000000000000000000000000000000100000000000000000000000000000000000110000000000000000000000000000000000000000010010001000000000000000000000000000000000101000000000000000000000000100000000011000000000000000000000000000000000000000000000000000000000000000000000000000001100000000000000000000000000000000000000000110110000000000000000000000000000000000001010000000000000000000000100000000000000000000000000000000000000000000000000001000000000000000000000000000000000000000000000000011000000000000000000000000000001100100000000000000000000000001000000000001000000000000000000000000110101100000000000000000000000000000000000000000000001010000000000000000000000000000000000000000000001001000000000000000000000000000001001000000000000000000000000001000000000000000000000000000000000000010000000000000000000000000000000000000000000000000011100000010000000000000000000000000000000000000010100000000000000000000000000000001100000000000000011000000100010000000000000000000000000000000000000000000000000000000000000000000000000000000000000011000000001010000000000000000000000000000000000000010000000000000000000000000000000000000000000000001001000010000000000000000000000000000000000000000000000000000000000000000000000000000000000000000001000100000010010000000000010000000000000000000000000000000000000000000000000000000000000000000000000001100000000001000000000000000000000000000000000000000000000000000000000000000110000000000000000000001000000000011000000000001110000000000000000000000000000000000000000000000000001000000000000000000000000000010000100000000000000000000000000000000000000000000000000000000000000000110000000000000000000010100000000000000000000100100000000000000000000000000011000000000000000000000010000000000000000000000000000100010000000000000000000000000000000000000000000000000000000000000000000000000000000000000000010000000000000000000011100000000000000000000000000000110000000000000000000000100000000000000000000000000001001000000000000000000000000000000000000000000000000000000000000000000000000001110000000000000000000000000000000000100000000000000000000000000000000000000000000000000000000000000000000000000000000000000001000000000000000000000000000000000000000000000000000000000000001000000000000000000000000000000000000000000000001010000000000000000000010000000000000000000000000000000000000000000000000000000000000001100000000000000000000000000000000010000000000000000000000000000010000000000000000000000000000000000000000000000000000000000000000000001010000000000000000000000000000000000000000000000000000000000000001000000000000000000000000000000001001000000000000000000000000000000000000000000000000000000000000000000000000000110000000000000000000010010000000000000000000000000000000000000000000000000000000010000000000000000000000000000000000000110000000000000000000000000001100000000000000000000000000000000000000000000000000110000000000000011000011000000000000000000000000000000000000000000000000000000000100000000000000000000000000000000000010000101000000000000000000000000000000000000000000000000000000000000000000000000001001000000000000110000000000000000000000000000000000000000000000000000000000000001000000000000000000000000000000000000101010010000000000000000000000000000000000000000000000000000011000000000000000000001110000000000000000000000000000000000000000000000000000000000000000000000000000000000000000000000000000000000000000001110111000000000000000000010000000000000000000000000000000000110000000000000000000010001000000000000000000000000000000000000000000000000000000000000000000000000000000000000000000000000000000000000000000001000000000000000000000110000000000000000000000000000000000000000000000000000000010100000000000000000000000000000000000000000000000000000000000000000011000000000000000000000000000000000000001000000000001100001000000000000000100000000000000000000000000000000000000000000000000000000010000000100000000000000000000000000000000000000000000000000000000001010000000010000000000000000000000000001110001100000000000011100000000000000000000000000000000000000000000000000000000000000000000000010000010010000000000000000000000000000000000000000000000000000000000100000000100000000000000000000100000100001001000000000000000100000000000000000000000000000000000000000000000000000000000000000000000100100000100000000000000000000000000000000000000000000000000000000000000000001000000000000000000010100001000100000000001101010001000000000000000000000000000000000000000000000000000000000000000000000000000000101000000000000000000000000000000000000000000000000000000000000000000000000000000000000000100100010000011110000011110000010000000000000000000000000000000000000000000000000000000000000000000000000000000000000000000000000000000000000110000000000000000000000000000000000000000000000000000110000110000011000011000000011000011000000000000000000000000000000000000000000000000000000000000000000000000000000000000000000000000110000000000001100000000000000000000000000000000000000000000000000001100000000000001110000000000000111000000000000000000000000000000000000000000000000000000000000000000000000000000000000000000000000001100000000000000000000000000000000000000000000000000000000000000000000000000000000001100000000000001100000000000000000000000000000000000000000000000000000000000000000000000000001100001000000000000000000000000000000000000000000000000011000000000000000000000000000000000000000000000000001000100000100010000000000000000000000000000000000000000000000000000000000000000000000000000011000001000000000000000000000000000000000000000000000000110000000000000000000000001110000000000000000000000000000000000000000000000000000000000000000000000000000000000000000000000000000000000000000000000011011000000000000000110000011000000000000000000000000000000000000011000000000000000000000000000000000000010010000010010000000000000000000000000000000000000000000000000000000000000000000000000000000000111111000000001100010010000110000000000000000000000000000000000000110000000000000000000000000000000000000010100000101000000000000000000000000000000000000000000000000000000000000000000000000000000000001100110000000011000010100000000000000000000000000000000000000000000011000000000000000000000000000000000000000000000000000000000000000000000000000000000000000000000000000000000011000000000000000000000110000000000000000000010000000000000000000000000000000000000000010000101000000000000000000000000000000000000000000000000000000000000000000000000000000000000000000000000000000001001000000000000000000010100000000000000000000000000000000000000000000100000000000000000000000000000000000000000000000000000000000000000000000000000000000000000000000000000000000000000000000000000000010010000000000000000001001000000000000000000000000000000000000000000011100000000000000000000000000000000000000000000000000000000000000000000000000000000000000000000000000000000000000000000110000000000011000000000000000000001010000000000000000000000000000000000000000001101100000000000000000000000000000000000000000000001100000111000000000000000000000000000000000000000000000000000000000001100000000000000000000000000000000000000000000000000000000000000000000000000000010100100000000000000000000000000001100000000000000011000000000000000000000000000000000000000000000000000000000000000000000000000000000000000000000000000000000000000000000000000000000000000000000000000101101110000000000000000000000000100100000000000000000000000000000000000000000000000000000000000000000000000000000000000000000000000000000000000000000000011000000000000000000000000000000000000000100000001100000000000000000000000000000110000000000000000000000000000000000000000000000000000000000000000000000000000000000000000000000000000000000000000000001110000000000000000000000000000000000000001000001010000100000000000000000000000000000000000000000000000000000000000000000000000000000000000000000000000000000000000000000000000000000000000000000000001101000000000000000000000000000000000000000010000100100000110000000000000000000000000000000000000000000000000000000000000000000000000000000000000000000000000000000000000000000000000000000000000000000011011000010000000000000000010000000000000000000010111000101100000000000000000000000000000000000000000000000000000000000000000000000000000000000000000000000000000000000000000000110000000000000000000000110110001111000000000000001011000000000000000000000010010010000000000000000000000000000000000000000000000000000000000000000000000000000000000000000000000000000000000000000000010010000000000000000000000011000100001000000000000000000000000000000011000000000001000000000000000110000000000000000000000000000000000000000000000000000000000000000000000000000000000000000000000000000011000000000000000000000000000000110010000000000000100010000000000000110000000000000000000000000010010000000000000000000000000000000000000000000000000000000000000000000000000000000000000000000000000000000000000000000000000000010000000111000000000000011011000000000000010000000000000000000000000000011000000000000000000000000000000000000000000000000000000000000000000000000000000000000000000000000000000000000000000000000000001110000000000000000000000000000000000000000011000000000000000000000000000000000000000000000000000000000000000000000010000000000000000000000000000000000000000000000000000000000000000000000000000000000110010000000000000000000000010000000000000000110000000000010000000000000000000000000000000000000000000000000000000001010000000000000000000000000000000000000000000000000000000000000000000000000000000001000100000000000000000000011000000000000000000000000010010010000000000000000000000000000000000000000000000000000000010100000000000000000000000000000000000000000000000000000000000000000000000000000000010100000000000000000000000000011100000000000000001011100010110000000000000000000000000000000000000000000000000000000010000000000000000000000000000000000000000000000000000000000000000000000000000000000000000000000000000000000000000001000000000000000001001000001100000000000000000000000000000000000000001100000000000000000000001100000000000000000000000001000000000000000000000000000000000000000000000000110110000000000000000000011110010000000000000000001010000100000000000000000000000000000000000000000011000000000000000000001101100000000000000000000000101000000000000000000000000000000000000000000000000010000000000000000000000001111000000000000000000000110000000000000000000000000000000000000000000000000000000000000000000000001000000000000000000000000100000000000000000000000000000000000000000000000000000000000000000000000000110000000000000000000001011011100000000000000000000000000000000000000000000000000000000000000000000010110000000000000000000000000000000000000000000000000000000000000000000110000000000000000000000000000000000000000000000000010100100000000000000000000000000000000000000000000000000000000000000000000000100000000000000000000000000000000000000000000000000000000000000000000010100000000000000000000000000000000010000000000000000110110000000000000000000000000000000000000000000000000000000000000000000001110111000000000000000000000000000000000000000000000000000000000000000001100001110000000000000000000000000000100001100000000000111000000000000011000000000000000000000000000000000000000000000000000000001000000000000000000000000000000000000000000000000000000000000000000000001100011000000000000000000000000000001000100100000000000111000000000000110000000000000000000000000000000000000000000000000000000000000000000000000000000000000000000000000000000000000000000000000111000001000110000000000000000000000000000000000110000000000000011000000000000000000000000000000000000000000000000000000000000000000000000000000000000000000000000000000000000000000000000000000000000001110000101000000000000000000000000000000000000000000000000000000110000000000000000000000000000000000000000000000000000000000000000000000000000000000000000000000000000000000000000000000000000000000000010010001100010110000000000000000000000000000000000000000000000000000000110000000000000000000000000000000000000000000000000000000000000000000000000000000000000000000000000000001000000000000000000000000001000100000011000000000000000000000000000000000000000000000000000000010010000000000000000000000000000000000000000000000000000000000000110000000000000000000000000000000000000101000000000000000000000000000000100000010000000000000000000000000010000000000000000000000000000100100000000000000000000000000000000000000000000000000000000000001011000000000000000000000000000000000001010000000000000000000000000000000000000000000000000000000000000000100000000000000000000000000000110000000000000000000000000000000000000000000000000000000000000010001000000000000000000000000000000000001000000000000000000000000000000000000000000000000000000000000000001000000000000000000000000000000000000000000000000000000000000000000000000000000000000000000000110010000000000000000000000000000000000000000000000000000000000000000000000000000000000000000000000000000000000000000000000000000000000000000000000000000000000000000000000000000000000000000000000000000111000000000000000000000000000000000000000000000000000000000000000000000000000000000000000000000000000000000000000000000000000000001100000000000000000000000000000000000000000000000000000000000000000000100000000000000000000000000000000000100000000000000000000000000000000000000000000000000000000000000000000000000000000000000000000100100000000000000000000000000000000000000000110000000000000000000000000000000000000000000000000000000000001000000000000000000000000000000110000000000000000000000000000000000000000000000000000000000000110000000000000000000000000000000000000000010010000000000000001100000000000000000000001000000000000000000010000000000000000000000000000000110000000000000000000000000000000000000000000000000000000000000000000000000000000000000000000000000000000010100000100000000011000000000000000000000010000000000000000000000000000000000000000000000000101100001100000000000000000000000000000000000000000000000000000000000000000000000000000000000000000000000000010000010100000000000000000000000000000000100000000000000000000000000000000000000000000000010000000011000000000000000000000000000000000000000000000000000000000000000000000000000000000000000000000000000000001000100000000000000000000000000000000000000000000000000000000000000000000000000000001000001001100000000000000000000000000000000000000000000000000000000000000000000000000000000000000000000000000000000001010000000000000000000000000000111000111000000000000000000000000110000000000000000000001010000000000000000000000000000001000000000000000000000000000000000000000000000000010000000000000000000000000000001000000000000000000000000000000000000000000000000000000000000001100000000000000000011100000000000000000000000000000000101000000000000000000000000000000000000000000000000100000000000000000000000000000000000000111110000000000000000000001000000000000000000000000111000000000000000000000000000000000000000000000000000000001001000000000000000000000000000000000000000000000001000000000000000000000000000000001000011100000000000000000000000010000000000000000000000010010000000000000000000000000000000000000000000000000000000001100000000000000000000000000000000000000000000000000000000000000000000000000000000100001100010000000000000000000000100000000000000000000001000010000000000000000000000000000000000000000000000000000000000000000000000000000000000000000000000000000000000000000000000000000000000000000011100011000110000000000000000000000000000000000000000000100011100000000000000000000000000000000000000000000000000000000000000000000000000000000000000000000000000000000000000000000000000000000000000000011000000010110000000000000000000000000000000000000000011001100000000000000000000000000000000000000000001110000000000000000000000000000000000000000011100000000000000000000000000000000000000000000000000011011000100000000000000000000000000000000000000000001011010000000000000000000000000000000000000000000000000000000000000000000000000000000000000000000000000000000000000000000000000000000000000000000000011010100000000000000000000000000000000000101000000100110101100000000000000000000000000000000000000010000010000000000000000000000000000000000000000000100000000000000000000000000000000000000000000000000000010000000000000000000000000000000000001001000000110111000100000000000000000000000000000000000000100000100000000000000000000000000000000000000000001000000000000000000000000000000000111000000000000000100100000000000000000000000000000000000000000000001000100010000000000000000000000000000000000000001000001000000000000000000100000000000000000000000010000000000010000000000000000000000000000000000000011100100100000000000000000000000000000001100001001001110000000010000000000011000000000000000000000000000000000000000000000010100000000000000000000000000000000001010000000000000000000000000000000000000010010001000000000000000000000000000000010000010010000000000000110000110000110000000000000000000000000000000000000000000000101000000000000000000000000000000000010100000000000000000000000000000000000001111100010001100000000000000000000000001001100000100000000000000010001100000000000000000000000000000000000000000000000000000100000000000000000000000000000000000010000000000000000000000000000000000000010101000000100100000000000000000000000110000100010000000000000011000000000000000000000000000000000000000000000000000000000000000000000000001000000000000000000000000000000000000000000000000000000000011100011100000110000000000000000000000011000000011100000000000000100000000000000000000000000000000000000000000000000000000000000000000000000011000000000000000000000000000000000000000000000000000000000000000000000000000000000000000000000000001000111011000000000010000000000000000000000000000000000011100000000000000000000000000000000011111000010000000000000000000000000000000000000000000000000000000000000100000000000000000000000000000000000000000000000000111100010000000000011000000000000000000000000000000000000000000000000000000000001100001010000000000000000000000000000000000000000000000000000000000001000000000000000000000000000000000000000000000000010111011000000000001001000000000000000000000000100000000000000000000000000000000101010000111000000000000000000000000000000000000000000000000000000000010000000000000000000000000000000000000000000000001000000000000000000001010000000000000000000000001000000000000000000000000000000001000100000110000000000000000000000000000000000000000000000000000000000000000000000000000000000000000000000000000000000001000110000000000000001000000000000000000000000010000000000000000000000000000000010001111110000000000000000000000000000000000000000000000000000000000000000000000000000000000000000000000000000000000000001000111000000000000000000000000000000000000000000000000000000000000000000000000011100000000000000000000000000000000000000000000000000000000000000000000000000000000000000000000000000000000000000000000001000010000000000000000000000000000000000000000000000000000000000000000000000000000000000000000000000000000000000000000000000000000000000010000000000000000000000000000000001100000000000000000000000000001001000000000000000000000000000000000000000000000000000000000000000000000000000000000000000000000000000000000000000000000000000000000001010000000000000000000000000000000011000000000000000000000000000001110000000000000000000000000000000000000000000000000000000000000000000000000000000000000000000000000000000000000000000000000000000000010100000000000000000000000000000000000000000000000000000000000000000000000000000000000000000000000000000000000000000000000000000000000000000000000000000000000000000000000000000000000000000000000000000010000000000000000000000000000000000000000000001100000000000000000000000000000000000000000000000000000000000000000000000000000000000000000000000000000000000000000000000000000000000000000000000000000000000000000000000000000000000000000000000000000011000000000000000010000000000000000000000000000000000000000000000000000000000000000000000000000000000000000000000000000000000000000000000000000000000000000000000000000000000000000000000000000000000000000000000000000001010000000000000000000000000000000000000000000000000000000000000000000000000000000000000000000000000000000000000000000000000000000000000000000000000000000000000000000000000000000000000000000000000000010100000000000000000000000000000000000000000000000000000000000000000000000000000000000000000000000000000000000000110000000000000000000000000000000000000000000000000000000000000000000000000000000000000010000000000000000000000000000000000000000000000000000000000000000000000000000000000000000000000000000000000000001100000000000000000000000000000000000000000000000000000000000000000000000000000000000000000000000000000000000000000000000010000000000000000000000000000000000000000000000000000000000000000000000000000000000000000000000000000000000000000000000000000000000000110000000000000000000000000000000000000000000000000000000000000001010000000000000000000000000000000000000000000000000000000000000000000000000000000000000000000000000000000000000000000000000000000000001010000000000000000000000000000000000000000000000000000000000000010100000000000000000000000000000000000000000000000000000000000000000000100000000000000000000000000000000000000011000000000000000000000001000000000000000000000000000000000000000000000000000000000000000010000000000000000000000000000000001100000000000000000000000000000000010100000000000000000000000000000000000001001000000001100000011000000000000000000000000000000000000000000000000000000000000000000000000000000000000000000000000000000011000000000000000000000000011000000101000000000000000000000000000000000000001100000000011000001001000000000000000000000000000000000000000000000000111000000000000110000000110000000000000000000000000000000000000000000000000000000110000000100011011000000000000000000000000000000000000000000000000010100000000000000000000000000000000000000000000000000000000000000001100000010010000000000000000000000000000000000000000000000000000000000000000000100010000000000000000000000000000000000000000000000000010000000000000000000000000000000000000000000000000000000000000000000000000011000000000000000000000000000000000000000000000000000000000000000000001000100000000000000000000000000000000000000000000000000000000000000000000000000000000000000000000000000000000000000000000000000000000000000000000000000000000000000000000000000000000000000000000000000001010000000000000000000000000000000000000000000000000000000000000000000000000000000000000110000000000000000000000000000000000000000000000000000000000000000000000000000000000000000000000000000000000000001000000000000000000000000000000000000000000000000000000000000000000000000000000000000010010000000000000000000000000000000000000000000000000000000000000000000000000000000000000000000000000000000000000000001000000000000000000000000000000000000000000000000000000000000000000000000000000000101000000000000000000000000000000000000000000000000000000000000000000000000000001110000000000000000000000000000000000101000000000000000000000000000000000000000000000000000000000000000000000000000000000100000000000000000000000000000000000000000000000000000000000000000000000000000000000000000000000000000000000000000000100000000000000000000000000000000000000000000000000000000000000000000000000000000000000000000000000000000000000000000000000000000000000001100110000000000000000000000000000000000000000000000000000000000000000000000000000000000000000001000000000000000000000000000000000000000000000000000000000000000000000000001110000000000000000000000000011001100000000000000000000000000000000000000000000000000000000000000000000000000000000000000000101000000000000000000000000000000000000000000000000000000001100000000000000000000000000000000000000001100000000000000000000000000000000000000000000000000000000000000000000000000000000000000000000000001010000110000000000000000000000000000000000000000000000000100100000000000000000000000000000000000000011000000000000100000000000000000000000000000000000000000000000000000000000000000000000000000000000001000010010000000000000000000000000000000000000000000000001010000000000000000000000000000000000000000000000000000010100000000000000000000000000000000000000000000000000000000000000000000000000000000000000000011000000000000000000000000000000000000000001000000001000000000000000000000000000000000000000000000000000000101000000000000000000000000000000000000000000000000000000000000000000000000000110000000000000000000000000000000000000000000000000000000101000000000000000000000000000000000000000000000000000000000000000100000000000000000000000000000000000000000000000000000000000000000000000000010010000000000000000000000000110000000000000000000000000000110000000000000000000000000000000000000000000000000000000000000000000000000000000011000000000000000000000000000000000000000000000001000000000100100000000000000000000000010100000000000000000000000000000000000000000000000000000000000001110000000000000000000000000000000000000000000000110000000000000000000000000000000000000000000000101000000000110000000000000000000000000010000000000000000000000000000000000000000000000000000000000000000000110000000000000000000000000000000000000000000000000000000000000000000000000000000000000000010010000000000000000000000000000000000000000000000000000000000010000000000000000000000000000000000000000000010010000000000000000000000000000000000000000000000000000000000000000000000000000000000000000011000000000000000000000000000000000000000000000000000000000001110000000000000000000000000000000000000000000101000000000000000000000000000000000000000000000000000000000000000000000000000000000000000000000000000000000000000000011000110000000000000000000000000001000100000000000000000000000000000000000000000000100000000000000000000000000000000000000000000000000000000000000000000000000000000000000000000000000000000000000000110001010000000000000000000000000000000011000000000000000000000000000000000000000000000000000000000000000000000000000000000000000000000000000000000000000000000000000000000000000000000000001100000000110000100110110000011000000000000000000000000000000000000000000000000000000000000000011000000000000000000000000000000000000000000000000000000000000000000000000001010000000000000000000000000100100000110100000000110000000110000000000000000010000100000000000000000000000000000000000000000000000000000000000000000000000000000000000000000000000000000000000011000000010100000000000000000000000000101000010111001100000000000000000000000000000000011110000000000000000000000000000000000000000000001000000110000000000000000000000000100000000000000000000000000001001000000100000000000000000000000000000100000100000111000000000000000000000000000000000000000001000000000000000000000000000000000000000101000001100000000000000000000000001000000000000000000000000000110010000000111100000000000000000000000000000001011100000000000000000000000000000000000000000000101000000000000000000000000000000001100010010000000000000000000000000000000010000000000000000000000000000110010000010001100000000000000000000000000000001110100100000000000000000000000000000000000000001010000000000000000000000000000000100100011000000000100000000000000000000000000000000000000000000000000000111100001100001000000000000000000000000000000000000001100000000000000000000111000110000000000001000000000000000000000000000000001001000000000000010100000000000000000000000000000000011000011100011100000000000001000100000000000000000000000000000000000000101000000010000000000001010001001000000000000000000000000000000001100000000011011000000000001001000000000000000000000000000000000110000000000000000000000000000001000000000000000000110000000000000000000001000001110000000000100100010010000000000000000000000000000000011000000000001100000000000001100000000000000000000000000000000000000100001010000100000000000000000000000000000000010010000000000000001000000000011010000000001010000010100000000000000000000000000000000000000000000000000000000000000000000000000000000000000000000000000001000010100001000000000000000000000000000000000100100110001100000101010001010100110000000001000000000000000000000000000000000000000000000000000000000000000000000000000000000000000000000000000000000000010000101010110000000000000000000000000000000000110001100100100001010000001011101000000000000000000000000000000000000000000000000000000000000000000000000000000000000000000000000000000000000000000000000001110110110000000000000000000000000000000000000000000000101000001000100000111100000000000000000000000000000000000001000000000000000000000000000000000000000000000000000000000000000000000000000000000000000000110000000000000000000000000000000000000000000000000100000000000100010000000000000000000000000000000000000000101000000000000000000000000000000000000000000000000000000000000000000000000000000000000111011101100000000000000000000000000000000000000000000000000000000000111000000000000000000000000000000000000000001010000000000000000000000000000000000000000000000000000000000000000000000000000000000100001011000000000000000000000000000000000000000000000000000001100000000000000000000000000000000000000000000000000001000000000000000000000000000000000000000000000000000000000000000000000000000000000001000010110000000000000000000000000000000000000001000000000000011000000000000000000001101000000000000000000000000000000000000000000000000000000000000000000000000000000000000110000000000000000000000000010000101100000000000000000000000000000000000000010000000000000000000000000000000000011000100000000000000000000000000000000000000000000000000000000010000000000000000000000001100000000000000000000000000000000101011000000000000000000000000000000000000100000000000000000000000000000000000000001000000000000000000000000000000000000000000000000000000000100000000000000000000000000000000000000000000000000000011100011010000000000000011000000000000000000000000000000000000000000000000001110001100000000000000000000000000000000000000000000000000000000000001000000000000000000000000000000000000000000000000000000000000000101000000000001001000000001100000000000000000000000000000000000000000000110101101000000000000000000000000000000000000000000000000000000000000000000000000000000000000000000000000000000000000000000000000010000000000010010000000101000000000000000000000000000000000000000001001101101100000000000000000000000000000000000000000000000000000000000000000000000000000000000000000000000000000000000000000000000011000000000000011000000000100000000000000000000000000000000000000000000010010000000000000000000000000000000000000000000000000000000000000000000000000000000000000000001100000000000000000000000000000000000000000000000000000000000000000000000000000000000000000000000000000000011000000000000000000000000000000000000000000000000000000000000000000000000000000110000000000100100000000000000000000000000000000000000000000000000000000000000000000100000000000000000000000000000000000000000000000000000000000000000000000000000000000000000000000000000000000000000001100000000000110000000000000000000000000000000000000000000000000000000000000000000010100000000000001100000000000000000000000000000000000000000000000000000000000000000000000000000000000000000000000000000000000000000000000000000000000000000000000000000000000000000000000000000000000001010000000000000011100000000000000000000000000000000000000000000000000000000000000000000000000000000000000000000000000000000000000000000000000000000000000000000000000000000000000000000000000000000000101000000000000001001000000000000000000000000000000000000000000000000000000000000000000000000000000000000000000000000000000000000000000000000000000000000000000000000000000000000000000000000000000000000100000000000000011100000000000000000000000000000000000000000000000000000000000000000000000000000000010000000000000000000000000000000000000000000000000000000000000000000000000000000000000000000000000000000000000000000111000000000000000000000000000000000000000000000000000000000000000000000000000000000100000000000000000000000000000000000000000000000000000000000000000000000000000000000000000000000000000000000000000000000000000000000000000000000000000000000000000000000000000000000000000000000000000001000000000000000000000000000001000000000000000000000000000000000000000000000000000000000000000000000000000000000000000000000000000011000000000000000000000000000000000000000000000000000000000000000000000000000000000000000000000000101000000000000000000000000000000000000000000000000000000000000000000000000000000000000000000000000000000000000000000000000000000000000000000000000000000000000000000000000000000000000000000000000000001010000000000000000000000000000000000000000000000000000000000000000000000000000000000000000000000000000000000000000000000000000000000000000000000000000000000000000000000000000000000000000000000000000001000000000000000000000000000000000000000000000000000000000000000000000000000000000000000000000000000000000000000000000000000000000000001100110000000000000000000000000011100000000000000000000000000000000000000000000000000000000000000000000000000110000000000000000000000000000000000000000000000000000000000000000000000000000000000000000111001000000000000000000000000000000000000000000000000000000000000000000000000000011000000000000000000000000001100000000000000000000000000000000000000000000000000000000000000000000000000000000000000000110010000000000000000000000000000000000000000000000000000000000000000000000000000110000111000000000000000000000000000000000000000000000000000000000000000000000000000000000000000000000000000000000000001101100000000000000000000000000000000000110000000000000000000000011000000000000000000000000000000000000000000000000000000000000000000000000000000000000000000000000000000000000000000000000000000000000000100000000000000000000000000000000000001010000000000000000000000110000000000000000000000000000000000000000000000000000000000000000000000000000000000000000000000000000000000000000000000000000000000000000000000000000000000000000000000000000001100000000000000000000000000000000000000000000000000000000000000000000000000000000000000000000000000000000000000000000000000000000000000000000000000000000000000000000000000000000000000000000000000000000000000000000000000000000000000000000000000000000000000000000000000000000000000000000000000000000000000000000000000000000000000000000000000000000000000000000000000000000000000000