P1
200 200
0000000000000000000000000000000000000000000000000000000000000000000000000000000000000000000000000000000000000000100000000000000000000000000000000000000000000000000000000000000000000000010000000000000000000000000000000000000000000000000000000000000000000000000000000000000000000000000000000000000000000000010000010100000000000000000000000000000000000000000000000000000000000000000000001010000000000000000000001100000000000000000000000000000000000000000000000000000000000000000000000000000000000000000000001010000100100000000100000000000000000000000000000000000000000000000000000000000010100000000000000000000011100000000000000000000000000000000000000000000000000000000000000000000000000000000000000000000011000000110000000010100000000000000000000000000000100000100000000000000000000000010000100000000000000100011000000000000000000000000000000000000000000000000000000000000000000000000000000000000000000000000000000000000000101000000000000000000000000000001000010100000000000000000000000000001000000000000000000110000000000000000000000000000000000000000000000000000000000000000000011000000000000000000000000000000000000000000100000000000000000000000000000010000100100000000000000000000000000010000000000000000000000000000000000000000000000000000000000000000000000000000000000000000110000000000000000000000000000000000000000000000000000000000000000000000000000000110000000000000000000000000000000000000000010000000000000000000000000000000000000000000000000000000000000000000000000000000000000000000000000000000000000000001100000001100000000000000000000000000000000000000000001100000000000000000000000000101010100000000000000000000000000000000000000000000000000000000000000000000000000000000000000000000000000000000000000100100000100100000000000000000000000000000000000000000011000000000000000000000000001000101000000000000000000000000000000000000000000000000000000000000000000000000000000000000000000000000000000000000000110000000110000000000000000000000000000000000000000000000000000000000000000000000010011000000000000000000000000000000000000000000000000000000000000000000000000000000000000000000000000000000000000000000000000000000000000000000000000000000000000000000000000000000000000000000000110000100011000011000000000000000000000000000000000000000000000000000000000000000000000000000000000000000000000000000000000000000100000000000000000000000000000000000000000000000000000000000000000000011100001110010000110000000000000000000000000000000000000000000000000000000000000000000000000000000000000000000000000000000000000010100000000000000000000000000000000000000000000000000000000000000000000100100011101000000000000000000000000000000000000000000000000000000000000000000000000000011100000000000000000000000000000000000000101000000000000000000000000000000000000000000000000000000011000000000011011000000000000000000000000000000000000000000000000000000000000110000000000000000000000000000000000000000000000000000000000000000100000000000000000000000000000000000000000000000000000001001000000000110000000000010000000000000000000000000000000000000000000000000010010000000000000000000100000100000000000000000000000000000000000000000000000000000000000000000000000000000000000000000000010100000000001110000000001110000000000000000000000000000000000000000000000000101000000000000000000001000001000000000000000000000000000000000000000000000000000000000000000000000000000000000000000000000010000000000011000000000000100000000000000000000000000000000000000000000000000100000000000000000000010000010000000000000000000000000000000000000000000000000000000000000000000000000000000000000000000000000000000000000000000101100000000000000000000000000000000000000000000000000000000000000000000000000000000000000000000000000000000000000000000000000000000000000000000000000000000000000000000011000000000000000000000000000010001000000000000000000000000000000000000000000000000000000000000000000000000000000000000000000000000000000000000000000000000000000000000000000001000000000000000000000000110000000000000000000000000000010100000000000000000000000000000000000000000000000000000000000000000000000000000000110000000000000000000000000000000000000000000000000000000000101100000000000000000000000000000000000000000000000000000010000000000000000000000000000000000000000000000000000000000000000000000000000000000000000000000000000000000000000000000000000000000000000000001000100000000000000000000000000000000000000000000000110000000000000000000000000000000000000000000000000000000000000000000000000000000000000000000000000000000000000000000000000000000000000000000000000010000100000000000000000000000000000001000000000000110100000000000000000000000000000000000000000000000000000000000000000000000000000000001100000001100000000000000000000000000000000000000000000000000000100001000000000000000000000000000000101000000000000000000000000000000000000000000000000000000110000000000000000000000000000000000000000010010001100100000000000000000000000000000000000000000000000001000000100000000000000000000000000000010000000000000100100000000000000000000000000000000000000010010000000000000000000000000000000000000000011111111110000000000000000000000000000000000000000000000000010000100000000000000000000000000000000100000100000000110000000000000000000000000000000000000000100100000000000000000000000000000000000000000000001100000000000000000000000000000000000000000000000000000000000000000000000000000000000000000000110001000000000000000000000000000000000000011000000000000110000000000000000000000000000000000000000000011100000000000000000000000000000000000000000000000000000000000000110000000000000000000000000000001100010000000000000000000000000000000000001010000000000000000000000000000000000000000000000000000000000000000000000000000000000000000000001000000000000000000000000000010100001100000000000000000000000000001000000000000000000000000000000000000011000110000110000000000000000000000000000000000000000001100000000000000000000000000000000000000101000000000000000000000000000010000011000000000000000000000000000010010000000000000000000000000000000000110000010001100000000000000000000000000000000000000000011000000110000000000000000000000000000001010000000000000000000000000000000000000000000000000000000000000000000100000010000000000000000000000000001100000100000000000000011000000000000000000000000000000000000001100000000000000000000000000000001000000000000000000110100000000000000000000000000000000000000000000000000001010000000000000000000000000011000011000000000000001001000000000000000000000000000000000000000000000000000000000000000000000000000000000000000001000100000000000000000000000000000000000000000000000000110110000000010000000000000000000000000000000000000010100000000000000000000000000000000000000000000000011000000000000000000000000000000000000000001000000000000000000000000000000000000000000000000000000100100000001010000000011000000011010000000000000000010000000000000000000000000000000000000000000000001001001110000000000000000000000000000000000001000000000000000000000000000000001000000000000000000100100000000010010000000110000000000000000000000000000000000000000000000000000000000000000000000000000001011000000000000000000000000000000000000000000000010000000000000000000000000101000000000000000001001000000000011000000000000000000000000000000000000000000000000000000000000000000000000000000000000000000000000010000000000000000000000000000000000000001010000000000000000000000001010000000000000000011100000000000000000001010000000000000000000000000000000011000000000000000000000111000000000000000000000001010000100000000000000000000000000000000000100010100000000000000000000000001000000010000111000000000000000000000000000000000000000000000000000000000000110000000000000000000000000000000000000000000000000010001000000000000000000000000000000000010100010000000000000000000000000000000000100000000000000000000000000001100100000000000000000000000000000000000000000000000000000000000000000000000000000000000100000000000000000000000000000000000000000101000000000000000000000000000000000000001000000000000000000000000000011000000000000000000000000000010000000000000000000000000000000000000000000000000000100001000000000000000000000000000000000000000000100000000000000000000000000000000000000000000000000000000000000000000001000000000000000000000000001010000000000000000000000000000000000000000000000000110110010001000000000000000000000000000000000000000000000000000000000000000000000000000000000000000000000000000000000000000000000000000000000000000010010000000000000000000000000000000000000000000000000010000110111000000000000000000000000000000001100000001100000000000000000000000000000000000000000000000000000000000000000000000000000000000000011000011000000000000000000000000000000000000000000000000000000000100010000000000000000000000000000000100100000100100000000000000000000000000000000000000000000000000000000000000000000000000000000000000110000000000000000000000000000000000000000000000000000000000000001000100000000000000000000000000000000111000000110000000000000000000000000000000000000000000000000011000000000000000000000000000000000000000000000000000000000000000000000000000000000000000000000000000001010000000000000000000000000000000001110110000000000000000000011000000000000000000000000000000000110000000000000000000000000000000000000000000000000000000000000000000000000000000000000000000000000000001000000000000000000000000000000000001010111000000000000000001001000000000000000000000000000000000000000000000000000000011000000001110000000000000000000000000000000000000000000000000000000000000000000000000000000000000000000000000000000011010101000000000000000001100000000000000000000000000000000000000000000000000000000101000000000000000000000000000000000000000000000000000000000000000000000000000000000000000000000000000000000000000000110000110000000000000000000000000000000000000000000000000000000000000000000111000011100100010000010000000000000000000000000000000000000000000000000000000000000001110000000000000000000000000000000001000100000000000000000010000000000000000000000000000000000000000000000000000000000000100000100100000100000000000000000000000000000000000000000000000000000000000000000000000000000000000000000000000000101001100000000000000001110000000000000000000000000000000000000000000000000000000000000001110001000001000000000000000000000000000000000000000000000000000000000000000000000000000000000000000000000000010001011000000000000000110110000000000000000000000000000000000000000000000000000000001000001000000000000000000000000000000000000110000000000000000000000000000000000000000000000000000110000000000000000010100000000000001110000000110000000000000000000000000000000000000000000000000000000010010000000001110000000000000110000000000001100000000000000000000000000000000000000000000000000001100000000000000000010000000000000100010000001110000000000000000000000000000000000000000000000000000000010000000000000000000000000001100000000000000000000000000000000000000000000000000000000000000000000000000000000000000000000000000001000000000011000000000000000000000000000000000000000000000000000000000000000000000000000000000000000000000000000000000000000000000000000000000000000000000000010000000000000000000000000000000000000000011011001101100000000000000000000000000000000000000000000000000000000000000001000000000000000000000000000000000000000000000000000000000000000000000000000000000100000000000000000000000000000000000000000001000001110000000000000000000000000000000000000000000000000000000000000000011100000000000000000000110000011000000000000000000000000000000000000011000000000001000000000000000000000000000000000000000000000000001000000000000000000000000000000000000000000000000000000000000000000111000000000000001100010010000110000000000000000000010000000000000000101000000000000000000000000000000000000000000000000000000000000000000000000000000000000000000000000000000000000000000000000000000000000000000000000011000010100000000000000000000000001100000000000000000100000000000000000000000000000000000000000000000000000000000000000000000000000000000000000000000000000000000011000000000000000110001000000000000000000000010000000000000000000000000010100000000000000000000000000000000000000000000000000000000000000000000000000000000000000000000000000000000000000000000000000001001000000000000001010100000000000000000000000000000000000000000000000000000000000000000000000000000000000000000000000000000000000000000000000000000000000000000000000000000000000000000000000000000000010010000000000000001100000000000000000000000000000000000000000000000110000000000000000000000000000000000000000000000000000000001000000000000000000000000000000000000000000000000000000000000110000000000011000000000000000001000100000000000000000000000000000000000000000001100000000000000000000000000000000000000000000000001100000010000000000000000000000000000000000000000000000000000000000001100000000000000000000000000011000001000000000000000000000000000000000000000000000000000000000000000000000000000001100000000000000011000000100000000000000000000000000000000000000000000000000000000000000000000000000000000000000001101000100100000000000000000000000000000000000000000000000100000000000000000000000000100100000000000000000000000000000000000000000000000000000000000000000000000000000000000000000000000000000000000000000010010000000000000000000000000000000000000000000000000000100000000000000000000000000110000000000000000000000000000000000000000000000000000000000000000000000000000000000000000000000000000000000000001010111100011000000000000000000100000000000000000000000000100000000000000000000000000000000000000000000000000000000000000000000000000000000000000000000000000000000000000000000000000000000000000000000011000101010000100000000000000010100000000000000000000000111000000000000000000000000000000000000000000000000000000000000000000000000000000000000000000000000000000000000000000000000000000000000000000000000000001001000101000000000000101000000000000000000000000000000000000000000000000000000000000000000000000000000000000000000000000000000000000000000000000000000000000000000000000000110000000000000000000000001011100000010000000000000100000000000000000000000000001100000000000000000000000000000000000000000000000000000000000100000000010000000000000000000000000000000000000000000000010010000000000000000000000010000100000000000000000000000000000000000000000000000110100000000000000110000000000000000000000000000000000000000010100000001010000000000000000000000000000000000000000000000011000000000000000000000000011000000100000000000000000000000000000000000000000110001000101000000010010000000000000000000000000000000000000001000100000100000000000000000000000000000000000000000000000000000000000000000000001110000001000010000000000000000000000011000000000000000001111110001001000000011000000000000000000000000000000000000000001010000000100010000000000000000000000000000000000000000000000000000000000000000000000000010001000000000000000000000011011100000000000000001000000100010000000000000000000000000000000000000000000000000001000000000010010000000000000000000000000000000000000000000000000000000000000000000000000011100000000000000110000000000101100000000000000001110000100100000000000000000000000000000000000000000000000000000100000000011000000000000000000000000000000000000000000000000000000000000000000000000000000000000000000010010000010000010100000000000000100100001010000000000000000000000000000000000000000000000000000000100000000010000000000000000000000000000000000000000000000000000000000000000000000100000000000000000000011000000000100000000000000000000110000000000000000000000000000000000000000000000000000000000010000100000000010000000000000000000000000000000000000000000000000000000000000000000001000000000000000000000000000000100011000000000000000101000000000000000000000000000000000000000000001100000000000000100010000111000001000000000000000001000000000000000000000000000000000000000000000000010000000000000000000000000000000010100000000000000010100000000000000000000000000000000000000000000011000000000000000000000001101000010000000000000000101000000000000000000000000000000000000001100000000000000000000000000000000000000000111000000000000000101100000000000000000000000000000000000000000000000000000000000000000000000000001010000000000000000100000000000000000000000000000000001000100100000000000000000000000000000000000000000000000111000000000010000000000000000000000000000000000000000000000000000000000000000000000110001000110000000000000000000000000000000000000000000000000110001101000000000000000000000000000000000000000000000000000000000000000000000000000000000000000000000000000000000000000000000000000000000110000100011100000000000000000000000000000000000000000000000010100001010000000000000000000000000000000000000110000000000000000000000000000000000000000000000000000000000000000000000000000000000000000001111010000000000000000000000000000000000000000000000000000000100000011111000000000000000000000000000000000010010001100000000000000000000000000011000000000000000000000000000000000000000000000000000000110100100000000000000000000000000000000000000000000000000000011011100000110000000000000000000000000000000000100100100100000000000000000000000000110000000000000000000000000000000000000000000000000000000111110000000000000000000000000000000000000000000000000000000110001000011100100000000000000000000000000000000110000110000000000000000000000000000000000000000000000000000000000000000000000000000000000000010000000000000000000000000000000000000000000000000000000000000100000000011100000000000000000000000000000000000000000000000000000000000000000000000000000000000000000000000000000000000000000000000000000000000000000000000000000000000000000000000000000000000000000000000000001101000000000000000000000000000000000000000000000000000000000000110000000000000000000000000000000000000000000000000000000000000000000000000000000000000000000000000000001000000000000000000000000000000001010001010000000000000000000000000000000000000000000000000000010010000000000000000000000000000000000000000000000000000000000000000000000000000000000000000000000000000101000000000000000000000000000011011000000100000000000000000000000000000000000000000000000000000100100000000000000000000000000000000000000000000000000000000000000000000000000000000000000000000000000001010000000000000000000001101011010000011001000000000000000000000001110000000000000000000000000000110000000000000000000000000000000000000000000000000000000000000000000000000000000000000000000000000000001000000000000000000000000011110100000000110000000000000000000000000000000000000000000000000000000000000000000000000000000000000000000000000000000000000000000000000000000000000000000000000000000000000000000000000000000000001110000000000000010000000000000000000000000000000000000000000000000000000000000000000000000000000000000000000000000000000000000000000000000000000000000000000000000000000000000000000000000000000000000001000010100000101000000000000000000000000000000000000000000000000000001100000000000000000000000000000000000000000000000000111000000000000000000000000000000000000000000000000000000000000000000000000000000000001000001010000000000000000000000000000000000000000000000000000100100000000000000000000000000000000000000000000000001011000000000000000000000000000000000000000000000000011100000000000000000000000000001000000001101100000000000000000000000000000000000000000000000000110000000000000000000000000000000000000000000000000000001000000000000000000000000000000000000000000000000000000000000000000000000000100001000000010001000000000000000000000000000000000000000000000000000000000000000000000000000000000000000000000000000000001100000000000000110000000000000111000000000000000000000000000000000000000001101111011000000010000100000000000000000000000000000000000000000000000000000000000000000000000000000000000000000011000000000010000000000000001010000000000000000000000000000000000000000000000000000000000000001000000000001001000000000000000000000000000000000001000000000000000000000000000000000000000000000000000001001000000000000000001100000010000000000001000001000000000000000000000000000000000000000010000000000000000010001000000000000000000000000000000000010000000000000000000000000000000000000000000000000000000010000000000000000011000000000000000000010000010000000000000000000000000000000000000000011000000000000000011100000000000000000001000000000000001111000000000000000000000000000000000000000000000000000111000000000011000000000000000000110000000100000100000000000000000000000000000000000000000000000000000000000111000000000000000000101000000000000000101000000000000000000000000000001110000000000000000000000000000000110000000000000000100110000000000000000000000000000000000000000000000000000000000000000000000000000000000000000000001001000000000001101010000000000000000000000000000000000000000000000000000000000000000000000000000000001000010000000111000000000000000000000000000000000000000000000000000000000000000000000000000000000001100000000000000001000000000000000000000000000000000000000000000000000000000000000000000000000000000010111100000000000000000000000000000000000000000000000000000000000000000000000000000000000000000000000000000000001100000000000000000000000000000000000000000000000000000000000000000000000000000000000000110010000000000000000000000000000000000000000000000000000000000000000000000000000000010000000000000000000000000001000000000000000100000000000000000000000000000000000000000000000001010000000000000000000111000000000000000000000000000000000000000000000000000000000000000000000000000000000100000000000000000000000000001000000000000001000000000000000000000000000000000000000000000000010111000000000000000000100000000000000000000000000000000000001100000000000000000000000000000000000000000001000000000000000000000000001110000000000000010000000000000000000000000000000000000000000000000100001000000000000000000000000000000000000000000000000000000011000000000000000000000000000000000000000000000000000000000000000000000110010000000000000000000000000000000000000000000000000001000000000000110110000000000000000000000000000000000000000000000000000000000000000000000000000000000000000000000001110001110000000000000000000000011100000000000000011100000000000000000000000000000000010000000110000000000000000000000000000000000000000000000000000000000000000000000000000000000000000000000000000000000000000000000000000000000100000100000000000000000000000000000010000000000000000000000100000000000000000000100000000000000000000000000000001100000000001000000000000000000000000011000000000000000000000000000000000000000000000010100001110000000000000000000000000001010000000000000000000000000010000000000000001100000000000000000000000000110000100000000010000000000000000000110000110000000000000000000000000000000000000000000000101001100000000000000000000000000000010100000000000000000000000001011110000000000000100000110000000000000000010010001000000000000011000000000000001100000000000000000000000000000000000000000000000000000100011010100000100100000000000000000010000000000000000000000000000000110000000001010000010010000000000000000011110000000000000000010000000000011000000000000000000000000000000000000000000000000000000000000000100000010001100000000000000000000000000000000000000000000000101100000000100100000011000000000000000000000011100000000000110000000000000101000000000000000000000000000100000000000000000000000000000000000100110010011000000000000000000000000000000000000000000001110011100000000110000000000000000000000000000000000000000000011011000000000000010000000000000000000000000001000000000000000000000000000000000010000010001000000000000000000000000000000000000000000000010000011000000000000000000000000000000000000000000000000000000110110000000000001100011000000000000000000000010000000000000000000000000000000010010101100100000000000000000000000000000000000000000000000110100000000000000000000000000000000000000000000000000000000000010000000000000000001001000000000000000000000000000000000000000000000000000000110000000110100000000000000000000000000000000000000000000000111000000000000000000000000000000000000000000000000000000000000000011000000000000001010000000000000000000000011100000000000000000000000000010011000000101001000000000000000000000000000000000000000000000000000000000000000000000000000000000000000000000000000000000000001001000000000000001000000000000000000000000000000000000000000000000000000111000000001000110000000000000000000000000000000000000000000000000111011000000000000000000000000000000000000000000000000000000001010000000000000000000000000000000000000000000000000000000000000000000011001100000000111000000000000000000000000000000000000000000000000000010100000000000000000000000000000000000000000000000000000000001000000000000000000000000000000000000000000000000000000000000000000000010101000000000100000000000000000000000000000000000000000000000010000000000000000000000000000000001100000000000000000000000000000000000000000000000000000000000000000000000000000000000000000000000000000101100000000000000000000000000000000000000000000000000000000001010000000000000000000000000000000011000000000000000000000000000000000000000000000000000000000000000000000000000000000000000000000000000000101011000000000000000000000000000000000000000000000000000000010100000000000000000000000000000000000000000000000000000000000000000000000000000000000000000000000000000000000000000000000000000000000000000010010000000000000000000000000000000000000000000000000000000010000000000000000000000000000000000000000000001100000000000000000000000000000000000000000000000000000000000000000000000000000000000000000000100100000000000000000000000000000000000000000000000000000000000000000000000000000000000000000000000000000011000000000000000000000000000000000000000000000000000000000000000000000000000000000000000000001110000000000000000000000000000000000000000000000000000000000000000000000000000000000000000000000000000000000000000000000000000000000000000000000000000000000000000000000000000000000000000000000000000000000000000000000000000000000000000000000000000000000000000000000000000000000000000000000000000000000000000000000000000000000011000000000000000000000000000000000000000000000000000000000000000000000000000000000000000000000000000000000000000000000000000000000000000000000000000000000000000000000000000000000000000000000000000000110000000000000000000000000000000000000000000000000000000000000000000000000000000000000000000000000000000000000000000000000000000000000000000000000000000000000000000000000000000000000000000000000000000000000000000000000000000000000010000000000000000000000000000000000000000000000000000000000000000000000000000000000000000000000000000000000000000000000000000000000000110000000000000000000000000000000000000000000000000000000000000001010000000000000000000000000000000000000000000000000000000000000000000000000000000000000000000000000000000000000000000000000000000000001010000000000000000000000000000000000000000000000000000000000000010100000000000000000000000000000000000000000000000000000000000000000000000000000000000000000000000000000000000011000000000000000000000001000000000000000000000000000000000000000000000000000000000000000010000000000000000000000000000000001100000000000000000000000000000000000000000000000000000000000000000000000001001000000001100000011000000000000000000000000000000000000000000000000001000000000000000000000000000000000000000000000000000011000000000000000000000000011000000000000000000000000000000000000000000000001100000000011000001001000000000000000000000000000000000000000000000000010000000000000110000000110000000000000000000000000000000000000000000000000000000110000000000000000000000000000000000000000000000000000000000000000010100000000000000000000000000000000000000000000000000100000000000001100000010010000000000000000000000000000000000000000000000000000000000000000000000000000000000000000000000000000000000000000000000000010000000000000000000000000000000000000000000000000000000000000000000000000011000000000000000000000000000000000000000000000000000000000000000000000000000001100000000000000000000000000000000000000000000000000000000000000000000000000000000000000000000000000000000000000000000000000000000000000000000000000000000000000000000000000000000000000000000000000010010000000000000000000000000000000000000000000000000000000000000000000000000000000110000000000000000000000000000000000000000000000000000000000000000000000000000000000000000000000000000000000000000001000100000000000000000000000000000000000000000000000000000000000000000000000000000010010000000000000000000000000000000000000000000000000000000000000000000000000000010000000000000000000000000000000000001001100000000000000000000000000000000000000000000000000000000000000000000000000000101000000000000000000000000000000000000000000000000000000000000000000000000000000100000000000000000000000000000000000000010100000000000000000000000000000000000000000000000000000000000000000000000000000100000000000000000000000000000000000000000000000000000000000000000000000000000001000000000000000000000000000000000000000000000000000000000000000000000000000000000000000000000000000000000000000000000000000000000000000000000000010000000000000000000000000001100110000000000000000000000000000000000000000000000000000000000001110000000000000000000000000001000000000000000000000000000000000000000000000000000000000000000000000000000100000001000000000000000000011001100000000000000000000000000000000000000000000000000000000100011000000000000000000000000000101000000000000000000000000000000000000000000000000000000001100000000000000001000000110000000000000001100000000000000000000000000000000000000000000000000000000000000001000100000000000000000000000000001010000110000000000000000000000000000000000000000000000000100100000000000000000000010110000000000000011000000000000100000000000000000000000000000000000000000000000000100100000000000000000000000000000001000010010000000000000000000000000000000000000000000000001010000000000000000000000000000000000000000000000000000010100000000000000000000000000000000000000000000000000000000000000000000000000011000000000000011000000000000000000000000000000000000000001000000001000000000000000000000000100000000000000000000000000000101000000000000000000000000000000000000000000000000000000000000000000000000011111000000000000000000000000000000000000000000000000000000101000000000000000000000000000010000000000000000000000000000000000100000000000000000000000000000000000000000000000000000000000000000000000001100001000000000000000000000000110000000000000000000000000000110000000000000000000000000001011000000000000000000000000000000000000000000000000011000000000000000000000000000000000000000000000011000000110000000000000000000000000000010100000000000000000000000000000000000000000000000000000000110000100000000000000000000000000000000000000000000000110000000000000000000000000000000000000000000001001000001000000010000000000000000000000010000000000000000000000000000000000000000000000000000000000100110100000000000000000000000000000000000000000000000000000000000000000000000000000000000000000000010100000010000100100000000000000000000000000000000000000000000000000000000000000000000000000000000000100000100000000000000000000000000000000000000000000000000000000000000000000000000000000000000000000010000000010100000000000000000000000000000000000000000000000000000000000000000000000000000000000000000011010000011000000000000000000000000000000000000000000000000000000000000000000000000000000000000000000000001010000000000000000000000000000000000000000000000000000000000000000000000000000000000000000000000010000101000000000000000000000000000000000000000000000000000000010000000000000000000000000000000000000011000000000000110000000000000000000000000000000000000000000000000000000000000000000000000000000000000000010000000000000000000000000000000000000000000000000000011010000000000000000000000000000000000001001000000000001100000001100000011000000000000001100000000000000000000000000000000000000000000000000000011100000000000000000000000000000000000000000000000100011011000000000000000000000000000000000000110111000001101011100000011000000110000000000000100100000000000000000000000000000000000000000000000000000000000000000000000000000000000000000000000000000010000100001000000001110000000000000000000000001111100000011111110100000000001000000000000000000101000000000000000000000000000000000000000000000000000000000000000000000000000000000000000000000000000000101000100100000000000000000000000000000000000011011000000000000011000000000101000000000000000000100000000001000000000000000000000000000000000000000000000000000000000000000000000000011100000000000000001011000110000000110000000101000000000000000000010100000000000000100100000001001000000000000100000000000000101000000000000000000000000000000000001100011100000000000000000000000000000000000000000000000110000000000000001100000000001000000000000000000010000000000000000001000000001100000000000001000000000000001010000000000000000000000000000000000111100101100010100000000000000000000000000000000000000001001000000000000000000000000100000000000000000000000000000000001011010000000000000000001110010000000000000001000000000000000000000000000000000000101001001100000100000000000000000000000000000000000000010100000000000000000000001000000011011000000000000000000000001111100000000000000000000011100000000000000000000000000000000000000000000000000000010001010001000010000000000000000000000000000000000000000011000000000000000001000011000011010101000000110000000000000110101100000000000000000011010000000000000000000000000000000000000000000000000000001100011000000101000000000000000000000000000000000000000000000001110000000111110000000000110100100000010010000000000001100111000000000000000000111000000000000000000000000000000000000000000000000000000000000000100000100000000000000000000000000000000000000000000000100000000010001000000000011001100000000100100000000000000001001000000000000000000100110000000000000000000000000000000000000000000000000000000001100000101000000000000000000000000000000000000000000000010001100000000010000000000110101000000000110000000000000111001110000000000000000001011110000000000000000000000000000000000000000000000000000000001100001010000000000000000000000000000000000000000000000010010110000000100000110000011100000000000000000000000000000011100000000000000000001000110000000000000000000001000000000000000000000000000000000000000000000000000000000000000000000000000000000000000000011100000000001000001100000000000000000000000000000000000000000100000000000000000001101000000000000000000000101000000000000000000000000000000000000000000000000000000000000000000000000000000000000000000001101000100100000000000000000000000000000000000000000111000111000000000000000000001100000000000000000000001010000000000000000000000000000000000000000000000000000000000000000000000000000000000000000000001100000010000000000000000000000000000000000000000000000001110000000000000000000000000000000000000000000001000000000000000000000000000000000000000000000000000000000000000000000000000000000000000000000000000000000000000000000000000000000000000000000000000000000000000000000000000000000000000000000000000000000000000000000000000000000000000000000000000000000000000110000000000000000000000000000000000000000000000000000000000000000000000000111000000000000000000000000000000000000000000000000000000000000000000000000000000000000000000000000000000000000000000000000001100000000000000000000000000001000000110000000000000000000000000000000000000000000000000000000000000000000000000000000000000000000000000000000000000000000000000000000000000001110000000000000000000000000000000000000000000000000000010000001100000000000000011000000000000000000000000000000000000000000000000000000000000000000000000000000000000000000000000000000000000000000000000000000000000000000000000000000000000000000000000000000100000000000000000000001001000000001100000000000000000000000000000000000000000000000000000000000000000000000000000000000000000000000000000000000000000000000000000000000000000000000000000000000000000000000000000000000000000010010000000101000000000000000000011100000000000000000000000000000000000000000000000000000000000000000000000000000000000000000000000000000000000000000000000000000000000000000000000000000000000000000000011000000000100000000000000000000100000000000000000000000000000000000000000000000000000000000000000000000000000000000000000000000000000000000000000000001100000000000000000000000000000000000000000000000000000000000000000000000000000000100000000000000000000000000000000000000000000000000000000000000000000000000000000000000000000000000000000110000000000100100000000000000000000000000000000000000000000000000000000000000000000100000000000000000000000000000000000000000000000000000000000000000000000000000000000000000000000000000000000000000001100000000000110000000000000000000000000000000000000000000000000000000000000000000010100000000000000000000000000000000000000000000000000000000000000000000000000000000000000000000000000000000000000000000000000000000000000000000000000000000000000000000000000000000000000000000000000001010000000000000000000000000000000000000000000000000000000000000000000000000000000000000000000000000000000000000000000000000000000000000000000000000000000000000000000000000000000000000000000000000000101000000000000000000000000000000000000000000000000000000000000000000000000000000000000000000000000000000000000000000000000000000000000000000000000000000000000000000000000000000000000000000000000000000100000000000000000000000110000000000000000000000000000000000000000000000000000000000000000000000000000000000000000000000000000000000000000000000000000000000000000000000000000000000000000000000000000000000000000000000000000001100000000000000000000000000000000000000000000000000000000000000000000000001110000000000000000000000000000000000000000000000000000000000000000000000000000000000000000000000000000000000000000000000000000000000000000000000000000000000000000000000000000000000000000000000000000000000000000000000000000000000001000000000000000000000000000000000000000000000000000000000000000000000000000000000000000000000000000000000000000000000000000000000000000000000000000000000000000000000000000000000000000000000000000000101000000000000000000000000000000000000000000000000000000000000000000000000000000000000000000010000000000000000000000000000000000000000000000000000000000000000000000000000000000000000000000000000000001010000000000000000000000000000000000000000000000000000000000000000000000000000000000000000001100000000000000000000000000000000000000000000000000000000000000000000000000100000000000000000000000000000001000000000000000000000000000000000000000000000000000000000000000000000000000000000000000000011000000000000000000000000000000000000000000000000000000000000000000000000001000000000000000000000000000000000000000000000000000000000000000000000000000110000000000000000000000000000000000000000000000000000000000000000000000000000000000000000000000000000000000000000000000000010000000000000000000000000000000000000000000000011000001000000000000000000001100000000000000000000000000000000000000000000000000000000000000000000000000000000000000000000000000000000000000000000000000000000000000000000000000000000000000000000000000110000010000000000000000000000000000000000000000000000000000000000000011100000000000000000000000000000000000000000000000000000000000000000000000000000000000000110000000000000000000000011000000000000000000000100000000000000000000000000000000000000000000000000000000000000100010011000000000000000000000000000000000000000000000000000000000000000000000000000000001010000000000000000000000110000000000000000000000000000000000000000000000000000000000000000000000000000000000001000000001000000000000000000000000000000000000000000000000000000000000000000000000000000001100000000000000000000000000000000000000000000000000000000000000000000000000000000000000000000000000000000000001000000100000000000000000000000000000000000000000000000000000000000000000000000000000000000000000000000000000000000000000000000000000000000000000000000000000000000000000000000000000000000000000000000000100000000000000000000000000000000000000000000000000000000000000000