P1
200 200
0000000000000000000000000000000000000000000000000000000000000000000000000000000000000000000000000000000000000000100000000000000000000000000000000000000000000000000000000000000000000000010000000000000000000000000000000000000000000000000000000000000000000000000000000000000000000000000000000011100000000000010000010100000000000000000000000000000000000000000000000000000000000000000000001010000000000000000000000000000000000000000000000000000000000000000000000000000000000000000000000000000001001100000000001010000100100000000000000000000000000000000000000000000000000000000000000000000010100000000000000111000000000000000000000000000000000000000000000000000000000000000000000000000000000000000001100000000011000000110000000000000000000000000000000000000000100000100000000000000000000000010000000000000000000000000000000000000000000000000000000000000000000000000000000000000000000000000000000000010000000000000000000000000000000000000000000000000000000000001000010100000000000000000000000000001100000000100001000000000000000000000000000000000001100000000000000000000000000000000000011000000000111000000000000000000000000000000000000000000000000000000000000010000100100000000000000000000000000100000000001000010000000000000000000000000000000000000000000000000000000000000000000000000110000000000100000000000000000000000000000011100000000000000000000000000000000000110000000000000000000000000000101111000010000100000000000000000000000000000000000000000000000000000000000000000000000000000000000000000000000000000000000000000001000100000000000000000000000000000000000000000000001100000000000000000111010000000000000000000000000000000000000000000000000000000000000000000000000000000000000000000000000000000000000000000000000000100000100000000000000000000000000000000000000000000011000000000000000000001000000111000000000000000000000000000000000000000000000000000000000000000000000000000000000000000000000000000000000000000000000100010000000000000000000000000000000000000000000000000000000000000000000000000000000000000000000000000000000000000000000000000000000000000000000000000000000000000000000000000000000000000000000000000000111000000000000000000000000000000000000000000000000000000000000000000000000000000000000000000000000000000000000000000000000000000000000000000000000000000000000000000000000000000000000000000000000000000000000000000000000000000000000000000000000000000000000000000000000000000000000000000000000000000000000000000000000000000000000000000000000000000000000000000000000000000000000000000000000000000000000000000000000000000000000000000000000000000000000000000000000000000000000000000000000000000000000000000000000000000000000000000000000000000000000000000000000000000000000000000000000000000000000000000000000000000000000000000000000000000000000000000000000000000000000000000000000000000000000000000000000000000000000000000000000000000000000110000000000000000000000111000000000000000000000000000000000000000000000000000000000000000000000000000000000000000000000000000000000000000000000000000000000000000000000000000000000000000000000000000010010000000000000000000010001000000000000000000000000000000000000000000000000000000000000000000000000000000000000000001110000000000000000000000000000000000000000000000000000000000000000000000000000000101000000000000000000000100010000000000000000000000000000000000000000000000000000000000000000000000000000000000000000111100000000001101110000000000000000000000000000000000000000000000000000000000000000100000000000000000000001000100000000000000000000000000000000000000000000000000000000000000000000000000000000000000011101100000000010010100000000000000000000000000000000000000000000000000000000000000000000000000000000000000001110000000000000000000000000000000000000000000000000000000000000000000000000000000000000000100110000000001101001101000000000000000000000000000000000000000000000000000000000000000000000000000000000000000000000000000000000000000000000000000000000000000000000000000000000000000000000000000000000111100000000011011010010000000000000000000000000000000000000000000000000000000000000000000000000000000000000000000000000000000000000000000000000000000000000000000000000000000000000000000000000000000000000111000000000000010000000000000000000000000000000000000000000000000000000000000000000000000000000000000000000000000000000000000000000000000000000000000000000000000000000000000000000000000000000110001101111000000000000000000000000000000000000000000110000000000000000000000000000000000000000000000000000000000000000000000000000000000000000000000000000000000000000000000000000000000000000000000001010000000001000000000000000000000000000000000000000001100000000000000000000000000000000000000000000000000000000000000000000000000000000000000000000000000000000000000000000000000000000000000000000000000010000011100000000000000000000000000000000000000000000000000000000110000000000000000000000000000000000000000000000000000000000000000000000000000000000000000000000000000000000000000000000000000000000000100000110000000000000000000000000000000000000000011000000000000010010000000000000000000000000000000000000000000000000000000000000000000000000000000000000000000000000000000000000000000000000000000000000000010000000000000000000010000000000000000000001001000000000000100100000000000000000000000000000000000000000000000000000000000000000000000000000000000000000000000000000000000010000000000000000000000010000100000000000000000001010000000000000000000000000000000000000110000000000000000000000000000000000000000000000110000000000000000000000000000000000000000000000000000000000001010000000000000000000010000010000000000000000000010100000000000000000000000010000000000000000000000000000000000000000000000000000001000011100000000000000000000000000000001000000000000000000000000000100100000000000000000000000110000000000000000000000010000000000000000000100000100000000110000000000000000000000000000000000000000000101000011000000000000000000000000000000101000000000000000000000000001001000000000000000000001000110000000000000000000000000000000000000000000000000000000001100000000000000000000000000000000000000000010010000000000000000000000000000000000001010000000000000000000000000011000000000000000000000001100110000000000000000000000000000000000000000010000100000000000000000000011000000000000000000000000000000011000000000000000000000000000000000000001000000000000000000000000000110001000000000000000000011101110000000000000000000000000000000000000000011100000000000000000000001001000000000000000000000000000000000000000000000000000000000000000000000000000000000000000000000000000100001111011100000000000010101000000000000000000000000000010000000000000000000000000000000000000010100000000000000000000000000000000000000000000000011000000001110000000000000000000000000000000000000000011001111001000000000000011100000000000000000000000000001010000000000000000000000000000000000000010000000000000000000000000000000000000000000000001001000001011100000000000000000000000000000000000000111000101010000000000000000010000000000000000000000000000010010000000000000000000000000000000000000000000000000000000000000000000000000000000000000001100000011000000000000000000000000000000000000000000010000000100100000000000000000000000000000000000000000000011000000000000000000000000000000000000000000000000000000000000000000000000000000000000000000000000101110000000000000000000000000000000000000000110100001101100000000000000000000000000000000000000000000000000000000000000000000000000000000000000011000000000000000000000111000000000000000000000000000000100010000000000000000000000000000000000000010111110110001000000000000000000010000000000000001000000000000000000000000000000000000000000000000000110000000000000000000000000000000000000000000000000000001101100000000000000000000000000000000000001000101001000000000000000000000000100000000000000111000000000000000000000000000000000000000000000000000000000000000000000000000000000000000000000000000000000000110000000000000000000000000000000000000100010010000000000000000110000000001000000000000011001000000000000000000000000000000000000000010000000000000000000000000000000000000000000000000000000000000000000000000000000000000000000000000000000000101001000000000000000010100000000000000000000000100010000000000000000000000000000000000000001010000000000000000000000000000000000000000000000000000000000000000000000000000000000000000000000000000000000000000000000000000000111100000000000000000000001010000000000000000000000000000000000000000010010000000000000000000000000000000000000000000000000000000000000000000000000000000000000000000000000000000000000000000000000000110000000000000000000000000000000000000000000000000000000000000000011000011000000000000000000000000000000000000000000000000000000001110000000000000000000000000000000000000000000000000000000000000000010100000000000000000000000000011011000000000000000000000000000000000110000000000000000000000000000000000000000000000000000000000000000000000000000000000000000000000000000000000000000000000000000000000111000000000000000000000000000001000000000000000000000110000000000000000000000000000000000000000000000000000000000000000000000000000000000000000000000000000000000000000000000000000000000000000000000000010000000000000000000000000000000000000000000000000001001000000000000000000000000001000000000000000000000000000000000000000000000000000000000000000000000000000000000000000000000000000000000000000000000000000000000000000000000000000000000000000000000000010000000000000000000000000000010000000000000000000000000000000000000000000000000000000000000000000000000000000000000000000000000000000000000000000000000000000000000000000000000000000000000000000000000010100000000000000000000000001000000000000000000000000000000000000000000000000000000000000000000000000000000000000000000000000000000000000000000000000000000000000000000000000000000000000000000000000000010000000000000000000000000000000100000000000000000000000000000000000000000001110000000000000000000100000000000000001110000000000000000000000000000000000000000000000000000000000000000000000000000000000001001100000000000000000000000010000000000000000000000000000000000000000000000000000000000000000010100000000000000100010000000000000000000000000000000000000000000000000000000000000000000000000000000000101000100000000000000000000000100000000000000000000000000000000000000000000000000000000000000000100100000000000010000010000000000000000000000000000000000000000000000000000000000000000000000000000000100010001000000000000000000000000000000110000000000000000000000000000000000000000000000000000110000110000000000000100000100000000000000000000000000000000000000000000000000000000000000000000000000000000000000010000000000000000110000000000001100000000000000000000010000000000000000000000000000001100000000000000000001110111000000000000000000000000000000000000000000000000000000000000000000000000000000001100000000000000000000001100000000000000000000000000000000011110000000000000000000000000000000000000000000000000000000000000000000000000000000000000000000000000000000000000000000000000000000000000000000100110000000000000000000000000000000000000000000000000001110100000000000000000000010000000000000000000000000000000000000000000000000000000000000000000000000000000000000000000000000000000000000000000000110000000000000000000000000000000000000000000000000000110000000000000000000000000100000000000000000000000000000000000000011000000000000000000000000000000000000000000000000000000000000000000000000000000000000000000000000000110000011000000000000000000000000010000000000000000000000001000000000000000000011100000000000000010010000000000000000000000000000000000000000000000000000000000000000000000000000000000000000000001100010010000110000000000000000000000000000000000100000000000000000000000000000000001000100000000000000100010000000000000000000000000000000000000000000000000000000000000000000000000000000000000000000011000010100000000000000000000000000000000000000000000001100000000000000000000000000100000100000000000000000000000000000000000000000000000000000000000000000000000011000000000000000000000010000000000000000000010000000000000000000000000000000000000001101110111000000000000000000000000000000001000000000000000000000000000000000000000000000000000000000000000000000001001000000000000000000001110000000000000000000000000000000000000000000000000000000000011101011000000000000000000000000000000010010000000000000000000000000000000000000000000000000000000000000000000000010010000000000000000000100010000000000000000000000000000000000000000000000000000000000010000100000000000000000000000000000010000000000000000111000000000000000000000000000000000000000000000110000000000011000000000000000000011101110000000000000000000000000000000000000000000000000000000000010000000000000000000000000000001100000000000000000010101000000000000000000000000000000000000000000001100000000000000000000000000000000010000100000000000000000000000000000000000000000000000000000000000000000000000001100000000000000011000000000000000000100010000000000000000000000000000000000000000000000000000000000000000000000000000000111011100000000000000000000000000000000000010000000000000000000000000000000000100100000000000000000000000000000000000100100000000000000000000000000000000000000000000000000000000000000000000000000000000100010000000000000000000000000000000000011111000000000000000000000000000000000110000000000000000000000000000000000001110000000000000000000000000000000000000000000000000000000000000000000000000000000000111000000000000000000000000000000000001110110000000000000000000000000000000000000000000000000000000000000000000000000000000000000000000000000000000000000000000000000000000000000000000000000000000000000100000000000000000000000000000000000001111100000000000000000000000000000000000000000000000000000000000000000000000000000000000000000000000000000000000000000000000000000000000000000000000000000000000000000000000000000000000000000000000000000100000000000000000000000000000000000000000000000000000000000000000000000000000000000000000000000000000000000000000000000000000000110000000000000000000000000000000000000000000000000000000000000000000000000001000000000000000000000000000000000000000000000000000000000000000000000000000000000000000000000000000000000000000000000000010010000000000000000000000000000000000000000000000000000000000000000000000000111000000000000000000110000000000000000000000000000000000000000000000000000000000000000000000000000000000000000000000000000011000000000000000000000000000000000000000000000000000000000000000000000000011010000000000000000010010000000000000000000000000000000000000000000000000000000000000000000000000000000000000000000000000000000000000000000000000000000000000000000000000000000000000000000000000000001100000000000000000000011000000000000000000000000000000000000000000000000000000000000000000000000000000000000000000000000000000000000000000000000000000000000000000000000000000000000000000000000000000001101000000000000000000000000000000000000000000000000000000000000010000000000000000000000000000000000000000000000000000000000000000000000000000000000000000000000000000000000000000000000000000000000000001110000000000000000000000000000000000000000000000000000000000001010000000000000000000000000000000000000000000000000000000000000000000000000000000000000000000000000000000001100000000000000000000000000001000000000000000000000000000000000000000000000000000000000000010100000000000000000000000000000000000000000000000000000000000000000000000000000000000000000000000000000000001100000000000000000000000000000000000000000000000000000000000000000000000000000000000000000010000000010100000000000000000000000000000000000000000000000000000000000000000000000000000000000000000000011010000000000000000000000000000000000000000000000000000000000000000000000000001100000000000000000000000100100000000000000000000001000000000000000000000000000000000000000000000000000000000000000000000110000000000000000000000000000000000000000000000000000000000000000000000000000011000000000000000000000010001000000000000000000000101000000000000000000000000000000000000000000000000000000000000000000001000000000000000000000000000000000000000000000000000000000000000000000000000000000000000000000000000000010010000000000000000000000100000000000000000000000000000000000000000000000000000000000000000000001100000000000000000000000000000000000000000000000000000000000000000000000000000000000000000000000000000111000000000000000000000000000000000000000000000000000000000000000000000000000000000000000000000000000000000000000000000000000000000001000000000000000000000000000000000000000000000000000000000000000000000000000000000000000000000000000000000000000000000000000000000000000000000000000000000000000000000000000000000000000000000000000000100000000000000000000000000000000000000000000000000000000000000000000000000000000000000010000000000000000000000000000000000000000000000000000000000000000000000000000000000001110001100000000000000000001110000011000000000000000000000000000000000000000000000000000000000000000000000000000001011000000000000000000000000000000000000000000000000000000000000000000000000000000000000000100100000000000000000000000000110000000000000000000000000000000000000000000000000000000000000000000000000000001110100000000000000000000000000000000000000000000000001110000000000000000000000000000000000110000000000000001000000000000000000000000000000000000000000000000000000000000000000000000000000000000000000100000000000000000000000000000000000000000000000000000010010000000000000000000000000000000000000000000000000010000000000000000000000000000000000000000000000000000000000000000000000000000000000000001000000000000000000000000000000000000000000000001000000010000000000000000000000000000000000000000000000000000000100000110000000000000000000000000000000000000000000000000000000000000000000000000000000011000001000000000000000000000000000000000000000101000000100000100000000000000000000000000000000000000000000000000000010010000000000000000000000000000000000000000000000000000000000000000000000000000000110010000000000000000000000000000000000000000010010000001000010000000000000000000000000000000000000000000000000000000100100000000000000000000000000000000000000000000000000000000000000000000000000000000000000000000111000011000000000000000000000000011000000000010000000000000000000000000001110000000000000000000000000000110000000000000000000000000000000000000000000000000000000000000000000000000000000000000000000010001000110100000000000000000000000000000000000000000000000000000000000000000000000000000000000000000000000000000000000000000000000000000000000000000000000000000000000000000000000000000000000000000000100010000001110000000000000000000000000000001000000000000000000000000000000000000000000000000000000000000000000000000000000000000000000000000000000000000000000000000010000000000000000000000000000000001000100000011000000000000000000000000000000101000000000000000000000000000000000000000000000000000000001100000000000000000000000000000000000000000000000000000000000001110000000000000000000000000000000001110000111100000000000000000000000000000000110000000000000000000000000000000000000000000000000000000100100000000000000000000000000000000000000000110000000000000000100010000000000000000000000000000000000000001110000000000000000000000000001000000000000000000000000000000000000000000000000000000000000000110000000000000000000000000000000000000000010010000000000000011100110000000000000000000000000000000000000001000000000000000000000000000111000000000000000000000000000000000000000000000000000000000000000000000000000000000000000000000000000000000010100000000000000010001000000000000000000000000000000000000000000000000000000000000000000001101000000000000000000000000000000000000000000000000000000000000000000000000000000000000000000000000000000000010000000000000000001010000000000000000001110000000000000000000000000000000000000000000000110011000000000000000000000000000100000000000000000000000000000000000000000000000000000000000000000000000000000000000000000000001000000000000000000000100010000000000000000000000000000000000000000000000111100000000000000000000000000001000000000000000000000000000000000000000000000000000000000000000000000000000000000000000000000100100000000000000000001000100000000000000000000000000110000000000000000001110000000000000000000000000000000001000000000000000000000000000000000000000000000000000000000000000000000000000000000000000001100000000000000000000010001000000000000000000000000001100000000000000000000000000000000000000000000000000000101000000000000000000000000000000000000000000000001110000000000000000000000000000000001000000000000000000000000000011100000000000000000000000000000000000000000000000000000000000000000000000000000000001001000000000000000000000000000000000000000000000000000000000000000000000000000000000111000000000000000000000000000000000000000000000000000000000000000000000000000000000000000000000000000000000000000001100000000000000000000000000000000000000000000000000000000000000000000000000000000000001000000000000000000000000000000000000000000000000000000000000000000000000000000000000000000000000000000000000000000000000000000000000000000000000000000000000000010001000000000000000000000000000000001001000000000000000000000000000000000000000000000000000000000000000000000000000000000000000000000000000000000000000000000000000000000000000000000000000000000000000000000000000000000000000000000000000001100000000000000000000000000000000000000000000000000000000000000000000000000000000000000000000000000000000000000000000000000000000000000000000000000000000000000000101000000000000000000000000000000000000000000000000000000000000000000000000000000000000000000000000000000000000000000000000000000000000001000000000000000000000000000000000000000000000000000000000000000100000000000000000000000000000000000000000000000000000000000000000000000000000000000000000000000000000000000000000000000000000000000000111000000000000000000000000000000000000000000000000000000000000000000000000000000001000000000000000000000000000000000000000000000000000000000000000000000000000000000000000000000000000000000000000000011011000000000000000000000000000000000000001011000000000000000000000000000000000000010000000000000000000000000000000000000000000000000000000000000000000000000000000000000000000000000000000000000000000011100000000000000000000100000000000000000111100000000000000010000000000000000000000100000000000000000000000000000000000000000000000000000110000000000000011100000000000000000011000000000000000000000000010000000000000000000010100000000000001101000000000000000001010000000000000000000000000000000000000011100011100000000000000000000000000010010000000000000100100000000000110000110000000000000000000000000000000000000000000000101000000000000001000000000000000000010100000000000000000000000000000000000000000000000001100000000000000000000000100100000000000000000100000000001100000000000000000000000000000000000000000000000000000100000000000000000000000000000000000010000000000000000000000000000000000000100000100000100100000000000000000000001010000000000000010010000000000000000000000000000000000000000010000000000000000000000000000000000000000000000000000000000000000000000000000000000000000000000000001000001000000110000000000000000000000000000000000000000111000000000000000000000000000000000000000001010000000000000000000000000000001100000000000000000000000000000000000000000000000000000000000000000010000010000000000000000000000000000000000000000000000000000000000000000000000000000000000000000000100010000000000000000000000000000011000000000000000000000000000000000000000000000000000000000000000000000000000000000000000000000000000000000000000000110000000000000000000000011000000000000000000000000101000000000000000000000000000000000000000011100000000000000000000000000000000000000000000000000000000011100000000000000000000000000000000000000000001100000000000000000000001001000000000000000000000000100000000000000000000000000000000000000000100100000000000000000000000000000000000000000000000000000000000000000000000000000000000000000000000000000000000000000000000000000001010000000000000000000000000000000000000000000000000000000000000000010111000000000000000000000000000000000000000000000000000000000000000000000000000000000000000000000000000000000000000000000000000000001000000000000000000000000000000000000000000000000000000000000000000000110000000000000000000000000000000000000000000000000000000000000000000000000000000000000000000000000000000000000000000000000000000000000000000000000000000000000000000000000000000000000000000000000000000000000000000000000000000000000000000000000000000000000000000000000000000000000000000000000000000000000000000000000000000000000000000010000000000000000000000000000000000000000000000000000000000000000010000000000000000000000000000000000000000000000010000000000000000000000000000000001100000000000000000000000000000000000000000000000010010000000000000000000000000000000000000000000000000000000000000000000000000000000000000000000000000000000000000001010000000000000000000000000000000011000000000000000000000000000000000000000000000001000010000000000000000000000000000000000000000000000000000000000000000000000000000000000000000000000000000000000000010100000000000000000000000000000000000000000000000000000000000000000000000000000000000000010000000000000000000000000000000000000000000000000000000000000000000000000000000000000000000000000000000000000010000000000000000000000000000000000000000000001100000000000000000000000000000000001000000000000000000000000000000000000000000000000000000000000000000000000000000000000000000000000001000000000000000000000000000000000000000000000000000001000000000011000000000000000010000000000000000001000010000000000000000000000000000000000000000000000000000000000000000000000000000000000000000000001100000000000000000000000000000000000000000000000000110000000000000000011000000001010000000000000000001001000000000000000000000000000000000000000000000000000000000000000000000000000000000000000000000110000000000000000000000000000000000000000000000000001000100000000000001001000000010100000000000000000001000000000000000000000000000000000000000000000000000000000000000000000000000000000000000000011111000000000000000000000000000000000000000000000000000000100100000000000111111000000010000000000000000000000000000000000000000000000000000000000000000000000000000000000000000000000000000000000000001000100000000000000000000000000000000000000000000000000000000001000000000000100100000000000000000000000000000000000000000000000000000000000000000000000000000000000000000000000000000000000000000000000100000100000000000000000000000000000000000000000000000000110010010000000000000110000000000000000000000000000000000000000000000000000000000000000000000000000000000000000000000000000000000000000000000000100010000000000000000000000000000000000000000000000000001100001000000000000000000000000000000000000000000000000000000000000000000000000000000000000000000000000000000000000000000000000000000000100000000111000000000000000000000000000000000000000000000000000000100100000000000000000000000000000000000000000000000000000000000000000000000000000000000000000000001100000000000000000000000000000000010100000000000000000000000000000000000000000000000001100000011000000000000000000000000000000000000000000000000001000000000000000000110000000000000000000000000000000011000000000000000000000000011000000101000011000000000000000000000000000000000000000000011000001001000000000000000000000000000000000000000000000000010000000000000000010100000000000000000000000000000000000000000000000000000000000110000000100001001000000000000000000000000000000001110000000000000010100000000000000000000000000000000000000000000000000100000000000000000111000000000000000000000000000000000000000000000000000000000000000000000000001100000000000000000000000000000000011100000000000000010000000000000000000000000000000000000000000000000000000000000000000010010000000000000000000000000000000000000000000000000000000000000000000000000000000000000000000000000000000000011001000000000000000000000000000000000000000000000000000000000000000000000000000000000000011000000000000000000000000000000000000000000000000000000000000000000000000000000000000000000000000000000000000110101001000000000000000000000000000000000000000000000110000000000000000000000000000000000000000000000000000000000000000000000000000000000000000000000000000000000000000000000000000000000000000000000000010110010000000000000000000000000000000000000000000010010000000000000000000000000000000000000000000000000000000000000000000000000000010000000000000000000000000000000000001000000000000000000000000000000100000100000000000000000000000000000000000000000000101000000000000000000000000000000000000000000000000000000000000000000000000000000100000000000000000000000000000000000101000000000000000000000000000001100010000000000000000000000000000000000000000000000100000000000000000000000000000000110000000000000000000001000000000000000000000001000000000000000000000000000000000000100000000000000000000000000000001001000000000000000000000000000000000000000000000000000000000000000000000000010000001100000000000000000000101000000000000000000000000000000000000000000000000000000000000000000000000000000000000000000001100000000000000000000000000000000000000000000000000000000000000000000000000100000000000000000000000000010011000000000000000000000000000000000000000000000000000000000000000000000000000000000000000000000000000000000000000000000000000000000000000000000000000001100000000000000001000000000000000000000001100101010000000000000000000000000000000000000000000000000000000000000000000000000000000000000000000000000110000000000000000000000000000000000000000000000000100100000000000000000000000000000000000000011000000000000100000000000000000000000000000000000000000000000000000000000000000000000000000000000000000010010000000000000000000000000000000000000000000000001010000000000000000000000000000000000000000000000000000010100000000000000000000000000000000000000000000000000000000000000000000000000000000000000000011000000000000000000000000000000000000000001000000001000000000000000000000000000000000000000000000001000000101000000000000000000000000000000000000000000000000000000000000000000000000000110000000000000000000000000000000000000000000000000000000101000000000000000000000000000000000000000000000000000000010000000100000000000000000000000000000000000000000000000000000000000000000000000000010010000000000000000000000000110000000000000000000000000000110000000000000000000000000000000010000000000000000000000000000000000000000000000011000000000000000000000000000000000000000000000001000000000100100000000000000000000000010100000000000000000000000000000000000000000000000000000000000000100000000000000000000000000000000000000000000000110000000000000000000000000000000000000000000000101000000000110000000000000000000000000010000000000000000000000000000000000000000000000000000000000000001000110000000000000000000000000000000000000000000000000000011000000000000000000000000000000000010010000000000000000000000000000000000000000000000000000000000000000000000000000000000000000000000000000000010010000000000000000000000000000000000000000000000000000000000000000000000000000000000000000011000000000000000000000000000000000000000000000000000000000000000000000000000000000000000000000000000000000101000000000000000000000000000000000000000000000000000000000000000000000000000000000000000000000000000000000000000000000000000000000000000000000000000000000000000000000000000000000000000000000000000000100000000000000000000000000000000000000000000000000000000000000000000000000000000000000000000000000000000000000000000000000000000000000000000000000000000000000000000000000000000000000000000000000011000000000000000000000000000000000000000000000000000000000000000000000001100000000000000000000000000000001100000000000000000000000000011000000000000000000000000000000000000000000000000000000000000000110000000000000000000000000000000000000000000000000000000000000000000000000000000000000000000000000000000100100000000000010110000000000110000000000000000110110000000000000000000000000000000000000000000000000000000000000000000000000000000000000000000000000000000000000000000000000011100000000000000000000000101000000000011100010000000000000000000000000001000100000000000000000000000000000000000000000000000000000110000000000000000000000000000000000000000000000000000000000000000001000100000000000000000000000100000000000101000010000000000000000000000000001110000000000000000000000000000000000000000000000000000001100000000000000000000000011100000000000000000000000000000000000000010000000000000000000000000000000000000010000101000000000000000000000000000011100000000000000000000000000000000000000000000001110000000000000000000000000000000000000000000000000000000000000000000000000110110000000000000000000000000000000000000001000000000000000000000000000000000000000000000000000000000000000000000000000000000010000000100000000000000000000000000000000000000000000000000000000000000000010000000000000000000000000000000000000000000000000000000000000011000000000000000000000000000000000000000000000000000000000001000000010100000000000000000000000000000000000000000000000000000000000000000000000000000000000000000000000000000000000000000000000000000001010001100000000000000000000000000000000001100000000000000000001000001001000000000000000000000000000000000010000000010000000000000000000000000000000000000000110000000000000000011001000000000000000000000001010100000000000000000000000000000000011000000000000000000011000001100000000000000000000000000000000001110000001010000000000000000000000000000000000000010010000000000000000011100000000000000000000011011010000000000000000000000000000000000000000000000000001000110000000000000000000000000000000000000000100100000100010000000000000000000000000000000000000100100110001100000000010000010000000000000000010000000000000000000000000000000000000000000000000000000001110000000000000000000000000000000000000000001111100001000100000000000000000000000000000000000000110001100100100000000000001010000000000000000000000000000000000000000000000000000000000000000000000001000000000000000000000000000000000000000000000001100000001110000000000000000000000000000000000000000000000000101000000001100010100000000000000000000000000000000000000001000000000000000000000000000000101000000000000000000000000000000000000000000000000000000000000000000000000000000000000000000000000000000000000100001000011000010000000000000000000111100000000000000000101000000000000000000000000000001010000000000000000000000000000000000000000000000000000000111000000000000000000000000000000000000000000000000000001000010000000000000000000000000001110000000000000000001010000000000000000000000000000001000000000000000000000000000000000000000000000000000000010001000000000000000000000000000000000000000000000000000100000100000000000000000000000000001000000000000000000001000000000000000000000000000000000000000000000000000000000000000000000000000000000000000100010000000000000000000000000000000000000000000000000000000001000000000000000000000000000000000000000000000000000000000000000000000000000000000000000000000000000000000110000000000000000000000000000000101000000000000000000000000000000000000000111000000000001001000000000000000000000000000000000000000000000000000000000000000000000000000000000000000000000000000000000001100000000000000000000000000000000100000000000000000000000000000000000000000000000000000001110000000000000000000000100000000000000000000000000000000000000000000000000000000001110000000000000000000000000000000000000000000000000000000000000000000000000000011000000000000000000000000000000000000000000000000000000000011100000000000000000000000000000000000000000000000000000000000000000000000000000000000000000000000000000000000000000000000000000000000000001001000000001100000000000000000000000000000000000000000000001101100000000000000000000000000000000000000000000000000000000000000000000000000000000000000000000000000000000000000000000000000000010000000010010000000101000000000000000000000000000000000000000000000001110000000000000000000000000000000000000000000000000000000000000000000000000000000000000000000000000000000000000000000000000000001011000000011000000000100000000000000000000000000000000000011100000000001000000000000000000000000000000000000000000000000000000000000000000000000000000000000000001100000000000000000000000000000000000100011000000000000000000000000000000000000000000000000000001000100000000000000000000000000000000000000000000000000000000000000000000000000000000000000110000000000100100000000000000000000000000000000000100110000000000000000000000000000100000000000000000000000000001000000000000000000000000000000000000000000000000000000000000000000000000000000000000001100000000000110000000000000000000000000000000000011000000000000000000000000000000010100000000000000000000000110110000000000000000000000000000000000000000000000000000000000000000000000000000000000000000000000000000000000000000000000000000000000000000110100000000000000000000000000001010000000000000000000000000010000000000000000000000000000000000000000000000000000000000000000000000000000000000000000000000000000000000000000000000000000000000000000001111000000000000000000000000000101000000000000000000000000000000000000000000000000000000000000000000000000000000000000000000000000000000000000000000000000000000000000000000000000000000000000000000000000100000000000000000000000000000100000000000000000000000000000000001100000000000000000000000000000000000000000000000000000000000000000000000000000000000000000000000000000000000000000000000000000000000000000000000000000000000000000000000000000000000000000000000000000011000000000000000000000000000000000000000000000000000000000000001110000000000000000000000000000000000000000000000000000000000000000000000000000000000000000000000000000000000000000000000000000000000000000000000000000000000000000000000000000000000000000000000000000000000000000000000000000000000001000000000000000000000000000000000000000000000000000000000000000000000000000000000000000000000000000000000000000000000000000000000000000000000000000000000000000000000000000000000000000000000000000000101000000000000000000000000000000000000000000000000000000000000000000000000000000000000000000000000000000000000000000000000000000000000000000000000000000000000000000000000000000000000000000000000000001010000000000000000000000000000000000000000000000000000000000000000000000000000000000000000000000000000000000000000000000000000000000000000000000110000000000000000000000100000000000000000000000000000001000000000000000000000000000000000000000000000000000000000000000000000000000000000000000000000000000000000000000111000000000000000000000000000011111000000000000000000001000000000000000000000000000000000000000000000000000000000000000000000000000110000000000000000000000000000000000000000000000000000000000000000000110000000000000000000000000101100000000000000000000000010000000000000000000000000000000000000000000000011000001000000000000000000001100000000000000000000000000000000000000000000000000000000000000000000010000000000000000000000010100110100000000000000000000000000000000000000000000000000000000000000000000110000010000000000000000000000000000000000000000000000000000000000000000000000000000000000000000000100000000000000000000000101111110000000000000000000000000000110000000000000000000000011000000000000000000000100000000000000000000000000000000000000000000000000000000000000000000000000000000000000110110000000000000000000000001111100000000000000000000000000000001010000000000000000000000110000000000000000000000000000000000000000000000000000000000000000000000000000000000000000000000000000000000001101100000000000000000000000001100000000000000000000000000000000001100000000000000000000000000000000000000000000000000000000000000000000000000000000000000000000000000000000000000000000000000000000010110100000000000000000000000000001001000000000000000000000000000000000000000000000000000000000000000000000000000000000000000000000000000000000000000000000000000000000000000000000000000000000000000000110000000000000000000000000000000001110000000000