P1
200 200
0000000000000000000000000000000000000000000000000000000000000000000000000000000000000000000000000000000000000000000000000000000000000000000000000000000000000000000000000000000000000000010000000000000000000000000000000000000000000000000000000000000000000000000000000000000000000000000000010000000000000000010000011100000000000000000000000000000000000000000000000000000000000000000000001010000000000000000000000000000000000000000000000000000000000000000000000000000000000000000000000000001111110000000000001010000101000000000000000000000000000000000000000000000000000000000000000110000001000000000000000000000000000000000000000000000000000000001000000000000000000000000000000000000000000011011011000000000011000000110000000000000000000000000000000000000000000010100000000000000000000000010000000000000000000000000000000000000000110000000000000101000000000000000000000000000000000000000000000001110000000000000000000000000000000000000000000000000000000000011100100000000000000000000000000000001000000000011100000000000000000000001100000000000011000000000000000000000000000000000000011000000000000000000000000000000000000000000000000000000000000000000000000000000011000000000000000000000000000011101000000101000000000000000000000010100000000000001000000000000000000000000000000000000110000000000000000000000000000000000000000011000000000000000000000000000000000000010000000000000000000000000000111010000001110000000000000000000000000000000000000000000000000000000000000000000000000000000000000000000000000000000000000000000001001000000000000000000000000000000000000000000000001100000000000000000011100000000000000000000000000000000000000000000000000000000000000000000000000000000000000000000000000000000000000000000000000000001110000000000000000000000000000000000000000000000011000000000000000000000000000000000000000000000000000000000000000000000000000000110000000000000000000000000000000000000000000000000000000000000000000000000000000000000000000000000000000000000000000000000000000000000000000000000000000000000000000000000000000000000000000000000000010000000000000000000000000000000000000000000000000000000000000000000000000000000000000000000000000000000000000000000000000000000000000000000000000000000000000000000000000000000000000000000000000000000000000000000000000000000000000000000000000000000000000000000000000000000000000000000000000000000000000000000000000000000000000000000000000000000000000000100000000000000000000000000000000000000000000000000000000000000000000000000000000000000000000000000000000000000000000000000000000000000000000000000000000000000000000000000000000000000000000000000000001000000000000000000000000000000000000000000000000000000000000000000000000000000000000000000000000000000000000000000000000000000000000000000000000000000000000000000000000000000000000000000000000000000000000000000000000000000000000000000000000000000000000110000000000000000000000000000000000000000000000000000000000000000000000000000000000000000000000000000000000000000000000000000000000000000000000000000000000000000000000000000000000000000000000000000010100000000000000000000001010000000000000000000000000000000000000000000000000000000000000000000000000000000000000000000000000000000000000000000000000000000000000000000000000000000000000000000000000000111000000000000000000000010010000000000000000000000000000000000000000000000000000000000000000000000000000000000000000011000000000000100000000000000000000000000000000000000000000000000000000000000000000000000000000000000000000101000000000000000000000000000000000000000000000000000000000000000000000000000000000000000000111000000000010111100000000000000000000000000000000000000000000000000000000000000000000000000000000000000000000000000000000000000000000000000000000000000000000000000000000000000000000000000000000000010010000000000100011000000000000000000000000000000000000000000000000000000000000000000000000000000000000000000000000000000000000000000000000000000000000000000000000000000000000000000000000000000000000011000000000000111001000000000000000000000000000000000000000000000000000000000000000000000000000000000000000000000000000000000000000000000000000000000000000000000000000000000000000000000000000000000000000010000000000001100000000000000000000000000000000000000000000000000000000000000000000000000000000000000000000000000000000000000000000000000000000000000000000000000000000000000000000000000000000000000011010000000000011000000000000000000000000000000000000000000000000000000000000000000000000000000000000000000000000000000000000000000000000000000000000000000000000000000000000000000000000000000011100000100000000000000000000000000000000000000000000011100000000000000000000000000000000000000000000000000000000000000000000000000000000000000000000000000000000000000000000000000000000000000000000000011000100011000000000000000000000000000000000000000000011000000000000110000000000000000000000000000000000000000000000000000000000000000000000000000000000000000000000000000000000000000000000000000000000110000111000000000000000000000000000000000000000000010110000000000010010000000000000000000000000000000000000000000000000000000000000000000000000000000000000000000000000000000000000000000000000000000001001001100000000000000000000010000000000000000000000101000000000000100100000000000000000000000000000000000000000000000010000000000000000000000000000000000000000000000000000000000001000000000000000110001010000000000000000000000001010000000000000000000001110000000000000110000000000000000000000000000000000000000000000001110000000000000000000000000000000000000000000000000000000000101000000000000000000011100000000000000000000000010100000000000000000000000000000000000000000000000000000000000000000000000000000001000000100000000000000000000000000000001000000000000000000000000000001010000000000000000000000000000000000000000000000010000000000000000000001100000000000110000000000000000000000000000000000000000000101000001011000000000000000000000000000101000000000000000000000000000001000000000000000000000000100000000000000000000000000000000000000000000100100000000001100000000000000000000000000000000000000000010010000001100000000000000000000000000001010000000000000000000000000000000000000000000000000000001000000000000000000000000000000000000000000001001000000000000000000000011000000000000000000000000000000011000000000000000000000000000000000000001000000000000000000000000000000110000000000000000000000101000000000000000000000000000000000000000000001100000000000000000000001001000000000000000000000000000000000000000000000000000000000000000000000000000000000000000000000000001110010010010000000000000000100000000000000000000000000000010000000000000000000000000000000000000010100000000000000000000000000000000000000000000000011000000000110100000000000000000000000000000000001011011001000110000000000000001000000000000000000000000000001010000000000000000000000000000000000000010000000000000000000000000000000000000000000000001001000000111101000000000000000000000000000000000001100000010000000000000000000000000000000000000000000000000010010000000000000000000000000000000000000000000000000000000000000000000000000000000000000001100000011100001000000000000000000000000000000000000000000100001100000000000000000000000000000000000000000000011000000000000000000000000000000000000000000000000000000000000000001000000000000000000000000000000010100000000000000000000000000000000000000000011000101011000000000000000000000000000000000000000000000000000000000000000000000000000000000000000011000000000000000000000010000000000000000000000000000000011000000000000000000000000000000000000000001001000100001000000000000000000000000000000000000000000000000000000000000000000000000000000000000000110000000000000000000000100000000000000000000000000000000010000000000000000000000000000000000000000010010000001100000000000000000001110000000000000000000000000000000000000000000000000000000000000000000000000000000000000000000000000000000000000000000000000000000000000000000000000000000000000000000001101100000000000000000000000000000000000000000000000000000000000000000000000000000000000000000000000000000000000000000000000000000000000000000000000000000000000000000000000000000000000000000000000000001100000000000000000001000000000000000000000000011100000000000000000000000000000000000000001110000000000000000000000000000000000000000000000000000000000000000000000000000000000000000000000000000000000000000000000000000000111000000000000000000000000100100000000000000000000000000000000000000011010000000000000000000000000000000000000000000000000000000010000000000000000000000110000000000000000000000000000000000000000000010010000000000000000000000001011000000000000000000000000000000000011000001000000000000000000000000000000000000000000000000000000000100000000000000000000000000000000000000000000000000000000000000000001100000000000000000000000000000000000000000000000000001000000000000110000000000000000000000000000000000000000000000000000000000000001000000000000000000000000000000000000000000000000000000000000000000001100000000000000000000000000000000000000000000000000100010000000000000000000000000000000000000000000000000000000000000000000000000000000000000000000000000000000000000000000000000000000000000000000000000000000000000000000000000000000000000000000000000001001100000000000000000000000000000000000000000000000000000000000000000000000000000000000000000000000000000000000000000000000000000000000000000000000000000000000000000000000000000000000000000000000000001100000000000000000000000000010000000000000000000000000000000000000000000000000000000000000000000000000000000000000000000000000101000000000000000000000000000000000000000000000000000000000000000000000000000000000000000000000000000111100000000000000000000000000000000000000000000010000000000000000000000000000000000000000000000000100000000000000000000000000000000000000000000000000000000000000000000000000110000000000000000000000001111000000000000000000000000000000000000000000000100000000000000000000100000000000000000000000000000000000000000000000000000000000000000000000000000000000000000000000000000010101000000000000000000000000010000000000000000000000000000000000000000000001000000000000000000010100000000000000000000000000000000000000000000000000000000000000000000000000000000000000000000000000000100011000000000000000000000000000000000000000000000000000001000000000000000000000000000000000000100100000000000000111000000000000000000000000000000000000000000000000000000000000000000000000000000000001010000000000000000000000000000000000110000000000000000000010000000000000000000000000000000110000110000000000000010001000000000000000000000000000000000000000000000000000000000000000000000000000000000001100000000000000000000110000000000001100000000000000000000000000000000000000000000000000001100000000000000000000110110000000000000000000000000000000000000000000000000000000000000000000000000000000000001010000000000000000001100000000000000000000000000000000011100000000000000000000000000000000000000000000000000000000000000000000000000000000000000000000000000000000000000000000000000000000000000000000001100000000000000000000000000000000000000000000000000010011000000000000000000000000000000000000000000000000000000000000000000000000000000000000000000000000000000000000000000000000000000000000000000000000000000000000000000000000000000000000000000000000000011000000000000000000000001110000000000000000000000000000000000000000000000000000000000000000000000000000000000000000000000000000000000000000000000000000000000000000000100000011000000000000000000000000000000000000000001100000000000000000000000000000000000000000000001000000000000000000000000000000000000000000000000000000000000000000000000000000000000000000000001100001100000110000000000000000000000000000000001110000111000000000000000000000000000010000000000000000101100000000000000000000000000000000000000000000000000000000000000000000000000000000000000000000011000001100000000000000000000000000000000000000100000011111000000000000000000000000000110000000000000001010000000000000000000000000000000000000000000000000000000011000000000000000000000000000000000000000000000000000000000000000000000000000000000001000100100100000000000000000000000000010110000000000000001100000000000000000000000000000000000011100000000000000001001000000000000000000000000000000000000000000000000000000000000000000000000000000000000001000110000000000000000000000000001100000000000000000100000000000000000000000000000000000000000000000000000000010010000000000000000000001000000000000000000000000000000000000000000000000000000000000010010000000000000000000000000000000011100000000000000111000000000000000000000000000000000000000110000110000000000011000000000000000000000111000000000000000110000000000000000000000000000000000000000000011000000000000000000000000000001100000000000000000001010000000000000000000000000000000000000000000001100000000000000000000000000000000001001000000000000000000000000000000000000000000000000000000000000000000000000001100000000000000011000000000000000000011100000000000000000000000000000000000000000000000000000000000000000000000000000000001110000000000000000000000000000000000000000100000000000000000000000000000000100100000000000000000000000000000000000000000000000000000000000000000000000000000000000000000000000000000000000000000000000001000000000000000000000000000000000000000101000000000000000000000000000000000110000000000000000000000000000000000000000000000000000000000000000000000000000000000000000000000000000000000000000000000000000000000000000000000000000000000000000011000000000000000000000000000000000000000000000000000000000000000000000000000000000000000000000000000000000000000000000000000000000000000000000000000000000000000000000000000000000000000000000000000000011000000000000000000000000000000000000000000000000000000000000000000000000000000000000000000000000000000000000000000000000000000000000000000000000000000000000000000000000000000000000000000000000000000000000000000000000000000000000000000000000000000000000000000000000000000000000000000000000000000000000000000000000000000000000000110000000000000000000000000000000000000000000000000000000000000000000000000000000000000000000000000000000000000000001000000000000000000000000000000000000000000000000000000000000000000000000000000000010010000000000000000000000000000000000000000000000000000000000000000000000000011000000000000000000110000000000000000100000000000000000000000000000000000000000000000000000000000000000000000000000000000011000000000000000000000000000000000000000000000000000000000000000000000000000110000000000000000010010000000000000000100000000000000000000000000000000000000000000000000000000000000000000000000000000000000000000000000000000000000000000000000000000000000000000000000000000000000010000000000000000000011000000000000000000000000000000000000000000000000000000000000000000000000000000000000000000000000000000000000000000000000000000000000000000000000000000000000000000000000000000000011000000000000000000000000000000000000000000000000000000000000010000000000000000000000000000000000000000000000000000000000000000000000000000000000000000000000000000000000000000000000000000000000000000110000000000000000000000000000000000000000000000000000000000001010000000000000000000000000000000000000000000000000000000000000000000000000000000000000000000000000000000000000000000000000000000000000000000000000000000000000000000010000000000000000000000000000000010100000000000000000000000000000000000000000000000000000000000000000000000000000000000000000000000000000000000100000000000000000000000000000000000000000000000000000000100000000000000000000000000000000010000000000000000000000000000000000000000000000000000000000000000000000000000000000000000000000000000000000110100000000000000000000000000000000000000000000000000000000000000000000000001100000000000000000000000001000000000000001010000001000000000000000000000000000000000000000000000000000000000000000000000010001000000000000000000000000000000000000000000000000000000000000000000000000011000000000000000000000001101000000000000001000000101000000000000000000000000000000000000000000000000000000000000000000000111000000000000000000000000000000000000000000000000000000000000000000000000000000000000000000000000000001010000000000000000000000100000000000000000000000000000000000000000000000000000000000000000000000000000000000000000000000000000000000001000000000000000000000000000000000000000000000000000000000000000001000000000000000000000000000000000000000000000000000000000000000000000000000000000000000000000000000000000000000000000000000000000001100000000000000000000000000000000000000000000000000000000000000000000000000000000000000000000000000000000000000000000000000000000000000000000000000000000000000000000000000010000000000000000000000000001100000000000000000000000000000000000000000000000000000000000000000000000000000000000001000000000000000000000000000000000000000000000000000000000000000000000000000000000000100001100000000000000000000000000011000000000000000000000000000000000000000000000000000000000000000000000000000001100011000000000000000000000000000000000000000000000000000000000000000000000000000000001000100100000000000000000000000000110000000000000000000000000000000000000000000000000000000000000000000000000000010000110000000000000000000000000000000000000000000000000000000000000000000000000000000000000110000000000000000000000000000000000000000000000000000000000000000000000000000000000000000000000000000000000100110000000000000000000000000000000000000000000000000011000000000000000000000000000000000000000000000000000111000000000000000000000000000000000000000000000000000000000000000000000000000000000000000000101100000000000000000000000000000000000000001000000001001000000000000000000000000000000000000000000000000000000000010000000000000000000000000000000000000000000000000000000000000000000000000000000011100100000000000000000000000000000000000000000101000000010000000000000000000000000000000000000000000000000000000000011010000000000000000000000000000000000000000000000000000000000000000000000000000000000000000000000000000000000000000000000000000010010000000011100000000000000000000000000010000000000000000000000000000011000000000000000000000000000000000000000000000000000000000000000000000000000000000000000000000010001001000000000000000000000000011000000000000000000000000000000000000000100000000000000000000000000000010000000000000000000000000000000000000000000000000000000000000000000000000110000000000000000001010000011000000000000000000000000000000000000000000000000000000000000000001000000000000000000000000000000000000000000000000000000000000000000000000000000000000000000000000000000000000000000000000000000000100001000000000000000000000000000000001000000000000000000000011000000000000000000000000000000000000000000000000000000000000000000000000000000000000000000000000000000000000000000000000000000000000111000011100000000000000000000000000000000101000000000000000000000110000000000000000000000000000000001100000000000000000000000000000000000000000000000000000000000000100000000000000000000000000000000000000000010000000000000000000000000000000000110000000000000000000000110000000000000000000000000000000100100000000000000000000000000000000000000000110000000000000000001000000000000000000000000000000000000000000000000000000000000000000000000000000000000000000000000000010110000000000000000000000000000000110000000000000000000000000000000000000000010010000000000000000101000000000000000000000000000000000000000000000000000000000000000000000011000000000000000000000000000010100000000000000000000000000000000000000000000000000000000000000000000000000010100000000000000000100000000000000000000000000000000000000000000000000000000000000000000001001000000000000000000000000000111000000000000000000000000000000000000000000000000000000000000000000000000000010000000000000000001000000000000000000000000000000000000000000000000000000000000000000000011100000000000000000000000000000000000000000000000000000000000000000000000000000000000000000000000000000000000000000000000000010000000000000000000000011100000000000000000000000000000000000000000000000011000000000000000000000000000100000000000000000000000000000000000000000000000000000000000000000000000000000000000000000000011110000000000000000000000000000000000000000000000000000110000000000000000000000000000000000000000000000001000001000000000000000000000000000000000000000000000000000000000000000000000000000000000000011100110000000000000000000001010000000000000000000000000001100000000000000000000000000000000000000000000000010000101000000000000000000000000000000000000000000000000000000000000000000000000000000000001000110000000000000000000000001000000000000000000000000000000000000000000000000000000000000000000000000000000000001001000000000000000000000000000000000000000000000001000000000000000000000000000000000010010000000000000000000000000000000000000000000000000000000000000000000000000000000000000000000000000000000000000001100000000000000000000000000000000000000000000000101000000000000000000000000000000000011100000000000000000000000000000000000000000000000000000000000000000000000000000000000000000000000000000000000000000000000000000000000000000000000000000000000000001001000000000000000000000000000000000000000000000000000000000000000000000000000000000000000000000000000000000000000000000000000000000000000000000000000000000000000000000000000000000000000000000000000010100000000000000000000000000000000000000000000000000000000000000000000000000000000000000000000000000000000000000000000000000000000000000000000000000000000000000000000000000000000000000000000000000000000000000000000000000000000000000000000000000000000000000000000000000000000000000000000000000000000000000000000000000000000000000000000000000000000000000000000000000000000000000000000000000000000000000000000000000000000000000000000000000000000000000000000000000000000000000000000000000000000000000000000000000000000000000000000000000000011000000000000000000000000000000000000000001100000000000000000000000000000000000000000000000000000000000000000000000000000000000000001000000000000000000000000000000000000000000000000000000000000000001110000000000000000000000000000000000000001111000000000000000000000000000000000000111000000000000000000000000000000000000000000000000100100000000000000000000000000000000000000000000000000000000000000001100000000000000000000100000000000000001000100000000000000010000000000000000000000000000000000000000000000100000000000000000000000000100100000000000000010000000000000000000011000000000000000000000000000000000000000000000010100000000000000010100000000000000001010000000000000000000000000000000000000000000001000000000000000000000000001001000000000000000110000000000000110000110000000000000000000000000000000000000000000000101000000000000001001000000000000000010100000000000000000000000000000000000000000000010000100000000000000000000000110000000000000000010000000000001100000000000000000000000000000000000000000000000000000100000000000000001100000000000000000010000000000000000000000000000000000000001110000000011000000000000000000000000000000000000000011000000000000000000000000000000000000000000000000000000000000000000000000000000000000000000000000000000000000000000000000000000000000000000000000010100000000100000000000000000000000000000000000000000100000000000000000000000000000000000000000000000000001100000000000000000000001100000000000000000000000000000000000001000000000000000000000000000000111000000000000000000000000000000000000000000000000000000000000000000000000000000000000000000000011100000000000000000000000000000011000000000000000000000000000000000000100000000000000000000000000000000000000000000000000000000000000000000000000000110000000000000000000000011000000000000000000000000010000000000000000000000000000000000000000000000000000000000000000000001000000000000000000000000000000000000000000000000000000000000000000000000000001100000000000000000000000101000000000000000000000000000000000000000000000000000000000000000000000000000000000000000000000000000000000000000000000000000000000000000000000000000000000000000000000000000000000000000000000000000001110000000000000000000000000000000000000000000000000000000000000000001110000000000000000000000000000000000000000000000000000000000000000000000000000000000000000000000000000000000000000000000000000000000000000000000000000000000000000000000000000000000000000000000000000001000000000000000000000000000000000000000000000000000000000000000000000000000000000000000000000000000000000000000000000000000000000000000000000000000000000000000000000000000000000000000000000000000000100000000000000000000000000000000000000000000000000000000000000000000000000000000000000000000000000000000000000000000000000000000000000000000000000000000000000000000000000000000000000000000000000000011100000000000000000000000000000000000000000000000010000000000000000000000000000000001100000000000000000000000000000000000000000000000000010000000000000000000000000000000000000000000000000000000000000000000000001000000000000000000000000000000000000001010000000000000000000000000000000011000000000000000000000000000000000000000000000000001010000000000000000000000000000000000000000000000000000000000001100000000001000000000000000000000000000000000000010100000000000000000000000000000000000000000000000000000000000000000000000000000000000101000000000000000000000000000000000000000000000000000000000000000000000000100000000000000000000100000000000000000010000000000000000000000000000000000000000000001100000000000000000000000000000000000110100000000000000000000000000000000000000000000000000000000000000000000000000000000000000000000101000000000000000000000000000000000000000000000000000000000000000011000000000000000000000000000000000000110000000000000000000000000000000000000000000000000000000000000000000000000000000000000000000000110000000000000000000000000000000000000000000000000000000000000000000000000000000001110000000000000000000100000000000000000000000000000000000000000000000000000000000000000000000000000000000000000000000000000000000000000000000000000000000000000000000000001110000000000000000010000000011100000000000000000000000000000000000000000000000000000000000000000000000000000000000000000000000000000000000000011000000000000000000000000000000000000000000000000000000010011000000000000001101000000000000000000000000000000000000000000000000000010000000000000000000000000000000000000000000000000000000000000000000100000000000000000000000000000000000000000000000000000001001100100000000000001010000000000000000000000000000000000000000000000000000100000000000000000000000000111000000000000000000000000000000000000000100000000000000000000000000000000000000000000000000000011001101000000000000001000000000000000000000000000000000000000000000000000000000000000000000000000000001100000000000000000000000000000000000000001100000000000000000000000000000000000000000000000000000110000100000000000000000000000000000000000000000000000000000000000000000000000000000000000000000000000000100000000000000000000000000000100000000000000000000000000000000000000000000000000000000000000000000000000000000000000000000000000000000000000000000000000000000010000000000000000000000000000000001100000000000000000000000000000000010100000000001000000000000000000000000000000000000001100000011000000000000000000000000000000000000000000000000000000000000000000001010000000000000000000000000000000011000000000000000000000000011000000101000011000001000000000000000000000000000000000000011000001010000000000000000000000000000000000000000000000000111000000000000000001000000000000000000000000000000000000000000000000000000000000110000000100001001000110000000000000000000000000000000000000000000011100000000000000000000000000000000000000000000000000000000000000000000111000000000000000000000000000000000000000000000000000000000000000000000000001100001100000000000000000000000000001000000000000000000000000000000000000000000000000000000000000000000000000000000000000001100000000000000000000000000000000000000000000000000000000000000000000000000000000000000000000000000000000000000101000000000000000000000000000000000000000000000000000000000000000000000000000000000000011000000000000000000000000000000000000000000000000000000000000000000000000000000000000000000000000000000000000011011100000000000000000000000000000000000000000000000110000000000000000000000000000000000000000000000000000000000000000000000000000000000000000000000000000000000000000000000000000000000000000000000000001001000000000000000000000000000000000000000000000010010000000000111000000000000000000000000000000000000000000000000000000000000000000000000000000000000000000000000000001000000000000000000000000000000011010000000000000000000000000000000000000000000000101000000000001100000000000000000000000000000000000000000000000000000000000000001110000000000000000000000000000000000101000000000000000000000000000000011000000000000000000000000000000000000000000000000100000000000000100000000000000000110000000000000000000000000000000000000000000000000000000000000000000000000000000000100000000000000000000000000000000000000000000000000000000000000000000000000000000000000000000000000000000000000000001100000000000000000001000000000000000000000000000000000000000000000000000000000000000000000000000000000000000000000000000000000000000000000000000000000000000000000000000000000000000000000000001110000000000000000000000000010010000000000000000000000000000000000000000000000000000000000000000000000000000000000000000000000000000000000000000000000000000000000000000000000000000001100000000000000000000000000000000000000000111000010000000000000000000000000000000000000000000000000000000000000000000000000000000000000000000000000110000000000000000000000000000000000000000000000000100100000000000000000000000000000000000000001111101000000100000000000000000000000000000000000000000000000000000000000000000000000000000000000000000010010000000000000000000000000000000000000000000000001010000000000000000000000000000000000000000010010010000010100000000000000000000000000000000000000000000000000000000000000000000000000000000000000000011000000000000000000000000000000000000000001000000001000000000000000000000000000000000000000000000010000000101000000000000000000000000000000000000000000000000000000000000000000000000000110000000000000000000000000000000000000000000000000000000101000000000000000000000000000000000000000000000000000000011000000100000000000000000000000000000000000000000000000000000000000000000000000000010010000000000000000000000000110000000000000000000000000000110000000000000000000000000000000000000000000000000000000000000000000000000000000011000000000000000000000000000000000000000000000000000000000100100000000000000000000000010100000000000000000000000000000000000000000000000000000000000001110000000000000000000000000000000000000000000000110000000000100000000000000000000000000000000000111000000000110000000000000000000000000010000000000000000000000000000000000000000000000000000000000000000000110000000000000000000000000000000000000000000000000000010010000000000000000000000000000000001010000000000000000000000000000000000000000000000000000000000000000000000000000000000000000000000000000000010010000000000000000000000000000000000000000000000000000010100000000000000000000000000000000011000000000000000000000000000000000000000000000000000000000000000000000000000000000000000000000000000000000101000001000000000000000000000000000000000000000000000000010000000000000000000000000000000000000000000000000000000000000000000000000000000000000000000000000000000000000000000000000000000000000000000000100000010000000000000000000000000000000000000000000000000000000000000100000000000000000000000000000000000000000000000000000000000000000000000000000000000000000000000000000000000000000000000000000011000000000000000000000000000000000000000000000000000000000000000000000100100000000000000000000000000000001100000000000000000000000000011000000000000000001010000000000000000000000000000000000000000000110000000000000000000000000000000000000000000000000000000000000000000001010000000000000000000000000000000100100000000000000100000000000010000000000000000011100000000000000000000000000000000000000000000000000000000000000000000000000000000000000000000000000000000000000000001000000011000000000000000000000000101000000000000010100000000000000000000000000000111000000000000000000000000000000000000000000000000000000110000000000000000000000000100000000000000000000000000000000000000001001000000000000000000000000100000000000010001100000000000000000000000000000000000000000000000000000000000000000110000000000000000010010000000000000000000000001000000000000000000000000000000000000000001100000000000000000000000000000000000001100010000000000000000000000000000000000000000000000000000000000000000000000000000000000000000000000000000000000000000010000000000000000000000000000000000000000001000000000000000000000000000000000000010000000000000000000000000000000000000000000000000000000000000000000000000000000000011000001000100000000000000000000000000000000000000000000000000000000000000000000000000000000000000000000000000000000010010000000000000000000000001100000000000000000000000000000111000000000000000000001001110000000100000000000000000000000000000000000000000000000000000000000000000000000000000000000000000000000000000000111000000000000000000000011000000000000000000000000000000001100001100000000000000010001010001010000000000000000000000000000000000000000000000000000000000000000000000000000000000000110000000000000000000000000000000000000000000100001100000000000000000000000000000100011000000000000000101110100001000000000000000000000000000000000000000000000000000000000000000000000000000000000000010010000000000000000000000000000000000000000001000001000000000000000000000000100000000000000000000000000000000000000000000000000100000000000000000000001000000001000000000000000000000000000000000000000100100110001100000000000000010000000000000000001000000000000000000000000000001000000000000000000000000000000000000000000000000001000000000000000000000111000001101100000000000000000000000000000000000000110001100100100000000000001010000000000000000000001000000000000000000000000000000000000000000000000001000000000000000000000000000000000000000000000001001000000000000000000000000000000000000000000000000000000000101000000001100010100000000000000000011010000000000000000001000000000000000000000000000000101000000000000000000000000000000000000000000000000111001000001000000000000000000000000000000000000000000000000100000000011000010000000000000000000011000000000000000000101000000000000000000000000000001010000000000000000000000000000000000000000000000000010000000000000000000000000000000000000000000000000000000000000111000000000000000000000000000000010000000000000000001010000000000000000000000000000001000000000000000000000000000000000000000000000000011100011011000000000000000000000000000000000000000000000000000000001000000000000000000000000000000000000000000000000001000000000000000000000000000000000000000000000000000000000000000000000000000000000110000001000000000000000000000000000000000000000001000000000000010010000000000000000000000000000000000000000000000000000000000000000000000000000000000000000000000000000000000110000000000000000000000000000000000000000000000000000000000000000000000000010000000000000011000000000000000000000000000000000000000000000000000000000000000000000000000000000010000000000000000000000001100000000000000000000000000000000000000000000000000000000000000000000000000100000000000000000000000000000000000000000000000000000000000000000000000000000000000000000000000000100000000000000000000000000000000000000000000000000000000000000000000000000000011000000000000000000000000000000000000000000000000000000000011000000000000000000000000000000000000000000000000000000000001000000000000000000000000000000000000000000000000000000000000000000000000000001001000000001100000000000000000000000000000000000000000000000111000000000000000000000000000000000000000000000000000000000000000000000000000000000000000000000000000000000000000000000000000000000000000010010000000101000000000000100000000000000000000000000000000001100000000000000000000000000000000000000000000000000000000000000000000000000000000000000000000000000000000000000000000000000000000110000000011000000000100000000000001000000000000000000000001100000000000000000000000000000000000000000000000000000000000000000000000000000000000000000000000000001100000000000000000000000000000000000010010000000000000000000000000000000000000000000000000000000100100000000000000000000000000000000000000000000000000000000000000000000000000000000000000110000000000100100000000110000000000000000000000000100100000000000000000000000000000100000000000000000000000000110000000000000000000000000000000000000000000000000000000000000000000000000000000000000001100000000000110000000000000000000000000000000000000110000000000000000001000000000010100000000000000000000000001000000000000000000000000000000000000000000000000000000000000000000000000000000000000000000000000000000000000000000000000000000000000000000010000000000000000000010000000001010000000000000000000000000000000000000000000000000000000000000000000000000000000000000000000000000000000000000000000000000000000000000000000000000000000000000000000000010000000000000000000000000000101000000000000000000000000000000000000000000000000000000000000000000000000000000000000000000000000000000000000000000000000000000000000000000000000000000000000000000000000100000000000000000000000000000100000000000000000000000000000000001100000000000000000000000000100000000000000000000000000000000000010000000000000000000000000000000000000000000000000000000000000000000000000000000000000000000000000000000000000000000000000000000000000011000000000000000000000000001000000000000000000000000000000000000100000000000000000000000000000000000000000000000000000000000000000000000000000000000000000000000000000000000000000000000000000000000000000000000000000000000000000000000000000000000000000000000000000001000000000000000000000000000001000000000000000000000000000000000000000000000000000000000000000000000000000000000000000000000000000000000000000000000000000000000000000000000000000000000000000000000000000000000000000000000000000000101000000000000000000000000000000000000110000000000000000000000000000000000000000000000000000000000000000000000000000000000000000000000000000000000000000000000000000000000000000000000000000000000000001010000000000000000000000000000000000000000000000000000000000000000000000000000000000000000000000000000000000000000000000000000000000000000000000000000000000000000000000000000000000000000000000000000001000000000000000000000000000000000000000000000000000000000000000000000000000000000000000000000000000000000000000000000000000000000000000000000000100000000000000000000011100000000000000000000000000000000000000000000000000000000000000000000000000110000000000000000000000000000000000000000000000000000000000000000000110000000000000000000000000000010100000000000000000000000000000000000000000000000000000000000000000000011000000000000000000000000001100000000000000000000000000000000000000000000000000000000000000000011100000000000000000000000011001101000000000000000000000000000000000000000000000000000000000000000000000110000111000000000000000000000000000000000000000000000000000000000000000000000000000000000001111001000000000000000000000000110011100000000000000000000000000000110000000000000000000000011000000000000000000000000000000000000000000000000000000000000000000000000000000000000000000000000000000000110000100000000000000000000000000000101000000000000000000000000000001010000000000000000000000110000000000000000000000000000000000000000000000000000000000000000000000000000000000000000000000000000000001001110000000000000000000000000000010100000000000000000000000000000001100000000000000000000000000000000000000000000000000000000000000000000000000000000000000000000000000000000000000000000000000000000001110000000000000000000000000000000101000000000000000000000000000000000000000000000000000000000000000000000000000000000000000000000000000000000000000000000000000000000000000000000000000000000000000000000000000000000000000000000000000000100000000000