P1
200 200
0000000000000000000000000000000000000000000000000000000000000000000000000000000000000000011011000000000000000000100000000000000000000000000000000000000000000000000000000000000000000000010000000000000000000000000000000000000000000000000000000000000000000000000000000000000000000000000000000110001000000000010000010100000000000000000000000000000000000000000000000000000000000000000000001010000000000000001000000000000000000000000000000000000000000000000000000000000000000000000000000000000001101011000000001010000100100000000000000000000000000000000000000000000000000000000000000000000010100000000000000010000000000000000000000000000000000000000000000000000000000000000000000000000000000000000110001000000011000000110000000000000000000000000000000000000000100000100000000000000000000000010000000100000001010000000000000000000000000000000000000000000000000000000000000000000000000000000000000000000100000000000000000000000000111000000000000000000000000000001000010100000000000000000000000000000001000000000001000000000000000000000000000000000000000000000000000000000000000000000000011000000000011100000000000000000000000000010001000000000000000000000000000010000100100000000000000000000000000110011000000001010000000000000000000000000000000000000000000000000000000000000000000000000110000000001100000000000000000000000000001000001000000000000000000000000000000000110000000000000000000000000001100000000000000100000000000000000000000000000000000000000000000000000000000000000000000000000000000000000000000000000000000000000100010001000000000000000000000000000000000000000000001100000000000000001000000000010100000000000000000000000000000000000000000000000000000000000000000000000000000000000000000000000000000000000000000001001010010000000000000000000000000000000000000000000011000000000000000001111000000010000000000000000000000000000000000000000000000000000000000000000000000000000000000000000000000000000000000000000000010001000100000000000000000000000000000000000000000000000000000000000000001100000000100000000000000000000000000000000000000000000000000000000000000000000000000000000000000000000000000000000000000000000010000010000000000000000000000000000000000000000000000000000000000000000001000000000000000000000000000000000000000000000000000000000000000000000000000000000000000000000000000000000000000000000000000000010001000000000000000000000000000000000000000000000000000000000000000000000000000000000000000000000000000000000000000000000000000000000000000000000000000000000000000000000000000000000000000000000000000011100000000000000000000000000000000000000000000000000000000000000000000000000000000000000000000000000000000000000000000000000000000000000000000000000000000000011100000000000000000000000000000000000000000000000000000000000000000000000000000000000000000000000000000000000000000000000000000000000000000000000000000000000000000000000000000110000000000000000000000000000000000000000000000000000000000000000000000000000000000000000000000000000000000000000000000000000000000110000000000000000000000000000000000000000000000000000000000000000010010000000000000000000100000100000000000000000000000000000000000000000000000000000000000000000000000000000000000000000000000000000010100000000000000000000000000000000000000000000000000000000000000000101000000000000000000001000001000000000000000000000000000000000000000000000000000000000000000000000000000000000000001000000000000000010110000000000000000000000000000000000000000000000000000000000000000100000000000000000000010000010000000000000000000000000000000000000000000000000000000000000000000000000000000000000010000000000000000100110000000000000000000000000000000000000000000000000000000000000000000000000000000000000000000000000000000000000000000000000000000000000000000000000000000000000000000000000000000000010000000000000001000110000000000000000000000000000000000000000000000000000000000000000000000000000000000000011100000000000000000000000000000000000000000000000000000000000000000000000000000000000000000010110000000000000011000000000000000000000000000000000000000000000000000000000000000000000000000000000000000000000000000000000000000000000000000000000000000000000000000000000000000000000000000000001000001100000000000000000000000000000000000000000000000000000000000000000000000000000000000000000000000000000000000000000000000000000000000000000000000000000000000000000000000000000000000000000000000110000101000100000000000000000000000000000000000000000000000000000000000000000000000000000000000000000000000000000000000000000000000000000000000000000000000000000000000000000000000000000000000000000001000000000001100000000000000000000000000000000000000000000000000000000000000000000000000000000000000000000000000000000000000000000000000000000000000000000000000000000000000000000000000000000000000000001010000000000000000000000000000000000000000000000000110000000000000110000000000000000000000000000000000000000000000000000000000000000000000000000000000000000000000000000000000000000000000000000000000001000000000000000000000000000000000000000000000000000000000000000010010000000000000000000000000000000000000000000000000000000000000000000000000000000000000000000000000000000000001000000000000000000000000000101000000000000000000010000000000000000000000000000000000000100100000000000000000000000000000000000000000000010000000000000000000000000000000000000000000000000000000000001111000000000000000000000000111110000000000000000001010000000000000000000000000000000000000110000000000000000000000000000000000000000000001010000000000000000000000000000000000000000000000000000000000000001000000000000000000000001111000000000000000000010100000000000000000000000000000000000000000000000000000000000000000000000000000001000100010000000000000000000000000000001000000000000000000000000011000011000000000000000000001001000000000000000000000010000000000000000000000000000000000110000000000000000000000000000000000000000000101000101000000000000000000000000000000101000000000000000000000000100000110000000000000000000010000000000000000000000000000000000000000000000000000000000001100000000000000000000000000000000000000000010010000100000000000000000000000000000001010000000000000000000000001000000111000010000000000000100100000000000000000000000000000000000000000000000000000000000000000000011000000000000000000000000000000011000000000000000000000000010000000000001000000000000000000000000000001001001011011000000000000000101000000000000000000000000000000000000000001100000000000000000000001001000000000000000000000000000000000000000000000000000000011110000000000000000000000000000000000000011010100110110000000000000000000100000000000000000000000000010000000000000000000000000000000000000010100000000000000000000000000000000000000000000000011000000100010000000000000000000000000000000000000010100100000100010000000000001000000000000000000000000000001010000000000000000000000000000000000000010000000000000000000000000000000000000000000000001001000000010110000000000000000000000000000000000000100100000010000000000000000010000000000000000000000000000010010000000000000000000000000000000000000000000000000000000000000000000000000000000000000001100000001000000000000000000000000000000000000000001110000000101000000000000000100000000000000000000010000000011000000000000000000000000000000000000000000000000000000000000000000000000000000000000000000000000100000100000000000000000000000000000000000010010000100000110000000000000000000000000000000001110000000000000000000000000000000000000000000000000011000000000000000000000111000000000000000000000000000011011001000000000000000000000000000000000001111000001010000000000000000000000010000000000000110100000000000000000000000000000000000000000000000000110000000000000000000000000000000000000000000000000000010100011000000000000000000000000000000000010101000000100000000000000000000000100000000000000001100000000000000000000000000000000000000000000000000000000000000000000000000000000000000000000000000000000000001100000000000000000000000000000000001100000000000000000000000000000000001000000000000000011000000000000000000000000000000000000000010000000000000000000000000000000000000000000000000000000000000000000000000000000000000000000000000000000001100000000000000000000000000000000000000000000000000110000000000000000000000000000000000000001010000000000000000000000000000000000000000000000000000000000000000000000000000000000000000000000000000000000000000000000000000000100010000000000000000000001000000000000000000000000000000000000000000010010000000000000000000000000000000000000000000000000000000000000000000000000000000000000000000000000000000000000000000000000000010111000000000000000000000011000000000000000000000000000000000000011000011000000000000000000000000000000000000000000000000000000001110000000000000000000000000000000000000000000000000000000000000000000010100000000000000000000000010100000000000000000000111000000000000110000000000000000000000000000000000000000000000000000000000000000000000000000000000000000000000000000000000000000000000000000000000000110000000000000000000000000100100000000000000000010010000000000000000000000000000000000000000000000000000000000000000000000000000000000000000000000000000000000000000000000000000000000000000000000000001000000000000000000000000000110000000000000000000100010000000000000000000000000000000000000000000000000000000000000000000000000000000000000000000000000000000000000000000000000000000000000000000000000100000000000000000000000000000000000000000000000001000100000000000000000000000000000000000000000000000000000000000000000000000000000000000000000000000000000000000000000011100000000000000000000000000000000000000000000000000000000000000000000000000000001000000000000000000000000000000000000000000000000000000000000000000000000000000000000000000000000000000000000000000001000100000000000000000000000000000000000000000000000000000000000000000000000000000001011111000000000000000000000000000000000000000000000000000000000000000000000001110000000000000000000100000000000000010001000000000000000000000000000000000000000000000000000000000000000000000000000000000000010000000000000000000000000000000000000000000000000000000000000000000000000000000000000000000010100000000000011011101100000000000000000000000000000000000000000000000000000000000000000000000000000001111001000000000000000000000000000000000000000000000000000000000000000000000000000000000000000000100100000000001010000010100000000000000000000000000000000000000000000000000000000000000000000000000000000011010000000000000000000000000000000110000000000000000000000100000000000000000000000000000110000110000000000010000000001000000000000000000000000000000000000000000000000000000000000000000000000000000111100000000000000000000110000000000001100000000000000000000001100000000000000000000000000001100000000000000000110100010110000000000000000000000000000000000000000000000000000000000000000000000000000010001101100000000000000001100000000000000000000000000000000000101000000000000000000000000000000000000000000000000011000110000000000000000000000000000000000000000000000000000000000000000000000000000000010101010000000000000000000000000000000000000000000000000011000000000000000000000000010000000000000000000111000000000000000000000000000000000000000000000000000000000000000000000000000000000000000000000010000000000000000000000000000000000000000000000000000000110000000000000000000000000100000000000000000000001000000000000000000000000000000000000000000000000000000000000000000000000000000000000000000000000000000000000000000000110000011000000000000000000000000000000000010000000000000001000000000000000000100010000000000000000110000000000000000000000000000000000000000000000000000000000000000000000000000000000000000000001100010010000110000000000000000000000000000000001011000000000000000000000000000000001011110000000000000001100000000000000000000000000000000000000000000000000000000000000000000000000000011100000000000011000010100000000000000000000000000000000000000100010000000000000000000000000000000000000110000000000000000000000000000000000000000000000000000000000000000000000011000000000000000000001000100000000000000000010000000000000000000000000000000000000000110110000000000000000000000000000000000001100000000000000000000000000000000000000000000000000000000000000000000001001000000000000000000000000000000000000000000000000000000000000000000000000000000000000000010000000000000000000000000000000000000000000000000100000000000000000000000000000000000000000000000000000000010010000000000000000000010100000000000000000000000000000000000000000000000000000000000000000110000000000000000000000000000000000000000000001110110000000000000000000000000000000000000000000110000000000011000000000000000000001001000000000000000000000000000000000000000000000000000000000000000011000000000000000000000000001100000000000000000101011100000000000000000000000000000000000000000001100000000000000000000000000000000110000110000000000000000000000000000000000000000000000000000000000000000000000001100000000000000011000000000000000000000100100000000000000000000000000000000000000000000000000000000000000000000000000000001001000000000000000000000000000000000000000000000000000000000000000000000000100100000000000000000000000000000000000110100000000000000000000000000000000000000000000000000000000000000000000000000000000010100000000000000000000000000000000000000000000000000000000000000000000000000110000000000000000000000000000000000010010000000000000000000000000000000000000000000000000000000000000000000000000000000000000000000000000000000000000000000000011100000000000000000000000000000000000000000000000000000000000000000000000000010100000000000000000000000000000000000000000000000000000000000000000000000000000000010001000000000000000000000000000000000000000000010000000000000000000000000000000000000000000000000000000000000000000111000000000000000000000000000000000000000000000000000000000000000000000000000000000011100000000000000000000000000000000000000000001110000000000000000000000000000000000000000000000000000000000000000000000000000000000000000000000000000000000000000000000000110000000000000000000000000000000000000000000000000000000000000000000000000110010000000000000000000000000000000000000000000000000000000000000000000000000000000000000000000000000000000000000000000000010010000000000000000000000000000000000000000000000000000000000000000000000010001100000000000000000110000000000000000000000000000000000000000000000000000000000000000000000000000000000000000000000000000011000000000000000000000000000000000000000000000000000000000000000000000001100000000000000000000010010000000000000000000000000000000000000000000000000000000000000000000000000000000000000000000000000000000000000000000000000000000000000000000000000000000000000000000000000000111000000000000000000000011000000000000000000000000000000000000000000000000000000000000000000000000000000000000000000000000000000000000000000000000000000000000000000000000000001000000000000000000000000110000000000000000000000000000000000000000000000000000000000000000010000000000000000000000000000000000000000000000000000000000000000000000000000000000000000000000000000000001001000000000000000000000000100011000000000000000000000000000000000000000000000000000000000001010000000000000000000000000000000000000000000000000000000000000000000000000000000000000000000000000000000010001000000000000000000000000110010000000000000000000000000000000000000000000000000000000000010100000000000000000000000000000000000000000000000000000000000000000000000000000000000000000000000000000001100010000000000000000000000000111000000000000000000000000000000000000000000000000000000000000010000000000000000000000000000000000000000000000000000000000000000000000000000000000000000000000000000000110011000000000000000000000000000100000000000000000000000000000000000000000000001100000000000000000000000000010000000000000000000001000000000000000000000000000000000000000000000000000000000000000000001111000000000000000000000000000000000000000000000000000000000000000000000000000011000000000000000000000000001100000000000000000000101000000000000000000000000000000000000000000000000000000000000000000001010000000000000000000000000000000000000000000000000000000000000000000000000000000000000000000000000000000000000000000000000000000100000000000000000000000000000000000000000000000000000000000000000000001000000000000000000000000000000000000000000000000000000000000000000000000000000000000000000000000000000100100000000000000000000000000000000000000000000000000000000000000000000000000000000000000000000000000000000000000000000000000000000000000000000000000000000000000000000000000000000000000000000000000001001000000000000000001110000000000000000000000000000000000000000000000000000000000000000000000000000000000000000000000000000000000000100000000000000000000000000000000000000000000000000000000000000000011100000000000000000000000000000000000000000000000000000000000000000000000011100000000000000000000000000001110001100000000000000000010000000011000000000000000000000000000000000000000000000000000000000000000000000000000001000100000000000000000000000000000000000000000000000000100100000000000000000000000000000000100100000000000000000111000000110000000000000000000000000000000000000000000000000000000000000000000000000000010001000000000000000000000000000000000000000000000000001011000000000000000000000000000000000110000000000000001000000000000000000000000000000000000000000000000000000000000000000000000000000000000000000000000000000000000000000000000000000000000000000000001100000000000000000000000000000000000000000000000000000010000000000000000000000000000000000000000000000000000000000000000000000000000000000000000000111000000000000000000000000000000000000000001000000011000000000000000000000000000000000000000000000000000000100000110000000000000000000000000000000000000000000000000000000000000000000000000000000000000000000000000000000000000000000000000000000101000001001000000000000000000000000000000000000000000000000000000000010010000000000000000000000000000000000000000000000000000000000000000000000000000000000000000000011100000000000000000000000000000010010000001100000000000000000000000000000000000000000000000000000000000100100000000000000000000000000000000000000000000000000000000000000000000000000000000000000000000000000110100000000000000000000000011000000000000000000000000000000000000001110000000000000000000000000000110000000000000000000000000000000000000000000000000000000000000000000000000000000000000000000100000110001100000000000000000000000000000000000000000000000000000000000000000000000000000000000000000000000000000000000000000000000000000000000000000000000000000000010000000000000000000000000000000001000001100000010000000000000000000000000000001000000000000000000000000000000000000000000000000000000000000000000000000000000000000000000000000000000000000000000000001010000000000000000000000000000000010000010011100010000000000000000000000000000101000000000000000000000000000000000000000000000000000000001100000000000000000000000000000000000000000000000000000000000100000000000000000000000000000000000000000000001001000000000000000000000000000000110000000000000000000000000000000000000000000000000000000100100000000000000000000000000000000000000000110000000000000011001100000000000000000000000000000000011100000011000000000000000000000000011100000000000000000000000000000000000000000000000000000000000000110000000000000000000000000000000000000000010010000000000000000110000000000000000000000000000000000000000000010000000000000000000000000111010000000000000000000000000000000000000000000000000000000000000000000000000000000000000000000000000000000010100000000000001110111000000000000000000111000000000000000000011000000000000000000000000000000010000000000000000000000000000000000000000000000000000000000000000000000000000000000000000000000000000000010000000000000000100110000000000000000000000000000000000000000000000000000000000000000000000000110000000000000000000000000000000000000000000000000000000000000000000000000000000000000000000000000000000000000000000000000101000000000000000001000001000000000000000000000000000000000000000000000000011000000000000000000000000000000000000000000000000000000000000000000000000000000000000000000000000000000000000000000000000100000000000000000000010000010000000000000000000000000110000000000000000000000100000000000000000000000000000001000000000000000000000000000000000000000000000000000000000000000000000000000000000001110001011000000000000000000100000100000000000000000000000001100000000000000000000000000000000000000000000000000000101000000000000000000000000000000000000000000000001110000000000000000000000000000000100100001000000000000000000000000000000000000000000000000000000000000000000000000000000000000000000000000000000000001001000000000000000000000000000000000000000000000000000000000000000000000000000000001000100000000000000000000000000111000000000000000000000000000000000000000000000000000000000000000000000000000000000001100000000000000000000000000000000000000000000000000000000000000000000000000000000000000100000000000000000000000000000000000000000000000000000000000000000000000000000000000000000000000000000000000000000000000000000000000000000000000000000000000000000000000000000000000000000000000000001001000000000000000000000000000000000000000000000000000000000000000000000000000000000000000000000000010000000000000000000000000000000000000000000000000000000000000000000000000000000000000000000000000001100000000000000000000000000000000000000000000000000000000000000000000000000000000000000000000000000100000000000000000000000000000000000000000000000000000000000000000000000000000000000000000000000000000000000000000000000000000000000000000000000000000000000000000000000000000000000000000000000000000001000000000000000000000000000000000000000011000000000000000000000000000000000000000000000000000000000000000000000000000000000000000000000000000000000000000000000000000000000000000000000000000000000000000000000000000000000000000000000000000010000100000000000000000000000000000000000001000000000000000000000000000000000000000000000000000000000000000000000111000000000000000000000000000000000000000001110001110000000000000000000000000000000000100001000000000000000000000000000000000000010000000000000000000000000000000000000000000000000000010000000000000010001000000000000000000000000000000000000000000000000000000000000000000100000000000000010001010000000000000010000000000000000000000100000000000000000000000000000000000000000000000000001110000000000000110001000000000000000011000000000000000000000000010000000000000000000010100000000000001001000000000000000001010000000000000000000000000000000000000011100011100000000000000000000000000011010000000000000000001000000000110000110000000000000000000000000100000000000000000000101000000000000010010000000000000000010100000000000000000000000000000000000000000000000001100000000000000000000001100110000000000000010010000000001100000000000000000000000000011011000000000000000000000100000000000000011000000000000000000010000000000000000000000000000000000000100000100000100100000000000000000000001111000000000000000000100000000000000000000000000000000000000000000000000000000000000000000000000000000000000000000000000000000000000000000000000000000000000000001000001000000110000000000000000000000011100000000000001100010000000000000000000000000000000000000100000100000000000000000000000000001100000000010000000000000000000000000000000000000000000000000000000010000010000000000000000000000000000000000000000000000010001000000000000000000000000000000000000001000001000000000000000000000000000011000000001110000000000000000000000000000000000000000000000000000000000000000000000000000000000000000000000000000000110000011100000000000000011000000000000000000000010000010000000000000000000000000000000000000110111000000000000000000000000000000000000000000000000000000011100000000000000000000000000000000000000000001100000000000000000000001001000000000000000000000000000000000000000000000000000000000000000011001110000000000000000000000000000000000000000000000000000000000000000000000000000000000000000000000000000000000000000000000000000001010000000000000000000000011100000000000000000000000000000000000000010000000000000000000000000000000000000000000000000000000000000000000000000000000000000000000000000000000000000000000000000000000000001000000000000000000000000000000000000000000000000000000000000000000010010000000000000000000000000000000000000000000000000000000000000000000000000000000000000000000000000000000000000000000000000000000000000000000000000000000000000000000000000000000000000000000000000000011100000000000000000000000000000000000000000000000000000000000000000000000000000000000000000000000000000000000000000000000000000000000000000000000000000000000000000000000000000000000000000000000000000011000000000000000000000000000000000000000000000010000000000000000000000000000000001100000000000000000000000000000000000000000000000000000000000000000000000000000000000000000000000000000000000000000000000000000000000000000000000000000000000000000001010000000000000000000000000000000011000000000000000000000000000000000000000000000000000000000000000000000000000000000000000000000000000000000000000000000000000000000000000000000000000000000000000000010100000000000000000000000000000000000000000000000000000000000000000000000000000000000000000000000000000000000000000000000000000000000000000000000000000000000000000000000000000000000000000000000000000010000000000000000000000000000000000000000000001100000000000000000000000000000000000000000000000000000000000000000000000000000000000000000000000000000000000000000000000000000000000000000000000000000000000000000000000000000000000000000000000000000011000000000000000010000000000000000000000000000000000000000000000000000000000000000000000000000000000000000000000000000000000000000000001100000000000000000000000000000000000000000000000001100000000000000000000000000001010000000000000000000000000000000000000000000000000000000000000000000000000000000000000000000000000000000000000000000000000000000000000000000000000000000000000000000000000000000000000000001001000000010100000000000000000000000000000000000000000000000000000000000000000000000000000000000000000000000000000000000001100010010000000000000000000000000000000000000000000000000000000010000000000110011000000010000000000000000000000000000000000000000000000000000000000000000000000000000000000000000000000000000000000000100100100000000000000000000000000000000000000000000000000000000001110000000000100100000000000000000000000000000000000000000000000000000000000000000000000000000000000000000000000000000000000000000000001001001010000000000000000000000000000000000000000000000000110000101100000000000000000000000000000000000000000000000000000000000000000000000000000000000000000000000000000000000000000000000000000000000010001111000000000000000000000000000000000000000000000000001010011100000000000000000000000000000000000000000000000000000000000000000000000000000000000000000000000000000000000000000000000000000000100000000000100000000000000000000000000000000000000000000000000001000011000000000000000000000000000000000000000000000000000000000010000000000000000000000000000000001100000000000000000000000000000000010100001000001000000000000000000000000000000000000001100000011000000000000000000000000000000000000000000000000001000000000000000001110000000000000000000000000000000011000000000000000000000000011000000101000010000100000000000000000000000000000011000000011000001001000000000000000000000000000000000000000000000000010000000000000000111110000000000000000000000000000000000000000000000000000000000110000000100001000000000000000000000000000000000001101000000000000010100000000000000000000000000000000000000000000000000100000000000000011000110000000000000000000000000000000000000000000000000000000000000000000000001100000000000000000000000000000000000111000000000000010000000000000000000000000000000000000000000000000000000000000000000011111000000000000000000000000000000000000000000000000000000000000000000000000000000000000000000000000000000000000000110000000000000000000000000000000000000000000000000000000000000000000000000000000000011100000000000000000000000000000000000000000000000000000000000000000000000000000000000000000000000000000000000011111011000000000000000000000000000000000000000000000110000000000000000000000000000000000010000000000000000000000000000000000000000000000000000000000000000000000000000000000000000000000000000000000000111010101000000000000000000000000000000000000000000010010000000000000000000000000000000000000000000000000000000000000000000000000000010000000000000000000000000000000000001000000000000000000000000000000111101010000000000000000000000000000000000000000000101000000000000000000000000000000000000000000000000000000000000000000000000000000100000000000000000000000000000000000101000000000000000000000000000000010111000000000000000000000000000000000000000000000100000000000000000000000000000000110000000000000000000000000000000000000000000001000000000000000000000000000000000000100000000000000000000000000000001100100000000000000000000000000000000000000000000000000000000000000000000000010000001100000000000000000001100010000000000000000000000000000000000000000000000000000000000000000000000000000000000000000010000000000000000000000000000000000000000000000000000000000000000000000000000100000000000000000000000000011001100000000000000000000000000000000000000000000000000000000000000000000000000000000000000000111000000000000000000000000000000000000000000000000000000001100000000000000001000000000000000000000001100000000000000000000000000000000000000000000000000000000000000000000000000000000000000000000000000000000110000000000000000000000000000000000000000000000000100100000000000000000000000000000000000000011000000000000100000000000000000000000000000000000000000000000000000000000000000000000000000000000000000010010000000000000000000000000000000000000000000000001010000000000000000000000000000000000000000000000000000010100000000000000000000000000000000000000000000000000000000000000000000000000000000000000000011000000000000000000000000000000000000000001000000001000000000000000000000000000000000000000000000000000000101000000000000000000000000000000000000000000000000000000000000000000000000000110000000000000000000000000000000000000000000000000000000101000000000000000000000000000000000000000000000000000000000000000100000000000000000000000000000000000000000000000000000000000000000000000000010010000000000000000000000000110000000000000000000000000000110000000000000000000000000000000010000000000000000000000000000000000000000000000011000000000000000000000000000000000000000000000001000000000100100000000000000000000000010100000000000000000000000000000000000000000000000000000000000000100000000000000000000000000000000000000000000000110000000000000000000000000000000000000000000000101000000000110000000000000000000000000010000000000000000000000000000000000000000000000000000000000000001000110000000000000000000000000000000000000000000000000000000000000000000000000000000000000000010010000000000000000000000000000000000000000000000000000000000000000000000000000000000000000000000000000000010010000000000000000000000000000000000000000000000000000000000000000000000000000000000000000011000000000000000000000000000000000000000000000000000000000000000000000000000000000000000000000000000000000101000000000000000000000000000000000000000000000000000000000000000000000000000000000000000000000000000000000000000000000000000000000000000000000000000000000000000000000000000000000000000000000000000000100000000000000000000000000000000000000000000000000000000000000000000000000000000000000000000000000000000000000000000011000000000000000000000000000000000000000000000000000000000000000000000000000011000000000000000000000000000000000000000000000000000000000000000000000000000000000000000000000000000000001100000000000000000100000000011000000000000000010001000000000000000000000000000000000000000000110000000000000000000000000000000000000000000000000000000000000000000000000000000110000000000000000000000100100000000001100000000000000110000000000000001100011000000000000000000000000000000000000000000000000000000000000000000000000000000000000000000000000000000000000000000000001101000000000000000000000000101000000000100000001000000000000000000000000110000011000000000000000000000000000000000000000000000000000110000000000000000000000000000000000000000000000000000000000000000100000000000000000000000000000100000000001101111100000000000000000000000000110001100000000000000000000000000000000000000000000011000001100000000000000000000000011100000000000000000000000000000000000001000000000000000000000000000000000000000001100010000000000000000000000000000111110000000000000000000000000000000000000000000001000000000000000000000000000000000000000000000000000000000000000000000000011100000000000000000000000000000000000000000110000000000000000000000100000000111000000000000000000000000000000000000000000000001100000000100000000000000000000000000000000000000000000000000000000000000000000000000000000000000000000000000000000000000000000000000000000010000010000100000000000000000000000000000000000000000000000001000000010100000000000000000000000000000000011000000011100000000000000000000000000000000000000000000000000000000001100000000000000000000000010000010000000000000000000000000000000001100000000000000000011000001001000000000000000000000000000000000110000000000000000000000000000000000000000000000000110000000000000000010011000000000000000000000100100100000000000000000000000000000000011000000000000000000111000001100000000000000000000000000000000000000000100000100000000000000000000000000000000000010010000000000000000100001000000000000000000001100011000000000000000000000000000000000000000000000000000000000000000000000000000000000000000000000000000000001000001000000000000000000000000000000000000100100110001100000000000001010000000000000000000100000000000000000000000000000000000000000000000000000000000000000000000000000000000000000000000000001000000010000010000000000000000000000000000000000000110001100100100000000000001010000000000000000111010000000000000000000000000000000000000000000000000000000000000000000000000000000000000000000000000010000000001110000000000000000000000000000000000000000000000000101000000000101110100000000000000000101100000000000000000001000000000000000000000000000000000000000000000000000000000000000000000000000000000000000000000000000000000000000000000000000000000000000000000100000000001000010000000000000000000100100000000000000000101000000000000000000000000000001100000000000000000000000000000000000000000000000000000000111000000000000000000000000000000000000000000000000000000000000000000000000000000000000010001000000000000000001010000000000000000000000000000000000000000000000000000000000000000000000000000000000000100000100000000000000000000000000000000000000000000000000000000010000000000000000000000000010010000000000000000001000000000000000000000000000000000000000000000000000000000000000000000000000000000000001000001000000000000000000000000000000000000000000000000000000000000000000000000000001000000101000000000000000000000000000000000000000000000000000000000000000000000000000110000000000000000000000000000010000010000000000000000000000000000000000000111000000000000000000000000000000000000010000000000000000000000000000000000000000000000000000000000000000000000000000000000001100000000000000000000000000000000000000000000000000000000000000000000000000000000000000011010000000000000000000000100000000000000000000000000000000000000000000000000000000001110000000000000000000000000000000000000000000000000000000011100000000000000000011000000000000000000000000000000000100100000000000000000000000000000000000000000000000000000000000000000000000000000000000000000000000000000000000000000000000000000000000000000000000000000000000000001001000000001100000000000000000000000111000000000000000000111000111000000000000000000000000000000000000000000000000000000000000000000000000000000000000000000000000000000000000000000000000000000000000010010000000101000000000000000000000000000000000001100000000000000000000000000000000000000000000000000000000000000000000000000000000000000000000000000000000000000000000000000000000000000000111000000000011000000000100000000000000000000000000000000000001011000000001000000000000000000000000000000000000000000000000000000000000000000000000000000000000000001100000000000000000000000000000000001001000000000000000000000000000000000000000000000000000000000000001000000010000000000000000000000000000000000000000000000000000000000000000000000000000110000000000100100000000000000000000000000000000010010000000000000000000000000000000100000000000000000000000000000010000000100000000000000000000000000000000000000000000000000000000000000000000000000001100000000000110000000000000000000000000000000000010000000000000000000000000000000010100000000000000000000000000011100000000000000000000000000000000000000000000000000000000000000000000000000000000000000000000000000000000000000000000000000000000000000000000000000000000000000000000001010000000000000000000000000000000000000000000000000000000000000000000000000000000000000000000000000000000000000000000000000000000000000000000000000000000000000000000000010000000000000000000000000000101000000000000000000000000000000000000000000000000000000000000000000000000000000000000000000000000000000000000000000000000000000000000000000000000000000000000000000000000010000000000000000000000000000100000000000000000000000000000000001100000000000000000000000000000000000000000000000000000000000000000000000000000000000000000000000000000000000000000000000000000000000000100000000000000000000000000000000000000000000000000000000000000011000000000000000000000000000000000000000000000000000000000000001110000000000000000000000000000000000000000000000000000000000000000000000000000000000000000000000000000000000000000000000000000000000000000000000000000000000000000000000000000000000000000000000000000000000000000000000000000000000001000000000000000000000000000000000000000000000000000000000000000000000000000000000000000000000000000000000000000000000000000000000000000000000000000000000000000000000000000000000000000000000000000000101000000000000000000000000000000000000000000000000000000000000000000000000000000000000000000000000000000000000000000000000000000000000000000000000000000000000000000000000000000000000000000000000000001010000000000000000000000000000000000000000000000000000000000000000000000000000000000000000000000000000000000000000000000000000000000000000000000000000000000000000000000100000000000000000000000000000001000000000000000000000000000000000000000000000000000000000000000000000000000000000000000000000000000000000000000000000000000000000000000000000110000000000000000000000001000000000000000000000000000000000000000000000000000000000000000000000000000110000000000000000000000000000000000000000000000000000000000000000000000000000000000000000000001010100000000000000000000000010000000000000000000000000000000000000000000000011000001000000000000000000001100000000000000000000000000000000000000000000000000000000000000000000000000000000000000000000011110000000000000000000000000000000000000000000000000000000000000000000000000110000010000000000000000000000000000000000000000000000000000000000000000000000000000000000000000001100000000000000000000000000000000000000000000000000000000000110000000000000000000000011000000000000000000000100000000000000000000000000000000000000000000000000000000000000000000000000000000000001000011000000000000000000000000100000000000000000000000000000000001010000000000000000000000110000000000000000000000000000000000000000000000000000000000000000000000000000000000000000000000000000000000010000100000000000000000000000000100000000000000000000000000000000001100000000000000000000000000000000000000000000000000000000000000000000000000000000000000000000000000000000000000000000000000000000001000000000000000000000000000000100001100000000000000000000000000000000000000000000000000000000000000000000000000000000000000000000000000000000000000000000000000000000000000000000000000000000000000000000000000000000000000000000000000101111000000000