P1
200 200
0001000000000000000000000000000000000000000000000000000000000000000000000000000000000000000000000000000000000000100000000000000000000000000000000000000000000000000000000000000000000000010000000000000000100000000000000000000000000000000000000000000000000000000000000000000000000000000000000000000000000000010000010100000000000000000000000000000000000000000000000000000000000000000000001010000000000000000110000000000000000000000000000000000000000000000000000000000000000000000000000000000000000000000000001010000100100000000100000000000000000000000000000000000000000000000000000000000010100000000000000000000000000000000000000000000000000000000000000000000000000000000000000000000000000000000101000000000011000000110000000010100000000000000000000000000000000000100000000000000000000000010000000000000000100000000000000000000000000000000000000000000000000000000000000000000000000000000000000110010000000000000000000000000000101000000000000000000000000000011100010100000000000000000000000000011100000000010100000000000000000000000000000000000000000000000000000000000000000000000000011000000000000000000000000000000000000000000100000000000000000000000000000000000100100000000000000000000000000000000000000010000000000000000000000000000000000000000000000000000000000000000000000000000110000000000000000000000000000000000000000000000000000000000000000000000000000000110000000000000000000000000000000100000011010000000000000000000000000000000000000000000000000000000000000000000000000000000000000000000000000000000000000000001100000001100000000000000000000000000000000000000000001100000000000000000010100000010010000000000000000000000000000000000000000000000000000000000000000000000000000000000000000000000000000000000000000100100000100100000000000000000000000000000000000000000011000000000000000000101000000000010000000000000000000000000000000000000000000000000000000000000000000000000000000000000000000000000000000000000000110000000110000000000000000000000000000000000000000000000000000000000000000100000000100000000000000000000000000000000000000000000000000000000000000000000000000000000000000000000000000000000000000000000000000000000000000000000000000000000000000000000000000000000000000000000000000000001011000000000000000000000000000000000000000000000000000000000000000000000000000000000000000000000000000000000000000000000100000000000000000000000000000000000000000000000000000000000000001110000000000001000000000000000000000000000000000000000000000000000000000000000000000000000000100000000000000000000000000000000000000010100000000000000000000000000000000000000000000000000000000000000000100000000000000000000000000000000000000000000000000000000000000000000000000000000000000000001000000000000000000000000000000000000000101000000000000000000000000000000000000000000000000000000000011000010000100000000000000000000000000000000000000000000000000000000000000110000000000000000000000010000000000000000000000000000000000000000100000000000000000000000000000000000000000000000000000000000110000111011000000000000000000000000000000000000000000000000000000000000010010000000000000000000000000000000000000000000000000000000000000000000000000000000000000000000000000000000000000000000000000010100000001011000000000000000000000000000000000000000000000000000000000000101000000000000000000011100011100000000000000000000000000000000000000000000000000000000000000000000000000000000000000000000000101000000010000000000000000000000000000000000000000000000000000000000000000100000000000000000000000000000000000000000000000000000000000000000000000000000000000000000000000000000000000000000000000000000110000000110100000000000000000000000000000000000000000000000000000000000000000000000000000000000000100000000000000000000000000000000000000000000000000000000000000000000000000000000000000011000001100000000000000100000000000000000000000000000000000000000000000000000000000000000000000000000000000000001000000000000000000000000000000000000000000000000000000000000000000000000000000000000000110000011000000000000000000000000000000000000000000000000000000000000000000000000000000000000000000000000000000010000000000000000000000000000000000000000000000000000000000000000000000000000000000000000000000000000000000000001000000000000000000000000000000000000000000000000000000000000000000000000000000000000000000000000000000000000000000000000000000000000000000000000000000000000000000000000000000000000000000110000011100111000000000000000000000000000000000000000000000000000000000000000000000000000000000000000000000000000000000000000000000000000000000000000000000000000000000000000000000000000000000000000001100000111001001000000000000000000000000000000000000000000000000000000000000000000000000000000000000000000000000000000000000000000000000000000000000000000000000000000000000000000000000000000000000000000000000000010001100000000000000000000000000000000000000110000000000000000000000000000000000000000000111000000000000000000000000000000000000000000000000000000000000100000000000000000000000000000000000000000000000100010100000000000000000000000000000000000010010000000000000000000000000000000000000000010001000000000000000000000000000000000000000000000000000000000011100000000000000000000000000000000000000000000001000000000000000000000000000000000000000000100100000000000000000000000000000000000000011100001000000000000000000000000000000000000000000000000000000000001000000000000000000000000000000000000000000000010011000000000000000000000000000000000000000110000000000000000000000000000000000000000011000010000000000000000000000000000000000000000000000000000000011100000000000000000000000000000000000000000000000010000100000000000000000000000000000000000000000000000000000000000000000000000000001000100100100000000000000000000000000000001000000000000000000000000001110000001100000000000000000000000000000000000000011100000000000000000000000000000000000110000000000000000000000000000000000000000100000000010000000000000000000000000000000101000000000000000000000000000000000011000000000000000000000000000000000000000010000000000000000000000000000000000001100000000000000000000000000000000000000000001001111000000000000000000000000000000001010000000000000000000000001000000000000000000000000000000000000000000000000001010000000000000000000000000000000000000000000000011000000000000000000000000000000100100000000000000000000000000000000000001000000000000000000000000010010000000000000000000000000000000000000000000000011100000000000000000000000000000000000000000000001001000000000000000000000000000011100000000000000000000000000000000000000000000000000000000000000000100000000000000000000000000000000000000000000000011010100000010000000000000000000000000000000000000010100000000000000000000000000000011111000000000000011000000000000000000000000000000000000000000000000000000000000000000000000000000000000000000000000110011000001010000000000011100000000000000000000000010000000000000000000000000000000011000000000000001001000000000000000000000000000000000000000000000000000000000000000000000000001000000000000000000000000000000010010000000001000100000000000000000000000000000000000000000000000000000000000000000000000001100000000000000000000000000000000000000000000000000000000000000000000000000101000000000000000000111000000000011000000000100000000000000000000000000000000000000000000000000000001000000000000000000000000000000011000000000000000000000000000000000000000000000000000000000000000001010000000000000000000100000000000000000000000000110000000000000000000000000011000000000000000000000010000000000000000000000000001101111000000000000000000000000000000000000000000000000000000000000000001000000000000000000000000000000000000000000100000000000000000000000000000000110000000000000000000000100000000000000000000000000001010111000000000000000000000000000000000000000000000000000000000000000000000001110000000000000000000000000000000011001000000000000000000000000000000000000000000000000000000000000000000000000000000000010101110000000000000000000000000000000000000000000000000000000000000000000000000000000000000000000000000000000000110011000000000000000000010000000000000000000000000000000000000000000000000000000000000011011000000000000000000000000000001100000000000000000000000000000000000000000000000000000000000000000000000000001000110000000000000000001010000000000000000000000000000000000000000000000000000000000000011100000000000000000000000000000001000000000000000000000000000000000000000000000000000000000000000000000000000000001000000000000000000010010000000000000000000000000000000000000000000000000000000010000000000000000000000000000000000001110001000000000000000000000000000000000000000000000000000000000000000000000000001011100000000000011000011000000000000000000000000000000000000000000000000000000000100000000000000000000000000000000000110000101000000000000000000000000000000000000000000000000000000000000000000000000110000100000000000110000000000000000000000000000000000000000000000000000000000000001000000000000000000000000000000000000000011100000000000000000000000000000000000000000000000000000011000000000000000000110010100000000000000000000000000000000000000000000000000000000000000000000000000000000000000000000000000000000000000011100100000000000000000000011000000000000000000000000000000000110000000000000000000101100000000000000000000000000000000000000000000000000000000000000000000110000000000000000000000000000000000000000000011101100000000000000000001001000000000000000000000000000000000000000000000000000000011001000000000000000000000000000000000000000000000000000000000000000010100000000000000000000000000000000000000000000001011000000000000000000001100000000000000000000000000000000000000000000000000000000010010000000000000000000000000000000000000000000000000000000000000000001000000010000000000000000000000000000011111100000000000010100000000000000000000000000000000000000000000000000000000000000000000000010000000101000000000000000000000000000000000000000000000000000000000000000000100000000000000000000100000101000000000000000000010100000000000000000000000000000000000000000000000000000000000000000000000000000010010000000000000000000000000000000000000000000000000000000000000000001000000000000000000010100001000000000100000000100101000000000000000000000000000000000000000000000000000000000000000000000000000000010100000000000000000000000000000000000000000000000000000000000000000000000000000000000000100100010000000011000000001101010000000000000000000000000000000000000000000000000000000000000000000000000000000000000000000000000000000000000110000000000000000000000000000000000000000000000000000110000110000101000110110000000001010100000000000000000000000000000000000000000000000000000000000000000000000000000000000000000000000110000000000001100000000000000000000000000000000000000000000000000001100000000000100000000000000000000010000000000000000000000000000000000000000000000000000000000000000000000000000000000000000000000001100000000000000000000000000000000000000000000000000000000000000000000000000000000100000000000000000001000000000000000000000000000000000000000000000000000000000000000000000000001100000000000000000000000000000000000000000000000000000011000000000000000000000000000000000000000000000001001000000000000010010000000000000000000000000000000000000000000000000000000000000000000000000011000000000000000000000000000000000000000000000000000000110000000000000000000000001110000000000000000000000100000000000000010000000000000000000000000000000000000000000000000000000000000000000000000000000000000000000000000000110000011000000000000000000000000000000000000011000000000000000000000000000000000000000000000000000000000000000000000000000000000000000000000000000000000000000000000000000000000000000000000000001100010010000110000000000000000000000000000000000000110000000000000000000000000000000000000000000000000000000000000000000000000000000000000000000000000000000000000000000000000000000000000000000000000011000010100000000000000000000001000000000000000000000010000000000000000000000000000000000000000000000000000000000000000000000000000000000000000000000000000000000011000000000000000000001110000000000000000000010000000000000000000000010000000000000000000000000000000000000000000000000000000000000000000000000000000000000000000000000000000000000000000000000000000001001000000000000000000011110000000000000000000000000000000000000000001111000000000000000000000000000000000000000000000000000000000000000000000000000000000000000000000000000000000000000000000000000000010010000000000000000000000100000000000000000000000000000000000000000000001000000000000000000000000000000000000000000000000000000000000000000000000000000000000000000000000000000000000000000110000000000011000000000000000000001110000000000000000000000000000000000000000000110101000000000000000000000000000000000000000000001100000111000000000000000000000000000000000000000000000000000000000001100000000000000000000000000000000001100000000000000000000000000000000000000000001110011000000000000000000000000001100000000000000011000000000000000000000000000000000000000000000000000000000000000000000000000000000000000000000000000000000000000000000000000000000000000000000000000011000110000000000000000000000000100100000000000000000000000000000000000000000000000000000000000000000000000000000000000000000000000000000000000000000000000000000000000000000000000000000000000000100000110000100000000000000000000000000110000000000000000000000000000000000000000000000000000000000000000000000000000000000000000000000000000000000000000000100000000000000000000000000000000000000000001000001110010000000000000000000000000000000000000000000000000000000000000000000000000000000000000000000000000000000000000000000000000000000000000000000000011100000000000000000000000000000000000000000010000011110000000000000000000000000000000000000000000000000000000000000000000000000000000000000000000000000000000000000000000000000000000000000000000000001101100000000000000000000000011000000000000000000001001000000000000000000000000000000000000000000000000000000000000000000000000000000000000000000000000000000000000000000000000000110000000000000000000000001100101000000000000000000101000000000000000000001011000000000000000000000000000000000000000000000000000000000000000000000000000000000000000000000000000000000000000000000000010010000000000000000000000000001001001000000000000001000000000000000111000000100000000000000000000110000000000000000000000000000000000000000000000000000000000000000000000000000000000000000000000000000011000000000000000000000111110010111001000000000000010000000000000010010000000000000000000000000010010000000000000000000000000000000000000000000000000000000000000000000000000000000000000000000000000000000000000000000000000001110100000100000000000000000010100000000001000000000000000000000000000000011000000000000000000000000000000000000000000000000000000000000000000000000000000000000000000000000000000000000000000000000000011100100000101000000000000000010000000000001001000000000000000000000000000000000000000000000000000000000000000000000010000000000000000000000000000000000000000000000000000000000000000000000000000000000000101000000000000000000000100000000000000001110000001000000000000000000000000000000000000000000000000000000000000001010000000000000000000000000000000000000000000000000000000000000000000000000000000000001100000000000000000000011100010000000000000000001011000000000000000000000000000000000000000000000000000000000000010100000000000000000000000000000000000000000000000000000000000000000000000000000000010000000000000000000000000110101011000000000000000100100000000000000000000000000000000000000000000000000000000000000010000000000000000000000000000000000000000000000000000000000000000000000000000000000110000000000000000000000000011110010000000000000000111100000000000000000000000000000000000000000000001100000000000000000000111000000000000000000000000001000000000000000000000000000000000000000000000000101000000000000000000000000000011100000000000000001110010000000000000000000000000000000000000000000011000000000000000000000010000000000000000000000000101000000000000000000000000000000000000000000000001001000000000000000000000110000100000000000000000011000010000000000000000000000000000000000000000000000000000000000000000000001100000000000000000000000100000000000000000000000000000000000000000000110001100000000000000000000000000000000000000000000000110010100000000000000000000000000000000000000000000000000000000000000000000011100000000000000000000000000000000000000000000000000000000000000000011010011000000000000000000000000000000000000000000000001101110000000000000000000000000000000000000000000000000000000000000000000000110000000000000000000000000000000000000000000000000000000000000000001010100110000000000000000000000000000010000000000000000101111100000000000000000000000000000000000000000000000000000000000000000000000000000000000000000000000000000000000000000000000000000000000000100001011001100000000000000000000000000000100001100000000000100000000000000011000000000000000000000000000000000000000000000000000000000000000000000000000000000000000000000000000000000000000000000000011100011010010100000000000000000000000000001000100100000000000000000000000000110000000000000000000000000000000000000000000000000000000000000000000000000000000000000000000000000000000000000000000000001010100010110001000000000000000000000000000000000110000000000000000000000000000000000000000000000000000000000000000000000000000000000000000000000000000000000000000000000000000000000000000000000000000010101110101100111000000000000000000000000000000000000000000000000000000000000000000000000000000000000000000000000000000000000000000000000100000000000000000000000000000000000000000000000000000000000000011100100000000111000000000000000000000000000000000000000000000000000000110000000000000000000000000000000000000000000000000000000000000010100000000000000000000000000000000000001000000000000000000000000010000100000000000000000000000000000000000000000000000000000000000000010010000000000000000000000000000000000000000000000000000000000000000100000000000000000000000000000000000101000000000000000000000000000000000000000000000000000000000000000010000000000000000000000000000100100000000000000000000000000000000000000000000000000000000000001001000000000000000000000000000000000001010000000000000000000000000000000000000000000000000000000000000000100000000000000000000000000000110000000000000000000000000000000000000000000000000000000000000001011000000000000000000000000000000000001000000000000000000000000000000000000000000000000000000000000000001000000000000000000000000000000000000000000000000000000000000000000000000000000000000000000000000111000000000000000000000000000000000000000000000000000000000000000000000000000000000000000000000000000000000000000000000000000000000000000000000000000000000000000000000000000000000000000000000000001101100000000000000000000000000000000000000000000000000000000000000000000000000000000000000000000000000000000000000000000000000000001100000000000000000000000000000000000000000000000000000000000000000011001000000000000000000000000000000000100000000000000000000000000000000000000000000000000000000000000000000000000000000000000000000100100000000000000000000000000000000000000000110000000000000000000000011100000000000000000000000000000000001000000000000000000000000000000000000000000000000000000000000000000000000000000000000000000000110000000000000000000000000000000000000000010010000111000000001100000010000000000000001000000000000000000010000000000000000000000000000000101000000000000000000000000000000000000000000000000000000000000000000000000000000000000000000000000000000010100000000000000011000000000000000000000010000000000000000000000000000000000000000000000000001010000000000000000000000000000000000000000000000000000000000000000000000000000000000000000000000000000000010001000001000000000000000000000000000000100000000000000000000000000000000000000000000000000100000000000000000000000000000000000000000000000000000000000000000000000000000000000000000000000000000000000000010000010000000000000000000000000000000000000000000000000000000000000000000000000000000000101000000000000000000000000000000000000000000000000000000000000000000000000000000000000000000000000000000000000100000100000010000000000000000000111000111000000000000000000000000000000000000000000000000010000000000000000000000000000001000000000000000000000000000000000000000000000000010000000000000000000000000000000000000001001000000000000000000000000000000000000000000000000000000000000000000000000011000000000000000000000000000000101000000000000000000000000000000000000000000000000100000000000000000000000000000111000000001010000000000000000000001000000000000000000000011100110000000000000000000000000000000000000000000000000000001001000000000000000000000000000000000000000000000001000000000000000000000000000000000000011000000000000000000000000010000000000000000000001001001100000000000000000000000000000000000000000000000000000001100000000000000000000000000000000000000000000000000000000000000000000000000000001000001111011100000000000000000000100000000000000000000010010000000000000000000000000000000000000000000000000000000000000000000000000000000000000000000000000000000000000000000000000000000000000000000100000001010010100000000000000000000000000000000000000001000001110000000000000000000000000000000000000000000000000000000000000000000000000000000000000000000000000000000000000000000000000000000000000001000000000000111000000000000000000000000000000000000000010100100000000000000000000000000000000000000000001110000000000000000000000000000000000000000011100000000000000000000000000000000000000000000000001101000110111100000000000000000000000000000000000000001101011000000000000000000000000000000000000000000000000000000000000000000000000000000000000000000000000000000000000000000000000000000000000000000001110001111110000000000000000000000000000000000000000000101000100000000000000000000000000000000000000010000010000000000000000000000000000000000000000000100000000000000000000000000000000000000000000000001000001000000000000000000000000000000000000100000001110000001000000000000000000000000000000000000000100000100000000000000000000000000000000000000000001000000000000000000000000000000000111000000000000000000000000000000000000000000000000000000010100000000000001100000000000000000000000000000000000000001000001000000000000000000100000000000000000000000010000000000010000000000000000000000000000000000000000000000100000000000000000000000000000000011000000110000000000011000000000011000000000000000000000000000000000000000000000010100000000000000000000000000000000001010000000000000000000000000000000000000000001011000000000000000000000000000000100010000000111000000000101100110000110000000000000000000000000000000000000000000000101000000000000000000000000000000000010100000000000000000000000000000000000000001000110001100000000000000000000000010100000011111110000000000011001100000000000000000000000000000000000000000000000000000100000000100000000000000000000000000010000000000000000000000000000000000001111000010000100100000000000000000000001101000001100000000000000010110000000000000000000000000000000000000000000000000000000000000000011100001100000000000000000000000000000000000000000000000000000000011001111100000110000000000000000000000000100000000000000000000000110000000000000000000000000000000000000000000000000000000000000000000101100010110000000000000000000000000000000000000000000000000000000111011010000000000000000000000000000000000000000000000010000110000000000000000000000000000000000011100000000000000000000000000000000000111000000000000000000000000000000000000000000000000000000000000000000100000000000000000000000000000000000000000100000001000000100000000000011000000000000000000000000000000000000000000000000000000000000000000000100000000000000000000000000000000000000000000000000000000001000000000000000000000000000000000000000000000000011100101000000000001001000000000000000000000000100000000000000000000000000000000000000001010000000000000000000000000000000000000000000000000000000000010000000000000000000000000000000000000000000000000011000100000000000001010000000000000000000000001000000000000000000000000000000001000000000100000000000000000000000000000000000000000000000000000000000000000000000000000000000000000000000000000000000000011000000000000000001000000000000000000000000010000000000000000000000000000000111100000000000000000000000000000000000000000000000000000000000000000000000000000000000000000000000000000000000000000000001000000000000000000000000000000000000000000000000000000000000000000000000000001101011100000000000000000000000000000000000000000000000000000000000000000000000000000000000000000000000000000000000000000010010111000000000000000000000000000000000000000000000000000000000000000000000000000000100000000000000000000000000000000000000000000000000010000000000000000000000000000000001100000000000000000000000000000000000000000000000000000000000000000000000000000000000000000000000000000000000000110000000000000000000000000000000000000000000000000001010000000000000000000000000000000011000000000000000000000000000110001000000000000000000000000000000000000000000000000000000000000000000000000000000000000000000000000000000000000000000000000000000000010100000000000000000000000000000000000000000000000000000000000000100000000000000000000000000000000000000000000000000000000000000000000000000000000000000000000000000000000000000000000000000000000000000010000000000000000000000000000000000000000000001100000000000000001001000000000000000000000000000000000000000000000000000000000000000000000000000000000000000000000000000000000000000000000000000000000000000000000000000000000000000000000000000000000011000000000000000010100000000000000000000000000000000000000000000000000000000000000000000000000000000000000000000000000000000000000000000000000000000000000000000000000000000000000000000000000000000000000000000000000001010000000000000000000000000000000000000000000000000000000000000000000000000000000000000000000000000000000000000000000000000000000000000000000000000000000000000000000000000000000000000000000000000000010100000000000000000000000000000000000000000000000000000000000000000000000000000000000000000000000000000000000000110000000000000000000000000000000000000000000000000000000000000000000000000000000000000010000000000000000000000000000000000000000000000000000000000000000000000000000000000000000000000000000000000000001100000000000000000000000000000000000000000000000000000000000000000000000000000000000000000000000000000000000000000000000010000000000000000000000000000000000000000000000000000000000000000000000000000000000000000000000000000000000000000000000000000000000000110000000000000000000000000000000000000000000000000000000000000001010000000000000000000000000000000000000000000000000000000000000000000000000000000000000000000000000000000000000000000000000000000000001010000000000000000000000000000000000000000000000000000000000000010100000000000000000000000000000000000000000000000000000000000000000000100000000000000000000000000000000000000011000000000000000000000001000000000000000000000000000000000000000000000000000000000000000010000000000000000000000000000000001100000000000000000000000000000000010110000000000000000000000000000000000001001000000001100000011000000000000000000000000000000000000000000000000000000000000000000000000000000000000000000000000000000011000000000000000000000000011000000100001000110000000000000000000000000000001100000000011000001001000000000000000000000000000000000000000000000000111000000000000110000000110000000000000000000000000000000000000000000000000000000110000000100010001010000000000000000000000000000000000000000000000010100000000000000000000000000000000000000000000000000000000000000001100000010010000000000000000000000000000000000000000000000000000000000000000100000000100000000000000000000000000000000000000000000000010000000000000000000000000000000000000000000000000000000000000000000000000011000000000000000000000000000000000000000000000000000000000000000000100010001000000000000000000000000000000000000000000000000000000000000000000000000000000000000000000000000000000000000000000000000000000000000000000000000000000000000000000000000000000000000000000000000100000100000000000000000000000000000000000000000000000000000000000000000000000000000000000110000000000000000000000000000000000000000000000000000000000000000000000000000000000000000000000000000000000000100010000000000000000000000000000000000000000000000000000000000000000000000000000000000010010000000000000000000000000000000000000000000000000000000000000000000000000000000000000000000000000000000000000111001000000000000000000000000000000000000000000000000000000000000000000000000000000000101000000000000000000000000000000000000000000000000000000000000000000000000000001110000000000000000000000000000000000101000000000000000000000000000000000000000000000000000000000000000000000000000000000100000000000000000000000000000000000000000000000000000000000000000000000000000000000000000000000000000000000000000000100000000000000000000000000000000000000000000000000000000000000000000000000000000000000000000000000000000000000000000000000000000000000001100110000000000000000000000000000000000000000000000000000000000000000000000000000000000000000001000000000000000000000000000000000000000000000000000000000000000000000000001110000000000000000000000000011001100000000000000000000000000000000000000000000000000000000000000000000000000000000000000000101000000000000000000000000000000000000000000000000000000001100000000000000000000000000000000000000001100000000000000000000000000000000000000000000000000000000000000000000000000000000000000000000000001010000110000000000000000000000000000000000000000000000000100100000000000000000000000000000000000000011000000000000100000000000000000000000000000000000000000000000000000000000000000000000000000000000001000010010000000000000000000000000000000000000000000000001010000000000000000000000000000000000000000000000000000010100000000000000000000000000000000000000000000000000000000000000000000000000000000000000000011000000000000000000000000000000000000000001000000001000000000000000000000000000000000000000000000000000000101000000000000000000000000000000000000000000000000000000000000000000000000000110000000000000000000000000000000000000000000000000000000101000000000000000000000000000000000000000000000000000000000000000100000000000000000000000000000000000000000000000000000000000000000000000000010010000000000000000000000000110000000000000000000000000000110000000000000000000000000000000000000000000000000000000000000000000000000000000011000000000000000000000000000000000000000000000001000000000100100000000000000000000000010100000000000000000000000000000000000000000000000000000000000001110000000000000000000000000000000000000000000000110000000000000000000000000000000000000000000000101000000000110000000000000000000000000010000000000000000000011100000000000000000000000000000000000000000000110000000000000000000000000000000000000000000000000000000000000000000000000000000000000000010010000000000000000000000000000000000000000000000000000000001000100000000000000000000000000000000000000000010010000000000000000000000000000000000000000000000000000000000000000000000000000000000000000011000000000000000000000000011000000000000000000000000000000000000000000000000000000000000000000000000000000101000000000000000000000000000000000000000000000000000000000000000000000000000000000000000000000000000000000000000000001000000000000000000000000000000000000111000000000000000000000000000000000000000000100000000000000000000000000000000000000000000000000000000000000000000000000000000000000000000000000000000000000100001101100110000000000000000000000000001100000000000000000000000000000000000000000000000000000000000000000000000000000000000000000000000000000000000000000000000000000000000000000000000000001100000000001101101001010000011000000000000000000011000000000000000000000000000000000000000000000000000000000000000000000000000000000000000000000000000000000000001000000000000000000000000000000000000100100001000011100010001100000110000000000000000000000000000000000000000000000000000000000000000000000000000000000000000000000000000000000000000000000000000000001111000000000100000000000000000000000000101000101000000001100000000000000000000000000000000000000000000000000000000000000000000000000000001000000110000000000000000000000000100000000000000000000000000101111100000011100000000000000000000000000100011010111000100000000000000000000000000000000000000001000000000000000000000000000000000100000101000001100000000000000000000000001000000000000000000000000011000000100000111000000000000000000000000000000001110000000000000000000000000000100000000000000000101000000000000000000000000000000111000010010000000000000000000000000000000010000000000000000000000000011101000100000000000000000000000000000000000000011100110110000000000000000000011100110000000000001010000000000000000000000000000010001001011000000000100000000000000000000000000000000000000000100000100011001010000000011000000000000000000000000000000000000111100000000000000000000111001101100000000001000000000000000000000000000000100001110000000000010100000000000000000000000000000000011000001000010100000000000000000010000000000000000000000000000000000000011100000111000000000000000000011000000000000000000000000000000001100000001101011100000000001001000000000000000000000000000000000110000011000001100000000000000000100000000000000000110000000000000000000000000000101100000001100100110001000000000000000000000000000000011000000000100011000000000001100000000000000000000000000000000000000000000110001110000000000000000000000000000000010010000000000000001100000000001001100000011111001101100000000000000000000000000000000000000000000000000000000000000000000000000000000000000000000000000011100010000111100000000000000000000000000000000100100110001100000100100001110010111000000011100000011000000000000000000000000000000000000000000000000000000000000000000000000000000000000000000000000000001011111000111000000000000000000000000000000000110001100100100001001000010000001100000000000000000000000000000000000000000000000000000000000000000000000000000000000000000000000000000000000000000000000000110001010000000000000000000000000000000000000000000000101000001100001011000000000000000000000000000000000000000001000000000000000000000000000000000000000000000000000000000000000000000000000000000000000010001000000000000000000000000000000000000000000000000100000000000110010000000000000000000000000000000000000000101000000000000000000000000000000000000000000000000000000000000000000000000000000000000111010000000000000000000000000000000000000000000000000000000000000001001000000000000000000000000000000000000000001010000000000000000000000000000000000000000000000000000000000000000000000000000000000010000100000000000000000000000000000000000000000000000000000001100000000000000000000011000000000000000000000000000001000000000000000000000000000000000000000000000000000000000000000000000000000000000011111011100000000000000000000000000000000000000001000000000000011000000011000000000011010000000000000000000000000000000000000000000000000000000000000000000000000000000000000110000000000000000000000000000110010001100000000000000000000000000000000000010000000000000000000000000000000000110000000000000000000000000000000000000000000000000000000000000010000000000000000000000001100000000000000000000000000000100000011000000000000000000000000000000000000100000000000000000000000000000000001100011000000000000000000000000000000000000000000000000000000000100000000000000000000000000000000000000000000000000000011011000000000000000000011000000000000000000000000000000000000000000000000000000000000101000000000000000000000000000000000000000000000000000000001000000000000000000000000000000000000000000000000000000000000000000000000000001001000000001100000000000000000000000000000000000000000000000001000000000000000000000000000000000000000000000000000000000000000000000000000000000000000000000000000000000000000000000000000100000000000010010000000101000000000000000000000000000000000000000000000000000000000000000000000000000000000000000000000000000000000000000000000000000000000000000000000000000000000000000000000000000001000000000000011000000000100000000000000000000000000000000000000000000011011000000000000000000000000000000000000000000000000000000000000000000000000000000000000000001100000000000000000000000000000000000000000000000000000000000000000000000000000000000000000000000000000000111110000000000000000000000000000000000000000000000000000000000000000000000000000110000000000100100000000000000000000000000000000000000000000000000000000000000000000100000000000000010000000000000000000111000000000000000000000000000000000000000000000000000000000000000000000000000001100000000000110000000000000000000000000000000000000000000000000000000000000000000010100000000000011110000000000000000000000000000000000000000000000000000000000000000000000000000000000000000000000000000000000000000000000000000000000000000000000000000000000000000000000000000000000001010000000000000111100000000000000000000000000000000000000000000000000000000000000000000000000000000000000000000000000000000000000000000000000000000000000000000000000000000000000000000000000000000000101000000000000000000000000000000000000000000000000000000000000000000000000000000000000000000000000000000000000000000000000000000000000000000000000000000000000000000000000000000000000000000000000000000100000000000000000000000000000000000000000000000000000000000000000000000000000000000000000000000000010000000000000000000000000000000000000000000000000000000000000000000000000000000000000000000000000000000000000000000111100000000000000000000000000000000000000000000000000000000000000000000000000000000100000000000000000000000000000000000000000000000000000000000000000000000000000000000000000000000000000000000000000001110000000000000000000000000000000000000000000000000000000000000000000000000000000001000000000000000000000000000001000000000000000000000000000000000000000000000000000000000000000000000000000000000000001000000000000000000000000000000000000000000000000000000000000000000000000000000000000000000000000000000000000000101000000000000000000000000000000000000000000000000000000000000000000000000000000000000000000000000000000000000000000000000000000000000000000000000000000000000000000000000000000000000000000000000000001010000000000000000000000000000000000000000000000000000000000000000000000000000000000000000000000000000000000000000000000000000000000000000000000000000000000000000000000000000000000000000000000000000001000000000000000000000000000000000000000000000000000000000000000000000000000000000000000000000000000000000000000000000000000000000000000001100000000000000000000000000011100000000000000000000000000000000000000000000000000000000000000000000000000110000000000000000000000000000000000000000000000000000000000000000000000000000000000000000000101000000000000000000000000000000000000000000000000000000000000000000000000000011000000000000000000000000001100000000000000000000000000000000000000000000000000000000000000000000000000000000000000000011111000000000000000000000000000000000000000000000000000000000000000000000000000110000111000000000000000000000000000000000000000000000000000000000000000000000000000000000000000000000000000000000000000101100000000000000000000000000000000000110000000000000000000000011000000000000000000000000000000000000000000000000000000000000000000000000000000000000000000000000000000000000000000000000000000000000011011000000000000000000000000000000000001010000000000000000000000110000000000000000000000000000000000000000000000000000000000000000000000000000000000000000000000000000000000000000000000000000000000000011100000000000000000000000000000000000001100000000000000000000000000000000000000000000000000000000000000000000000000000000000000000000000000000000000000000000000000000000000000000000000000000000000000000000000000000000000000000000000000000000000000000000000000000000000000000000000000000000000000000000000000000000000000000000000000000000000000000000000000000000000000000000000000000000000000000000000000000000000000000