P1
200 200
0000000000000000000000000000000000000000000000000000000000000000000000000000000000000000000000000000000000000000100000000000000000000000000000000000000000000000000000000000000000000000010000000000000000101000000000000000000000000000000000000000000000000000000000000000000000000000000000000000000000000000010000010100000000000000000000000000000000000000000000000000000000000000000000001010000000000000000100000000000000000000000000000000000000000000000000000000000000000000000000000000000000000000000000001010000100100000000100000000000000000000000000000000000000000000000000000000000010100000000000000001000000000000000000000000000000000000000000000000000000000000000000000000000000000000001010000000000011000000110000000010100000000000000000000000000000100000100000000000000000000000010000100000000000100000000000000000000000000000000000000000000000000000000000000000000000000000000000000010100000000000000000000000000000101000000000000000000000000000001000010100000000000000000000000000001000000000010100000000000000000000000000000000000000000000000000000000000000000000000000011000000000000000000000000000000000000000000100000000000000000000000000000010000100100000000000000000000000000010000000001001000000000000000000000000000000000000000000000000000000000000000000000000000110000000000000000000000000000000000000000000000000000000000000000000000000000000110000000000000000000000000000000100000011010000000000000000000000000000000000000000000000000000000000000000000000000000000000000000000000000000000000000000001100000001100000000000000000000000000000000000000000001100000000000000000010100000111010000000000000000000000000000000000000000000000000000000000000000000000000000000000000000000000000000000000000000100100000100100000000000000000000000000000000000000000011000000000000000000101000000000000000000000000000000000000000000000000000000000000000000000000000000000000000000000000000000000000000000000000000110000000110000000000000000000000000000000000000000000000000000000000000000100000000011100000000000000000000000000000000000000000000000000000000000000000000000000000000000000000000000000000000000000000000000000000000000000000000000000000000000000000000000000000000000000010000000000001010000000000000000000000000000000000000000000000000000000000000000000000000000000000000000000000000000000000000000000000100000000000000000000000000000000000000000000000000000000000000000110000000000001100000000000000000000000000000000000000000000000000000000000000000000000000000000000000000000000000000000000000000000010100000000000000000000000000000000000000000000000000000000000000010100000000000000000000000000000000000000000000000000000000000000000000000000000000000000000011100000000000000000000000000000000000000101000000000000000000000000000000000000000000000000000000000011000010101100000000000000000000000000000000000000000000000000000000000000110000000000000000000000000000000000000000000000000000000000000000100000000000000000000000000000000000000000000000000000000001001000111100000000000000000000000000000000000000000000000000000000000000010010000000000000000000100000100000000000000000000000000000000000000000000000000000000000000000000000000000000000000000000000010110000101011000000000000000000000000000000000000000000000000000000000000101000000000000000000001000001000000000000000000000000000000000000000000000000000000000000000000000000000000000000000000000000101100000110010000000000000000000000000000000000000000000000000000000000000100000000000000000000010000010000000000000000000000000000000000000000000000000000000000000000000000000000000000000000000000000110000000111000000000000000000000000000000000000000000000000000000000000000000000000000000000000000000000000000000000000000000000000000000000000000000000000000000000000000000000000000000011000001100000000000001110000000000000000000000000000000000000000000000000000000000000000000000000000000000000011100000000000000000000000000000000000000000000000000000000000000000000000000000000000000110000011000000000000000000000000000000000000000000000000000000000000000000000000000000000000000000000000000000000000000000000000000000000000000000000000000000000000000000000000000000000000000000000000000000000000000000100011100000000000000000000000000000000000000000000000000000000000000000000000000000000000000000000000000000000000000000000000000000000000000000000000000000000000000000000000000000000000000000110000010100101000000000000000000000000000000000000000000000000000000000000000000000000000000000000000000000000000000000000000000000000000000000000000000000000000000000000000000000000000000000000000001100000101011011100000000000000000000000000000000000000000000000000000000000000000000000000000000000001000000000000000000000000000000000000000000000000000000000000000000000000000000000000000000000000000000000100111011100000000000000000000000000000000000000110000000000000000000000000000000000000000000111000000000000000000000000000000000000000000000000000000000001110000000000000000000000000000000000000000000001110010000000000000000000000000000000000000010010000000000000000000000000000000000000000010111000000000000000000000000000000000000000000000000000000000010100000000000000000000000000000000000000000000011101110000000000000000000000000000000000000100100000000000000000000000000000000000000010010011000000000000000000000000000000000000000000000000000000001001000000000000000000000000000000000000000000000011000000000000000000000000000000000000000000110000000000000000000000000000000000000000000100111000000000000000000000000000000000000000000000000000000001001000000000000000000000000000000000000000000000010001000000000000000000000000000000000000000000000000000000000000000000000000000000000110001100000000000000000000000000000001000000000000000000000000001100000001100000000000000000000000000000000000000011100000000000000000000000000000000000110000000000000000000000000000000000000000000000100010000000000000000000000000000000101000000000000000000000000011000000011000000000000000000000000000000000000000000000000000000000000000000000000000001100000000000000000000000000000000000000000000001111000000000000000000000000000000001010000000000000000000000000000000000000000000000000000000000000000000000000001010000000000000000000000000000000000000000000000011000000000000000000000000000001001011100000000000000000000000000000000001000000000000000000000000111000000000000000000000000000000000000000000000000000010000000000000000000000000000000000000000000001001000000000000000000000000000010000100000000000000000000000000000000000000000000000000000000000000000000000000000000000000000000000000000000000000010000100000010000000000000100000000000000000000000010100000000000000000000000000000100010000000000000011000000000000000000000000000000000000000000000000000000000000000000000000000000000000000000000000111011000001010000000000011100000000000000000000000010000000000000000000000000000000100000000000000001001000000000000000000000000000000000000000000000000000000000000000000000000001000000000000000000010000000000010010000000001111000000000000000000000000000000000000000000000000000000000000000000000000001100000000000000000000000000000000000000000000000000000000000000000000000000101000000000000000000111000000000011000000000000011000000000000000000000000000000000000000000000000000000000000000000000000000000000100100000000000000000000000000000000000000000000000000000000000000001010000000000000000001110000000000000000000000000000000000000000000000000000011000000000000000000000111000000000000000000000000001101000100000000000000000000000000000000000000000000000000000000000000001000000010000000000000000000000000000000001100000000000000000000000000000000110000000000000000000000000000000000000000000000000001010000000000000000000000000000000000000000000000000000000000000000000000000000100000000000000000000000000000000000101100000000000000000000000000000000000000000000000000000000000000000000000000000000010100000000000000000000000000000000000000000000000000000000000000000000000000001000000000000000000000000000000001000100000000000000000000010000000000000000000000000000000000000000000000000000000000000000000100000000000000000000000000001100000000000000000000000000000000000000000000000000000000000000000000000000001101000000000000000000001010000000000000000000000000000000000000000000000000000000000000110110000000000000000000000000000100100000000000000000000000000000000000000000000000000000000000000000000000000000000010000000000000000010010000000000000000000000000000000000000000000000000000000000000010000000000000000000000000000011010001000000000000000000000000000000000000000000000000000000000000000000000000011011100000000000011000011000000000000000000000000000000000000000000000000000000001110000000000000000000000000000000000110001001000000000000000000000000000000000000000000000000000000000000000000000000100100100000000000110000000000000000000000000000000000000000000000000000000000000000000000000000000000000000000000000000010010100000000000000000000000000000000000000000000000000000011000000000000000001011110000000000000000000000000000000000000000000000000000000000000000000000000000000000000000000000000000000000000000010010001000000000000000000011000000000000000000000000000000000110000000000000000001100000000000000000000000000000000000000000000000000000000000000000000000110000000000000000000000000000000000000000000100100000000000000000000001001000000000000000000000000000000000000000000000000000000100100000000000000000000000000000000000000000000000000000000000000000000110000000000000000000000000000000000000111100001011000000000000000000001100000000000000000000000000000000000000000000000000000000111100000000000000000000000000000000000000000000000000000000000000000010000000000000000000000000000000000000011111000000000000001100000000000000000000000000000000000000000000000000000000000000000000000000000000010000000000000000000000000000000000000000000000000000000000000000001110000000000000000000100000010111110000000000000110100000000000000000000000000000000000000000000000000000000000000000000000000000011011000000000000000000000000000000000000000000000000000000000000000000000000000000000000010100011000000001100000000110101100000000000000000000000000000000000000000000000000000000000000000000000000000001000000000000000000000000000000000000000000000000000000000000000000000000000000000000000100100110000000100100000001101011000000000000000000000000000000000000000000000000000000000000000000000000000000000000000000000000000000000000110000000000000000000000000000000000000000000000000000110000110000100000001110000000011010100000000000000000000000000000000000000000000000000000000000000000000000000000000000000000000000110000000000001100000000000000000000000000000000000000000000000000001100000000000110000000000000000001110000000000000000000000000000000000000000000000000000000000000000000000000000000000000000000000001100000000000000000000000000000000000000000000000000000000000000000000000000000001100000000000000000001100000000000000000000000000000000000000000000000000000000000000000000000001100000000000000000000000000000000000000000000000000000011000000000000000000000000010000000000000000000000100000000000000000100000000000000000000000000000000000000000000000000000000000000000000000000011000000000000000000000000000000000000000000000000000000110000000000000000000000000100000000000000000000000000000000000000000000000000000000000000000000000000000000000000000000000000000000000000000000000000000000000000000000110000011000000000000000000000000000000000000011000000000001000000000000000000000000000000000000000000000000000000000000000000000000000000000000000000000000000000000000000000000000000000000000001100010010000110000000000000000000000000000000000000101000000000000000000000000000000000000000000000000000000000000000000000000000000000000000000000000000000000000000000000000000000000010000000000000011000010100000000000000000000000000000000000000000000100000000000000000000000000000000000000000000000000000000000000000000000000000000000000000000000000000000000011000000000000000000001001000000000000000000010000000000000000000000000000000000000000000000000000000000000000000000000000000000000000000000000000000000000000000000000000000000000000000000000000000001001000000000000000000010010000000000000000000000000000000000000000001111000000000000000000000000000000000000000000000000000000000000000000000000000000000000000000000000000000000000000000000000000000010010000000000000000000000100000000000000000000000000000000000000000000001000000000000000000000000000000000000000000000000000001000000000000000000000000000000000000000000000000000000000000110000000000011000000000000000000001001000000000000000000000000000000000000000000100101100000000000000000000000000000000000000000001100000010000000000000000000000000000000000000000000000000000000000001100000000000000000000000000000000010100000000000000000000000000000000000000000010000000000000000000000000000000001100000000000000011000000100000000000000000000000000000000000000000000000000000000000000000000000000000000000000000000000000000000000000000000000000000000000000000000100000001000000000000000000000000100100000000000000000000000000000000000000000000000000000000000000000000000000000000000000000000000000000000000000000000000000000000000000000000000000000000000000000001000000100000000000000000000000000110000000000000000000000000000000000000000000000000000000000000000000000000000000000000000000000000000000000000000001110000000000000000000000000000000000000000011100010001000000000000000000000000000000000000000000000000000000000000000000000000000000000000000000000000000000000000000000000000000000000000000000000000100010000000000000000000000000000000000000000000000100010000000000000000000000000000000000000000000000000000000000000000000000000000000000000000000000000000000000000000000000000000000000000000000000001100010000000000000000000000011000000000000000000001000000000000000000000000000000000000000000000000000000000000000000000000000000000000000000000000000000000000000000000000000000110000000000000000000000011100010000000000000000001100000000000000001000000011000000000000000000000000000000000000000000000000000000000000000000000000000000000000000000000000000000000000000000000000010010000000000000000000001000011000100000000000000011000000000000000111000001110000000000000000000110000000000000000000000000000000000000000000000000000000000000000000000000000000000000000000000000000011000000000000000000000100010001101000000000000000011000000000000011010000000000000000000000000010010000000000000000000000000000000000000000000000000000000000000000000000000000000000000000000000000000000000000000000000000010000110001001000000000000000011000000000001100000000000000000000000000000011000000000000000000000000000000000000000000000000000000000000000000000000000000000000000000000000000000000000000000000000000010000100000000000000000000000010000000000001101000000000000000000000000000000000000000000000000000000000000000000000010000000000000000000000000000000000000000000000000000000000000000000000000000000000010101000000000000000000001110000000000000001110000011100000000000000000000000000000000000000000000000000000000000001010000000000000000000000000000000000000000000000000000000000000000000000000000000000001100000000000000000000000000011000000000001000000011000000000000000000000000000000000000000000000000000000000000010100000000000000000000000000000000000000000000000000000000000000000000000000000000011000000000000000000000000100001011000000000000000100000000000000000000000000000000000000000000000000000000000000000010000001000000000000000000000000000000000000000000000000000000000000000000000000000111000000000000000000000000111010001000000000000001000100000000000000000000000000000000000000000000001100000000000000000000011000000000000000000000000001000000000000000000000000000000000000000000000000100000000000000000000000001111010100000000000000010001000000000000000000000000000000000000000000000011000000000000000000000011000000000000000000000000101000000000000000000000000000000000000000000000001001000000000000000000000000000100000000000000000100000010000000000000000000000000000000000000000000000000000000000000000000011010000000000000000000000100000000000000000000000000000000000000000001110010010000000000000000000000000000000000000000000001000110100000000000000000000000000000000000000000000000000000000000000000000100100000000000000000000000000000000000000000000000000000000000000000000010100100000000000000000000000000000000000000000000010000001000000000000000000000000000000000000000000000000000000000000000000000101000000000000000000000000000000000000000000000000000000000000000001000111001000000000000000000000000000000000000000000000100000100000000000000000000000000000000000000000000000000000000000000000000000000000000000000000000000000000000000000000000000000000000000001110010001110010000000000000000000000000001110001100000000000111110000000000011000000000000000000000000000000000000000000000000000000000000000000000000000000000000000000000000000000000000000000000000000000010000110100000000000000000000000000000000100100000000000000000000000000110000000000000000000000000000000000000000000000000000000000000000000000000000000000000000000000000000000000000000000000001000101010001000000000000000000000000000000000000110000000000000000000000000000000000000000000000000000000000000000000000000000000000000000000000000000000000000000000000000000000000000000000000000000010001010001100100100000000000000000000000000000000000000000000000000000000000000000000000000000000000000000000000000000000000000000000000100000000000000000000000000000000000000000000000000000000000000000010100000001001000000000000000000000000000000000000000000000000000000110000000000000000000000000000000000000000000000000000000000000001100000000000000000000000000000000000001000000000000000000000000111000000000000100000000000000000000000000000000000000000000000000000010010000000000000000000000000000000000000000000000000000000000000011100000000000000000000000000000000000101000000000000000000000000000000000000000000000000000000000000000000000000000000000000000000000100100000000000000000000000000000000000000000000000000000000000000001000000000000000000000000000000000001010000000000000000000000000000000000000000000000000000000000000001110000000000000000000000000000110000000000000000000000000000000000000000000000000000000000000000000100000000000000000000000000000000001000000000000000000000000000000000000000000000000000000000000000000000000000000000000000000000000000000000000000000000000000000000000000000000000000000000000000110001000000000000000000000000000000000000000000000000000000000000000000000000000000000000000000000000000000000000000000000000000000000000000000000000000000000000000000000000000000000000000000000000001100000000000000000000000000000000000000000000000000000000000000000000000000000000000000000000000000000000000000000000000000000000001100000000000000000000000000000000000000000000000000000000000000000000001000000000000000000000000000000000000000000000000000000000000000000000000000000000000000000000000000000000000000000000000000000100100000000000000000000000000000000000000000110000001000000000000000100100000000000000000000000000000000011100000000000000000000000000000000000000000000000000000000000000000000000000000000000000000000110000000000000000000000000000000000000000010010000010000000001100000111000000000000000000000000000000000000000000000000000000000000000000000000000000000000000000000000000000000000000000000000000000000000000000000000000000000000000000000000000010100000100000000011000000000000000000000111000000000000000000000000000000000000000000000000011000000000000000000000000000000000000000000000000000000000000000000000000000000000000000000000000000000000010000000000000000000000000000000000000000000000000000000000000000000000000000000000000000000110000000000000000000000000000000000000000000000000000000000000000000000000000000000000000000000000000000000000111000111000000000000000000000000001000001000000000000000000000000000000000000000000000000010000000000000000000000000000000000000000000000000000000000000000000000000000000000000000000000000000000000000000000000000000000000000000000000010000010000000000000000000000000000000000000000000000001010000000000000000000000000000001000000000000000000000000000000000000000000000000000000000000000000000000000000001000000001100000000000000000000100000100000000000000000000100000000000000000000000000001000000000000000000000000000000101000000000000000000000000000000000000000000000001110000000000000000000000000000010000000110100000000000000000000000000000000000000000000011100110000000000000000000000000000000000000000000000000000001001000000000000000000000000000000000000000000000000000000000000000000000000000001010000100010010000000000000000000111000000000000000000001001101100000000000000000000000000000000000000000000000000000001100000000000000000000000000000000000000000000000000000000000000000000000000000000000001001111100000000000000000000000000000000000000000110001100000000000000000000000000000000000000000000000000000000000000000000000000000000000000000000000000000000000000000000000000000000000000000110000011011000100000000000000000000000000000000000000001000011100000000000000000000000000000000000000000010000000000000000000000000000000000000000000100000000000000000000000000000000000000000000000001000000010110001000000000000000000000000000000000000000010011101000000000000000000000000000000000000000000100000000000000000000000000000000000000000001000000000000000000000000000000000000000000000000001101000100000010000000000000000000000000000000000000001101011100000000000000000000000000000000000000000001000000000000000000000000000000000000000000010000000000000000000000000000000000000000000000000010010000000001000000000000000000000000000000000000000100111101000000000000000000000000000000000000000000000000000000000000000000000000000000000000000000000000000000000000000000000000000001000000000000011100011011000000000000000000000000000000000100000000110000001000000000000000000000000000000000000001110001110000000000000000000000000000000000000000011100000000000000000000000000000000010000000000000000000000000000000000000000000000000000000010100000000100000100000000000000000000000000000000000000000000000000000000000000000100000000000000000000000000000000000010000000000000000000000100000000000000000000001100000000000000000000000000000000001100000110000000000011100000000011000000000000000000000000000000000000000000000010100000000000000000000000000000000001010000000000000000000000000000000000000000000100100000000000000000000000000000100110000100001000000000100100110000110000000000000000000000000000000000000000000000101000000000000000000000000000000000010100000000000000000000000000000000000011000000010001100000000000000000000000110100000111110010000000000000101100000000000000000000000000000000000000000000000000000100000001110000000000000000000000000010000000000000000000000000000000000001011000010000100100000000000000000000001101000001101111000000000010010000000000000000000000000000000000000000000000000000000000000000010010001110000000000000000000000000000000000000000000000000000000100000000100000110000000000000000000000001100000000000000000000000111000000000000000000000000000000100000000000000000000000000000000000100000010100000000000000000000000000000000000000000000000000000000101000011000000000000000000000000000000000000000000000000000110000000000000000000000000000000000001000000000000000000000000000000000000101000000100000000000000000000000000000000000000000000000000000000100100000000000000000000000000000000000000000000000001010000110000000000011000000000000000000000010000000000000000000000000000000000000100000000000000000000000000000000000000000000000000000000000000000011100000000000000000000000000000000000000000000000010100001000000000001001000000000000000000000000000000000000000000000000000000000000000000111000000000000000000000000000000000000000000000000000000000000000000000000000000000000000000000000000000000000100000100000000000001010000000000000000000000011100000000000000000000000000000011000000001000000000000000000000000000000000000000000000000000000000000000000000000000000000000000000000000000000000000000001000000000000000001000000000000000000000000000000000000000000000000000000000000110100000000000000000000000000000000000000000000000000000000000000000000000000000000000000000000000000000000000000000001010001000000000000000000000000000000000000000000000000000000000000000000000001001101100000000000000000000000000000000000000000000000000000000000000000000000000000000000000000000000000000000000000000000000010000000000000000000000000000000000000000000000000000000000000000000000000000100100000000000000000000000000000000000000000000000000010000000000000000000000000000000001100000000000000000000000000011001010000000000000000000000000000000000000000000000000000000000000000000000000000010000000000000000000000000000000000000000000000000001010000000000000000000000000000000011000000000000000000000000000110000000000000000000000000000000000000000000000000000000000000000000000000000000000000000000000000000000000000000000000000000000000000010100000000000000000000000000000000000000000000000000000000000000110000000000000000000000000000000000000000000000000000000000000000000000000000000000000000000000000000000000000000000000000000000000000010000000000000000000000000000000000000000000001100000000000000011000000000000000000000000000000000000000000000000000000000000000000000000000000000000000000000000000000000000000000000000000000000000000000000000000000000000000000000000000000000000011000000000000000110100000000000000000000000000000000000000000000000000000000000000000000000000000000000000000000000000000000000000000000000000000000000000000000000000000000000000000000000000000000000000000000000000001011000000000000000000000000000000000000000000000000000000000000000000000000000000000000000000000000000000000000000000000000000000000000000000000000000000000000000000000000000000000000000000000000000010100000000000000000000000000000000000000000000000000000000000000000000000000000000000000000000000000000000000000110000000000000000000000000000000000000000000000000000000000000000000000000000000000000010000000000000000000000000000000000000000000000000000000000000000000000000000000000000000000000000000000000000001100000000000000000000000000000000000000000000000000000000000000000000000000000000000000000000000000000000000000000000000010000000000000000000000000000000000000000000000000000000000000000000000000000000000000000000000000000000000000000000000000000000000000110000000000000000000000000000000000000000000000000000000000000001010000000000000000000000000000000000000000000000000000000000000000000000000000000000000000000000000000000000000000000000000000000000001010000000000000000000000000000000000000000000000000000000000000010100000000000000000000000000000000000000000000000000000000000000000000110000000000000000000000000000000000000011000000000000000000000001000000000000000000000000000000000000000000000000000000000000000010000000000000000000000000000000001100000000000000000000000000000000010100000000000000000000000000000000000001001000000001100000011000000000000000000000000000000000000000000000000001000000000000000000000000000000000000000000000000000011000000000000000000000000011000000101010000110000000000000000000000000000001100000000011000001001000000000000000000000000000000000000000000000000010000000000000110000000110000000000000000000000000000000000000000000000000000000110000000100000001010000000000000000000000000000000000000000000000010100000000000000000000000000000000000000000000000000100000000000001100000010010000000000000000000000000000000000000000000000000000000000000000100000000110000000000000000000000000000000000000000000000010000000000000000000000000000000000000000000000000000000000000000000000000011000000000000000000000000000000000000000000000000000000000000000000100000011000000000000000000000000000000000000000000000000000000000000000000000000000000000000000000000000000000000000000000000000000000000000000000000000000000000000000000000000000000000000000000000000100000100000000000000000000000000000000000000000000000000000000000000000000000000000000000110000000000000000000000000000000000000000000000000000000000000000000000000000000000000000000000000000000000000111111000000000000000000000000000000000000000000000000000000000000000000000000000000000010010000000000000000000000000000000000000000000000000000000000000000000000000000010000000000000000000000000000000111111000000000000000000000000000000000000000000000000000000000000000000000000000000000101000000000000000000000000000000000000000000000000000000000000000000000000000000100000000000000000000000000000000100101000000000000000000000000000000000000000000000000000000000000000000000000000000000100000000000000000000000000000000000000000000000000000000000000000000000000000001000000000000000000000000000000000000100000000000000000000000000000000000000000000000000000000000000000000000000000000000000000000000000000000000010000000000000000000000000001100110000000000000000000000000000000000000000000000000000000000000000000000000000000000000000001000000000000000000000000000000000000000000000000000000000000000000000000000100000000000000000000000000011001100000000000000000000000000000000000000000000000000000000000000000000000000000000000000000101000000000000000000000000000000000000000000000000000000001100000000000000001000000000000000000000001100000000000000000000000000000000000000000000000000000000000000000000000000000000000000000000000001010000110000000000000000000000000000000000000000000000000100100000000000000000000000000000000000000011000000000000100000000000000000000000000000000000000000000000000000000000000000000000000000000000001000010010000000000000000000000000000000000000000000000001010000000000000000000000000000000000000000000000000000010100000000000000000000000000000000000000000000000000000000000000000000000000000000000000000011000000000000000000000000000000000000000001000000001000000000000000000000000000000000000000000000000000000101000000000000000000000000000000000000000000000000000000000000000000000000000110000000000000000000000000000000000000000000000000000000101000000000000000000000000000000000000000000000000000000000000000100000000000000000000000000000000000000000000000000000000000000000000000000010010000000000000000000000000110000000000000000000000000000110000000000000000000000000000000010000000000000000000000000000000000000000000000011000000000000000000000000000000000000000000000001000000000100100000000000000000000000010100000000000000000000100000000000000000000000000000000000000000100000000000000000000000000000000000000000000000110000000000000000000000000000000000000000000000101000000000110000000000000000000000000010000000000000000000011100000000000000000000000000000000000000001000110000000000000000000000000000000000000000000000000000000000000000000000000000000000000000010010000000000000000000000000000000000000000000000000000000000111000000000000000000000000000000000000000000010010000000000000000000000000000000000000000000000000000000000000000000000000000000000000000011000000000000000000000000010000000000000000000000000000000000010100000000000000000000000000000000000000000101000000000000000000000000000000000000000000000000000000000000000000000000000000000000000000000000000000000000000000011000000000000000000000000000000000000010000000000000000000000000000000000000000000100000000000000000000000000000000000000000000000000000000000000000000000000000000000000000000000000000000000000000011000100110000000000000000000000000001110100000000000000000000000000000000000000000000000000000000000000000000000000000000000000000000000000000000000000000000000000000000000000000000000001100000000001000101101010000011000000000000000000011000000000000000000000000000000000000000000000000000000000000000000000000000000000000000000000000000000000000001100000000000000000000000000000000000100100001000010111011001100000110000000000000000000000000000000000000000000000000000000000000000000000000000000000000000000000000000000000000000000000000000000001000000000001110000000000000000000000000101001101100000001100000000000000000000000000000000000000000000000000000000000000000000000000000001000000110000000000000000000000000000000000000000000000000001100001100000000000000000000000000000000000100011000110000010000000000000000000000000000000000000001000000000000000000000000000000000100000101000001100000000000000000000000011100000000000000000000000010000001100000101000000000000000000000000000000000000001011000000000000000000001110000000000000000101000000000000000000000000000000111100010010000000000000000000000000000000000000000000000000000000000100110011100000111000000000000000000000000000000010100110010000000000000000000000000111000000000001010000000000000000000000000000010111101011000000000100000000000000000000000000000000000000000000000100101100000000000011000000000000000000000000000000010001100000000001000000000000101001101100000000001000000000000000000000000000001100000000000000000010100000000000000000000000000000000011000011000000110000000000000000011000000000000000000000000000000000000000100000111100000000011010000010100000000000000000000000000000001100000001110100010000000001001000000000000000000000000000000000110000011001011000000000000000000000000000000000000110000000000000000000010000000001110000001000100110001000000000000000000000000000000011000000001100101000000000001100000000000000000000000000000000000000100011100000010000000000000000000000000000000010010000000000000001100000010011000000000000001001101010000000000000000000000000000000000000000000000000000000000000000000000000000000000000000000000000001110000000100010000000000000000000000000000000100100110001100000100100001100000000000000100010000111000000000000000000000000000000000000000000000000000000000000000000000000000000000000000000000000000001010011010001000000000000000000000000000000000110001100100100001001000100000011010000000010000000000000000000000000000000000000000000000000000000000000000000000000000000000000000000000000000000000000001100011111100000000000000000000000000000000000000000000101000001100011011000000000000000000000000000000000000000001000000000000000000000000000000000000000000000000000000000000000000000000000000000000010010001000000000000000000000000000000000000000000000000100000000000110010000000000000000000000000000000000000000101000000000000000000000000000000000000000000000000000000000000000000000000000000000000111010000000000000000000000000000000000000000000000000000000000000001100000000000000000000000000000000000000000001010000000000000000000000000000000000000000000000000000000000000000000000000000000000000000000000000000000000000000000000000000000000000000000000001100000001100000000000111000000000000000000000000000001000000000000000000000000000000000000000000000000000000000000000000000000000000000001001110100000000000000000000000000000000000000000000000000000011000000000000000000010010000000000000000000000000000000000000000000000000000000000000000000000000000000000000110000000000000000000000000010000111001100000000000000000000000000000000000111000000000000000000000000000000001000000000000000000000000000000000000000000000000000000000000000000000000000000000000000001100000000000000000000000000000001100011000000000000000000000000000000000000000000000000000000000000000000000001100011000000000000000000000000000000000000000000000000000000001110000000000000000000000000000000000000000000000000000011100000000000000000000011000000000000000000000000000000000000000000000000000000000001100000000000000000000000000000000000000000000000000000000000000000000000000000000000000000000000000000000000000000000000000000000000000001001000000001100000000000000000000000000000000000000000000000000100000000000000000000000000000000000000000000000000000000000000000000000000000000000000000000000000000000000000000000000000000000000000010010000000101000000000000000000000000000000000000000000000000100000000000000000000000000000000000000000000000000000000000000000000000000000000000000000000000000000000000000000000000000000000000000000011000000000100000000000000000000000000000000000000000000010001000000000000000000000000000000000000000000000000000000000000000000000000000000000000000001100000000000000000000000000000000000000000000000000000000000000000000000000000000000000000000000000000000000000000000000000000000000000000000000000000000000000000000000000000000000000000110000000000100100000000000000000000000000000000000000000000000000000000000000000000100000000000000011000000000000000001000100000000000000000000000000000000000000000000000000000000000000000000000000001100000000000110000000000000000000000000000000000000000000000000000000000000000000010100000000000010000000000000000000000100000000000000000000000000000000000000000000000000000000000000000000000000000000000000000000000000000000000000000000000000000000000000000000000000000000000000001010000000000000100100000000000000000000000000000000000000000000000000000000000000000000000000000000000000000000000000000000000000000000000000000000000000000000000000000000000000000000000000000000000101000000000000000110000000000000000000000000000000000000000000000000000000000000000000000000000000000000000000000000000000000000000000000000000000000000000000000000000000000000000000000000000000000000100000000000000001100000000000000000000000000000000000000000000000000000000000000000000000000000000000000000000000000000000000000000000000000000000000000000000000000000000000000000000000000000000000000000000000000000100100000000000000000000000000000000000000000000000000000000000000000000000000000001110000000000000000000000000000000000000000000000000000000000000000000000000000000000000000000000000000000000000000000001000000000000000000000000000000000000000000000000000000000000000000000000000000000000000000000000000000000000001000000000000000000000000000000000000000000000000000000000000000000000000000000000000011100000000000000000000000000000000000000000000000000000000000000000000000000000000000000000000000000000000000000101000000000000000000000000000000000000000000000000000000000000000000000000000000000000000000000000000000000000000000000000000000000000000000000000000000000000000000000000000000000000000000000000000001010000000000000000000000000000000000000000000000000000000000000000000000000000000000000000000000000000000000000000000000000000000000000000000000000000000000000000000000100000000000000000000000000000001000000000000000000000000000000000000000000000000000000000000000000000000000000000000000000000000000000000000000000000000000000000000000001100000000000000000000000000001000000000000000000000000000000000000000000000000000000000000000000000000000110000000000000000000000000000000000000000000000000000000000000000000000000000000000000000001000000000000000000000000000000010000000000000000000000000000000000000000000000011000001000000000000000000001100000000000000000000000000000000000000000000000000000000000000000000000000000000000000000010001000000000000000000000000000000000000000000000000000000000000000000000000000110000010000000000000000000000000000000000000000000000000000000000000000000000000000000000000000000000000000000000000000000000000000000000000000000000000000000110000000000000000000000011000000000000000000000100000000000000000000000000000000000000000000000000000000000000000000000000000000000000000000000000000000000000010000000000000000000000000000000000000001010000000000000000000000110000000000000000000000000000000000000000000000000000000000000000000000000000000000000000000000000000000000000000000000000000000000000110110000000000000000000000000000000000001100000000000000000000000000000000000000000000000000000000000000000000000000000000000000000000000000000000000000000000000000000000000000000000000000000000000000010000000000000000000000000000000000000000000000000000000000000000000000000000000000000000000000000000000000000000000000000000000000000000000000000000000000000000000000000000000000000000000000000000000000000000000000000