P1
200 200
0000000000000000000000000000000000000000000000000000000000000000000000000000000000000000000000000000000000000000100000000000000000000000000000000000000000000000000000000000000000000000010000000000000000000000000000000000000000000000000000000000000000000000000000000000000000000000000000000000000000000000010000010100000000000000000000000000000000000000000000000000000000000000000000001010000000000000000000000000000000000000000000000000000000000000000000000000000000000000000000000000000000000000000000001010000100100000000100000000000000000000000000000000000000000000000000000000000010100000000000000000000000000000000000000000000000000000000000000000000000000000000000000000000000000000000000000000000011000000110000000010100000000000000000000000000000100000100000000000000000000000010000100000000000000000000000000000000000000000000000000000000000000000000000000000000000000000000000000000000000000000000000000000000000101000000000000000000000000000001000010100000000000000000000000000001000000000000000000000000000000000000000000000000000000000000000000000000000000000000000011000000000000000000000000000000000000000000100000000000000000000000000000010000100100000000000000000000000000010000000000000000000000000000000000000000000000000000000000000000000000000000000000000000110000000000000000000000000000000000000000000000000000000000000000000000000000000110000000000000000000000000000000001000000000000000000000000000000000000000000000000000000000000000000000000000000000000000000000000000000000000000000000000001100000001100000000000000000000000000000000000000000001100000000000000000000101000000000000000000000000000000000000000000000000000000000000000000000000000000000000000000000000000000000000000000000000100100000100100000000000000000000000000000000000000000011000000000000000000010001000000000000000000000000000000000000000000000000000000000000000000000000000000000000000000000000000000000000000000000000110000000110000000000000000000000000000000000000000000000000000000000000000010010000000011000000000000000000000000000000000000000000000000000000000000000000000000000000000000000000000000000000000000000000000000000000000000000000000000000000000000000000000000000000000000000000001010000000110011000000000000000000000000000000000000000000000000000000000000000000000000000000000000000000000000000000000000000100000000000000000000000000000000000000000000000000000000000000000000000011000000011101110000000000000000000000000000000000000000000000000000000000000000000000000000000000000000000000000000000000000010100000000000000000000000000000000000000000000000000000000000000000000000010000001101110000000000000000000000000000000000000000000000000000000000000000000000011100000000000000000000000000000000000000101000000000000000000000000000000000000000000000000000000011000000000000000000000111000000000000000000000000000000000000000000000000000110000000000000000000000000000000000000000000000000000000000000000100000000000000000000000000000000000000000000000000000001001000000000000000000001011010000000000000000000000000000000000000000000000010010000000000000000000100000100000000000000000000000000000000000000000000000000000000000000000000000000000000000000000000010100000000000110000000001000100000000000000000000000000000000000000000000000101000000000000000000001000001000000000000000000000000000000000000000000000000000000000000000000000000000000000000000000000010000000000001100000000100101000000000000000000000000000000000000000000000000100000000000000000000010000010000000000000000000000000000000000000000000000000000000000000000000000000000000000000000000000000000000000000000000110110100000000000000000000000000000000000000000000000000000000000000000000000000000000000000000000000000000000000000000000000000000000000000000000110000000000000000000011000000000000000000000000000001001100000000000000000000000000000000000000000000000000000000000000000000000000000000000000000000000000000000000000000000000000000000000000011100001110000000000000000000110000000000000000000000000000010001000000000000000000000000000000000000000000000000000000000000000000000000000000000000000000000000000000000000000000000000000000000000001001000100100000000000000000000000000000000000000000000000000001011000000000000000000000000000000000000000000000000000000000000000000000000000000001110000000000000000000000000000000000000000000000000100000001011000000000000000000000000000000000000000000000000000110000000000000000000000000000000000000000000000000000000000000000000000000000000000111100000000000000000000000000000000000000000000000000100100001100000000000000000000000000000000000000000000000000001000000000000000000000000000000000000000000000000000000000000000000000000000000000010000100000000000000000000000000000000000000000000000000111000000000000000000000000000000000000000000000000000000000000000000000000000000000000000000000110000000000000000000000000000000000000001110000001100100000000000000000000000000000000000000000000000000000000000000000000000000000000000000000000000000000000000000000000000000000000000000000000000010010000000000000000000000000000000000000010100011100111000000000000000000000000000000000000000000000000000000000000000000000000000000000000000000000000000000000000000000000000000000000000000000100000100100000000000000000000000000000000000000101000110000011000000000000000000000000000000000000000000000000000000000000000000000000000000000000000010000000000000000000000000000000000000000000001111000000110000000000000000000000000000000000000000100000000000000000000000000000000000000000000000000000000000000000000110000000000000000000000000000001001000000000000000000000000000000000000100001111101000000000000000000000000000000000000000000000001010000000000000000000000000000000000001000000000000000000000000000010100001100000000000000000000000001110000000000000000000000000000000000000110001001110000000000000000000000000000000000000000000001110000000000000000000000000000000000000101000000000000000000000000000010000011000000000000000000000000001000000000000010100000000000000000000000000110001100000000000000000000000000000000000000000000011000000000000000000110000000000000000001010000000000000000000000000000000000000000000000000000000000000000000000000001101100000000000000000000110111111100000000000000011000000000000000000000000000000000000000000000000010010000000000000000001000000000000000000110000000000000000000000000000000000000000000000000000000001011000000000000000000111111100010000000000000001001000000000000000000000000000000000000000000000000001100000000000000000000000000000000000001010000000000000000000000000000000000000000000000000000010000110000010000000000001100000000100000000000000010100000000000000000000000000000000000000000000000000001000000000000000000000000000000000000001000000000000000000000000000000000000000000000000000001000111000001010000000000001110000000000000000000000010000000000000000000000000000000000000000000000000000000000000000000000000000000000000000000000000000000000000000000000000000001000000000000000011000111100000010010000000000001000000000000000000000000000000000000000000000000000000000000000000000000000000111000000000000000000000000000000000000000000010000000000000000000000000101000000000000001100000000000000011000000000000000000000000000000000000000000000000000000000000000000000000000000000000000000000000010000000000000000000000000000000000000001010000000000000000000000001010000000000001100000100000000000000000000000000000000000000000000000000000011000000000000000000000111000000000000000001110000000000100000000000000000000000000000000000100010100000000000000000000000001000000010000100001000000000000000000000000000000000000000000000000000000000110000000000000000000000000000000000000000000010000000001000000000000000000000000000000000010100010000000000000000000000000000000000100000110001010000000000000001100000000000000000000000000000000000000000000000000000000000000000000000000000000100100000000000000000000000000000000000000000000101000000000000000000000000000000000000001000000100000110000000000000010100000000000000000000000000010000000000000000000000000000000000000000000000000111110001110000000000000000000000000000000000000000100000000000000000000000000000000000000000000000000111000000000000000010000000000000000000000000001010000000000000000000000000000000000000000000000001000000000000110000000000000000000000000000000000000000000000000000000000000000000000000000000000000001110000000000000000000000000000000000000000000010010000000000000000000000000000000000000000000000010000000000001110000000000000000000000000000001100000001100000000000000000000000000000000000000000000001000000000000000000000000000000000000000011000011000000000000000000000000000000000000000000000000000110000000010110000000000000000000000000000011000000100100000000000000000000000000000000000000000000000000000000000000000000000000000000000000110000000000000000000000000000000000000000000000000000000010010000000001100000000000000000000000000000000000000110000000000100011100000000000000000000000000000000011000000000000000000000000000000000000000000000000000000000000000000000000000000000000000000000011000000001000000000000000000000000000000000000000000000000000000100111000000000000000000000000000000000110000000000000000000000000000000000000000000000000000000000000000000000000000000000000000000000000000000001100000000000000000000000000000000000000000000000001001000101000000000000000000000000000000000000000000000000000000000000000001110000000000000000000000000000000000000000000000000000000000000000000011110000000000000000000000000000000110000011000000000110011000110000000000000000000000000000000000000000000000000000000000000000000000000000000000000000000000000000000000000000000000000000000000000001001000000000000000000000000000010010100000110000000001001100011000000000000000000000000000000000000000000000000111000000000001100000010000000000000000000000000000000000000000000000000000000000000000011110000000000000000000000000001010110000000000001000010110000100000000000000000000000000000000000000000000000000000000000110000000000100000000000000000000000000000000000000000000000000000000000000000000000000000000000000000000000111011100111000000111101100011000000000000000000000000000000000000000000000000000000000000001100000000001000000000000000000000000000000000000000000000000000000000000000000000000000000000000000000000001100000001001100001000101010110000000000000000000000000000000000000000000000000000000000000010100000000000000000000000000000000000110000000000000000000000000000000000000000000000000000110000000000000011101110011000110001000100100010110000000000000000000000000000000000000000000000000000000000011001001110000000000000110000000000001100000000000000000000000000000000000000000000000000001100000000000000010101100000000001010000000111101110000000000000000000000000000000000000000000000000000000000111100000000000000000001100000000000000000000000000000000000000000000000000000000000000000000000000000000000010010100000000000001000010001011000000000000000000000000000000000000000000000000000000000000010000000000000000000000000000000000000000000000010000000000000000000000000000000010000000000000000000000000000011000011000001100010111110000000000000000000000000000000000000000000000000000000000000000000000000000000000000000000000000000000000000001100000000000000000000000000000000100000000000000000000000000000000000000000010000100000100000000000000000000000000000000000000000000000000000000000111010000000000000000000000110000011000000000000000010100000000000000000011000000000001000000000000000000000000000000000000010001000001011001000000000000000000000000000000000000000000000000000000000010000110000000000000001100010010000110000000000000000000000000000000000000101000000000000000000000000000000000000000000000000001000000010000100000000000000000000000000000000000000000000000000000000000100101100000000000000011000010100000000000000000000000000000000000000000000100000000000000000000000000000000000000000000000000000000000110000000000000000000000000000000000000000000000011000000000000001010100000000000000000000000010000000000000000000000000000000000000000000000000000000000000000000000000000000000000000000000000000000000101110000000000000000000000000000000000000000001001000000000000000011100000000000000000000000000000000000000000000000000000000000000000000000000000000000000000000000000000000000000000000000000000000000000100000000000000000000000000000000000000000010010000000000000000110011100000000000000000000000000000000000000000110000000000000000000000000000000000000000000000000000000001000000000000000000000000000110000000000000000000000000000000110000000000011000000000000000001010111100000000000000000000000000000000000000001100000100000000000000000000000000000000000000000001100000010000000000000000000000000000000000000000000000000000000000001100000000000000000000000000000011000100000000000000000000000000000000000000000000000001100000000000000000000000001100000000000000011000000100000000000000000000000000000000000000000000000000000000000000000000000000000000000000000000000000000000000000000000000000000000000000000000000000010100000000000000000000000100100000000000000000000000000000000000000000000000000000000000000000000000000000000000000000000000000000000000000001100001100000000000000000000000000000000000000000000000000001100000000000000000000000110000000000000000000000000000000000000000000000000000000000000000000000000000000000000000000000000000000000000000111110000100000000000000000000100000000000000000000000000000011000000000000000000000000000000000000000000000000000000000000000000000000000000000000000000000000000000000000000000000000000000000000000010001100000000000000000000000010100000000000000000000000001111100000000000000000000000000000000000000000000000000000000000000000000000000000000000000000000000000000000000000000000000000000000000000001110000000000000000000000000000101000000000000000000000000100110000000000000000000000000000000000000000000000000000000000111000000000000000000000000000000000000000000000000000000000110000000000000000000000000000000000000000000000000100000000000000000000000000000000000000000000000000000000000000000000000000000000000000000000000000110000000000000000000000000000000000000000000000010010000000000000000000000000011000100000000000000000000001000000000000000000000000000000000000000110000000000000000000000000000000000000000000000000010010000000000000000000000000000000000000000000000011000000000000000000000000001000001011000000000000000000001000000000000000000000000011000000000010010000000000000000000000000000000000000000000000000101000000000000000000000000000000000000000000000000000000000000000000001110000001111010010000000000000000011011000000000000000000000001011000100000011000000000000000000000000000000000000000000000000000100000010000000000000000000000000000000000000000000000000000000000000000000000000110010010000000000000000110010000000000000000000000110100001000000000000000000000000000000000000000000000000000000000000000001010000000000000000000000000000000000000000000000000000000001000000000000000110000000000000110000001101100000000000000000000000110000010000000000000000000000000000000000000000000000000000000000000000001000000000000000000000000000000000000000000000000000000000111000000000000001001100000000010010000000010000000000000000000000000000000000000000000000000000000000000000000000000000000000000110000100001110000000000000000000000000000000000000000000000000000000010011000000100000011100000000000011000000000000000000000000000000000000000000000000000000000000000000000000000000000000000000000001100010100100100000000000000000000000000000000000000000000000000000000101001000001000000000000000000000000000000000000000000000000000000010100000000000000000000000000000000000000001100000000000000000000001111111010000000000000000001000000000000000000000000000000000000011010010000010000000000000000000000000000000000000000000000000000000001000000000000000000000000000000000000000011000000000000000000000011100000000000000000000000101000000000000000000000000000000000001000000000000000000000000000000000000000000001001000000000000000000110010000000000000000000000000000000000000000000000000000000000000000010000100000000000000000000100000000000000000000000000000000001100000001000000000000000000000000000000000000100110000111000000000010001000000000000000000000000000000000000000000000000000000000000000010101001000000000000000000000000000000000000000000000000000001101000111000000000000000000000000000000000000000010000000000000000000010010000000000000000000000000000000000000000000000000000000000000001000100100110000000000000000000000000000000000000000000000000000110100001000000000000000000000000000000000000000100100000000000000000111000000000000000000000000000000000000000000000000000000000000000000011000001110000000000000000000000000000000000000000000000000000000000010110000000000000000000000000000000001000111100000000000000000000000000011000000000000000000000000000000000000000000000000000000000001010000011000000000000000000000000000000000000000000000000000000000011000000000000000000000000000000000101100000100000000000000000000000000110000000000000000000000000000000000000000000000000000000100000000000000000000000000000000000000000000000000000000000000000000001000000000000000000000000000000000001010000110000000000000000000000000000000000000000000000000000000000000000000000000000000000001000000000000000000000000000000000000000000000000000000000000000000000001100000000000000000000000000000000000000000000000000000000000000000000000000000000000000000000000000000000000000000000000000000001111000000000000000000000000000000000000000000000000000000000000000010000010000000000000000000000000000000000000000000000000000000000000110000000000000000000000000000000000000000000000000000000000000001000000000000000000000000000000000000001000000000000000000000011000010000000000000000000000000000000000000000000000000000000000000000010010000000000000000000000000000000000000000000000000000000000000000000000000000000000000000000000000000101000000000000000000001101100000100000011000000000000000000000000000000000000000000000000000000100100000000000000000000000000000000000000000000000000000000000000000000000000000000000000000000000000001010000000000000000000011000100001000010101000000000000000000000001110000000000000000000000000000110000000000000000000000000000000000000000000000000100000000000000000000000000000000000000000000000000001000000000000000000000000001000010000101110000000000000000000000000000000000000000000000000000000000000000000000000000000000000000000000000000011100010000000000000000000000000000000000000000000000000000000000000000000000000010000000001111001000000000000000000000000000000000000000000000000000000000000000000000000000000000000000000000100000000100000100000000000000000000000000000000000000000000000000000000000000000000000000000100000011011110000000000000000000000000000000000000000000000000001100000000000000000000000000000000000000011100000001000000100000000110000000000000000000000000000000000000000000000000000000000001111000100000000001010000000000000000000000000000000000000000000000000100100000000000000000000000000000000000001100100000001001111000000001010000000000000000000000000000000000011100000000000000000000011010001101101100010100000000000000000000000000000000000000000000000000110000000000000000000000000000000000000010000000000000010110000000010000000000000000000000000000000000000000000000000000000000000100100100011001011010000000000000000000000000000000000000000000000000000000000000000000000000000000000000000000111000000000000100000000000000000000000000000111000000000000000000000000000000000000000000110001110100001100000000000000000000000000000000000000000000000000000000000000000000000000000000000000000000001101100000011010000000000000000000000000000000000000000000000000000000000000000000000000000000000000000011000000000010000000000000000000000000000000000000000000000000000000000000000000000000000000000000010110000000000000001100000000000000000001000001000000000000000000000000000000000000000000000000000000000000000010010000000000000000000000000000000000000000000000000000000000000000000000000000000000001100100000001100000011000000000000011000010000010000000000000000000000000000000000000000000000000000000001110000000000000000000001000000000000000000000000000000000000000000000000000000000000000000000000110000000110000000000000000000000110000100000100000000000000000000000000000000000000000000000000000000101100000010000000000000101000000000000000000000000000000000000000000000001110000000000000000000000000000000110000000000000000000000000000000000000000000000000000000000000000000000000000000000000000001101111101000000000000001001000000000000000000000000000000000000000000000000000000000000000000000000000000000000000000000000000000000000000111000000000000000000000000000000000000000000000000000000000000001001100000000000000001100000000000110000000000000000000000000000000000000000000000000000000000000000000000000000000000000000000000000000000000000000000000000000000000000000000000000000000000000000000001100000000000000000000000000000111110000000000000000000000000000000000000000000000000000000000000110001000000000000000000000110000000000000000000000000000000000000000000000000000000000000000000000000000000010000000000000000000000011111110000000000000100000000000000000000000000000000000000000000001100010010000000000000000100100000000000000000000000000000000000000000000000000000000000000000000000000000000100000000000000000000001000000100000000000001000000000000000000000000000000000000000000000100000111010000000000000000110000000000000000000000000000000000001100000000000000000000000000000000000000000001000000000000000000000111000000000000000000010000000000000000000000000000000000000000000000110000100010000000000000000000000000000000000000000000000000000011000000000000000000000000000000000000000000000000000000000000000001100000000000000000000000000000000000000000000000000000000001000000001100000100100000000000001100000000000000000000000000000000000000000000000000000000000000000000000000000001110001110000000000000000001110000000000000000000011100000000000000000000000000000000010000000000000001110001000000000010011000000000000000000000000000000000000000000000000000000000000000000000000000000000000000000000000000000000100000000000010000000000000000000010000000000000000000000100000000000000001100101000000000100010000000000000000000000000000000000000000000000000000011000000000000000000000000000000000000000000000111101000000000000110000000000000000001010000000000000000000000000000000000000000001010000000000111000000000000000000000000000000000000000000000000110000110000000000000000000000000000000000000000000001001010100000000001100000000000000000010100000000000000000000000000000000000000000001000000110000000000000000010000000000000000000000110000000000001100000000000000000000000000000000000000000000000000011011101000000000000000000000000000000010000000000000000000000000011000000000000000000000010010000000000000001000000000000000000000001100000000011000000000000000000000000000000000000000000000000000000001100101000000000000000000000000000000000000000000000000000000001001000000000000000000000011000000000000000001100000000000000000000000000000000101000000000000000000000000000100000000000000000000000000000000000000000111000000000000000000000000000000000000000000000010001000000000000000000000000000000000000000011000000000000000001100000000000000010000000000000000000000000001000000000000000000000000000001000001000011100000000000000000000000000000000000000000000000110100100000000000000000000000000000000000000000000000000000000011000000000000001100011000000000000000000000010000000000000000000000000000000001011000011000001100000000000000000000000000000000000000001111000011100000000000000000000000000000000000000000000000000000000011011000000000001001000000000000000000000000000000000000000000000000000101000000000000001100010000000000000000000000000000000000000011001000000100000000000000000000000000000000000000000000000000000000111111000000000001010000000000000000000000011100000000000000000000000000000001000000000000000000000000000000000000000000000000000000011100100010100000000000000000000000000000000000000000000000000000001011011000000000001000000000000000000000000000000000000000000000000000000000111100000000011101000000000000000000000000000000000000000011000111011000000000000000000000000000000000000000000000000000000011000100000000000000000000000000000000000000000000000000000000000000001101111100000101100000000000000000000000000000000000000000000000000001110011000000000000000000000000000000000000000000000000000000111110000000000000000000000000000000000000000000000000000000000000000010000110000100111100000000000000000000000000000000000000000000000001010001110000000000000000000000001100000000000000000000000000000111000000000000000000000000000000000000000000000000000000000000000000010001000010001000000000000000000000000000000000000000000000000001101100011000000000000000000000000011000000000000000000000000000000000000000000000000000000000000000000000000000000000000000000000000000001000000000000000000000000000000000000000000000000000000000001100000000000000000000000000000000000000000000000000000000000000000000000000000000000000000000000000000000000000000000000000000000000000000000000010000110100000000000000000000000000000000000000000000001111100000000000000000000000000000000000000000001100000000000000000000000000000000000000000000000000000000000000000000000000000000000000000000000100011111000000000000000000000000000000000000000000000001100000000000000000000000000000000000000000000011000000000000000000000000000000000000000000000000000000000000000000000000000000000000000000111000000101100000000000000000000000000000000000000000000000000000000000000000000000000000000000000000000000000000000000000000000000000000000000000000000000000000000000000000000000000000000000000000001000000010000000000000000000000000000000000000000000000000000000000000000000000000000000000000000000000000000000000000000000000011000000000000000000000000000000000000000000000000000000000000000000000000010011000000000000000000000000000000000000000000000000000000000000000000000000000000000000000000000000000000000000000000000000110000000000000000000000000000000000000000000000000000000000000000000000010011000000000000000000000000000000000000000000000000000000000000000000000000000000000000000000000000000000000000000000000000000000000000000000000000000000000010000000000000000000000000000000000000000011100000000000000000000000000000000000000000000000000000000000000000000000000000000000000000110000000000000000000000000000000000000000000000000000000000000001010000000000000000000000000000000000000000001000000000000000000000000000000000000000000000000000000000000000000000000000000000000000001010000000000000000000000000000000000000000000000000000000000000010100000000000000000000000000000000000000000000000000000000000000000000000000000000000000000000000000000000000011000000000000000000000001000000000000000000000000000000000000000000000000000000000000000010000000000000000000000000000000001100000000000000000000000000000000000000000000000000000000000000000000000001001000000001100000011000000000000000000000000000000000000000000000000001000000000000000000000000000000000000000000000000000011000000000000000000000000011000000000000000000000000000000000000000000000001100000000011000001001000000000000000000000000000000000000000000000000010000000000000110000000110000000000000000000000000000000000000000000000000000000110000000000000000000100000000000000000000000000000000000000000000010100000000000000000000000000000000000000000000000000100000000000001100000010010000000000000000000000000000000000000000000000000000000000000000000000000010100000000000000000000000000000000000000000000010000000000000000000000000000000000000000000000000000000000000000000000000011000000000000000000000000000000000000000000000000000000000000000000000000000101000000000000000000000000000000000000000000000000000000000000000000000000000000000000000000000000000000000000000000000000000000000000000000000000000000000000000000000000000000000000000000000000000000100000000000000000000000000000000000000000000000000000000000000000000000000000000110000000000000000000000000000000000000000000000000000000000000000000000000000000000000000000000000000000000000000000000000000000000000000000000000000000000000000000000000000000000000000000000000000010010000000000000000000000000000000000000000000000000000000000000000000000000000010000000000000000000000000000000000000000000000000000000000000000000000000000000000000000000000000000000000000000000000101000000000000000000000000000000000000000000000000000000000000000000000000000000100000000000000000000000000000000000000000100000000000000000000000000000000000000000000000000000000000000000000000000000100000000000000000000000000000000000000000000000000000000000000000000000000000001000000000000000000000000000000000000000010100000000000000000000000000000000000000000000000000000000000000000000000000000000000000000000000000000010000000000000000000000000001100110000000000000000000000000000000000000000000000000000000000001000100000000000000000000000001000000000000000000000000000000000000000000000000000000000000000000000000000100000000000000000000000000011001100000000000000000000000000000000000000000000000000000000000001010000000000000000000000000101000000000000000000000000000000000000000000000000000000001100000000000000001000000000000000000000001100000000000000000000000000000000000000000000000000000000000000001100001000000000000000000000000001010000110000000000000000000000000000000000000000000000000100100000000000000000000000111000000000000011000000000000100000000000000000000000000000000000000000000000000011000000000000000000000010000000001000010010000000000000000000000000000000000000000000000001010000000000000000000000010001000000000000000000000000010100000000000000000000000000000000000000000000000000000000000000000000000000111000000000000011000000000000000000000000000000000000000001000000001000000000000000011000001000110000000000000000000000000101000000000000000000000000000000000000000000000000000000000000000000000101101001000000000000000000000000000000000000000000000000000000101000000000000000000000000001000101011000000000000000000000000000100000000000000000000000000000000000000000000000000000000000000000000001001010001000000000000000000000000110000000000000000000000000000110000000000000000000000000000000100000000000000000000000000000000000000000000000011000000000000000000000000000000000000000000000011000010100000000000000000000000000000010100000000000000000000000000000000000000000000000000000000000001000000000000000000000000000000000000000000000000110000000000000110000000000000000000000000000001001000000000010000000000000000000000000010000000000000000000000000000000000000000000000000000000000000011000000000010000000000000000000000000000000000000000000000000011010000000000000000000000000000010100000000001000000000000000000000000000000000000000000000000000000000000000000000000000000000000000000110000000001110000000000000000000000000000000000000000000000000010100000000000000000000000000000010000110000100000000000000000000000000000000000000000000000000000000000000000000000000000000000000000001100000000010011000000000000000000000000000000000000000000000000000010000000000000000000000000000000000000010000000010000000000000000000000000000000000000000000000000000000000000000000000000000000000000000000000111110000000000000000000000000000000000000000000000000000000000000000000000000000000000000100001000000001110000000000000000000000000000000000000000000000000000000000000000000000000000000000000000000000001010000000000000000000000000000000000000000000000000111100000000000000000000000000000000001000000000111100000000001100000011000000000000001100000000000000000000000000000000000000000000000000000000011001100000000000000000000000000000000000000000000000000010000000000000000000000000000000011000000000010100000000000011000000110000000000000100100000000000000000000000000000000000000000000000000000001100111000000000000000000000000000000000000000100001100011011000001110000010001000000000000000001000000111000000000000000001000000000000000000101000000000000000000000000000000000000000000000000000000011001100000000000000000000000000000000000000010100100000110100000000000001010101000000000000001111100001101000000000000000101000000000000110000100000000001000000000000000000000000000000000000000000000100010010000000000000000000011100000000000000011000110000100000110000000100001011000000000000110101000000101111000000000001001000000000100100000000000000101000000000000000000000000000000000000110000101010100000000000000000000000000000000000000000000000000000000001100000000000010000000000000000101100000000110110000000000001100000000000000100000000000001010000000000000000000000000000000000001010000101111111000000000000000000000000000000000000000000000000000000000000000100000011011000000000000111000000000111000000000000000000000000000011100000000000001000000000000000000000000000000000000100101111111000000000000000000000000000000000000000000000000000000000000000000000010000010001100000000000000000000000000000000000000000000001011000010000000000000000000000000000000000000000000000000001111000000000000000000000000000000000000000000000000000000000000000000000000000000011101000011000000110000000000000001000000000000000000000111111111100000000000000000000000000000000000000000000000000100000100000000000000000000000000000000000000000000000000000000000000000000000000000000010000001000010010000000000001000100000000000000000011100001010000000000000000000000000000000000000000000000000001100101000000000000000000000000000000000000000000000000000000000000000000000000000000000010000100000100100000000000100001101000000000000000011010001000000000000000000000000000000000000000000000000000001111101000000000000000000000000000000000000000000000000000110001100000000000000000000000010001000000110000000000000001011010000000000000000010100110000000000000000000000000000000000000000000000000000001111100000000000000000000000000000000000000000000000000000000100000000000000000110000000011000000000000000000000000001000000000000000000000101000000011000000000000000001000000000000000000000000000000001110000000000000000000000000000000000000000000000000000001000110000000011000001100000000000000000000000000000000110010000000000000000000000000000000110000000000000000101000000000000000000000000000000001000000000000000000000000000000000000000000000000000000011000000000000110000000000000000000000000000000000000000000000011000000000000000000000000101100000000000000001010000000000000000000000000000000000000000000000000000000000000000000000000000000000000000110000000000000000000000000000000000000000000000000000000111001001000000000000000000000000100000000000000000001000000000000000000000000000000000000000000000000000000000000000000000000000000000000000000000000000000000000000000000000000000000000000000000000000000010100000000000000000000000000000000000000000000000000000000000000000000000000000000000000000000000000000110000000000000000000000000000000000000000000000000000000000000000000000000111000000000000000000010000000000000000000000000000000000000000000000000000000000000000000000000000000000000000000000000000001100000000000000000000000000001000000000000000000000000000000000000000000000000000011100000000000000000000000000000000000000000000000000000000000000000000000000000000000000001110000000000000000000000000000000000000000000000000000010000000000000000000000011000000000000000000000000000100000000000000000000000000000000000000000000000000000000000000000000000000000000000000000000000000000000000000000000000000000000000000000000000000100000000000000000000001001000000001100000000000000000100000000000000000000000000000000000000000000000000000000000000000000000000000000000000000000000000000000000000000000000000000000000000000000000000000000000000000000000010010000000101000000000000000000000000000000000000000000000000000000000000000000000000000000000000000000000000000000000000000000000000000000000000000000000000000000000000000000000000000000000000000000011000000000100000000000000000000000000000000000000000000000000000000000000000000000000000000000000000000000000000000000000000000000000000000000000000001100000000000000000000000000000000000000000000000000000000000000000000000000000000000000000000000000000000000000000000000000000000000000000000000000000000000000000000000000000000000000000110000000000100100000000000000000000000000000000000000000000000000000000000000000000100000000000000000000000000000000000000000000000000000000000000000000000000000000000000000000000000000000000000000001100000000000110000000000000000000000000000000000000000000000000000000000000000000010100000000000000000000000000000000000000000000000000000000000000000000000000000000000000000000000000000000000000000000000000000000000000000000000000000000000000000000000000000000000000000000000000001010000000000000000000000000000000000000000000000000000000000000000000000000000000000000000000000000000000000000000000000000000000000000000000000000000000000000000000000000000000000000000000000000000101000000000000000000000000000000000000000000000000000000000000000000000000000000000000000000000000000000000000000000000000000000000000000000000000000000000000000000000000000000000000000000000000000000100000000000000000000000110000000000000000000000000000000000000000000000000000000000000000000000000000000000000000000000000000000000000000000000000000000000000000000000000000000000000000000000000000000000000000000000000000001100000000000000000000000000000000000000000000000000000000000000000000000001110000000000000000000000000000000000000000000000000000000000000000000000000000000000000000000000000000000000000000000000000000000000000000000000000000000000000000000000000000000000000000000000000000000000000000000000000000000000001000000000000000000000000000000000000000000000000000000000000000000000000000000000000000000000000000000000000000000000000000000000000000000000000000000000000000000000000000000000000000000000000000000101000000000000000000000000000000000000000000000000000000000000000000000000000000000000000000000000000000000000000000000000000000000000000000000000000000000000000000000000000000000000000000000000000001010000000000000000000000000000000000000000000000000000000000000000000000000000000000000000000000000000000000000000000000000000000000000000000000000000000000000000000000100000000000000000000000000000001000000000000000000000000000000000000000000000000000000000000000000000000000000000000000000000000000000000000000000000000000000000000000000000000000000000000000000000001000000000000000000000000000000000000000000000000000000000000000000000000000110000000000000000000000000000000000000010000000000000000000000000000000000000000000000000000000000000000000000000000000000010000000000000000000000000000000000000000000000011000001000000000000000000001100000000000000000000000000000000000000010001000000000000000000000000000000000000000000000000000000000000000000000000000000000000000000000000000000000000000000000000000000110000010000000000000000000000000000000000000000000000000000000011000100001000000000000000000000000000000000000000000000000000000000000000000000000000000000000110000000000000000000000011000000000000000000000100000000000000000000000000000000000000000000000000000000100010010010000000000000000000000000000000000000000000000000000000000000000000000000000000000001010000000000000000000000110000000000000000000000000000000000000000000000000000000000000000000000000000001010001111000000000000000000000000000000000000000000000000000000000000000000000000000000000000001100000000000000000000000000000000000000000000000000000000000000000000000000000000000000000000000000000001100011000000000000000000000000000000000000000000000000000000000000000000000000000000000000000000000000000000000000000000000000000000000000000000000000000000000000000000000000000000000000000000000000000000000000000000000000000000000000000000000000000000000000000000000000000