P1
200 200
0001100000000000000000000000000000000000000000000000000000000000000000000000000000000000000000000000000000000000100000000000000000000000000000000000000000000000000000000000000000000000010000000000000000001100000000000000000000000000000000000000000000000000000000000000000000000000000000000000000000000000010000010100000000000000000000000000000000000000000000000000000000000000000000001010000000000000001010000000000000000000000000000000000000000000000000000000000000000000000000000000000000000000000000001010000100100000000100000000000000000000000000000000000000000000000000000000000010100000000000000011000000000000000000000000000000000000000000000000000000000000000000000000000000000000000000000000000011000000110000000010100000000000000000000000000000000000100000000000000000000000010000000000000001000000000000000000000000000000000000000000000000000000000000000000000000000000000000000000000000000000000000000000000000101000000000000000000000000000011100010100000000000000000000000000011100000000000000000000000000000000000000000000000000000000000000000000000000000000000000011000000000000000000000000000000000000000000100000000000000000000000000000000000100100000000000000000000000000000000000000000000000000000000000000000000000000000000000000000000000000000000000000000000110000000000000000000000000000000000000000000000000000000000000000000000000000000110000000000000000000000000000000100000000000000000000000000000000000000000000000000000000000000000000000000000000000000000000000000000000000000000000000000001100000001100000000000000000000000000000000000000000001100000000000000000010100000000001000000000000000000000000000000000000000000000000000000000000000000000000000000000000000000000000000000000000000100100000100100000000000000000000000000000000000000000011000000000000000000001000000011101000000000000000000000000000000000000000000000000000000000000000000000000000000000000000000000000000000000000000110000000110000000000000000000000000000000000000000000000000000000000001100000000001000001000000000000000000000000000000000000000000000000000000000000000000000000000000000000000000000000000000000000000000000000000000000000000000000000000000000000000000000000000000000001110001000000001110100000000000000000000000000000000000000000000000000000000000000000000000000000000000000000000000000000000000000000000100000000000000000000000000000000000000000000000000000000000000100000100000000000010000000000000000000000000000000000000000000000000000000000000000000000000000100000000000000000000000000000000000000010100000000000000000000000000000000000000000000000000000000010000000100000000000000000000000000000000000000000000000000000000000000000000000000000000000000000001000000000000000000000000000000000000000101000000000000000000000000000000000000000000000000000000001000000000000110000000000000000000000000000000000000000000000000000000000000110000000000000000000000010000000000000000000000000000000000000000100000000000000000000000000000000000000000000000000000000100001100000001100000000000000000000000000000000000000000000000000000000000010010000000000000000000000000000000000000000000000000000000000000000000000000000000000000000000000000000000000000000000000001000000000000011000000000000000000000000000000000000000000000000000000000000101000000000000000000011100011100000000000000000000000000000000000000000000000000000000000000000000000000000000000000000000011010000000000000000000000000000000000000000000000000000000000000000000000000100000000000000000000000000000000000000000000000000000000000000000000000000000000000000000000000000000000000000000000000000001110000000010000000000000000000000000000000000000000000000000000000000000000000000000000000000000000100000000000000000000000000000000000000000000000000000000000000000000000000000000000000011000001100011100000011010000000000000000000000000000000000000000000000000000000000000000000000000000000000000001000000000000000000000000000000000000000000000000000000000000000000000000000000000000000110000011000000000001000100000000000000000000000000000000000000000000000000000000000000000000000000000000000000001000000000000000000000000000000000000000000000000000000000000000000000000000000000000000000000000000000001101010000000000000000000000000000000000000000000000000000000000000000000000000000000000000000000000000000000000000000000000000000000000000000000000000000000000000000000000000000000000000000000110000010011000000000000000000000000000000000000000000000000000000000000000000000000000000000000000000010000000000000000000000000000000000000000000000000000000000001000000000000000000000000000000000001100000101000000000000000000000000000000000000000000000000000000000000000000000000000000000000000000000110000000000000000000000000000000000000000000000000000000000101000000000000000000000000000000000000000000011000000000000000000000000000000000000000000000110000000000000000000000000000000000000000000000000000000000000000000000000000000000000000000000000000000001001100000000000000000000000000000000000000001100000000000000000000000000000000000000000000010010000000000000000000000000000000000000000111000010000000000000000000000000000000000000000000000000000000001011000000000000000000000000000000000000000000000000000000000000000000000000000000000000000100100000000000000000000000000000000000000010000000001000000000000000000000000000000000000000000000000000000001000000000000000000000000000000000000000000000011000000000000000000000000000000000000000000110000000000000000000000000000000000000001000000000010000000000000000000000000000000000000000000000000000000000100000000000000000000000000000000000000000001001000000000000000000000000000000000000000000000000000000000000000000000000000000000001000010000000000000000000000000000000001000000000000000000000000000101000001100000000000000000000000000000000000001100010000000000000000000000000000000000110000000000000000000000000000000000000000000001110000000000000000000000000000000000101000000000000000000000000011000000011000000000000000000000000000000000000000000100000000000000000000000000000000001100000000000000000000000000000000000000000000000011010000000000000000000000000000001010000000000000000000000000000000000000000000000000000000000000000000000000000000000000000000000000001000000000000000000000000011000000000000000000000000000000000000010000000000000000000000000000000001000000000000000000000000000000000000000000000000000000000000000000000000000000000000000000000000000011000000000000000000000001001000000000000000000000000000000000000000000000000000000000000000000000000000000000000000000000000000000000000000000000000000000000000000000000000001100010000010000000000000001000000000000000000000010100000000000000000000000000000000000000000000000011000000000000000000000000000000000000000000000000000000000000000000000000000000000000000000000000110100000001010000000000101100000000000000000000000010000000000000000000000000000000000000000000000001001000000000000000000000000000000000000000000000000000000000000000000000000001000000000000000000001111001000010010000000001110000000000000000000000000000000000000000000000000000000000000000000000000001100001010000000000000000000000000000000000000000000000000000000000000000000101000000000000000000000011100000011000000000011000000000000000000000000000000000000000000000000000001000000000000000000000000000010110000000000000000000000000000000000000000000000000000000000000000001010000000000000000001000000000000000000000001100000000000000000000000000000011000000000000000000000010000000000000000000000000001000000000000000000000000000000000000000000000000000000000000000000000001000000000000000000011100000000000000000001110000000000000000000000000000000110000000000000000000000100000000000000000000000000011101000000000000000000000000000000000000000000000000000000000000000000000000001110000000000010000000000000000000010100000000000000000000000000000000000000000000000000000000000000000000000000000000000010000000000000000000000000000000000000000000000000000000000000000000000000000000000000000000000000000000000000001011011000000000000000000010000000000000000000000000000000000000000000000000000000000000000000000000000000000000000000000000000000000000000000000000000000000000000000000000000000000000000000000000000000000001000000000000000001010000000000000000000000000000000000000000000000000000000000000000010000000000000000000000000000000000000000000000000000000000000000000000000000000000000000000000000000000001110000001000000000000000010010000000000000000000000000000000000000000000000000000000010000000000000000000000000000000000000000111000000000000000000000000000000000000000000000000000000000000000000000000010000001000000000011000011000000000000000000000000000000000000000000000000000000000100000000000000000000000000000000000000001001000000000000000000000000000000000000000000000000000000000000000000000001100110011000000000110000000000000000000000000000000000000000000000000000000000000001000000000000000000000000000000000000000011010000000000000000000000000000000000000000000000000000011000000000000000000010000100000000000000000000000000000000000000000000000000000000000000000001110000000000000000000000000000000000000000000000001000000000000000000011000000000000000000000000000000000110000000000000000000100010000000000000000000000000000000000000000000000000000000000000000000000100000000000000000000000000000000000000000000000000000010000000000001001000000000000000000000000000000000000000000000000000001110000000000100000000000000000000000000000000000000000000000000000000000010000000000000000000000000000000000000000000000000000001110000000000001100000000000000000000000000000000000000000000000000000011100000000011100000000000000000000000000000000000000000000000000000000000000000010000000000000000000000000001000000000000000001101010000000000000000000000000000000000000000000000000000000000000000000000000000001010100000000000000000000000000000000000000000000000000000000000000000100000000000000000000100000101001000000000000001000110000000000000000000000000000000000000000000000000000000000000000000000000000111011100000000000000000000000000000000000000000000000000000000000000001000000000000000000010100000001010110100000001010011100000000000000000000000000000000000000000000000000000000000000000000000000000101010000000000000000000000000000000000000000000000000000000000000000000000000000000000000100100000010100101000000100101010000000000000000000000000000000000000000000000000000000000000000000000000000000111000000000000000000000000000110000000000000000000000000000000000000000000000000000110000110010000100100101000000110110100000000000000000000000000000000000000000000000000000000000000000000000000000000100000000000000110000000000001100000000000000000000000000000000000000000000000000001100000000100001000111100000000000101000000000000000000000000000000000000000000000000000000000000000000000000000000000000000000000001100000000000000000000000000000000000000000000000000000000000000000000000000000100010000111000000000000100000000000000000000000000000000000000000000000000000000000000000000000001100000000000000000000000000000000000000000000000000000011000000000000000000000000000000000000000000000111000000000000000000000000000000000000000000000000000000000000000000000000000000000000000000000011000000000000000000000000000000000000000000000000000000110000000000000000000000001110000000000000000000000000000000000000000000000000000000000000000000000000000000000000000000000000000000000000000000000000000000000000000000110000011000000000000000000000000000000000000011000000000000000000000000000000000000000000000000000000000000000000000000000000000000000000000000000000000000000000000000000000000000000000000000001100010010000110000000000000000000000000000000000000101000000000000000000000000000000000000000000000000000000000000000000000000000000000000000000000000000000000000000000000000000000000011000000000000011000010100000000000000000000000010000000000000000000100000000000000000000000000000000000000000000000000000000000000000000000000000000000000000000000000000000000011000000000000000000000110000000000000000000010000000000000000000000000110000000000000000000000000000000000000000000000000000000000000000000000000000000000000000000000000000000000000000000000000000001001000000000000000000000000000000000000000000000000000000000000000001011110000000000000000000000000000000000000000000000000000000000000000000000000000000000000000000000000000000000000000000000000000010010000000000000000000000000000000000000000000000000000000000000000101111110000000000000000000000000000000000000000000000000000000000000000000000000000000000000000000000000000000000000000110000000000011000000000000000000000000000000000000000000000000000000000000000000111110100000000000000000000000000000000000000000001100000111000000000000000000000000000000000000000000000000000000000001100000000000000000000000000000100000000000000000000000000000000000000000000000000000010000000000000000000000000001100000000000000011000000000000000000000000000000000000000000000000000000000000000000000000000000000000000000000000011100000000000000000000000000000000000000000000000000000000000000000000000000000000100100000000000000000000000000000000000000000000000000000000000000000000000000000000000000000000000000000000000000000101100000000000000000000000000000000000000000000000000000000000000000000000000000000110000000000000000000000000000000000000000000000000000000000000000000000000000000000000000000000000000000000000000000000000000000000000000000000000000000000000011001001111000000000000000000000000000000000000000000000000000000000000000000000000000000000000000000000000000000000000000000000000000000000000000000000000000000000000000000000000000000000000000000000101011011101000000000000000000000000000000000000000000000000000000000000000000000000000000000000000000000000000000000000000000000000000000000000000000000001000000000000000000000000000111000000000000000001100000010000000000000000000000000000000000000000000000000000000000000000000000000000000000000000000000000000000000000000000000000110000000000000000000101000000000100000000000000000000000000000000001010000010010000000000000000000000000000000000000000000000000000000000000000000000000000000000000000000000000000000000000000000000010010000000000000000000010000000110110000000000000001000000000000000001000001001000000000000000000110000000000000000000000000000000000000000000000000000000000000000000000000000000000000000000000000000011000000000000000000011010000001100100000000000000110100000000010100000000001010000000000000000010010000000000000000000000000000000000000000000000000000000000000000000000000000000000000000000000000000000000000000000000000000111000001001000000000000000001000000000100100000000000000000000000000000011000000000000000000000000000000000000000000000000000000000000000000000000000000000000000000000000000000000000000000000000000000110000010100000000000001000010000000001001000000000101000000000000000000000000000000000000000000000000000000000000010000000000000000000000000000000000000000000000000000000000000000000000000000000000110110110000000000000000010000000000000001100011000010010000000000000000000000000000000000000000000000000000000000001010000000000000000000000000000000000000000000000000000000000000000000000000000000010110011000000000000000001000010001110000000110010000010010000000000000000000000000000000000000000000000000000000000010100001100000000000000000000000000000000000000000000000000000000000000000000000000101000000000000000000000010001000011100000001001111000011000000000000000000000000000000000000000000000000000000000000010000010100000000000000000000000000000000000000000000000000000000000000000000000000100000000000000000000000010100000011000000001101111100101000000000000000000000000000000000000000000001100000000000000000000101000000000000000000000000001000000000000000000000000000000000000000000000000000000000000000000000000000000000110000000000110000100110000000000000000000000000000000000000000000011000000000000000000000100000000000000000000000000101000000000000000000000000000000000000000000000000000000000000000000000000000010111000000000000101000001100000000000000000000000000000000000000000000000000000000000000000000000111000000000000000000000100000000000000000000000000000000000000000000000000001000000000000000000000000011100000000000000110111101100000000000000000000000000000000000000000000000000000000000000000000001110000000000000000000000000000000000000000000000000000000000000000101000000100000000000000000000000000110000000000000000000111010000000000000000000000000000000000000000000000000000000000000000000000001000000000000000000000000000000000000000000000000000000000000000011101000000010000000000000000000000000010000000000000000000011100000000000000000000000000000000000000000000000000000000000000000000000000000000000000000000000000000000000000000000000000000000000000011000000100011100000000000000000000000000100001100000000000000000000000000011000000000000000000000000000000000000000000000000000000000000000000000000000000000000000000000000000000000000000000000000011101100000000100000000000000000000000000001000100100000000000000000000000000110000000000000000000000000000000000000000000000000000000000000000000000000000000000000000000000000000000000000000000000001001011111010001000000000000000000000000000000000110000000000000000000000000000000000000000000000000000000000000000000000000000000000000000000000000000000000000000000000000000000000000000000000000000011100000000010101100000000000000000000000000000000000000000000000000000000000000000000000000000000000000000000000000000000000000000000000110000000000000000000000000000000000000000000000000000000000000010111000000011011000000000000000000000000000000000000000000000000000000110000000000000000000000000000000000000000000000000000000000000001000000000000000000000000000000000000001000000000000000000000000011100000000000000000000000000000000000000000000000000000000000000000010010000000000000000000000000000000000000000000000000000000000000000000000000000000000000000000000000000101000000000000000000000000011000000000000000000000000000000000000010000000000000000000000000000100100000000000000000000000000000000000000000000000000000000000000000000000000000000000000000000000000001010000000000000000000000000000000000000000000000000000000000000000100000000000000000000000000000110000000000000000000000000000000000000000000000000000000000000000000000000000000000000000000000000000001000000000000000000000000000000000000000000000000000000000000000001000000000000000000000000000000000000000000000000000000000000000000000000000000000000000000000000000000000000000000000000000000000000000000000000000000000000000000000000000000000000000000000000000000000000000000000000000000000000000000000000000000000000000000000000000000000000000000000000000000000000000000000000000000000000000000000000000000000000000000000000000000000000000000000000000000000000000000000000000000000000000001100000000000000000000000000000000000000000000000000000000000000000001000000000000000000000000000000000000100000000000000000000000000000000000000000000000000000000000000000000000000000000000000000000100100000000000000000000000000000000000000000110000000000000000000000010001000000000000000000000000000000001000000000000000000000000000000000000000000000000000000000000000000000000000000000000000000000110000000000000000000000000000000000000000010010000111000000001100000100100000000000001000000000000000000010000000000000000000000000000011000000000000000000000000000000000000000000000000000000000000000000000000000000000000000000000000000000000010100000000000000011000011011000000000000010000000000000000000000000000000000000000000000000110110000000000000000000000000000000000000000000000000000000000000000000000000000000000000000000000000000000010001000001000000100000010100000000000000100000000000000000000000000000000000000000000000010000010000000000000000000000000000000000000000000000000000000000000000000000000000000000000000000000000000000000011101110000010000000010000000000000000000000000000000000000000000000000000000000000000010000100000000000000000000000000000000000000000000000000000000000000000000000000000000000000000000000000000000000000100000011011000000000000000000111000111000000000000000001110000000000000000000000000100011000000000000000000000000000001000000000000000000000000000000000000000000000000010000000000000000000000000001000001000110110000000000000000000000000000000000000000000000000000000000000000000000000011000000000000000000000000000000101000000000000000000000000000000000000000000000000100000000000000000000000000001100000001111011000000000000000000001000000000000000000000001000000000000000000000000000000000000000000000000000000000001001000000000000000000000000000000000000000000000001000000000000000000000000000000111000000000011000000000000000000010000000000000000000001110000000000000000000000000000000000000000000000000000000000001100000000000000000000000000000000000000000000000000000000000000000000000000000000000110000000011000000000000000000100000000000000000000000000000000000000000000000000000000000000000000000000000000000000000000000000000000000000000000000000000000000000000000000000000000000000000000000000000000001110000000000000000000000000000000000000000000000001000000000000000000000000000000000000000000000000000000000000000000000000000000000000000000000000000000000000000000000000000000000000101000000001100001100000000000000000000000000000000000001101100001101000000000000000000000000000000000000001110000000000000000000000000000000000000000011100000000000000000000000000000000000000000000000110110000011100100000000000000000000000000000000000000101010000000010000000000000000000000000000000000000000000000000000000000000000000000000000000000000000000000000000000000000000000000000000000000000011000000011000000000000000000000000000000000000000001000010000111001000000000000000000000000000000000010000010000000000000000000000000000000000000000000100000000000000000000000000000000000000000000001101000100000000000000000000000000000000000000010000001000000000000111000000000000000000000000000000000100000100000000000000000000000000000000000000000001000000000000000000000000000000000111000000000001110010000000000000000000000000000000000000001001000000000000000010011000000000000000000000000000000001000001000000000000000000100000000100000000000000010000000000010000000000000000000000000000000000000111000000000000000000000000000000000000100001011001111100000000110001000000011000000000000000000000000000000000000000000000010100000011100000000000000000000000001010000000000000000000000000000000000000010000010000000000000000000000000000010100000000011000100000000000011110000110000000000000000000000000000000000000000000000101000001101000000000000000000000000010100000000000000000000000000000000001000000011010001100000000000000000000001010000011100110000000000000000111100000000000000000000000000000000000000000000000000000100000010000000000000000000000000000010000000000000000000000000000000000100000000010110100100000000000000000000010100000000001100000000000000001100000000000000000000000000000000000000000000000000000000000011100000000000000000000000000000000000000000000000000000000000000011000000001101000110000000000000000000000110000000000011011000001100000010000000000000000000000000000000000000000000000000000000000000011000000000000000000000000000000000000000000000000000000000000000011000000010000000000000000000000000000000000000000000001100000010011011000000000000000000000000000011100000000000000000000000000000000000001000000000000000000000000000000000000000000000000000000000000010000000000000000000000000000000000000000000000000000011100000001100100000011000000000000000000000000000000000000000000000000000000000000000000010000000000000000000000000000000000000000000000000000000000001100000000000000000000000000000000000000000000000000000001011000000001001000000000000000000000000100000000000000000000000000000001110000000010000000000000000000000000000000000000000000000000000000000101000000000000000000000000000000000000000000000001001000111000000000001010000000000000000000000001000000000000000000000000000000000100001000100000000000000000000000000000000000000000000000000000000001010000000000000000000000000000000000000000000000011000101010000000000001000000000000000000000000010000000000000000000000000000000110111000010000000000000000000000000000000000000000000000000000000000000000000000000000000000000000000000000000000000000000101011000000000000000000000000000000000000000000000000000000000000000000000000000111000000000000000000000000000000000000000000000000000000000000000000000000000000000000000000000000000000000000000000001000101000000000000000000000000000000000000000000000000000000000000000000000000001101100000000000000000000000000000000000000000000000000010000000000000000000000000000000001100000000000000000000000000000100110000000000000000000000000000000000000000000000000000000000000000000000000000000000000000000000000000000000000000000000000000000001010000000000000000000000000000000011000000000000000000000000000001110000000000000000000000000000000000000000000000000000000000000000000000000000000000000000000000000000000000000000000000000000000000010100000000000000000000000000000000000000000000000000000000000000000000000000000000000000000000000000000000000000000000000000000000000000000000000000000000000000000000000000000000000000000000000000000010000000000000000000000000000000000000000000001100000000000000000000000000000000000000000000000000000000000000000000000000000000000000000000000000000000000000000000000000000000000000000000000000000000000000000000000000000000000000000000000000000011000000000000001000000000000000000000000000000000000000000000000000000000000000000000000000000000000000000000000000000000000000000000000000000000000000000000000000000000000000000000000000000000000000000000000000000100101100000000000000000000000000000000000000000000000000000000000000000000000000000000000000000000000000000000000000000000000000000000000000000000000000000000000000000000000000000000000000000000000001000001000000000000000000000000000000000000000000000000000000000000000000000000000000000000000000000000000000000000110000000000000000000000000000000000000000000000000000000000000000000000000000000000001000100000000000000000000000000000000000000000000000000000000000000000000000000000000000000000000000000000000000001100000000000000000000000000000000000000000000000000000000000000000000000000000000000001001000000000000000000000000000000010000000000000000000000000000000000000000000000000000000000000000000000000000000000000000000000000000000000000000000000000000000000000110000000000000000000000000000000000000000000000000000000000000001010000000000000000000000000000000000000000000000000000000000000000000000000000000000000000000000000000000000000000000000000000000000001010000000000000000000000000000000000000000000000000000000000000010100000000000000000000000000000000000000000000000000000000000000000000000000000000000000000000000000000000000011000000000000000000000001000000000000000000000000000000000000000000000000000000000000000010000000000000000000000000000000001100000000000000000000000000000000000000000001110000000000000000000000000001001000000001100000011000000000000000000000000000000000000000000000000000000000000000000000000000000000000000000000000000000011000000000000000000000000011000000000000000100000000000000000000000000000001100000000011000001001000000000000000000000000000000000000000000000000111000000000000110000000110000000000000000000000000000000000000000000000000000000110000000000111001000100000000000000000000000000000000000000000000010100000000000000000000000000000000000000000000000000000000000000001100000010010000000000000000000000000000000000000000000000000000000000000000000001000001000000000000000000000000000000000000000000000010000000000000000000000000000000000000000000000000000000000000000000000000011000000000000000000000000000000000000000000000000000000000000000000100001011100000000000000000000000000000000000000000000000000000000000000000000000000000000000000000000000000000000000000000000000000000000000000000000000000000000000000000000000000000000000000000000001110010000000000000000000000000000000000000000000000000000000000000000000000000000000000000110000000000000000000000000000000000000000000000000000000000000000000000000000000000000000000000000000000000000001100000000000000000000000000000000000000000000000000000000000000000000000000000000000010010000000000000000000000000000000000000000000000000000000000000000000000000000000000000000000000000000000000000000000000000000000000000000000000000000000000000000000000000000000000000000000000000000101000000000000000000000000000000000000000000000000000000000000000000000000000001110000000000000000000000000000000000000000000000000000000000000000000000000000000000000000000000000000000000000000000000100000000000000000000000000000000000000000000000000000000000000000000000000000000000000000000000000000000000000000000000000000000000000000000000000000000000000000000000000000000000000000000000000000000000000000000000000000000000000000000000000000000000001100110000000000000000000000000000000000000000000000000000000000000000000000000000000000000000001000000000000000000000000000000000000000000000000000000000000000000000000001110000000000000000000000000011001100000000000000000000000000000000000000000000000000000000000000000000000000000000000000000101000000000000000000000000000000000000000000000000000000001100000000000000000000000000000000000000001100000000000000000000000000000000000000000000000000000000000000000000000000000000000000000000000001010000110000000000000000000000000000000000000000000000000100100000000000000000000000000000000000000011000000000000100000000000000000000000000000000000000000000000000000000000000000000000000000000000001000010010000000000000000000000000000000000000000000000001010000000000000000000000000000000000000000000000000000010100000000000000000000000000000000000000000000000000000000000000000000000000000000000000000011000000000000000000000000000000000000000001000000001000000000000000000000000000000000000000000000000000000101000000000000000000000000000000000000000000000000000000000000000000000000000110000000000000000000000000000000000000000000000000000000101000000000000000000000000000000000000000000000000000000000000000100000000000000000000000000000000000000000000000000000000000000000000000000010010000000000000000000000000110000000000000000000000000000110000000000000000000000000000000000000000000000000000000000000000000000000000000011000000000000000000000000000000000000000000000001000000000100100000000000000000000000010100000000000000000000000000000000000000000000000000000000000001110000000000000000000000000000000000000000000000110000000000000000000000000000000000000000000000101000000000110000000000000000000000000010000000000000000000011000000000000000000000000000000000000000000000110000000000000000000000000000000000000000000000000000000000000000000000000000000000000000010010000000000000000000000000110000000000000000000000000000000111000000000000000000000000000000000000000000010010000000000000000000000000000000000000000000000000000000000000000000000000000000000000000011000000000000000000000010001110000000000000000000000000000000001100000000000000000000000000000000000000000101000000000000000000000000000000000000000000000000000000000000000000000000000000000000000000000000000000000000000001100101001000000000000000000000000000000000100000000000000000000000000000000000000000100000000000000000000000000000000000000000000000000000000000000000000000000000000000000000000000000000000000011000101111000111000000000000000000000000000101110000000000000000000000000000000000000000000000000000000000000000000000000000000000000000000000000000000000000000000000000000000000000000000000001100001110000101100100011000011000000000000000000000011000000000000000000000000000000000000000000000000000000000000000000000000000000000000000000000000000000001000000000000011000000000000000000000000100100111100101011111001110000110000000000000000000000000000000000000000000000000000000000000000000000000000000000000000000000000000000000000000000000000000000011000000000001110000000000000000000000000101000000001011111101010000000000000000000000000000000000000000000000000000000000000000000000000001000000110000000000000000000000000100000000000000000000000001000000000000001100000000000000000000000000110000000010011000110000000000000000100000100000000000001000000000000000000000000000000000000000001100001100000000000000000000000001000000000000000000000000001001000010000000000000000000000000000000000001001000110110000100000000000000001110010100000000000101000000000000000000000000000011100000000011000000000000000000000000000000010000000000000000000000001100100001100000000000000000000000000000000000001111000000000000000111000000001100011100100000000001010000000000000000000000000011011000110000110000000100000000000000000000000000000000000000000100010101010000000000000001100000000000000000000000000001110000000000000010001000000011110110111001000000001000000000000000000000000000100101001100010000000010100000000000000000000000000000000011000010100001110000000000000000100100000000000000000000000000000000000000000000010001000000110000000010001000000000000000000000000000001100001110011000000000000001001000000000000000000000000000000000110001100000010011100000000000000111000000000000000110000000000000000000000000000011010000000000011000100010000000000000000000000000000011000000000001000000000000001100000000000000000000000000000000000000101100001000011000000000000000000000000000000010010000000000000001100000000000001000000000001010011000100000000000000000000000000000000000000000000000000000000000000000000000000000000000000000000000001111101011000011000000000000000000000000000000100100110001100000100100001010000000000000000111000010010000000000000000000000000000000000000000000000000000000000000000000000000000000000000000000000000011100001000000100000000000000000000000000000000110001100100100001001001000111000000000000001100000000000000000000000000000000000000000000000000000000000000000000000000000000000000000000000000000000000111111000100110000000000000000000000000000000000000000000101000001100010100110000000010000000000000000000000000000001000000000000000000000000000000000000000000000000000000000000000000000000000000000001000010001000100000000000000000000000000000000000000000000100000000001000001000000001110000000000000000000000000000101000000000000000000000000000000000000000000000000000000000000000000000000000000000011000000010010000000000000000000000000000000000000000000000000000000001101110000000010010000000000000000000000000001010000000000000000000000000000000000000000000000000000000000000000000000000000000000010000000011000000000000000000000000000000000000000000000000001100000000000000000000001100000000000000000000000000001000000000000000000000000000000000000000000000000000000000000000000000000000000000000001000000000000000000000000000000000000000000001000000000000011000000000000000000000011000000000000000000000000000000000000000000000000000000000000000000000000000000000000110000000000000000000000000000000010001100000000000000000000000000000000000010000000000000000000000000000000000001110000000000000000000000000000000000000000000000000000000000010000000000000000000000001100000000000000000000000000000000100011000000000000000000000000000000000000100000000000000000000000000000000001001100000000000000000000000000000000000000000000000000000000000100000000000000000000000000000000000000000000000000000111000000000000000000000011000000000000000000000000000000000000000000000000000000000010000000000000000000000000000000000000000000000000000000000001000000000000000000000000000000000000000000000000000000000000000000000000000001001000000001100000000000000000000000000000000000000000000001110000000000000000000000000000000000000000000000000000000000000000000000000000000000000000000000000000000000000000000000000000000000000000010010000000101000000000000000000000000000000000000000000000001100000000000000000000000000000000000000000000000000000000000000000000000000000000000000000000000000000000000000000000000000000000000000000011000000000100000000000000000000000000000000000000000000000000000000000000000000000000000000000000000000000000000000000000000000000000000000000000000001100000000000000000000000000000000000000000000000000000000000000000000000000000000000001000000000000000000000000000000000000000000000000000000000000000000000000000000000000000000000000000110000000000100100000000000000000000000000000000000000000000000000000000000000000000100000000000000001000000000000000000000000000000000000000000000000000000000000000000000000000000000000000000000000001100000000000110000000000000000000000000000000000000000000000000000000000000000000010100000000000010111000000000000000000000000000000000000000000000000000000000000000000000000000000000000000000000000000000000000000000000000000000000000000000000000000000000000000000000000000000000001010000000000001100110000000000000000000000000000000000000000000000000000000000000000000000000000000000000000000000000000000000000000000000000000000000000000000000000000000000000000000000000000000000101000000000000011001100000000000000000000000000000000000000000000000000000000000000000000000000000000000000000000000000000000000000000000000000000000000000000000000000000000000000000000000000000000000100000000000000000000000000000000000000000000000000000000000000000000000000000000000000000000000000010000000000000000000000000000000000000000000000000000000000000000000000000000000000000000000000000000000000000000000000110000000000000000000000000000000000000000000000000000000000000000000000000000000100000000000000000000000000000000000000000000000000000000000000000000000000000000000000000000000000000000000000000010000100000000000000000000000000000000000000000000000000000000000000000000000000000001000000000000000000000000000001000000000000000000000000000000000000000000000000000000000000000000000000000000000000100001000000000000000000000000000000000000000000000000000000000000000000000000000000000000000000000000000000000000101000000000000000000000000000000000000000000000000000000000000000000000000000000000000010100000000000000000000000000000000000000000000000000000000000000000000000000000000000000000000000000000000000001010000000000000000000000000000000000000000000000000000000000000000000000000000000000000000000000000000000000000000000000000000000000000000000000000000000000000000000000000000000000000000000000000000001000000000000000000000000000000000000000000000000000000000000000000000000000000000000000000000000000000000000000000000000000000000000000000000000000000000000000000000011100000000000000000000000000000000000000000000000000000000000000000000000000110000000000000000000000000000000000000000000000000000000000000000000000000000000000000000000000000000000000000000000000000000000000000000000000000000000000000000000000000011000000000000000000000000001100000000000000000000000000000000000000000000000000000000000000000000000000000000000000000000000000000000000000000000000000000000000000000000000000000000000000000000000000110000111000000000000000000000000000000000000000000000000000000000000000000000000000000000000000000000000000000000000000000000000000000000000000000000000000000110000000000000000000000011000000000000000000000000000000000000000000000000000000000000000000000000000000000000000000000000000000000000000000000000000000000000000000000000000000000000000000000000000001010000000000000000000000110000000000000000000000000000000000000000000000000000000000000000000000000000000000000000000000000000000000000000000000000000000000000000000000000000000000000000000000000000001100000000000000000000000000000000000000000000000000000000000000000000000000000000000000000000000000000000000000000000000000000000000000000000000000000000000000000000000000000000000000000000000000000000000000000000000000000000000000000000000000000000000000000000000000000000000000000000000000000000000000000000000000000000000000000000000000000000000000000000000000000000000000000