P1
200 200
0000000000000000000000000000000000000000000000000000000000000000000000000000000000000000011000110000000000000000100000000000000000000000000000000000000000000000000000000000000000000000010000000000000000100000000000000000000000000000000000000000000000000000000000000000000000000000000000000000101100000000010000010100000000000000000000000000000000000000000000000000000000000000000000001010000000000000010100000000000000000000000000000000000000000000000000000000000000000000000000000000000001001000000000001010000100100000000000000000000000000000000000000000000000000000000000000000000010100000000000001000100000000000000000000000000000000000000000000000000000000000000000000000000000000000010110000000000011000000110000000011100000000000000000000000000000000000100000000000000000000000010000000000000001010000000000000000000000000000000000000000000000000000000000000000000000000000000000000001100000000000000000000000000000111000000000000000000000000000011100010100000000000000000000000000000000000000001000000000000000000000000000000000000000000000000000000000000000000000000000011000000000110000000000000000000000000000000000000000000000000000000000000000000100100000000000000000000000001010000000000000000000000000000000000000000000000000000000000000000000000000000000000000000110000000000000000000000000000000000000000000000000000000000000000000000000000000110000000000000000000000000000010000000000100000000000000000000000000000000000000000000000000000000000000000000000000000000000000000000000000000000000000000001100000001100000000000000000000000000000000000000000001100000000000000000011100000010100000000000000000000000000000000000000000000000000000000000000000000000000000000000000000000000000000000000000000011000000011000000000000000000000000000000000000000000011000000000000001000111000001000100000000000000000000000000000000000000000000000000000000000000000000000000000000000000000000000000000000000000000110000000110000000000000000000000000000000000000000000000000000000000001000000000001010000000000000000000000000000000000000000000000000000000000000000000000000000000000000000000000000000000000000000000000000000000000000000000000000000000000000000000000000000000000000000001001000000001000000000000000000000000000000000000000000000000000000000000000000000000000000000000000000000000000000000000000000000000000000000000000000000000000000000000000000000000000000000000000000001110000000000000000000000000000000000000000000000000000000000000000000000000000000000000000100000000000000000000000000000000000000011100000000000000000000000000000000000000000000000000000000000000000000000000000000000000000000000000000000000000000000000000000000000000000000000000000000000001000000000000000000000000000000000000000111000000000000000000000000000000000000000000000000000000000000000000000000000000000000000000000000000000000000000000000000000000000000110000000000000000000000010000000000000000000000000000000000000000000000000000000000000000000000000000000000000000000000000000000001100000000000000000000000000000000000000000000000000000000000000000010010000000000000000000000000000000000000000000000000000000000000000000000000000000000000000000000000000000000000000000000000000000101000000000000000000000000000000000000000000000000000000000000000000101000000000000000000011100011100000000000000000000000000000000000000000000000000000000000000000000000000000000000000000000000000001010000000000000000000000000000000000000000000000000000000000000000000100000000000000000000000000000000000000000000000000000000000000000000000000000000000000000000000000000000000000000000000000000000011000000010000000000000000000000000000000000000000000000000000000000000000000000000000000000000100000000000000000000000000000000000000000000000000000000000000000000000000000000000000000000001100000000000000000010000000000000000000000000000000000000000000000000000000000000000000000000000000000001000000000000000000000000000000000000000000000000000000000000000000000000000000000000000100000011000000000000001001000000000000000000000000000000000000000000000000000000000000000000000000000000000000010000000000000000000000000000000000000000000000000000000000000000000000000000000000000010110000000000000000000010010000000000000000000000000000000000000000000000000000000000000000000000000000000000000000000000000000000000000000000000000000000000000000000000000000000000000000000000000000100010000000110000000000010000000000000000000000000000000000000000000000000000000000000000000000000000000000000000000000000000000000000000000000000000000000000000000000000000000000000000000000000000000100000000001100000000000000000000000000000000000000000000000000000000000000000000000000000000000000000000000000000000000000000000000000000000000000000000000000000000000000000000000000000000000000000000000100000000000000000000000000000000000000000000000000000000000000110000000000000000000000000000000000000000000000100000000000000000000000000000000000000000000000000000000000000000000000000000000000000000000000000000000000000000000000000000000000000000000000000000010010000000000000000000000000000000000000000000001000000000000000000000000000000000000000000000000000000000000000000000000000000000000000000000000000000000000000010000000000000000000000000000000000000100100000000000000000000000000000000000000000000010000000000000000000000000000000000000000000000000000000000000000000000000000000000000000000000000000000000000001010000000000000000000000000000000000000110000000000000000000000000000000000000000000000000000000000000000000000000000000000000000000000000000000000001110000000000000000000001000000000000000000000000010100000000000000000000000000000000000000000000000000000000000000000000000000000001101100011100000000000000000000000000001000000000000000000000001011001100000000000000000000010010000000000000000000000010000000000000000000000000000000000110000000000000000000000000000000000000000000100001000000000000000000001100000000000101000000000000000000000100000100000001110110000000000001000000000000000000000000000000000000000000000000000000000001100000000000000000000000000000000000000000010011111100000000000000000110100000000001010000000000000000000000101110000000100000110000000000000000000000000000000000000000000000000000000000000000000000000000000000011000000000000000000000000000000011100001000000000000000000101100000000001000000000000000000000000000000001100001101100000000000000000000000000000000000000000000000000000000000000000000000000000000001001000000000000000000000000000000000000010000000000000000000100100000000000000000000000000000000000000011000000010010000000000000010000000000000000000010000000010000000000000000000000000000000000000010100000000000000000000000000000000000000000000000011000000001001000000000000000000000000000000000000110111000000011000000000000011100000000000000000001110000001010000000000000000000000000000000000000010000000000000000000000000000000000000000000000001001000000001001000000000000000000000000000000000001011101101010000000000000000100000000000000000000011100000010010000000000000000000000000000000000000000000000000000000000000000000000000000000000000001100000000111110000000000000000000000000000000000010010000000000000000000000000100000000000000000000000000000011000000000000000000000000000000000000000000000000000000000000000001000000000000000000000000000000100000000000000000000000000000000000000000010100000000000000000000000000000000000000000000011110000000000000000000000000000000000000000000000000011000000000000000000000010000000000000000000000000000001000001000000000000000000000000000000000000101000000000000000000000000000000000000000000000111110000000000000000000000000000000000000000000000000110000000000000000000000100000000000000000000000000000001100010000000000000000000000000000000000000000000000000000000000000000000001110000000000000101100000000000000000000000000000000000000000000000000000000000000000000000000000000000000000000000000000000000010011000000000000000000000000000000000000000000000000000000000110000000000000000000000000000000000000000000000001000000000000000000010000000000000000000000000000000000000000000000000000000000000000000011100000000000000000000000000000000100000000000000000000000010010000000000000000000000000000000000000000000000101000000000000000001010000000000000000000000000000000000000000000000000000000000000000000000000000000000000000000000000000001010000000000000000000000010100000000000000000000000000000000000000000000011011000000000000000010010000000000000000000000000000000000000000000000000000000010000000000000000000000000000000000000000000011000000000000000000000100100100000000000000000000000000000000000000000000110111000000000011000011000000000000000000000000000000000000000000000000000000000100000000000000000000000000000000000000000000000000000000000000000010110110000000000000000000000000000000000000000000011101000000000000110000000000000000000000000000000000000000000000000000000000000001000000000000000000000000000000000000000000000000000000000000000000100010000000000000000000000000011000000000000000000000000010000000000000000000000000000000000000000000000000000000000000000000000000000000000000000000000000000000000000000010000000000000000000000000000110100000000000000000000000000110000000000000000000001000100000000000000000000000000000000000000000000000000000000000000000000000000000000000000000000000000000000000000000100000000000000000000000000000010000000000000000000000000000000000000000000000000100010000000000000000000000000000000000000000000000000000000000000000000000000000000000000000000000000000000000000000010100000000000000000000000000000000000000000000000000000000000000000000000000000000000100000000000000000000000000000000000000000000000000000000000000000000000000010000000000000000000000000000000001000000000100000000000000000000000000000000000000000000000000000000000000000000000000011100001110000000000000000000000000000000000000000000000000000000000000000000000100000000000000000000100000000000010000000001000000000000000000000000000000000000000000000000000000000000000000000000000001000010100000000000000000000000000000000000000000000000000000000000000000000001000000000000000000010100000000011110110110111100000000000000000000000000000000000000000000000000000000000000000000000000000001011000000000000000000000000000000000000000000000000000000001110000000000000000000000000000000100100000001100001010100001100000000000000000000000000000000000000000000000000000000000000000000000000000001000000000000000000000000000000000110000000000000000000000000100000000000000000000000000110000110000000100000100100100000100000000000000000000000000000000000000000000000000000000000000000000000111101110000000000000000000110000000000001100000000000000000000000010000000000000000000000000001100000000000000110011100011100110000000000000000000000000000000000000000000000000000000000000000000000001000000000000000000000000001100000000000000000000000000000000000000000000000000000000000000000000000000000000000001001000100100000000000000000000000000000000000000000000000000000000000000000000000000011001000000000000000000000000000000000000000000000000000000011000000000000000000000000000000000000000000000000000010100000101000000000000000000000000000000000000000000000000000000000000000000000000000001110000000000000000000000000000000000000000000000000000000110000000000000000000000001110000000000000000000000000101000001010000000000000000000000000000000000000000000000000000000000000000000000000000000000010000000000000000000110000011000000000000000000000000000000000000000000000000000000000000000000000000100000000000000000000000000000000000000000000000000000000000000000000000000000000000000000000000010000000000000001100010010000110000000000000000000000000000000000001110000000000000000000000000000000010101000000000000001000000000000000000000000000000000000000000000000000000000000000000000000000000000111000000000011000010100000000000000000000000000000000000000000010001000000000000000000000000000000100110000000000000000000000000000000000000000000000000000000000000000000000011000000000000000000010000010000000000000000010000000000000000000000000000000000000000000011010000000000000000000000000000000000000000000000000000000000000000000000000000000000000000000000000000000001001000000000000000000111110110000000000000000000000000000000000000000000000000000000000000100110000000000000000000000000000000000000000000100101100000000000000000000000000000000000000000000000000000010010000000000000000000001111100000000000000000000000000000000000000000000000000000000000001110100000000000000000000000000000000000000000000001011000000000000000000000000000000000000000000110000000000011000000000000000000000000011000000000000000000000000000000000000000000000000000000000000100011000000000000000000000001100000000000000001000000110000000000000000000000000000000000000000001100000000000000000000000000000000000000000000000000000000000000000000000000000000000000000000000000000111100000001100000000000000011000000000000000011101110000000000000000000000000000000000000000000000000000000000000000000000000000001100000000000000000000000000000000000000000000000111000000000000000000100000000100100000000000000000000000000000000010000000000000000000000000000000000000000000000000000000000000000000000000000000000011111000000000000000000000000000000000000100000001010000000000000000000000000000110000000000000000000000000000000000000000000000000000000000000000000000000000000000000000000000000000000000000000000000110111110000000000000000000000000000000001000001000000000000000000000000000000000000000000000000000000000000000000000000000000000000000000000000000000000000000000000000000000000000000000000000000000000100101100000000000000000000000000000000010000010000011000000000000000000000000000000000000000000000000000000000000001100000000000000000000000000000000000000000000000000000000000000000000000000000000001101011000000000000000000000000000000000000000100010110000000000000000000000000000000000000000000000000000000000000000000000000000000000000000000000000000000000000000000000110000000000000000000000000001000100000000000000000000000000000000000000000011111000000000000000000000000000000000000000000000000000000000000000110100000000000000000000000000000000000000000000000000010010000000000000000000000000001010000000000000000000000000000000000000000000000000000000000000000110000000000000000000000000000000000000000000000010000000000000000000000000000000000000000000000000000011000000000000000000000000000001000000000000000000000000000000000000000101101000000000000000000010010000000000000000000000000000000000000000000000000000000000000000000000000000000000000000000000000000000000000000000000000000000000000000000000000000010000000000000000000001000010000000000000000000011000000000000000000000000000000000000000000000000000000000000000000000000000000000000000000000000000000000000000000000000000000000000000000000000000001010000000000000000000010110100000000000000000000000000000000000000000000000000000000000000010000000000000000000000000000000000000000000000000000000000000000000000000000000000000000000000000000000000110110000000000000000000000000000000000000000000000000000000000000000000000000000000000000001010000000000000000000000000000000000000000000000000000000000000000000000000000000000000000000000000000000100100100000000000000000000000011111000000000000000000000000000000000000000000000000000000000010100000000000000000000000000000000000000000000000000000000000000000000000000000000000000000000000000000000111110000000000000000000000010001011000000000000000000000000000000000000000000000000000000000010000000000010000000000000000000000000000000000000000000000000000000000000000000000000000000000000000000010100100000000000000000000000100000110000000000000000000000000000000000000000001100000000000000000000000011110000000000000000000001000000000000000000000000000000000000000000000000000000000000000000000000000000000000000000000000001000000000000000000000000000000000000000000000000011000000000000000000000000110010000000000000000000101000000000000000000000000000000000000000000000000100000000000000000000000000000000000000000000000000101000000000000000000000000000000000000000000000000000000000000000000000010000100000000000000000000100000000000000000000000000000000000000000000000011100000000000000000000000000000000000000000000000001110000000000000000000000000000000000000000000000000000000000000000000001101011000000000000000000000000000000000000000000000000000000000000000000001001100000000000000000000000000000000000000000000000000000000000000000000000000000000000000000000000000000000000000000000000111100000000000000000000000000000000000000000000000000000000000000000000000111000000000000000000000000000000010000000000000000000000000000000000000000000000000000000000000000000000000000000000000000001111000000000000000000000000000000000000000000000000000000000000000000000000000000000000000000000000000000000100001100000000000000000000000000011000000000000000000000000000000000000000000000000000000011111000000000000000000000000000000000000000000000000000000000000000000000000000000000000000000000000000000001000100100000000000000000000000000110000000000000000000000000000000000000000000000000000000010011000000000000000000000000000000000000000000000000000000000000000000000000000000000000000000000000000000000000110000000000000010100000000000000000000000000000000000000000000000000000000000000000000011100000000000000000000000000000000000000000000000000000000000000000000111011010000000000000000000000000000000000000000000000000110000000000000000000000000000000000000000000000000000000000000000000000010000000000000000000000000000000000000000000000000000000000000001000001001011100000000000000000000000000000000000000000000000000000000110000000000000000000000000000000000000000000000000000000000000000000000000000000000000000000000000000000000000000000000000000000101000011011011000000000000000000000000000000000000000000000000000000010010000000000000000000000000000000000000000000000000000000000000000000000000000000000000000000000000000011000000000000000000000010010000011100000000000000000000000000000010000000000000000000000000000100100000000000000000000000000000000000000000000000000000000000000000000000000000000000000000000010100001100000000000000000000000011000000011000000000000000000000000000000100000000000000000000000000000110000000000000000000000000000000000000000000000000000000000000000000000000000000000000000000000011010000000000000000000000000000000000000110000000000000000000000000000001000000000000000000000000000000000000000000000000000000000000000000000000000000000000000000000000000000000000000000000000011100011000000001000000000000000000000000000000000000000000000000000000000000000000000000000000000000000000000000000000000000000000000000000000000000000000000000000100000000000000000000000000000000000000000000000000011000000000000000000000001000011100000000000000000000000000000000000000000000000000000001100000000000000000000000000000000000000000000000000000000110110000000000000000000000000000000000000100000100010100000000000000000000000111000011000000000000000000000000000000000000000000000000000000100100000000000000000000000000000000000000000110000000000001101101100000000000000000000000000000000001000001000011000000000000000000000110010001110000000000000000000000000000000000000000000000000000000110000000000000000000000000000000000000000010010000000000001100010110000000000000000001000000000000010000010000000000000000000000000001001000000000000000000000000000000000000000000000000000000000000000000000000000000000000000000000000000000000010100000000010000110100000000000000000000010000000000000000000000000000000000000000000000000010101010000000000000000000000000000000000000000000000000000000000000000000000000000000000000000000000000000010000000001110000100000100000000000000000100000000000000000000000000000000000000000000000010000000110000000000000000000000000000000000000000000000000000000000000000000000000000000000000000000000000000000000000110010010000010000000000000000000000000000000000000000000000000000000000000000000011000001100000000000000000000000000000000000000000000000000000000000000000000000000000000000000000000000000000000000001000100101101000000000000000111000111000000000000000000000000110000000000000000000010000000000000000000000000000000001000000000000000000000000000000000000000000000000010000000000000000000000000000000010110000001000000000000000000000000000000000000000000000000001100000000000000000000010001000000000000000000000000000101000000000000000000000000000000000000000000000000100000000000000000000000000000000110100010100000000000000000000001000000000000000000000000000000000000000000000000000001000000000000000000000000000001001000000000000000000000000000000000000000000000001000000000000000000000000000000000010000011000000000000000000000010000000000000000000000000000000000000000000000000000000000000000000000000000000000001100000000000000000000000000000000000000000000000000000000000000000000000000000000000111000000000000000000000000000100000000000000000000000000000000000000000000000000000000000000000000000000000000000000000000000000000000000000000000000000000000000000000000000000000000000000000000000001010000000000000000000000000000000000000000000000000001000000000000000000000000000000000000000000000000000000000000000000000000000000000000000000000000000000000000000000000000000000000000000000000000011100000000000000000000000000000000000000000000000000111000000000000000000000000000000000000000000001110000000000000000000000000000000000000000000000000000000000000000000000000000000000000000000000000000000000000000000000000000000000000000000000000000001001000000000000000000000000000000000000000000000000000000000000000000000000000000000000000010000000000000000000000000000000000000000000000000000000000000000000000000000000000000000000000000000000001011111000000000000000000000000000000000000000010000010000000000000000000000000000000000000001010000000000000000000000000000000000000000000000000000000000000000000000000000000000000000001100000000000110111100000000000000000000000000000000000000000100000100000000000000000000000000000000000000100010000000000000000000000000000000000111000000000000000000000000000000000000000000000000000101000000000000000000000000000000000000000000000000000000000001000001000000000000000000100000000000000000000101000000000000010000000000000000000000000000000000000000100000100000000000000000000000000001000011000000000100000000000000000000011000000000000000000000000000000000000000000000010100000000000000000000100000000000001010000000000000000000000000000000000000001000001000000000000000000000000000001110001000000000000001100000000110000110000000000000000000000000110000000000000000000101000000000000011011000000000000000010100000000000000000000000000000000000000010000010001100000000000000000000000001000010000000000111011100000001100000000000000000000000000000100001000000000000000000100000000000000000001000000000000000010000000000000000000000000000000000000000000000000100100000000000000000000000001101100000000000000110000000000000000000000000000000000000001000010000000000000000000000000000000000000100000000000000000000000000000000000000000000000000000011100011100000110000000000000000000000000001100000000001000000000000000000000000000000000000000000000010000100000000000000000000000001100000011110010000000000000000000000000000000000000000000000000000000000000000000000000000000000000000000000000000000000000000000000000000000000000000000000000000011100001100000000000000000000000000011000000010110010000000000000000000000000000000000000000000000000000000100000000000000000000000000000000000000000000110011011110000000000000011000000000000000000000000000000000000000000000000000000000000000000000100010000000000000000000000000000000000000000000000000000001000000000000000000000000000000000000000000001100010111110000000000001001000000000000000000000000100000000000000000000000000000000000001100001000000000000000000000000000000000000000000000000000000000010000000000000000000000000000000000000000000000000001001000000000000001010000000000000000000000001000000000000000000000000000000000000010000010000000000000000000000000000000000000000000000000000000000000000000000000000000000000000000000000000000000000011100000000000000001000000000000000000000000010000000000000000000000000000000000000011010000010000000000000000000000000000000000000000000000000000000000000000000000000000000000000000000000000000000000010000000000000000000000000000000000000000000000000000000000000000000000000000000000111001101000000000000000000000000000000000000000000000000000000000000000000000000000000000000000000000000000000000000000000000000000000000000000000000000000000000000000000000000000000000000000000000000000000000000000000000000000000000000000000000000000010000000000000000000000000000000001100000000000000000000000000000000000000000000000000000000000000000000000000000000000000000000000000000000000000000000000000000000000000000000000000000000000000000001010000000000000000000000000000000011000000000000000000000000000000000000000000000000000000000000000000000000000000000000000000000000000000000000000000000000000000000000000000000000000000000000000000010100000000000000000000000000000000000000000000000000000000000000000000000000000000000000000000000000000000000000000000000000000000000000000000000000000000000000000000000000000000000000000000000000000010000000000000000000000000000000000000000000001100000000000000000000000000000000000000000000000000000000000000000000000000000000000000000000000000000000000000000000000000000000000000000000000000000000000000000000000000000000000000000000000000000011000000000000000010000000000000000000000000000000000000000000000000000000000000000000000000000000000000000000000000000000000000000000000000000000000000000000000000000000000000000000000000000000000000000000000000000001010000000000000000000000000000000000000000000000000000000000000000000000000000000000000000000000000000000000000000000000000000000000000000000000000000000000000000000000000000000000000000000000000000010100000000000000000000000000000000000000000000000000000000000000000000000000000000000000000000000000000000000111000000000000000000000000000000000000000000000000000000000000000000000000000000000000000010000000000000000000000000000000000000000000000000000000000000000000000000000000000000000000000000000000000001110000000000000000000000000000000000000000000000000000000000000000000000000000000000000000000000000000000000000000000000000111000000000000000000000000000000000000000000000000000000000000000000000000100001000000000000000000000000000000000000000000000000000000110000000000000000000000000000000000000000000000000000000000000000000000000000000000000000000000000000000000000000000000000000000000000000001111110000000000000000000000000000000000000000000000000000001010000000000000000000000000000000000000000000000000000000000000101010000000000000000000000000000000000000000000000000000000000000000000100011101000000000000000000000000000000011000000000000000000000001000000000000000000000000000000000000000000000000000000000000001101100000000000000000000000000000001100000000000000000000000000000000010100011000000000000000000000000000000000110000000001100000011000000000000000000000000000000000000000000000000000000000000000001100000110000000000000000000000000000011000000000000000000000000011000000101000110000000000000000000000000000000001100000000011000001001000000000000000000000000000000000000000000000000111000000000001001001001001000000000000000000000000000000000000000000000000000000110000000100001010000000000000000000000000000000000000000000000000010100000000000000000000000000000000000000000000000000000000000000010100101001010000000000000000000000000000000000000000000000000000000000000000000001000000000000000000000000000000000000000000000000000010000000000000000000000000000000000000000000000000000000000000000100100100100100000000000000000000000000000000000000000000000000000000000000000000000000000000000000000000000000000000000000000000000000000000000000000000000000000000000000000000000000000000000000000000011000001100000000000000000000000000000000000000000000000000000000000000000000000000000000000000000000000000000000000010001000000000000000000000000000000000000000000000110000000000000000000000000000000001101100000000000000000000000000000000000000000000000000000000000000000000000000000000000000000000000000000000000000011001000000000000000000000000000000000000000000010010000000000000000000000000000000000101000000000000000000000000000000000000000000000000000000000000000000000000000001000000000000000000000000000000000111100000000000000000000000000000000000000000000101000000000000000000000000000000010000000000000000000000000000000000000000000001110000000000000000000000000000000000101000000000000000000000000000000000010000000000000000000000000000000000000000000000100000000000000000000000000000000000011000000000000000000000000000000000000000000000000000000000000000000000000000000100000000000000000000000000000000000000000000000000000000000000000000000000000000000000000000000000000000000000000001010000000000000000001100110000000000000000000000000000000000000000000000000000000000000000000000000000000000000000001000000000000000000000000000000000000000000000000000000000000000000000000001110000000000000000000000000011001100000000000000000000000000000000000000000000000000000000000000000000000000000000000000000101000000000000000000000000000000000000000000000000000000001100000000000000000000000000000000000000001100000000000000000000000000000000000000000000000000000000000000000000000000000000000000000000000001010000110000000000000000000000000000000000000000000000000100100000000000000000000000000000000000000011000000000000100000000000000000000000000000000000000000000000000000000000000000000000000000000000001000010010000000000000000000000000000000000000000000000001010000000000000000000000000000000000000000000000000000010100000000000000000000000000000000000000000000000000000000000000000000000000000000000000000011000000000000000000000000000000000000000001000000001000000000000000000000000000000000000000000000000000000101000000000000000000000000000000000000000000000000000000000000000000000000000110000000000000000000000000000000000000000000000000000000101000000000000000000000000000000000000000000000000000000000000000100000000000000000000000000000000000000000000000000000000000000000000000000010010000000000000000000000000110000000000000000000000000000110000000000000000000000000000000000000000000000000000000000000000000000000000000011000000000000000000000000000000000000000000000001000000000100100000000000000000000000010100000000000000000000000000000000000000000000000000000000000001110000000000000000000000000000000000000000000000110000000000000000000000000000000000000000000000101000000000110000000000000000000000000010000000000000000000000000000000000000000000000000000000000000000000110000000000000000000000000000000000000000000000000000000000000000000000000000000000000000010010000000000000000000000000000000000000000000000000000000000000000000000000000000000000000000000000000000010010000000000000000000000000000000000000000000000000000000000000000000000000000000000000000011000000000000000000000000000000000000000000000000000000000000000000000000000000000000000000000000000000000101000000000000000000000000000000000000000000000000000000000000000000000000000000000000000000000000000000000000000000000000000000000000000000000000000000000000000000000000000000000000000000000000000000100000000000000000000000000000000000000000000000000000000000000000000000000000000000000000000000000000000000000000000000000000000000000000000000001110000011100000000000000000000000000000000000000011000000000000000000000000000000000000000000000000000000000000000000000000000001110000000000000000000000001100000000000001101100000000011000000000000010001010001000000000000000000000000000000000000000110000000000000000000000000000000000000000000000000000000000000000000000000000010010000000000000000000000100100000000000100000100000000110000000000011011000001101100000000000000000000000000000000000000000000000000000000000000000000000000000000000000000000000000000000000000001000000110000000000000000000000101000000011100010101000000000000000000000100000000000001000000000000000000000000000000000000000000000000110000000000000000000000000100000000000000000000000000000000000111001011000000000000000000000000100000001101100100110000000000000000000001111001110001010000000000000000000000000000000000000000000000001100000000000000000000000001000000000000000000000000000000000011011100110000000000000000000000000000000001011010000000000000000000000000000110000000111000000000000000000000000000000000000000000000000000000000000000000000000000010000000000000000000000000000000000010111110000000000000000000000000000000000000001000000000000000000000000000000100000000000000000000000000000000000000000000000000011100000000100000000000000000000000000000000000000000000000000000000000011111000000000000000000000000000000000000000101100000000000000000000000110000100000000000000000000000000000000000000000000000000100010000010100000000000000000000000000000000011000000000000000000000000011100000000000000000000000000000000000000100000100000000000000000010100100000000100000000000000000000000000001100000000000000001000100001001000000000000000000000000000000000110000000000000000000000000000000000000000000000000110000000000000000000000100000000000000000100001000011011000000000000000000000000000011000000000000000001001000001100000000000000000000000000000000000000001100000110000000000000000000000000000000000010010000000000000010010111000100000000000001100010000101000000000000000000000000000000000000000000000000000100000000000000000000000000000000000000000000000011100011100000000000000000000000000000000000100100110001100000011100001011000000000000000111110100000000000000000000000000000000000000000000000000000000000000000000000000000000000000000000000000000000110000011000000000000000000000000000000000000110001100100100000000000011110000000000000000010100110000000000000000000000000000000000000000000000000000000000000000000000000000000000000000000000000000000000000000000000000000000000000000000000000000000000000101000000000000100000000000000000111001111000000000000000001000000000000000000000000000000000000000000000000000000000000000000000000000000000000000000000000000000000000000000000000000000000000000000000100000000000000001000000000000001000000000000000000000000101000000000000000000000000000000000000000000000000000000000000000000000000000000000000000000000000000000000000000000000000000000000000000000000000000000000010110000000000000000000000000000000000000001010000000000000000000000000000000000000000000000000000000000000000000000000000000000001100000110000000000000000000000000000000000000000000000000001000000000000000000000000000011000000000000000000000001000000000000000000000000000000000000000000000000000000000000000000000000000000000000011100011100000000000000000000000000000000000001000000000000101000000000000000000000000000000000000000000000000000000000000000000000000000000000000000000000000000000000000110000000000000000000000000000110000011000000000000000000000000000000000000010000000000000001000000000000000000000111000000000000000000000000000000000000000000000000000000000010000000000000000000000001100000000000000000000000000000000000000001000000000000000000000000000000000100000000000010010000000000000000000000000000000000000000000000000000000000000000000000000000000000100000000000000000000000000000000000000000000000000000000000000000101000000000011000000000000000000000000000000000010110000000000000000001000001000000000000000000000000000000000000000000000000000000001000000000000000000000000000000000000000000000000000000000000000000010000000001001000000001100000000000000000000000001110000000011100000010000010000000000000000000000000000000000000000000000000000000000000000000000000000000000000000000000000000000000000000000000000110110000000010010000000101000000000000000000000011011000000001001000000100000100000000000000000000000000000000000000000000000000000000000000000000000000000000000000000000000000000000000000000000000011011000000000011000000000100000000000000000000000110010000000110000001000000000000000000000000000000000000000000000000000000000000000000000000000000000000000000000001100000000000000000000000000000001101010000000000000000000000000000000000000000000000111000000000110100111000111000000000000000000000000000000000000000000000000000000000000000000000000000110000000000100100000000000000000000000000000010000010000000000000000000000000000000100000000000000100000000001100111011000000000000000000000000000000000000000000000000000000000000000000000000000000001100000000000110000000000000000000000000000000010000000000000000000000000000000000010100000000000000000000000000111110100000000000000000000000000000000000000000000000000000000000000000000000000000000000000000000000000000000000000000000000000000000000010000000000000000000000000000001010000000000000000000000000000110001000000000000000000000000000000000000000000000000000000000000000000000000000000000000000000000000000000000000000000000000000000000000000000000000000000000000000000101000000000000000000000000000000110000000000000000000000000000000000000000000000000000000000000000000000000000000000000000000000000000000000000000000000000000000000000000000000000000000000000000000000100000000000000000000000000000000100000000000000000000000000000000000000000000000000000000000000000010000000000000000000000000000000000000000000000000000000000000000000000000000000000000000000000000000000000000000000000000000000000000011000000000000000000000000000000000000000000000000000000000000000100000000000000000000000000000000000000000000000000000000000000000000000000000000000000000000000000000000000000000000000000000000000000000000000000000000000000000000000000000000000000000000000000000001000000000000000000000000000001000000000000000000000000000000000000000000000000000000000000000000000000000000000000000000000000000000000000000000000000000000000000000000000000000000000000000000000000000000000000000000000000000000101000000000000000000000000000000000000000000000000000000000000000000000000000000000000000000000000000000000000000000000000000000000000000000000000000000000000000000000000000000000000000000000000000001010000000000000000000000000000000000000000000000000000000000000000000000000000000000000000000000000000000000000000000000000000000000000000000000000000000000000000000000000000000000000000000000000000001000000000000000000000000000000000000000000000000000000000000000000000000000000000000000000000000000000000000000000000000000000000000000000000100000000000000000000000011100000000000000000000000000000000000000000000000000000000000000000000000000110000000000000000000000000000000000000000000000000000000000000000000000000000000000000000000001110100000000000000000000000000000000000000000000000000000000000000000000000011000000000000000000000000001100000000000000000000000000000000000000000000000000000000000000000000000000000000000000000000101110000000000000000000000000000000000000000000000000000000000000000000000000110000111000000000000000000000000000000000000000000000000000000000000000000000000000000000000000000000000000000000000000000111000000000000000000000000000000000110000000000000000000000011000000000000000000000000000000000000000000000000000000000000000000000000000000000000000000000000000000000000000000000000000000000000000000000000000000000000000000000000000001010000000000000000000000110000000000000000000000000000000000000000000000000000000000000000000000000000000000000000000000000000000000000000000000000000000000000000000000000000000000000000000000000000001100000000000000000000000000000000000000000000000000000000000000000000000000000000000000000000000000000000000000000000000000000000000000000000000000000000000000000000000000000000000000000000000000000000000000000000000000000000000000000000000000000000000000000000000000000000000000000000000000000000000000000000000000000000000000000000000000000000000000000000000000000000000000000