P1
200 200
0000000000000000000000000000000000000000000000000000000000000000000000000000000000000000000000000000000000000000100000000000000000000000000000000000000000000000000000000000000000000000010000000000000000000000000000000000000000000000000000000000000000000000000000000000000000000000000000000000000000000000010000010100000000000000000000000000000000000000000000000000000000000000000000001010000000000000111101110000000000000000000000000000000000000000000000000000000000000000000000000000000000000000000000001010000100100000000100000000000000000000000000000000000000000000000000000000000010100000000000001011100000000000000000000000000000000000000000000000000000000000000000000000000000000000000000000000000011000000110000000010100000000000000000000000000000000000100000000000000000000000010000000000000001000001000000000000000000000000000000000000000000000000000000000000000000000000000000000000000000000000000000000000000000101000000000000000000000000000011100010100000000000000000000000000011100000000000111100000000000000000000000000000000000000000000000000000000000000000000000011000000000000000000000000000000000000000000100000000000000000000000000000000000100100000000000000000000000000000000000000100000000000000000000000000000000000000000000000000000000000000000000000000000110000000000000000000000000000000000000000000000000000000000000000000000000000000110000000000000000000000000000000000000010001111100000000000000000000000000000000000000000000000000000000000000000000000000000000000000000000000000000000000001100000001100000000000000000000000000000000000000000001100000000000000000000000000100000001100000000000000000000000000000000000000000000000000000000000000000000000000000000000000000000000000000000000100100000100100000000000000000000000000000000000000000011000000000000000000000000000111000100100000000000000000000000000000000000000000000000000000000000000000000000000000000000000000000000000000000000110000000110000000000000000000000000000000000000000000000000000000000000000000000000000011111100000000000000000000000000000000000000000000000000000000000000000000000000000000000000000000000000000000000000000000000000000000000000000000000000000000000000000000000000000000000000000000000110010010000000000000000000000000000000000000000000000000000000000000000000000000000000000000000000000000000000000000000100000000000000000000000000000000000000000000000000000000110000000000011100001000000011000000000000000000000000000000000000000000000000000000000000000000000000100000000000000000000000000000000000000010100000000000000000000000000000000000000000000000000000111100000000000101000010000000000000000000000000000000000000000000000000000000000000000000000000000000001000000000000000000000000000000000000000101000000000000000000000000000000000000000000000000000010001000000000001000000011100010000000000000000000000000000000000000000000000000110000000000000000000000010000000000000000000000000000000000000000100000000000000000000000000000000000000000000000000001000100000000000000110000000001000000000000000000000000000000000000000000000000010010000000000000000000000000000000000000000000000000000000000000000000000000000000000000000000000000000000000000000000010001000000000000000000000000000000000000000000000000000000000000000000000000000101000000000000000000011100011100000000000000000000000000000000000000000000000000000000000000000000000000000000000000000100011000000000001010000000000000000000000000000000000000000000000000000000000000100000000000000000000000000000000000000000000000000000000000000000000000000000000000000000000000000000000000000000000000111100000000000011100000000000000000000000000000000000000000000000000000000000000000000000000000000000000000000000000000000000000000000000000000000000000000000000000000000000000000000000000000011000000000000000000000000000000000000000000000000000000000000000000000000000000000000000000000000000000000000000000000000000000000000000000000000000000000000000000000000000000000000000000000000000000110000000000100000101100000000000000000000000000000000000000000000000000000000000000000000000000000000000000000000000000000000000000000000000000000000000000000000000000000000000000000000000000000000000000000000001000000001110000000000000000000000000000000000000000000000000000000000000000000000000000000000000000000000000000000000000000000000000000000000000000000000000000010000000000000000000000000000000000000010000000100110000000000000000000000000000000000000000000000000000000000000000000000000000000000000000100000000000000000000000000000000000000000000000000000000001100000000000000000000000000000000000000000000000001100000000000000000000000000000000000000000000000000000000000000000000000000000000000000010100000000000000000000000000000000000000000000000000000000111000000000000000000000000000000000000000000000010111100000000000000000000000000000000000000000110000000000000000000000000000000000000000001010000000000000000000000000000000000000000000000000000000000101000101000000000000000000000000000000000000001010111000000000000000000000000000000000000000010010000000000000000000000000000000000000000010100000000000000000000000000000000000000000000000000000000000110001100000000000000000000000000000000000000110010000000000000000000000000000000000000000000100100000000000000000000000000000000000001100110000000000000000000000000000000000000000000000000000000000000000011000000000000000000000000000000000000000110100000000000000000000000000010000000000000000110000000000000000000000000000000000000100100000000000000000000000000000000000000000000000000000000000000000000000000000000000000000000000000000000000000111011000000000000000000000001010000000000000000000000000000000000000000000000000000000110000000000000000000000000000000000000001000000000000000000000000000000000001100000000000000000000000000000000000010100000000000000000000000100010000000000110000000000000000000000000000000000000000000000000000000000000000000000000000000000101000000000000000000000000000000000011000000000000000000000000000000000000000000000000000000000000001000100000000001100000000000000000000000000000000000000000000000000110000000000000000000000000000001010000000000000000000000001101100000000000000000000000000000000000000000000000000000000000000000000000101000000000000000000000011000000000000000000000000000000000000001100000000000000000000000000000001000000000000000000000000010011000000000000000000000000000000000000000000000110000000000000000000000001000000000000000000000001001000000000000000000000000000000000000000000000000000000000000000000000000000000000000000000000000010010000000000000000000000000000000000000000000010100000000010000000000000000000000000000000000000010100000000000000000000000000000000000000000000000011000000010000000000000000000000000000000000000000111000000000000000000000000000000000000000000001010000000001010000000000000000000000000000000000000010000000000000000000000000000000000000000000000001001000000100000000000000000000000000000000000000000000000000000000000000000001000000000000000000100100000000010010000000000000000000000000000000000000000000000000000000000000000000000000000000000000001100000000100000000000000000000000000000000000000000000000000000000000000000101000000000000000001010010100000011000000000000000000000000000000000000000000000000000000000000000001000000000000000000000000000001001100000000000000000000000000000000010000000000000000000000000000001010000000000000000000010100100000000000000000000100000000000000000000000000011000000000000000000000010000000000000000000000000000110011000000000000000000000000000000000100000000000000000000000000000001000000000000000010111100000000000000000001100011000000000000000000000000000110000000000000000000000100000000000000000000000000000000000000000000000000000000000000000000000000000000000000000000000000000000001110000001000101100010000000000000101010110000000000000000000000000000000000000000000000000000000000000000000000000000001001000000000000000000000000000000000001010100000000000000000000000000000000000000000000001101010000100000000000001010110000100000000000000010000000000000000000000000000000000000000000000000000000000000010000000000000000000000000000000000011111000000000000000000000000000000000000000000000001100111010000000000000000000001111000000000000001010000000000000000000000000000000000000000000000000000000001000000000000000000000000000000000000011011101100000000000000000000000000000000000000000000000111000000000000000000000001000001000000000000010010000000000000000000000000000000000000000000000000001110000000000000000000000000000000000000000011010110000000000000000000000000000000000000000000000000000000000000000000000000010000100000000011000011000000000000000000000000000000000000000000000000000000100111111000000000000000000000000000001101111011110110000000000000000000000000000000000000000000000000000000000000000000000010001000000000110000000000000000000000000000000000000000000000000000000000010001000000000000000000000000000000000000001101011000000000000000000000000000000000000000000000000000011000000000000000000111000100000000000000000000000000000000000000000000000000000000000000000000000000000000000000000000000000000000000000000110111011000000000000000011000000000000000000000000000000000110000000000000000010001000000000010000000000000000000000000000000000000000000000000000000000000000000000000000000000000000000000000000000000011111000000000000000001001000000000000000000000000000000000000000000000000001000001000000000100000000000000000000000000000000000000000000000000000000000000000000000000000000000000000000000000000000000101010000000000000000001100000000000000000000000000000000000000000000000000010000010000000001000000000000000000000000000000000000000000000000000000000000000000010000000000000000000000000000000000000011010000000000000000000000000000000000000000000000000000000000000000000000000100000100000000000000000000000000000000000000000000000000000000000000000000000000000100000000000000000000000010000000000001010110000000000000000000000000000000000000000000000000000000000000000000000000100010000001110001110000000000000000000000000000000000000000000000000000000000000001000000000000000000000000011000000000000000000000000000000000000000000000000000000000000000000000000000000000000000000111000000000000000000000000000000000000000000000000000000000000000000000000000000000000000000000000000000010000000000001000011000000010100000000000000000000000000000000000000000000000000000000000000000000000000000010000000000000000000000000000110000000000000000000000000000000000000000000000000000110000000100000000000010000011100011101100000000000000000000000000000000000000000000000000000000000000000000000000000100000000000000110000000000001100000000000000000000000000000000000000000000000000001100000000100010000000100011011000100011100000000000000000000000000000000000000000000000000000000000000000000000000001000000000000001100000000000000000000000000000000000000000000000000000000000000000000000000000000100000000111000010000100110000000000000000000000000000000000000000000000000000000000000000000001100000000000000000000000000000000000000000000000000000011000000000000000000000000000000000000000000000010000000000000000010001000000000000000000000000000000000000000000000000000000000000000000000000011000000000000000000000000000000000000000000000000000000110000000000000000000000001110000000000000000000000000000000000000010000000000000000000000000000000000000000000000000000000000000000000000000000000000000000000000000000110000011000000000000000000000000000000000000011000000000000000000000000000000000000000000000000000000000000000000000000000000000000000000000000000000000000000000000000000000100000000000000000001100010010000110000000000000000000111000000000000000101000000000000000000000000000000000000000000000000000000000000000000000000000000000000000000000000000000000000000000000000000011100011000000000000011000010100000000000000000000000111111000000000000000100000000000000000000000000000000000000000000000000000000000000000000000000000000000000000000000000000000000011000000000000001001000110000000000000000000010000000000000000000000000110100000000000000000000000000000000000000000000000000000000000000000000000000000000000000000000000000000000000000000000000000001001000000000000011000000000000000000000000000000000000000000000000000000001100000000000000000000000000000000000000000000000000000000000000000000000000000000000000000000000000000000000000000000000000010010000000000000010000000000000000000000000000000000000000000000000110000111000000000000000000000000000000000000000000000000000000000000000000000000000000000000000000000000000000000000000110000000000011000000000000000001100000000000000000000000000000000000000000000001100000000000000000000000000000000000000000000000001100000111000000000000000000000000000000000000000000000000000000000001100000000000000000000000000001111000000000000000000000000000000000000000000000000000000000000000000000000000000001100000000000000011000000000000000000000000000000000000000000000000000000000000000000000000000000000000000000000000100100000000000000000000000000000000000000000000000000001100000000000000000000000000100100000000000000000000000000000000000000000000000000000000000000000000000000000000000000000000000000000000000000010000000000000000000000000000000000000000000000000000011100100000000000000000000000000110000000000000000000000000000000000000000000000000000000000000000000000000000000000000000000000000000000000000000010010000000000000000000000000100000000000000000000101111001000000000000000000000000000000000000000000000000000000000000000000000000000000000000000000000000000000000000000000000000000000000000000000000001000000010000000000000000010100000000000000000000100010110000000000000000000000000000000000000000000000000000000000000000000000000000000000000000000000000000000000000000000000000000000000000000000000000000001001010000000000000101000000000001000000011111110000000000000000000000000000000000000000000000000000000000000000000000000000000000000000000000000000000000000000000000000110000000000000000000000000000001010110000000000000100000000000001000000001111000000000000000000000000000000000000000000000000000000000000000000000000000000000000000000000000000000000000000000000000010010000000000000000000000001000001101000000000000000000000001100110100000000000001000000000000000110000000000000000000000000000000000000000000000000000000000000000000000000000000000000000000000000000011000000000000000000000000001000000000000000000000000000000000001000100000000000111000000000000010010000000000000000000000000000000000000000000000110000000000000000000000000000000000000000000000000000000000000000000000000010000111000000000000000000000000000000001010100000000000110001000000000000011000000000000000000000000000000000000000000000010010000000000000000000000000000000000000000000000000000000000000000000000000100001110000000000000000000000000000000000011100000000001111100000000000000000000000000000000000000000000000000000000011100110110000000000000000000000000000000000000000000000000000000000000000000000001000010010000000000000000110000000011000000010000000000100010000000000000000000000000000000000000000000000000000000001011001100000000000000000000000000000000000000000000000000000000000000000000000000000001111100000000000000010010000001001000000010000000000110000000000000000000000000000000000000000000000000000000000001000011000000000000000000000000000000000000000000000000000000000000000000000000000000010011000000000000000011000000001010000000100000000011000000000000000000000000000000000000000000000000000000000000000000101001100000000000000000000000000000000000000000000000000000000000000000000000000101100000000000000000000000000001000000010100000000000000000000000000000000000000000000000000000001100000000000000001100100011100000000000000000000001000000000000000000000000000000000000000000000000000110000000000000000000000000000000000000010000000000000000000000000000000000000000000000000000000011000000000000000010001000110000000000000000000000101000000000000000000000000000000000000000000000000000000000000000000000000000000000000000000100000000000000000000000000000000000000000000000000000000000000000000000000000010000000010000000000000000000100000000000000000000000000000000000000000000000000000000000000000000000000000000000000000000000000001100000000000000000000000000000000000000000000000000000000000000000011000000000100000000000000000000000000000000000000000000000000000000000000011000000000000000000000000000000000000000000000000000000011000000000000000000000000000000000000000000000000000000000000000000000000000001000000000000000000000000000000000000000000000000000000000000000100100000000000000000000000000000000110000000000000000000000000000000000000000000000000000000000000000000000000000000000000000000000000000000000000000000000000000000000000000000000000000000000000101000000110000000000000000000000000000010010001100000000000000000000000000011000000000000000000000000000000000000000000000000000000000001110000000000000000000000000000000000000000000000000000000000011111000001100000000000000000000000000000100100100100000000000000000000000000110000000000000000000000000000000000000000000000000000000000000000000000000000000000000000000000000000000000000000000000001000010100011000000000000000000000000000000110000110000000000000000000000000000000000000000000000000000000000000000000000000000000000000000000000000000000000000000000000000000000000000000000000000000010010101001000110010000000000000000000000000000000000000000000000000000000000000000000000000000000000000000000000000000000000000000000000110000000000000000000000000000000000000000000000000000000000000010101011100010011000000000000000000000000000000000000000000000000000000110000000000000000000000000000000000000000000000000000000000000001100000000000000000000000000000000000001000000000000000000000000111001000001001000000000000000000000000000000000000000000000000000000010010000000000000000000000000000000000000000000000000000000000000000000000000000000000000000000000000000101000000000000000000000000000000000001100000000000000000000000000010000000000000000000000000000100100000000000000000000000000000000000000000000000000000000000000000000000000000000000000000000000000001010000000000000000000000000000000000000000000000000000000000000000100000000000000000000000000000110000000000000000000000000000000000000000000000000000000000000000000000000000000000000000000000000000001000000000000000000000000000000000000000000000000000000000000000001000000000000000000000000000000000000000000000000000000000000000000000000000000000000000000000000000000000000000000000000000000000000000000000000000000000000000000000000000000000000000000000000000000000000000000000000000000000000000000000000000000000000000000000000000000000000000000000000000000000000000000000000000000000000000000000000000000000000000000000000000000000000000000000000000000000000000000000000000000000000000001100000000000000000000000000000000000000000010000000000000000000000000000000000000000000000000000000000000100000000000000000000000000000000000000000000000000000000000000000000000000000000000000000000100100000000000000000000000000000000000000000100010000000000000000000000000000000000000000000000000000000001000000000000000000000000000011000000000000000000000000000000000000000000000000000000000000000110000000000000000000000000000000000000000110100100100000000000000000001000000000000001000000000000000000010000000000000000000000000001101000011100000000000000000000000000000000000000000000000000000000000000000000000000000000000000000000000000100000110110000111000000001111000000000000010000000000000000000000000000000000000000000000100010000111100000000000000000000000000000000000000000000000000000000000000000000000000000000000000000000000000101011001000001111100000011110000000000000100000000000000000000000000000000000000000000000100100010001100000000000000000000000000000000000000000000000000000000000000000000000000000000000000000000000001011111101000000000000000000000000000000000000000000000000000000000000000000000000000000001010000011000100000000000000000000000000000000000000000000000000000000000000000000000000000000000000000000000001110000000000000001000000000000000000111000111000000000000000000000000000000000000000000000110000111110000000000000000000000001000000000000000000000000000000000000000000000000010000000000000000000000001100000000110100010000011110000000000000000000000000000000000000000000000000000000000000000000000011000000000000000000000000101000000000000000000000000000000000000000000000000100000000000000000000000001000000001010011000000111000000000000001000000000000000000000000000000000000000000000000000000000000000000000000000000000001001000000000000000000000000000000000000000000000001000000000000000000000000000000000001100000000000100000000000000010000000000000000000000000000110000000000000000000000000000000000000000000000000000001100000000000000000000000000000000000000000000000000000000000000000000000000000000000000000000000000000000000000000100000000000000000000000000000001100000000000000000000000000000000000000000000000000000000000000000000100000000000000000000000000000000000000000000000000000000000000000000000000000000000000000000000000000000000000000000000000000110001100000000000000000000000000000000000000000000000000000000000000000011100000000000000000000000000000000000000000000000000000000000000000000000000000000000000000000000000000000000000000000000110010101001000000000000000000000000000000000001110000000000000000000000000001101000000000011100000000000000000000000000000000000000000000000000000000000000000000000000000000000000000000000000000001011111010010100000000000000000000000000000000000000000000000000000000000000000000011000000000000000000000000000000000000000000000000000000000000000000000000000000000000000000000000000000000000000000110110101001100000000000000000000000000000000000010000010000000000000000000000000000110000000000000100000000000000000000000000000000000000000000001100000000000000000000000000000000000000000000000111000001000111110000000000000000000000000000000000000100000100000000000000000000000000001100000000000001000000000000000000000000000000000111000000000001100000000000000000000000000000000000000000111000100011010000111000000000000000000000000000000000000001000001000000000000000000100000010000000000000000010000000000010000000000000000000000000000000000111000000000000000000000000000000000000011010001101000010100000110000000000000011000000000000000000000000000000000000000000000010100000110000000000000000000000000001010000000000000000000000000000000000000000001100000000000000000000000000000110101101000111011000000000000000110000110000000000000000000000000000000000000000000000101000000101000000000000000000000000010100000000000000000000000000000000010100001000000000110000000000000000101000000001101001110000000000000000001100000000000000000000000000000000000000000000000000000100000000001000000000000000000000000010000000000000000000000000000001100000000010010000010010000000000000001010100000111100001000000000000011000000000000000000000000000000000000000000000000000000000000000000010100000000000000000000000000000000000000000000000000000000101000001000100100000011000000000000000001100000000110000000000000000000111000000000000000000000000000000000000000000000000000000000000000000111000000000000000000000000000000000000000000000000000000001010001110000010000000000000000000000000000100001000000000000000000000010001100000000000000000000000000011100000000000000000000000000000000010000000000000000000000000000000000000000000000000000000000001000000000000000000000000000000000000000001001000000000000000000000000100110000011000000000000000000000000000000000000000000000000000000001000001000000000000000000000000000000000000000000000000000000000000000000000000000000000000000000000000001000000000000000000000000001011000001001000000000000000000000000100000000000000000000000000000110010011000110000000000000000000000000000000000000000000000000000000000000000000000000000000000000000000000000000000000000000011000001000000001010000000000000000000000001000000000000000000000000000011101010111001100000000000000000000000000000000000000000000000000000000000000000000000000000000000000000000000000000000000000001001000000000000001000000000000000000000000010000000000000000000000000000011001001100000000000000000000000000000000000000000000000000000000000000000000000000000000000000000000000000000000000000000000001010000000000000000000000000000000000000000000000000000000000000000000000010000010000000000000000000000000000000000000000000000000000000000000000000000000000000000000000000000000000000000000000000000001000000000000000000000000000000000000000000000000000000000000000000000000011111000000000000000000000000000000000000000000000000000000010000000000000000000000000000000001100000000000000000000000000000000000000000000000000000000000000000000000000000000000000000000000000000000011100000000000000000000000000000000000000000000000000000001010000000000000000000000000000000011000000000000000000000000000000000000000000000000000000000000000000000000000000000000000000000000000000000010000000000000000000000000000000000000000000000000000000010100000000000000000000000000000000000000000000000000000000000000000000000000000000000000000000000000000000000000000000000000000000000000000000000000000000000000000000000000000000000000000000000000000010000000000000000000000000000000000000000000001100000000000000000000000000000000000000000000000000000000000000000000000000000000000000000000000000000000000000000000000000000000000000000000000000000000000000000000000000000000000000000000000000000011000000000000000000000000000000000000000000000000000000000000000000000000000000000000000000000000000000000000000000000000000000000000000000000000000000000000000000000000000000000000000000000000000000000000000000000000000000000000000000000000000000000000000000000000000000000000000000000000000000000000000000000000000000000000000000000000000000000000000000000000000000000000000000000000000000000000000000000000000000000011000000000000000000000000000000000000000000000000000000000000000000000000000000000000000000000000000000000000110000000000000000000000000000000000000000000000000000000000000000000000000000000000000000110000000000000000000000000000000000000000000000000000000000000000000000000000000000000000000000000000000000001100000000000000000000000000000000000000000000000000000000000000000000000000000000000000000000000000000000000000000000000010000000000000000000000000000000000000000000000000000000000000000000000000000000000000000000000000000000000000000000000000000000000000110000000000000000000000000000000000000000000000000000000000000001010000000000000000000000000000000000000000000000000000000000000000000000000000000000000000000000000000000000000000000000000000000000001010000000000000000000000000000000000000000000000000000000000000010100000000000000000000000000000000000000000000000000000000000000000000000000000000000000000000000000000000000011000000000000000000000001000000000000000000000000000000000000000000000000000000000000000010000000000000000000000000000000001100000000000000000000000000000000000000000000000000000000000000000000000001001000000001100000011000000000000000000000000000000000000000000000000000000000000000000000000000000000000000000000000000000011000000000000000000000000011000000000000000000100000000000000000000000000001100000000011000001001000000000000000000000000000000000000000000000000111000000000000110000000110000000000000000000000000000000000000000000000000000000110000000000000000011000000000000000000000000000000000000000000000010100000000000000000000000000000000000000000000000000000000000000001100000010010000000000000000000000000000000000000000000000000000000000000000000000011010000000000000000000000000000000000000000000000010000000000000000000000000000000000000000000000000000000000000000000000000011000000000000000000000000000000000000000000000000000000000000000000000000000110000000000000000000000000000000000000000000000000000000000000000000000000000000000000000000000000000000000000000000000000000000000000000000000000000000000000000000000000000000000000000000000000010000000000000000000000000000000000000000000000000000000000000000000000000000000000000110000000000000000000000000000000000000000000000000000000000000000000000000000000000000000000000000000000000000000010000100000000000000000000000000000000000000000000000000000000000000000000000000000010010000000000000000000000000000000000000000000000000000000000000000000000000000000000000000000000000000000000000000110010000000000000000000000000000000000000000000000000000000000000000000000000000000101000000000000000000000000000000000000000000000000000000000000000000000000000001110000000000000000000000000000000000111000000000000000000000000000000000000000000000000000000000000000000000000000000000100000000000000000000000000000000000000000000000000000000000000000000000000000000000000000000000000000000000000000000100000000000000000000000000000000000000000000000000000000000000000000000000000000000000000000000000000000000000000000000000000000000000001100110000000000000000000000000000000000000000000000000000000000000000000000000000000000000000001000000000000000000000000000000000000000000000000000000000000000000000000001110000000000000000000000000011001100000000000000000000000000000000000000000000000000000000000000000000000000000000000000000101000000000000000000000000000000000000000000000000000000001100000000000000000000000000000000000000001100000000000000000000000000000000000000000000000000000000000000000000000000000000000000000000000001010000110000000000000000000000000000000000000000000000000100100000000000000000000000000000000000000011000000000000100000000000000000000000000000000000000000000000000000000000000000000000000000000000001000010010000000000000000000000000000000000000000000000001010000000000000000000000000000000000000000000000000000010100000000000000000000000000000000000000000000000000000000000000000000000000000000000000000011000000000000000000000000000000000000000001000000001000000000000000000000000000000000000000000000000000000101000000000000000000000000000000000000000000000000000000000000000000000000000110000000000000000000000000000000000000000000000000000000101000000000000000000000000000000000000000000000000000000000000000100000000000000000000000000000000000000000000000000000000000000000000000000010010000000000000000000000000110000000000000000000000000000110000000000000000000000000000000000000000000000000000000000000000000000000000000011000000000000000000000000000000000000000000000001000000001100110000000000000000000000010100000000000000000000000000000000000000000000000000000000000001110000000000000000000000000000000000000000000000110000000000000000000000000000000000000000000000101000000010001100000000000000000000000010000000000000000000000000000000000000000000000000000000000000000000110000000000000000000000000000000000000000000000000000000000000000000000000000000000000000010010000000000011000010000000000000000000000000000000000000000000000000000000000000000000000000000000000000110010000000000000000000000000000000000000000000000000000000000000000000000000000000000000000011000000001010010001110000000000000000000000000000000000000000000000000000000000000000000000000000000000001101100000000000000000000000000000000000000000000000000000000000000000000000000000000000000000000000001110100111110000000000000000000000000000000000000000000000000000000000000000000000000000000000000010010000000000000000000000000000000000000000000000000000000000000000000000001110000000000000000000000010001001111101000000000011000000000000000000000000000000000000000000000000000000000000000000000000110110000000000000000000000000000000000000000000000000000000011110000000000000000000000000000000000000100001100011010000000001100100011000000000000001000000000000000000000000000000000000000000000000001110111000000000000000000000000000000000000000000000000000001000000000000010000000000000000000000000000101111000111110000001100001000110000000011000101000000000000000000000000000000000000000000000000110000001000000000000000000000000000000000000000000000000000000011000000000100000100000000000000000000000110000000011000000001110000000000000000110000001000000000000000000000000000000000000000000000001100001100000000000000000000000000000100000000000000000000000001110000000001000011100000000000000000000000000010010110000001010001000000000000000010010100000000001000000000000000000000000000000000001001001000000000000000000000000000000001000000000000000000001001000000000110000000111000000000000000000000000001100010000000110111100000000000000000110000000000000101000000000000000000000000000000000010100101000000000000000000000000000000010000000000000000000100000011000001100000000000010000000000000000000000010011000100000011110000000000000000101000000000000001010000000000000000000000000001110000100100100111000100000000000000000000000000000000000001000001000010100000000000000000000110000000000000000000000001100000100000000000000000000000001000000000001000001000000000000000000000000000000100000011000001100010100000000000000000000000000000000000100000011000110000000000000000001111010000000000000000000011100000101000000000000000000100000000000000110001000000000000000000000000000000101101000000001101100001001000000000000000000000000000000000000001000010000000000000000000011101001110000000000110000001100010101101000000001110000110100000000000110000000000000000000000000000000000001011100000000010101000001100000000000000000000000000000000001000000000001100000011100000001011100001000000000010010000011100100000010000000010001001101000000000011101001100000000000000000000000000000010000000000000000000000000000000000000000000000000000000000000001000000001010001110000000010010001100000000000100100110111001000100110000000010000001111110000000100000000000000000000000000000000000000000000000000000111000000000000000000000000000000000000000000100011000000011000111000000000001000100000000000000110001100111000101010110000000010100000100100000000000000000000000000000000000000000000000000000000000000000000000000000000000000000000000000000000000111011000011000000000000000000010101000000000000000000000000101000000111000010100000000001011000000000000000000000000001000000000000000000000000000000000000000000000000000000000000000000000000000000000000110000100000001000000000000011100000000000000000000000000100000001100000101000000000011000000000000000000000000000101000000000000000000000000000000000000000000000000000000000000000000000000000000000001100000000011100000000000000010000000000000000000000000000000000000000000100000000000000000000000000000000000000001010000000000000000000000000000000000000000000000000000000000000000000000000000000000000000000110000000000000000000000000000000000000000000000000001100000000000000000000000000000000000000000000000000001000000000000000000000000000000000000000000000000000000000000000000000000000000000000000000000000000000000000000000000000000000000001000000000000011000000000000000000000000000000000000000000000000000000000000000000000000000000000000000000000000000000000000110000000000000000000000000000000000000000000000000000000000000000000000000010000000000000000000000000000000000000000000000000000000000000000000000000000000000000000000000000010000000000000000000000001100000000000000000000000000000000000110000000000000000000000000000000000000100000000000000000000000000000000000000000000000000000000000000000000000000000000000000000000000000100000000000000000000000000000000000000000000000000000111000001100000000000000011000000000000000000000000000000000000000000000000000000000000000000000000000000000000000000000000000000000000000000000001000000000000000000000000000000000000000000000000000000000000000000000000000001001000000001100000000000000000000000000000000000000000000000000000000000000000000000000000000000000000000000000000000000000000000000000000000000000000000000000000000000000000000000000000000000000000010010000000101000000000000000000000000000000000000000000000000000000000000000000000000000000000000000000000000000000000000000000000000000000000000000000000000000000000000000000000000000000000000000000011000000000100000000000000000000000000000000000000000000000000000000000000000000000000000000000000000000000000000000000000000000000000000000000000000001100000000000000000000000000000000000000000000000000000000000000000000000000000000000000000000000000000000000000000000000000000000000000000000000000000000000000000000000000000000000000000110000000000100100000000000000000000000000000000000000000000000000000000000000000000100000000000000000000000000000000000000000000000000000000000000000000000000000000000000000000000000000000000000000001100000000000110000000000000000000000000000000000000000000000000000000000000000000010100000000000000100000000000000000000000000000000000000000000000000000000000000000000000000000000000000000000000000000000000000000000000000000000000000000000000000000000000000000000000000000000000001010000000000000011000000000000000000000000000000000000000000000000000000000000000000000000000000000000000000000000000000000000000000000000000000000000000000000000000000000000000000000000000000000000101000000000000000101000000000000000000000000000000000000000000000000000000000000000000000000000000000000000000000000000000000000000000000000000000000000000000000000000000000000000000000000000000000000100000000000000000000000000000000000000000000000000000000000000000000000000000000000000000000000000010000000000000000000000000000000000000000000000000000000000000000000000000000000000000000000000000000000000000000000000000000000000000000000000000000000000000000000000000000000000000000000000000000000100000000000000000000000000000000000000000000000000000000000000000000000000000000000000000000000000000000000000000000000111100000000000000000000000000000000000000000000000000000000000000000000000000001000000000000000000000000000001000000000000000000000000000000000000000000000000000000000000000000000000000000000000000011100100000000000000000000000000000000000000000000000000000000000000000000000000000000000000000000000000000000101000000000000000000000000000000000000000000000000000000000000000000000000000000000000000100010000000000000000000000000000000000000000000000000000000000000000000000000000000000000000000000000000000001010000000000000000000000000000000000000000000000000000000000000000000000000000000000000000100100000000000000000000000000000000000000000000000000000000000000000000000000000000000000000000000000000000001000000000000000000000000000000000000000000000000000000000000000000000000000000000000000001110000000000000000000000000000000000000000000000000000000000000000000000000011100000000000000000000000000000000000000000000000000000000000000000000000000110000000000000000000000000000000000000000000000000000000000000000000000000000000000000000000000000000000000000000000000000000000000000000000000000000000000000000000000000011000000000000000000000000001100000000000000000000000000000000000000000000000000000000000000000000000000000000000000000000000000000000000000000000000000000000000000000000000000000000000000000000000000110000111000000000000000000000000000000000000000000000000000000000000000000000000000000000000000000000000000000000000000000000000000000000000000000000000000000110000000000000000000000011000000000000000000000000000000000000000000000000000000000000000000000000000000000000000000000000000000000000000000000000000000000000000000000000000000000000000000000000000001010000000000000000000000110000000000000000000000000000000000000000000000000000000000000000000000000000000000000000000000000000000000000000000000000000000000000000000000000000000000000000000000000000001100000000000000000000000000000000000000000000000000000000000000000000000000000000000000000000000000000000000000000000000000000000000000000000000000000000000000000000000000000000000000000000000000000000000000000000000000000000000000000000000000000000000000000000000000000000000000000000000000000000000000000000000000000000000000000000000000000000000000000000000000000000000000000