P1
200 200
0110000000000000000000000000000000000000000000000000000000000000000000000000000000000000000000000000000000000000100000000000000000000000000000000000000000000000000000000000000000000000010000000000000010010000000000000000000000000000000000000000000000000000000000000000000000000000000000000110000000000000010000010100000000000000000000000000000000000000000000000000000000000000000000001010000000000000100001000000000000000000000000000000000000000000000000000000000000000000000000000000000000100000000000001010000100100000000100000000000000000000000000000000000000000000000000000000000010100000000000001000010000000000000000000000000000000000000000000000000000000000000000000000000000000000000111000000000011000000110000000010100000000000000000000000000000100000100000000000000000000000010000000000000010000100000000000000000000000000000000000000000000000000000000000000000000000000000000000000110000000000000000000000000000101000000000000000000000000000001000010100000000000000000000000000001111000000011100000000000000000000000000000000000000000000000000000000000000000000000000011000000000000000000000000000000000000000000100000000000000000000000000000010000100100000000000000000000000000010001000000000000000000000000000000000000000000000000000000000000000000000000000000000000110000000000110000000000000000000000000000000000000000000000000000000000000000000110000000000000000000000000000000000000001110000000000000000000000000000000000000000000000000000000000000000000000000000000000000000000000000000000000000000001100000001100000000000000000000000000000000000000000001100000000000000010001100000100001000000000000000000000000000000000000000000000000000000000000000000000000000000000000000000000000000000000000000100100000100100000000000000000000000000000000000000000011000000000000000100011000001000010000000000000000000000000000000000000000000000000000000000000000000000000000000000000000000000000000000000000000110000000110000000000000000000000000000000000000000000000000000000000000111000000010000100000000000000000000000000000000000000000000000000000000000000000000000000000000000000000000000000000000000000000000000000000000000000000000000000000000000000000000000000000000000000001110000000000000000000000000000000000000000000000000000000000000000000000000000000000000000000000000000000000000000000000000000000000100000000000000000000000000000000000000000000000000000000000000000110000000000111000000000000000000000000000000000000000000000000000000000000000000000000000000000000000000000000000000000000000000000010100000000000000000000000000000000000000000000000000000000000000001111000000000000000000000000000000000000000000000000000000000000000000000000000000000000000011100000000000000000000000000000000000000101000000000000000000000000000000000000000000000000000000000000001100000000000000000000000000000000000000000000000000000000000000000000110000000000000000000000000000000000000000000000000000000000000000100000000000000000000000000000000000000000000000000000000000000100000000000000000000000000000000000000000000000000000000000000000000010010000000000000000000100000100000000000000000000000000000000000000000000000000000000000000000000000000000000000000000000000000110001000000000000000000000000000000000000000000000000000000000000000000101000000000000000000001000001000000000000000000000000000000000000000000000000000000000000000000000000000000000000000000000000001101000010000000000000000000000000000000000000000000000000000000000000000100000000000000000000010000010000000000000000000000000000000000000000000000000000000000000000000000000000000000000000000000000011000110000000000000000000000000000000000000000000000000000000000000000000000000000000000000000000000000000000000000000000000000000000000000000000000000000000000000000000000000000000000011000001100000000001100111100000000000000000000000000000000000000000000000000000000000000000000000000000000000011100000000000000000000000000000000000000000000000000000000000000000000000000000000000000110000011000000011000001111000000000000000000000000000000000000000000000000000000000000000000000000000000000000000000000000000000000000000000000000000000000000000000000000000000000000000000000000000000000000000000000000000100100000000000000000000000000000000000000000000000000000000000000000000000000000000000000000000000000000000000000000000000000000000000000000000000000000000000000000000000000000000000000000110000000000110000000000000000000000000000000000000000000000000000000000000000000000000000000000000000000000000000000000000000000000000000000000000000000000000000000000000000000000000000000000000000001100000000001100000000000000000000000000000000000000000000000000000000000000000000000000000000000000000000000000000000000000000000000000000000000000000000000000000000000000000000000000000000000000000000000000000000000000000000000000000000000000000000000000110000000000000000000000000000000000000000000000000000000000000000000000000000000000000000000000000000000000000000000000000000000000000000000000000000000000000000000000000000000000000000000000000000010010000000000000000000000000000000000000000000011000000000000000000000000000000000000000000000000000000000000000000000000000000000000000000000000000000000000000010000000000000000000000000000000000000100100000000000000000000000000000000000000000000100000000000000000000000000000000000000000000000000000000000001110000000000000000000000000000000000000000000000001010000000000000000000000000000000000000110000000000000000000000000000000000000001000001011100000000000000000000000000000000000000000000000000000000010000000000000100000000000000000000000000000000000010100000000000000000000000000000000000000000000000000000000000000000000000000000011100110001100000000000010000000000000001000000000000000000000000000111000000000010100000000000000000000000000000000000010000000000000000000000000000000000110000000000000000000000000000000000000000000011111101001000000000001010000000000000101000000000000000000000000010000000111000001000000000000000000000000000000000000000000000000000000000000000000000001100000000000000000000000000000000000000000000011101111100000000000100100000000000001010000000000000000000000000110010001100010000000000000000000000000000000000000100000000000000000000000000000000000000000000000011000000000000000000000000000000000110000000000000000000100000000000000001000000000000000000000000000000100000000001000000000000000000000000000000000011100000000000000000000000000000000000000000000001001000000000000000000000000000001010000000000000000000001101000000000000000000000000000000000000000001101110000011010000000000000000000000000000000001111100000010000000000000000000000000000000000000010100000000000000000000000000000000100000000000000011000000011000000000000000000000000000000000000000000000100000000100000000000000000000000000000000111011000001010000000000000000000000000000000000000010000000000000000000000000000000000000000000000001001000001100110000000000000000000000000000000000000000000000001001000000000000000000000000000000001101100000010010000000000000000000000000000000000000000000000000000000000000000000000000000000000000001100000010101110100000000000000000000000000000000000000000000010100000000000000000000000000000000000100000000011000000000000000000000000000000000000000000000000000000000000000000000000000000000000000000000001101011110000000000000000000000000000000000000000000000010000000000000000000000000000000000000000000000000000000000000000000000000000000000000000011000000000000000000000111000000000000000000000000000000000000100000000000000000000000000000000000000000000000000000000000100000000010000000000000000000000000000000000000010000000000000000000000000000110000000000000000000000000000000000000000000000000000100010000000000000000000000000000000000000000000000000000000000000010110000000100000000000000000000000000000000000001010000000000000000000000000000000000000000000000000000000000000000000000000000000000111000000000000000000000000000000000000000000000000000000000000000100100000001000000000000000000000000000000000000110110000000000000000010000000000000000000000000000000000000000000000000000000000000000000000000000000000000000000000000000000000000000000000000000000000100000000000000000000000000000000000000000000000100100000000000000001010000000000000000000000000000000000000000000000000000000000000000000000000000000000000000000000000000000000000000000000000000000001000000000000000000000000000000000000000000000000111000000000000000010010000000000000000000000000000000000000000000000000000000000000000000000000000000000000000000000000001010000000000000000000000000010000000000000000000000000000000000000000000000000110000000000011000011000000000000000000000000000000000000000000000000000000001110000000000000000000000000000000000000000011000000000000000000000110000001000000000000000000000000000000000000000000000000111000000000110000000000000000000000000000000000000000000000000000000000000000000000000000000000000000000000000000011100010000000000000000000010011100000000000000000000000000011000000000000000000101010010000000000000000000000000000000000000000000000000000000000000000000000000000000000000000000000000000000000000000111000000000000000000000000010000000000000000000000000000000110000000000000000001000000000000000000000000000000000000000000000000000000000000000000000000000000000000000000000000000000000000000000000001110000000000000000000000000110001000000000000000000000000000000000000000000000000000011000000000000000000000000000000000000000000000000000000000000000000000000000000000000000000000000000000000000001000001000000000000000000000000000000000000000000000000000000000000000000000000000000000100000000000000000000000000000000000000000000000000000000000000000000000000000000000000000000000000000000000001110000011100000000000000000000000000000000000000000000000000000000000000000000000000000010000011000000000000000000000000000000000000000000000000000000000110000000001110000000000000000000100000000111000000100000011100000000000000000000000000000000000000000000000000000000000000000000000010000101110000000000000000000000000000000000000000000000000000000000110000000000000000000000000000010100000001000000011100000001000000000000000000000000000000000000000000000000000000000000000000000011100010001100000000000000000000000000000000000000000000000000000000010000000000000000000000000000000100100000011100101101101001110000000000000000000000000000000000000000000000000000000000000000000000000000000100000000000000000000000000000000110000000000000000000000000000000000000000000000000000110000110000000000001111011110000000000000000000000000000000000000000000000000000000000000000000000000000000001001000000000000000000110000000000001100000000000000000000000000000000000000000000000000001100000000000000001101100011011000000000000000000000000000000000000000000000000000000000000000000000000000000000001000000000000000001100000000000000000000000000000000000000000000000000000000000000000000000000000000000000000000000000000000000000000000000000000000000000000000000000000000000000000000000000000000110100000000000000000000000000000000000000000000000000011000000000000000000000000010000000000000000000000000011000000011000000000000000000000000000000000000000000000000000000000000000000000000000000111000000000000000000000000000000000000000000000000000000110000000000000000000000000100000000000000000000000000011000001100000000000000000000000000000000000000000000000000000000000000000000000000000001100011100000000000000000110000011000000000000000000000000000000000000110000000000001000000000000000000000000000010000010000000000000000000000000000000000000000000000000000000000000000000000000000000000000000100000000001100010010000110000000000000000000000000000000000010100000000000000000000000000000000000000000000000000000000000000000000000000000000000000000000000000000000000000000000000000000000000100001000000000011000010100000000000000000000000000000000000000001101100000000000000000000000000000000010010000000000000000000000000000000000000000000000000000000000000000000000011000000000000000000000000010000000000000000010000000000000000000000000000000000000000010001110000000000000000000000000000000101000000000000000000000000000000000000000000000000000000000000000000000001001000000000000000001000011000000000000000000000000000000000000000000000000000000000000000000100000000000000000000000000000001110000000000000000000000000000000000000000000000000000000000000000000000010010000000000000000010010000000000000000000000000000000000000000000000000000000000000000000001000000000000000000000000000000000000000000000000000000000000000000000000000000000000000000000110000000000011000000000000000000011100000000000000000000000000000000000000000000000000000000000000000000000000000000000000000000001100000000000000000000000000000000000000000000000000000000000000000001100000000000000000000000000000000110000000000000000000000000000000000000000000000100000000000000000000000000000001100000000000000011000000000000000000000000000000000000000000000000000000000000000000000000000000000000000000000000000000000000000000000000000000000000000000000000000011100000000000000000000000000000100100000000000000000000000000000000000000000000000000000000000000000000000000000000000000000000000000000000000000000000000000000000000000000000000000000000000000000000100100000000000000000000000000000110000000000000000000000000000000000000000000000000000000000000000000000000000000000000000000000000000000000000000000000011100000000000000000000000000000000000011100000000000000000000000000000000000000000000000000000000000000000000000000000000000000000000000000000000000000000000000000000000000000000000000000000000000001001111000000000000000000000000000000000000000000010110000000000000000000000000000000000000000000000000000000000000000000000000000000000000000000000000000000000000000000000000000000000000000000000000100010101100000000000000000000000000000000000011100100010000000000000000000000000000000000000000000000000000000000000000000000000000000000000000000000000000000000000000000000110000000000000000000000000111001011000000000000010000000000000000000000000001000010000000000000000000000000000000000000000000000000000000000000000000000000000000000000000000000000000000000000000000010010000000000000000000000000000000110000000000001110000000000000000000010000110001000000000000000110000000000000000000000000000000000000000000000000000000000000000000000000000000000000000000000000000011000000000000000000000000000000001000000000000011110000000000000000001000010010000000000000000010010000000000000000000000000000000000000000000000000000000000000000000000000000000000000000000000000000000000000000000000000000000000000100000000000000000010000000000000000110001000000000000000000000011000000000000000000000000000000000000000000000000000000000000000000000000000000000000000000000000000000000000000000000000000000000000010000000000000000001000000000000000000100001001000000000000000000000000000000000000000000000000000000000000010000000000000000000000000000000000000000000000000000000000000000000000000000000000000000000000000000000000000000000000000000000000100001100010000000000000000000000000000000000000000000000000000000001010000000000000000000000000000000000000000000000000000000000000000000000000000000000000000000000000000000001101000000000000000000000000001000010000000000000000000000000000000000000000000000000000000010100000000000000000000000000000000000000000000000000000000000000000000000000000000001110000000000000000000000110100000000000000000001110010001000000000000000000000000000000000000000000000000000000000010000000000000011000000000000000000000000000000000000000000000000000000000000000000100100000000000000000000000111000000000000000000000000101100000000000000000000000000000000000000000001100000000000000000000000000000001000000000000000001000000000000000000000000000000000000000000000001000010000000000000000000000100000000000000000000000000000000000000000000000000000000000000000000000011000000000000000000000010110000000000000000000000101000000000000000000000000000000000000000000000000000000000000000000000000000000000000000000000000010010000000000000000000000000000000000000000000000000000000000000000000000100000000000000000000000000100000000000000000000000000000000000000000000000100000100000000000000000000000000000000000000000000111000000000000000000000000000000000000000000000000000000000000000000000001111101001000000000000000000000000000000000000000000000000000000000000000000000000000000000000000000000000000000000000000000000100000000000000000000000000000000000000000000000000000000000000000000000000110011100000000000000000000000000000000000000000000000000000000000000000100001100000000000000000000000000000000000000000000000000000000000000000000000000000000000000000000000000000000000000000000000000010100000000000000000000000000000000000000000000000000000000000000000010001100000000000000000000000000001110001100000000000000000000000000011000000000000000000000000000000000000000000000000000000000101100000000000000000000000000000000000000000000000000000000000000000001100010000000000000000000000000000000000100100000000000000000000000000110000000000000000000000000000000000000000000000000000000010100000000000000000000000000000000000000000000000000000000000000000000100010000000000000000000000000000000000000110000000000000011000000000000000000000000000000000000000000000000000000000000000000001001001100000000000000000000000000000000000000000000000000000000000000110000100011000000000000000000000000000000000000000000000000110000000000000000000000000000000000000000000000000000000000000000000010010000000000000000000000000000000000000000000000000000000000000001001001111100110000000000000000000000000000000000000000000000000000000110000000000000000000000000000000000000000000000000000000000000010010000000000000000000000000000000000001000000000000000000000000101110010011000000000000000000000000000000000000000000000000000000000010010000000000000000000000000000000000000000000000000000000000000100100000000000000000000000000000000000101000000000000000000000011000011000110000000000000000000000000000000000000000000000000000000000100100000000000000000000000000000000000000000000000000000000000000111000000000000000000000000000000000001010000000000000000000000111000000001000000000000000000000000000001110000000000000000000000000000110000000000000000000000000000000000000000000000000000000000000000000000000000000000000000000100110000001000000000000000000000000000000000101000000000000000000000000000000000000000000000000000000000000000000000000000000000000000000000000000000000000000000000001100000000000000000000000000000001011010000000000000000000000000000000000000000100000000000000000000000000000000000000000000000000000000000000000000000000000000000000000000000000000000000000000000000111000000000000000000000000000000010110000000000000000000000000000000000000000000000000000000000000000000000000000000000000000000000000001100000000000000000000000000000000000000000000000000000000000010001100000000000000000000000000000000000000000000000000000000000000000000000000000000000000000000000000000000000000000000000000000000000100100000000000000000000000000000000000000000110000000000000000101000000000000000000000000000000000001000011100000000000000000000000000000000000000000000000000000000000000000000000000000000000000000000110000000000000000000000000000000000000000010010000000000000010010000000000000000000000000000000000011000000000000000000000000000000000001011100000000000000000000000000000000000000000000000000000000000000000000000000000000000000000000000000000010100000001101000110100010000000000000000111000000000000000000000000000000000000000000000000001010111100000000000000000000000000000000000000000000000000000000000000000000000000000000000000000000000000010000001000000100110101100000000000000000000000000000000000000000000000000000000000000000000010001000100000000000000000000000000000000000000000000000000000000000000000000000000000000000000000000000000000000010000001000011000000000000000001000001000000000000000000000000000000000000000000000010001000010000000000000000000000000000000000000000000000000000000000000000000000000000000000000000000000000000000000101000110000000000000000000000010000010000000000000000000000000110000000000000000000011101110000000000000000000000000001000000000000000000000000000000000000000000000000000000000000000000000000000000000000000000000100000000000000000100000100000000000000000000000001100000000000000000000100000000000000000000000000000000101000000000000000000000000000000000000000000000001110000000000000000000000000000000000000000111000000000000000000000000000000000000000000000000000000000000000000000000000000000000000000000000000000001001000000000000000000000000000000000000000000000000000000000000000000000000000000000000000010010000000000000000000111000000000000000000000000000000000000000000000000000000000000000000000000000000000001100000000000000000000000000000000000000000000000000000000000000000000000000000000000000001101000000000000000000000000000000000000000000000000000000000000000000000000000000000000000000000000000000000000000000000000000000000000000000000000000000000000000000000000000000000000000000000111000001010000000000000000000000000000000000000000000000111000000000000000000000000000000000000000000010000000000000000000000000000000000000000000100000000000000000000000000000000000000000000000000001001100001000000000000000000000000000000000000000000000010010000000000000000000000000000000000000000000100000000000000000000000000000000000000000001000000000000000000000000000000000000000000000000000011000100000000000000000000000000000000011000000000000000100000000000000000000000000000000000000000000001000000000000000000000000000000000000000000010000000000000000000000000000000000000000000000000000001001000000000000000000000000000000001101100000000000000000100000000000000000000000000000000000000000000000000000000000000000000000000000000000000000000000000000000000000000000000000001000000000000000011100000000000000000000000000000000010011000000000111110001000000000000000000000000000000000000001110001110000000000000000000000000000000000000000011100000000000000000000000000000000010000000000000000000000000000000000000000000000000000001100111000001110100010000000000000000000000000000000000000000000000000000000000000000100000000000000000000000000000000000010000000000000000000000100000000000000000000000000000000000000000000000000000011101001000010001011110000000000000011000000000000000000000000000000000000000000000010100000000000000000000000000000000001010000000000000000000000000000000000000011100011100000000000000000000000000000111011111000001100001101000000110000110000000000000000000000000000000000000000000000101000000000000000000000000000000000010100000000000000000000000000000000000000000000000001100000000000000000000000000000001011000000000110110000001100000000000000000000000000000000000000000000000000000100000000000000000001000000000000000010000000000000000000000000000000000000100000100000100100000000000000000000000010000010100000110000110100000000000000000000000000000000000000000000000000000000000000000000000000000000010000000000000000000000000000000000000000000000000000001000001000000110000000000000000000000000100000110000100010111100000000000000000000000000000000000100000000000000000000000000000000001100000000000100000000000000000000000000000000000000000000000000000010000010000000000000000000000000000000001000000110001110100010000000000000000000000000000000000001000000000000000000000000000000000011000001101000000000000000000000000000000000000000000000000000000000000000000000000000000000000000000000000000000000111011111000100000000000011000000000000000000000010000000000000000000000000000000000000001110101000000000000000000000000000000000000000000000000000000000011100000000000000000000000000000000000000000001110000000001000000000001001000000000000000000000000000000000000000000000000000000000001000011010000000000000000000000000000000000000000000000000000000000000000000000000000000000000000000000000000000000000000100000000000000001010000000000000000000000011100000000000000000000000000000000010000010000000000000000000000000000000000000000000000000000000000000000000000000000000000000000000000000000000000000000001001000000000000001000000000000000000000000000000000000000000000000000000000000101000000000000000000000000000000000000000000000000000000000000000000000000000000000000000000000000000000000000000000000001110000000000000000000000000000000000000000000000000000000000000000000000000000000000000000000000000000000000000000000000000000000000000000000000000000000000000000000000000000000000000000000000000000000000000000000000000000000000000000000000000000000000000000000000000000000000000000000000000000000000000000000000000000000000000000000010000000000000000000000000000000001100000000000000000000000000000000000000000000000000000000000000000000000000000000000000000000000000000000000000000000000000000000000000000000000000000000000000000001010000000000000000000000000000000011000000000000000000000000000000000000000000000000000000000000000000000000000000000000000000000000000000000000000000000000000000000000000000000000000000000000000000010100000000000000000000000000000000000000000000000000000000000000000000000000000000000000000000000000000000000000000000000000000000000000000000000000000000000000000000000000000000000000000000000000000010000000000000000000000000000000000000000000001100000000000000000000000000000000000000000000000000000000000000000000000000000000000000000000000000000000000000000000000000000000000000000000000000000000000000000000000000000000000000000000000000000011000000000000000010000000000000000000000000000000000000000000000000000000000000000000000000000000000000000000000000000000000000000000000000000000000000000000000000000000000000000000000000000000000000000000000000000001010000000000000000000000000000000000000000000000000000000000000000000000000000000000000000000000000000000000000010000000000000000000000000000000000000000000000000000000000000000000000000000000000000010100000000000000000000000000000000000000000000000000000000000000000000000000000000000000000000000000000000001100010000000000000000000000000000000000000000000000000000000000000000000000000000000000000010000000000000000000000000000000000000000000000000000000000000000000000000000000000000000000000000000000000100001000000000000000000000000000000000000000000000000000000000000000000000000000000000000000000000000000000000000000000000000010000000000000000000000000000000000000000000000000000000000000000000000001000010000000000000000000000000000000000000000000000000000000110000000000000000000000000000000000000000000000000000000000000001010000000000000000000000000000000000000000000000000000000000000000000000000100000100000000000000000000000000000000000000000000000000001010000000000000000000000000000000000000000000000000000000000000010100000000000000000000000000000000000000000000000000000000000000000000100000000000000000000000000000000000000011000000000000000000000001000000000000000000000000000000000000000000000000000000000000000010000000000000000000000000000000001100000000000000000000000000000000010100001000010000000000000000000000000001001000000001100000011000000000000000000000000000000000000000000000000001000000000000000000000000000000000000000000000000000011000000000000000000000000011000000101000000000000000000000000000000000000001100000000011000001001000000000000000000000000000000000000000000000000010000000000000110000000110000000000000000000000000000000000000000000000000000000110000000100001110000000000000000000000000000000000000000000000000010100000000000000000000000000000000000000000000000000100000000000001100000010010000000000000000000000000000000000000000000000000000000000000000000001000000000000000000000000000000000000000000000000000010000000000000000000000000000000000000000000000000000000000000000000000000011000000000000000000000000000000000000000000000000000000000000000000000000000000000000000000000000000000000000000000000000000000000000000000000000000000000000000000000000000000000000000000000000000000000000000000000000000000000000000000000000000000000000000000000000000000000000000000000000000000000000000000000000000000000000000000000000000000000000000000000110000000000000000000000000000000000000000000000000000000000000000000000000000000000000000000000000000000000000000000000000000000000000000000000000000000000000000000000000000000000000000000000000000010010000000000000000000000000000000000000000000000000000000000000000000000000000010000000000000000000000000000000000001000000000000000000000000000000000000000000000000000000000000000000000000000000000101000000000000000000000000000000000000000000000000000000000000000000000000000000100000000000000000000000000000000000101000000000000000000000000000000000000000000000000000000000000000000000000000000000100000000000000000000000000000000000000000000000000000000000000000000000000000001000000000000000000000000000000000000100000000000000000000000000000000000000000000000000000000000000000000000000000000000000000000000000000000000010000000000000000000000000001100110000000000000000000000000000000000000000000000000000000000000000000000000000000000000000001000000000000000000000000000000000000000000000000000000000000000000000000000100000000000000000000000000011001100000000000000000000000000000000000000000000000000000000000000000000000000000000000000000101000000000000000000000000000000000000000000000000000000001100000000000000001000000000000000000000001100000000000000000000000000000000000000000000000000000000000000000000000000000000000000000000000001010000110000000000000000000000000000000000000000000000000100100000000000000000000000000000000000000011000000000000100000000000000000000000000000000000000000000000000000000000000000000000000000000000001000010010000000000000000000000000000000000000000000000001010000000000000000000000000000000000000000000000000000010100000000000000000000000000000000000000000000000000000000000000000000000000000000000000000011000000000000000000000000000000000000000001000000001000000000000000000000000000000000000000000000000000000101000000000000000000000000000000000000000000000000000000000000000000000000000110000000000000000000000000000000000000000000000000000000101000000000000000000000000000000000000000000000000000000000000000100000000000000000000000000000000000000000000000000000000000000000000000000010010000000000000000000000000110000000000000000000000000000110000000000000000000000000000000010000000000000000000000000000000000000000000000011000000000000000000000000000000000000000000000001000000000100100000000000000000000000010100000000000000000000000000000000000000000000000000000000000000100000000000000000000000000000000000000000000000110000000000000000000000000000000000000000000000101000000000110000000000000000000000000010000000000000000000000000000000000000000000000000000000000000001000110000000000000000000000000000000000000000000000000000000000000000000000000000000000000000010010000000000000000000000000000000000000000000000000000000000000000000000000000000000000000000000000000000010010000000000000000000000000000000000000000000000000000000000000000000000001001000000000000011000000000000000000000000000000000000000000000000000000000000010000000000000000000000000000000000000000000101000000000000000000000000000000000000000000000000000000000000000000000000100001000000000000000000000000000000000000000000000000000000000000000000000000001000000000000000000000000000000000000000000000100000000000000000000000000000000000000000000000000000000000000000000000001000010000000000000000000000000000000000000011100000000000000000000000000000000010001000000000000000000000000000000000000011000000000000000000000000000000000000000000000000000000000000000000000000100111000000000000000000000000001100000000000001010111000000011000000000000000000001000000000000000000000000000000000000000000110000000000000000000000000000000000000000000000000000000000000000000000001000000000000000000000000000000100100000000000010111101000000110000000000000000000100001010000000000000000000000000000000000000000000000000000000000000000000000000000000000000000000000000000000000000000110100000000000000000000000000101000000011100000001001000000000000000000000000001101010000000000000000000000000000000000000000000000000110000000000000000000000000000000000000000000000000000000001110001011010000000000000000000000000100000011100001010001100000000000000000000000000000111110000000000000000000000000000000000000001110000001100000000000000000000000011100000000000000000000000000000010011100110100000000000000000000000000000000000000100100000000000000000000000000000100001111110000000000000000000000000000000000000110010000000000000000000000000000000000000000000000000000000000000000100000100100000000000000000000000000000000000000000010000000000000000000000000001000100000001000000000000000000000000000000000000010111100000000100000000000000000000000000000000000000000000000000000000110010001110000000000000000000000000000000000000110000000000000000000000000000011101000000000000000000000000000000000000000000001101101100000010100000000000000000000000000000000011000001000001000000000011000000000000000000000000000000000000000000000000000000000000000000000010000010000000000000000000000000000000001100000000000001111011000001001000000000000000000000000000000000110000111000111000000000000000000000000000000000000110000000000000000000000111011000000000000001100000000000000000000000000000000000000011000000000000001001000000001100000000000000000000000000000000000000010101010101000000000000000000000000000000000010010000000000000001000001110010000000000000010000000000000000000000000000000000000000000000000000000000001000000000000000000000000000000000000000000000001110110110111000000000000000000000000000000000100100110001100000101000000000000000000000000111000000000000000000000000000000000000000000000000000000000000000000000000000000000000000000000000000000000001010101010100000000000000000000000000000000000110001100100100001010000011011100000000000001000000000000000000000000000000000000000000000000000000000000000000000000000000000000000000000000000000000000001110001110000000000000000000000000000000000000000000000101000001000001110000000000000011000100000000000000000000001000000000000000000000000000000000000000000000000000000000000000000000000000000000000000000000000000000000000000000000000000000000000000000000100000000000000000000000000000101010000000000000000000000101000000000000000000000000000000000000000000000000000000000000000000000000000000000000111000111000000000000000000000000000000000000000000000000000000000000000000000000000000000000000000000000000000001010000000000000000000000000000000000000000000000000000000000000000000000000000000000010101010101000000000000000000000000000000000000000000000000001100000000000000000000000000000000000000000000000000001000000000000000000000000000000000000000000000000000000000000000000000000000000000001110110110111000000000000000000000000000000000000000000000000011000000000000000000000001000000000000000000000000000000000000000000000000000000000000000000000000000000000000110000000000000000000000000001010101010100000000000000000000000000000000000111000000000000000000000000100100000000010000000000000000000000000000000000000000000000000000000000000000000000000000000000001100000000000000000000000000001110001110010010000000000000000000000000000000000000000000000000000000010000000000111100000000000000000000000000000000000000000000000000000000001110000000000000000000000000000000000000000000000000000001000001000000100000000011000000000000000000000000000000000000000000000100011000010100000000000000000000000000000000000000000000000000000000000000000000000000000000000000000000000000000000000000000000000000000010000000000001001000000001100000000000000000000000000000000000000011101000000111000000000000000000000000000000000000000000000000000000000000000000000000000000000000000000000000000000000000000000000000110000000000010010000000101000000000000000000000000000000000001100110111110000000000000000000000000000000000000000000000000000000000000000000000000000000000000000000000000000000000000000000000000000001000000000000011000000000100000000000000000000000000000000000000001101000000000000000000000000000000000000000000000000000000000000000000000000000000000000000000000001100000000000000000000000000000001111000000000000000000000000000000000000000000000001110000000000000000000000010000000000000000000000000000000000000000000000000000000000000000000000000000110000000000100100000000000000000000000000000000010000000000000000000000000000000000100000000000001011100000000000000000000100000000000000000000000000000000000000000000000000000000000000000000000000001100000000000110000000000000000000000000000000000000000000000000000000000000000000010100000000000110110000000000000010000000000000000000000000000000000000000000000000000000000000000000000000000000000000000000000000000000000000000000000000000000000000000000000000000000000000000000001010000000000001101100000000000000100000000000000000000000000000000000000000000000000000000000000000000000000000000000000000000000000000000000000000000000000000000000000000000000000000000000000000000101000000000000000100000000000000111110000000000000000000000000000000000000000000000000000000000000000000000000000000000000000000000000000000000000000000000000000000000000000000000000000000000000000000100000000000000000000000000000000011000000000000000000000000000000000000000000000000000000000000000000000000000000000000000000000000000000000000000000000000000000000000000000000000000000000000000000000000000000000000000000000000000001010000000000000000000000000000000000000000000000000000000000000001110000000000000000000000000000000000000000000000000000000000000000000000000000000000000000000000000000000000000000000000000000000000011000000000000000000000000000000000000000000000000000000000000000000000000000000000000000000000001000000000000000000000000000000000000000000000000000000000000000000000000000000000000000000000000000000100000000000000000000000000000000000000000000000000000000000000000000000000000000000000000000000101000000000000000000000000000000000000000000000000000000000000000000000000000000000000000000000000000000000000000000000000000000000000000001010000000000000000000000000000000000000000000000000000000001010000000000000000000000000000000000000000000000000000000000000000000000000000000000000000000000000000000000000000000000000000000000000000100100000000000000000000000000100000000000000000000000000000001000000000000000000000000000000000000000000000000000000000000000000000000000000000000000000000000000000000000000000000000000000000000000010000000000000000000000000000001000000000000000000000000000000000000000000000000000000000000000000000000000110000000000000000000000000000000000000000000000000000000000000000000000000000000000000000001000000000000000000000000000000010000000000000000000000000000000000000000000000011000001000000000000000000001100000000000000000000000000000000000000000000000000000000000000000000000000000000000000000010010000000000000000000000000000000000000000000000000000000000000000000000000000110000010000000000000000000000000000000000000000000000000000000000000000000000000000000000000000000000000000000000000000100100000000000000000000000000000000000110000000000000000000000011000000000000000000000100000000000000000000000000000000000000000000000000000000000000000000000000000000000000000000000000000000000000000110000000000000000000000000000000000001010000000000000000000000110000000000000000000000000000000000000000000000000000000000000000000000000000000000000000000000000000000000000000000000000000000000000000000000000000000000000000000000000000001100000000000000000000000000000000000000000000000000000000000000000000000000000000000000000000000000000000000000000000000000000000000000000000000000000000000000000000000000000000000000000000000000000000000000000000000000000000000000000000000000000000000000000000000000000000000000000000000000000000000000000000000000000000000000000000000000000000000000000000000000000000000000000