P1
200 200
0010000000000000000000000000000000000000000000000000000000000000000000000000000000000000001100000000000000000000100000000000000000000000000000000000000000000000000000000000000000000000010000000000000001100000000000000000000000000000000000000000000000000000000000000000000000000000000000000011111000000000010000010100000000000000000000000000000000000000000000000000000000000000000000001010000000000000000000000000000000000000000000000000000000000000000000000000000000000000000000000000000001001110000000001010000100100000000100000000000000000000000000000000000000000000000000000000000010100000000000001100111000000000000000000000000000000000000000000000000000000000000000000000000000000000000001000000000011000000110000000010100000000000000000000000000000100000100000000000000000000000010000000000000010101000000000000000000000000000000000000000000000000000000000000000000000000000000000000010100000000000000000000000000000101000000000000000000000000000001000010100000000000000000000000000000010000000011000000000000000000000000000000000000000000000000000000000000000000000000000011000000000011000000000000000000000000000000100000000000000000000000000000010000100100000000000000000000000000011010000000000000000000000000000000000000000000000000000000000000000000000000000000000000110000000000100000000000000000000000000000000000000000000000000000000000000000000110000000000000000000000000000100110000001100000000000000000000000000000000000000000000000000000000000000000000000000000000000000000000000000000000000000000001100000001100000000000000000000000000000000000000000001100000000000000000010000000101010000000000000000000000000000000000000000000000000000000000000000000000000000000000000000000000000000000000000000100100000100100000000000000000000000000000000000000000011000000000000000110000000001100111000000000000000000000000000000000000000000000000000000000000000000000000000000000000000000000000000000000000000110000000110000000000000000000000000000000000000000000000000000000000000010011000000000000000000000000000000000000000000000000000000000000000000000000000000000000000000000000000000000000000000000000000000000000000000000000000000000000000000000000000000000000000000000000000101110000011000000000000000000000000000000000000000000000000000000000000000000000000000000000000000000000000000000000000000000000000100000000000000000000000000000000000000000000000000000000000000001000011000000010000000000000000000000000000000000000000000000000000000000000000000000000000000000000000000000000000000000000000000000010100000000000000000000000000000000000000000000000000000000000000001100110000000100000000000000000000000000000000000000000000000000000000000000000000000000000011100000000000000000000000000000000000000101000000000000000000000000000000000000000000000000000000000000000000001000000000000000000000000000000000000000000000000000000000000000110000000000000000000000000000000000000000000000000000000000000000100000000000000000000000000000000000000000000000000000000000000110000100000000000000000000000000000000000000000000000000000000000000010010000000000000000000100000100000000000000000000000000000000000000000000000000000000000000000000000000000000000000000000000000010110110000000000000000000000000000000000000000000000000000000000000000101000000000000000000001000001000000000000000000000000000000000000000000000000000000000000000000000000000000000000000000000000000100010100000000000000000000000000000000000000000000000000000000000000000100000000000000000000010000010000000000000000000000000000000000000000000000000000000000000000000000000000000000000000000000000001010110000000000000000000000000000000000000000000000000000000000000000000000000000000000000000000000000000000000000000000000000000000000000000000000000000000000000000000000000000000000011000001100000001110000000110000000000000000000000000000000000000000000000000000000000000000000000000000000000011100000000000000000000000000000000000000000000000000000000000000000000000000000000000000110000011000000000000001111100000000000000000000000000000000000000000000000000000000000000000000000000000000000000000000000000000000000000000000000000000000000000000000000000000000000000000000000000000000000000000000000000100000000000000000000000000000000000000000000000000000000000000000000000000000000000000000000000000000000000000000000000000000000000000000000000000000000000000000000000000000000000000000000110000000000101000000000000000000000000000000000000000000000000000000000000000000000000000000000000000000000000000000000000000000000000000000000000000000000000000000000000000000000000000000000000000001100000000000100000000000000000000000000000000000000000000000000000000000000000000000000000000000000000000000000000000000000000000000000000000000000000000000000000000000000000000000000000000000000000000000000000000000000000000000000000000000000000000000000110000000000000000000000000000000000000000000000000000000000000000000000000000000000000000000000000000000000000000000000000000000000000000000000000000000000000000000000000000000000000000000000000000010010000000000000000000000000000000000000000000011100000000000000000000000000000000000000000000000000000000000000000000000000000000000000000000000000000000000000010000000000000000000000000000000000000100100000000000000000000000000000000000000000000000000000000000000000000000000000000000000000000000000000000000010000000000000000000000000000000000000000000000001010000000000000000000000000000000000000110000000000000000000000000000000000000000100000110000000000000000000000000000000000000000000000000000000000011010000000000000000000000000000000000000000000000010100000000000000000000000000000000000000000000000000000000000000000000000000000010100010101100000000000000000000000000001000000000000000000000000000010000000100001000000000000000000000000000000000000010000000000000000000000000000000000110000000000000000000000000000000000000000001100000101011000000000000110000000000000101000000000000000000000000010000000010100111000000000000000000000000000000000000000000000000000000000000000000000001100000000000000000000000000000000000000000011011001001000000000000011000011000000001010000000000000000000000000000100000100000000000000000000000000000000000000000000000000000000000000000000000000000000000000000011000000000000000000000000000001111100000000000000000000100000000000000001000000000000000000000000011011000001001010000000000000000000000000000000000011100000000000000000000000000000000000000000000001001000000000000000000000000000001001000000000000000000000001000010000000000000000000000000000000000000001010000001001000000000000000000000000000000000111000000010000000000000000000000000000000000000010100000000000000000000000000000001100000000000000011000001110000111000000000000000000000000000000000001000100001000100000000000000000000000000000000010010000001010000000000000000000000000000000000000010000000000000000000000000000000000000000000000001001000000000110110000000000000000000000000000000010000001000001110000000000000000000000000000000000111000000010010000000000000000000000000000000000000000000000000000000000000000000000000000000000000001100000001000001100000000000000000000000000000000010000000000001000000000000000000000000000000000000110000000011000000000000000000000000000000000000000000000000000000000000000000000000000000000000000000000000000001010000000000000000000000000000000000000000000000000000000000000000000000000000000000000000000000000000000000000000000000000000000000000000011000000000000000000000111000000000000000000000000000011011001000000000000000000000000000000000000000000000000000000000000000000000010000000000000000000000000000000000000000000000000000000000000000000110000000000000000000000000000000000000000000000000000010100000000000000000000000000000000000000000000000000000000000000011100000000100000000000000000000000000000000000000100000000000000000000000000000000000000000000000000000000000000000000000000000000000010000000000000000000000000000000000000000000000000000000000000000111000000001000000000000000000000000000000000000011100000000000000000010000000000000000000000000000000000000000000000000000000000000000000010000000000000000000000000000000000000000000000000000000000000000100000000000000000000000000000000000000000000100100000000000000001010000000000000000000000000000000000000000000000000000000000000000000100000000000000000000000000000000001000000000000000000000000000001000000000000000000000000000000000000000000000110100000000000000010010000000000000000000000000000000000000000000000000000000000000000000100000000000000000000000000000001100000000000000000000000000010010000000000000000000000000000000000000000000000001110000000011000011000000000000000000000000000000000000000000000000000000001110000000000000000000000000000000000000000001100000000000000000000110000110000000000000000000000000000000000000000000000000011000000000110000000000000000000000000000000000000000000000000000000000000000000000000000000000000000000000000000000000000000000000000000000001100110000000000000000000000000011000000000000000000110000101000000000000000000000000000000000000000000000000000000000000000000000000000000000000000000000000000000000000000111000000000000000000000000011000100000000000000000000000000110000000000000000000100010010000000000000000000000000000000000000000000000000000000000000000000000000000000000000000000000000000000000000000100000000000000000000000000000000000000000000000000000000000000000000000000000000100010000100000000000000000000000000000000000000000000000000000000000000000000000000000000000000000000000000000000000110110000000000000000000000000011100000000000000000000000000000000000000000000000000110100000000000000000000000000000000000000000000000000000000000000000000000000000000000000000000000000000000000001111111111100000000000000000000000000000000000000000000000000000000000000000000000000100100000001000000000000000000000000000000000000000000000000000000000100000000001110000000000000000000100000000011000010101000011000000000000000000000000000000000000000000000000000000000000000000000000000000101110000000000000000000000000000000000000000000000000000000001100000000000000000000000000000010100000000100000100010000010000000000000000000000000000000000000000000000000000000000000000000000011100001000000000000000000000000000000000000000000000000000000000000101000000000000000000000000000000100100000001000000000000000100000000000000000000000000000000000000000000000000000000000000000000000000000010000000000000000000000000000000000110000000000000000000000000000000000000000000000000000110000110000000001101110001110110000000000000000000000000000000000000000000000000000000000000000000000000000011001000000000000000000110000000000001100000000000000000000000000000000000000000000000000001100000000000000000010010100100000000000000000000000000000000000000000000000000000000000000000000000000010000000110000000000000000001100000000000000000000000000000000000000000000000000000000000000000000000000000000000000110101011000000000000000000000000000000000000000000000000000000000000000000000000000100000001000000000000000000000000000000000000000000000000000011000000000000000000000000010000000000000000000000000001100000110000000000000000000000000000000000000000000000000000000000000000000000000000000100100000000000000000000000000000000000000000000000000000110000000000000000000000000100000000000000000000000000011100011100000000000000000000000000000000000000000000000000000000000000000000000000000001100001100000000000000000110000011000000000000000000000000000000000000110000000000001000000000000000000000000000000000000000000000000000000000000000000000000000000000000000000000000000000000000000000000000110100000000001100010010000110000000000000000000000000000000000000100000000000000000000000000000000000110000000000000000000000000000000000000000000000000000000000000000000000000000000000000000000000001001000000000011000010100000000000000000000000000000000000000000110000000000000000000000000000000000100010000000000000000000000000000000000000000000000000000000000000000000000011000000000000000000000100100000000000000000010000000000000000000000000000000000000000001000000000000000000000000000000000000101000000000000000000000000000000000000000000000000000000000000000000000001001000000000000000001101010000000000000000000000000000000000000000000000000000000000000101011100000000000000000000000000000000100000000000000000000000000000000000000000000000000000000000000000000000010010000000000000000010000100000000000000000000000000000000000000000000000000000000000000000001000000000000000000000000000000000000000000111000000000000000000000000000000000000000000000000110000000000011000000000000000000011100000000000000000000000000000000000000000000000000000000000000000000100000000000000000000000001100000000000000001111000000000000000000000000000000000000000000000001100000000000000000000000000000000000000000000000000000000000000000000000000000000000000000000000000000100000000001100000000000000011000000000000000110101000000000000000000000000000000000000000000000000000000000000000000000000000000000000000000000000000000000000000000000000000000001001000000000000000000000000000100100000000000000000000000000000000111100000000000000000000000000000000000000000000000000000000000000000000000000000000000000000000000000000000000000000000000000000000111000100000000000000000000000000110000000000000000000000000000000001110000000000000000000000000000000000000000000000000000000000000000000000000000000000001000000000000000000000000000000000000011100000110000000000000000000000000000000000000000000000000000000000000000000000000000000000000000000000000000000000000000000000000000000000000000000000000000000101000000000000000000000000000000000000000000011001000000000000000000000000000000000000000000000000000000000000000000000000000000000000000000000000000000000000000000000000000000000000000000000000000011010111000000000000000000000000000000000000001110000001000000000000000000000000000000000000000000000000000000000000000000000000000000000000000000000000000000000000000000000110000000000000000000000000010101010000000000000000000000000000000000000010011011100000000000000000000000000000000000000000000000000000000000000000000000000000000000000000000000000000000000000000000010010000000000000000000000000000000100000000000000100000000000000000000000011011010000000000000000110000000000000000000000000000000000000000000000000000000000000000000000000000000000000000000000000000011000000000000000000000000000000110000000000000011100000000000000000000101000001000000000000000010010000000000000000000000000000000000000000000000000000000000000000000000000000000000000000000000000000000000000000000000000000000000101000000000000001101100000000000000000110010000000000000000000000011000000000000000000000000000000000000000000000000000000000000000000000000000000000000000000000000000000000000000000000000000000000000100000000000000011001100000000000000000010100000100000000000000000000000000000000000000000000000000000000000010000000000000000000000000000000000000000000000000000000000000000000000000000000000000000000000000000000001110001000000000000000000000110110100000000000000000000000000000000000000000000000000000000001010000000000000000000000000000000000000000000000000000000000000000000000000000000000000000000000000000000001100011000000000000000000010011011100000000000000000000000000000000000000000000000000000000010100000000000000000000000000000000000000000000000000000000000000000000000000000000000000000000000000000000000110110000000000000000000111000000100000000000000000000000000000000000000000000000000000000010000000000000000000000000000000000000000000000000000000000000000000000000000000000011100000000000000000000000010000000000000000000000110010000000000000000000000000000000000000000000001100000000000000000000000000001110000000000000000001000000000000000000000000000000000000000000000000100100000000000000000000000000000000000000000000000110000000000000000000000000000000000000000000000011000000000000000000000010001100100000000000000000101000000000000000000000000000000000000000000000001001000000000000000000000000000000000000000000000011100010000000000000000000000000000000000000000000000000000000000000000000101100001000000000000000000100000000000000000000000000000000000000000000000001001000000000000000000000000000000000000000000000010010000000000000000000000000000000000000000000000000000000000000000000001000000010000000000000000000000000000000000000000000000000000000000000000110010010000000000000000000000000000000000000000000000000000000000000000000000000000000000000000000000000000000000000000000000000010001000000000000000000000000000000000000000000000000000000000000000000000101000000000000000000000000000000000000000000000000000000000000000000000000000000000000000000000000000000000000000000000000000000100000000000000000000000000000000000000000000000000000000000000000000110100000000000000000000000000001110001100000000000000000000000000011000000000000000000000000000000000000000000000000000000000001010000000000000000000000000000000000000000000000000000000000000000000101000000000000000000000000000000000000100100000000000000000000000000110000000000000000000000000000000000000000000000000000000001000110000000000000000000000000000000000000000000000000000000000000000111001100000000000000000000000000000000000110000000000000011000000000000000000000000000000000000000000000000000000000000000000000110001000000000000000000000000000000000000000000000000000000000000000010100011110000000000000000000000000000000000000000000000000110000000000000000000000000000000000000000000000000000000000000000000001000000000000000000000000000000000000000000000000000000000000000001000100001100100000000000000000000000000000000000000000000000000000000110000000000000000000000000000000000000000000000000000000000000001001000000000000000000000000000000000001000000000000000000000000101001110001001000000000000000000000000000000000000000000000000000000010010000000000000000000000000000000000000000000000000000000000000011100000000000000000000000000000000000101000000000000000000000010010000000000000000000000000000000000000000000000000000000000000000000100100000000000000000000000000000000000000000000000000000000000000000000000000000000000000000000000000001010000000000000000000000011000000010010000000000000000000000000001110000000000000000000000000000110000000000000000000000000000000000000000000000000000000000000000000000000000000000000000000100000000001000000000000000000000000011110000101000000000000000000000000000000000000000000000000000000000000000000000000000000000000000000000000000000000000000000000001000000000000000000000000000000001001110000000000100000000000000000000011110000100000000000000000000000000000000000000000000000000000000000000000000000000000000000000000000000000000000000000000000000101000000000000000000000000000000010010000000000001000000000000000000001101100000000000000000000000000000000000000000000000000000000000001100000000000000000000000000000000000000000000000000000000000000001000000000000000000000000000000000001000000000000000000000000000000001100000000000000000000000000000000000000000000000000000000000000100100000000000000000000000000000000000000000110000000000000000011010000000000000000000000000000000001010011100000000000000000000000000011000000000000000000000000000000000000000000000000000000000000000110000000000000000000000000000000000000000010010000000000000011010010000000000000000000000000000000011000000000000000000000000000000000011000010000000000000000000000000000000000000000000000000000000000000000000000000000000000000000000000000000010100000001100000110100100000000000000000111000000000000000000000000000000000000000000000000111011000100000000000000000000000000000000000000000000000000000000000000000000000000000000000000000000000000010000000100100000001011000000000000000000000000000000000000000000000000000000000000000000000010100011000000000000000000000000000000000000000000000000000000000000000000000000000000000000000000000000000000000001000111000000000000000000000001000001000000000000000000000000000000000000000000000010100110000000000000000000000000000000000000000000000000000000000000000000000000000000000000000000000000000000000000010000001000100000000000000000010000010000000000000000000000000110000000000000000000010000011000000000000000000000000001000000000000000000000000000000000000000000000000000000000000000000000000000000000010000100000100000000000000000100000100000000000000000000000001100000000000000000000100000000000000000000000000000000101000000000000000000000000000000000000000000000001110000000000000000000000000000000001100000011000000000000000000000000000000000000000000000000000000000000000000000000000000000000000000000000000000001001000000000000000000000000000000000000000000000000000000000000000000000000000000000000000010100000000000000000000111000000000000000000000000000000000000000000000000000000000000000000000000000000000001100000000000000000000000000000000000000000000000000000000000000000000000000000000000000000111000000000000000000000000000000000000000000000010000000000000000000000000000000000000000000000000000000000000000000000000000000000000000000000000000000000000000000000000000000000000000000000011000000100000000000000000000000000000000000000000000010010000000000000000000000000000000000000000000010000000000000000000000000000000000000000000100000000000000000000000000000000000000000000000000000100100000000000000000000000000000000000000000000000011101100000000000000000000000000000000000000000000100000000000000000000000000000000000000000001000000000000000000000000000000000000000000000000000001001000000000000000000000000000000000000000000000000111001000000000000000000000000000000000000000000001000000000000000000000000000000000000000000010000000000000000000000000000000000000000000000000000001110000000000000000000000000000000000111000000000011010000000000000000000000000000000000000000000000000000000000000000000000000000000000000000000000000000000000000000000000000000000001000000000000000000000000000000000000000000000000000011010000000000110000110000000000000000000000000000000000000001110001110000000000000000000000000000000000000000011100000000000000000000000000000000010000000000000000000000000000000000000000000000000001100100010000001100000110000000000000000000000000000000000000000000000000000000000000000100000000000000000000000000000000000010000000000000000000000100000000000000000000000000000000000000000000000000011110000110000000011101000000000000000011000000000000000000000000000000000000000000000010100000000000000000000000000000000001010000000000000000000000000000000000000011100011100000000000000000000000000001010001010000001100000101000000110000110000000000000000000000000000000000000000000000101000000000000000000000000000000000010100000000000000000000000000000000000000000000000001100000000000000000000000001100000110000001110100010000001100000000000000000000000000000100001000000000000000000100000000000000000001000000000000000010000000000000000000000000000000000000100000100000100100000000000000000000000110000011000000110000010100000000000000000000000000000000000010000001000000000000000000000000000000000000010000000000000000000000000000000000000000000000000000001000001000000110000000000000000000000001110000100000000111010000000000000000000000000000000000000100010000100000000000000000000000001100000100100100000000000000000000000000000000000000000000000000000010000010000000000000000000000000000000000000000000001100000110000000000000000000000000000000000001000000000000000000000000000000000011000001001000000000000000000000000000000000000000000000000000000000000000000000000000000000000000000000000000000000110011000011000000000000011000000000000000000000010000000000000000000000000000000000000001100000000000000000000000000000000000000000000000000000000000000011100000000000000000000000000000000000000000001100110100000000000000001001000000000000000000000000000000000000000000000000000000000000100010110000000000000000000000000000000000000000000000000000000000000000000000000000000000000000000000000000000000000111001000000000000001010000000000000000000000011100000000000000000000000000000000001000001100000000000000000000000000000000000000000000000000000000000000000000000000000000000000000000000000000000000001110110000000000000001000000000000000000000000000000000000000000000000000000000000010000010000000000000000000000000000000000000000000000000000000000000000000000000000000000000000000000000000000000000000100100000000000000000000000000000000000000000000000000000000000000000000000000000010000000000000000000000000000000000000000000000000000000000000000000000000000000000000000000000000000000000000000000000010000000000000000000000000000000000000000000000000000000000000000000000000000000001100000000000000000000000000000000000000000000000000010000000000000000000000000000000001100000000000000000000000000000000000000000000000000000000000000000000000000000000000000000000000000000000000000000000000000000000000000000000000000000000000000000001010000000000000000000000000000000011000000000000000000000000000000000000000000000000000000000000000000000000000000000000000000000000000000000000000000000000000000000000000000000000000000000000000000010100000000000000000000000000000000000000000000000000000000000000000000000000000000000000000000000000000000000000000000000000000000000000000000000000000000000000000000000000000000000000000000000000000010000000000000000000000000000000000000000000001100000000000000000000000000000000000000000000000000000000000000000000000000000000000000000000000000000000000000000000000000000000000000000000000000000000000000000000000000000000000000000000000000000011000000000000000010000000000000000000000000000000000000000000000000000000000000000000000000000000000000000000000000000000000000000000000000000000000000000000000000000000000000000000000000000000000000000000000000000001010000000000000000000000000000000000000000000000000000000000000000000000000000000000000000000000000000000000000110000000000000000000000000000000000000000000000000000000000000000000000000000000000000010100000000000000000000000000000000000000000000000000000000000000000000000000000000000000000000000000000000000001010000000000000000000000000000000000000000000000000000000000000000000000000000000000000010000000000000000000000000000000000000000000000000000000000000000000000000000000000000000000000000000000000100110010000000000000000000000000000000000000000000000000000000000000000000000000000000000000000000000000000000000000000000000010000000000000000000000000000000000000000000000000000000000000000000000001101000000000000000000000000000000000000000000000000000000000110000000000000000000000000000000000000000000000000000000000000001010000000000000000000000000000000000000000000000000000000000000000000000000000000100000000000000000000000000000000000000000000000000001010000000000000000000000000000000000000000000000000000000000000010100000000000000000000000000000000000000000000000000000000000000000000100000100011000000000000000000000000000011000000000000000000000001000000000000000000000000000000000000000000000000000000000000000010000000000000000000000000000000001100000000000000000000000000000000010100000111000000000000000000000000000001001000000001100000011000000000000000000000000000000000000000000000000001000000000000000000000000000000000000000000000000000011000000000000000000000000011000000101000010000000000000000000000000000000001100000000011000001001000000000000000000000000000000000000000000000000010000000000000110000000110000000000000000000000000000000000000000000000000000000110000000100000100000000000000000000000000000000000000000000000000010100000000000000000000000000000000000000000000000000100000000000010100000010010000000000000000000000000000000000000000000000000000000000000000000001000000000000000000000000000000000000000000000000000010000000000000000000000000000000000000000000000000000000000000000000000000011000000000000000000000000000000000000000000000000000000000000000000000000000000000000000000000000000000000000000000000000000000000000000000000000000000000000000000000000000000000000000000000000000000000000000000000000000000000000000000000000000000000000000000000000000000000000000000000000000000000000000000000000000000000000000000000000000000000000000000000110000000000000000000000000000000000000000000000000000000000000000000000000000000000000000000000000000000000000000000000000000000000000000000000000000001110000000000000000000000000000000000000000000010010000000000000000000000000000000000100000000000000000000000000000000000000000010000000000000000000000000000000000001000000000000000000000000000000000000000000000000000000000000000000000000000000000101000000000000000000000000000000000010000000000000000000000000000000000000000000100000000000000000000000000000000000101000000000000000000000000000000000111000000000000000000000000000000000000000000000100000000000000000000000000000000000010000000000000000000000000000000000000000001000000000000000000000000000000000000100000000000000000000000000000000000000000000000000000000000000000000000000000000000000000000000000000000000010000000000000000000000000001100110000000000000000000000000000000000000000000000000000000000000000000000000000000000000000001000000000000000000000000000000000000000000000000000000000000000000000000000100000000000000000000000000011001100000000000000000000000000000000000000000000000000000000000000000000000000000000000000000101000000000000000000000000000000000000000000000000000000001100000000000000001000000000000000000000001100000000000000000000000000000000000000000000000000000000000000000000000000000000000000000000000001010000110000000000000000000000000000000000000000000000000100100000000000000000000000000000000000000011000000000000100000000000000000000000000000000000000000000000000000000000000000000000000000000000001000010010000000000000000000000000000000000000000000000001010000000000000000000000000000000000000000000000000000010100000000000000000000000000000000000000000000000000000000000000000000000000000000000000000011000000000000000000000000000000000000000001000000001000000000000000000000000000000000000000000000000000000101000000000000000000000000000000000000000000000000000000000000000000000000000110000000000000000000000000000000000000000000000000000000101000000000000000000000000000000000000000000000000000000000000000100000000000000000000000000000000000000000000000000000000000000000000000000010010000000000000000000000000110000000000000000000000000000110000000000000000000000000000000010000000000000000000000000000000000000000000000011000000000000000000000000000000000000000000000001000000000100100000000000000000000000010100000000000000000000000000000000000000000000000000000000000000100000000000000000000000000000000000000000000000110000000000000000000000000000000000000000000000101000000000110000000000000000000000000010000000000000000000000000000000000000000000000000000000000000001000110000000000000000000000000000000000000000000000000000000000000000000000000000000000000000010010000000000000000000000000000000000000000000000000000000000000000000000000000000000000000000000000000000010010000000000000000000000000000000000000000000000000000000000000000000000000000000000000000011000000000000000000000000000000000000000000000000000000000000000000000000000000000000000000000000000000000101000000000000000000000000000000000000000000000000000000000000000000000000011110000000000000000000000000000000000000000010000000000000000000000000000000000000000000000000000000000000000000000000000000100000000000000000000000000000000000000000000000000000000000000000000000001000100000000000000000000000000000000000000000100000000000000000000000000011000111110000000000000000000000000000000000000011000000000000000000000000000000000000000000000000000000000000000000000000010100001000000000000000000000001100000000000001101010000000011000000000000100000000000110000000000000000000000000000000000000110000000000000000000000000000000000000000000000000000000000000000000000001110000100000000000000000000000100100000001100010000011000000110000000000000100001110100000000000000000000000000000000000000000000000000000000000000000000000000000000000000000000000000000000000000001000000001000000000000000000000000101000001111000010000110000000000000000000101000001100001010000000000000000000000000000000000000000000000110000000000000000000000000000000000000000000000000000000000100001010100000000000000000000000000100000010000001100001100000000000000000000111000000100010100000000000000000000000000000000000000010000001100000000000000000000000011100000000000000000000000000000001000000001000000000000000000000000000000000011000000100000000000000000000000000101000001010110000000000000000000000000000000000000011010000000000000000000000000000000000000000000000000000000000000000011011000000000000000000000000000000000000000000101110000000000000000000000001001100010000000000000000000000000000000000000000000001101000000000100000000000000000000000000000000000000000000000000000000001100001110000000000000000000000000000000000000110000000000000000000000000010011011000000000000000000000000000000000000000000000110000000000010100000000000000000000000000000000011000000000000000000000000000000000000000000000000000000000000000000000000000000000000000000000010000000000000000000000000000000000000001100000000000000110011000001001000000000000000000000000000000000110000010000010000000000000000000000000000000000000110000000000000000000000000000000000000000000110000000000000000000000000000000000000011000000000000000000110000001100000000000000000000000000000000000000001110001110000000000000000000000000000000000010010000000000000001000011101110000000000000001100000000000000000000000000000000000000000000000000000000001000000000000000000000000000000000000000000000000110110110110000000000000000000000000000000000100100110001100000101000110010010000000000000010000000000000000000000000000000000000000000000000000000000000000000000000000000000000000000000000000000000000111000111000000000000000000000000000000000000110001100100100001010000110000000000000000000000000000000000000000000000000000000000000000000000000000000000000000000000000000000000000000000000000000000000100000100000000000000000000000000000000000000000000000101000001000000100011000000000011010100000000000000000000001000000000000000000000000000000000000000000000000000000000000000000000000000000000000000000000000000000000000000000000000000000000000000000000100000000000000000000000000000011111000000000000000000000101000000000000000000000000000000000000000000000000000000000000000000000000000000000000010000010000000000000000000000000000000000000000000000000000000000000000000000000000000011000000000000000000000001010000000000000000000000000000000000000000000000000000000000000000000000000000000000001110001110000000000000000000000000000000000000000000000000001100000000000000000000000000000000000000000000000000001000000000000000000000000000000000000000000000000000000000000000000000000000000000000110110110110000000000000000000000000000000000000000000000000010000000000000000000000001000000000000000000000000000000000000000000000000000000000000000000000000000000000000110000000000000000000000000000111000111000000000000000000000000000000000000111000000000000010000000000000000000000010000000000000000000000000000000000000000000000000000000000000000000000000000000000001100000000000000000000000000000100000100000100000000000000000000000000000000000000000000000000000000001111000000000100000000000000000000000000000000000000000000000000000000001110000000000000000000000000000000000000000000000000000000000000000110100000000011000000000000000000000000000000000100000000000010001000001000000000000000000000000000000000000000000000000000000000000000000000000000000000000000000000000000000000000000000000000000000010000100000001001000000001100000000000000000000000001000000000100000000111000111000000000000000000000000000000000000000000000000000000000000000000000000000000000000000000000000000000000000000000000000010000000000010010000000101000000000000000000000010010000000000100011100000000000000000000000000000000000000000000000000000000000000000000000000000000000000000000000000000000000000000000000000000000001100000000000011000000000100000000000000000000000001110000000001000110000001000000000000000000000000000000000000000000000000000000000000000000000000000000000000000001100000000000000000000000000000001011010000000000000000000000000000000000000000000000011100000000000000000000010000000000000000000000000000000000000000000000000000000000000000000000000000110000000000100100000000000000000000000000000010001000000000000000000000000000000000100000000000001001000000000000010000010100000000000000000000000000000000000000000000000000000000000000000000000000001100000000000110000000000000000000000000000000100000000000000000000000000000000000010100000000000010100000000000101100000000000000000000000000000000000000000000000000000000000000000000000000000000000000000000000000000000000000000000000000000000000000000000000000000000000000000000001010000000000000111000000000010000100100000000000000000000000000000000000000000000000000000000000000000000000000000000000000000000000000000000000000000000000000000000000000000000000000000000000000000101000000000000000000000000000000100100000000000000000000000000000000000000000000000000000000000000000000000000000000000000000000000000000000000000000000000000000000000000000000000000000000000000000000100000000000000000000000000000111011000000000000000000000000000000000000000000000000000000000000000000000000000000000000000000000000000000000000000000000000000000000000000000000000000000000000000000000000000000000000000000000000000011100000000000000000000000000000000000000000000000000000000000000001110000000000000000000000000000000000000000000000000000000000000000000000000000000000000000000000000000000000000000000000000000000000010000000000000000000000000000000000000000000000000000000000000000000000000000000000000000000000001000000000000000000000000000000000000000000000000000000000000000000000000000000000000000000000000000000000000000000000000000000000000000000000000000000000000000000000000000000000000000000000000000000101000000000000000000000000000000000000000000000000000000000000000000000000000000000000000000000000000000000000000000000000000000000000000000110000000000000000000000000000000000000000000000000000000001010000000000000000000000000000000000000000000000000000000000000000000000000000000000000000000000000000000000000000000000000000000000000000010010000000000000000000000000100000000000000000000000000000001000000000000000000000000000000000000000000000000000000000000000000000000000000000000000000000000000000000000000000000000000000000000000001000000000000000000000000000001000000000000000000000000000000000000000000000000000000000000000000000000000110000000000000000000000000000000000000000000000000000000000000000000000000000000000000000000100100000000000000000000000000010000000000000000000000000000000000000000000000011000001000000000000000000001100000000000000000000000000000000000000000000000000000000000000000000000000000000000000000001000000000000000000000000000000000000000000000000000000000000000000000000000000110000010000000000000000000000000000000000000000000000000000000000000000000000000000000000000000000000000000000000000000011100000000000000000000000000000000000110000000000000000000000011000000000000000000000100000000000000000000000000000000000000000000000000000000000000000000000000000000000000000000000000000000000000000000000000000000000000000000000000000001010000000000000000000000110000000000000000000000000000000000000000000000000000000000000000000000000000000000000000000000000000000000000000000000000000000000000000000000000000000000000000000000000000001100000000000000000000000000000000000000000000000000000000000000000000000000000000000000000000000000000000000000000000000000000000000000000000000000000000000000000000000000000000000000000000000000000000000000000000000000000000000000000000000000000000000000000000000000000000000000000000000000000000000000000000000000000000000000000000000000000000000000000000000000000000000000000