P1
200 200
0000000000000000000000000000000000000000000000000000000000000000000000000000000000000000000000000000000000000000100000000000000000000000000000000000000000000000000000000000000000000000010000000000000000000000000000000000000000000000000000000000000000000000000000000000000000000000000000000000000000000000010000010100000000000000000000000000000000000000000000000000000000000000000000001010000000000000000000000000000000000000000000000000000000000000000000000000000000000000000000000000000000000000000000001010000100100000000100000000000000000000000000000000000000000000000000000000000010100000000000000000000000000000000000000000000000000000000000000000000000000000000000000000000000000000000000000000000011000000110000000010100000000000000000000000000000100000100000000000000000000000010000100000000000000000000000000000000000000000000000000000000000000000000000000000000000000000000000000000000000000000000000000000000000101000000000000000000000000000001000010100000000000000000000000000001000000000000000000000000000000000000000000000000000000000000000000000000000000000000000011000000000000000000000000000000000000000000100000000000000000000000000000010000100100000000000000000000000000010000000000000000000000000000000000000000000000000000000000000000000000000000000000000000110000000000000000000000000000000000000000000000000000000000000000000000000000000110000000000000000000000000000000000000000000000000000000000000000000000000000000000000000000000000000000000000000000000000000000000000000000000000000000000001100000001100000000000000000000000000000000000000000001100000000000000000000000000000000000000000000000000000000000000000000000000000000000000000000000000000000000000000000000000000000000000000000000100100000100100000000000000000000000000000000000000000011000000000000000000000000000000110000000000000000000000000000000000000000000000000000000000000000000000000000000000000000000000000000000000000000110000000110000000000000000000000000000000000000000000000000000000000000000000000000001110000000000000000000000000000000000000000000000000000000000000000000000000000000000000000000000000000000000000000000000000000000000000000000000000000000000000000000000000000000000000000000010000000011000011000000000000000000000000000000000000000000000000000000000000000000000000000000000000000000000000000000000000000100000000000000000000000000000000000000000000000000000000000000000000011011000000110000110000000000000000000000000000000000000000000000000000000000000000000000000000000000000000000000000000000000000010100000000000000000000000000000000000000000000000000000000000000000000110110000001100000000000000000000000000000000000000000000000000000000000000000000000000011100000000000000000000000000000000000000101000000000000000000000000000000000000000000000000000000011000000000001000000000001000000000000000000000000000000000000000000000000000110000000000000000000000000000000000000000000000000000000000000000100000000000000000000000000000000000000000000000000000001001000000000010000000000100100000000000000000000000000000000000000000000000010010000000000000000000100000100000000000000000000000000000000000000000000000000000000000000000000000000000000000000000000010100000000001100000000000000100000000000000000000000000000000000000000000000101000000000000000000001000001000000000000000000000000000000000000000000000000000000000000000000000000000000000000000000000010000000000000000000000000000000000000000000000000000000000000000000000000000100000000000000000000010000010000000000000000000000000000000000000000000000000000000000000000000000000000000000000000000000000000000000000000001101111100000000000000000000000000000000000000000000000000000000000000000000000000000000000000000000000000000000000000000000000000000000000000000011000000000000000000000011000000000000000000000000000010000100000000000000000000000000000000000000000000000000000000000000000000000000000000000000000000000000000000000000000000000000000000000000000010001000000000000000000000110000000000000000000000000000100010000000000000000000000000000000000000000000000000000000000000000000000000000000000000000000000000000000000000000000000000000000000000000001000010000000000000000000000000000000000000000000000000000100100000000000000000000000000000000000000000000000000000000000000000000000000000000000000000000000000000000000000000000000000000000000000000010010010000000000000000000000000000000000000000000000110001110000000000000000000000000000000000000000000000000000000000000000000000000000000000001010000000000000000000000000000000000000000000000000000110000000000000000000000000000000000011100000000000000000000000000000000000000000000000000000000000000000000000000000000000000000000000001100000010010000000000000000000000000000000000000000000000000000000000000000000000000000000000000001011000000000000000000000000000000000000000000000000000000110000000000000000000000000000000000000000010001000100100000000000000000000000000000000000000000000000000000000000000000000000000000000000000010000000000000000000000000000000000000000000000000000000010010000000000000000000000000000000000000000110111101001000000000000000000000000000000000000000000000000000000000000000000000000000000000000000000001100000000000000000000000000000000000000100000000000100100000000000000000000000000000000000000000100001101100000000000000000000000000000000000000000000000000000000000000000000000000000000000000010000011000000000000000000000000000000000000111000000000000110000000000000000000000000000000000000000000111100000000000000000000000000000000000000000000000000000000000000110000000000000000000000000000011000010000000000000000000000000000000000011111000000000000000000000000000000000000000000000000000000000000100000000000000000000000000000001000000000000000000000000000010100001100000000000000000000000001110000000000000000000000000000000000001000000001100110000000000000000000000000000000000000000001100001100000000000000000000000000000000101000000000000000000000000000010000011000000000000000000000000000000000000011100000000000000000000000111000100100111100000000000000000000000000000000000000000011000001000000000000000000000000000000001010000000000000000000000000000000000000000000000000000000000000000000000000000100000000000000000000000100111001001000000000000011000000000000000000000000000000000000001000000000000000000000000000000001000000000000000000110000000000000000000000000000000000000000000000000000001000100000000000000000000000110110110110000000000001001000000000000000000000000000000000000000000000000110000000000000000000000000000000000000001010000000000000000000000000000000000000000000000000000001001000000010000000000000001001000110000000000000010100000000000000000000000000000000000000000000000010100000000000000000000000000000000000000001000000000000000000000000000000000000000000000000000000000000000001010000000000000001100000000000000000000010000000000000000000000000000000000000000000000000001000110000000000000000000000000000000000000000000000000000000000000000000001000000000000000000100011000000010010000000010000000000000000000000000000000000000000000000000000000000000000000000000000000010010000000000000000000000000000000000000000000010000000000000000000000000101000000000000000010101000000000011000000000100000000000000000000000000000000000000000000000000000000000000000000000000000001100000010000000000000000000000000000000000000001010000000000000000000000001010000000000000000100010000000000000000000000000000000000000000000000000000011000000000000000000000111000000000000000000000011000000100000000000000000000000000000000000100010100000000000000000000000001000000010000111000100100000000000000000000000000000000000000000000000000000110000000000000000000000000000000000000000000000000000001000000000000000000000000000000000010100010000000000000000000000000000000000100000000001110000000000000001100000000000000000000000000000000000000000000000000000000000000000000000000000000111000010000000000000000000000000000000000000000101000000000000000000000000000000000000001000000000000000000000000000010100000000000000000000000000010000000000000000000000000000000000000000000000000010000001010000000000000000000000000000000000000000100000000000000000000000000000000000000000000000000000000000000000000010000000000000000000000000001010000000000000000000000000000000000000000000000000100000100101000000000000000000000000000000000000000000000000000000000000000000000000000000000000000000000000000000000000000000000000000000000000000010010000000000000000000000000000000000000000000000001000000000100000000000000000000000000000000001100000001100000000000000000000000000000000000000000000000000000000000000000000000000000000000000011000011000000000000000000000000000000000000000000000000001110000000010000000000000000000000000000000011000000100100000000000000000000000000000000000000000000000000000000000000000000000000000000000000110000000000000000000000000000000000000000000000000000000000000000000110000000000000000000000000000000000000000110000000000000000000000000000000000000000000000000011000000000000000000000000000000000000000000000000000000000000000000000000000000000000000000000000000000000100000000000000000000000000000000000000000000000000000000011000000000000000000000000000000000110000000000000000000000000000000000000000000000000000000000000000000000000000000000000000000000000000000010000000000000000000000000000000000000000000000000000000001001000000000000000000000000000000000000000000000000000000000000000001110000000000000000000000000000000000000000000000000000000000000000000011000000000000000000000000000000000000000011000000000000100001100000000000000000000000000000000000000000000000000000000011000000000000000000000000000000000000000000000000000000000000000000000000000001000000000000000000000000000000001100000000110000000000011100000000000000000000000000000000000000000000000000000111000000110000010000010000000000000000000000000000000000000000000000000000000000000001110000000000000000000000000000000001001000000000000000001100100000000000000000000000000000000000000000000000000000000000000111000100000100000000000000000000000000000000000000000000000000000000000000000000000000000000000000000000000010010111000000000000000010111000000000000000000000000000000000000000000000000000000000000000101001000001000000000000000000000000000000000000000000000000000000000000000000000000000000000000000000000000100100001000000000011000110101100000000000000000000000000000000000000000000000000000000000010010000000000000000000000000000000000110000000000000000000000000000000000000000000000000000110000000000000001001011100000000110100000000100100000000000000000000000000000000000000000000000000000000000011000001110000000000000110000000000001100000000000000000000000000000000000000000000000000001100000000000000000010010000000010000000000011111100000000000000000000000000000000000000000000000000000000000000000000000000000000001100000000000000000000000000000000000000000000000000000000000000000000000000000000000001100000000000100000000000010010000000000000000000000000000000000000000000000000000000000000000000000000000000000000000000000000000000000000000000000000000000000000000000000010000000000000000000000000000000000000001110000001101011000000000000000000000000000000000000000000000000000000000000001000000000000000000000000000000000000000000000000000000000000000000000000000000000100000000000000000000000000000000000000000000000010111000000000000000000000000000000000000000000000000000000000000000101000000000000000000000110000011000000000000000000010000000000000000011000000000001000000000000000000000000000000000000000000000000110010000000000000000000000000000000000000000000000000000000000000010000000000000000001100010010000110000000000000000001100000000000000000101000000000000000000000000000000000000000000000000000000000000111000000000000000000000000000000000000000000000000000000000000000100100000000000000011000010100000000000000000000000010100000000000000000100000000000000000000000000000000000000000000000000000000000000100000000000000000000000000000000000000000000011000000000000000110000000000000000000000000010000000000000000000000000000000000000000000000000000000000000000000000000000000000000000000000000000000000000000000000000000000000000000000000000000000001001000000000000000100000000000000000000000000000000000000000000000000000000000000000000000000000000000000000000000000000000000000000000000000000000000000000000000000000000000000000000000000000000000010010000000000000001110000000000000000000000000000000000000000000000110000000000000000000000000000000000000000000000000000000001000000000000000000000000000000000000000000000000000000000000110000000000011000000000000000010001100000000000000000000000000000000000000000001100000000000000000000000000000000000000000000000001100000010000000000000000000000000000000000000000000000000000000000001100000000000000000000000000000110000100000000000000000000000000000000000000000000000000000000000000000000000000001100000000000000011000000100000000000000000000000000000000000000000000000000000000000000000000000000000000000000000000000000100000000000000000000000000000000000000000000000000000000000000000000000000100100000000000000000000000000000000000000000000000000000000000000000000000000000000000000000000000000000000000000011110010111000000000000000000000000000000000000000000000011100000000000000000000000000110000000000000000000000000000000000000000000000000000000000000000000000000000000000000000000000000000000000000001000000101010000000000000000000100000000000000000000000011001000000000000000000000000000000000000000000000000000000000000000000000000000000000000000000000000000000000000000000000000000000000000000000010111110000000000000000000000010100000000000000000000000110000000000000000000000000000000000000000000000000000000000000000000000000000000000000000000000000000000000000000000000000000000000000000000000011101101011100000000000000000101000000000000000000000000100000000000000000000000000000000000000000000000000000000000000111000000000000000000000000000000000000000000000000000000000110000000000000000000000001000111000000000000000000100000000000000000000000000100011000000000000000000000000000000000000000000000000000000000000000000110000000000000000000000000000000000000000000000010010000000000000000000000001000110000000000000000000000000000000000000000000000110000000000000000110000000000000000000000000000000000000001000000000010010000000000000000000000000000000000000000000000011000000000000000000000000000000110000000000000000000000010100000000000000000000001000000000000010010000000000000000000000000000000000000010010000000101000000000000000000000000000000000000000000000000000000000000000000001110000000101010000000000000000000001001000000000000000000000110110000100000011000000000000000000000000000000000000000101000000000100000000000000000000000000000000000000000000000000000000000000000000000000000010000100000000000000000000010001000000000000000011100101100001000000000000000000000000000000000000000000000000000000000000000000000000000000000000000000000000000000000000000000000000000000000000000000100011000000000000110000000011101000000000000001000001100000010000000000000000000000000000000000000000000000000000000000000001110000000000000000000000000000000000000000000000000000000000000000000000000000000000000000010010000000000000100000000000001110110000000000000000000000000000000000000000000000000000000000000110000000000010000000000000000000000000000000000000000000000000000000000000000000100000110000000000000011000000000111000000000000000000001000000000000000000000000000000000000000000000000000000000000001100000000100000000000000000000000000000000000000000000000000000000000000000000001000000000000000000000000000000000100110000000000000010010000000000000000000000000000000000000000001100000000000000000000000000000011100000000000000001000000000000000000000000000000000000000010000000010000000000000000000000000000001100110000000000000000100000000000000000000000000000000000000000000011000000000000000000000000110000101100000000000000101000000000000000000000000000000000110001110000000000000000000000000000000000000001011100000000000000000110000000000000000000000000000000000000000000000000000000000000000001101100000000100000000000000100000000000000000000000000000000010110111110000000000000000000000000000000000000000000000111000000000011100000000000000000000000000000000000000000000000000000000000000000011110100000011000000000000000000000000000000000000000000000000100011000110000000000000000000000000000000000000000000000000000000000000000000000000000000000000000000000000000000000000000000000000000000011110110001100000000000000000000000000000000000000000000000000010010001000000000000000000000000000000000000110000000000000000000000000000000000000000000000000000000000000000000000000000000000000000010111101100000000000000000000000000000000000000000000000000000010100000000001000000000000000000000000000000010010001100000000000000000000000000011000000000000000000000000000000000000000000000000000000000000000000000000000000000000000000000000000000000000000000000110000000000101000000000000000000000000000000100100100100000000000000000000000000110000000000000000000000000000000000000000000000000000001100000000000000000000000000000000000000000000000000000000000110110000000011001000000000000000000000000000000110000110000000000000000000000000000000000000000000000000000000000000000000000000000000000000000000000000000000000000000000000000000000000000000000000000011100000001000010000000000000000000000000000000000000000000000000000000000000000000000000000000000000000000000000000000000000000000000000000000000000000000000000000000000000000000000000000000000000000000000000100110110000000000000000000000000000000000000000000000000000000000110000000000000000000000000000000000000000000000000000000000000000000000000000000000000000000000000000001000000000000000000000000000001000001000000000000000000000000000000000000000000000000000000000010010000000000000000000000000000000000000000000000000000000000000000000000000000000000000000000000000000101000000000000000000000000000000011100000110000000000000000000000000000000000000000000000000000100100000000000000000000000000000000000000000000000000000000000000000000000000000000000000000000000000001010000000000000000000000111000011110000010000000000000000000000001110000000000000000000000000000110000000000000000000000000000000000000000000000000000000000000000000000000000000000000000000000000000001000000000000000000000111010001100000001000000000000000000000000000000000000000000000000000000000000000000000000000000000000000000000000000000000000000000000000000000000000000000000000000000000000000000000000000000000000011000000000000000100000000000000000000000000000000000000000000000000000000000000000000000000000000000000000000000000000000001110000000000000000000000000000000000000000000000000000000000000000000000000110110001100000010000000000000000000000000000000000000000000000000000001100000000000000000000000000000000000000000000000000100010000000000000000000000000000000000000000000000000000000000000000000000000011000110000000000000000000000000000000000000000000000000000000000000100100000000000000000000000000000000000000000000000010000010000000000000000000000000000000000000000000000011100000000000000000000000000000010000001100010000000000000000000000000000000000000000000000000110000000000000000000000000000000000000000000000000000000100000000000110000000000000000000000000000000000000000000000000000000000000000011000000011001110000000000000000000000000000000000000000000000000000000000000000000000000000000000000000001000000000110001000000000001010000000000000111000000000000000000000000000000000000000000000001000000000010000000000000000000000000000000000000000000000000000000000000000000000000000000000000000000000111000000000011000000000000010000000000000000000000000000000000000000000000000000000000000000010100000000101001110000000000000000000000000000000000000000000000000000000000000000000000000000000000000011001000000000000000001100000000000000000001000001000000000000000000000000000000000000000000001001000000001001110110000000000000000000000000000000000000000000000000000000000000000000000000000000000000110111000000000000000011000000000000000000010000010000000000000000000000000000000000000000000001000000000001000011000000000000000001000000000000000000000000000000000000000000000000000000000000000000001111100000000011000000000000000000001100000100000100000000000000000000000000000000000000000000000000000000001111100000000000000000101000000000000000000000000000000000000000000000001110000000000000000000100000000000110000000000000000000011000000000000000000000000000000000000000000000000000000000000000000000001110000000000000000001001000000000000000100000000000000000000000000000000000000000000000000000000000000000000000000000000000111000000000111000000000000000000000000000000000000000000000000000000000000001000000000000000000001100000000001100001000000000000000000000000000000000000000000000000000000000000000000000000000000000000100110000000000000000000000000000000000000000000000000000000000000000000000000000000000000000000000000000000011100000000000000000000000000000000000000000000000000000000000000000010000000000000000000011101100000000000000000000000000000000000000000000000000000000000000000000000000000010000000000000000000000000000000000000000000100000000000000000000000000000000000000000000000001100000000000000000000000110000000000000000000000000000000000000000000000000000000000000000000000000000000100000000000000000000000001000010000000000001000000000000000000000000000000000000000000000000100110000000000000000011001000000000000000000000000000000000001100000000000000000000000000000000000000000001000000000000000000000000100000100000000000010000000000000000000000000000000000000000000000001100101000000000000000011100000000000000000000000000000000000011000000000000000000000000000000000000000000000000000000000000000000001000001000000000000000000000000000000000000000000000000001000000000000000110000000000000000010000000000000000000000000000000000000000000000000000000000000000000000000000001110001110000000000000000000010010100000000000000011100000000000000000000000000000000010000000000000000000000000000000000000000000000000000000000000000000000000000000000000000000000000000000000000000000000000000000000000000000100100011000000000000000000000000000010000000000000000000000100000000000000000000110000000000000000000000000000000000000000000000000000000000000000000011000000000000000000000000000000000000000000000010101100000000000000000000000000000001010000000000000000000000000000100000000000001011000000000000000000000000000000000000000000000100000000000000110000110000000000000000000000000000000000000000000000101011100000000001100000000000000000010100000000000000000000000000001110000000000000000000110000000000000000011001100000000000000111000000000000001100000000000000000000000000000000000000000000000000000100111000000000100100000000000000000010000000000000000000000000000000000000000000011100010010000000000000000101001100000000000010011000000000011000000000000000000000000000000000000000000000000000000000000000000000010001000000000000000000000000000000000000000000000111000000000000000000000011000000000000000000100000000000000001010000000000000101000000000000000000000000000100000000000000000000000000000000000000000010000000000000000000000000000000000000000000000011110110000000000000000000000000000000000000000000000000000000010000100000000000010000000000000000000000000001000000000000000000000000000000000000000000000000000000000000000000000000000000000000000001100001100000000000000000000000000000000000000000000000000000000000000000000000001100011000000000000000000000010000000000000000000000000000001110000001100000000000000000000000000000000000000000000000011100110000000000000000000000000000000000000000000000000000000000111111000000000000001001000000000000000000000000000000000000000000000000000011111100011000000100000000000000000000000000000000000000000010111000010000000000000000000000000000000000000000000000000000000100011000000000000001010000000000000000000000011100000000000000000000000000000000100000010000100000000000000000000000000000000000000000011100001111000000000000000000000000000000000000000000000000000001001001000000000000001000000000000000000000000000000000000000000000000000000000000000000000001100000000000000000000000000000000000000000010000100001000000000000000000000000000000000000000000000000000000001010000000000000000000000000000000000000000000000000000000000000000000000000010000000000110000000000000000000000000000000000000000000000000101110000000000000000000000000000000000000000000000000000000001000000000000000000000000000000000000000000000000000000000000000000000100101000000001010000000000000000000000000000000000000000000000010000000000000000000000000000000001100000000000000000000000000000000000000000000000000000000000000000000000000000000000000000000000000001111011000000011100000000000000000000000000000000000000000000001010000000000000000000000000000000011000000000000000000000000000000000000000000000000000000000000000000000000000000000000000000000000000001111001110000010000000000000000000000000000000000000000000000010100000000000000000000000000000000000000000000000000000000000000000000000000000000000000000000000000000000000000000000000000000000000000000001000100000000000000000000000000000000000000000000000000000010000000000000000000000000000000000000000000001100000000000000000000000000000000000000000000000000000000000000000000000000000000000000000010010111000000000000000000000000000000000000000000000000000000000000000000000000000000000000000000000000000011000000000000000000000000000000000000000000000000000000000000000000000000000000000000000000010010000000000000000000000000000000000000000000000000000000000000000000000000000000000000000000000000000000000000000000000000000000000000000000000000000000000000000000000000000000000000000000000000000010100000000000000000000000000000000000000000000000000000000000000000000000000000000000000000000000000000000000000000000000000011000000000000000000000000000000000000000000000000000000000000000000000000111000000000000000000000000000000000000000000000000000000000000000000000000000000000000000000000000000000000000000000000000000110000000000000000000000000000000000000000000000000000000000000000000000000000000000000000000000000000000000000000000000000000000000000000000000000000000000000000000000000000000000000000000000000000000000000000000000000000000000000010000000000000000000000000000000000000000000000000000000000000000000000000000000000000000000000000000000000000000000000000000000000000110000000000000000000000000000000000000000000000000000000000000001010000000000000000000000000000000000000000000000000000000000000000000000000000000000000000000000000000000000000000000000000000000000001010000000000000000000000000000000000000000000000000000000000000010100000000000000000000000000000000000000000000000000000000000000000000000000000000000000000000000000000000000011000000000000000000000001000000000000000000000000000000000000000000000000000000000000000010000000000000000000000000000000001100000000000000000000000000000000000000000000000000000000000000000000000001001000000001100000011000000000000000000000000000000000000000000000000001000000000000000000000000000000000000000000000000000011000000000000000000000000011000000000000000000000000000000000000000000000001100000000011000001001000000000000000000000000000000000000000000000000010000000000000110000000110000000000000000000000000000000000000000000000000000000110000000000000000000000000000000000000000000000000000000000000000010100000000000000000000000000000000000000000000000000100000000000001100000010010000000000000000000000000000000000000000000000000000000000000000000000000001100000000000000000000000000000000000000000000010000000000000000000000000000000000000000000000000000000000000000000000000011000000000000000000000000000000000000000000000000000000000000000000000000000010100000000000000000000000000000000000000000000000000000000000000000000000000000000000000000000000000000000000000000000000000000000000000000000000000000000000000000000000000000000000000000000000000000100000000000000000000000000000000000000000000000000000000000000000000000000000000110000000000000000000000000000000000000000000000000000000000000000000000000000000000000000000000000000000000000000000000010000000000000000000000000000000000000000000000000000000000000000000000000000010010000000000000000000000000000000000000000000000000000000000000000000000000000010000000000000000000000000000000000000001100000000000000000000000000000000000000000000000000000000000000000000000000000101000000000000000000000000000000000000000000000000000000000000000000000000000000100000000000000000000000000000000000000011000000000000000000000000000000000000000000000000000000000000000000000000000000100000000000000000000000000000000000000000000000000000000000000000000000000000001000000000000000000000000000000000000000011000000000000000000000000000000000000000000000000000000000000000000000000000000000000000000000000000000010000000000000000000000000001100110000000000000000000000000000000000000000000000000000000000000011000000000000000000000000001000000000000000000000000000000000000000000000000000000000000000000000000000100000000000000000000000000011001100000000000000000000000000000000000000000000000000000000000001010000000000000000000000000101000000000000000000000000000000000000000000000000000000001100000000000000001000000000000000000000001100000000000000000000000000000000000000000000000000000000000000001100110000000000000000000000000001010000110000000000000000000000000000000000000000000000000100100000000000000000000011011000000000000011000000000000100000000000000000000000000000000000000000000000000011001100000000000000000000000000001000010010000000000000000000000000000000000000000000000001010000000000000000000000011100000000000000000000000000010100000000000000000000000000000000000000000000000000000000000000000000000000000100000000000011000000000000000000000000000000000000000001000000001000000000000000000011000010000000000000000000000000000101000000000000000000000000000000000000000000000000000000000000000000000000111110100000000000000000000000000000000000000000000000000000101000000000000000000000000001001000000000000000000000000000000000100000000000000000000000000000000000000000000000000000000000000000000000100100001000000000000000000000000110000000000000000000000000000110000000000000000000000000100000111000000000000000000000000000000000000000000000011000000000000000000000000000000000000000000000011000001110110100000000000000000000000010100000000000000000000000000000000000000000000000000000001001000110000000000000000000000000000000000000000000000110000000000000000000000000000000000000000000001001000001000010000000000000000000000000010000000000000000000000000000000000000000000000000000000010000000000000000000000000000000000000000000000000000000000000000000000000000000000000000000000000000010100000000000000000000000000000000000000000000000000000000000000000000000000000000000000000000000011110001100001100000000000000000000000000000000000000000000000000000000000000000000000000000000000000010000000000000000000000000000000000000000000000000000000000000000000000000000000000000000000000000001100000000111110000000000000000000000000000000000000000000000000000011000000000000000000000000000000000000011100000000000000000000000000000000000000000000000000000000000000000000000000000000000000000000000000001000010000000000000000000000000000000000000000000000000110111000000000000000000000000000000000011011010000000000000000000000000000000000000000000000000000000000000000000000000000000000000000000000000011100100000000000000000000000000000000000000000000000001101001000000000000000000000000000000000110010100000000000000000001100000011000000000000001100000000000000000000000000000000000000000000000000000010011000000000000000000000000000000000000000000001100011000001000000000000000000000000000000001110000000000010000000000011000000110000000000000100100000000000000000000000000000000000000000000000000000001000000000000000000000000000000000000000000000101100000010100000001110000000000000000000000000100000000001100000000000000001000000000000000000101000000000000000000000000000000000000000000000000000100000000000000000000000000000000000000000000000011001011000010000000000000000000000000000000000001100000000110010000000000000101000000000000000000100000000001000000000000000000000000000000000000000000001000000000000000000000000000011100000000000000000010110000000000110000000000000000000000000000100100000000010010000000000001001000000000000100000000000000101000000000000000000000000000000000000100000010000010000000000000000000000000000000000000001000000100000000001100000000111000100000000000000101000000000001000000000000001100000000010001000000000000001010000000000000000000000000000000000000000000000001010000000000000000000000000000000000000110010000000000000000000000001110010110000000000000100000000000000000000000000000000000001010010000000000000001000000000000000000000000000000000001100001001011110110000000000000000000000000000000000001000000001000000000000000000010001100110000000000000000000000000000000000000000000000000100000000000000000000000000000000000000000000000000000000001010000110101001100000000000000000000000000000000000001000000100100000000000000000000000000000000000110000000000000000000000000000000000000000111000000000000000000000000000000000000000000000000000000100100000100010110000000000000000000000000000000000000000000000001000000000000000000000000101000000010010000000000000000000100000000000000000000001100000000000000000000000000000000000000000000000000000011111110111001100000000000000000000000000000000000000000100000000000000000000000000000011010000000100100000000000001110001000000000000000000111100000000000000000000000000000000000000000000000000000000011100000011100000000000000000000000000000000000000000000100101001000000000000000000011001100000000110000000000000011100010000000000000000000001000100000000000000000000000000000000000000000000000000000000000000000000000000000000000000000000000000000000000001100000010000000000000110000000010000000000000000000000000000000000000000000000000000000001100000000000000000001000000000000000000000000000000000000000000000000000000000000000000000000000000000000000000111000100000001000001100000000000000000000000000000000000000000000000000000000000110000010000000000000000000101000000000000000000000000000000000000000000000000000000000000000000000000000000000000000000110000000000110000000000000000000000000000000000000000110000000100000000000000000000011000000000000000000001010000000000000000000000000000000000000000000000000000000000000000000000000000000000000000000011100000000000000000000000000000000000000000000000000100001110000000000000000000100000000000000000000000001000000000000000000000000000000000000000000000000000000000000000000000000000000000000000000000110000000000000000000000000000000000000000000000000000000011100000000000000000000000000000000000000000000000000000000000000000000000000000000000000000000000000000110000000000000000000000000000000000011000000000000000000000000000000000000111000000000000000000000000000000000000000000000000000000000000000000000000000000000000000000000000000000000000000000000000001100000000000000000000000000001000000001000000000000000000000000000000000000000000000000000000000000000000000000000000000000000000000000000000000000000000000000000000000000001110000000000000000000000000000000000000000000000000000010000001100000000000000011000000000000000000000000000000000000000000000000000000000000000000000000000000000000000000000000000000000000000000000000000000000000000000000000000000000000000000000000000000100000000000000000000001001000000001100000000000000000011100000000000000000000000000000000000000000000000000000000000000000000000000000000000000000000000000000000000000000000000000000000000000000000000000000000000000000000010010000000101000000000000000000100000000000000000000000000000000000000000000000000000000000000000000000000000000000000000000000000000000000000000000000000000000000000000000000000000000000000000000000011000000000100000000000000000000100000000000000000000000000000000000000000000000000000000000000000000000000000000000000000000000000000000000000000000001100000000000000000000000000000000000000000000000000000000000000000000000000000000000000000000000000000000000000000000000000000000000000000000000000000000000000000000000000000000000000000110000000000100100000000000000000000000000000000000000000000000000000000000000000000100000000000000000000000000000000000000000000000000000000000000000000000000000000000000000000000000000000000000000001100000000000110000000000000000000000000000000000000000000000000000000000000000000010100000000000000000000000000000000000000000000000000000000000000000000000000000000000000000000000000000000000000000000000000000000000000000000000000000000000000000000000000000000000000000000000000001010000000000000000000000000000000000000000000000000000000000000000000000000000000000000000000000000000000000000000000000000000000000000000000000000000000000000000000000000000000000000000000000000000101000000000000000000000000000000000000000000000000000000000000000000000000000000000000000000000000000000000000000000000000000000000000000000000000000000000000000000000000000000000000000000000000000000100000000000000000000000110000000000000000000000000000000000000000000000000000000000000000000000000000000000000000000000000000000000000000000000000000000000000000000000000000000000000000000000000000000000000000000000000000001100000000000000000000000000000000000000000000000000000000000000000000000001110000000000000000000000000000000000000000000000000000000000000000000000000000000000000000000000000000000000000000000000000000000000000000000000000000000000000000000000000000000000000000000000000000000000000000000000000000000000001000000000000000000000000000000000000000000000000000000000000000000000000000000000000000000000000000000000000000000000000000000000000000000000000000000000000000000000000000000000000000000000000000000101000000000000000000000000000000000000000000000000000000000000000000000000000000000000000000000000000000000000000000000000000000000000000000000000000000000000000000000000000000000000000000000000000001010000000000000000000000000000000000000000000000000000000000000000000000000000000000000000000000000000000000000000000000000000000000000000000000000000000000000000000000100000000000000000000000000000001000000000000000000000000000000000000000000000000000000000000000000000000000000000000000000000000000000000000000000000000000000000000000000000000000000000000000000000001000000000000000000000000000000000000000000000000000000000000000000000000000110000000000000000000000000000000000000000000000000000000000000000000000000000000000000000000000000000000000000000000000000010000000000000000000000000000000000000000000000011000001000000000000000000001100000000000000000000000000000000000000001100000000000000000000000000000000000000000000000000000000000000000000000000000000000000000000000000000000000000000000000000000000110000010000000000000000000000000000000000000000000000000000000000001101100000000000000000000000000000000000000000000000000000000000000000000000000000000000000110000000000000000000000011000000000000000000000100000000000000000000000000000000000000000000000000000000000010010000000000000000000000000000000000000000000000000000000000000000000000000000000000000001010000000000000000000000110000000000000000000000000000000000000000000000000000000000000000000000000000000000100100000000000000000000000000000000000000000000000000000000000000000000000000000000000000001100000000000000000000000000000000000000000000000000000000000000000000000000000000000000000000000000000000000110000000000000000000000000000000000000000000000000000000000000000000000000000000000000000000000000000000000000000000000000000000000000000000000000000000000000000000000000000000000000000000000000000000000000000000000000000000000000000000000000000000000000000000000000000