P1
200 200
0000000000000000000000000000000000000000000000000000000000000000000000000000000000000000000000000000000000000000100000000000000000000000000000000000000000000000000000000000000000000000010000000000000000000000000000000000000000000000000000000000000000000000000000000000000000000000000000000000000000000000010000010100000000000000000000000000000000000000000000000000000000000000000000001010000000000000000000000000000000000000000000000000000000000000000000000000000000000000000000000000000000000000000000001010000100100000000100000000000000000000000000000000000000000000000000000000000010100000000000000000000000000000000000000000000000000000000000000000000000000000000000000000000000000000000000000000000011000000110000000010100000000000000000000000000000100000100000000000000000000000010000100000000000000000000000000000000000000000000000000000000000000000000000000000000000000000000000000000000000000000000000000000000000101000000000000000000000000000001000010100000000000000000000000000001000011000000000000000000000000000000000000000000000000000000000000000000000000000000000011000000000000000000000000000000000000000000100000000000000000000000000000010000100100000000000000000000000000010001001000000000000000000000000000000000000000000000000000000000000000000000000000000000110000000000000000000000000000000000000000000000000000000000000000000000000000000110000000000000000000000000000000001010000000000000000000000000000000000000000000000000000000000000000000000000000000000000000000000000000000000000000000000001100000001100000000000000000000000000000000000000000001100000000000000000000001000000000000000000000000000000000000000000000000000000000000000000000000000000000000000000000000000000000000000000000000100100000100100000000000000000000000000000000000000000011000000000000000000000000000000000000000000000000000000000000000000000000000000000000000000000000000000000000000000000000000000000000000000000000110000000110000000000000000000000000000000000000000000000000000000000000000000100000000000000000000000000000000000000000000000000000000000000000000000000000000000000000000000000000000000000000000000000000000000000000000000000000000000000000000000000000000000000000000000000000011100000000000000000000000000000000000000000000000000000000000000000000000000000000000000000000000000000000000000000000000000000100000000000000000000000000000000000000000000000000000000000000000000000100100000000001000000000000000000000000000000000000000000000000000000000000000000000000000000000000000000000000000000000000000010100000000000000000000000000000000000000000000000000000000000000000000000011000000000010000000000000000000000000000000000000000000000000000000000000000000000011100000000000000000000000000000000000000101000000000000000000000000000000000000000000000000000000011000000000000000000000000001010000000000000000000000000000000000000000000000110000000000000000000000000000000000000000000000000000000000000000100000000000000000000000000000000000000000000000000000001001000000000000000000001000000000000000000000000000000000000000000000000000010010000000000000000000100000100000000000000000000000000000000000000000000000000000000000000000000000000000000000000000000010100000000000110000001100000000000000000000000000000000000000000000000000000101000000000000000000001000001000000000000000000000000000000000000000000000000000000011100000000000000000000000000000000000010000000000001100000100001000000000000000000000000000000000000000000000000000100000000000000000000010000010000000000000000000000000000000000000000000000000000001001000000000000000000000000000000000000000000000000000000000011001001000000000000000000000000000000000000000000000000000000000000000000000000000000000000000000000000000000000000000000000000000000000011000110000000000000000000000011000000000000000000000000000000100000000000000000000000000000000000000000000000000000000000000000000000000000000000000000000000000000000000000000000000000000000000000011000100010000000000000000000000110000000000000000000000000000110011000000000000000000000000000000000000000000000000000000000000000000000000000000000001100000000000000000000000000000000000000000000001001001000100000000000000000000000000000000000000000000000000000100001000000000000000000000000000000000000000000000000000000000000000000000000000000000000000000000000000000000000000000000000000000000010010000101000000000000000000000000000000000000000000000000000000011010000000000000000000000000000000000000000000000000000000000000000000000011000000010000100000000000000000000000000000000000000000000100100000000000000000000000000000000000000000000000000000000000000011000000000000000000000000000000000000000000000000000000000000000000000000000011101001100000000000000000000000000000000000000000000000110001100100110000000000000000000000000000000000000000000000000000000000000000000000000000000000000110000000000000000000000000000000000000101000111111000001000000000000000000000000000000000000000000000011001000111000000000000000000000000000000000000000000000000000000000000000000000000000000000000010010000000000000000000000000000000000001000000100010100010000000000000000000000000000000000000000000000100100000100000000000000000000000000000000100000000000000000000000000000000000000000000000010000100100000000000000000000000000000000000010010000000000001000000000000000000000000000000000000000000000000111000000000000000000000000000000000000010100000000000000000000000000000000000000000000000100000110000000000000000000000000000000000000010100000000010100000000000000000000000000000000000000000000000000000000110000000000000000000000000000000000000000000000000000000000000000000000000000000001000000000000000000000000000000000000000000000011010000000000000000000000000000000000001000000000000000000000000000010100001100000000000000000000000010001000000000000000000000000000000000001110000000000000000000000000000000000000000000000000000000011100000000000000000000000000000000000101000000000000000000000000000010000011000000000000000000000000000000000000000000000000000000000000000000000000000000000000000000000000000000000000000000000000000000000000000000000000000000000000000001010000000000000000000000000000000000000000000000000000000000000000000000000000000000000000000000000000000000000110000000000000011000000000000000000000000000000000000000000000000000000000000000000000001000000000000000000110000000000000000000000000000000000000000001110000000000001100000000000000000000000000000001100000000000001001000000000000000000000000000000000000000000000000000000000000000000000000000000000000000001010000000000000000000000000000000000000000000000000000000011000000010000000000000001100000000000000000000010100000000000000000000000000000000000000000000000000000000000000000000000000000000000000000001000000000000000000000000000000000000000000000000000000000010000001010000000000001101000000000000000000000010000000000000000000000000000000000000000000000000000000000000000000000000000000000000000000000000000000000000000000000000000001000000000000010000010000000000010010000000000100010000000000000000000000000000000000000000000000000000000000000000000000000000000000000000000000000000000000000000000000000010000000000000000000000000101000000000000010000010001000000011000000000001001100000000000000000000000000000000000000000000000000000000000000000000100000000000010000000000000000000000000000000000000001010000000000000000000000001010000000000110000001000100000000000000000000001110000000000000000000000000011000000000000000000000111000000000000000000000100000000100000000000000000000000000000000000100010100000000000000000000000001000000010001100000011111000000000000000000000001000000000000000000000000000110000000000000000000000000000000000000000101001100000001000000000000000000000000000000000010100010000000000000000000000000000000000100010010001001000000000000001100000000000000000000000000000000000000000000000000000000000000000000000000000001000011000000000000000000000000000000000000000000101000000000000000000000000000000000000001000011100011000000000000000010100000000000000000000000000010000000000000000000000000000000000000000000000000011000011110010000000000000000000000000000000000000100000000000000000000000000000000000000000000000000000000000000000000010000000000000000000000000001010000000000000000000000000000000000000000000000001011100010001011000000000000000000000000000000000000000000000000000000000000000000000000000000000000000000000000000000000000000000000000000000000000010010000000000000000000000000000000000000000000000010000001000100011000000000000000000000000000001100000001100000000000000000000000000000000000000000000000000000000000000000000000000000000000000011000011000000000000000000000000000000000000000000000000000000010000110101000000000000000000000000000011000000100100000000000000010000000000000000000000000000000000000000000000000000000000000000000000110000000000000000000000000000000000000000000000000000000010001000000010011000000000000000000000000000000000000110000000000000000010000000000000000000000000000000011000000000000000000000000000000000000000000000000000000000000000000000000000000000000000000000011100000000001000000000000000000000000000000000000000000000000000000000000000000000000000000000000000000110000000000000000000000000000000000000000000000000000000000000000000000000000000000000000000000000000000000000000000000000000000000000000111000000000000011000010000000000000000000000000000000000000000000000000000000000000000000000001110000000000000000000000000000000000000000000000000000000000000000000000000000000000000000000000000000011010000000000011001000000000000000000000000000000000000000000000000000000000000000000000000000000000000000000000000000000000000000000000000000000000000000000000000001000000000000000000000000000000000111000000100000010001000010001100000000000000000000000000000000000000000000000111000000000000000000010000000000000000000000000000000000000000000000000000000000000000100010000000000000000000000000000000000000011100100100000000000000000000000000000000000000000000000000000000000000000000001110000000000100000000000000000000000000000000000000000000000000000000000000000000100000000000000000000000000000000011100000100011000010000000000000000000000000000000000000000000000000000000000000000101011000000001000000000000000000000000000000000000000000000000000000000000000001001000000000000000000000000000001110100101101110110100000000000000000000000000000000000000000000000000000000000000000000000101000000000000000000000000000000000110000000000000000000000000000000000000000000000000000110000000000000000000000110000001101101010010000011100000000000000000000000000000000000000000000000000000100101110001110000000000000110000000000001100000000000000000000000000000000000000000000000000001100000000000000000000000000000000000100000010011000100000000000000000000000000000000000000000000000000001100000010000000000000000001100000000000000000000000110000000000000000000000000000000000000000000000000000000000000111000000000000001111100000001110000000000000000000000000000000000000000000000000000011100001100000000000000000000000000000000000000000011000000000000000000000000000000000010000000000000000000000000001101000000000000000101001000000000000000000000000000000000000000000000000000000000000011000011000000000000000000000000000000000000000000001000000000000000000000000000000000100000000000000000000000000001110000000000011100010000000000000000000000000000000000000000000000000000000000000000000000000000000000000000000110000011000000000000000000000000000000000000011000000000001000000000000000000000000000000000000000000111001000100000000000000000000000000000000000000000000000000000000000000000000000000000000001100010010000110000000000000000000000000000000000000101000000000000000000000000000000000000000000000000000000000110100000000000000000000000000000000000000000000000000000000000001000000000000000000000011000010100000000000000000000000000000000000000000000100000000000000000000000000000000000000000000000000000000000010100000000000000000000000000000000000000000000011000000000000010000000000000000000000000000010000000000000000000000000000000000000000000000000000000000000000000000000000000000000000000000000000000000001000000000000000000000000000000000000000000001001000000000000000000000000000000000000000000000000000000000000000000000001000000000000000000000000000000000000000000000000000000000000000000000000000000011011000000000000000000000000000000000000000010010000000000000000000000000000000000000000000000000000000000000000110000111000000000000000000000000000000000000000000000000001000000000000000000000000000010100000000000000000000000000000110000000000011000000000000000000000011100000000000000000000000000000000000000001100001110000000000000000000000000000000000000000001100000010000000000000000000000000000010000000000000000000000000000001100000000000000000000000000000000000000000000000000000000000000000000000000000000000000000000000000000000000000001100000000000000011000000100000000000000000000000000000000000000000000000000000000000000000000000000000000000000000000000000000000000000000000000000000000000000000000000000000000000000000000000000000100100000000000000000000000000000000000000000000000000000000000000000000000000000000000000000000000000000000000000100000000000000000000000000000000000000000000000000000000000000000000000000000000000000110000000000000000000000000000000000000000000000000000000000000000000000000000000000000000000000000000000000000011100000000000000000000000000000100000000000000000000000000000000000000000000000000000000000000000000000000000000000000000000000000000000000000000000000000000000000000000000000000000000000000000000001111100000000000000000000000000010100000000000000000000000000000000000000000000000000000000000000000000000000000000000000000000000000000000000000000000000000000000000000000000000000000000000000000000110000000000000000000000000000000101000000000000000000000000000000000000000000000000000000000000000000000000000000000000000111000000000000000000000000000000000000000000000000000000000110000000000000000000000000000000011000000000000000100000000000000000000000000000000011000000000000000000000000000000000000000000000000000000000000000110000000000000000000000000000000000000000000000010010000000000000000000000000000000111000000000000000000000010000000000000000000000110000000000000110000000000000000000000000000000000000000000000000010010000000000000000000000000000000000000000000000011000000000000001000000000000000001100000000000000000001101011000000000000000000000001011000000010010000000000000000000000000000000000000000000000000101000000000000000000000000000000000000000000000000000000000000000111111100000000000010000000000000000001101010001000000000000000001101000101100000011000000000000000000000000000000000000000000000000000100000000000000000000000000000000000000000000000000000000000000011010001000000000001110000000000000000010000010010000000000000000011000101011000000000000000000000000000000000000000000000000000000000000000000000000000000000000000000000000000000000000000000000000000101010000000000000000010000000000110000111000010100000000000000000110100000010000000000000000000000000000000000000000000000000000000000000000100000000000000000000000000000000000000000000000000000000010000011000000000010000100000000010010000000000110000000000000000000000011000000000000000000000000000000000000000000000000000000000110000000001111000000000000000000000000000000000000000000000000000000011010110000100000100001000000000011000000000000000000000000000000000110000000000000000000000000000000000000000000000000000000000001100000000111110000000000000000000000000000000000000000000000000000000010001100001000001001000000000000000000000000000000000000000000000000000000000000000000000000000000000000000001100000000000000000000000000000001100000000000000001000000000000000000000000000000000000000100000000010000001110000000000000000000000000000000000000000000000000000000000000000000000000000000000000000011000000000000000000000000000000011100000000000000101000000000000000000000000000000000000110000000000000000000000000000000000000000000000000000000000000000000000000000000000000000000000000000000000000000000000000000000000000000000000111000000000000000100000000000000000000000000000000000010001001000000000000000000000000000000000000000011000111000000000110000000000000000000000000000000000000000000000000000000000000000000001000001001110000000000000000000000000000000000000000000000000000010000000000000000000000000000000000000000000000010000000000000011101100000000000000000000000000000000000000000000000000000000000000000101111100011000000000000000000000000000000000000000000000000000000000101010000000000000000000000000000000000000000000000000000000001111100000000000000000000000000000000000000000000000000000000000000011001100011000000000000000000000000000000000000000000000000000000000011000010000000000000000000000000000000000010000000000000000000011001000000011000000000000000000000000000000000000000000000000000000001000111110001000000000000000000000000000000000000000000000000000000000110010000000000000000000000000000000001010000000000000000000010100000000110000000000000000000000000000000000000000000000000000000010111001110100000000000000000000000000000000000000000000000000000000000111000000000000000000000000000000000100100000000000000000000111000000000000000000000000000000000000000000000000000000000000000000010100000010000000000000000000000000000000000000000000000000000000000000000000000000000000000000000000000000100000000000000000000000000000000000000000000000000000000000000000000000000000000000000000000110000000000000000000000000000000000000000000000000000000000000000000000000000000000000000000000000000000000000000000000000000000000000110000000000000000000000000000000000000000000000000000000000000000000000000000000000000000000000000000001000000000000000000000110000000000000001100000000000000000000000000000000000000000000000000000010010000000000000000000000000000000000000000000000000000000000000000000000000000000000000000000000000000101000000000000000000001100000000100000100110000000000000000000000000000000000000000000000000000100100000000000000000000000000000000000100000000110000000000000000000000000000000000000000000000000000001010000000000000000000000000000110000001000000000000000000000000001110000000000000000000000000000110000000000000000000000000000000000011100000111110000000000000000000000000000000000000000000000000000001000000000000000000000000000000000011000000000000000000000000000000000000000000000000000000000000000000000000000000000000000000000001001100010000100011000000000000000000000000000000000000000000000000000000000000000000000000000000000000110000000000000000000000000000000000000000000000000000000000000000000000000000000000000000000000011110100100111001001000001110000000000000000000000000000000000000000000000000000000000000000001100000000101100000000000000000000000000000000000000000000000000001100000000000000000000000000000000000000000101001100100010100000010000000000000000000000000000000000000000000000000000000000000110011110111111010000101000000000000000000000000000000000000000000000000100100000000000000000000000000000000000000001110000110000010000000010000000000000000000000000000000000000011100000000000000000011000011100000110000100000000000000000000000000000000000000000000000000000110000000000000000000000000000000000000000000000000000100000000000000000000000000000000000000000000000000000000000000000000000011000000101111100111100000000000000000000000000000000000000000000000000000000000000000000000000000000000000000000000110110000011100000000000000000000000000000111000000000000000000000000000000000000000010000010010101001101000000000000000000000000000000000000000000000000000000000000000000000000000000000000000000000001111100001100100000000000000000000000000000000000000000000000000000000000000000000000000000010110100000110000000000000000000000000000000000000000000000000000000000000000000000000000000000000000000111011100100000100100001100000000000000000001000001000000000000000000000000000000000000000000000110000000000110000000000000000000000000000000000000000000000000000000000000000000000000000000000000000000000000011001100110000011000000000000011000010000010000000000000000000000000000000000000000000000000000000001000011100000000000000001000000000000000000000000000000000000000000000000000000000000000000000000001100011001100000000000000000000110000100000100000000000000000000000000000000000000000000000000000000110000111000000000000000101000000000000000000000000000000000000000000000001110000000000000000000000000000110100000000000000000000000000000000000000000000000000000000000000000000000000000000000000000001100001001000000000000001001000000000000000000000000000000000000000000000000000000000000000000000000000000100100000000000000000000000000000111000000000000000000000000000000000000000000000000000000000000001011010000000000000001100000000000000110000000000000000000000000000000000000000000000000000000000111000001000000000000000000001000000000000000000000000000000000000000000000000000000000000000000000000001000100000000000000000000000000000110110000000000000000000000000000000000000000000000000000000010010000010000000000000000000110000000000000000000000000000000000000000000000000000000000000000000000000011100010000000000000000000000000010100000000000000100000000000000000000000000000000000000000001000101001000100000000000000001100000000000000000000000000000000000000000000000000000000000000000000000000000000100000000000000000000000011001100000000000001000000000000000000000000000000000000000000010000001010001100000000000000000000000000000000000000000000000000001100000000000000000000000000000000000000000001000000000000000000000001000100000000000000010000000000000000000000000000000000000000000100010001000000100000000000000000000000000000000000000000000000000011000000000000000000000000000000000000000000000000000000000000000000100010000000000000000000000000000000000000000000000000000001000000100100010100010000000001110000000000000000000000000000000000000000000000000000000000000000000000000000000001110001110000000000000000000101000000000000000000011100000000000000000000000000000000010000000111000011000001000000010001001100000000000000000000000000000000000000000000000000000000000000000000000000000000000000000000000000011111000000000000000000000000000000000010000000000000000000000100000000000000100000001000000000001001100000000000000000000000000000000000000000000000000011000000000000000000000000000000000000000000010011000000000000001100000000000000000001010000000000000000000000000000000000000100000010000010000010110000000000000000000000000000000000000000000000110000110000000000000000000000000000000000000000000100010000011000000011000000000000000000010100000000000000000000000000100000000000000011000000100011111000000000000000000000000000000000110000000000001100000000000000000000000000000000000000000000000001000000000101000000000000000000000000000010000000000000000000000000111000000000000000000000010010000100000000000000000000000000000000001100000000011000000000000000000000000000000000000000000000000000000000010000001000000000000000000000000000000000000000000000000000001000000000000000000000000011000000000000000000000000000000000000000000000000000101000000000000000000000000000100000000000000000000000001000000001110001000000000000000000000000000000000000000000000000000000000000000000000000000000000000000000000001000000000000000000100000000000000010000000000000000000000000001000000000000000000000000000010110000001101100000000000000000000000000000000000000000000001100000000111000000000000000000000000000000000010000000000000000000100000000000001100011000000000000000000000010000000000000000000000000000011000000000100000011100000000000000000000000000000000000000010000000001010000000000000000000000000000000000000000000000000000010000000011000000001001000000000000000000000000000000000000000000000000000101000000000000000111000000000000000000000000000000000000000000000000101000000000000000000000000000000000000000000000000000000000000001001000000001010000000000000000000000011100000000000000000000000001100000000000000000000000000000000000000000000000000000000000000111001010000000000000000000000000000000000000000000000000000000000000100000000000001000000000000000000000000000000000000000000000000000011000000000000000000000000000000000000000000000000000000000000010110000110000000000000000000000000000000000000000000000000000000000000001000000000000000000000000000000000000000000000000000000000000001011000000000000000000000000000000000000000000000000000000000001100100001100000000000000000000000000000000000000000000000000000000000010100000000000000000000000000000000000000000000000000000000000000010100011000000000000000000000000000000000000000000000000000000000000000000000000000000000000000000001100000000000000000000000000000000010000000000000000000000000000000000000000000000000000000000000000001010001000011100000000000000000000000000000000000000000000000001000000000000000000000000000000000011000000000000000000000000000000000000000000000000000000000000000000000000000000000000000000000000000110001100001100000000000000000000000000000000000000000000000001100000000000000000000000000000000000000000000000000000000000000000000000000000000000000000000000000000000000000000000000000000000000000000000000000101000000000000000000000000000000000000000000000000011000000000000000000000000000000000000000000000001100000000000000000000000000000000000000000000000000000000000000000000000000000000000000000000000011100001000000000000000000000000000000000000000000000000000000000000000000000000000000000000000000000011000000000000000000000000000000000000000000000000000000000000000000000000000000000000000000000000010110100000000000000000000000000000000000000000000000000000000000000000000000000000000000000000000000000000000000000000000000000000000000000000000000000000000000000000000000000000000000000000000000000011100000000000000000000000000000000000000000000000000000000000000000000000000000000000000000000000000000000000000000000011000000000000000000000000000000000000000000000000000000000000000000000000001100010000000000000000000000000000000000000000000000000000000000000000000000000000000000000000000000000000000000000000000000110000000000000000000000000000000000000000000000000000000000000000000000000011000000000000000000000000000000000000000000000000000000000000000000000000000000000000000000000000000000000000000000000000000000000000000000000000000000000010000000000000000000000000000000000000000000000000000000000000000000000000000000000000000000000000000000000000000000000000000000000000110000000000000000000000000000000000000000000000000000000000000001010000000000000000000000000000000000000000000000000000000000000000000000000000000000000000000000000000000000000000000000000000000000001010000000000000000000000000000000000000000000000000000000000000010100000000000000000000000000000000000000000000000000000000000000000000000000000000000000000000000000000000000011000000000000000000000001000000000000000000000000000000000000000000000000000000000000000010000000000000000000000000000000001100000000000000000000000000000000000000000000000000000000000000000000000001001000000001100000011000000000000000000000000000000000000000000000000001000000000000000000000000000000000000000000000000000011000000000000000000000000011000000000000000000000000000000000000000000000001100000000011000001001000000000000000000000000000000000000000000000000010000000000000110000000110000000000000000000000000000000000000000000000000000000110000000000000000000100000000000000000000000000000000000000000000010100000000000000000000000000000000000000000000000000100000000000001100000010010000000000000000000000000000000000000000000000000000000000000000000000000010100000000000000000000000000000000000000000000010000000000000000000000000000000000000000000000000000000000000000000000000011000000000000000000000000000000000000000000000000000000000000000000000000000101000000000000000000000000000000000000000000000000000000000000000000000000000000000000000000000000000000000000000000000000000000000000000000000000000000000000000000000000000000000000000000000000000000100000000000000000000000000000000000000000000000000000000000000000000000000000000110000000000000000000000000000000000000000000000000000000000000000000000000000000000000000000000000000000000000000000000000000000000000000000000000000000000000000000000000000000000000000000000000000010010000000000000000000000000000000000000000000000000000000000000000000000000000010000000000000000000000000000000000000000111000000000000000000000000000000000000000000000000000000000000000000000000000101000000000000000000000000000000000000000000000000000000000000000000000000000000100000000000000000000000000000000000000000000000000000000000000000000000000000000000000000000000000000000000000000000000100000000000000000000000000000000000000000000000000000000000000000000000000000001000000000000000000000000000000000000001000001000000000000000000000000000000000000000000000000000000000000000000000000000000000000000000000000000010000000111000000000000000001100110000000000000000000000000000000000000000000000000000000000110000010000000000000000000000001000000000000000000000000000000000000000000000000000000000000000000000000000100000001001000000000000000011001100000000000000000000000000000000000000000000000000000000000000000100000000000000000000000101000000000000000000000000000000000000000000000000000000001100000000000000001000000100110000000000001100000000000000000000000000000000000000000000000000000000000000001010000000000000000000000000000001010000110000000000000000000000000000000000000000000000000100100000000000000000000001111000000000000011000000000000100000000000000000000000000000000000000000000000000010100111000000000000000000000000001000010010000000000000000000000000000000000000000000000001010000000000000000000000001000000000000000000000000000010100000000000000000000000000000000000000000000000000000000000000000000011000001100000000000011000000000000000000000000000000000000000001000000001000000000000000000000000000110000000000000000000000000101000000000000000000000000000000000000000000000000000000000000000000001010000000100000000000000000000000000000000000000000000000000000101000000000000000000000000000010100001110000000000000000000000000100000000000000000000000000000001000000000000000000000000000000000000001000000110000000000000000000000000110000000000000000000000000000110000000000000000000000000000000000011100001110000000000000000000000000000000000011000000000001001000000000000000000000000000000011000000000000000000000000000000000000010100000000000000000000000000000000000000000000000000000000001010000000000010100000000000000000000000000000000000110000000000011100000000000000000000000000000001001000000000000000000000000000000000000010000000000000000000000000000000000000000000000000000000000001000000000011000100000000000000000000000000000000000000000000000010000000000000000000000000000000010100000000000000001000000000000000000000000000000000000000000000000000000000000000000000000000000000001011000001011110000000000000000000000000000000000000000000000000000000000000000000000000000000000010000000000000000110000000000000000000000000000000000000000000000000000000000000000000000000000000000010010000010011110000000000000000000000000000000000000000000000000000010000000000000000000000000000000000000000000001010000000000000000000000000000000000000000000000000000000000000000000000000000000000111000000111000101000000000000000000000000000000000000000000000000001000000000000000000000000000000000000000000000001000000000000000000000000000000000000000000000000000000000000000000000000000000000000000000000001010001100000000000000000000000000000000000000000000000100100000000000000000010000000000000000000000000111000000000001100000011000000000000001100000000000000000000000000000000000000000000000000000001010010100000000000000000000000000000000000000000000000000101000000000000000000100000000000000000000000011110000000000011000000110000000000000100100000000000000000000000000000000000000000000000000000100000000000000000000000000000000000000000000000100000000010100000001110000110001100000000000000000000011101100000000000000001000000000000000000101000000000000000000000000000000000000000000000000000000101100000000000000000000000000000000000000000010100000001110000010000000010010011110000000000000000000000000000000000000000101000000000000001100100000000001000000000000000000000000000000000000000000000000001000000000000000000000011100000000000000011000000010000001010000000010010000000000000000001001100000000000000000000001001000000000000111000000000000101000000000000000000000000000000000001100000010000011000000000000000000000000000000000000000000000000111000010100000000111010010110000000000101101100000000000000000000001100000000000000001000000000001010000000000000000000000000000000000011110000100000101000000000000000000000000000000000000000000000000000000000000000000001000101110000000000100010000000000000000000000000000000000000110110000000000001000000000000000000000000000000000000000100001100111010000000000000000000000000000000000000000000000000000000000000000000000110000001000000000111000000000100000000000000000000000000001111100000000000000000000000000000000000000000000000000001000011111111000000000000000000000000000000000000000000000000000000000000000000000001000100001001110000100000000110000000000000000000000000000000010000000000000000000000000000000000000000000000000000010010001001100000000000000000000000000000000000000000000000000000000000000000000000000001000010011100000000000000000000000000000000000000000001101100000000000000000000000000000000000000000000000000011011110110000000000000000000000000000000000000000000000000000000000000000000000000000000001000100100100000000000000000000000000000000000000000010001000000000000000000000000000000000000000000000000111100001110000000000000000000000000000000000000000000000000010000000000000000000000000000110010010000110000000000000000000000000000000000000000000011110000000000000000000000000000000000000000000000000010000000000000000000000000000000000000000000000000000000001110000000000000000000110000001000100000000000000000000000000000000000000000000000000000000110000000000000000001000000000000000000000000000000110000100000000000000000000000000000000000000000000000000010010000000000011000001100000000000000000000000000000000001000000000000000000000000000000001110000000000000000101000000000000000000000000000000100000000000000000000000000000000000000000000000000000000011000000000000110000000000000000000000000000000000000000101000011000000000000000000000000100100000000000000001010000000000000000000000000000001000100000000000000000000000000000000000000000000000000000000000000000000000000000000000000000000000000000000000001001001001000000000000000000000000111000000000000000001000000000000000000000000000000001010000000000000000000000000000000000000000000000000000000000000000000000000000000000000000000000000000001100000001100010100000000000000000000000001100000000000000000000000000000000000000000000000000000000000000000000000000110000000000000000000000000000000000000000000000000000000000000000000000000111000010100000000000010000000000000000000000000000000000000000000000000000000000000000000000000000000000000000000000000000001100000000000000000000000000001000000000000000000000000000000000000000000000000000100000000000000000000000000000000000000000000000000000000000000000000000000000000000000000001110000000000000000000000000000000000000000000000000000010000000000000000000000011000000000000000000000000000000000000000000000000000000000000000000000000000000000000000000000000000000000000000000000000000000000000000000000000000000000000000000000000000000100000000000000000000001001000000001100000000000000000000000000000000000000000000000000000000000000000000000000000000000000000000000000000000000000000000000000000000000000000000000000000000000000000000000000000000000000000010010000000101000000000000000000000000000000000000000000000000000000000000000000000000000000000000000000000000000000000000000000000000000000000000000000000000000000000000000000000000000000000000000000011000000000100000000000000000000000000000000000000000000000000000000000000000000000000000000000000000000000000000000000000000000000000000000000000000001100000000000000000000000000000000000000000000000000000000000000000000000000000000000000000000000000000000000000000000000000000000000000000000000000000000000000000000000000000000000000000110000000000100100000000000000000000000000000000000000000000000000000000000000000000100000000000000000000000000000000000000000000000000000000000000000000000000000000000000000000000000000000000000000001100000000000110000000000000000000000000000000000000000000000000000000000000000000010100000000000000000000000000000000000000000000000000000000000000000000000000000000000000000000000000000000000000000000000000000000000000000000000000000000000000000000000000000000000000000000000000001010000000000000000000000000000000000000000000000000000000000000000000000000000000000000000000000000000000000000000000000000000000000000000000000000000000000000000000000000000000000000000000000000000101000000000000000000000000000000000000000000000000000000000000000000000000000000000000000000000000000000000000000000000000000000000000000000000000000000000000000000000000000000000000000000000000000000100000000000000000000000110000000000000000000000000000000000000000000000000000000000000000000000000000000000000000000000000000000000000000000000000000000000000000000000000000000000000000000000000000000000000000000000000000001100000000000000000000000000000000000000000000000000000000000000000000000001110000000000000000000000000000000000000000000000000000000000000000000000000000000000000000000000000000000000000000000000000000000000000000000000000000000000000000000000000000000000000000000000000000000000000000000000000000000000001000000000000000000000000000000000000000000000000000000000000000000000000000000000000000000000000000000000000000000000000000000000000000000000000000000000000000000000000000000000000000000000000000000101000000000000000000000000000000000000000000000000000000000000000000000000000000000000000000000000000000000000000000000000000000000000000000000000000000000000000000000000000000000000000000000000000001010000000000000000000000000000000000000000000000000000000000000000000000000000000000000000000000000000000000000000000000000000000000000000000000000000000000000000000000100000000000000000000000000000001000000000000000000000000000000000000000000000000000000000000000000000000000000000000000000000000000000000000000000000000000000000000000000000000000000000000000000000001000000000000000000000000000000000000000000000000000000000000000000000000000110000000000000000000000000000000000000000000000000000000000000000000000000000000000000000000000000000000000000000000000000010000000000000000000000000000000000000000000000011000001000000000000000000001100000000000000000000000000000000000011000000000000000000000000000000000000000000000000000000000000000000000000000000000000000000000000000000000000000000000000000000000000110000010000000000000000000000000000000000000000000000000000001101110000011000000000000000000000000000000000000000000000000000000000000000000000000000000000000110000000000000000000000011000000000000000000000100000000000000000000000000000000000000000000000000000111011000000110000000000000000000000000000000000000000000000000000000000000000000000000000000000001010000000000000000000000110000000000000000000000000000000000000000000000000000000000000000000000000000110111000000000000000000000000000000000000000000000000000000000000000000000000000000000000000000001100000000000000000000000000000000000000000000000000000000000000000000000000000000000000000000000000000001100000000000000000000000000000000000000000000000000000000000000000000000000000000000000000000000000000000000000000000000000000000000000000000000000000000000000000000000000000000000000000000000000000000000000000000000000000000000000000000000000000000000000000000000000000000