P1
200 200
0110000000000000000000000000000000000000000000000000000000000000000000000000000000000000000000000000000000000000100000000000000000000000000000000000000000000000000000000000000000000000010000000000000010110000000000000000000000000000000000000000000000000000000000000000000000000000000000000111000000000000010000010100000000000000000000000000000000000000000000000000000000000000000000001010000000000000001110000000000000000000000000000000000000000000000000000000000000000000000000000000000001001000000000001010000100100000000100000000000000000000000000000000000000000000000000000000000010100000000000000010100000000000000000000000000000000000000000000000000000000000000000000000000000000000000101000000000011000000110000000010100000000000000000000000000000100000100000000000000000000000010000100100000010101000000000000000000000000000000000000000000000000000000000000000000000000000000000000011011000000000000000000000000000101000000000000000000000000000001000010100000000000000000000000000001000000000011100000000000000000000000000000000000000000000000000000000000000000000000000011000000000000000000000000000000000000000000100000000000000000000000000000010000100100000000000000000000000000010000000000000000000000000000000000000000000000000000000000000000000000000000000000000000110000000000000000000000000000000000000000000000000000000000000000000000000000000110000000000000000000000000000000000000001110000000000000000000000000000000000000000000000000000000000000000000000000000000000000000000000000000000000000000001100000001100000000000000000000000000000000000000000001100000000000000000010010000101010000000000000000000000000000000000000000000000000000000000000000000000000000000000000000000000000000000000000000100100000100100000000000000000000000000000000000000000011000000000000000010011000001101110000000000000000000000000000000000000000000000000000000000000000000000000000000000000000000000000000000000000000110000000110000000000000000000000000000000000000000000000000000000000000100000000010100100000000000000000000000000000000000000000000000000000000000000000000000000000000000000000000000000000000000000000000000000000000000000000000000000000000000000000000000000000000000000000000000000011000000000000000000000000000000000000000000000000000000000000000000000000000000000000000000000000000000000000000000000000100000000000000000000000000000000000000000000000000000000000000000000000000000011000000000000000000000000000000000000000000000000000000000000000000000000000000000000000000000000000000000000000000000010100000000000000000000000000000000000000000000000000000000000000011010000000000000000000000000000000000000000000000000000000000000000000000000000000000000000011100000000000000000000000000000000000000101000000000000000000000000000000000000000000000000000000000000000011100000000000000000000000000000000000000000000000000000000000000000110000000000000000000000000000000000000000000000000000000000000000100000000000000000000000000000000000000000000000000000000000001100010000000000000000000000000000000000000000000000000000000000000000010010000000000000000000100000100000000000000000000000000000000000000000000000000000000000000000000000000000000000000000000000000111000000000000000000000000000000000000000000000000000000000000000000000101000000000000000000001000001000000000000000000000000000000000000000000000000000000000000000000000000000000000000000000000000010001100100100000000000000000000000000000000000000000000000000000000000000100000000000000000000010000010000000000000000000000000000000000000000000000000000000000000000000000000000000000000000000000000010100001111100000000000000000000000000000000000000000000000000000000000000000000000000000000000000000000000000000000000000000000000000000000000000000000000000000000000000000000000000000011000001100000101010000101000000000000000000000000000000000000000000000000000000000000000000000000000000000000011100000000000000000000000000000000000000000000000000000000000000000000000000000000000000110000011000000000010111000000000000000000000000000000000000000000000000000000000000000000000000000000000000000000000000000000000000000000000000000000000000000000000000000000000000000000000000000000000000000000000000000001110000000000000000000000000000000000000000000000000000000000000000000000000000000000000000000000000000000000000000000000000000000000000000000000000000000000000000000000000000000000000000000110000000001011000000000000000000000000000000000000000000000000000000000000000000000000000000000000000000000000000000000000000000000000000000000000000000000000000000000000000000000000000000000000000001100000000001100000000000000000000000000000000000000000000000000000000000000000000000000000000000000000000000000000000000000000000000000000000000000000000000000000000000000000000000000000000000000000000000000000000000000000000000000000000000000000000000000110000000000000000000000000000000000000000000000000000000000000000000000000000000000000000000000000000000000000000000000000000000000000000000000000000000000000000000000000000000000000000000000000000010010000000000000000000000000000000000000000000111100000000000000000000000000000000000000000000000000000000000110000000000000000000000000000000000000000000000000010000000000000000000000000000000000000100100000000000000000000000000000000000000000001001100000000000000000000000000000000000000000000000000000000001100000000000000000000000000000000000000000000000001010000000000000000000000000000000000000110000000000000000000000000000000000000000000011000010000000000000000000000000000000000000000000000000000000100000000000000000000000000000000000000000000000000010100000000000000000000000000000000000000000000000000000000000000000000000000000111000001100110000000000010000000000000001000000000000000000000000011010000001000001100000000000000000000000000000000000010000000000000000000000000000000000110000000000000000000000000000000000000000000000000001001000000000011000000000000000101000000000000000000000000100000000101000000000000000000000000000000000000000011000000000000000000000000000000000001100000000000000000000000000000000000000000000000000000100000000000000000000000000001010000000000000000000000001101100000001000000000000000000000000000000000000001110000000000000000000000000000000000000000000000011000000000000000000000000000000011000001001000000000000001000000000000001000000000000000000000000001010110000000000000000000000000000000000000000000111100000000000000000000000000000000000000000000001001000000000000000000000000000000110000001000000000000010000100000000000000000000000000000000000000000011000000000011000000000000000000000000000000000000000000010000000000000000000000000000000000000010100000000000000000000000000000001100000000000000011000010001100000000000000000000000000000000000000000001000000110000000000000000000000000000000000000000000001010000000000000000000000000000000000000010000000000000000000000000000000000000000000000001001000000101000000000000000000000000000000000000000000000000000000100000000000000000000000000000000111100000010010000000000000000000000000000000000000000000000000000000000000000000000000000000000000001100000111010100000000000000000000000000000000000000000000000010010000000000000000000000000000000001111000000011000000000000000000000000000000000000000000000000000000000000000000000000000000000000000000000001110011000000000000000000000000000000000000000000000000010000000000000000000000000000000000001000000000000000000000000000000000000000000000000000011000000000000000000000111000000000000000000000000000000011110000000000000000000000000000000000000000000000000000000000000111000000010000000000000000000000000000000000000111000000000000000000000000000110000000000000000000000000000000000000000000000000000000001000000000000000000000000000000000000000000000000000000000000010010000000100000000000000000000000000000000000010001000000000000000000000000000000000000000000000000000000000000000000000000000000000000000000000000000000000000000000000000000000000000000000000000001100100000001000000000000000000000000000000000001000101000000000000000010000000000000000000000000000000000000000000000000000000000000001110000000000000000000000000000000000000000000000000000000000000010001000000000000000000000000000000000000000000001001010000000000000001010000000000000000000000000000000000000000000000000000000000000000000000000000000000000000000000000000000000000000000000000000000010010000000000000000000000000000000000000000000000100000000000000000010010000000000000000000000000000000000000000000000000000000000000000000000000000000000000000000000000000100000000000000000000001100001000000000000000000000000000000000000000000000011100000000000011000011000000000000000000000000000000000000000000000000000000001110000000000000000000000000000000000000100110000000000000000000000110100000000000000000000000000000000000000000000000000101010000000000110000000000000000000000000000000000000000000000000000000000000000000000000000000000000000000000000000011101110000000000000000000010000000000000000000000000000000011000000000000000000001000011000000000000000000000000000000000000000000000000000000000000000000000000000000000000000000000000000000000000001000110000000000000000000000100001000000000000000000000000000110000000000000000000000010010000000000000000000000000000000000000000000000000000000000000000000000000000000000000000000000000000000000000000100000000000000000000000001111100000000000000000000000000000000000000000000000000000000100000000000000000000000000000000000000000000000000000000000000000000000000000000000000000000000000000000000010001000100000000000000000000000000000000000000000000000000000000000000000000000000000001010000000000000000000000000000000000000000000000000000000000000001000000000000000000000000000000000000000011000100000001000110000000000000000000000000000000000000000000000000000000000000000000000000111000010000000000000000000000000000000000000000000000000000000000011000000001110000000000000000000100000000110001011111010001100000000000000000000000000000000000000000000000000000000000000000000000111000011011000000000000000000000000000000000000000000000000000000001010000000000000000000000000000010100000010000001011101000000100000000000000000000000000000000000000000000000000000000000000000000001010000111000000000000000000000000000000000000000000000000000000000000000000000000000000000000000000100100000011000000000000000110000000000000000000000000000000000000000000000000000000000000000000000011000001100000000000000000000000000000000110000000000000000000000000000000000000000000000000000110000110000000111110000000001111100000000000000000000000000000000000000000000000000000000000000000000000000000100000000000000000000110000000000001100000000000000000000000000000000000000000000000000001100000000000000000100000000010000000000000000000000000000000000000000000000000000000000000000000000000000000010001000000000000000001100000000000000000000000000000000000000000000000000000000000000000000000000000000000010011000110010000000000000000000000000000000000000000000000000000000000000000000000000000001000010000000000000000000000000000000000000000000000000011000000000000000000000000010000000000000000000000000110110001101100000000000000000000000000000000000000000000000000000000000000000000000000000000011100000000000000000000000000000000000000000000000000110000000000000000000000000100000000000000000000000000100100010010000000000000000000000000000000000000000000000000000000000000000000000000000000101101100000000000000000110000011000000000000000000000000000000000001100000000000001000000000000000000000000000110000011000000000000000000000000000000000000000000000000000000000000000000000000000000000000010010000000001100010010000110000000000000000000000000000000000100100000000000000000000000000000000000000000000000000000000000000000000000000000000000000000000000000000000000000000000000000000000000000000100000000011000010100000000000000000000000000000000000000010001100000000000000000000000000000000011100000000000000000000000000000000000000000000000000000000000000000000000011000000000000000000000000001000000000000000010000000000000000000000000000000000000000011011111000000000000000000000000000001101100000000000000000000000000000000000000000000000000000000000000000000001001000000000000000000000000000000000000000000000000000000000000000000000000000000000000000001110000000000000000000000000000011011000000000000000000000000000000000000000000000000000000000000000000000010010000000000000000000011000000000000000000000000000000000000000000000000000000000000000000000000000000000000000000000000000001000000000000000000000000000000000000000000000000000000000000110000000000011000000000000000000110100000000000000000000000000000000000000000000010000000000000000000000000000000000000000000000001100000000000000000000000000000000000000000000000000000000000000000001100000000000000000000000000000000010000000000000000000000000000000000000000000001010000000000000000000000000000001100000000000000011000000000000000000000000000000000000000000000000000000000000000000000000000000000000000000000000000000100000000000000000000000000000000000000000000110110000000000000000000000000000100100000000000000000000000000000000000000000000000000000000000000000000000000000000000000000000000000000000000000000000001110000000000000000000000000000000000000000000000100000000000000000000000000000110000000000000000000000000000000000000000000000000000000000000000000000000000000000000000000000000000000000000000000000100111000000000000000000000000000000000011100000001010000000000000000000000000000000000000000000000000000000000000000000000000000000000000000000000000000000000000000000000000000000000000000000000000001101011100000000000000000000000000000000000000000001011000000000000000000000000000000000000000000000000000000000000000000000000000000000000000000000000000000000000000000000000000000000000000000000000100011111100000000000001000000000000000000000001101000101000000000000000000000000000000000000000000000000000000000000000000000000000000000000000000000000000000000000000000000110000000000000000000000000111100000000000000000011000000000000000000000110000011110000000000000000000000000000000000000000000000000000000000000000000000000000000000000000000000000000000000000000000010010000000000000000000000001110000110000000000001001000000000000000000111001000000000000000000000110000000000000000000000000000000000000000000000000000000000000000000000000000000000000000000000000000011000000000000000000000000000000011000000000000000111000000000000000010100100010000000000000000010010000000000000000000000000000000000000000000000000000000000000000000000000000000000000000000000000000000000000000000000000000000000000100000000000000000000000000000000001000101000000000000000000000011000000000000000000000000000000000000000000000000000000000000000000000000000000000000000000000000000000000000000000000000000000000000000000000000000000000000000000000000001010010001000000000000000000000000000000000000000000000000000000000000010000000000000000000000000000000000000000000000000000000000000000000000000000000000000000000000000000000000000000000000000000000001110010000000000000000000000000000000000000000000000000000000000000001010000000000000000000000000000000000000000000000000000000000000000000000000000000000111000000000000000000000010100000000000000000000110000011110000000000000000000000000000000000000000000000000000000010100000000000000000000000000000000000000000000000000000000000000000000000000000000001001000000000000000000001010100000000000000000000110100010100000000000000000000000000000000000000000000000000000000010000000000000000000000000000000000000000000000000000000000000000000000000000000000010110000000000000000000001101100000000000000000000000010110000000000000000000000000000000000000000001100000000000000000000000000000000000000000000000001000000000000000000000000000000000000000000000000000000000000000000000000001110000000000000000000000001010000000000000000000000000000000000000000000011000000000000000000000010000000000000000000000000101000000000000000000000000000000000000000000000000000000000000000000000000001000000000000000000000000010000000000000000000000000000000000000000000000000000000000000000000001110010000000000000000000000100000000000000000000000000000000000000000000000000000000000000000000000000000000000000000000000001101100000000000000000000000000000000000000000000000000000000000000000000011000101000000000000000000000000000000000000000000000000000000000000000000000000100000000000000000000000000000000000000000000001010000000000000000000000000000000000000000000000000000000000000000000000000001010000000000000000000000000000000000000000000000000000000000000000001000100100000000000000000000000000000000000000000000001000000000000000000000000000000000000000000000000000000000000000000000000001010110000000000000000000000000000000000000000000000000000000000000000101110000000000000000000000000000001110001100000000000000000000000000011000000000000000000000000000000000000000000000000000000000110001000000000000000000000000000000000000000000000000000000000000000000000100100000000000000000000000000000000100100000000000000000000000000110000000000000000000000000000000000000000000000000000000110000100000000000000000000000000000000000000000000000000000000000000010000101011000000000000000000000000000000000110000000000000011000000000000000000000000000000000000000000000000000000000000000000000000000000000000000000000000000000000000000000000000000000000000000000100001000011000000000000000000000000000000000000000000000000110000000000000000000000000000000000000000000000000000000000000000000100000100000000000000000000000000000000000000000000000000000000000011100000000001110000000000000000000000000000000000000000000000000000000110000000000000000000000000000000000000000000000000000000000000000000000000000000000000000000000000000001000000000000000000000000100000000000000000000000000000000000000000000000000000000000000000000010010000000000000000000000000000000000000000000000000000000000001000010000000000000000000000000000000000101000000000000000000000010000011010000000000000000000000000000000000000000000000000000000000000100100000000000000000000000000000000000000000000000000000000000000100100000000000000000000000000110000001010000000000000000000000011111100110000000000000000000000000000001110000000000000000000000000000110000000000000000000000000000000000000000000000000000000000000001110000000000000000000000000111100000001000000000000000000000000100000000100000000000000000000000000000000000000000000000000000000000000000000000000000000000000000000000000000000000000000000000001000000000000000000000000000000001000000000000000000000000000000000000000000000100000000000000000000000000000000000000000000000000000000000000000000000000000000000000000000000000000000000000000000001110000000000000000000000000000000001101000000000000000000000000000000000000000000000000000000000000000000000000000000000000000000000000001100000000000000000000000000000000000000000000000000000000000111000000000000000000000000000000000000000000000000000000000000000000000000000000000000000000000000000000000000000000000000000000000000000100100000000000000000000000000000000000000000110000000000000001111110000000000000000000000000000000000000011100000000000000000000000000000000101100000000000000000000000000000000000000000000000000000000110000000000000000000000000000000000000000010010000000000000000100000000000000000000000000000000000011000000000000000000000000000000000001100000010000000000000000000000000000000000000000000000000000000000000000000000000000000000000000000000000010100000000000010001000010000000000000000111000000000000000000000000000000000000000000000000010010000100000000000000000000000000000000000000000000000000000000000000000000000000000000000000000000000000010000001000000000100000100000000000000000000000000000000000000000000000000000000000000000000111001001000000000000000000000000000000000000000000000000000000000000000000000000000000000000000000000000000000000011000000001100000000000000000001000001000000000000000000000000000000000000000000000010001001000000000000000000000000000000000000000000000000000000000000000000000000000000000000000000000000000000000000100000111001000000000000000000010000010000000000000000000000000110000000000000000000111110110000000000000000000000000001000000000000000000000000000000000000000000000000000000000000000000000000000000000000000000000000000000000000000100000100000000000000000000000001100000000000000000001101101000000000000000000000000000101000000000000000000000000000000000000000000000001110000000000000000000000000000000000000001001100000000000000000000000000000000000000000000000000000000000000000000000000000000000000000000000000000001001000000000000000000000000000000000000000000000000000000000000000000000000000000000000000100000000000000000000000111000000000000000000000000000000000000000000000000000000000000000000000000000000000001100000000000000000000000000000000000000000000000000000000000000000000000000000000011000010001100000000000000000000000000000000000000000000011100000000000000000000000000000000000000000000000000000000000000000000000000000000000000000000000000000000000000000000000000000000000000000000110110010011000000000000000000000000000000000000000000000101000000000000000000000000000000000000000000010000000000000000000000000000000000000000000100000000000000000000000000000000000000000000000000010000000011000000000000000000000000000001100000000000000001010000000000000000000000000000000000000000000100000000000000000000000000000000000000000001000000000000000000000000000000000000000000000000000011000100000000000000000000000000000000111100000000000001000000000000000000000000000000000000000000000001000000000000000000000000000000000000000000010000000000000000000000000000000000000000000000000000000001000000000000000000000000000000011011100000000001010000100000000000000000000000000000000000000000000000000000000000000000000000000000000000000000000000000000000000000000000000000001000000000000000010100000000000000000000000000000000011000101100000110011001000000000000000000000000000000000000001110001110000000000000000000000000000000000000000011100000000000000000000000000000000010000000000000000000000000000000000000000000000000000110000111000011001100011000000000000000000000000000000000000000000000000000000000000000100000000000000000000000000000000000010000000000000000000000100000000000000001110000000000000000000000000000000000110011000000000011100000000000000000011000000000000000000000000000000000000000000000010100000000000000000000000000000000001010000000000000000000000000000000000000011100011100000000000000000000000000001110000001100000011100011100000110000110000000000000000000000000000000000000000000000101000000000000000000000000000000000010100000000000000000000000000000000000000000000000001100000000000000000000000000100010001100000001100111000001100000000000000000000000000000000000000000000000000000100000000000000000001000000000000000010000000000000000000000000000000000000100000100000100100000000000000000000000101000111110000001110001110000000000000000000000000000000000000000000000000000000000000000000000000000000010000000000000000000000000000000000000000000000000000001000001000000110000000000000000000000000100000100000000111000000000000000000000000000000000000000100000000000000000000000000000000001100000011000100000000000000000000000000000000000000000000000000000010000010000000000000000000000000000000001000000000010001100011000000000000000000000000000000000001000000000000000000000000000000000011000001111000000000000000000000000000000000000000000000000000000000000000000000000000000000000000000000000000000000011011001100100000000000011000000000000000000000010000000000000000000000000000000000000001100000000000000000000000000000000000000000000000000000000000000011100000000000000000000000000000000000000000000011110100001000000000001001000000000000000000000000000000000000000000000000000000000001011101000000000000000000000000000000000000000000000000000000000000000000000000000000000000000000000000000000000001100001000000000000000001010000000000000000000000011100000000000000000000000000000000011101111000000000000000000000000000000000000000000000000000000000000000000000000000000000000000000000000000000000000000000101000000000000001000000000000000000000000000000000000000000000000000000000000100000100000000000000000000000000000000000000000000000000000000000000000000000000000000000000000000000000000000000000000001010000000000000000000000000000000000000000000000000000000000000000000000000000000000000000000000000000000000000000000000000000000000000000000000000000000000000000000000000000000000000000000000000000011100000000000000000000000000000000000000000000000000000000000000000000000000000000000000000000000000000000000000000000000000000000000010000000000000000000000000000000001100000000000000000000000000000000000000000000000000000000000000000000000000000000000000000000000000000000000000000000000000000000000000000000000000000000000000000001010000000000000000000000000000000011000000000000000000000000000000000000000000000000000000000000000000000000000000000000000000000000000000000000000000000000000000000000000000000000000000000000000000010100000000000000000000000000000000000000000000000000000000000000000000000000000000000000000000000000000000000000000000000000000000000000000000000000000000000000000000000000000000000000000000000000000010000000000000000000000000000000000000000000001100000000000000000000000000000000000000000000000000000000000000000000000000000000000000000000000000000000000000000000000000000000000000000000000000000000000000000000000000000000000000000000000000000011000000000000000010000000000000000000000000000000000000000000000000000000000000000000000000000000000000000000000000000000000000000000000000000000000000000000000000000000000000000000000000000000000000000000000000000001010000000000000000000000000000000000000000000000000000000000000000000000000000000000000000000000000000000000000000000000000000000000000000000000000000000000000000000000000000000000000000000000000000010100000000000000000000000000000000000000000000000000000000000000000000000000000000000000000000000000000000000000110000000000000000000000000000000000000000000000000000000000000000000000000000000000000010000000000000000000000000000000000000000000000000000000000000000000000000000000000000000000000000000000000110001100000000000000000000000000000000000000000000000000000000000000000000000000000000000000000000000000000000000000000000000010000000000000000000000000000000000000000000000000000000000000000000000000000000000000000000000000000000000000000000000000000000000000110000000000000000000000000000000000000000000000000000000000000001010000000000000000000000000000000000000000000000000000000000000000000000000000000000000000000000000000000000000000000000000000000000001010000000000000000000000000000000000000000000000000000000000000010100000000000000000000000000000000000000000000000000000000000000000000100000000000000000000000000000000000000011000000000000000000000001000000000000000000000000000000000000000000000000000000000000000010000000000000000000000000000000001100000000000000000000000000000000010100000000000000000000000000000000000001001000000001100000011000000000000000000000000000000000000000000000000001000000000000000000000000000000000000000000000000000011000000000000000000000000011000000101000101000000000000000000000000000000001100000000011000001001000000000000000000000000000000000000000000000000010000000000000110000000110000000000000000000000000000000000000000000000000000000110000000100010001000000000000000000000000000000000000000000000000010100000000000000000000000000000000000000000000000000100000000000001100000010010000000000000000000000000000000000000000000000000000000000000000000010100000000000000000000000000000000000000000000000000010000000000000000000000000000000000000000000000000000000000000000000000000011000000000000000000000000000000000000000000000000000000000000000000000010000000000000000000000000000000000000000000000000000000000000000000000000000000000000000000000000000000000000000000000000000000000000000000000000000000000000000000000000000000000000000000000000000000000000000000000000000000000000000000000000000000000000000000000000000000000000000000000110000000000000000000000000000000000000000000000000000000000000000000000000000000000000000000000000000000000000000000000000000000000000000000000000000000000000000000000000000000000000000000000000000010010000000000000000000000000000000000000000000000000000000000000000000000000000010000000000000000000000000000000000001000000000000000000000000000000000000000000000000000000000000000000000000000000000101000000000000000000000000000000000000000000000000000000000000000000000000000000100000000000000000000000000000000000101000000000000000000000000000000000000000000000000000000000000000000000000000000000100000000000000000000000000000000000000000000000000000000000000000000000000000001000000000000000000000000000000000000100000000000000000000000000000000000000000000000000000000000000000000000000000000000000000000000000000000000010000000000000000000000000001100110000000000000000000000000000000000000000000000000000000000000000000000000000000000000000001000000000000000000000000000000000000000000000000000000000000000000000000000100000000000000000000000000011001100000000000000000000000000000000000000000000000000000000000000000000000000000000000000000101000000000000000000000000000000000000000000000000000000001100000000000000001000000000000000000000001100000000000000000000000000000000000000000000000000000000000000000000000000000000000000000000000001010000110000000000000000000000000000000000000000000000000100100000000000000000000000000000000000000011000000000000100000000000000000000000000000000000000000000000000000000000000000000000000000000000001000010010000000000000000000000000000000000000000000000001010000000000000000000000000000000000000000000000000000010100000000000000000000000000000000000000000000000000000000000000000000000000000000000000000011000000000000000000000000000000000000000001000000001000000000000000000000000000000000000000000000000000000101000000000000000000000000000000000000000000000000000000000000000000000000000110000000000000000000000000000000000000000000000000000000101000000000000000000000000000000000000000000000000000000000000000100000000000000000000000000000000000000000000000000000000000000000000000000010010000000000000000000000000110000000000000000000000000000110000000000000000000000000000000010000000000000000000000000000000000000000000000011000000000000000000000000000000000000000000000001000000000100100000000000000000000000010100000000000000000000000000000000000000000000000000000000000000100000000000000000000000000000000000000000000000110000000000000000000000000000000000000000000000101000000000110000000000000000000000000010000000000000000000000000000000000000000000000000000000000000001000110000000000000000000000000000000000000000000000000000000000000000000000000000000000000000010010000000000000000000000000000000000000000000000000000000000000000000000000000000000000000000000000000000010010000000000000000000000000000000000000000000000000000000000000000000000000000000000000000011000000000000000000000000000000000000000000000000000000000000000000000000000000000000000000000000000000000101000000000000000000000000000000000000000000000000000000000000000000000000000000000000000000000000000000000000000000001101000000000000000000000000000000011100000000000000000000000000000000000000000000100000000000000000000000000000000000000000000000000000000000000000000000010000000000000000000000000000000000000000000011111000000000000000000000000000000101000000000000000000000000000000000000000011000000000000000000000000000000000000000000000000000000000000000000000000001111000000000000000000000000001100000000000000000111000000011000000000000000000010010100000000000000000000000000000000000000110000000000000000000000000000000000000000000000000000000000000000000000000100000000000000000000000000000100100000001100001000011000000110000000000000000000101101000000000000000000000000000000000000000000000000000000000000000000000000000000000000000000000000000000000000110100011110000000000000000000000000101000000101000011000001000000000000000000000000001111000000000000000000000000000000000000000000011000000110000000000000000000000000000000000000000000000000000000010000000000000000000000000000000000000100000001010000110001100000000000000000000000000001100000000000000000000000000000000000000000001110000001100000000000000000000000011100000000000000000000000000000100000011000000000000000000000000000000000000011000010000000000000000000000000000000000000100011000000000000000000000000000000000001111100000000000000000000000000000000000000000000000000000000000000001100000100010000000000000000000000000000000000000001110000000000000000000000000000010000001001100000000000000000000000000000000000110000000000000100000000000000000000000000000000000000000100000100000000000010001110000000000000000000000000000000000000010000000000000000000000000000110000000000000000000000000000000000000000000000011000000000000010100000000000000000000000000000000011000001000001000000001000100011000000000000000000000000000000000000000000001111000000000000000110000101100000000000000000000000000000001100000000000010000010000001001000000000000000000000000000000000110000011000110000000000100000000000000000000000000110000000000000000000000100001000000000000010010000100000000000000000000000000000000011000000000000010000100000001100000000000000000000000000000000000000000000000000000000000000000000000000000000000010010000000000000001000011000001000000000000100000000000000000000000000000000000000000000000000000000000000000000000000000000000000000000000000000000000011100110110011100000000000000000000000000000000100100110001100000101000110000010000000000010000000000000000000000000000000000000000000000000000000000000000000000000000000000000000000000000000000000000001010101010100000000000000000000000000000000000110001100100100001010001100001100000000000000000000000000000000000000000000000000000000000000000000000000000000000000000000000000000000000000000000000000000110001100000000000000000000000000000000000000000000000101000001000001001000000000000010001000000000000000000000001000000000000000000000000000000000000000000000000000000000000000000000000000000000000000000000000000000000000000000000000000000000000000000000100000000000001100000000000000101100000000000000000000000101000000000000000000000000000000000000000000000000000000000000000000000000000000000000011000110000000000000000000000000000000000000000000000000000000000000000000000000000000000000000000000000000000001010000000000000000000000000000000000000000000000000000000000000000000000000000000000010101010101000000000000000000000000000000000000000000000000001100000000000000000000000000000000000000000000000000001000000000000000000000000000000000000000000000000000000000000000000000000000000000011100110110000000000000000000000000000000000000000000000000000011000000000000000000000000000000000000000000000000000000000000000000000000000000000000000000000000000000000000110000000000000000000000000000000000000000000000000000000000000000000000000111000000000000000000000000000000000011011000000000000000000000000000000000000000000000000000000000000000000000000000000000001100000000000000000000000000000110001100000000000000000000000000000000000000000000000000000000000000000001100000010110000000000000000000000000000000000000000000000000000000001110000000000000000000000000000000000000000000000000000001000001000000000000000011000000000000000000000000000000000000000000000110011100000100000000000000000000000000000000000000000000000000000000000000000000000000000000000000000000000000000000000000000000010000011001000000000001001000000001100000000000000000000000000000000000000110000101000111000000000000000000000000000000000000000000000000000000000000000000000000000000000000000000000000000000000000000000000001010000000000010010000000101000000000000000000000000000000000000000111011010000000000000000000000000000000000000000000000000000000000000000000000000000000000000000000000000000000000000000000000000000010100000000000011000000000100000000000000000000000110100000000000001000111000000000000000000000000000000000000000000000000000000000000000000000000000000000000000000001100000000000000000000000000000000000000000000000000000000000000000000000000000000001111100000000000000000000000000000000000000000000000000000000000000000000000000000000000000000000000000110000000000100100000000000000000000000000000000000000000000000000000000000000000000100000000000001111000000000000000000000000000000000000000000000000000000000000000000000000000000000000000000000000001100000000000110000000000000000000000000000000000000000000000000000000000000000000010100000000000000000000000000000000000000000000000000000000000000000000000000000000000000000000000000000000000000000000000000000000000000000000000000000000000000000000000000000000000000000000000000001010000000000000111000000000000000000000000000000000000000000000000000000000000000000000000000000000000000000000000000000000000000000000000000000000000000000000000000000000000000000000000000000000000101000000000000001110000000000000000000000000000000000000000000000000000000000000000000000000000000000000000000000000000000000000000000000000000000000000000000000000000000000000000000000000000000000000100000000000000001000000000000000000000000000000000000000000000000000000000000000000000000000000000000000000000000000000000000000000000000000000000000000000000000000000000000000000000000000000000000000000000000000000000000000000000001100000000000000000000000000000000000000000000000000000000000000001110000000000000000000000000000000000000000000000000000000000000000000000000000000000000000000000000000000000000000000000000000000000100000000000000000000000000000000000000000000000000000000000000000000000000000000000000000000000001000000000000000000000000000000000000000000000000000000000000000000000000000000000000000000000000000001110000000000000000000000000000000000000000000000000000000000000000000000000000000000000000000000101000000000000000000000000000000000000000000000000000000000000000000000000000000000000000000000000000000000000000000000000000000000000000001000000000000000000000000000000000000000000000000000000000001010000000000000000000000000000000000000000000000000000000000000000000000000000000000000000000000000000000000000000000000000000000000000000010000000000000000000000000000100000000000000000000000000000001000000000000000000000000000000000000000000000000000000000000000000000000000000000000000000000000000000000000000000000000000000000000000111000000000000000000000000000001000000000000000000000000000000000000000000000000000000000000000000000000000110000000000000000000000000000000000000000000000000000000000000000000000000000000000000000010010000000000000000000000000000010000000000000000000000000000000000000000000000011000001000000000000000000001100000000000000000000000000000000000000000000000000000000000000000000000000000000000000000100100000000000000000000000000000000000000000000000000000000000000000000000000000110000010000000000000000000000000000000000000000000000000000000000000000000000000000000000000000000000000000000000000001000000000000000000000000000000000000000110000000000000000000000011000000000000000000000100000000000000000000000000000000000000000000000000000000000000000000000000000000000000000000000000000000000000000110000000000000000000000000000000000001010000000000000000000000110000000000000000000000000000000000000000000000000000000000000000000000000000000000000000000000000000000000000000000000000000000000000000000000000000000000000000000000000000001100000000000000000000000000000000000000000000000000000000000000000000000000000000000000000000000000000000000000000000000000000000000000000000000000000000000000000000000000000000000000000000000000000000000000000000000000000000000000000000000000000000000000000000000000000000000000000000000000000000000000000000000000000000000000000000000000000000000000000000000000000000000000000