P1
200 200
0111000000000000000000000000000000000000000000000000000000000000000000000000000000000000001000000000000000000000100000000000000000000000000000000000000000000000000000000000000000000000010000000000000000001000000000000000000000000000000000000000000000000000000000000000000000000000000000000111000000000000010000010100000000000000000000000000000000000000000000000000000000000000000000001010000000000000000010000000000000000000000000000000000000000000000000000000000000000000000000000000000001001000000000001010000100100000000100000000000000000000000000000000000000000000000000000000000010100000000000000010110000000000000000000000000000000000000000000000000000000000000000000000000000000000000101100000000011000000110000000010100000000000000000000000000000000000100000000000000000000000010000000000000000001000000000000000000000000000000000000000000000000000000000000000000000000000000000000011011000000000000000000000000000101000000000000000000000000000011100010100000000000000000000000000011100000000011100000000000000000000000000000000000000000000000000000000000000000000000000011000000000000000000000000000000000000000000100000000000000000000000000000000000100100000000000000000000000000000000000000000000000000000000000000000000000000000000000000000000000000000000000000000000110000000000000000000000000000000000000000000000000000000000000000000000000000000110000000000000000000000000000000000000001110000000000000000000000000000000000000000000000000000000000000000000000000000000000000000000000000000000000000000001100000001100000000000000000000000000000000000000000001100000000000000000001100000100001000000000000000000000000000000000000000000000000000000000000000000000000000000000000000000000000000000000000000100100000100100000000000000000000000000000000000000000011000000000000000001011000001000010000000000000000000000000000000000000000000000000000000000000000000000000000000000000000000000000000000000000000110000000110000000000000000000000000000000000000000000000000000000000000000000000010000100000000000000000000000000000000000000000000000000000000000000000000000000000000000000000000000000000000000000000000000000000000000000000000000000000000000000000000000000000000000000000000000000000000000000000000000000000000000000000000000000000000000000000000000000000000000000000000000000000000000000000000000000000100000000000000000000000000000000000000000000000000000000000000000000000000000111000000000000000000000000000000000000000000000000000000000000000000000000000000100000000000000000000000000000000000000010100000000000000000000000000000000000000000000000000000000000000011010000000000000000000000000000000000000000000000000000000000000000000000000000000000000000001000000000000000000000000000000000000000101000000000000000000000000000000000000000000000000000000000000000100100000000000000000000000000000000000000000000000000000000000000000110000000000000000000000010000000000000000000000000000000000000000100000000000000000000000000000000000000000000000000000000000010100111000000000000000000000000000000000000000000000000000000000000000010010000000000000000000000000000000000000000000000000000000000000000000000000000000000000000000000000000000000000000000000000000100000000000000000000000000000000000000000000000000000000000000000000000101000000000000000000011100011100000000000000000000000000000000000000000000000000000000000000000000000000000000000000000000000010001000100110000000000000000000000000000000000000000000000000000000000000100000000000000000000000000000000000000000000000000000000000000000000000000000000000000000000000000000000000000000000000000000110101001000100000000000000000000000000000000000000000000000000000000000000000000000000000000000000100000000000000000000000000000000000000000000000000000000000000000000000000000000000000011000001100000000100100001000000000000000000000000000000000000000000000000000000000000000000000000000000000000001000000000000000000000000000000000000000000000000000000000000000000000000000000000000000110000011000000000001100000000000000000000000000000000000000000000000000000000000000000000000000000000000000000010000000000000000000000000000000000000000000000000000000000000000000000000000000000000000000000000000000000010000000000000000000000000000000000000000000000000000000000000000000000000000000000000000000000000000000000000000000000000000000000000000000000000000000000000000000000000000000000000000000000110000000010001000000000000000000000000000000000000000000000000000000000000000000000000000000000000000000000000000000000000000000000000000000000000000000000000000000000000000000000000000000000000000001100000000001110000000000000000000000000000000000000000000000000000000000000000000000000000000000000000000000000000000000000000000000000000000000000000000000000000000000000000000000000000000000000000000000000000000000000000000000000000000000000000000000000110000000000000000000000000000000000000000000001100000000000000000000000000000000000000000000000000000000000000000000000000000000000000000000000000000000000000000000000000000000000000000000000000000010010000000000000000000000000000000000000000000111110000000000000000000000000000000000000000000000000000000000110000000000000000000000000000000000000000000000000010000000000000000000000000000000000000100100000000000000000000000000000000000000000010001100000000000000000000000000000000000000000000000000000000010100000000000000000000000000000000000000000000000001010000000000000000000000000000000000000110000000000000000000000000000000000000001000011001111000000000000000000000000000000000000000000000000000001101000000000000000000000000000000000000000000000000010100000000000000000000000000000000000000000000000000000000000000000000000000000010000011101110000000000100000000000000001000000000000000000000000011100000001000000000000000000000000000000000000000001010000000000000000000000000000000000110000000000000000000000000000000000000000000100000011111100000000001000000000000000101000000000000000000000001000110000011000000000000000000000000000000000000000100100000000000000000000000000000000001100000000000000000000000000000000000000000000000000001110000000000000000000000000001010000000000000000000000001101110000000000000000000000000000000000000000000010001000000000000000000000000000000000000000000000011000000000000000000000000000000011000000010000000000000000000000000000001000000000000000000000000011010010000000000000000000000000000000000000000000100100000000000000000000000000000000000000000000001001000000000000000000000000000001001000000000000000000000001110000000000000000000000000000000000000000010000000000000000000000000000000000000000000000110000000010000000000000000000000000000000000000010100000000000000000000000000000001100000000000000011000000010100000000000000000000000000000000000000000010000000000110000000000000000000000000000000001100000001010000000000000000000000000000000000000010000000000000000000000000000000000000000000000001001000010101000000000000000000000000000000000000000000000000001100000000000000000000000000000000000100100000010010000000000000000000000000000000000000000000000000000000000000000000000000000000000000001100000100010100000000000000000000000000000000000000000000000000000000000000000000000000000000000000001000000011000000000000000000000000000000000000000000000000000000000000000001000000000000000000000000000001000000100000000000000000000000000000000000000000000000000000000000001000000000000000000000011000000000000000000000001000000000000000000000000000011000000000000000000000010000000000000000000000000000001110000000000000000000000000000000000000000000000000000000000000000111000000000000000000000000000000000000000000000111000000000000000000000000000110000000000000000000000100000000000000000000000000000000001100000000000000000000000000000000000000000000000000000000000110011000001110000000000000000000000000000000000011001000000000000000000000000000000000000000000000000000000000000000000000000000000000010000000000000000000000000000000000000000000000000000000000000001101110000000000000000000000000000000000000000001100101000000000000000010000000000000000000000000000000000000000000000000000000000000000100000000000000000000000000000000000000000000000000000000000000010011100000000000000000000000000000000000000000000011000000000000000001010000000000000000000000000000000000000000000000000000000000000001000000000000000000000000000000000000000000000000000000000000000000110000000000000000000000000000000000000000000000001000000000000000010010000000000000000000000000000000000000000000000000000000010000000000000000000000000000000000000000001000000000000000000000011100000000000000000000000000000000000000000000000000010110000000000011000011000000000000000000000000000000000000000000000000000000000100000000000000000000000000000000000001111100000000000000000000000110000000000000000000000000000000000000000000000000001101101000000000110000000000000000000000000000000000000000000000000000000000000001000000000000000000000000000000000000011100010000000000000000000010000000000000000000000000000000011000000000000000000000101111000000000000000000000000000000000000000000000000000000000000000000000000000000000000000000000000000000000000000000110000000000000000000001101110000000000000000000000000000110000000000000000000000000011000000000000000000000000000000000000000000000000000000000000000000000000000000000000000000000000000000000000001010100000000000000000000001111100000000000000000000000000000000000000000000000000000011100000000000000000000000000000000000000000000000000000000000000000000000000000000000000000000000000000000000000000000000000000000000000000001110000000000000000000000000000000000000000000000000000011010000000000000000000000000000000000000000000000000000000000000001100000000010000000000000000000000000000011001100000001100110000000000000000000000000000000000000000000000000000000000000000000000000001000111000000000000000000000000000000000000000000000000000000000101000000000100000000000000000000100000001010001010001010001010000000000000000000000000000000000000000000000000000000000000000000000100000010010000000000000000000000000000000000000000000000000000000000010000000001000000000000000000010100000010000001000001000000100000000000000000000000000000000000000000000000000000000000000000000010010001000100000000000000000000000000000000000000000000000000000000000000000000000000000000000000000100100000100010000010000010001000000000000000000000000000000000000000000000000000000000000000000000011000010010000000000000000000000000000000110000000000000000000000000000000000000000000000000000110000110000000101110000000001110100000000000000000000000000000000000000000000000000000000000000000000000000000111000000000000000000110000000000001100000000000000000000000000000000000000000000000000001100000000000000100110000000110010000000000000000000000000000000000000000000000000000000000000000000000000000010000000000000000000001100000000000000000000000000000000000000000000000000000000000000000000000000000000000010011000110010000000000000000000000000000000000000000000000000000000000000000000000000000000000011000000000000000000000000000000000000000000000000011000000000000000000000000000000000000000000000000000110001010001100000000000000000000000000000000000000000000000000000000000000000000000000000001110000000000000000000000000000000000000000000000000000110000000000000000000000001110000000000000000000000001100100010011000000000000000000000000000000000000000000000000000000000000000000000000000000001100100000000000000000110000011000000000000000000000000000000000001100000000000000000000000000000000000000000110000011000000000000000000000000000000000000000000000000000000000000000000000000000000000000111100000000001100010010000110000000000000000000000000000000000110110000000000000000000000000000000000100000000000000000000000000000000000000000000000000000000000000000000000000000000000000000000000000001110000000011000010100000000000000000000000000000000000000010100001000000000000000000000000000000110110000000000000000000000000000000000000000000000000000000000000000000000011000000000000000000000000000000000000000000010000000000000000000000000000000000000000010110001000000000000000000000000000000000000000000000000000000000000000000000000000000000000000000000000000000001001000000000000000000000000000000000000000000000000000000000000000000000000000000000000000000010000000000000000000000000000010001000000000000000000000000000000000000000000000000000000000000000000000010010000000000000000000111000000000000000000000000000000000000000000000000000000000000000000001000000000000000000000000000000011100000000000000000000000000000000000000000000000000000000000110000000000011000000000000000000010110000000000000000000000000000000000000000000010000000000000000000000000000000000000000000000001100000000000000000000000000000000000000000000000000000000000000000001100000000000000000000000000000000011000000000000000000000000000000000000000000011011000000000000000000000000000001100000000000000011000000000000000000000000000000000000000000000000000000000000000000000000000000000000000000000000000001100000000000000000000000000000000000000000000110110000000000000000000000000000100100000000000000000000000000000000000000000000000000000000000000000000000000000000000000000000000000000000000000000000011010000000000000000000000000000000000000100000000100000000000000000000000000000110000000000000000000000000000000000000000000000000000000000000000000000000000000000000000000000000000000000000000000000100001000000000000000000000000000000000001000000001011000000000000000000000000000000000000000000000000000000000000000000000000000000000000000000000000000000000000000000000000000000000000000000000000011100000010000000000000000000000000000000010000000011011000000000000000000000000000000000000000000000000000000000000000000000000000000000000000000000000000000000000000000000000000000000000000000000000100000000100000000000001100000000000000000000011100000001000000000000000000000000000000000000000000000000000000000000000000000000000000000000000000000000000000000000000000000110000000000000000000000001000001000000000000000111000000000000000000000000100011010000000000000000000000000000000000000000000000000000000000000000000000000000000000000000000000000000000000000000000010010000000000000000000000001001001110000000000000000100000000000000000100010000111000000000000000110000000000000000000000000000000000000000000000000000000000000000000000000000000000000000000000000000011000000000000000000000000001000010100000000000000111000000000000000010000110000000000000000000010010000000000000000000000000000000000000000000000000000000000000000000000000000000000000000000000000000000000000000000000000000000000000110000000000000000100000000000000001101101100000000000000000000011000000000000000000000000000000000000000000000000000000000000000000000000000000000000000000000000000000000000000000000000000000000000000000000000000000000000000000000000001000011000000000000000000000000000000000000000000000000000000000000000010000000000000000000000000000000000000000000000000000000000000000000000000000000000001000000000000000000000000000000000000000000001000100001110000000000000000000000000000000000000000000000000000000001010000000000000000000000000000000000000000000000000000000000000000000000000000000000111000000000000000000000011100000000000000000000000100011010000000000000000000000000000000000000000000000000000000010100000000000000000000000000000000000000000000000000000000000000000000000000000000011001000000000000000000001000110000000000000000001110000000100000000000000000000000000000000000000000000000000000000010000000000000000000000000000000000000000000000000000000000000000000000000000000000001110000000000000000000000000100000000000000000000000110110000000000000000000000000000000000000000001100000000000000000000000000000000000000000000000001000000000000000000000000000000000000000000000000000000000000000000000000010001000000000000000000000001011000000000000000000000000000000000000000000011000000000000000000000111000000000000000000000000101000000000000000000000000000000000000000000000000000000000000000000000000011100000000000000000000000010000000000000000000000000000000000000000000000000000000000000000000000010001000000000000000000000100000000000000000000000000000000000000000000000000000000000000000000000000000000000000000000000001101100000000000000000000000000000000000000000000000000000000000000000000010101100000000000000000000000000000000000000000000000000000000000000000000000000000000000000000000000000000000000000000000000011011000000000000000000000000000000000000000000000000000000000000000000000000001010000000000000000000000000000000000000000000000000000000000000000001111000000000000000000000000000000010000000000000000001000000000000000000000000000000000000000000000000000000000000000000000000011000110000000000000000000000000000000000000000000000000000000000000000011111000000000000000000000000000000100001100000000000000000000000000011000000000000000000000000000000000000000000000000000000001111001100000000000000000000000000000000000000000000000000000000000000000110101100000000000000000000000000001000100100000000000000000000000000110000000000000000000000000000000000000000000000000000000011000000000000000000000000000000000000000000000000000000000000000000000000000110000000000000000000000000000000000110000000000000011000000000000000000000000000000000000000000000000000000000000000000001000000000000000000000000000000000000000000000000000000000000000000101000000101000000000000000000000000000000000000000000000000000110000000000000000000000000000000000000000000000000000000000000000000000000000000000000000000000000000000000000000000000000000000000000011000000000001010000000000000000000000000000000000000000000000000000000110000000000000000000000000000000000000000000000000000000000000000000000000000000000000000000000000000001000000000000000000000001100000000000001000000000000000000000000000000000000000000000000000000010010000000000000000000000000000000000000000000000000000000000000000000000000000000000000000000000000000101000000000000000000000010011011111000000000000000000000000000000010000000000000000000000000000100100000000000000000000000000000000000000000000000000000000000001100100000000000000000000000000010000001010000000000000000000000111111111110000000000000000000000000000000100000000000000000000000000000110000000000000000000000000000000000000000000000000000000000000001110000000000000000000000000100100000001000000000000000000000000101110001110000000000000000000000000000001000000000000000000000000000000000000000000000000000000000000000000000000000000000000000001000001000000000000000000000000001000000000000000000000000000000000000000000000000000000000000000000000000000000000000000000000000000000000000000000000000000000000000000000000000000000000000000000010010000000000000000000000000000000001000000000000000000000000000000000000000000000000000000000000000000000000000000000000000000000000000001100000000000000000000000000000000000000000000000000000000000000000000000000000000000000000000000000000000100000000000000000000000000000000000000000000000000000000000000000000000000000000000000000000100100000000000000000000000000000000000000000110000000000000001000100000000000000000000000000000000000000001000000000000000000000000000000000000000000000000000000000000000000000000000000000000000000000110000000000000000000000000000000000000000010010000000000000000001000000000000000000001000000000000000000010000000000000000000000000000001110100100000000000000000000000000000000000000000000000000000000000000000000000000000000000000000000000000010100000000000000011000000000000000000000010000000000000000000000000000000000000000000000000100000001110000000000000000000000000000000000000000000000000000000000000000000000000000000000000000000000000010000001100000000100000000000000000000000100000000000000000000000000000000000000000000000001111110010000000000000000000000000000000000000000000000000000000000000000000000000000000000000000000000000000000000111000001011100000000000000000000000000000000000000000000000000000000000000000000000010001001100000000000000000000000000000000000000000000000000000000000000000000000000000000000000000000000000000000000110000010011000000000000000000111000111000000000000000000000000110000000000000000001000000110000000000000000000000000001000000000000000000000000000000000000000000000000010000000000000000000000000000000000000100000000000000000000000000000000000000000000000000000001100000000000000000001000101100000000000000000000000000101000000000000000000000000000000000000000000000000100000000000000000000000000000000000000000000000000000000000000001000000000000000000000000000000000000000000000000000000000000000000000000000000000001001000000000000000000000000000000000000000000000001000000000000000000000000000000000000000100101000000000000000000010000000000000000000000000100000000000000000000000000000000000000000000000000000000001100000000000000000000000000000000000000000000000000000000000000000000000000000000011100011001100000000000000000000100000000000000000000000010100000000000000000000000000000000000000000000000000000000000000000000000000000000000000000000000000000000000000000000000000000000000000000001011000011001000000000000000000000000000000000000000000001101100000000000000000000000000000000000000000000000000000000000000000000000000000000000000000000000000000000000000000000000000000000000000000010010100011100000000000000000000000000010010000000000000010000000000000000000000000000000000000000000001110000000000000000000000000000000000000000011100000000000000000000000000000000000000000000000000010000000000000000000000000000000000001000010000000000010100000000000000000000000000000000000000000000000000000000000000000000000000000000000000000000000000000000000000000000000000000000000000000000000010011000000000000000000000000000000010000100000000011010000000000000000000000000000000000000000000010000010000000000000000000000000000000000000000000100000000000000000000000000000000000000000000000000000000000000000000000000000000000000000011100100001010001011000000000000000000000000000000000000000100000100000000000000000000000000000000000000000001000000000000000000000000000000000111000000000000000101000000000000000000000000000000000000000001000011110000011000000000000000000000000000000000000001000001000000000000000000100000000000000000000000010000000000010000000000000000000000000000000000000001010000100000000000000000000000000000001011000000000000010011100000000000011000000000000000000000000000000000000000000000010100000000000000000000000000000000001010000000000000000000000000000000000000010100001000000000000000000000000000001011010001110000100010010100000110000110000000000000000000000000000000000000000000000101000000000000000000000000000000000010100000000000000000000000000000000000000010000010001100000000000000000000000010110010000100000000101000100001100000000000000000000000000000000000000000000000000000100000000000000000000000000000000000010000000000000000000000000000000000000000000000000100100000000000000000000000001000101111000010001001010000000000000000000000000000000000000000000000000000000000000000000000000000000111000000000000000000000000000000000000000000000000000011100011100000110000000000000000000000001110001101000000000100111000000000000000000000000000000000000000000000000000000000000000000001100000100100000000000000000000000000000000000000000000000000000000000000000000000000000000000000000000000000000000000111010000011000000000000000000000000000000000011100000000000000000000000000000000011000011001000000000000000000000000000000000000000000000000000000000000100000000000000000000000000000000000000000000010001000101100000000000011000000000000000000000000000000000000000000000000000000000000011000010000000000000000000000000000000000000000000000000000000000001000000000000000000000000000000000000000000000000010100000000000000001001000000000000000000000000100000000000000000000000000000000001000001100000000000000000000000000000000000000000000000000000000000010000000000000000000000000000000000000000000001101010100000000000000001010000000000000000000000001000000000000000000000000000000000110101001000000000000000000000000000000000000000000000000000000000000000000000000000000000000000000000000000000000000000001000000000000000001000000000000000000000000010000000000000000000000000000000000100000110000000000000000000000000000000000000000000000000000000000000000000000000000000000000000000000000000000000000000011011000000000000000000000000000000000000000000000000000000000000000000000000000000000000000000000000000000000000000000000000000000000000000000000000000000000000000000000000000000000000000000000000000010100000000000000000000000000000000000000000000000000000000000000000000000000000000000000000000000000000000000000000000000000000000000010000000000000000000000000000000001100000000000000000000000000000010000000000000000000000000000000000000000000000000000000000000000000000000000000000000000000000000000000000000000000000000000000000001010000000000000000000000000000000011000000000000000000000000000000000000000000000000000000000000000000000000000000000000000000000000000000000000000000000000000000000000000000000000000000000000000000010100000000000000000000000000000000000000000000000000000000000000000000000000000000000000000000000000000000000000000000000000000000000000000000000000000000000000000000000000000000000000000000000000000010000000000000000000000000000000000000000000001100000000000000000000000000000000000000000000000000000000000000000000000000000000000000000000000000000000000000000000000000000000000000000000000000000000000000000000000000000000000000000000000000000011000000000000000010000000000000000000000000000000000000000000000000000000000000000000000000000000000000000000000000000000000000000000000000000000000000000000000000000000000000000000000000000000000000000000000000000001010000000000000000000000000000000000000000000000000000000000000000000000000000000000000000000000000000000000000000000000000000000000000000000000000000000000000000000000000000000000000000000000000000010100000000000000000000000000000000000000000000000000000000000000000000000000000000000000000000000000000000000000110000000000000000000000000000000000000000000000000000000000000000000000000000000000000010000000000000000000000000000000000000000000000000000000000000000000000000000000000000000000000000000000000000001100000000000000000000000000000000000000000000000000000000000000000000000000000000000000000000000000000000000000000000000010000000000000000000000000000000000000000000000000000000000000000000000000000000000000000000000000000000000000000000000000000000000000110000000000000000000000000000000000000000000000000000000000000001010000000000000000000000000000000000000000000000000000000000000000000000000000000000000000000000000000000000000000000000000000000000001010000000000000000000000000000000000000000000000000000000000000010100000000000000000000000000000000000000000000000000000000000000000000100000000000000000000000000000000000000011000000000000000000000001000000000000000000000000000000000000000000000000000000000000000010000000000000000000000000000000001100000000000000000000000000000000010100000000000000000000000000000000000001001000000001100000011000000000000000000000000000000000000000000000000000000000000000000000000000000000000000000000000000000011000000000000000000000000011000000101000000000000000000000000000000000000001100000000011000001001000000000000000000000000000000000000000000000000111000000000000110000000110000000000000000000000000000000000000000000000000000000110000000100011011000000000000000000000000000000000000000000000000010100000000000000000000000000000000000000000000000000000000000000001100000010010000000000000000000000000000000000000000000000000000000000000000000011100000000000000000000000000000000000000000000000000010000000000000000000000000000000000000000000000000000000000000000000000000011000000000000000000000000000000000000000000000000000000000000000000000010000000000000000000000000000000000000000000000000000000000000000000000000000000000000000000000000000000000000000000000000000000000000000000000000000000000000000000000000000000000000000000000000000000000000000000000000000000000000000000000000000000000000000000000000000000000000000000000110000000000000000000000000000000000000000000000000000000000000000000000000000000000000000000000000000000000000000000000000000000000000000000000000000000000000000000000000000000000000000000000000000010010000000000000000000000000000000000000000000000000000000000000000000000000000000000000000000000000000000000000000001000000000000000000000000000000000000000000000000000000000000000000000000000000000101000000000000000000000000000000000000000000000000000000000000000000000000000001110000000000000000000000000000000000101000000000000000000000000000000000000000000000000000000000000000000000000000000000100000000000000000000000000000000000000000000000000000000000000000000000000000000000000000000000000000000000000000000100000000000000000000000000000000000000000000000000000000000000000000000000000000000000000000000000000000000000000000000000000000000000001100110000000000000000000000000000000000000000000000000000000000000000000000000000000000000000001000000000000000000000000000000000000000000000000000000000000000000000000001110000000000000000000000000011001100000000000000000000000000000000000000000000000000000000000000000000000000000000000000000101000000000000000000000000000000000000000000000000000000001100000000000000000000000000000000000000001100000000000000000000000000000000000000000000000000000000000000000000000000000000000000000000000001010000110000000000000000000000000000000000000000000000000100100000000000000000000000000000000000000011000000000000100000000000000000000000000000000000000000000000000000000000000000000000000000000000001000010010000000000000000000000000000000000000000000000001010000000000000000000000000000000000000000000000000000010100000000000000000000000000000000000000000000000000000000000000000000000000000000000000000011000000000000000000000000000000000000000001000000001000000000000000000000000000000000000000000000000000000101000000000000000000000000000000000000000000000000000000000000000000000000000110000000000000000000000000000000000000000000000000000000101000000000000000000000000000000000000000000000000000000000000000100000000000000000000000000000000000000000000000000000000000000000000000000010010000000000000000000000000110000000000000000000000000000110000000000000000000000000000000000000000000000000000000000000000000000000000000011000000000000000000000000000000000000000000000001000000000100100000000000000000000000010100000000000000000000000000000000000000000000000000000000000001110000000000000000000000000000000000000000000000110000000000000000000000000000000000000000000000101000000000110000000000000000000000000010000000000000000000000000000000000000000000000000000000000000000000110000000000000000000000000000000000000000000000000000000000000000000000000000000000000000010010000000000000000000000000000000000000000000000000000000000000000000000000000000000000000000000000000000010010000000000000000000000000000000000000000000000000000000000000000000000000000000000000000011000000000000000000000000000000000000000000000000000000000000100000000000000000000000000000000000000000000101000000000000000000000000000000000000000000000000000000000000000000000000000000000000000000000000000000000000000000001001100000000000000000000000000000010100000000000000000000000000000000000000000000100000000000000000000000000000000000000000000000000000000000000000000000110000000000000000000000000000000000000000000010000100000000000000000000000000001101000000000000000000000000000000000000000011000000000000000000000000000000000000000000000000000000000000000000000000001110000000000000000000000000001100000000000000100000100000011000000000000000000010010000000000000000000000000000000000000000110000000000000000000000000000000000000000000000000000000000000000000000000000001000000000000000000000000100100000001100001100011000000110000000000000000001100000000000000000000000000000000000000000000000000000000000000000000000000000000000000000000000000000000000000000100000001100000000000000000000000000101000000101100100000001000000000000000000000000001000100000000000000000000000000000000000000000101000000110000000000000000000000000100000000000000000000000000000010000001001000000000000000000000000000100000011010001010000100000000000000000000000000010000000000000000000000000000000000000000000000001000001100000000000000000000000001000000000000000000000000000001100000011000000000000000000000000000000000000011000100100000000000000000000000000000000000100111000000000000000000000000000000000011000100000000000000000000000000000000010000000000000000000000000000001100001110111000000000000000000000000000000000000001010000000000000000000000000000000000000001110000000000000000000000000000000001000110000000000100000000000000000000000000000000000000000000000000000001000011000010000000000000000000000000000000000000010000011000000000000000000000110110000000000000000000000000000000000000000000010000000000000010100000000000000000000000000000000011000011000001100000000001000010100000000000000000000000000000000000000000001111000000000000000110001101000000000000000000000000000000001100000000000111000000000001001000000000000000000000000000000000110000011000110000000000000000000000000000000000000110000000000000000000001101111000000000000010100000110000000000000000000000000000000011000000000000000000000000001100000000000000000000000000000000000000100101010100100000000000000000000000000000000010010000000000000001000000100011000000000001100000000000000000000000000000000000000000000000000000000000000000000000000000000000000000000000000000000000001110110110111000000000000000000000000000000000100100110001100000101001001000011000000000000000000000000000000000000000000000000000000000000000000000000000000000000000000000000000000000000000000000000001010101010100000000000000000000000000000000000110001100100100001010000010001100000000000000000000000000000000000000000000000000000000000000000000000000000000000000000000000000000000000000000000000000001110001110000000000000000000000000000000000000000000000101000001000011010000000000000001010000000000000000000000001000000000000000000000000000000000000000000000000000000000000000000000000000000000000000000000000000000000000000000000000000000000000000000000100000000000001100000000000000010100000000000000000000000101000000000000000000000000000000000000000000000000000000000000000000000000000000000000111000111000000000000000000000000000000000000000000000000000000000000000000000000000000000000000000000000000000001010000000000000000000000000000000000000000000000000000000000000000000000000000000000010101010110000000000000000000000000000000000000000000000000001100000000000000000000000000000000000000000000000000001000000000000000000000000000000000000000000000000000000000000000000000000000000000001110110110000000000000000000000000000000000000001000000000000011000000000000000000000000000000000000000000000000000000000000000000000000000000000000000000000000000000000000110000000000000000000000000010010101010000000000000000000000000000000000000010000000000000000000000000000000000011011000000000000000000000000000000000000000000000000000000000010000000000000000000000001100000000000000000000000000000110001100000000000000000000000000000000000000100000000000000000000000000001010000010110000000000000000000000000000000000000000000000000000000000100000000000000000000000000000000000000000000000000000011000000000000000000000011000000000000000000000000000000000000000000000000100100000100111000000000000000000000000000000000000000000000000000000001000000000000000000000000000000000000000000000000000000000000011010000000000001001000000001100000000000000000000000000000000000000000101101100010000000000000000000000000000000000000000000000000000000000000000000000000000000000000000000000000000000000000000000000001011000000000010010000000101000000000000000000000000000000000000000000100010000100000000000000000000000000000000000000000000000000000000000000000000000000000000000000000000000000000000000000000000000000000000000000011000000000100000000000000000000000100110000000000001001101000000000000000000000000000000000000000000000000000000000000000000000000000000000000000000001100000000000000000000000000000000000000000000000000000000000000000000000000000000000000000000000000000000100000000000000000000000000000000000000000000000000000000000000000000000000000000110000000000100100000000000000000000000000000000000000000000000000000000000000000000100000000000010001000000000000000000000000000000000000000000000000000000000000000000000000000000000000000000000000001100000000000110000000000000000000000000000000000000000000000000000000000000000000010100000000000000010000000000000000000000000000000000000000000000000000000000000000000000000000000000000000000000000000000000000000000000000000000000000000000000000000000000000000000000000000000000001010000000000000101000000000000000000000000000000000000000000000000000000000000000000000000000000000000000000000000000000000000000000000000000000000000000000000000000000000000000000000000000000000000101000000000000000000000000000000000000000000000000000000000000000000000000000000000000000000000000000000000000000000000000000000000000000000000000000000000000000000000000000000000000000000000000000000100000000000000011100000000000000000000000000000000000000000000000000000000000000000000000000000000010000000000000000000000000000000000000000000000000000000000000000000000000000000000000000000000000000000000000000000000000000000000001000000000000000000000000000000000000000000000000000000000000000000100000000000000000000000000000000000000000000000000000000000000000000000000000000000000000000000000000000000000000000000000000000000100000000000000000000000000000000000000000000000000000000000000000001000000000000000000000000000001000000000000000000000000000000000000000000000000000000000000000000000000000000000000000000000000000001100000000000000000000000000000000000000000000000000000000000000000000000000000000000000000000000101000000000000000000000000000000000000000000000000000000000000000000000000000000000000000000000000000001000000000000000000000000000000000000000000000000000000000000000000000000000000000000000000000001010000000000000000000000000000000000000000000000000000000000000000000000000000000000000000000000000000000000000000000000000000000000000001010000000000000000000000000000000000000000000000000000000000001000000000000000000000000000000000000000000000000000000000000000000000000000000000000000000000000000000000000000000000000000000000000000111100000000000000000000000000011100000000000000000000000000000000000000000000000000000000000000000000000000110000000000000000000000000000000000000000000000000000000000000000000000000000000000000000010011000000000000000000000000000000000000000000000000000000000000000000000000000011000000000000000000000000001100000000000000000000000000000000000000000000000000000000000000000000000000000000000000001110000000000000000000000000000000000000000000000000000000000000000000000000000000110000111000000000000000000000000000000000000000000000000000000000000000000000000000000000000000000000000000000000000000111000000000000000000000000000000000000110000000000000000000000011000000000000000000000000000000000000000000000000000000000000000000000000000000000000000000000000000000000000000000000000000000000000000000000000000000000000000000000000000001010000000000000000000000110000000000000000000000000000000000000000000000000000000000000000000000000000000000000000000000000000000000000000000000000000000000000000000000000000000000000000000000000000001100000000000000000000000000000000000000000000000000000000000000000000000000000000000000000000000000000000000000000000000000000000000000000000000000000000000000000000000000000000000000000000000000000000000000000000000000000000000000000000000000000000000000000000000000000000000000000000000000000000000000000000000000000000000000000000000000000000000000000000000000000000000000000