P1
200 200
0000000000000000000000000000000000000000000000000000000000000000000000000000000000000000000000000000000000000000110000000000000000000000000000000000000000000000000000000000000000000000000000000000000000000000000000000000000000000000000000000000000000000000000000000000000000000001100000010000000000000000001000001110000000000000000000000000000000000000000001010000000000000000000000001110000000000000000000000000000000000000000000000000010000000000000000000000000000000000000000000000000100000000000000001100000011100000000000000000000000000000001000000000000000000110000000000111000001000000100000000000000000000000000000000000000000000100000000000000000000000000000000000000000000000111001110000000000011000000000000000000000000000000000000000000000000100001000000000000000001110000000000010000000000000000000000000000000000000000000000000010000000000000000000000000000000000000000001100011100000000000000000000000000000000000000000000000000000101000001000011100000000000000110000000000001110000000011100000000000000000000011100000000000001110000000000000000000001000000000000001000000000001000000000000000000000000000000000000000000000000000000000000010000111000000000000000000000000000110010000000111000000000000000000000011000000000000001000000000000000000000000000000000000110000000000000000000000000000000000000000110000000001000000000000000000000000000010000000000000000000000000001100100000000100000000000000000000000110000000000000110000000000000000000000000000000000000000000000000000000000000000000000000000001110000000100000000000000000000000000000000000000001100000000000000000001000000000000000000000000000000000000000000000000000000000000000000000000000000000000000000000000000000000000000000000000000000101000000000000000000000000000000000000000000000000011000000000000000000000000000000000000000000000000000000000000000000000000000000001000000000000000000000000000000000000000000000000001000000000000000000000000000000000000000000000000000000000000000000000000000000000000000000000000000000000000000000000000000000000000000000000000011100000000000000000000000000000000000000000000000000000000000000000000000000000000000000000000000000000000000000000000000000000000000000000000000000000110000000000000000000000000000000000000000000000011000000010000000000000000000000000000000000000000000000000000000000000000000000000000000000000000000000000000001100000000000000000000000000000000000001110000000000000000000110000000000101000000000000000000000100000000000000000000000000000000000000000000000000000000000000000000000000000000000000000000000000000000000000011000000000000000000000000000000000000000000000000000000000000000000000000000000000000000000000000000000000000000000000000000000000000000000000000000000000000000000000000000000000000000000000000000000000000000000000000000000000000000000000000000000000000000000000000000000000000000000000000000000000000000000000000000000000000110000000000000000000000000000000000000000000000000000000000000000000000000000000000000000000000000000000000000000000000000000000000000000000000000100000000001110000000000000000000000010000000000000000000000000000000000000000000000000000000000000000000000000000000000000000000000000000000000000000000001010000000000000000000000000000000000000000001000000000011100000000000000000000011000000000000000000000000000000000000000000000011000000000000000000000000000000000000000000000000001000011000000000000000000000000000000000000000000000000000000000000000000000110000000000000000000000001000000000000000000000000000000000000001000000000000000000000000000000000000000000000000000010000000000001000000000000000000000000000000000000000000000010000000000000000000000000000000000000000000000000000000000000001000000000000000000000010000000000000000000000000000000000000000000000000001110000000000011110000000000000000000000000011000000000000000000000000000000000000000000000000000000000000000000000000000000010000000000000000000000000000000000000000000000000000000000000000000000000001010000000000011011000000000000000000000000000000000000000000000000000000000000000000000000000000000000000000000000000000000000000000000000000000000000000000000000000000000000000000000000000000000000000000110000000001000000000000000000000000000000000000000000000000000000000000000000000000000000000000001000000000000000000000000000000000000000000000000000000000000000000000000000010000000000000000000000000000000000000000000000000000000000000000000000000000010000000000000000000000000000000000000000000000000000000000000000000000000000000000000000000010000110000000000000000000000011000000000011100010101100000000000000000000000000000000000000000011100000000000000000000000000000000000000000000000000000000000000000000000000000000000000000000000000000000000000000000000000000000000000000000000110000110100000000000000000000000000000000000010000000011000000000000011000000000000000000000000000000000000000000000000000000000000000000000000000000000000100000101000000000000000000000000000000000101110000011000000000000000000000000000000000001000000001100000000000001110000000000000000000000000000000000000000000000000100000000000000000000000000000000000000000000000000000010000000000000000000011100010000000000000000000000000000000000000000000000000110000000000000001000000000100110000010100000000000000000000000000000000000000000000000000000000000000000000010000000000000000001000000000000000111000100000000000000000000000000110000000000000000000000000000000000000000000000001011100000000000000000000000000000000000010100000000000000000000000000000000000000000000000000000000010000000000000000000001000000000000000000000000101000000000000000000001000000000000000000000000000000110000000000000000000000000001000000010110000000000000000000000000000000000000001000000000000000000110000000000000000000000000000000000000000000000000000000000000000000101000000000000110000000000000000000000000000000000000000000010000001100000000000000010000000000000011000000000000001000000000000000000000000000000000000000000000000000000000000000000000000000000000000111000010000000100000000000000000000000000000000000000000011100000000000000000000000000000000000000100000000000100000000000000000000000000000000000000000001000000000000000000000000000000000000000000000100000100000000000000000001000000000000000000000000000000000000000000000000000000000000000000000001000000000000000000000000010000100000100000000000000000111000000000000000000000000000000000000000000000000000000000000000000001101000000000000000000000000000000000000000000000000000000000000000000000000000000000000000000000000011001100001100000000000000000000000000000000000000000000000010000000000000000000000000000000000000011100000000000000000000000000100000000000000000000000000000000100000000000000000000000000000000000001100001000011000000000000000000000000000000000000000000000000100000000000000000000000000000000000000000000000000000000000001000000100000000000000000000111000000110001000000000000000000000000000000100000000000000000100000000000000000000000000000000000000000000001110100000000000000000000000000000000000000000000000000000000000000000000000000000000000001000000000010110000000000000000000000000000000000000000000000111000000000000000000000000000000000000000000000000000000000000000010000000000000000000000000000000000000000000000000000000000000000000000000000000001101100000000000000000000000000000000000000100000011100000000000000000000000000000000000000000000000000000000000000000100000000000000000000000011000000000000000000000111000000000000000000000000000000010000000000000000001100000000000000000000000100000100100000000000000110000010000000000000000000000100000000000000000000000000000000000000000000110000000000000000000000000000000000000000000000000001000000000000000000000000000000000000000000000001100000001100000000000000000001010000000000000000000000000000000000000000000000000000000000000000000000000000000000001100000000000000000000000000000000000000000000000000000000000000000000000000000000110000000000000000000000000000010100001000000000000000000000000000000000000000000000000000000000000000000000100000000000000000000000000000000000000000000000000000000000000000000000000000000000000000001000000000000000000011000000000000000001100000000000000000000000000000000000000000000000000100000000000000000000000000000000000000000000000000000000000000000000000000000000010000000000000000000000000000000000000000000001110000000001000000000000000111000000000000000000000000000000000000000001100000000000000000000000000000000000000000000000000000000000000000000000000000001100000000000000000000000000000000001000000000110100000000000000000000000001110000000000000000000000000000000000011000001100000000000000000000000000000000000000000000000000000001110000000011000000000011000000000000010000000000000000000000000000001110000000000100000000000011001100000000000000000000010000000000000110000001000000000000000000000000000000000000000000000000000000000000000000000000000000000000000000000000000000000000000000000000000000000000000000000000000000110000000000000000000000000010001000000000000000010000000000000000000000000000000000000000000000000000000000000000000000000000000000000000000000000000000000000000000000010000000000000000000000000000000000000000000000000000000000111100000000000000000100000000000000000000000000000000000000000000000001000000000000000000000000000000000000100000000000000000001000000000000100000000000000000000000000000000000000000000000000000000000011000000000000000011000000011010000000000000000000000000000000000000000000000000000000000000000000000000001000000000000000001101000000000000000000000000000000000000000000001100000000001000000000000000000000000000000000100000000111000000000000000000000000000000000000000000000000000000000000000000000000000000000000000000000000001000000000000000000000000000000000000000000000000000000000000000000000000000000000000000000000000000010000000000000000000000000000000000000000000001110001000000000000000100000000000000000000000000000000000000000000000000100000000000000000001000000000000000000000000000000011100000000000000000000000001100000000000000000000000000000000000000000000000000000000000000000001000000000000000000000000000000000000000000000000001000000000000000000000000000000000000000000000000000110110000000000000000000000011000000000000000000000000000001000000000000000000000010000000000000011100000000000000000000000000000000000000000000000000000000000000000000000000000000000000000000000000000000100000000000000000000001100000000010000000000000000100001000000000000000000000100000000110000000000000000000001110000000000000000000000000000000000000000000000000000000000000000000000000000000000000100000000000000000000110000100000001100000000000000000000100000000000000000000000000010001000000000000000000000101100000000000000000000000000000000000000000000000000000000000000000000000000000000000001010000000000010000000100001000000000000000000000000000110000000001000000000000000000100000000000000000000000000101000000000000000000000000000000000000000001000000000000000000000000000000000000000000001100000000000000000000000000000000000000000000000000001100000000010000000000000010000000000000000000000000000000000000000000000000000000000000000000000000011000000000000000000000000000000000010000000000000000000000000000000000000000000000000001000000000011000000000000000010000000100000000000000000000000000000000000000011000000000000000000000000000000000110000000000000000000000000000000000000000000000000000000000000000000000011000000000000000000000000000000000000000000110000001000000000000000000000000000000000000001110000000000000000000000000000000011000000000000000000000000000000000000000000000000000000000001100001000000110000000000000000000000000000000000000000001100000000000000000000000000010000000000000000011000000000000000000000000000000000110000000000000000000000000000000000000000000000000000000000010000111000000000000000000000000000000000000000111000001000001000000000000000000000000100000000101000000100000000000000000000000000000000000000010000000000000000011000000000000000000000000000000000000000000001000000000000000000000000000000000000001101100011000000000000000000000000000001100000001000000010000000000000000000000000000000000000001010000000000000000110000000000000000000000000000000000000000000000000000000000000000000000000000000000000111000010010100000000000000000000000000000000010000000000000000110000000000000000000000000001110000000000000000001100000000000000000000001000000000000000010000000000000000000000000000000000000000000000100000000000000000000000000000000001110000000000000010000000000000000001000000000000000000011000000110000000000011000000000000000000000010000000000000001100000000000000000000000000000000000000000000000000000000000000000000000000001100011000000010000001110000000000000000010000000000000000000000000010100000000000000000000000000000000000111000000000000011000000000000000000000000000000000000000000000000000000000001000000000000000011000000000000000000011100000000000000000000000000000010000000000000000000000000000000000000000000000000000000000000000000000000000000000001000000011100000000000000000000000000000000011100000000000000000000000000000000000000000000000000000000000000000000000000000000000000000000000000000000000010000000000000010000000000000000000000000000000000000110000100000000101000000000000000000000000000000000000000000000000000000000000000000000000000000100000000000000010000000000000000010000001000000000000000000000000000000000000000000000000000000000000110000000000000000100000000000000000000000000000000000000000000000000000000000000000000000000000000100000000000000100000000000000000000000010000000010000000000000000000000000000000000000000000000000000010000000000000000000000000000000000000000000000000000000000000000000000000000000000000000000000000000000000000000000000000000000000000000000000000010000000000000000000000000100000000000000000000000000100000000000000000000000000000000000000000001000000000000000000000000000000000000000000000000000000000000000000000000000000000000000000000000000000100000000000000000000000101000100000000000000000000000000000000000000000000000000000000000000000000000000000000000000000000000000000000000000000000000000000000000000000000000000000001110000000000000000000000110000000000000000000001000000000000000000000000000000000000000000000000010000000000000000011000000000000000000000000000000000000000000000000000000000101000000000000000000000010000000000000000000000000000000000000000000001100000000000100000000000000000011000001000000000011100000000000000000100000000000000000000000000000000000000000000000000000000001010000000000001100000000000000000000000000000000000000000000000000000000000000000000000000000000000001100000000000000000000000000000000000000000000000000000000000000000000000000000000000000000000000000000000000000000000000000000000001100000000000000000000000000000000000000000000000000001000000000000001100000000000000000000000000000000000000000000000000000000000000000000000000000000000000000000000000000000000000000000010000000000000000000000000000000000000000000000000000000000000000010000000000000000000000000000000000000000001100000000000000000000000000000001100000000000000000000000000000000000000000000000000000000000000000000000000001000000000000000000000000000000010100000000000000000000000000000000000000000000000000000111000000000000000000000000000000001100010000000000001000000000000000000000000000000000000000000000000000000000010000000000000000000000000000000101000000000000000000000000000000000000000000000000000000000000000000000000000000000000000000000000000000000010000000110000000000000000000000100000000000000000000000010000000001000000010000000000000110000000000000000000000000000000000000000000000000000000000000000000000000001010000000000000000000000000000000000000001100000001000000000000001000000000000000000000000000000000010000000000000000000011100000000000000010000000000000000000000000000000000000000000000000000000000011000000000000000000000001110000000000000000010000101000000000000000000000000000000000000000000000000000000000000000000110011000000000000000000000000000000000000100000000000000000000000000000000000000000010000000000000000000000101010000000000000000000100000000000000000000000000000000000000000000000000000000000000000000000000000000000000000000000000000000000010000000000000000000000000000000000000000000100000000000000000000001000000000000000000000000000000000000000000000000000000000000000000000000000000000000000000000000000000000000000000000000001000000000111000000000000000000000000000000000000000000000000000000000100000000100000000000100000000000000000000000000000000000000000000000000000000000000000000000000000000000000000000000000000000000010000000000000000000000000000000000000000000000000000000000000000000000000000000000000000000000000100000000000000000000000000000000000000000000000000000000000000000000000000000000001110000000000000000000000000000000001000000000000000000000000000000000000000000000000000000000000000000000000000000110110000000000000000000000000000000000000000000000000000000000000000000000010000000000000111000000000000000111000000000110000000000000000000100000000000000000000000110000000000000000000000001100000001000100000000000000000000000000000000000000000000000000000000000000000010000000000000000000010000000000000011100000000000000000000000000000000000000000000000000000000000000000000000000000000000100000011101000000000000000000000000000000000000000000000000000000010000000000000001100000000000101000000000000000111000000000000000000000000000000000000010000000000000000000000000000000000000000000000000100000000000000000000000000000000000000000000001000000001110000100000000000000000000000000000000000000000000000000000010000000000000000000000000000000000000000000000000000000000000000000000000000000001000000000000000000000000000000000000000000000010000000011100000000000000000000000000000000000000000000000000000000000110000000000000000000000000000000000000000000000000000000000000000000000001010000010000000000000000000000000000000000000000000011100000000000010000000001100000000000000000000000000000000000000000000001000000000000000000000000000000000000000000000000000000000000000000000000001010000000000000000000011000000000000000000000000000000000000000000000000000000000000000000001110000000000001000000000000000001000000000000000000000000000000000000000000000000000000000000000000000000110000000000000000001010001010000000000101000000000000000000001000000001010000000000000110000000000000000000000000000000000000000000000000000000000000000000000000000000000000000000000000000000000000000000000000110000000001000001100000000000000000000000000000000010000000010000000000000001100000000000000000000100000000000000000000000000000000100000000000000000000000000000000000000000000000000000000000000001000010000000010000001000000000000000000010000001000000011000000100000000000000010000000000000000000000000000000000100000000000011000001000000000000000000000000000000000000000000000001000000000000000010000100000000000000000000000000000000000100000010000000110000000000000000000000000000000000000000000000000000000111000000000000000000000000000000000000000000100000000000000000010000100000000000000000000000000000000000000000000000000000000000000000000000000000000000000000000000001001000000000000000000000000000000000011000000000000000000000000000000000000001100000000000000001011001000000000000000000000000000000000000000000000010000000000000000000010000000000000000000000000000011100000000000000000000000000000000000000000000000000000000000000000000000000001100000000000000000100000000000000000000000000000000000000000000000000100000000000000000000110000000000000000000000000000110000000000000000000000000000000000000000000000000000000000000000000000110000000000000000000000000000000000000000000000000000000000000000000000000100000000000100000000011000000000000000000000000000000000010000000000000000000000000010000000000000000000000000000000000000000000000000000000000000000000000000000000000000001000000000000000000000000000000000000000000000000000000000000000000000000001000000000000000000000000000000000000000000000000000000000000000000000000000000000000000010000000000100000000000000000000000010000000000000000101000000000110000000000000000000000000000000000000000000000011100000000000000000000000000000010000000000000000000000000000000000000000000000000000100000001101110000000000000000000001010000000000000000000000000010100000000000000000000000100000000000000000000000000000111000000000000000000000000000000000000000000000000000000000000000000000000000000000000111000000001000000000000000000000000000000000000100000000000000000000000000000000000000000000000000000000000000001110000000000000000000000011000000000000000000000001100000000000000000000000000000000000100000000000000000000000000000000000000000000000000000000000000000000000000000000000000000000000000000010000000000010000000000000000000000000000000000000000000000011000000000000000000000000000000000000000000000101000000000000000000000000000000000000000000000000000000000000000000000000000000000000000000000000000000000000000000000000000000000000000000000000000000100000000000000000000000000000000000000000000000000000000000000000000000000000000000000000000000000000000000000000000000000000000000000000101000000000000100000000000000000000000000000000000000000000000100000000000000010000000000000000000000000000000100000000000000000000000000000000000100000000000000000000000000000000000000000000000000000000000000000001000000000000000000000000000000000000000000000001000000000000000000000000000000000000000000000000000000000000000000000000000000000000000000000000000000000000000000000000000000000000000000000000000001010000000000000000000000000001000000000000000000000000000000000000000000000000000000000000000000000000000000000000000000000000000000000000000000000000000000000000000000000000000000000010000000000000000000000000000000000000000000010000000000000000000000000000000000101000000000000000000000000000000000000000000000100011000000110000000000000000000000000000000000000000000000000000000000101000000000000000000000000000000000000000111000000000000000000000000000000000000000000000000000000000000000000000000000000000000000000000000000000000010000000000000000000000000000000000000000000011001000000000000000000000100000000000000000011000000000000000000000000000000000000000110000000000000000000000110000000000100000000000000101100000000100000000000000000000000000011000000000000000000000000000000000000000000000001000000000000000011010000000000000001110000000000000000000000000000000000000000000001110000000001000000000000000110100000001000010100000000100000110000110000000000000000000011000000000000000000000000110000000000000000110000000000000000011100000000000000000000000000000000000000000000011100100000000000000000000011000000000000000011000000000100001100000000000000000000000000000000000000000000000000000000000000000000001000000000000000000000000000000000000000000000000000000000001110000001111000000000000000000000000000000000000000010000000010000000000000000000000001000000000000000001100000000000000000000000000000000000000000000000000000000000010000000000000000000000000000000011100000011100000000000000000001000110000000000000000000000000000000000000000000000000010000000000000000011000000000000000000000001100000000000000000000000000000000000110000000000000000000000000000000010000000000000000100000000000000000000000000000000000000000000000000000000000000000000000000000001100000010000000000000000000000001000010000000000000000000000000000000100000000000000000000000000000000000000000000000000000000000000100000000001100110000000000000000000000000000000000000000000000000110000000000000000000000000000000000000010000000000000000000000000000001000000000000000000000000000000000000000000000000000000000000000000000000000001100000000000000000000001110000000000000000000000001110000000000000000000000000000000000001000000000000000100000000000000000000000000000000000001000000000000000000000000000000000000000000000000000000000000000000000000000000011100000000000000000000000010000000000000000000000000000000000000000000100000000001000000000000000000000000000000000000000000000000000000000000000000000000000000000000000000000000000000000000000000000011000000000000000000000000000000000000000000000000000000000000000000011100001000000000000000000000000000000000000100000000000000000000000000000000000000000000000000011000000000000000000000000000000000000000000000000000000000000000000000000000000000000000000000000000000111000000000000000000000000000000000000000001000000000000000000000000000000000000000010000000000000000000000000000000000000000000000000000000000000000000000000000000000000000000000000000000000000000001000000000000000000000000000000000000000000100000000000000000000000000000000000000011110000000000000000000000000000000000000000000000000010000000000000000000000000000000000000000000000000000000000001100000000000100000000000000000000000001000000000000110000000000000000000000000000000011100000000000000000000000000011000000000000000000001010000000000000000000000000000000000000000000000000000000000000100000000110000000000000000001000000000000000000001000000000000000000000000000000001100000000000000000000000000000000000000000000000000101000000000000000000000000000000000000000000000000000000000000000000000001000000000000000000001100000000000000000010000000000000000000000000000000000000000000001100000000000000000000000000000000000001100000000000000000000000000000000000000010100000000000000000000000000000000000000000000001000110000000000000000000000000000000000000000000000000000000000000000011000000001000000000000000000000000000100000000000000000000000000000000000001000000000000000000000000000000000010000000000000000000000000000000000000000000000000000010000000000000000000000000000000000000000000010000001110000000000000000000000000000000000000000000000000000000000000101000000000000000000000000000000000000000000000000000000000000000000000000000000000000000000000000000000000110000000000000000001000000000000000000000000000000000000000000001100000000000100000000000000000000000000000000000000000000000000010000000000011000000000000000001000000000000000000000000000000000000001110100000000000000111000000000100000000000000000000000000000000000000000010000000000000000000000000001000000000000000000000000000000000011000100000000000000000000000000000000000000000000000000000001000101000000000000000000000000000000000000000000000000000000000000000000000111000000000000000000000000011100000000000000000000000000000000000000010000000000000000000001000000000000000100000000000000010000110000000000000000000000000000000000000000000000000011000000000000000000010000000000000000000000000111000000000000000000000000000000000100001100000000000000000000010000000000000001000000000000000100000000000000000000000000000000000000000000000000000000000000000000000000001000000000000000000000000000000000000000000000000000000000000000000000000000000000000000010100000000000000000000000000000000000011000000000000000000000000000000000000000000000000001100000110000000000000000000000000000000001000000000000000000000000000000000011000000000001100000000000000000000000000000000000001100000000000000000000000000000000000000000000000000000000001000000110000000001100000000000000000000000000000000011000000000000000000000000011001000010100001000011000000000000000000000000000000000000010000000111000000000000000000000000000000000000000000000000010000000000000000001000000000000000000000000000000000000000000000000000000000000110000000000000110000111000000000000000000000000000000000000010000001110000000000000000000000000000001000000000000000000100000000000000001010000000000000000000000000000000000000000000000000001000000000000000000000001000000000000000000000000000000000000000000000000000011000000000000000000000000000000000000000000000000000000000000000000011100000000000000000000000000000000000000000000000000001000000000000000000000000000000001000000000000000000000001010000000000000000000000000000000000000000000000000000000000000000000000000000000000000000000000000000000000000000000000000000000000000000000000000000000000000110000000000000000000000000000000000000000110000000000000000000000000000000000000000000000000110000000000001000000000000000000000000000000000000100000000000000000000000010000000000000000000000000000010000000000000000000000000000000001000010000110000000000000000000000000000000000000000000000010100000000000011100000000000000000000000000000000010000000000000000000000000000010000000000000000000000000000000000001000000001100000000000000000000011000000000000000000000000000000000000000000000000111000000000000111000000000000000000000000000000000010000000000000000000000000000100000000000000000000000000000000000101000000000000000000000000000000000000010000000000000000000000000000000000000000000000000000000000000000000000000000100000000000000000000000000000000000011000000001000000000000000000000000000000000000100000000000000000000000000000000000000100000000000000000000000000000000000000000000000000000000000000000000010000001100000000000000000000000000000000000000000000000000000000000000000000000001010000000000000000000000000000000000000000000000000000000000000000000000000000000000000000000000000000000000000000000100000000000000000000000000001100000000000000000000000000000000000000000000000000010100000000000000000000000000000000000000000000000000000000000000000000000000000000000000000000000000000000000000000001000000000000000000000000000110110000000000000000000000000000000000000000000000000000000000000000000000000000000000000000000000000100000000000000000000000000000000000000000000000000011100000000000000000000000000000000000000011100101000000100000000000000000000000000000000000000000000000000000100000000000000000000000000000000000001100000000000000000000000000000000000000000000000000100000000000000000000000000000000000010000000000000000001000000000000000000000000000000000000000000000000000001000000000000000000000000000000000000001000000000000000000000000000000000000000011000000001000000000000000000000000000000000000000000000000100000110000000000000000000000000000000000000000000000000000000000000000000000000000000000000000000000000000000000000000000000000000000000000111100000000000000000000000000000000000000000000000000000001000000000000000000000000000000000000010000000000000000000000000000000000000000000001000000000000000000000000000110000000000000000000000000000000000000000000000000000000000000010000000000000000010000010000011000000000000000010100000010001000000000000000000000000000000000101000000000111000000000000000000000000001100000000000000000000000000000000000000000000000000000000000000100000000000000000100000000000000000000000000000010000000000010000000000000000000000000000000000110000000001100000000000000000000000000100000000000000000000000000000000010000000000000000000000000000001000010001000000000000000000000000000000000000001000000000001110000000000000000000000000000000011000000000000000000000000000000000000000000000000000000000000000000000000100000000000000000000000000000000001100001000000000000000000000000000000000000000000000000000000000000000000000000000000000000000000000000000000000000000000000000000000000000000000000000000000000000000000000000000000000000000000000000110000111000000000000000000000000000000000000000000000000000000000000001000000000000000000000000010000000000000000000000000000000000000000000000000000000010000000000000000000000000000000000000000000000000001100000000000000000000000000000000000110000000000000000000000000010000000000000000000000000000000000000000000000000000000000000010000000000000000011000000000000000000000000000000000000000000001000000000000000000001000000000000000000000000000000000000000000000000011000000000000000000000000000000001100000000000000000000000000000110000000000000000111000000000000000000000000000000000000000000110000000000000000000100000000000000000000000010100000000000000000000000100000000010000000000000000000000010100000000000000000000000000001000000000000000000000000000000000000000000000000000000000000000000000000000000000001000000000000000000000000000000000000000000000000001000000000000011000000000000000000111000000000000000000000000000011000000000000001100000000000000000000000000100000000000000000000000000000000000000000000000000000000000000000010000000000000000000000000000000110000000000000000000000000000000000000000111000000000000000000000000000000000000000000000000000000001000000000111000000000000000001110000000000000100000000011100000000000000000000000000010000000000000100000000000000000000000000000000000001100100000000000000000000000000000000000000000000000000000000000000000001100000000000000000011000000000000000000000000000000000000000000000000000000000000000000001000000000000000000000000000000000000001110000000000000000000000000000000000000000000000000000000001000000000000010000000011000000101000000000000000000000000000000000000000000000000000000000000000000000000000000000000000000000000000000000001000000000000000000000000000000000000000000000000000000000011100000000000010000000010000001110000000000000000000000000000000000000000000000000000000000000000000000000000000000000000000000000000000000000000000000000000000000000000000000000000000000000000000000111001100000000100000011100010000100000000000000000000000000000000000000000000000000000000000000000000000000000000000000011000000000000000000000000000000000000000000011111000000000000000000000000000000000011000000000000000000001100000000000000000000000000000000000000000000000000000000000000000000000000000000000000000001110000000000000100000000000000000000000000001101010000000000000000000000000100000000000000000000000000000000000000000000000000100000000000000000000000000000000000000000000000000000100000000000000000001000010001000000000000000000000000000000000000101000000100000000000000000001110000000000000000000000000000000000000000000000111000000000000000000000101000000010000000000000000000000000000000000000000000001100011000000000000000110000000000000000000010000001000000000000000000001100000000000000000000000000000000000000000000001100000000000000000000000100000001110000000000000000000000000000000000000000000000000111000000000100001000000000000000000000000000100000000000000000000000000000000000000000000111000000000000000000000000000000000000000000000010010000010100000000000000000000000110000000000000000000000000000000000011000010000000000000000000011100000000000000000011000000000000000001000000000001110000000000000000000000000000000000000000000000001110000110000000000000000000000000000000000000000000000000000000010000000000000000000000000000000000000010000000000001100000000000000000000000000000000000000000000000000000000000000000000000010000000011100001100000000000000000000000000000000000000000000000000000000101000000000000000000000000000000000000100000000000000000000000000000000000000000000000000000000000000000000000000000000000000100000000000000000100000000000000000000000000000000000000001000000000000001110000000000000000000000000000000000000000000000000000000000000000000000000000000000000000000000000000000000110000000000010000000000000000000000000000000000000000000000000000101000000011100000000000000000000000100000000000000000000000000000000000000000000000000000000000000000000000000000000000000000000000001100000000000000000000000000000000000000000000000000000000000000000010000001100000000000000000000000001000000000011000000000000000000000000000000000000000000000000000000000101110000000000000000000000000000000000000000010000000000000000000010000000000000000000000000100100000000010000000000000000000000000000000000110000000000000000000000000000000000000000000000000000000000000000000000000000000000000000000000000000000100000000000000000000000000000000000010000000111000000000000010000000000000000000000000000000000110000000000000000000000000000000000000000000000000000000000000000000000000000000000000000000000000000000000000000000000000000000000000100001110000000110000000000001100000000000000000000000000000000000000000000000000000000000000000000000000000000000000000000000000000000000000000000000000000000000000000000000000000000000000000000110000000001100000000000000000000011000000000000000000000101000000000000100000000000000000000000000000000000000000000000000000000000000000000000000000000000000000000000000110000000000000000000000000001100000000000000000000100000000000000000000000000000000000110000000000000000000000000000000000000000000000000000000000000001100000000001000000000000110000000000011100000000010000000000000000000000000011000000000000000000000000000001100000000000000000000000000100000000100000000000000000000010000000000000000000000110000000000000000000000000000000000100000000000100000000001000000000000000000000000000000000000000000000001110000000011000000000000000000000000000000000000000000000000000000000000000000000000000000000000000000000010000000000010000000000000000000000000000000000100000000000000000000000000000000000000000000011000000011010000000000000000000000000000000000000000000000000000000000000000000000000000000000000000000000000000000000000000000000000000000000000000000000000000010000000000000000111000000000000000001001000000111000000000000000000000000000000000000000000000000000000000000011000000000000000000000000000000010000000000000000000000000000000000000000000010001010001000000000000000000000000000000000000000000000000000000000000000000000000000010000001100000000000000000000000001110000000000000100000000000000010000000000000000000000000000000000000000000000101000000010000000000000000000000100000000000000000000000000000000000001000000000000000100000011000000000000000000000000000000001000000000000000000000000000001110000000000000000010000000000000000000000000000000000010000000000000000000000100000000000000000000000000000000000000000000000000000000000000000000000000000000000000000000000000000000000100000000000000001010000000000000000000000000000000000000000000000000000000000000001000000000000000000000000000000000000011100000000000000000000000000000000000000000000000000000000000000000001000000000000000000010000001000000000000000000000000110000000000000000000000000000000000000011000000000000000000000000000000000011111000000000000000000000000000000000000000000010000000000000000000000000000000010000000000000000000000000000000000000000000110000000000000000000000000000000000000110000000000000000000000000000000000110100000000000000000000000000000000000000000000100000000000000000000000000000000000000000000100000000000000000000000000000000000000000000000000000000000000000000000000000000000000000000000000000000000000100000000000000000100000000110000000000000000000000000000000000000000000000000000000000001000000000000000000000000000000000000000000000000000000000000000000000000000110000000000000000000000000000000000100000000000000001000000000000000000000000000000000000000000000011000000000000000000000010000000000000000000000000000000000000001000000011000001000011000000000000001100000000000000000000000000000000000000000000000000000000000010000001110000010000000000000000011000011000000000000000100000000000000000000000000000000000000000000000000000110000010000000000000100000000000000000000000000000000000000000000000000000000000000000000000000011100000000000000000000000110000000000000000000000000000000000110000000000000000000000010100000000000000000000100000000000001000000000000000000000000000000000000000000000000000000000000000000000011000110000000000000000000000000000000000000000000000000000000000001010000000000000000000000010000000000000000000000000000000000000000000000000000000000000000000000000000000000000000000000000110000000101100000000000000000000000000000011100000000000000000000000000000001100000000000000000000001000000001000000000000000000000000000000000000000000000100000000000000000000000000000000000000000000000000001000000000000000000000000000000000111000000000000000000000000000000000000000000000000000000000000000010000000000000000000000000000000000000000000000000000000000000000000000000000000000000000000000000000000000000000000000000000000000000000000000000