P1
200 200
0000000000000000000000000000000000000000000000000000000000000000000000000000000000000000000000000000000000000000100000000000000000000000000000000000000000000000000000000000000000000000010000000000000000000000000000000000000000000000000000000000000000000000000000000000000000000000000000000000000000000000010000010100000000000000000000000000000000000000000000000000000000000000000000001010000000000000011000000000000000000000000000000000000000000000000000000000000000000000000000000000000000000000000000001010000100100000000100000000000000000000000000000000000000000000000000000000000010100000000000000010000000000000000000000000000000000000000000000000000000000000000000000000000000000000000000000000000011000000110000000010100000000000000000000000000000100000100000000000000000000000010000100000000010000001100000000000000000000000000000000000000000000000000000000000000000000000000000000000000000000000000000000000000000101000000000000000000000000000001000010100000000000000000000000000001000000000110000011100000000000000000000000000000000000000000000000000000000000000000000011000000000000000000000000000000000000000000100000000000000000000000000000010000100100000000000000000000000000010000000000000110001000000000000000000000000000000000000000000000000000000000000000000000110000000000000000000000000000000000000000000000000000000000000000000000000000000110000000000000000000000000000000000000011001111001000000000000000000000000000000000000000000000000000000000000000000000000000000000000000000000000000000000001100000001100000000000000000000000000000000000000000001100000000000000000000000000001100000100000000000000000000000000000000000000000000000000000000000000000000000000000000000000000000000000000000000100100000100100000000000000000000000000000000000000000011000000000000000000000000001001011000000000000000000000000000000000000000000000000000000000000000000000000000000000000000000000000000000000000000110000000110000000000000000000000000000000000000000000000000000000000000000000000011100000000000000000000000000000000000000000000000000000000000000000000000000000000000000000000000000000000000000000000000000000000000000000000000000000000000000000000000000000000000000000000001100000000000000011000000000000000000000000000000000000000000000000000000000000000000000000000000000000000000000000000000000000000100000000000000000000000000000000000000000000000000000000000000000000011000000000000000110000000000000000000000000000000000000000000000000000000000000000000000000000000000000000000000000000000000000010100000000000000000000000000000000000000000000000000000000000000000000000000000100001000000000000000000000000000000000000000000000000000000000000000000000000011100000000000000000000000000000000000000101000000000000000000000000000000000000000000000000011000011000000000000000000010000100000000000000000000000000000000000000000000000000110000000000000000000000000000000000000000000000000000000000000000100000000000000000000000000000000000000000000000000001001001000000000011100001101100000000000000000000000000000000000000000000000000010010000000000000000000100000100000000000000000000000000000000000000000000000000000000000000000000000000000000000000001100010100000000001100100000100000000000000000000000000000000000000000000000000000101000000000000000000001000001000000000000000000000000000000000000000000000000000000000000000000000000000000000000000000000010000000000000000000000000000000000000000000000000000000000000000000000000000100000000000000000000010000010000000000000000000000000000000000000000000000000000000000000000000000000000000000000000000000000000000000110000000000000000000000000000000000000000000000000000000000000000000000000000000000000000000000000000000000000000000000000000000000000000000000000000000000000000000000000000000011000000000000000000010000100000000000000000000000000000000000000000000000000000000000000000000000000000000000000000000000000000000000000000000000000000000000000000000000000000000000000000000000000000110000000000000000001111110000000000000000000000000000000000000000000000000000000000000000000000000000000000000000000000000000000000000000000000000000000000000000000000000000000000000000000000000000000000000000011100000001011100000000000000000000000000000000000000000000000000000000000000000000000000000000000000000000000000000000000000000000000000000000000000000000000000000000000000000000000000000000000000000000000000110000000000000000000000000000000000000000000000000000000000000000000000000000000000000000000010000000000000000000000000000000000000000000000000000000000000000000000000000000000000000000000000000000101110000000000000000000000000000000000000000000000000000000000000000000000000000000000000000011011000000000000000000000000000000000000000000000000000000000111000000000000000000000000000000000000000111011100000000000000000000000000000000000000000000110000000000000000000000000000000000000000000010011000000000000000000000000000000000000000000000000000000001010000000000000000000000000000000000000010010000000000000000000000000000000000000000000000010010000000000000000000000000000000000000100000011100000000000000000000000000000000000000000000000000000000100100000000000000000000000000000000000000100011100000000000000000000000000000100000000000000100100000000000000000000000000000000000110000000010000000000000000000000000000000000000000000000000000000000110000000000000000000000000000000000000001111000000000000000000000000000000000000000000000000110000000000000000000000000000000000001110000000000000000000000000000000000000000000000000000000000000000000000000000000000000000000000000000000000000011000001000000000000000000000001100000000000000000000000000000000000000000000000000000001100000000000000000000000000000000000000001000000000000000000000000010000000001100000000000000000000000000000000000001101000000000000000000001100001100000000110000000000000000000000000000000000000000001100000000000000000000000000000000000000101000000000000000000000001000110000011000000000000000000000000000000000000010000000000000000000000010000100100000001100000000000000000000000000000000000000000001000000110000000000000000000000000000001010000000000000000000000100001011000000000000000000000000000000000000000000101100000000000000000000000001110000000000000000000011000000000000000000000000000000000000001100000000000000000000000000000001000000000000000000000001000010110000000000000000000000000000000000000000000000000000000000000000000000001100000000000000000001001000000000000000000000000000000000000000000000000000000000000000000000000000000000000000000000011000001100000000000000000000000000000000000000000101000000000010000000000000000000000000000000000000010100000000000000000000000000000000000000000000000011000000000000000000000000000000000000000000000000001000000000000000000000000000000000000000000000000000000001010000000000100000000000000000000000000010000000000000000000000000000000000000000000000001001000000000000000000000000000000000000000000000000100000000000000000000000001000000000000000000000101000000010010000000001110000000000000000000000000000000000000000000000000000000000000000000000000001100000000000000000000000000000000000000000000000011000000000000000000000000101000000000000000000000010000000011000000001011110000000000000000000000000000000000000000000000000000000000000000000000000000000001000000000000000000000000000000000000000000011000000000000000000000001010000000000000011000010100000000000000001100000010000000000000000000000000011000000000000000000000111000000000000000000000000001100000000000000000000000000000000000000100000000000000000000000000000001000000010000000010000110000000000000000010100111000000000000000000000000000110000000000000000000000000000000000000000000000000000100000000000000000000000000000000000010100000000000000000000000000000000000000100000000100011000000000000000000100011100000000000000000000000000000000000000000000000000000000000000000000000000000000000000000000000000000000000000000000000101000000000000000000000000000000000000001000000001000100000000000000000000100100000000000000000000010000000000000000000000000000000000000000000000000000000100000000000000000000000000000000000000000000100000000000000000000000000000000000000000000000000011100000000000000000000011000000000000000000001010000000000000000000000000000000000000000000000000000011100011000000000000000000000000000000000000000000000000000000000000000000000000000000000000000100011000000000000000000000000000000000000000000010010000000000000000000000000000000000000000000000000000111001111100000000000000000000000000000001100000001100000000000000000000000000000000000000000001000010000000000000000000000000001010000000011000011000000000000000000000000000000000000000000000000000000000100001000000000000000000000000000000100100000100100000000000000000000000000000000000000000001001000000000000000000000000000110100000000110000000000000000000000000000000000000000000000000000000000000000111110000000000000000000000000000000110000000110000000000000000000000000000000000000000000000000011000000000000000000000001101000000000000000000000000000000000000000000000000000000000000000000000000000110000000000000000000000000000000000000000000000000000000000011000000000000000000000000000000000110000000000000000000000000000000000000000000000000000000000000000000000000000000000000000000000000000000000000000000000000000000000000000000000000000000000000000001001000000000000000000000000000000000000000000000000100001000000000001110000000000000000000000000000000000000000000000000000000000000000000000000000000000000000000000000000000000001100000000000000000001100000000000000000000000000000000000000000000000110000101000000000000000000000000000000000000000000000000000000000000000000000000000000000000000000000000000000000000000000000000101000000000000000000000000000000000000000000000000000000000000000000000000110110101000010000010000000000000000000000000000000000000000000000000000000000000001110000000000000000000000000000000000000011000000000000000000000000000000000000000000000000000000000000000000000000011010001100000100000100000000000000000000000000000000000000000000000000000000000000000000000000000000000000000000000000001100000000000000000000000000000000000000000000000000000000000000000000000000000001100000000001000001000000000000000000000000000000000000000000000000000000000000000000000000000000000000000000000000000101101000000010100010000000000000000000000000000000000000000000000000000000000000010101000000000000000000000000000000000000000110000000000000000000000000000000000000000000000000000110000000000000000000110000000000100110111000000000000000000000000000000000000000000000000000000000000000000000000001110000000000000110000000000001100000000000000000000000000000000000000000000000000001100000000000000000000010001000011000011011000000000000000000000000000000000000000000000000000000000000010000000000000000000000000001100000000000000000000000000000000000000000000000000000000000000000000000000000000000000000001010000000000111100000000000000000000000000000000000000000000000000000000000000100000000000000000000000000000000000000000000000000000000000000000000000000000000000000010000000000000000000000000000000000000000001000110000000000000000000000000000000000000000000000000000000000000000000000000000000000000000000000000000000000000000000000000001000000000000000000000000000100000000000000000000000000000000000000000001000000000000000000000000000000000000000000000000000000000000000000000011000000000000000000000000110000011000000000000000000000100000000000000011000000000001000000000000000000000000000000000000000000000000000000000000000000000000000000000000000000000000000000000000000001101000000000000000001100010010000110000000000000000000000100000000000000101000000000000000000000000000000000000000000000000000000000000000000000000000000000000000000000000000000000000000000000000000010111111000000000000011000010100000000000000000000000000000000000000000000100000000000000000000000000000000000000000000000000000000000000000000000000000000000000000000000000000000000011000000000000001101000110000000000000000000010000000000000000000000000000000000000000000000000000000000000000000000000000000000000000000000000000000000000000000000000000000000000000000000000000000001001000000000000110000000000000000000000000000000000000000000000000000000001000000000000000000000000000000000000000000000000000000000000000000000000000000000000000000000000000000000000000000000000000010010000000000011101100000000000000000000000000000000000000000000000110000101000000000000000000000000000000000000000000000000001000000000000000000000000000000000000000000000000000000000000110000000000011000000000000111011000000000000000000000000000000000000000000000001100001011000000000000000000000000000000000000000001100000010000000000000000000000000000000000000000000000000000000000001100000000000000000000000001110010000000000000000000000000000000000000000000000000000001100000000000000000000000001100000000000000011000000100000000000000000000000000000000000000000000000000000000000000000000000000000000000000011101100000000000000000000000000000000000000000000000000111011100000000000000000000000100100000000000000000000000000000000000000000000000000000000000000000000000000000000000000000000000000000000000000011011000000000000000000000000000000000000000000000000001101011100000000000000000000000110000000000000000000000000000000000000000000000000000000000000000000000000000000000000000000000000000000000000000010100000000000000000000000000100000000000000000000010000011101000000000000000000000000000000000000000000000000000000000000000000000000000000000000000000000000000000000000000000000000000000000000000000010000000110000000000000000010100000000000000000000111111100010000000000000000000000000000000000000000000000000000000000000000000000000000000000000000000000000000000000000000000000000000000000000000000000000000010001000000000000101000000000000000000000110010011100000000000000000000000000000000000000000000000000000000000000000000000000000000000000000000000000000000000000000000110000000000000000000000000000100100110000000000000100000000000000000000000000101011000000000000000000000000000000000000000000000000000000000000000000000000000000000000000000000000000000000000000000010010000000000000000000000000000110000000000000000000000000000000000000000000110000000000000000000110000000000000000000000000000000000000000000000000000000000000000000000000000000000000000000000000000011000000000000000000000000000000000000000000000000000000000000000000000000001100100011000000000010010000000000000000000000000000000000000000010000000000000000000000000000000000000000000000000000000000000000000000000000000000000000000000000000000000000000000000000000000000000001011000111000000000011000000000000000000000000000000000000000001100010000000000000000000000000000000000000000000000000000000000000000000000000001110000000000000000000000000000000000000001100000000000001111110100000000000000000000000000000000000000000000000000000000100000010000000000000000000000000000000000000000000000000000000000000000000000000101000000000000000000000110000000011000010000000000000001011110000000000000000000000000000000000000000000000000000001111000111101100000000000000000000000000000000000000000000000000000000000000000000001101000000000000000000010010000001001000010000000000000000010000000000000000000000000000000000000000000000000000000010001011100011000000000000000000000000000000000000000000000000000000000000000000000011010000000000000000000011000000001010000000000000000001100000000000000000000000000000000000000000000000000000000000010010100101101000000000000000000000000000000000000000000000000000000000000000000000010000000000000000000000000000000001000011001000000000011000000000000000000000000000000000000000000001100000000000000000001011000111000000000000000000001000000000000000000000000000000000000000000000000011100000000000000000000000000000000000010000000000000000000000000000000000000000000000000000000000011000000000000001101100000001110000000000000000000101000000000000000000000000000000000000000000000000100000000000000000000000000000000000000011010000000000000000000000000000000000000000000000000000000000000000000000000111000011110100000000000000000000100000000000000000000000000000000000000000100000000010000000000000000000000000000000000000011000000001100000000000000000000000000000000000000000000000000000000000000000000000011001110000000000000000000000000000000000000000000000000000000011001100000000000000000000000000000000000000000000000010000000011000000000000000000000000000000000000000000000000000000000000000000000000100000000000000000000000000000000000000000000000000000000000001000011000000000000000000000000000000000000110000000000000000000000000000000000000000000000000000000000000000000000000000000000000000000000010000000000000000000000000000000000000000000000000000000000100011000001100010000000000000000000000000010010001100000000000000000000000000011000000000000000000000000000000000000000000000000000000000000100000000000000000000000000000000000000000000000000000000010000010000101111110000000000000000000000000100100100100000000000000000000000000110000000000000000000000000000000000000000000000000000000000001000000000000000000000000000000000000000000000000000000000100001110001111110110000000000000000000000000110000110000000000000000000000000000000000000000000000000000000000000000000000000000000000000000000000000000000000000000000000000000000000000000000000000000000000000000000111000000000000000000000000000000000000000000000000000000000000000000000000000000000000000000000000000000000000000000000000110000000000000000000000000000000000000000000000000000000000000000110000000010100000000000000000000000000000000000000000000000000000000110000000000000000000000000000000000000000000000000000000000000001100000000000000000000000000000000000001000000000000000000000000001010000000111000000000000000000000000000000000000000000000000000000010010000000000000000000000000000000000000000000000000000000000000000000000000000000000000000000000000000101000000000000000000000011100010000010010000000000000000000000000000000000000000000000000000000100100000000000000000000000000000000000000000000000000000000000000000000000000000000000000000000000000001010000000000000000000000011100100000100110000000000000000000000001110000000000000000000000000000110000000000000000000000000000000000000000000000000000000000000000000000000000000000000000000000000000001000000000000000000000000011100000000111000000000000000000000000000000000000000000000000000000000000000000000000000000000000000000000000000000000000000000000000000000000000000000000000000000000000000000000000000000000000000000000000000000100000000000000000000000000000000000000000000000000000000000000000000000000000000000000000000000000000000000000000000000000000000000000000000000000000000000000000000000000000000000000000000000000000000000000000000000000000000000000000000000000000000000001100000000000000000000000000000000000000000000011000110000000000000000000000000000000000000000000000000000000000000000000000000000000110001010000000000000000000000000000000000000000000000000000000000100100000000000000000000000000000000000000011101100001000000000000000000000000000000000000000000000000000011100000000000000000000000010100110001000000000000000000000000000000000000000000000000000000000110000000000000000000000000000000000000000000001001000100000000000000010010000000000000000000000000000000000000000000000000000000000100000100010001100000000000000000000000000000000000000000000000000000000000000000000000000000000000000000000000110000000000100000000000011110000000000000111000000000000000000000000000000000000000000001100000010101101100000000000000000000000000000000000000000000000000000000000000000000000000000000000000000000001110110101010000000000000000000100000000000000000000000000000000000000000000000000000000000000001110010001100000000000000000000000000000000000000000000000000000000000000000000000000000000000000000000110100000001000000001100001100110000000001000001000000000000000000000000000000000000000000000000011000110110000000000000000000000000000000000000000000000000000000000000000000000000000000000000000000000010000000000110010011000000000000000000010000010000000000000000000000000000000000000000000000110001000111000000000000000000000001000000000000000000000000000000000000000000000000000000000000000000000000000000000001100100000000000011000000000100000100000000000000000000000000000000000000000000010010000001110000000000000000000000101000000000000000100000000000000000000000000000001110000000000000000000000000000000000000000000000000011000000000000000000000000000000000000000000000000000000000000011000000000000000000000000000000001001000000000000011100000000000000000000000000000000000000000000000000000000000000000001110000000001001100000000000111000000000000000000000000000011001100000000000000000000000000000000000000000000000001100000000000000111000000000000000000000000000000000000000000000000000000000000000000000000000000000000000000000000000000000000000000000000000000000011100000000000000000000000000000000000000000000000000000000000000000000000000000000000000000000000000000000000000000000000000000000000000000000000000000000000000000000000000000000000000000000000011100000000000000000000000000000000000000010000000000000000000000000000111100000000000100000000000000000000000000000000000000000000000000000000000000000000000000000000000000000000000000000001000000000000000000000000000000000000000000000000000100000000000000000000000000001111000000000001000000000000000000000000000000000000000000000000000000000000000000000000000000000000000000000000000000101000001100000000000000000000000000000000000000000001000000000000000000000000000010000000000000010000000000000000000000000000000000000000000000000111000000000000000000000000000000000000000000000000000101000010000000000000000000000000000000000000000000000000000000000000000000000000011100000000000000000000000000000000000000000000000001000000000001010000000000000000000000000000000000000100000000000000011000000000000000000000000000000000000000000001110001110000000000000000000000001100100000000000011100000000000000000000000000000000010000000000011100000000000000000000000000000000000011100000000010000110000000000000000000000000000000000000000000000000000000000000000000000100000110000000000000000000000000000010000000000000000000000100000000000000000000000000000000000000000000000001010010000001001001110000000000000000000011000000000000000000000000000000000000000000000010100000101000000000000000000000000001010000000000000000000000000000011100000000011000000000000000000000000000100100100000100001001100000000000000110000110000000000000000000000000000000000000000000000101000000000000000000000000000000000010100000000000000000000000000001000100000000110000000110000000000000000001100111000000000001010000000000000001100000000000000000000000000000000000000000000000000000100000000000000000000000000000000000010000000000000000000000000000100000000000000000000010010000000000000000000001000000000000001000000000000011000000000000000000000000000000000000000000000000000000000000000000110000000000000000000000000000000000000000000000000000001000000111000011000000011000000000000000000000000000000001000000000000000000101000000000000000000000000000100000000000000000000000000000000000010100000000000000000000000000000000000000000000000000000010000011001000110000000000000000000000000000000000000000000010000000000000000010000000000000000000000000001000000000000000000000000000000000000101000010000000000000000000000000000000000000000000000000010000111100000000000000000000000000000000000000000000000000000000000000000001100011000000000000000000000010000000000000000000000000000000000001100000110000000000000000000000000000000000000000000000000011100000000000000000000000000000000000000000000000000000000000000000000000000001001000000000000000000000000000000000000000000000000000000000000000000110000000000000000000000000000000000000000000000000000000000000000000000000000000000000000000000000000000000000000011000000000000001010000000000000000000000011100000000000000000000000000111000000001110100000000000000000000000000000000000000000000000000000000000000000000000000000000000000000000000000000000000000001001000000000000001000000000000000000000000000000000000000000000000000001101000000011110000000000000000000000000000000000000000000000000000000000000000000000000000000000000000000000000000000000000000001010000000000000000000000000000000000000000000000000000000000000000000000110000000001000000000000000000000000000000000000000000000000000000000000000000000000000000000000000000000000000000000000000000001000000000000000000000000000000000000000000000000000000000000000000000000000100000000000000000000000000000000000000000000000000000000010000000000000000000000000000000001100000000000000000000000000000000000000000000000000000000000000000000000000000000000000000000000000000000010100000000000000000000000000000000000000000000000000000001010000000000000000000000000000000011000000000000000000000000000000000000000000000000000000000000000000000000000000000000000000000000000000000101000000000000000000000000000000000000000000000000000000010100000000000000000000000000000000000000000000000000000000000000000000000000000000000000000000000000000000000000000000000000000000000000000000100000000000000000000000000000000000000000000000000000000010000000000000000000000000000000000000000000001100000000000000000000000000000000000000000000000000000000000000000000000000000000000000000000000000000000000000000000000000000000000000000000000000000000000000000000000000000000000000000000000000000011000000000000000000000000000000000000000000000000000000000000000000000000000000000000000000000000000000000000000000000000000000000000000000000000000000000000000000000000000000000000000000000000000000000000000000000000000000000000000000000000000000000000000000000000000000000000000000000000000000000000000000000000000000000000000000000000000000000000000000000000000000000000000000000000000000000000000000000000000000000011000000000000000000000000000000000000000000000000000000000000000000000000000000000000000000000000000000000000110000000000000000000000000000000000000000000000000000000000000000000000000000000000000000110000000000000000000000000000000000000000000000000000000000000000000000000000000000000000000000000000000000001100000000000000000000000000000000000000000000000000000000000000000000000000000000000000000000000000000000000000000000000010000000000000000000000000000000000000000000000000000000000000000000000000000000000000000000000000000000000000000000000000000000000000110000000000000000000000000000000000000000000000000000000000000001010000000000000000000000000000000000000000000000000000000000000000000000000000000000000000000000000000000000000000000000000000000000001010000000000000000000000000000000000000000000000000000000000000010100000000000000000000000000000000000000000000000000000000000000000000000000000010000000000000000000000000000011000000000000000000000001000000000000000000000000000000000000000000000000000000000000000010000000000000000000000000000000001100000000000000000000000000000000000000000001110000000000000000000000000001001000000001100000011000000000000000000000000000000000000000000000000001000000000000000000000000000000000000000000000000000011000000000000000000000000011000000000000000010010000000000000000000000000001100000000011000001001000000000000000000000000000000000000000000000000010000000000000110000000110000000000000000000000000000000000000000000000000000000110000000000000001001000000000000000000000000000000000000000000000010100000000000000000000000000000000000000000000000000100000000000001100000010010000000000000000000000000000000000000000000000000000000000000000000000001100000000000000000000000000000000000000000000000010000000000000000000000000000000000000000000000000000000000000000000000000011000000000000000000000000000000000000000000000000000000000000000000000001001000000000000000000000000000000000000000000000000000000000000000000000000000000000000000000000000000000000000000000000000000000000000000000000000000000000000000000000000000000000000000000000000000001101010000000000000000000000000000000000000000000000000000000000000000000000000000000110000000000000000000000000000000000000000000000000000000000000000000000000000000000000000000000000000000000000010000011100000000000000000000000000000000000000000000000000000000000000000000000000000010010000000000000000000000000000000000000000000000000000000000000000000000000000010000000000000000000000000000000011010001000000000000000000000000000000000000000000000000000000000000000000000000000000101000000000000000000000000000000000000000000000000000000000000000000000000000000100000000000000000000000000000000110101100000000000000000000000000000000000000000000000000000000000000000000000000000000100000000000000000000000000000000000000000000000000000000000000000000000000000001000000000000000000000000000000000100000100000000000000000000000000000000000000000000000000000000000000000000000000000000000000000000000000000000010000000000000000000000000001100110000000000000000000000000000000000000000000000000000000100010000000000000000000000000000001000000000000000000000000000000000000000000000000000000000000000000000000000100000000000000000000000000011001100000000000000000000000000000000000000000000000000000000111000000000000000000000000000000101000000000000000000000000000000000000000000000000000000001100000000000000001000000000000000000000001100000000000000000000000000000000000000000000000000000000000000000000000000000000000000000000000001010000110000000000000000000000000000000000000000000000000100100000000000000000000000000000000000000011000000000000100000000000000000000000000000000000000000000000000000000000000000000000000000000000001000010010000000000000000000000000000000000000000000000001010000000000000000000000000000000000000000000000000000010100000000000000000000000000000000000000000000000000000000000000000000000000000000000000000011000000000000000000000000000000000000000001000000001000000000000000000000000000000000000000000000000000000101000000000000000000000000000000000000000000000000000000000000000000000000011000100000000000000000000000000000000000000000000000000000101000000000000000000000000000000000000000000000000000000000000000100000000000000000000000000000000000000000000000000000000000000000000000000001000100000000000000000000000110000000000000000000000000000110000000000000000000000000000000011100000000000000000000000000000000000000000000011000000000000000000000000000000000000000000000001000000000010001100000000000000000000010100000000000000000000000000000000000000000000000000000000000001010100000000000000000000000000000000000000000000110000000000000000000000000000000000000000000000101000000011111001101100000000000000000010000000000000000000000000000000000000000000000000000000000000010110101100000000000000000000000000000000000000000000000000000000000000000000000000000000000000010010000000010110011100100000000000000000000000000000000000000000000000000000000000000000000000000000000010001110000000000000000000000000000000000000000000000000000000000000000000000000000000000000000011000010000000111000101000000000000000000000000000000000000000000000000000000000000000000000000000000000000001000000000000000000000000000000000000000000000000000000000000000000000000010000000000000000000001100000000000000100000000000000000000000000000000000000000000000000000000000000000000000000000000000000000011000000000000000000000000000000000000000000000000000000000000000000000100000000000000000000110111110000000000000000000000000000000000000000000000000000000000000000000000000000000000000000000000000001110000000000000000000000000000000000000000000000000000100000000000000000000000000000000000000100000100000000000000000001100000011000000000000001100000000000000000000000000000000000000000000000000000010100000000000000000000000000000000000000000000000000110110000000000000001111000000000000000000110000000000000000000000011000000110000000000000100100000000000000000000000000000000000000000000000000000000000000000000000000000000000000000000000000000000000000000000000001110000001000000000000000000100000000001110000011100000000000000000000000000101000000000000000000000000000000000000001100000010110000000000000000000000000000000000000000000000000000010111011000000000000000010001000000000000000000000110000011100000000000000000000000000000000000100000000001000000000000000000000000000100010001010001101000000000000000000000000000011100000000000000001100111000000000110000000110000000000000000000000001100000110100011010001100000000000000000100000000000000101000000000000000000000000001100010000010011111001100000000000000000000000000000000000000000100100000000000001100000001000100000000000000000000010011000101100111000011000000000000000001000000000000001010000000000000000000000000101110010000011001100110110000000000000000000000000000000000000000110000000000000000000000011101000000000000000000001101010001000001000001100000000001000000010000000000000001000000000000000000000000001100000100000000000010100000000000000000000000000000000000000000000100000000000000000000000110100010000000000000000001000110100001010000110001100000101000000000000000000000000000000000000000000000000010100001000000110001101001000000000000000000000000000000000000000000000000001010000000000111001001010000000000110000001110010000010000000110010100110001000000000000000000000000000000000000000000000010001001000000011000001111100000000000000000000000000000000000000000000000001101010000000010101010001100000000010010000000101000010000000001001001001000010110000000000000000000000000000000000000000000100000010000000011000000000000000000000000000000000000000000000001100000010100000110000000100110010010000000000100100011111001010000000000001011010001000110010000000000000000000000000000000000000000000101100000000000000000000000000000000000000000000000000000000000100000000011010110110000001110000100000000000000110001011111000100000000000000111000001110100100000000000000000000000000000000000000000000110000000000000000000000000000000000000000000000000000000000001000000000011101011000000000110001000000000000000000010111100010000100000000000000000000001001000000000000000000000001000000000000000000000000000000000000000000000000000000000000000000000000000000000010000000000000111000000000001000100000000000000000000011110110100001010000000000000000000101100000000000000000000000101000000000000000000000000000000000000000000000000000000000000000000000000000000001100000000000000000000000000001010000000000000000000000011000000000011100000000000000000010100000000000000000000000001010000000000000000000000000000000000000000000000000000000000000000000000000000000000000000000000000000000000000001000000000000000000000000000000001100000000000000000000001001000000000000000000000000001000000000000000000000000000000000000000000000000000000000000000000000000000000000000000000000000000000000000000000000000000000000000000000000000011000000000000000000000001100000000000000000000000000000000000000000000000000000000000000000000000000000000000110000000000000000000000000000000000000000000000000000000000000000000000000111000000000000000000000000000000000000000000000000000000000000000000000000000000000000000000000000000000000000000000000000001100000000000000000000000000001000000110000000000000000000000000000000000000000000000000000000000000000000000000000000000000000000000000000000000000000000000000000000000000001110000000000000000000000000000000000000000000000000000010000001100000000000000011000000000000000000000000000000000000000000000000000000000000000000000000000000000000000000000000000000000000000000000000000000000000000000000000000000000000000000000000000000100000000000000000000001001000000001100000000000000000000000000000000000000000000000000000000000000000000000000000000000000000000000000000000000000000000000000000000000000000000000000000000000000000000000000000000000000000010010000000101000000000000000000000000000000000000000000000000000000000000000000000000000000000000000000000000000000000000000000000000000000000000000000000000000000000000000000000000000000000000000000011000000000100000000000000000000000000000000000000000000000000000000000000000000000000000000000000000000000000000000000000000000000000000000000000000001100000000000000000000000000000000000000000000000000000000000000000000000000000000000000000000000000000000000000000000000000000000000000000000000000000000000000000000000000000000000000000110000000000100100000000000000000000000000000000000000000000000000000000000000000000100000000000011100000000000000000000000000000000000000000000000000000000000000000000000000000000000000000000000000001100000000000110000000000000000000000000000000000000000000000000000000000000000000010100000000000100000000000000000000000000000000000000000000000000000000000000000000000000000000000000000000000000000000000000000000000000000000000000000000000000000000000000000000000000000000000000001010000000000000100000000000000000000000000000000000000000000000000000000000000000000000000000000000000000000000000000000000000000000000000000000000000000000000000000000000000000000000000000000000000101000000000000000000000000000000000000000000000000000000000000000000000000000000000000000000000000000000000000000000000000000000000000000000000000000000000000000000000000000000000000000000000000000000100000000000000000000000000000000000000000000000000000000000000000000000000000000000000000000000000000000000000000000000000000000000000000000000000000000000000000000000000000000000000000000000000000000000000000000000000000011000000000000000000000000000000000000000000000000000000000000000000000000001110000000000000000000000000000000000000000000000000000000000000000000000000000000000000000000000000000000000000000000000110011000000000000000000000000000000000000000000000000000000000000000000000000000000000000000000000000000000001000000000000000000000000000000000000000000000000000000000000000000000000000000000000000001111010000000000000000000000000000000000000000000000000000000000000000000000000000000000000000000000000000000101000000000000000000000000000000000000000000000000000000000000000000000000000000000000000000011100000000000000000000000000000000000000000000000000000000000000000000000000000000000000000000000000000001010000000000000000000000000000000000000000000000000000000000000000000000000000000000000000110011000000000000000000000000000000000000000000000000000000000000000000000000100000000000000000000000000000001000000000000000000000000000000000000000000000000000000000000000000000000000000000000000010011100000000000000000000000000000000000000000000000000000000000000000000000001000000000000000000000000000000000000000000000000000000000000000000000000000110000000000000000000000000000000000000000001110011000000000000000000000000000000000000000000000000000000000000000000000000010000000000000000000000000000000000000000000000011000001000000000000000000001100000000000000000000000000000000000000000001001000000000000000000000000000000000000000000000000000000000000000000000000000000000000000000000000000000000000000000000000000110000010000000000000000000000000000000000000000000000000000000000000000001110000000000000000000000000000000000000000000000000000000000000000000000000000000000110000000000000000000000011000000000000000000000100000000000000000000000000000000000000000000000000000000000000000001000000000000000000000000000000000000000000000000000000000000000000000000000000000001010000000000000000000000110000000000000000000000000000000000000000000000000000000000000000000000000000000000000000000000000000000000000000000000000000000000000000000000000000000000000000000000000000001100000000000000000000000000000000000000000000000000000000000000000000000000000000000000000000000000000000000000000000000000000000000000000000000000000000000000000000000000000000000000000000000000000000000000000000000000000000000000000000000000000000000000000000000000000000000000000000000000000000000000000000000000000000000000000000000000000000000000000000000000000000000000000