P1
200 200
0000000000000000000000000000000000000000000000000000000000000000000000000000000000000000000000000000000000000000100000000000000000000000000000000000000000000000000000000000000000000000010000000000000000000000000000000000000000000000000000000000000000000000000000000000000000000000000000000000000000000000010000010100000000000000000000000000000000000000000000000000000000000000000000001010000000000000011000000000000000000000000000000000000000000000000000000000000000000000000000000000000000000000000000001010000100100000000100000000000000000000000000000000000000000000000000000000000010100000000000000010000110000000000000000000000000000000000000000000000000000000000000000000000000000000000000000000000011000000110000000010100000000000000000000000000000000000100000000000000000000000010000000000000001000010010000000000000000000000000000000000000000000000000000000000000000000000000000000000000000000000000000000000000000101000000000000000000000000000011100010100000000000000000000000000011100000000101100001100000000000000000000000000000000000000000000000000000000000000000000011000000000000000000000000000000000000000000100000000000000000000000000000000000100100000000000000000000000000000000000001010110011000000000000000000000000000000000000000000000000000000000000000000000110000000000000000000000000000000000000000000000000000000000000000000000000000000110000000000000000000000000000000000000010000001000000000000000000000000000000000000000000000000000000000000000000000000000000000000000000000000000000000000001100000001100000000000000000000000000000000000000000001100000000000000000000000000100010001100000000000000000000000000000000000000000000000000000000000000000000000000000000000000000000000000000000000100100000100100000000000000000000000000000000000000000011000000000000000000000000001010100000000000000000000000000000000000000000000000000000000000000000000000000000000000000000000000000000000000000000110000000110000000000000000000000000000000000000000000000000000000000000000000000010101000000000000000000000000000000000000000000000000000000000000000000000000000000000000000000000000000000000000000000000000000000000000000000000000000000000000000000000000000000000000000000001100000100100000011000000000000000000000000000000000000000000000000000000000000000000000000000000000000000000000000000000000000000100000000000000000000000000000000000000000000000000000000000000000000011000000110000000110000000000000000000000000000000000000000000000000000000000000000000000100000000000000000000000000000000000000010100000000000000000000000000000000000000000000000000000000000000000000100000000000000000000000000000000000000000000000000000000000000000000000000000000000000001000000000000000000000000000000000000000101000000000000000000000000000000000000000000000000000000011000000000001101000000100000000000000000000000000000000000000000000000000000110000000000000000000000010000000000000000000000000000000000000000100000000000000000000000000000000000000000000000000000001001000000000110000000011100000000000000000000000000000000000000000000000000010010000000000000000000000000000000000000000000000000000000000000000000000000000000000000000000000000000000000000000000000010100000000001111100001001000000000000000000000000000000000000000000000000000101000000000000000000011100011100000000000000000000000000000000000000000000000000000000000000000000000000000000000000000000010000000000011100000011100000000000000000000000000000000000000000000000000000100000000000000000000000000000000000000000000000000000000000000000000000000000000000000000000000000000000000000000000000000000000000000000000000010000000000000000000000000000000000000000000000000000000000000000000000000000000000000000000000000000000000000000000000000000000000000000000000000000000000000000000000011000000000000000000000111000000000000000000000000000000000000000000000000000000000000000000000000000000000000000000000000000000000000000000000000000000000000000000000000000000000000000000000000000000110000000000100000000000001000000000000000000000000000000000000000000000000000000000000000000000000000000000000000100000000000000000000000000000000000000000000000000000000000000000000000000000000000000000000000001000000000010010000000000000000000000000000000000000000000000000000000000000000000000000000000000000001100000000000000000000000000000000000000000000000000000000001110000000000000000000000000000000000010000000000111000000000000000000000000000000000000000000000000000000000000000000000000000000000000001001110000000000000000000000000000000000000000000000000000000100010000000000000000000000000000000000000000000001110000000000000000000000000000000000000000000000000000000000000000000000000000000000000011110110000000000000000000000000000000000000000000000000000001000100000000000000000000000000000000000011100000000000000000000000000000000000000000000000000110000000000000000000000000000000000000000000101000110000000000000000000000000000000000000000000000000000100101000000000000000000000000000000000001011000000000000000000000000000000000000000000000000010010000000000000000000000000000000000000000000000000000000000000000000000000000000000000000000000000000001100100000000000000000000000000000000000110100000000000000000000000000000000000000000000000000100100000000000000000000000000000000000000000000010100000000000000000000000000000000000000000000000000000011101100000000000000000000000000000000000110100000000000000000000000000000000000000000000000000110000000000000000000000000000000000000000000000010000000000000000000000000000000000000000000000000000000000100100000000000000000000000000000000000101100000000000000000000000000000000000100000000000000000000000000000000000000000000000000000000000001000000000000000000000000000000001000000000000000000000001100110100001100000000000000000000000000000110000010000000000000000000000000000011100000000110000000000000000000000000000000000000000001100000011000000000000000000000000000000101000000000000000000000010010001000011000000000000000000000000000000000000111000000000000000000000000000110100000001100000000000000000000000000000000000000000011000000110000000000000000000000000000001010000000000000000000011100011000000000000000000000000000000000000000000000111000000000000000000000000011001100000000000000000011000000000000000000000000000000000000001100000000000000000000000000000001000000000000000000001101000000001000000000000000000000000000000000000000001100000000000000000000000000011110000000000000000001001000000000000000000000000000000000000000000000000000000000000000000000000000000000000000000001001100001100000000000000000000000000000000000000000111000000000010000000000000000111000000000000000000010100000000000000000000000000000000000000000000000011000000000000000000000000000000000000000000001111110000000000000000000000000000000000000000000001100100000001010000000011000000000000000000000000000010000000000000000000000000000000000000000000000001001000000000000000000000000000000000000000000000110100000000000000000000000001000000000000000000010001100000010010000011110110100000000000000000000000000000000000000000000000000000000000000000000000001100000000000000000000000000000000000000000000001100000000000000000000000000101000000000000000100100001000000011000001000101101000000000000000000000000000000000000000000000000001000000000000000000000000000111000000000000000000000000000000000000000001010000000000000000000000001010000000000000010100000100000000000000011100010001000000000000000000000000011000000000000000000000010000000000000000000000000001010000000000000000000000000000000000000100001100000000000000000000000001000000000000001000101110000000000000001000111100000000000000000000000000000110000000000000000000000100000000000000000000000000011100000000000000000000000000000000000010100000000000000000000000000000000000001110000001010000000000000000000001111111000000000000000000000000000000000000000000000000000000000000000000000000000110000000000000000000000000000000000000000000101000000000000000000000000000000000000000000000001000000000000000000000011011000000000000000000000010000000000000000000000000000000000000000000000000000010000100000000000000000000000000000000000000000100000000000000000000000000000000000000000000000000000000000000000000000000000000000000000000000001010000000000000000000000000000000000000000000000000000100000100000000000000000000000000000000000000000000000000000000000000000000000000000000000000000000000000000000000000000000000000000000000000000010010000000000000000000000000000000000000000000000000001000000100000000000000000000000000000000001100000001100000000000000000000000000000000000000000000000000000000000000000000000000000000000000011000011000000000000000000000000000000000000000000000000000001100111000000000000000000000000000000000100100000100100000000000000000000000000000000000000000000000000000000000000000000000000000000000000110000000000000000000000000000000000000000000000000000000000000000000000000000000000000000000000000000110000000110000000000000000000000000000000000000000000000000011000000000000000000000000000000000000000000000000000000000000000000000000000000000000000000000000000000000000000000000000000000000000000000000010000000000000000000011000000000000000000000000000000000110000000000000000000101000000000010000000000000000000000000000000000000000000000000000000000000000000000000000000000000000000000000000000000001010000000000000000001001000000000000000000000000000000000000000000000000000000001000000000100000000000000000000000000000000000000000000000000000000000000000000000000000000000000000000000000000000000000110000000000000000001100000000000000000000000000000000000000000000000001000000001000000001000000000000000000000000000000000000000000000000000000000000000000010000000000000000000000000000000000000011100000000000000000000000000000000000000000000000000000000000000000000000010000000010000000000000000000000000000000000000000000000000000000000000000000000000000100000000000000000000000000000000000011000000000000000000000000000000000000000000000000000000000000000000000000000100010011010001110001110000000000000000000000000000000000000000000000000000000000000001000000000000000000000000000000000011111000000000000000000000000000000000000000000000000000000000000000000000000000000101000100000000000000000000000000000000000000000000000000000000000000000000000000000000000000000000000000000000000000100100000000000000000011000000000000000000000000000000000000000000000000000000000000100010000000010000000000000000000000000000110000000000000000000000000000000000000000000000000000110000000000000000001010000000000000100000110000000000000000000000000000000000000000000000000000000000000000000000000100000000000000110000000000001100000000000000000000000000000000000000000000000000001100000000000000000001100000000000011000000010000000000000000000000000000000000000000000000000000000000000000000000001000000000000001100000000000000000000000000000000000000000000000000000000000000000000000000000000000000000000000000000011000011000000000000000000000000000000000000000000000000000000000000000000000000000000000000000000000000000000000000000000000000000000000000000000000000000000000000000000000000000000000000000000000000000000110000000000000000000000000000000000000000000000000000000000000010000000000000000000000000000000000000000000000000000000000000000000000000000000000001110000000000000000000000000000000000000000000000000000000000000000000000000000000000000000000000000000000000000000100011100000000000000000000110000011000000000000000000000000000000000000011000000000000000000000000000000000000000000000000000000000000000000000000000000000000000000000000000000000000000000000000000000000110100000000000001100010010000110000000000000000000000000000000000000101000000000000000000000000000000000000000000000000000000000000000000000000000000000000000000000000000000000000000000000000000000000101000000000000011000010100000000000000000000000000000000000000000000100000000000000000000000000000000000000000000000000000000000000000000000000000000000000000000000000000000000011000000000000000100000110000000000000000000010000000000000000000000000000110000000000000000000000000000000000000000000000000000000000000000000000000000000000000000000000000000000000000000000000000001001000000000000001001010000000000000000000000000000000000000000000000000001010000000000000000000000000000000000000000000000000000000000000000000000000000000000000000000000000000000000000000000000000010010000000000000010001100000000000000000000000000000000000000000000110000010000000000000000000000000000000000000000000000000000000000000000000000000000000000000000000000000000000000000000110000000000011000000000000000010010000000000000000000000000000000000000000000001100000000000000000000000000000000000000000000000001100000111000000000000000000000000000000000000000000000000000000000001100000000000000000000000000000101000000000000000000000000000000000000000000000000000000000000000000000000000000001100000000000000011000000000000000000000000000000000000000000000000000000000000000000000000000000000000000000000000010000000000000000000000000000000000000000000000000000011000000000000000000000000000100100000000000000000000000000000000000000000000000000000000000000000000000000000000000000000000000000000000000000011101100000000000000000000000000000000000000000000000101011000000000000000000000000000110000000000000000000000000000000000000000000000000000000000000000000000000000000000000000000000000000000000000000100010000000000000000000000000100000000000000000000010011111010000000000000000000000000000000000000000000000000000000000000000000000000000000000000000000000000000000000000000000000000000000000000000001111000001110000000000000000010100000000000000000000100000011001000000000000000000000000000000000000000000000000000000000000000000000000000000000000000000000000000000000000000000000000000000000000000000000000011010011000000000000101000000000000000000000110001000000000000000000000000000000000000000000000000000000000000000000000000000000000000000000000000000000000000000000000000110000000000000000000000000001000100110000000000000100000000000000000000000000011000001000000000000000000000000000000000000000000000000000000000000000000000000000000000000000000000000000000000000000010010000000000000000000000000001110000000000000000000000000000000000000000000011110000010000000000110000000000000000000000000000000000000000000000000000000000000000000000000000000000000000000000000000011000000000000000000001000000011100000000000000000000000000000000000000000000000011010000000000010010000000000000000000000000000000000000000111000000110000000000000000000000000000000000000000000000000000000000000000000000101100000000000000000000000000000000000000000000000000000000101000100000000011000000000000000000000000000000000000000000110000010001000000000000000000000000000000000000000000000000000000000000000000010001000000000000000000000000000000000000001100000000000000001000111000000000000000000000000000000000000000000000000000011010000100010000000000000000000000000000000000000000000000000000000000000000000000000000000000000000000000110000000011001100100000000000001010000000000000000000000000000000000000000000000000000000000011111101111010000000000000000000000000000000000000000000000000000000000000000000110000000000000000000000010010000001001000000100000000001111100000000000000000000000000000000000000000000000000000000000110011000001100000000000000000000000000000000000000000000000000000000000000000000000000000000000000000000011000000001010110110000000000011111000000000000000000000000000000000000000000000000000000001101001100000010000000000000000000000000000000000000000000000000000000000000000000000011100000000000000000000000000000001000000000000000000000000000000000000000000000000000000000000000001100000000000010011000100011000000000000000000000001000000000000000000000000000000000000000000000000000000000000000000000000000000000000000000000000000000000000000000000000000000000000000000000000000011000000000000000000000000100001000000000000000000101000000000000000000000000000000000000000100000000000000000000000000000000000000000000000001000000000000000000000000000000000000000000000000000000000000000000000000011001010000000101000000000000000000100000000000000000000000000000000000000010100000000000000000000000000000000000000000000000010000000001100000000000000000000000000000000000000000000000000000000000000000000000000000001000000000000000000000000000000000000000000000000000000110100100000000000000000000000000000000000000000000000100000000011000000000000000000000000000000000000000000000000000000000000000000000000000000100000000000000000000000000000000000000000000000000000011000001100000000000000000000000000000000000110000000000000000000000000000000000000000000000000000000000000000000000000000000000000000000011111110000000000000000000000000000000000000000000000000000001000011110000000000000000000000000000000000010010001100000000000000000000000000011000000000000000000000000000000000000000000000000000000000110001000000000000000000000000000000000000000000000000000000010000000000010000001000000000000000000000000100100100100000000000000000000000000110000000000000000000000000000000000000000000000000000000000000100000000000000000000000000000000000000000000000000000000110000100010010001010000000000000000000000000110000110000000000000000000000000000000000000000000000000000000000000000000000000000000000000010010000000000000000000000000000000000000000000000000000000000000001000101100100000000000000000000000000000000000000000000000000000000000000000000000000000000000000000000000000000000000000000000000000000000000000000000000000000000000000000000000000000000000000000010000001010011000000000000000000000000000000000000000000000000000000000110000000000000000000000000000000000000000000000000000000000000001100000000000000000000000000000000000001000000000000000000000000000000000000110000000000000000000000000000000000000000000000000000000010010000000000000000000000000000000000000000000000000000000000000000000000000000000000000000000000000000101000000000000000000000010010000000001100000000000000000000000000010000000000000000000000000000100100000000000000000000000000000000000000000000000000000000000000000000000000000000000000000000000000001010000000000000000000000000000110000000100000000000000000000000000100000000000000000000000000000110000000000000000000000000000000000000000000000000000000000000000000000000000000000000000000000000000001000000000000000000000000110001100000010100000000000000000000000001000000000000000000000000000000000000000000000000000000000000000000000000000000000000000000000000000000000000000000000000000000000000000000000000000000000000011000011000000111000000000000000000000000000000000000000000000000000000000000000000000000000000000000000000000000001000000000000000000000000000000000000000000000000000000000000000000000000000000000000011000111000111011000000000000000000000000000000000000000000000000001100000000000000000000000000000000000000000100001001000000000000000000000000000000000000000000000000000000100000000000000000000000010001001000111001100000000000000000000000000000000000000000000000000100100000000000000000000000000000000000000001111100001000000000000000000000000000000000000000000000000000001000000000000000000000001000111010000010000000000000000000000000000000000000000000000000000000110000000000000000000000000000000000000000000110000010000000000000000000000000000000001000000000000000000010000000000000000000000010010110100000100000000000000000000000000000000000000000000000000000000000000000000000000000000000000000000000000000001000010000000000000000000000000000000010000000000000000000000000000000000000000000100100011000000000010000000000000000000000000000000000000000000000000000000000000000000000000000000000000000000000000000011000000000000000000111000000000000100000000000000000000000000000000000000000000110000100010001001011000000000000000000000000000000000000000000000000000000000000000000000000000000000000000000000110000000000000001100000001100000000000000000000000000000000000000000000000000000000000000000101100010010100000000000000000000000000000000000000000000000000000000000000000000000000000000000000000001100000000000100000011000000001010000000111000111000000000000000000000000000000000000000000000000100001000010000000000000000000001000000000000000111000000000000000000000000000000010000000000000000000001010000000010000000000000000000100000000000000000000000000000000000000000000000000000000000000000000000000000000000000000000000101000000000000001000000000000000000000000000000000100000000000000000000001000000000100000000000000000000110000000001000000000000000000000000000000000000000000000000000000000000000000000000000000000001001000000000000100100000000000000000000000000000001000000000000000000000000000000000100000000000000000101000000000010000000000000000000000000000000000000000000000000000000000000000000000000000000000001100000000000010010000000000000000000000000000000000000000000000000000000000000000000000000000000000001100000000000100000000000000000000000000000000000000000000000000000000000000000000000000000000000000000000000000101000000000000000000000000000000000000000000000000000000000000000000000000000000000000000000000000000000000000000000000000000000000000000000000000000000000000000000000000000000000000000000000000000001000000000000000000000000000000000000000000000000000000000000000001110000000000000000000000000000000000000000000000000001010000000000000000000000000000000000000000000000001110000000000000000000000000000000000000000011100000000000000000000000000000000000000000000000000000000000000000000000000000000000000000000000000000000010001100000000000000000000000000000000000000000000000000000000000000000000000011100000000000000000000000000000000000000000000000000000000000001000010000000000000000000000000000000000010100000000000100100011000000000000000000000000000000000000000010000010000000000000000000000000010010000000000000100000000000000000000000000000000000000000001000000100000000000000000000000000000000000101000000000000001000000000000000000000000000000000000000000000100000100000000000000000000000010001000000000000001000000000000000000000000000000000111000000110000001000000000000000000000000000000000000110000000000001000000000000000000000000000000000000000000000001000001000000000000000000100001000000000000000000010000000000010000000000000000000000000000010001000000000000000000000000000000000000000000000000000000101000000000000000000000011000000000000000000000000000000000000000000000010100010010000000000000000000000000001010000000000000000000000000000001001110000011000000000000000000000000000110000000000000001010000000000000000110000110000000000000000000000000000000000000000000000101000011000000000000000000000000000010100000000000000000000000000110010000000000110000000110000000000000000010010011000000000010010000000000000001100000000000000000000000000000000000000000000000000000100000011011100000000000000000000000010000000000000000000000000010010110011000000000000010010000000000000000011000110000000000010100000000000011000000000000000000000000000000000000000000000000000000000000000011010100000000000000000000000000000000000000000000000001111101010000010011000000011000000000000000000000001100000000000111000000000000101000000000000000000000000000000000000000000000000000000000000001010001000100000000000000000000000000000000000000000000001001011100000100110000000000000000000000000000000000000000000000000000000000000010000000000000000000000000011100000000000000000000000000000000010001010011100000000000000000000000000000000000000000000001010000000001000000000000000000000000000000000000000000000000000000000000000001100011000000000000000000000000000000000000000000000000000000000101011000101000000000000000000000000000000000000000000000000110100000100000000000000000000000000000000000000000000000000000000000000000000001001000000000000000000000000100000000000000000000000000001000111000000101000000000000000000000000000000000000000000000000001110110000000000000000000000000000000000000000000000000000000011000000000000001010000000000000000000000001000000000000000000000000000101000000000000100000000000000000000000000000000000000000000000000000110000000000000000000000000000000000000000000000000000000001001000000000000001000000000000000000000000010000000000000000000000000011001100000000001000000000000000000000000000000000000000000000000000000000000000000000000000000000000000000000000000000000000000001010000000000000000000000000000000000000000000000000000000000000000000011000100000000000000000000000000000000000000000000000000000000000000000000000000000000000000000000000000000000000000000000000000001000000000000000000000000000000000000000000000000000000000000000000000110000100000000000000000000000000000000000000000000000000000000010000000000000000000000000000000001100000000000000000000000000000000000000000000000000000000000000000000000000000000000000000000000000000010000100000000000000000000000000000000000000000000000000000001010000000000000000000000000000000011000000000000000000000000000000000000000000000000000000000000000000000000000000000000000000000000000000001101000000000000000000000000000000000000000000000000000000010100000000000000000000000000000000000000000000000000000000000000000000000000000000000000000000000000000000000000000000000000000000000000000000100000000000000000000000000000000000000000000000000000000010000000000000000000000000000000000000000000001100000000000000000000000000000000000000000000000000000000000000000000000000000000000000000000000000000000000000000000000000000000000000000000000000000000000000000000000000000000000000000000000000000011000000000000000000000000000000000000000000000000000000000000000000000000000000000000000000000000000000000000000000000000000000000000000000000000000000000000000000000000000000000000000000000000000000000000000000000000000000000000000000000000000000000000000000000000000000000000000000000000000000000000000000000000000000000000000000000000000000000000000000000000000000000000000000000000000000000000000000000000000000000011000000000000000000000000000000000000000000000000000000000000000000000000000000000000000000000000000000000000010000000000000000000000000000000000000000000000000000000000000000000000000000000000000000110000000000000000000000000000000000000000000000000000000000000000000000000000000000000000000000000000000000000010000000000000000000000000000000000000000000000000000000000000000000000000000000000000000000000000000000000000000000000010000000000000000000000000000000000000000000000000000000000000000000000000000000000000000000000000000000000000000000000000000000000000110000000000000000000000000000000000000000000000000000000000000001010000000000000000000000000000000000000000000000000000000000000000000000000000100000000000000000000000000000000000000000000000000000001010000000000000000000000000000000000000000000000000000000000000010100000000000000000000000000000000000000000000000000000000000000000000000000001000100000000000000000000000000011000000000000000000000001000000000000000000000000000000000000000000000000000000000000000010000000000000000000000000000000001100000000000000000000000000000000000000000100010000000000000000000000000001001000000001100000011000000000000000000000000000000000000000000000000000000000000000000000000000000000000000000000000000000011000000000000000000000000011000000000000000000000000000000000000000000000001100000000011000001001000000000000000000000000000000000000000000000000111000000000000110000000110000000000000000000000000000000000000000000000000000000110000000000000100000000000000000000000000000000000000000000000000010100000000000000000000000000000000000000000000000000000000000000001100000010010000000000000000000000000000000000000000000000000000000000000000000000000001000000000000000000000000000000000000000000000010000000000000000000000000000000000000000000000000000000000000000000000000011000000000000000000000000000000000000000000000000000000000000000000000000010111000000000000000000000000000000000000000000000000000000000000000000000000000000000000000000000000000000000000000000000000000000000000000000000000000000000000000000000000000000000000000000000001000011000000000000000000000000000000000000000000000000000000000000000000000000000000000110000000000000000000000000000000000000000000000000000000000000000000000000000000000000000000000000000000000000001000000000000000000000000000000000000000000000000000000000000000000000000000000000000010010000000000000000000000000000000000000000000000000000000000000000000000000000000000000000000000000000000000000001010001100000000000000000000000000000000000000000000000000000000000000000000000000000101000000000000000000000000000000000000000000000000000000000000000000000000000001110000000000000000000000000000000001100010000000000000000000000000000000000000000000000000000000000000000000000000000000100000000000000000000000000000000000000000000000000000000000000000000000000000000000000000000000000000000000000000000000010000000000000000000000000000000000000000000000000000000000000000000000000000000000000000000000000000000000000000000000000000000000001100110000000000000000000000000000000000000000000000000000001000001000000000000000000000000000001000000000000000000000000000000000000000000000000000000000000000000000000001110000000000000000000000000011001100000000000000000000000000000000000000000000000000000000001000000000000000000000000000000101000000000000000000000000000000000000000000000000000000001100000000000000000000000000000000000000001100000000000000000000000000000000000000000000000000000000000000010010000000000000000000000000000001010000110000000000000000000000000000000000000000000000000100100000000000000000000000000000000000000011000000000000100000000000000000000000000000000000000000000000000011000000000000000000000000000000001000010010000000000000000000000000000000000000000000000001010000000000000000000000000000000000000000000000000000010100000000000000000000000000000000000000000000000000010000000000000000000000000000000000000011000000000000000000000000000000000000000001000000001000000000000000000000000111000000000000000000000000000101000000000000000000000000000000000000000000000000000000000000000000000000000000000000000000000000000000000000000000000000000000000000101000000000000000000000000000000010001000000000000000000000000000100000000000000000000000000000000000000000000000000000000000000000000000000000010000000000000000000000000110000000000000000000000000000110000000000000000000000000000001000110000000000000000000000000000000000000000000011000000000000000000000000000000000000000000000001000000000101000000000000000000000000010100000000000000000000000000000000000000000000000000000000000010000000100000000000000000000000000000000000000000110000000000000000000000000000000000000000000000101000000011000110000000000000000000000010000000000000000000000000000000000000000000000000000000000000111000000000000000000000000000000000000000000000000000000000000000000000000000000000000000000000010000100000100100100000000000000000000000000000000000000000000000000000000000000000000000000000000000000011110000000000000000000000000000000000000000000000000000000000000000000000000000000000000000000010000100011100010000001000000000000000000000000000000000000000000000000000000000000000000000000000000000011110000000000000000000000000000000000000000000000000000000000000000000000000000000000000000000000000000010111100010100000000000000000000000000000000000000000000000000000000000000000000000000000000000011100000000000000000000000000000000000000000000000000000001111000000000000000000000000000000000010100000011110000101000000000000000000000000000000000000000000000000000000000000000000000000000000000000000011010000000000000000000000000000000000000000000000000100010000000000000000000000000000000000000000000010000010100000000001100000011000000000000001100000000000000000000000000000000000000000000000000000010110000000000000000000000000000000000000000000000010011010000000000010000000000000000000000000011100000000110000001100011000000110000000000000100100000000000000000000000000000000000000000000000101000001100000000000000000000000000000000000000000000001111011100000000000100000000000000000000000000110000000001100010000100000000000000000000000000101000000000000000000000000000000000000000000000001001100110000000000000000000000000000100000000000000001000000111000000000001000000000000000000000000001000000000000000010110000000000000000000000000000100000000001000000000000000000000000000000000000000100001100000000000000000000000000001000000000000000100000010010000000110000010011000000000000000000000000000000000001101100000000000000000000000000000000000000101000000000000000000000000000000000000000010011100000000000000000000000000010000000000000011100000010000000001100000100110000000000000000000000000000001100001000000000111000000000000011100000000000001010000000000000000000000000000000011000010100011000110000000000000000000000000000000000000001011000000000000000000000100010000000000000000000000000000000001000000000010001000000000000000000000000000001000000000000000000000000000000000110001100100110111000000000000000000000000000000000000000000110000000000000000000011110000111100000000000000000000001100011100000000100001000000001000000000000000000000000000000000000000000000000000000001110010000010110000000000000000000000000000000000000000001000000000000000000010000000001011000000000110000000000011100000000000000010100000000110000000000000000000000000000000000000000000011000000000001111100000101100000000000000000000000000000000000000000000000000000001000001000000000101001000000010010000000000011000000000000000000000000011100000000000000000000000000000000000000000001000000000000001011000001000000000000000000000000000000000000000000000000000100000001110011010101011011100000000100100000000111110000000000000000000011100000000000000000000000000000000000000000000000001100000000000001100000111000000000000000000000000000000000000000000000000011011000100100000000000000111000000000110000000010000110011000000000000000000100011000000000000000000000000000000000000000000000011000000000000000000000000000000000000000000000000000000000000000000000010001000111000000111000011000000000000000000000000000011110000000000000000000000101000000000000000000000001000000000000000000000110000000000000000000000000000000000000000000000000000000000000000000000011011000000000001000000000000000000000000000000100000000010000000000000000000000010000000000000000000000101000000000000000000000000000000000000000000000000000000000000000000000000000000000000000000000000110000000000000001000000000000000000000000000100010110100000000000000000001001000000000000000000000001010000000000000000000000000000000000000000000000000000000000000000000000000000000000000000000000000000000000000000000000000000000000000000000000011101110000000000000000011000100000000000000000000000001000000000000000000000000000000000000000000000000000000000000000000000000000000000000000000000000000000000000000000000000000000000001000000000000000000000000000000000000001100000000000000000000000000000000000000000000000000000000000000000000000000000000000110000000000000000000000000000000000000000000000000000000000000000000000000010000000000000000000000000000000000000000000000000000000000000000000000000000000000000000000000000010000000000000000000000001100000000000000000000000000000000000110000000000000000000000000000000000000100000000000000000000000000000000000000000000000000000000000000000000000000000000000000000000000000100000000000000000000000000000000000000000000000000000111000001100000000000000011000000000000000000000000000000000000000000000000000000000000000000000000000000000000000000000000000000000000000000000001000000000000000000000000000000000000000000000000000000000000000000000000000001001000000001100000000000000000000000000000000000000000000000000000000000000000000000000000000000000000000000000000000000000000000000000000000000000000000000000000000000000000000000000000000000000000010010000000101000000000000000000000000000000000000000000000000000000000000000000000000000000000000000000000000000000000000000000000000000000000000000000000000000000000000000000000000000000000000000000011000000000100000000000000000000000100000000000000000000000000000000000000000000000000000000000000000000000000000000000000000000000000000000000000000001100000000000000000000000000000000000000000000000000000000000000000000000000000000011000000000000000000000000000000000000000000000000000000000000000000000000000000000000000000000000000000110000000000100100000000000000000000000000000000000000000000000000000000000000000000100000000000101000000000000000000000000000000000000000000000000000000000000000000000000000000000000000000000000000001100000000000110000000000000000000000000000000000000000000000000000000000000000000010100000000000000000000000000000000000000000000000000000000000000000000000000000000000000000000000000000000000000000000000000000000000000000000000000000000000000000000000000000000000000000000000000001010000000000000000000000000000000000000000000000000000000000000000000000000000000000000000000000000000000000000000000000000000000000000000000000000000000000000000000000000000000000000000000000000000101000000000000000000000000000000000000000000000000000000000000000000000000000000000000000000000000000000000000000000000000000000000000000000000000000000000000000000000000000000000000000000000000000000100000000000000000000000110000000000000000000000000000000000000000000000000000000000000000000000000010000000000000000000000000000000000000000000000000000000000000000000000000000000000000000000000000000000000000000000000000001000000000000000000000000000000000000000000000000000000000000000000000000000100000000000000000000000000000000000000000000000000000000000000000000000000000000000000000000000000000000000000000000000000000000000000000000000000000000000000000000000000000000000000000000000000000001000000000000000000000000000001000000000000000000000000000000000000000000000000000000000000000000000000000000000000000000000000000000000000000000000000000000000000000000000000000000000000000000000000000000000000000000000000000000101000000000000000000000000000000000000000000000000000000000000000000000000000000000000000000000000000000000000000000000000000000000000000000000000000000000000000000000000000000000000000000000000000001010000000000000000000000000000000000000000000000000000000000000000000000000000000000000000101100000000000000000000000000000000000000000000000000000000000000000000000000000000000000000000000000000000001000000000000000000000000000000000000000000000000000000000000000000000000000000000000000000110000000000000000000000000000000000000000000000000000000000000000000000000011100000000000000000000000000000000000000000000000000000000000000000000000000110000000000000000000000000000000000000000000001000000000000000000000000000000000000000000000000000000000000000000000000000000000000000000000000000000000000000000000000000011000000000000000000000000001100000000000000000000000000000000000000000000000000000000000000000000000000000000000000000000000000000000000000000000000000000000000000000000000000000000000000000000000000110000111000000000000000000000000000000000000000000000000000000000000000010000000000000000000000000000000000000000000000000000000000000000000000000000000000000110000000000000000000000011000000000000000000000000000000000000000000000000000000000000000000000000000000000000000110110000000000000000000000000000000000000000000000000000000000000000000000000000000001010000000000000000000000110000000000000000000000000000000000000000000000000000000000000000000000000000000000000000111000000000000000000000000000000000000000000000000000000000000000000000000000000000001100000000000000000000000000000000000000000000000000000000000000000000000000000000000000000000000000000000000000000100000000000000000000000000000000000000000000000000000000000000000000000000000000000000000000000000000000000000000000000000000000000000000000000000000000000000000000000000000000000000000000000000000000000000000000000000000000000000000000000000000000000000000000000