P1
200 200
0000000000000000000000000000000000000000000000000000000000000000000000000000000000000000000000000000000000000000100000000000000000000000000000000000000000000000000000000000000000000000010000000000000000000000000000000000000000000000000000000000000000000000000000000000000000000000000000000000000000000000010000010100000000000000000000000000000000000000000000000000000000000000000000001010000000000000000000000000000000000000000000000000000000000000000000000000000000000000000000000000000000000000000000001010000100100000000100000000000000000000000000000000000000000000000000000000000010100000000000000000000000000000000000000000000000000000000000000000000000000000000000000000000000000000000000000000000011000000110000000010100000000000000000000000000000000000100000000000000000000000010000000000000000000000000000000000000000000000000000000000000000000000000000000000000000000000000000000000000000000000000000000000000000101000000000000000000000000000011100010100000000000000000000000000011100000000000000000000000000000000000000000000000000000000000000000000000000000000000000011000000000000000000000000000000000000000000100000000000000000000000000000000000100100000000000000000000000000000000100000000000000000000000000000000000000000000000000000000000000000000000000000000000110000000000000000000000000000000000000000000000000000000000000000000000000000000110000000000000000000000000000000011100000000000000000000000000000000000000000000000000000000000000000000000000000000000000000000000000000000000000000000000001100000001100000000000000000000000000000000000000000001100000000000000000001011100000000000000000000000000000000000000000000000000000000000000000000000000000000000000000000000000000000000000000000000100100000100100000000000000000000000000000000000000000011000000000000000000000001100000000000000000000000000000000000000000000000000000000000000000000000000000000000000000000000000000000000000000000000110000000110000000000000000000000000000000000000000000000000000000000000000000011000000000000000000000000000000000000000000000000000000000000000000000000000000000000000000000000000000000000000000000000000000000000000000000000000000000000000000000000000000000000000000000000000000111000000000000000000000000000000000000000000000000000000000000000000000000000000000000000000000000000000000000000000000000000100000000000000000000000000000000000000000000000000000000000000000000000010110000000000000000000000000000000000000000000000000000000000000000000000000000000000100000000000000000000000000000000000000010100000000000000000000000000000000000000000000000000000000000000000000000010000101100110000000000000000000000000000000000000000000000000000000000000000000000001000000000000000000000000000000000000000101000000000000000000000000000000000000000000000000000000011000000000000000000000000000100000000000000000000000000000000000000000000000110000000000000000000000010000000000000000000000000000000000000000100000000000000000000000000000000000000000000000000000001001000000000000000000010000001000000000000000000000000000000000000000000000010010000000000000000000000000000000000000000000000000000000000000000000000000000000000000000000000000000000000000000000000010100000000000110000000100000001000000000000000000000000000000000000000000000101000000000000000000011100011100000000000000000000000000000000000000000000000000000000000000000000000000000000000000000000010000000000001100000000010100100000000000000000000000000000000000000000000000100000000000000000000000000000000000000000000000000000000000000000000000000000000000010000000000000000000000000000000000000000000000000000000001100111110000000000000000000000000000000000000000000000000000000000000000000000000000000000000000000000000000000000000000000000000000000000001110000010000000000000000000011000000000000000000000000000010011000000000000000000000000000000000000000000000000000000000000000000000000000000000000000000000000000000000000000000000000000000000000000110110100001000000000000000000110000000000000000000000000000011110000000000000000000000000000000000000000000000000000000000000000000000000000000000000000000000000000000000000000000000000000000000000011000001000001000000000000000000000000000000000000000000000000011010000000000000000000000000000000000000000000000000000000000000000000000000000000000111000000000000000000000000000000000000000000000001110000010000000000000000000000000000000000000000000000000000000001100000000000000000000000000000000000000000000000000000000000000000000000000000000000001000000000000000000000000000000000000000000000001100000001001000000000000000000000000000000000000000000000000000000000000000000000000000000000000000000000000000000000000000000000000000000111000001010010000000000000000000000000000000000000000000000001101100011100000000000000000000000000000000000000000000000000000000000000000000000000000000000000110000000000000000000000000000000000000010001101111100010000000000000000000000000000000000000000000000001110000000000000000000000000000000000000000000000000000000000000000000000000000000000000000000010010000000000000000000000000000000000000110000010100111000000000000000000000000000000000000000000000000001000000000000000000000000000000000000000000000000000000000000000000000000000000000000000000000100100000000000000000000000000000000000001100010010101110000000000000000000000000000000000000000000000000000000000000000000000000000000000000000000000000000000000000000000000000000000000000000001110000110000000000000000000000000000000000000000111000000000000000000000000000000000000000000000000000000000000000000110000000000000000000000000000000111000000000000000000000000000000000000010000000000000000000000000000000000000000000000000000000000100000000000000000000000000000000000001000000000000000000000000000010100001100000000000000000000000011011000000000001000000000000000000000000100000000000000000000000000000000000000000000000000000000011000000000000000000000000000000000000101000000000000000000000000000010000011000000000000000000000000110110000000000110000000000000000000000001000000010010000000000000000000000000000000000000000000000110000000000000000000000000000000000001010000000000000000000000000000000000000000000000000000000000000010000000000001010000000000000000000000000000001001000000000000011000000000000000000000000000000000000000000000000000010000000000000000001000000000000000000110000000000000000000000000000000000000000000000000000000010000000000000000000000000000000001100000000000001001000000000000000000000000000000000000000000000000000000000000000000000000000000000000000001010000000000000000000000000000000000000000000000000000001010000000010000000000000000000000000000000000000010100000000000000000000000000000000000000000000000000000100000000000000000000000000000000000001000000000000000000000000000000000000000000000000000000110100000001010000000000001011000000000000000000000010000000000000000000000000000000000000000000000000000101000000000000000000000000000000000000000000000000000000000000000000000001000000000000000000001001000000010010000000000010010000000000000000000000000000000000000000000000000000000000000000000000000001010000000000000000000000000000000000000000000010000000000000000000000000101000000000000110000001010000000011000000000000111000000000000000000000000000000000000000000000000001000000000000000000101000000000000000000000000000000000000000000000000001010000000000000000000000001010000000000011000000011100000000000000000000000000000000000000000000000000011000000000000000000000010000000000000000001001000000001110000000000000000000000000000000000100010100000000000000000000000001000000000000100000011000000000000000000000000000000000000000000000000000000110000000000000000000000100000000000000000110010000000000000000000000000000000000000000000010100010000000000000000000000000000000001110001010001100000000000000001100000000000000000000000000000000000000000000000000000000000000000000000000000001011100010000000000000000000000000000000000000000101000000000000000000000000000000000000000000001100011100000000000000010100000000000000000000000000010000000000000000000000000000000000000000000000001100011000100000000000000000000000000000000000000000100000000000000000000000000000000000000000000000000000000000000000000010000000000000000000000000001010000000000000000000000000000000000000000000000011000110001000100000000000000000000000000000000000000000000000000000000000000000000000000000000000000000000000000000000000000000000000000000000000000010010000000000000000000000000000000000000000000000001101100000001110000000000000000000000000000001100000001100000000000000000000000000000000000000000000011000000000000000000000000000000000000000011000011000000000000000000000000000000000000000000000000001011000000010010000000000000000000000000000011000000100100000000000000110000000000000000000000000000000000000000000000000000000000000000000000110000000000000000000000000000000000000000000000000000000010010000000000010000000000000000000000000000000000000110000000000100010010000000000000000000000000000000011000000000000000000000000000000000000000000000000000000000000000000000000000000000000000000000011000000000000100000000000000000000000000000000000000000000000001100000010000000000000000000000000000000110000000000000000000000000000000010000000000000000000000000000000000000000000000000000000000000000000000000110000000000000000000000000000010000000000000000001000110100000000000000000000000000000000000000000000000000000000000000000000100000000000000000000000000000000000000000000000000000000000000000000000000000000000000000000000000000001011000011000000000011100010000000000000000000000000000000000000000000000000001000000000000000001000000000000000000000000000000000000000000000000000000000000000000001110000000000000000000000000000001110000000000000111110110000010110000000000000000000000000000000000000000000000010000000000000000000000000000000000000000000000000000000000000000000000000000000000000111111000000000000000000000000000100100001010100110101011000000110000000000000000000000000000000000000000000000000100000000110000000001110000000000000000000000000000000000000000000000000000000000000000000000000000000000000000000000000100100010100001001010101000001000000000000000000000000000000000000000000000000000000000010010000000000000000000000000000000000000000000000000000000000000000000000000000000000000000000000000000000000000001000110000000000000000000100000000000000000000000000000000000000000000000000000000000111110000010000000000000000000000000000110000000000000000000000000000000000000000000000000000110000000000000000010010010001000110111000101011001000000000000000000000000000000000000000000000000000000001100100000100000000000000110000000000001100000000000000000000000000000000000000000000000000001100000000000000001001000000000001101010001001101110000000000000000000000000000000000000000000000000000000000000010001000000000000001100000000000000000000000000000000000000000000000000000000000000000000000000000000000001110000000000000100001110110000100000000000000000000000000000000000000000000000000000000100010000000000000000000000000000000000000000000001110000000000000000000000000000000000000000000000000000000000000101100000000001000100010111100000000000000000000000000000000000000000000000000000000010111010000000000000000000000000000000000000000000010000000000000000000000000000000001110000000000000000000000000000100000000000010001110100010000000000000000000000000000000000000000000000000000000000000111000000000000000000000110000011000000000000000010000000000000000000011000000000000000000000000000000000000000000000000000000100011111000100000000000000000000000000000000000000000000000000000000100010100000000000000001100010010000110000000000000000000000000000000000000101000000000000000000000000000000000000000000000000000000000000000001000000000000000000000000000000000000000000000000000000000000101010000000000000011000010100000000000000000000000000000000000000000000100000000000000000000000000000000000000000000000000000000000000100000000000000000000000000000000000000000000011000000000000011000010100000000000000000000010000000000000000000000000000000000000000000000000000000000000000000000000000000000000000000000000000000000001001000000000000000000000000000000000000000001001000000000000010000000000000000000000000000000000000000000000000000000000000000000000000000000000000000000000000000000000000000000000000000000000000000001110000000000000000000000000000000000000000010010000000000000010000000100000000000000000000000000000000000000000110000010000000000000000000000000000000000000000000000000000000000000000000000000000000000000000000000000000000000000000110000000000011000000000000000100000001000000000000000000000000000000000000000001100001110000000000000000000000000000000000000000001100000111000000000000000000000000000000000000000000000000000000000001100000000000000000000000000000010000010000000000000000000000000000000000000000000000100010000000000000000000000001100000000000000011000000000000000000000000000000000000000000000000000000000000000000000000000000000000000000000000000010000000000000000000000000000000000000000000000000001000100000000000000000000000100100000000000000000000000000000000000000000000000000000000000000000000000000000000000000000000000000000000000000000000001010000000000000000000000000000000000000000000000000000000000000000000000000000110000000000000000000000000000000000000000000000000000000000000000000000000000000000000000000000000000000000000001000000001000000000000000000000100000000000000000000000000100000000000000000000000000000000000000000000000000000000000000000000000000000000000000000000000000000000000000000000000000000000000000000000101000000000000000000000000000010100000000000000000000000010010000000000000000000000000000000000000000000000000000000000001000000000000000000000000000000000000000000000000000000000000000000000000000011011000000000000000000000000000101000000000000000000000000011000000000000000000000000000000000000000000000000000000000000010000000000000000000000000000000000000000000000000000000000110000000000000000010100000000000000000000000000000100000000000000000000000000000000000000000000000000000000000000000000000000000000000000000100000000110000000000000000000000000000000000000000000000010010000000000000000010000000000000111000000000000000000000000000000000000000000000000110000000000110000000000000000000000000000000000000000000000000010010000000000000000000000000000000000000000000000011000000000000000000010000000100011000100000000000000001101100000000000000000000001101100000000010010000000000000000000000000000000000000000000000000101000000000000000000000000000000000000000000000000000000000000000000000100000001000110000000000000000000101010100000000000000000000011000100000000011000000000000000000000000000000000000000000000000000100000010000000000000000000000000000000000000000000000000000000001110001000000000000000010000000000000001001001100000000000000000001000110011100000000000000000000000000000000000000000000000000000000000000001011000000000000000000000000000000000000000000000000000000100100000000000000000011000000000110000001110110000000000000000000001101100000000000000000000000000000000000000000000000000000000000000000001100010000000000000000000000000000000000000000000000000000001000010000000000001110000000000010010000011111000000000000000000000011000000000000000000000000000000000000000000000000000000000000110000000011000000000000000000000000000000000000000000000000000000000110011100000000000011100000000000011000000001100000000000000000000000000000000000000000000000000000000000000000000000000000000000001100000000010010000000000000000000000000000000000000000000000000000001100010000011100000111000000000000000000000000000000000000000000000000000000000000000000000000000000000000000001100000000000000000000000000000011000000000000000001000000000000000000000000000000000000011100000000000000000000000000000000000000000000000000000000000000000000000000000000000000000000000000000000000011000000000000000000000000000000000000000000000000101000000000000000000000000000000000000110000000000000000000000000000000000000000000000000001000000000000110000000000000000000000000000000000000000000000000000000000000000000000000101000000000000000000100000000000000000000000000000000000000101100000000000000000000000000000000000000000011000010000000000010000000000000000000000000000000000000000000000000000000000000000000001100001111000000000000000000000000000000000000000000000000001000000110010000000000000000000000000000000000000000010000100000000001100000000000000000000000000000000000000000000000000000000000000000000010101100000000000000000000000000000000000000000000000000000001010001101010000000000000000000000000000000000000011100000000000000001001100000000000000000000000000000000000000000000000000000000000000000110110011001000000000000000000000000000000000000000000000000010100000010010000000000000000000000000000000000000111110000000000000001110000000011000000000000000000000000000000000000000000000000000000001001000011100000000000000000000000000000000000000000000000000000000001101100000000000000000000000000000000010011100000000000000000001000000000110000000000000000000000000000000000000000000000000000000000010000001000000000000000000000000000000000000000000000000000000000011011000000000000000000000000000000000010000000000000000000000000000000000000000000000000000000000000000000000000000000000000000000011000000000000000000000000000000000000000000000000000000000000000000000000000000000000000000000000000000000100000000000000000000000000000000000000000000000000000000000000000000000000000000000000000000100000000000000000000000000000000000000000000000000000000000001000000000000000000000000000000000000000000000000000000000000000000000000110000000000000000000000000000000000000000000000000000000000000000000000000000000000000000000000000000001000000000000000000000010010000000000001100000000000000000000000000000000000000000000000000000010010000000000000000000000000000000000000000000000000000000000000000000000000000000000000000000000000000101000000000000000000001000010000100000011000000000000000000000000010000000000000000000000000000100100000000000000000000000000000000000000000000000000000000000000000000000000000000000000000000000000001010000000000000000000010001000001100000101000000000000000000000000100000000000000000000000000000110000000000000000000000000000000000000000000001100000000000000000000000000000000000000000000000000000001000000000000000000000000000000010010001110000000000000000000000001000000000000000000000000000000000000000000000000000000000000000000111000000101000011000000000000000000000000000000000000000000000000000000000000000000000000000000000000110010000000000000000000000000000000000000000000000000000000000000000000000000000000000000000000001001000011010001001000000010000000000000000000000000000000000000000000000000000000000000011100100000010000001000000000000000000000000000000000000000000000000001100000000000000000000000000000000000001000010000011000010000000001100000000000000000000000000000000000000100000000000000000000011000011001100011000111000000000000000000000000000000000000000000000000100100000000000000000000000000000000000000000100000010000010100000010100000000000000000000000000000000000001000000000000000000000100000000011000010010110000000000000000000000000000000000000000000000000110000000000000000000000000000000000001000000000000000100000000000000000000000000000001000000000000000000010000000000000000000001000011011000000000000000000000000000000000000000000000000000000000000000000000000000000000000000000000000000000000100000000000100000000000000000000000000000010000000000000000000000000000000000000000001111011010110001101100000000000000000000000000000000000000000000000000000000000000000000000000000000000000000010000011000000100100000000000000000000000000000100000000000000000000000000000000000000000000000010101000000000000000000000000000000000000000000000000000000000000000000000000000000000000000000000000000011011011000011011000001100000000000000000000000000000000000000000000000000000000000000000000000010000000000110000000000000000000000000000000000000000000000000000000000000000000000000000000000000000000010000100000111000000011000000000000011000111000111000000000000000000000000000000000000000000000000000000000100000000000000000000001000000000000000000000000000000000000000000000000010000000000000000000010010000001010000000000000000000000110000000000000000000000000000000000000000000000000000000000000000000101011011000000000000000101000000000000000000000000000000000000000000000000100000000000000000000001100000001100000000000000000000000000000001000000000000000000000000000000000000000000000000000000000001100000110000000000000001001000000000000000000000000000000000000000000000001000000000000000000000000000000011000000000000000000000000000000010000000000000000000000000000000000000000000000000000000000000001000100000000000000001100000000000000000000000000000000000000000000000000000000000000000000000000000000000000000000000000000000000000000100000000000000000000000000000000000000000000000000000000000000001110000000000000000000000000000000011100000000000000000000000000000000000000000000000000000000000110000000000000000000000000110000000000000000000000000000000000000000000000000000000000000000000000000001100000000000000000000000000000000001000000000000000000000000000000000000000000000000000000000110100111000000000000000000100100000000000000000000000000000000000000000000000000000000000000000000000000000001110000000000000000000000010100100000000000011100000000000000000000000000000000000000000001100000100011000000000000001001000000000000000000000000000000000001100000000000000000000000000000000000000000000000000000000000000000000101100000000000000000000000000000000000000000000000000000000000011010001000110000000000000110110000000000000000000000000000000000011000000000000000000000000000000000000000010000010000000000000000000001000000000000000000000100000000000000000000000000000000000000000001100001110001000000000011011000000000000000000000000000000000000000000000000000000000000000000000000000000100000100000000000000000000010000000000000000000001000000000000000000000000000000000111000000000000011010001000000001100011000000000000000000000000000000000000000000000000000000000000000000000000000001000001000000000000000010101110000000000000000000010000000000010000000000000000000000000000000000000001100001000000001110010000000000000000000000000000000000000000000000000000011000000000000000000000000000000000000000000001110011000000000001100000000000000000001010000000000000000000000000000000000000000011010000000000000100000000000000000000000000000000000000000000000110000110000000000000000000000000000000000000000000010010110000000000011000000000000000000010100000000000000000000000000100000000000000001000000110001010000000000000000000000000000000000110000000000001100000000000000000000000000000000000000000000000000101100101100000000000000000000000000000010000000000000000000000000111100000000000000000000010010001000000000000000000000000000000000001100000000011000000000000000000000000000000000000000000000000000000110101001100000000000000000000000000000000000000000000000000000010011000000000000000000000011000000000000000000110000000000000000000000000000000101000000000000000000000000000000000000000000000000000000011111111100001000000000000000000000000000000000000000000000000000000000000000000000000000000000000000000000011100000000000000001100000000000000010000000000000000000000000011100000000000000000000000000000000011100011000000000000000000000000000000000000000000000011100000000110000000000000000000000000000000000000000000000000000011000000000000001100011000000000000000000000000000000000000000000000000000000001100000100000011100000000000000000000000000000000000000000000011001010000000000000000000000000000000000000000000000000000000000000000000000001001000000000000000000000000100000000000000000000000000000110000000000000000000000000000000000000000000000000000000000010000000100000000000000000000000000000000000000000000000000000010100001110000000001010000000000000000000000001000000000000000000000000000001110000000000000001000000000000000000000000000000000000000000101011101000000000000000000000000000000000000000000000000000000101000000100000000001000000000000000000000000010000000000000000000000000000011100000000000000100000000000000000000000000000000000000000001000100110000000000000000000000000000000000000000000000000000000100000111000000000000000000000000000000000000000000000000000000000000001111010000000000000000000000000000000000000000000000000000000000000000000000000000000000000000000000000000000000000000000000000000000011000000000000000000000000000000000000000000000000000000000000000011111010000000011100000000000000000000000000000000000000000000000110000000000000000000000000000000001100000000000000000000000000000000000000000000000000000000000000000000000000000000000000000000000000000000100000010000000000000000000000000000000000000000000000000011000000000000000000000000000000000011000000000000000000000000000000000000000000000000000000000000000000000000000000000000000000000000000000011000001000110000000000000000000000000000000000000000000001010000000000000000000000000000000000000000000000000000000000000000000000000000000000000000000000000000000000000000000000000000000000000000001100000010000000000000000000000000000000000000000000000000011000000000000000000000000000000000000000000000001100000000000000000000000000000000000000000000000000000000000000000000000000000000000000000011000000011111000000000000000000000000000000000000000000000000000000000000000000000000000000000000000000000011000000000000000000000000000000000000000000000000000000000000000000000000000000000000000001100000000100010000000000000000000000000000000000000000000000000000000000000000000000000000000000000000000000000000000000000000000000000000000000000000000000000000000000000000000000000000000000000000000100000001000000000000000000000000000000000000000000000000000000000000000000000000000000000000000000000000000000000000000000000011000000000000000000000000000000000000000000000000000000000000000000000000001100100000000000000000000000000000000000000000000000000000000000000000000000000000000000000000000000000000000000000000000000110000000000000000000000000000000000000000000000000000000000000000000000000011000000000000000000000000000000000000000000000000000000000000000000000000000000000000000000000000000000000000000000000000000000000000000000000000000000000010000000000000000000000000000000000000000000000000000000000000000000000000000000000000000000000000000000000000000000000000000000000000110000000000000000000000000000000000000000000000000000000000000001010000000000000000000000000000000000000000000000000000000000000000000000000000000000000000000000000000000000000000000000000000000000001010000000000000000000000000000000000000000000000000000000000000010100000000000000000000000000000000000000000000000000000000000000000000000000000000000000000000000000000000000011000000000000000000000001000000000000000000000000000000000000000000000000000000000000000010000000000000000000000000000000001100000000000000000000000000000000000000000000000000000000000000000000000001001000000001100000011000000000000000000000000000000000000000000000000000000000000000000000000000000000000000000000000000000011000000000000000000000000011000000000000000000000000000000000000000000000001100000000011000001001000000000000000000000000000000000000000000000000111000000000000110000000110000000000000000000000000000000000000000000000000000000110000000000000000000100000000000000000000000000000000000000000000010100000000000000000000000000000000000000000000000000000000000000001100000010010000000000000000000000000000000000000000000000000000000000000000000000000010100000000000000000000000000000000000000000000010000000000000000000000000000000000000000000000000000000000000000000000000011000000000000000000000000000000000000000000000000000000000000000000000000000101000000000000000000000000000000000000000000000000000000000000000000000000000000000000000000000000000000000000000000000000000000000000000000000000000000000000000000000000000000000000000000000000000000100000000000000000000000000000000000000000000000000000000000000000000000000000000110000000000000000000000000000000000000000000000000000000000000000000000000000000000000000000000000000000000000000000000000000000000000000000000000000000000000000000000000000000000000000000000000000010010000000000000000000000000000000000000000000000000000000000000000000000000000000000000000000000000000000000000000000000010000000000000000000000000000000000000000000000000000000000000000000000000000101000000000000000000000000000000000000000000000000000000000000000000000000000001110000000000000000000000000000000000000001110000000000000000000000000000000000000000000000000000000000000000000000000000100000000000000000000000000000000000000000000000000000000000000000000000000000000000000000000000000000000000000000000000101010000000000000000000000000000000000000000000000000000000000000000000000000000000000000000000000000000000000000000000000000000000001100110000000000000000000000000000000000000000000000000000000000011101110000000000000000000000001000000000000000000000000000000000000000000000000000000000000000000000000001110000000100000000000000000011001100000000000000000000000000000000000000000000000000000000000010101000000000000000000000000101000000000000000000000000000000000000000000000000000000001100000000000000000000000011100000000000001100000000000000000000000000000000000000000000000000000000000000001100011100000000000000000000000001010000110000000000000000000000000000000000000000000000000100100000000000000000000001101100000000000011000000000000100000000000000000000000000000000000000000000000000011000010000000000000000001100000001000010010000000000000000000000000000000000000000000000001010000000000000000000000000011100000000000000000000000010100000000000000000000000000000000000000000000000000000000000000000000000110000100000000000011000000000000000000000000000000000000000001000000001000000000000000000000000000011000000000000000000000000101000000000000000000000000000000000000000000000000000000000000000000000100000111000000000000000000000000000000000000000000000000000000101000000000000000000000000000000000110110000000000000000000000000100000000000000000000000000000000000000000000000000000000000000000000011001100000000000000000000000000000110000000000000000000000000000110000000000000000000000000000011111110000000000000000000000000000000000000000000011000000000000111000000000000000000000000000000011000000000000000000000000000000000000010100000000000000000000000000000000000000000000000000000000001101110000000001100000000000000000000000000000000000110000000000001110000000000000000000000000000001001000000000000000000000000000000000000010000000000000000000000000000000000000000000000000000000000001100000000001100100000000000000000000000000000000000000000000000100000000000000000000000000000000010100000000000000000000000000000000000000000000000000000000000000000000000000000000000000000000000000011010000000011000000000000000000000000000000000000000000000000000100000000000000000000000000000000010000000000000000011000000000000000000000000000000000000000000000000000000000000000000000000000000000001100000000100100100000000000000000000000000000000000000000000000000000000000000000000000000000000000000000000000000101000000000000000000000000000000000000000000000000000000000000000000000000000000000000000000001111000100000000000000000000000000000000000000000000000000111000000000000000000000000000000000000000000001000000000000000000000000000000000000000000000000000000000000000000000000000000000000000000000010011111000000000000000000000000000000000000000000000000001010000000000000000000000000000000000000000000000000000000001100000011000000000000001100000000000000000000000000000000000000000000000000000000000000000000000000000000000000000000000000000000000000000010110000010000001000100000000000000000000000000000000000000011000000110000000000000100100000000000000000000000000000000000000000000000000000001100000000000000000000000000000000000000000000100000000000001100000100000100011100000000000000000000001111101100000000000001000000000000000000101000000000000000000000000000000000000000000000000000000100000000000000000000000000000100000000000000010100000000011110000001000001000000100000000000010001000010000000000000000000101000000000000000000100000000001000000000000000000000000000000000000011000000110001000000000000000000000001000000000000000011000000001111000110000000001101000110000000001000100100010000000000000000001001000000000011011000000000000101000000000000000000000000000000000001111100100100010000000000000000000000010000000000000000000000000001000001100000000000010011010000000001100001000010000000000000000001100000000000000110000000000001010000000000000000000000000000000000010011111000100011000000000000000000000000000000000000000000000000000000000000000000010110000000000000011000100000000000010000000000000000000000000001100000000000001000000000000000000000000000000000000101101111000110100000000000000000000000000000000000000000000000000000000000000000000101000100100000000000110000000010000000000000000000000000000000100000000000000000000000000000000000000000000000000110000010101000010000000000000000000000000000000000000000000000000000000000000000000000000001010110000110000000000000011000000000000000000010000000000100000000000000000000000000000000000000000000000000001010101110000000000000000000000000000000000000000000000000000000000000000000000000000000000101100010010000000000000001100000000000000000101000000111000000000000000000000000000000000000000000000000000010000001000000000000000000000000000000000000000000000000000000000000000000000000000000010000011000100100000000000000000000000000000000000010000001010000000000000000000000000000000000000000000000000100100101000000000000000000000000000000000000000000000000000010000000000000000000000000000100001000000110000000000000000000000000000000000000000000011000000000000000000000000000000000000000000000000000110111100000000000000000000000000000000000000000000000000000111000000000000000000110000000101100000000000000000000000000000000000000000000000000000000001000000000000000001000000000000000000000000000000010010000000000000000000000000000000000000000000000000000010110000000000011000001100000000100000000000000000000000001000000000000000000000000000000000101000000000000000101000000000000000000000000000000100000000000000000000000000000000000000000000000000000000010000000000000110000000000000000000000000000000000000000010000011000000000000000000000000011000000000000000001010000000000000000000000000000000111000000000000000000000000000000000000000000000000000000000000000000000000000000000000000000000000000000000000000111001001000000000000000000000000011000000000000000001000000000000000000000000000000000000000000000000000000000000000000000000000000000000000000000000000000000000000000000000000000000001000000000000000000010100000000000000000000000000000000000000000000000000000000000000000000000000000000000000000000000000000110000000000000000000000000000000000000000000000000000000000000000000000000010000001100000000000010000000000000000000000000000000000000000000000000000000000000000000000000000010000000000000000000000001100000000000000000000000000000000000000000000000000000000000000000000000000100000110000000000000000000000000000000000000000000000000000000000000000000000000000000000000000000100000000000000000000000000000000000000000000000000000111000000000000000000000011000000000000000000000000000010000000000000000000000000000000000000000000000000000000000000000000000000000000000000000001000000000000000000000000000000000000000000000000000000000000000000000000000001001000000001100000000000000000000000000000000000000000000000000000000000000000000000000000000000000000000000000000000000000000000000000000000000000000000000000000000000000000000000000000000000000000010010000000101000000000000000000000000000000000000000000000000000000000000000000000000000000000000000000000000000000000000000000000000000000000000000000000000000000000000000000000000000000000000000000011000000000100000000000000000000000000000000000000000000000000000000000000000000000000000000000000000000000000000000000000000000000000000000000000000001100000000000000000000000000000000000000000000000000000000000000000000000000000000000000000000000000000000000000000000000000000000000000000000000000000000000000000000000000000000000000000110000000000100100000000000000000000000000000000000000000000000000000000000000000000100000000000000000000000000000000000000000000000000000000000000000000000000000000000000000000000000000000000000000001100000000000110000000000000000000000000000000000000000000000000000000000000000000010100000000000000000000000000000000000000000000000000000000000000000000000000000000000000000000000000000000000000000000000000000000000000000000000000000000000000000000000000000000000000000000000000001010000000000000000000000000000000000000000000000000000000000000000000000000000000000000000000000000000000000000000000000000000000000000000000000000000000000000000000000000000000000000000000000000000101000000000000000000000000000000000000000000000000000000000000000000000000000000000000000000000000000000000000000000000000000000000000000000000000000000000000000000000000000000000000000000000000000000100000000000000000000000110000000000000000000000000000000000000000000000000000000000000000000000000010000000000000000000000000000000000000000000000000000000000000000000000000000000000000000000000000000000000000000000000000001100000000000000000000000000000000000000000000000000000000000000000000000000100000000000000000000000000000000000000000000000000000000000000000000000000000000000000000000000000000000000000000000000000000000000000000000000000000000000000000000000000000000000000000000000000000001000000000000000000000000000001000000000000000000000000000000000000000000000000000000000000000000000000000000000000000000000000000000000000000000000000000000000000000000000000000000000000000000000000000000000000000000000000000000101000000000000000000000000000000000000000000000000000000000000000000000000000000000000000000000000000000000000000000000000000000000000000000000000000000000000000000000000000000000000000000000000000001010000000000000000000000000000000000000000000000000000000000000000000000000000000000000000000000000000000000000000000000000000000000000000000000000000000000000000000000000000000000000000000000000000001000000000000000000000000000000000000000000000000000000000000000000000000000000000000000000000000000000000000000000000000000000000000000000000000000000000000000000000011100000000000000000000000000000000000000000000000000000000000000000000000000110000000000000000000000000000000000000000000000000000000000000000000000000000000000000000000000000000000000000000000000000000000000000000000000000000000000000000000000000011000000000000000000000000001100000000000000000000000000000000001000000000000000000000000000000000000000000000000000000000000000000000000000000000000000000000000000000000000000000000000000000000000000110000111000000000000000000000000000000000000000000000000000000111110000011000000000000000000000000000000000000000000000000000000000000000000000000000000000000110000000000000000000000011000000000000000000000000000000000000000000000000000000000000000000000000000010000000000010000000000000000000000000000000000000000000000000000000000000000000000000000000000001010000000000000000000000110000000000000000000000000000000000000000000000000000000000000000000000000000011000000000000000000000000000000000000000000000000000000000000000000000000000000000000000000000001100000000000000000000000000000000000000000000000000000000000000000000000000000000000000000000000000000011000000000000000000000000000000000000000000000000000000000000000000000000000000000000000000000000000000000000000000000000000000000000000000000000000000000000000000000000000000000000000000000000000000001000000000000000000000000000000000000000000000000000000000000000000000000