P1
200 200
0000000000000000000000000000000000000000000000000000000000000000000000000000000000000000000000000000000000000000100000000000000000000000000000000000000000000000000000000000000000000000010000000000000000000000000000000000000000000000000000000000000000000000000000000000000000000000000000000000000000000000010000010100000000000000000000000000000000000000000000000000000000000000000000001010000000000000000000000000000000000000000000000000000000000000000000000000000000000000000000000000000000000000000000001010000100100000000100000000000000000000000000000000000000000000000000000000000010100000000000000000000111000000000000000000000000000000000000000000000000000000000000000000000000000000000000000000000011000000110000000010100000000000000000000000000000000000100000000000000000000000010000000000000000000101001000000000000000000000000000000000000000000000000000000000000000000000000000000000000000000000000000000000000000101000000000000000000000000000011100010100000000000000000000000000011100000000000001000010000000000000000000000000000000000000000000000000000000000000000000011000000000000000000000000000000000000000000100000000000000000000000000000000000100100000000000000000000000000000000000001000100111000000000000000000000000000000000000000000000000000000000000000000000110000000000000000000000000000000000000000000000000000000000000000000000000000000110000000000000000000000000000000000000010111001000000000000000000000000000000000000000000000000000000000000000000000000000000000000000000000000000000000000001100000001100000000000000000000000000000000000000000001100000000000000000000000000100000010000000000000000000000000000000000000000000000000000000000000000000000000000000000000000000000000000000000000100100000100100000000000000000000000000000000000000000011000000000000000000000000001001001000000000000000000000000000000000000000000000000000000000000000000000000000000000000000000000000000000000000000110000000110000000000000000000000000000000000000000000000000000000000000000000000011010000000000000000000000000000000000000000000000000000000000000000000000000000000000000000000000000000000000000000000000000000000000000000000000000000000000000000000000000000000000000000000001000000100100000011000000000000000000000000000000000000000000000000000000000000000000000000000000000000000000000000000000000000000100000000000000000000000000000000000000000000000000000000000000000000101000000111000000110000000000000000000000000000000000000000000000000000000000000000000000100000000000000000000000000000000000000010100000000000000000000000000000000000000000000000000000000000000000000011000000001000000000000000000000000000000000000000000000000000000000000000000000000000001000000000000000000000000000000000000000101000000000000000000000000000000000000000000000000000000011000000000001100000010111000000000000000000000000000000000000000000000000000110000000000000000000000010000000000000000000000000000000000000000100000000000000000000000000000000000000000000000000000001001000000000000000000101110000000000000000000000000000000000000000000000000010010000000000000000000000000000000000000000000000000000000000000000000000000000000000000000000000000000000000000000000000010100000000000100000011010100000000000000000000000000000000000000000000000000101000000000000000000011100011100000000000000000000000000000000000000000000000000000000000000000000000000000000000000000000010000000000001000000110110000000000000000000000000000000000000000000000000000100000000000000000000000000000000000000000000000000000000000000000000000000000000000000000000000000000000000000000000000000000000000000100100001000100000000000000000000000000000000000000000000000000000000000000000000000000000000000000000000000000000000000000000000000000000000000000000000000000000000000000000000011000000000000000000000000000001110000000000000000000000000000000000000000000000000000000000000000000000000000000010000000000000000000000000000000000000000000000000000000000000000000000000000000000000110000000000100000000000000000000000000000000000000000000000000000000000000000000000000000000000000000000000000000010000000000000000000000000000000000000000000000000000000000110000000000000000000000000000000000001000000000000000000000000000000000000000000000000000000000000000000000000000000000000000000000000000000110000000000000000000000000000000000000000000000000000000000100100000000000000000000000000000000001100000000000110000000000000000000000000000000000000000000000000000000000000000000000000000000000000011100000000000000000000000000000000000000000000000000000000001001000000000000000000000000000000000110000000001111000000000000000000000000000000000000000000000000000000000000000000000000000000000001110010001100000000000000000000000000000000000000000000000000000000110000000000000000000000000000000001100000000011100000000000000000000000000000000000000000110000000000000000000000000000000000000000001110100011000000000000000000000000000000000000000000000000001001000000000000000000000000000000000000100000000000010000000000000000000000000000000000000000010010000000000000000000000000000000000000000001001100110000000000000000000000000000000000000000000000000010011000000000000000000000000000000000011000000000000000000000000000000000000000000000000000000100100000000000000000000000000000000000000000001110000000000000000000000000000000000000000000000000000000100100000000000000000000000000000000000011100000000000000000000000000000000000000000000000000000110000000000000000000000000000000000000000000000000000000000000000000000000000000000000000000000000000001100000110000000000000000000000000000000000111010000000000000000000000000000000001110000000000000000000000000000000000000000000000000000000000000000000000000000000000000000000001000000000000000000000001000000100001100000000000000000000000000011010100000000000000000000000000000000011101000000110000000000000000000000000000000000000000001100000000000000000000000000000000000000101000000000000000000001101000110000011000000000000000000000000000001110000000000000000000000000000000000000001000001100000000000000000000000000000000000000000011000001010000000000000000000000000000001010000000000000000000110011000000000000000000000000000000000000000000000000000000000000000000000000000000000011000000000000000011000000000000000000000000000000000000001100000000000000000000000000000001000000000000000000010000100000000000000000000000000000000000000000000000000100000000000000000000000000001111100000000000000001001000000000000000000000000000000000000000000000000000000000000000000000000000000000000000000100010000000000000000000000000000000000000000000000000110100000000010000000000010000111010000000000000000010100000000000000000000000000000000000000000000000011000000000000000000000000000000000000000000100100000000000000000000000000000000000000000000000100001100000001010000000001010000010000000000000000000010000000000000000000000000000000000000000000000001001000100000000000000000000000000000000000000100000000000000000000000000000001000000000000000001000101110000010010000001000100000000000000000000000000000000000000000000000000000000000000000000000000001100011100000000000000000000000000000000000000000010000000000000000000000000101000000000000000000110000000000011000000000110000000000000000000000000000000000000000000000000000001000000000000000000000000001010100000000000000000000000000000000000000001010000000000000000000000001010000000000001000000111010000000000000000110000000000000000000000000000000011000000000000000000000010000000000000000000000000111011100000000000000000000000000000000000100010100000000000000000000000001000000000000010010000100100000000000010010000000000000000000000000000000000110000000000000000000000100000000000000000000000000101010000000000000000000000000000000000010100010000000000000000000000000000000001110000100010000100000000000000111000000000000000000000000000000000000000000000000000000000000000000000000000000000000000111000000000000000000000000000000000000101000000000000000000000000000000000000000000000000000000000000000000000100000000000000000000000000010000000000000000000000000000000000000000000000000000100000001100000000000000000000000000000000000000100000000000000000000000000000000000000000000000111000000000000000000000000000000000000000000000001010000000000000000000000000000000000000000000000000001100000100000000000000000000000000000000000000000000000000000000000000000000000000000000000000000000000000000000000000000000000000000000000000000010010000000000000000000000000000000000000000000000000010000010110000000000000000000000000000000001100000001100000000000000000000000000000000000000000000000000000000000000000000000000000000000000011000011000000000000000000000000000000000000000000000000000000000100100000000000000000000000000000000100100000100100000000000000000000000000000000000000000000000000000000000000000000000000000000000000110000000000000000000000000000000000000000000000000000000000000000111000000000000000000000000000000000110000000110000000000000000000000000000000000000000000000000011000000000000000000000000000000000000000000000000000000000000000000000000000000000000000000000000000000000000000000000000000000000000000000000000000000000000000000011000000000000000000000000000000000110000000000000000000000000000000010000000000000000000000000000000000000000000000000000000000000000000000000000000000000000000000000000000000011101000000000000000001001000000000000000000000000000000000000000000000000000000011100000000100000000000000000000000000000000000000000000000000000000000000000000000000000000000000000000000000000000001110010000000000000000001100000000000000000000000000000000000000000000000001000000110100000001000000000000000000000000000000000000000000000000000000000000000000010000000000000000000000000000000000000000111100000000000000000000000000000000000000000000000000000000000000000000010000000100000000000000000000000000000000000000000000000000000000000000000000000000000100000000000000000000000000000000000000100000000000000000000000000000000000000000000000000000000000000000000000000100000000111001110001110000000000000000000000000000000000000000000000000000000000000001000000000000000000000000000000000100001000000000000000000000000000000000000000000000000000000000000000000000000000000010110100000000000000000000000000000000000000000000000000000000000000000000000000000000000000000000000000000000000010100110000000000000000011100000000000000000000000000000000000000000000000000000000000101000000000010000000000000000000000000000110000000000000000000000000000000000000000000000000000110000000000000000011011100000000001100000100100000000000000000000000000000000000000000000000000000000001110000000000100000000000000110000000000001100000000000000000000000000000000000000000000000000001100000000000000000011110000000000100100000000100000000000000000000000000000000000000000000000000000000000000000000001000000000000001100000000000000000000000000000000000000000000000000000000000000000000000000000000000000011000000000001001000010010000000000000000000000000000000000000000000000000000000000000000000000000000000000000000000000000000000000000000000000000000000000000000000000000000000000000000000000000000000000000000000001010000111000000000000000000000000000000000000000000000000000000000000000001001000000000000000000000000000000000000000000000000000000000000000000000000000001110000000000000000000000000000000000000000000000000000000000000000000000000000000000000000000000000000000000000000000010010000000000000000000110000011000000000000000000000000000000000000011000000000000000000000000000000000000000000000000000000000000000000000000000000000000000000000000000000000000000000000000000000001000110000000000001100010010000110000000000000000000000000000000000000101000000000000000000000000000000000000000000000000000000000000000000000000000000000000000000000000000000000000000000000000000000010011010000000000011000010100000000000000000000000000110000000000000000100000000000000000000000000000000000000000000000000000000000000000000000000000000000000000000000000000000000011000000000000000101000011000000000000000000010000000000000000000000000001010000000000000000000000000000000000000000000000000000000000000000000000000000000000000000000000000000000000000000000000000001001000000000000010010000110000000000000000000000000000000000000000000000010000000000000000000000000000000000000000000000000000000000000000000000000000000000000000000000000000000000000000000000000000010010000000000000010100001000000000000000000000000000000000000000000110000000000000000000000000000000000000000000000000000000000000000000000000000000000000000000000000000000000000000000000110000000000011000000000000001110010100000000000000000000000000000000000000000001100000000000000000000000000000000000000000000000001100000111000000000000000000000000000000000000000000000000000000000001100000000000000000000000000011000010000000000000000000000000000000000000000000000000000000000000000000000000000001100000000000000011000000000000000000000000000000000000000000000000000000000000000000000000000000000000000000000000110000000000000000000000000000000000000000000000000000001100000000000000000000000000100100000000000000000000000000000000000000000000000000000000000000000000000000000000000000000000000000000000000000001001110001000000000000000000000000000000000000000000000011000000000000000000000000000110000000000000000000000000000000000000000000000000000000000000000000000000000000000000000000000000000000000000001100100100111000000000000000000100000000000000000000000000110000000000000000000000000000000000000000000000000000000000000000000000000000000000000000000000000000000000000000000000000000000000000000000011000000011111111000000000000010100000000000000000000000110000000000000000000000000000000000000000000000000000000000000000000000000000000000000000000000000000000000000000000000000000000000000000000000000011001100010001000000000000101000000000000000000000000000000000000000000000000000000000000000000000000000000000000000000000000000000000000000000000000000000000000000000000000000110000000000000000000000000111000100010000000000000100000000000000000000001110111000000000000000000000000000000000000000000000000000000000000000000000000000000000000000000000000000000000000000000000010010000000000000000000000000110001101000000000000000000000000000000000000000001110000000000000000110000000000000000000000000000000000000000010100000000000000000000000000000000000000000000000000000000011000000000000000000010000000111110000000000000000000000000000000000000000000000010000100000000010010000000000000000000000000000000000000000100100000011100000000000000000000000000000000000000000000000000000000000000000000100000000111000000000000000000000000000000000000000000000011100000110000000011000000000000000000000000000000000000000001010000010010100000000000000000000000000000000000000000000000000000000000000000001000000000100000000000000000000000000100000000000000000001000000000100000000000000000000000000000000000000000000000000000000000000101000000000000000000000000000000000000000000000000000000000000000000000000000000000000000000000110000000011101000000000000000001101000111000000000000000000000000000000000000000000000000000000000001000110000000000000000000000000000000000000000000000000000000000000000000000000000000000000000000010010000001001011000000000000000110100000000000000000000000000000000000000000000000000000000000100100000001000000000000000000000000000000000000000000000000000000000000000000000000000000000000000000000011000000001100100000000000000000000000000000000000000000000000000000000000000000000000000000001001000000111000000000000000000000000000000000000000000000000000000000000000000000011100000000000000000000000000000001110000000000000000011100000000000000000000000000000000000000000001100000000000000110010000110101100000000000000000001000000000000000000000000000000000000000000000000000000000000000000000000000000000001000000000000000000011000000000000000000000000000000000000000000011000000000000000000000000001101100000000000000000101000000000000000000000000000000000000001100000000000000000000000000000000000000000000000001000000000011100000000000000000000000000000000000000000000000000000000000000000000001001000010000000000000000100000000000000000000000000000000000000011000000000000000000000000000000000000000000000000010000000001100000000000000000000000000000000000000000000000000000000000000000000000000000111100000000000000000000000000000000000000000000000000011000110000000000000000000000000000000000000000000000000100000000011000000000000000000000000000000000000000000000000000000000000000000000001100100010000000000000000000000000000000000000000000000000001001000000000000000000000000000000000000000000110000000000000000000000000000000000000000000000000000000000000000000000000000000000000000000111100000000000000000000000000000000000000000000000000000000100010011101100000000000000000000000000000000010010001100000000000000000000000000011000000000000000000000000000000000000000000000000000000010010000000000000000000000000000000000000000000000000000000001000000011100000000000000000000000000000000000100100100100000000000000000000000000110000000000000000000000000000000000000000000000000000000011000000000000000000000000000000000000000000000000000000000001110000000000100100000000000000000000000000000110000110000000000000000000000000000000000000000000000000000000000000000000000000000000000000010000000000000000000000000000000000000000000000000000000000011000000000010000001100000000000000000000000000000000000000000000000000000000000000000000000000000000000000000000000000000000000000000000000000000000000000000000000000000000000000000000000000000000000000000000000100000011100000000000000000000000000000000000000000000000000000110000000000000000000000000000000000000000000000000000000000000000000000000000000000000000000000000000001000000000000000000000000000000000111100111000000000000000000000000000000000000000000000000000010010000000000000000000000000000000000000000000000000000000000000000000000000000000000000000000000000000101000000000000000000000000000000000100000000000000000000000000000010000000000000000000000000000100100000000000000000000000000000000000000000000000000000000000000000000000000000000000000000000000000001010000000000000000000000000000110000011110000000000000000000000000100000000000000000000000000000110000000000000000000000000000000000000000000000000000000000000000000000000000000000000000000000000000001000000000000000000000011101000110000000100000000000000000000000001000000000000000000000000000000000000000000000000000000000000000000000000000000000000000000000000000000000000000000000000000000000000000000000000000000000001000101011100001000100000000000000000000000000000000000000000000000000000000000000000000000000000000000000000000000000000000000000000000000000000000000000000000000000000000000000000000000000000000000011001000110000001001000000000000000000000000000000000000000000000000001100000000000000000000000000000000000000000000000000110000000000000000000000000000000000000000000000000000100000000000000000000000110011000000000010011000000000000000000000000000000000000000000000000100100000000000000000000000000000000000000000000000010010000000000000000000000000000000000000000000000000001000000000000000000000011110010000000000110000000000000000000000000000000000000000000000000000110000000000000000000000000000000000000000000000000000100000000000000000000000000000001000000000000000000010000000000000000000000111010001000000001100000000000000000000000000000000000000000000000000000000000000000000000000000000000000000000000000000000011000000000000000000000000000000010000000000000000000000000000000000000000001010001010000000000000100000000000000000000000000000000000000000000000000000000000000000000000000000000000000000000000000000000000000000000000110000000000000100000000000000000000000000000000000000000000111000100000000001001000000000000000000000000000000000000000000000000000000000000000000000000000000000000000000111000000000000000001100000011000000000000000000000000000000000000000000000000000000000000100000000000000010110000000000000000000000000000000000011000000000000000000000000000000000000000000000000000001010000000000000000011000000001000000000111000111000000000000000000000000000000000000000000000000000000000011000000000000000000001000000000000000100100000000000000000000000000000010000000000000000000010000000000011000000000000000000000000000000000000000000000000000000000000000000000000000000000000000000000000000000000000000000101000000000000001001000000000000000000000000000000100000000000000000000000000000000110000000000000000000110000000001000000000000000000000000000000000000000000000000000000000000000000000000000000000001001000000000000010010000000000000000000000000000001000000000000000000000000000000000000000000000000001100100000000010000000000000000000000000000000000000000000000000000000000000000000000000000000000001100000000000110000000000000000000000000000000000000000000000000000000000000000000000000000000000000010010000000000100000000000000000000000000000000000000000000000000000000000000000000000000000000000000000000000000000010000000000000000000000000000000000000000000000000000000000000010000000000000000000011100000000000000000000000000000000000000000000000000000000000000000000000000000000000000000000000000000000000001000000000000000000000000000000000000000000000000000000000000000001010000000000000000000000000000000000000000000000000000000000000000000000000000000000000000000000000000001110000000000000000000000000010000000000000011100000000000000000000000000000000000000000000000010100000000000000000000000000000000000000000000000000000000001100000000000000000000000000000000000000000000000000000000000000000000000011000000000000000000000000000000000000000000000000000000000000000011110000000000000000000000000000000000000000000000000000000011000000000000000000000000000000000000000010000010000000000000000000000001010000000000000000100000000000000000000000000000000000000000000000000100000000000000000000000000000000000000000000000000000000000000000000000000000000000000000000000000100000100000000000000000000000111000000000000000001000000000000000000000000000000000111000000100000001000000000000000000000000000000000000101000000000000000000000000000000000000000000000000000000000001000001000000000000000000100001000000000000000000010000000000010000000000000000000000000000011100000000000000000000000000000000000000000000100000000001010000000000000000000000011000000000000000000000000000000000000000000000010100100100000000000000000000000000001010000000000000000000000000000111000000000011000000000000000000000000000110001100000000100100000000000000000110000110000000000000000000000000000000000000000000000101000101000000000000000000000000000010100000000000000000000000001101000000000001010000000110000000000000000010010011000000000100111000000000000001100000000000000000000000000000000000000000000000000000100000110000010000000000000000000000010000000000000000000000000011011100000000000100000010010000000000000000011001001000000001110111000000000011000000000000000000000000000000000000000000000000000000000000001100100100111000000000000000000000000000000000000000000001000000100000000010000000011000000000000000000000001100000000001000100000000000101000000000000000000000000000000000000000000000000000000000000011101000011001000000000000000000000000000000000000000000010111000000000000110000000000000000000000000000000000000000000001110000000000000010000000000000000000000000011100000000000000000000000000000001100000010110110000000000000000000000000000000000000000000001000011000000000000000000000000000000000000000000000000000000001000000000000001100011000000000000000000000000000000000000000000000000000000000110110101100010000000000000000000000000000000000000000000001100000000010000000000000000000000000000000000000000000000000000000000000000000001001000000000000000000000000100000000000000000000000000011111000000010001100000000000000000000000000000000000000000000011000010101000000000000000000000000000000000000000000000000000000011000000000000001010000000000000000000000001000000000000000000000000000000000000000010001000000000000000000000000000000000000000000000000001000000000000000000000000000000000000000000000000000000000001001000000000000001000000000000000000000000010000000000000000000000000001110010000000011100000000000000000000000000000000000000000000000000011011000000000000000000000000000000000000000000000000000000001010000000000000000000000000000000000000000000000000000000000000000000000010010000000000000000000000000000000000000000000000000000000000000001000000000000000000000000000000000000000000000000000000000001000000000000000000000000000000000000000000000000000000000000000000000000001110000000000000000000000000000000000000000000000000000000010000000000000000000000000000000001100000000000000000000000000000000000000000000000000000000000000000000000000000000000000000000000000000111001100000000000000000000000000000000000000000000000000000001010000000000000000000000000000000011000000000000000000000000000000000000000000000000000000000000000000000000000000000000000000000000000000011001000000000000000000000000000000000000000000000000000000010100000000000000000000000000000000000000000000000000000000000000000000000000000000000000000000000000000000000000000000000000000000000000000011100000000000000000000000000000000000000000000000000000000010000000000000000000000000000000000000000000001100000000000000000000000000000000000000000000000000000000000000000000000000000000000000000000010000000000000000000000000000000000000000000000000000000000000000000000000000000000000000000000000000000011000000000000000000000000000000000000000000000000000000000000000000000000000000000000000000000000000000000000000000000000000000000000000000000000000000000000000000000000000000000000000000000000000000000000000000000000000000000000000000000000000000000000000000000000000000000000000000000000000000000000000000000000000000000000000000000000000000000000000000000000000000000000000000000000000000000000000000000000000000000011000000000000000000000000000000000000000000000000000000000000000000000000000000000000000000000000000000000000000000000000000000000000000000000000000000000000000000000000000000000000000000000000000000110000000000000000000000000000000000000000000000000000000000000000000000000000000000000000000000000000000000000000000000000000000000000000000000000000000000000000000000000000000000000000000000000000000000000000000000000000000000000010000000000000000000000000000000000000000000000000000000000000000000000000000000000000000000000000000000000000000000000000000000000000110000000000000000000000000000000000000000000000000000000000000001010000000000000000000000000000000000000000000000000000000000000000000000000000000000000000000000000000000000000000000000000000000000001010000000000000000000000000000000000000000000000000000000000000010100000000000000000000000000000000000000000000000000000000000000000000000000000000000000000000000000000000000011000000000000000000000001000000000000000000000000000000000000000000000000000000000000000010000000000000000000000000000000001100000000000000000000000000000000000000000000000000000000000000000000000001001000000001100000011000000000000000000000000000000000000000000000000000000000000000000000000000000000000000000000000000000011000000000000000000000000011000000000000000000000000000000000000000000000001100000000011000001001000000000000000000000000000000000000000000000000111000000000000110000000110000000000000000000000000000000000000000000000000000000110000000000000000001010000000000000000000000000000000000000000000010100000000000000000000000000000000000000000000000000000000000000001100000010010000000000000000000000000000000000000000000000000000000000000000000000000010010000000000000000000000000000000000000000000010000000000000000000000000000000000000000000000000000000000000000000000000011000000000000000000000000000000000000000000000000000000000000000000000000000001000000000000000000000000000000000000000000000000000000000000000000000000000000000000000000000000000000000000000000000000000000000000000000000000000000000000000000000000000000000000000000000000000001110000000000000000000000000000000000000000000000000000000000000000000000000000000110000000000000000000000000000000000000000000000000000000000000000000000000000000000000000000000000000000000000000000011000000000000000000000000000000000000000000000000000000000000000000000000000000010010000000000000000000000000000000000000000000000000000000000000000000000000000000000000000000000000000000000000000000111000000000000000000000000000000000000000000000000000000000000000000000000000000101000000000000000000000000000000000000000000000000000000000000000000000000000001110000000000000000000000000000000001001001000000000000000000000000000000000000000000000000000000000000000000000000000000100000000000000000000000000000000000000000000000000000000000000000000000000000000000000000000000000000000000000000010001010000000000000000000000000000000000000000000000000000000000000000000000000000000000000000000000000000000000000000000000000000000000001100110000000000000000000000000000000000000000000000000000000000000100000000000000000000000000001000000000000000000000000000000000000000000000000000000000000000000000000001110000000000000000000000000011001100000000000000000000000000000000000000000000000000000000000100000000000000000000000000000101000000000000000000000000000000000000000000000000000000001100000000000000000000000000000000000000001100000000000000000000000000000000000000000000000000000000000000001101000000000000000000000000000001010000110000000000000000000000000000000000000000000000000100100000000000000000000001110000000000000011000000000000100000000000000000000000000000000000000000000000000010010000000000000000000000000000001000010010000000000000000000000000000000000000000000000001010000000000000000000000100010000000000000000000000000010100000000000000000000000000000000000000000000000000110000000000000000000000000000000000000011000000000000000000000000000000000000000001000000001000000000000000000000010000100000000000000000000000000101000000000000000000000000000000000000000000000000000000000000000000000000000100000000000000000000000000000000000000000000000000000000101000000000000000000000000000001000101100000000000000000000000000100000000000000000000000000000000000000000000000000000000000000000000000000010110000000000000000000000000110000000000000000000000000000110000000000000000000000000000100001011000000000000000000000000000000000000000000011000000000000000000000000000000000000000000000011000000011001101000000000000000000000010100000000000000000000000000000000000000000000000000000000001001011000000000000000000000000000000000000000000000110000000000000000000000000000000000000000000001001000000100000001000000000000000000000010000000000000000000000000000000000000000000000000000000000011000110000000000000000000000000000000000000000000000000000000000000000000000000000000000000000000010100000001110000000000000000000000000000000000000000000000000000000000000000000000000000000000000000001110000000000000000000000000000000000000000000000000000000000000000000000000000000000000000000000010000000000001001100110000000000000000000000000000000000000000000000000000000000000000000000000000000000000001110000000000000000000000000000000000000000000000000000000000000000000000000000000000000000000000000000000111111100000000000000000000000000000000000000000000000000000000000000000000000000000000000001111100000000000000000000000000000000000000000000000000000001010000000000000000000000000000000000000000000000111101000000000000000000000000000000000000000000000000000000000000000000000000000000000000111000100000000000000000000000000000000000000000000000000000100100000000000000000000000000000000000000111000001100010000000001100000011000000000000001100000000000000000000000000000000000000000000000000000011000000000000000000000000000000000000000000000000100001101000000000010000000000000000000000000010000000001011100010000011000000110000000000000100100000000000000000000000000000000000000000000000000000000000000000000000000000000000000000000000000000001100011010000000000100000000000000000000000001000100000001110011100000000000000000000000000000101000000000000000000000000000000000000000000000000000000000000000000000000000000000000100000000000000000000000001100000000001000000000000000000000000001110000000000000000110000000110000000000000000000100000000001000000000000000000000000000000000000000000000000000000000000000000000000001000000000000000001000000000000000110000000100000000000000000000000000000000000010001000000000010000000000000000000000000000101000000000000000000000000000000000000000011000000000000000000000000000000010000000000000000000010000000000001100000000110000000000000000000000000000000000000011000000100010000000000011100000000000001010000000000000000000000000000000000010100101000000100000000000000000000000000000000000000001011000000000000000000000101000000000000000000000000000000000001000000000000100000000000000000000000000000001000000000000000000000000000000000011100000010000001000000000000000000000000000000000000000011000000000000000000000001010000000010000000000000000000000000110010000000000011000000011000000000000000000000000000000000000000000000000000000100001110100111001000000000000000000000000000000000000000000000000000000000001100010000000100110000000110000000000010000001000000000000000000001001100000000000000000000000000000000000000000000000000000111100011001100000000000000000000000000000000000000000000000000110000000000100100000000011100110000010010000000001111011100000000000000000000011011000000000000000000000000000000000000000000000000000000100110000011000000000000000000000000000000000000000000000000010100000011010000000000000001010000000100100000000101111001000000000000000011000000011000000000000000000000000000000000000000000001000000000001110000010000000000000000000000000000000000000000000000000100000010110100010000000011000000000000110000000001001000110000000000000000000000110100000000000000000000000000000000000000000000010000000000000000001000000000000000000000000000000000000000000000000001010010001001100000110000110000000000000000000000001001100001000000000000000000000101100000000000000000000001000000000000000000000000000000000000000001000000000000000000000000000000000000000000000000001101000000110000001100000000000000000000000000000000011010001100000000000000000000010000000000000000000000101000000000000000000000000000000000000000000000000000000000000000000000000000000000000000000000001100001000000000000000000000000000000000000000000000110110000000000000000000000000000000000000000000001010000000000000000000000000000000000000000000000000000000000000000000000000000000000000000000000000000000000000000000000000000000000000000000000001101100000000000000000000000000000000000000000000000001000000000000000000000000000000000000000000000000000000000000000000000000000000000000000000000000000000000000000000000000000000000001000000000000011110000000000000000000010100000000000000000000000000000000000000000000000000000000000000000000000000000000000110000000000000000000000000000000000000000000000000000000000000000000000000010000000000000010000000000000000000000010000000000000000000000000000000000000000000000000000000000010000000000000000000000001100000000000000000000000000000000000110000000000000000000000000000000000000100000000000000000000000000000000000000000000000000000000000000000000000000000000000000000000000000100000000000000000000000000000000000000000000000000000111000001100000000000000011000000000000000000000000000000000000000000000000000000000000000000000000000000000000000000000000000000000000000000000001000000000000000000000000000000000000000000000000000000000000000000000000000001001000000001100000000000000000000000000000000000000000000000000000000000000000000000000000000000000000000000000000000000000000000000000000000000000000000000000000000000000000000000000000000000000000010010000000101000000000000000000000100000000000000000000000000000000000000000000000000000000000000000000000000000000000000000000000000000000000000000000000000000000000000000000000000000000000000000000011000000000100000000000000000000011000000000000000000000000000000000000000000000000000000000000000000000000000000000000000000000000000000000000000000001100000000000000000000000000000000000000000000000000000000000000000000000000000000101000000000000000000000000000000000000000000000000000000000000000000000000000000000000000000000000000000110000000000100100000000000000000000000000000000000000000000000000000000000000000000100000000000000000000000000000000000000000000000000000000000000000000000000000000000000000000000000000000000000000001100000000000110000000000000000000000000000000000000000000000000000000000000000000010100000000000000000000000000000000000000000000000000000000000000000000000000000000000000000000000000000000000000000000000000000000000000000000000000000000000000000000000000000000000000000000000000001010000000000000000000000000000000000000000000000000000000000000000000000000000000000000000000000000000000000000000000000000000000000000000000000000000000000000000000000000000000000000000000000000000101000000000000000000000000000000000000000000000000000000000000000000000000000000000000000000000000000000000000000000000000000000000000000000000000000000000000000000000000000000000000000000000000000000100000000000000000000000110000000000000000000000000000000000000000000000000000000000000000000000000010000000000000000000000000000000000000000000000000000000000000000000000000000000000000000000000000000000000000000000000000001100000000000000000000000000000000000000000000000000000000000000000000000000100000000000000000000000000000000000000000000000000000000000000000000000000000000000000000000000000000000000000000000000000000000000000000000000000000000000000000000000000000000000000000000000000000001000000000000000000000000000001000000000000000000000000000000000000000000000000000000000000000000000000000000000000000000000000000000000000000000000000000000000000000000000000000000000000000000000000000000000000000000000000000000101000000000000000000000000000000000000000000000000000000000000000000000000000000000000000000000000000000000000000000000000000000000000000000000000000000000000000000000000000000000000000000000000000001010000000000000000000000000000000000000000000000000000000000000000000000000000000000000000001100000000000000000000000000000000000000000000000000000000000000000000000000000000000000000000000000000000001000000000000000000000000000000000000000000000000000000000000000000000000000000000000000001001000000000000000000000000000000000000000000000000000000000000000000000000011100000000000000000000000000000000000000000000000000000000000000000000000000110000000000000000000000000000000000000000000010010000000000000000000000000000000000000000000000000000000000000000000000000000000000000000000000000000000000000000000000000011000000000000000000000000001100000000000000000000000000000000000000000001101100000000000000000000000000000000000000000000000000000000000000000000000000000000000000000000000000000000000000000000000000110000111000000000000000000000000000000000000000000000000000000000000000110110000000000000000000000000000000000000000000000000000000000000000000000000000000000110000000000000000000000011000000000000000000000000000000000000000000000000000000000000000000000000000000000000011000110000000000000000000000000000000000000000000000000000000000000000000000000000000001010000000000000000000000110000000000000000000000000000000000000000000000000000000000000000000000000000000000000011100100000000000000000000000000000000000000000000000000000000000000000000000000000000001100000000000000000000000000000000000000000000000000000000000000000000000000000000000000000000000000000000000000000001000000000000000000000000000000000000000000000000000000000000000000000000000000000000000000000000000000000000000000000000000000000000000000000000000000000000000000000000000000000000000000000000000010100000000000000000000000000000000000000000000000000000000000000