P1
200 200
0000000000000000000000000000000000000000000000000000000000000000000000000000000000000000000000000000000000000000100000000000000000000000000000000000000000000000000000000000000000000000010000000000000000000000000000000000000000000000000000000000000000000000000000000000000000000000000000000000000000000000010000010100000000000000000000000000000000000000000000000000000000000000000000001010000000000000000000000000000000000000000000000000000000000000000000000000000000000000000000000000000000000000000000001010000100100000000100000000000000000000000000000000000000000000000000000000000010100000000000000000000000000000000000000000000000000000000000000000000000000000000000000000000000000000000000000000000011000000110000000010100000000000000000000000000000000000100000000000000000000000010000000000000000000000000000000000000000000000000000000000000000000000000000000000000000000000000000000000000000000000000000000000000000101000000000000000000000000000011100010100000000000000000000000000011100000000000000000000000000000000000000000000000000000000000000000000000000000000000000011000000000000000000000000000000000000000000100000000000000000000000000000000000100100000000000000000000000000000000000000000000000000000000000000000000000000000000000000000000000000000000000000000000110000000000000000000000000000000000000000000000000000000000000000000000000000000110000000000000000000000000000000000000000000000000000000000000000000000000000000000000000000000000000000000000000000000000000000000000000000000000000000000001100000001100000000000000000000000000000000000000000001100000000000000000000000000001010000000000000000000000000000000000000000000000000000000000000000000000000000000000000000000000000000000000000000100100000100100000000000000000000000000000000000000000011000000000000000000000000000000010000000000000000000000000000000000000000000000000000000000000000000000000000000000000000000000000000000000000000110000000110000000000000000000000000000000000000000000000000000000000000000000000010000100000000000000000000000000000000000000000000000000000000000000000000000000000000000000000000000000000000000000000000000000000000000000000000000000000000000000000000000000000000000000000000100000000001000011000000000000000000000000000000000000000000000000000000000000000000000000000000000000000000000000000000000000000100000000000000000000000000000000000000000000000000000000000000000000001011000000100000110000000000000000000000000000000000000000000000000000000000000000000000100000000000000000000000000000000000000010100000000000000000000000000000000000000000000000000000000000000000000010010000000100000000000000000000000000000000000000000000000000000000000000000000000000001000000000000000000000000000000000000000101000000000000000000000000000000000000000000000000000000011000000000000100000010001000000000000000000000000000000000000000000000000000110000000000000000000000010000000000000000000000000000000000000000100000000000000000000000000000000000000000000000000000001001000000000100000000000001100000000000000000000000000000000000000000000000010010000000000000000000000000000000000000000000000000000000000000000000000000000000000000000000000000000000000000000000000010100000000001000100000011011000000000000000000000000000000000000000000000000101000000000000000000011100011100000000000000000000000000000000000000000000000000000000000000000000000000000000000000000000010000000000001000000000000110000000000000000000000000000000000000000000000000100000000000000000000000000000000000000000000000000000000000000000000000000000000000000000000000000000000000000000000000000000000000000000000000111011000000000000000000000000000000000000000000000000000000000000000000000000000000000000000000000000000000000000000000000000000000000000000000010000000000000000000000011000000000000000000000000000011010000000000000000000000000000000000000000000000000000000000000000000000000000000000000000000000000000000000000000000000000000000000000000000011110000000000000000000000110000000000000000000000000000100110000000000000000000000000000000000000000000000000000000000000000000000000000000000000000000000000000000000000000000000000000000000000000000111110000000000000000000000000000000000000000000000010000111000000000000000000000000000000000000000000000000000000000000000000000000000000000000000000000000000000000000000000000000000000000000000000010000000000000000000000000000000000000000000000000000010000100000000000000000000000000000000000000000000000000000000000000000000000000000000000000110000000000000000000000000000000000000000000000000000010001100000000000000000000000000000011000000000000001000000000000000000000000000000000000000000000000000000000000000000000000000000000001100000011100000000000000000000000000000000000000000000000000000100000000000000000000000000000000001011000000000000000000000000000000000000000000000000000000110000000000000000000000000000000000000000010010000100100000000000000000000000000000000000000000000000000000000000000000000000000000000000000010000000000000010000000000000000000000000000000000000000010010000000000000000000000000000000000000000010101101001000000000000000000000000000000000000000000000000000000000000000000000000000000000000001100000100000000100000000000000000000000000000000000000000100100000000000000000000000000000000000000000110001001100000000000000000000000000000000000000000000000000000000000000000000000000000000000000011011011000000000000000000000000000000000000011100000000000110000000000000000000000000000000000000000000011100000000000000000000000000000000000000000000000000000000000000110000000000000000000000000000001111000000000000000000000000000000000000011000000000000000000000000000000000000000000000000000000000000010000000000000000000000000000000001000000000000000000000000000010100001100000000000000000000000000001000000000000000000000000000000000001000001001000110000000000000000000000000000000000000000001100000111000000000000000000000000000000101000000000000000000000000000010000011000000000000000000000000000000000000001000000000000000000000000010000000011001100000000000000000000000000000000000000000011000001000000000000000000000000000000001010000000000000000000000000000000000000000000000000000000000000000000000000111000000000000000000000000100011001011000000000000011000000000000000000000000000000000000001100000000000000000000000000000001000000000000000000110000000000000000000000000000000000000000000000000000001111000000000000000000000000110100010100000000000001001000000000000000000000000000000000000000000000000100000000000000000000000000000000000000001010000000000000000000000000000000000000000000000000000000011000000010000000000000000110000110000000000000010100000000000000000000000000000000000000000000000001100010000000000000000000000000000000000001000000000000000000000000000000000000000000000000000000000100000001010000000001000000100000000000000000000010000000000000000000000000000000000000000000000000101000100000000000000000000000000000000000000000000000000000000000000000000001000000000000000000100011000000010010000000001000000000000000000000000000000000000000000000000000000000000000000000000000000010101000000000000000000000000000000000000000000010000000000000000000000000101000000000000000010101000000000011000000001000000000000000000000000000000000000000000000000000000001000000000000000000000001100000000000000000000000000000000000000000000001010000000000000000000000001010000000000001000100110000000000000000000010000000000000000000000000000000011000000000000000000000010000000000000000000000001000001110000000000000000000000000000000000100010100000000000000000000000001000000000000010000111000000000000000000000000000000000000000000000000000000110000000000000000000000100000000000000000000000000000000000000000000000000000000000000000010100010000000000000000000000000000000001110000100000100000000000000001100000000000000000000000000000000000000000000000000000000000000000000000000000000010000100000000000000000000000000000000000000000101000000000000000000000000000000000000000000000000000000000000000000010100000000000000000000000000010000000000000000000000000000000000000000000000000001110001010100000000000000000000000000000000000000100000000000000000000000000000000000000000000000000000000000000000000010000000000000000000000000001010000000000000000000000000000000000000000000000000110111010110000000000000000000000000000000000000000000000000000000000000000000000000000000000000000000000000000000000000000000000000000000000000000010010000000000000000000000000000000000000000000000000111000000010000000000000000000000000000000001100000001100000000000000000000000000000000000000000000000000000000000000000000000000000000000000011000011000000000000000000000000000000000000000000000000000100000000000000000000000000000000000000000001000000100100000000000000000000000000000000000000000000000000000000000000000000000000000000000000110000000000000000000000000000000000000000000000000000000000000000000110000000000000000000000000000000000000000110000000000000000000000000000000000000000000000000011000000000000000000000000000000000000000000000000000000000000000000000000000000000000000000000000000010111000000000000000000000000000000000000000000000000000000000011000000000000000000000000000000000110000000000000000000000000000000010000000000000000000000000000000000000000000000000000000000000000000011100000000000000000000000000000000000000000000000000000000001001000000000000000000000000000000000000000000000000000000000000000000100000000000000000000000000000000000000000000000000000000000000000000010000000000000000000000000000000000000000011000000000000000001100000000000000000000000000000000000000000000000001000000011000000001000000000000000000000000000000000000000000000000000000000000000000010000000000000000000000000000000000100000000110000000000011100000000000000000000000000000000000000000000000000000010000000110000000000000000000000000000000000000000000000000000000000000000000000000000100000000000000000000000000000000011000000000000000000000100100000000000000000000000000000000000000000000000000000100000000000001110001110000000000000000000000000000000000000000000000000000000000000001000000000000000000000000000000001010111000000000001000010011000000000000000000000000000000000000000000000000000000000000000111000000000000000000000000000000000000000000000000000000000000000000000000000000000000000000000000000000000111001001000000000010000110001100000000000000000000000000000000000000000000000000000000000001100000010000000000000000000000000000110000000000000000000000000000000000000000000000000000110000000000000000101011100000000011100000000100100000000000000000000000000000000000000000000000000000000000010000000100000000000000110000000000001100000000000000000000000000000000000000000000000000001100000000000000000110000000000001100000000001001000000000000000000000000000000000000000000000000000000000000000000001000000000000001100000000000000000000000000000000000000000000000000000000000000000000000000000000000000100000000000110000000000010010000000000000000000000000000000000000000000000000000000000000000000000000000000000000000000000000000000000000000000000000000000000000000000000000000000000000000000000000000000000000000110000001100011000000000000000000000000000000000000000000000000000000000000000000000000000000000000000000000000000000000000000000000000000000000000000000000001110000000000000000000000000000000000000000000000010011000000000000000000000000000000000000000000000000000000000000000111000000000000000000000110000011000000000000000000000000000000000000011000000000000000000000000000000000000000000000000000000000000010010000000000000000000000000000000000000000000000000000000000000001110000000000000001100010010000110000000000000000001110000000000000000101000000000000000000000000000000000000000000000000000000000000111000000000000000000000000000000000000000000000000000000000000001001000000000000000011000010100000000000000000000000010000000000000000000100000000000000000000000000000000000000000000000000000000000000000000000000000000000000000000000000000000000011000000000000000100100000000000000000000000010000000000000000000000000010000000000000000000000000000000000000000000000000000000000000000000000000000000000000000000000000000000000000000000000000000001001000000000000001000000000000000000000000000000000000000000000000000000000000000000000000000000000000000000000000000000000000000000000000000000000000000000000000000000000000000000000000000000000000010010000000000000000100000000000000000000000000000000000000000000000110000000000000000000000000000000000000000000000000000000000000000000000000000000000000000000000000000000000000000000000110000000000011000000000000000001101100000000000000000000000000000000000000000001100000000000000000000000000000000000000000000000001100000111000000000000000000000000000000000000000000000000000000000001100000000000000000000000000000011011000000000000000000000000000000000000000000000000000000000000000000000000000001100000000000000011000000000000000000000000000000000000000000000000000000000000000000000000000000000000000000000000010001001000000000000000000000000000000000000000000000000000000000000000000000000000100100000000000000000000000000000000000000000000000000000000000000000000000000000000000000000000000000000000000000010011011111000000000000000000000000000000000000000000000011000000000000000000000000000110000000000000000000000000000000000000000000000000000000000000000000000000000000000000000000000000000000000000001010000100000000000000000000000100000000000000000000000001011000000000000000000000000000000000000000000000000000000000000000000000000000000000000000000000000000000000000000000000000000000000000000000011111100000100000000000000000010100000000000000000000000110100000000000000000000000000000000000000000000000000000000000000000000000000000000000000000000000000000000000000000000000000000000000000000000000001000100100000000000000000101000000000000000000000000001100000000000000000000000000000000000000000000000000000000000010000000000000000000000000000000000000000000000000000000000110000000000000000000000000101001000000000000000000100000000000000000000000000111110000000000000000000000000000000000000000000000000000000001110000000110000000000000000000000000000000000000000000000010010000000000000000000000001000100000000000000000000000000000000000000000000000000110000000000000110000000000000000000000000000000000000000101010000010010000000000000000000000000000000000000000000000011000000000000000000010000001000100000000000000000000000011000000000000000000000001100000000000010010000000000000000000000000000000000000011100000000101000000000000000000000000000000000000000000000000000000000000000000000100000000101100000000000000000000000111000000000000000000000000110000000000011000000000000000000000000000000000000000011000000000100000000000000000000000000000000000000000000000000000000000000000000001000000011001100000000000000000000010000000000000000000011010101000011100000000000000000000000000000000000000000000000000000000000000000000000000000000000000000000000000000000000000000000000000000000000000000011010000000000000110000000011101000000000000000100101100000000000000000000000000000000000000000000000000000000000000000000000110000000000000000000000000000000000000000000000000000000000000000000000000011000000000000010010000000001011100000000000001100000000000000000000000000000000000000000000000000000000000000000110000000101100000000000000000000000000000000000000000000000000000000000000000000000000100000000000000011000000000011011000000000000001001000000000000000000000000000000000000000000000000000000000000001100000000111000000000000000000000000000000000000000000000000000000000000000000011100000000000000000000000000000010000100000000000000011110000000000000000000000000000000000000000001100000000000000000000000000000011000000000000000001000000000000000000000000000000000000000000000000000000000000000000000000000000001000110000000000000000001000000000000000000000000000000000000000000011000000000000000000000010100000001100000000000000101000000000000000000000000000000000100001110000000000000000000000000000000000000001001000001000000000000110000000000000000000000000000000000000000000000000000000000000000000101100000100100000000000000100000000000000000000000000000000001100100010000000000000000000000000000000000000001000000010000000000001000000000000000000000000000000000000000000000000000000000000000000010000100000010000000000000000000000000000000000000000000000000101010000010000000000000000000000000000000000000000000000100000000000100000000000000000000000000000000000000000000000000000000000000000000010010100001100000000000000000000000000000000000000000000000000110010001000000000000000000000000000000000000110000000000000000000000000000000000000000000000000000000000000000000000000000000000000000001101101100000000000000000000000000000000000000000000000000000000100010100000000000000000000000000000000000010010001100000000000000000000000000011000000000000000000000000000000000000000000000000000000110000000000000000000000000000000000000000000000000000000000001010000000000111000000000000000000000000000000100100100100000000000000000000000000110000000000000000000000000000000000000000000000000000001100000000000000000000000000000000000000000000000000000000000100110000000001110000000000000000000000000000000110000110000000000000000000000000000000000000000000000000000000000000000000000000000000000000000000000000000000000000000000000000000000000000000000000000101000000001000010000000000000000000000000000000000000000000000000000000000000000000000000000000000000000000000000000000000000000000000000000000000000000000000000000000000000000000000000000000000000000000000000101110100000000000000000000000000000000000000000000000000000000000110000000000000000000000000000000000000000000000000000000000000000000000000000000000000000000000000000001000000000000000000000000000001101001000010000000000000000000000000000000000000000000000000000010010000000000000000000000000000000000000000000000000000000000000000000000000000000000000000000000000000101000000000000000000000000000001011100000100000000000000000000000010000000000000000000000000000100100000000000000000000000000000000000000000000000000000000000000000000000000000000000000000000000000001010000000000000000000000011000011000000101000000000000000000000000100000000000000000000000000000110000000000000000000000000000000000000000000000000000000000000000000000000000000000000000000000000000001000000000000000000000011010000000000000000000000000000000000000001000000000000000000000000000000000000000000000000000000000000000000000000000000000000000000000000000000000000000000000000000000000000000000000000000000000011010000110000001110100000000000000000000000000000000000000000000000000000000000000000000000000000000000000000000000000000001100000000000000000000000000000000000000000000000000000000000000000000000000010110000000000000000000000000000000000000000000000000000000000000000001100000000000000000000000000000000000000000000000000101100000000000000000000000000000000000000000000000000100000000000000000000000010000010000000100000000000000000000000000000000000000000000000000000100100000000000000000000000000000000000000000000000001101100000000000000000000000000000000000000000000000001000000000000000000000000000001100000000000000000000000000000000000000000000000000000000000000110000000000000000000000000000000000000000000000000011011100000000000010000000000000001000000000000000000010000000000000000000000000000011000000011001110000000000000000000000000000000000000000000000000000000000000000000000000000000000000000000000000000010010000000000001100000000000000010000000000000000000000000000000000000000000000000000000000010001000000000000000000000000000000000000000000000000000000000000000000000000000000000000000000111000000000011000000000000010100000000000000100000000000000000000000000000000000000000000000011100000000101001110000000000000000000000000000000000000000000000000000000000000000000000000000000000000001001000000000000000001100000000000000000000000000000000000000000000000000000000000000000000000111000000000111100100000000000000000000000000000000000000000000000000000000000000000000000000000000000000100010000000000000000011000000000000000000111000111000000000000000000000000000000000000000000001000000000001000001000000000000000001000000000000000100000000000000000000000000000000010000000000000000000100100000000011000000000000000000001000000000000000000000000000000000000000000000000000000000000000000000001000100000000000000000101000000000000100100000000000000000000000000000000100000000000000000001010000000000110000000000000000100011000000001000000000000000000000000000000000000000000000000000000000000001110000000000000000001001000000000000000010000000000000000000000000000001000000000000000000000000000000000000000000000000000000010000000010000000000000000000000000000000000000000000000000000000000000000000000000000000000001100000000000100001000000000000000000000000000000000000000000000000000000000000000000000000000000000001110110000000100000000000000000000000000000000000000000000000000000000000000000000000000000000000000000000000011110100000000000000000000000000000000000000000000000000000000000000000000000000000000000000001000000000000000000000000000000000000000000000000000000000000000000000000000000000000000000000000000000000000000000000000000000000000000000000000000000000000000000000000000001110000000000000000001000100000000000000000000000000000000000000000000000000000000000000000000000000000001110000000000000000000000001111100000000000011100000000000000000000000000000000000000000000000100001000000000000000001001000000000000000000000000000000000001100000000000000000000000000000000000000000000000000000000000000000000011111100000000000000000000000000000000000000000000000000000000000001101001000000000000000011100000000000000000000000000000000000011000000000000000000000000000000000000000010000010000000000000000000000100001000000000000000100000000000000000000000000000000000000000000000000110000000000000000000000000000000000000000000000000000000000000000000000000000000000000000000000000100000100000000000000000000001101100000000000000001000000000000000000000000000000000111000000000000000000000000000000000000000000000000000000000000000000000000000000000000000000000000000000000000000001000001000000000000000000100011000000000000000000010000000000010000000000000000000000000000100000000000000110000000000000000000000000000000000000000000000000000000000000000000011000000000000000000000000000000000000000000000010100100100000000000000000000000000001010000000000000000000000000001000000000000001010000000000000000000000000000010000000000000000000000000000000110000110000000000000000000000000000000000000000000000101001000000000000000000000000000000010100000000000000000000000000000110000000000000110000110000000000000000011000100000000000000011100000000000001100000000000000000000000000000000000000000000000000000100010000000000111100000000000000000010000000000000000000000000000001100000000000001100010010000000000000000110001100000000000011000000000000011000000000000000000000000000000000000000000000000000000000000100100000001111000000000000000000000000000000000000000000000010110000000000011000000011000000000000000000010000000000000000110001000000000101000000000000000000000000000000000000000000000000000000000000000000000011000000000000000000000000000000000000000000000011010100000000000000000000000000000000000000000000000000000000010000000000000000010000000000000000000000000011100000000000000000000000000000000000000000000000000000000000000000000000000000000000000000100001000000000000000000000000000000000000000000000000000000000100011000000000001100011000000000000000000000000000000000000000000000000000000110000001100000000000000000000000000000000000000000000000001000010000000000000000000000000000000000000000000000000000000000000000000000000000001001000000000000000000000000100000000000000000000000000011001100011001101100000000000000000000000000000000000000000010001000000000000000000000000000000000000000000000000000000000001110011000000000000001010000000000000000000000001000000000000000000000000000000011000000000000100000000000000000000000000000000000000000011100001110000000000000000000000000000000000000000000000000000000001001000000000000001000000000000000000000000010000000000000000000000000000001110000001000001000000000000000000000000000000000000000000000000100011000000000000000000000000000000000000000000000000000000001010000000000000000000000000000000000000000000000000000000000000000000000101000000000000110000000000000000000000000000000000000000000000000110110000000000000000000000000000000000000000000000000000000001000000000000000000000000000000000000000000000000000000000000000000000100010110000010010000000000000000000000000000000000000000000000010000000000000000000000000000000001100000000000000000000000000000000000000000000000000000000000000000000000000000000000000000000000000001100000000000011100000000000000000000000000000000000000000000001010000000000000000000000000000000011000000000000000000000000000000000000000000000000000000000000000000000000000000000000000000000000000000110010100000000000000000000000000000000000000000000000000000010100000000000000000000000000000000000000000000000000000000000000000000000000000000000000000000000000000000000000000000000000000000000000000110001100000000000000000000000000000000000000000000000000000010000000000000000000000000000000000000000000001100000000000000000000000000000000000000000000000000000000000000000000000000000000000000000001100110000000000000000000000000000000000000000000000000000000000000000000000000000000000000000000000000000011000000000000000000000000000000000000000000000000000000000000000000000000000000000000000000010010000000000000000000000000000000000000000000000000000000000000000000000000000000000000000000000000000000000000000000000000000000000000000000000000000000000000000000000000000000000000000000000000000011100000000000000000000000000000000000000000000000000000000000000000000000000000000000000000000000000000000000000000000000000011000000000000000000000000000000000000000000000000000000000000000000000000010000000000000000000000000000000000000000000000000000000000000000000000000000000000000000000000000000000000000000000000000000110000000000000000000000000000000000000000000000000000000000000000000000000000000000000000000000000000000000000000000000000000000000000000000000000000000000000000000000000000000000000000000000000000000000000000000000000000000000000010000000000000000000000000000000000000000000000000000000000000000000000000000000000000000000000000000000000000000000000000000000000000110000000000000000000000000000000000000000000000000000000000000001010000000000000000000000000000000000000000000000000000000000000000000000000000000000000000000000000000000000000000000000000000000000001010000000000000000000000000000000000000000000000000000000000000010100000000000000000000000000000000000000000000000000000000000000000000000000000000000000000000000000000000000011000000000000000000000001000000000000000000000000000000000000000000000000000000000000000010000000000000000000000000000000001100000000000000000000000000000000000000000000000000000000000000000000000001001000000001100000011000000000000000000000000000000000000000000000000000000000000000000000000000000000000000000000000000000011000000000000000000000000011000000000000000000000000000000000000000000000001100000000011000001001000000000000000000000000000000000000000000000000111000000000000110000000110000000000000000000000000000000000000000000000000000000110000000000000000000000000000000000000000000000000000000000000000010100000000000000000000000000000000000000000000000000000000000000001100000010010000000000000000000000000000000000000000000000000000000000000000000000000000100000000000000000000000000000000000000000000010000000000000000000000000000000000000000000000000000000000000000000000000011000000000000000000000000000000000000000000000000000000000000000000000000000011000000000000000000000000000000000000000000000000000000000000000000000000000000000000000000000000000000000000000000000000000000000000000000000000000000000000000000000000000000000000000000000000000000101000000000000000000000000000000000000000000000000000000000000000000000000000000110000000000000000000000000000000000000000000000000000000000000000000000000000000000000000000000000000000000000000000000000000000000000000000000000000000000000000000000000000000000000000000000000000010010000000000000000000000000000000000000000000000000000000000000000000000000000000000000000000000000000000000000000000001100000000000000000000000000000000000000000000000000000000000000000000000000000101000000000000000000000000000000000000000000000000000000000000000000000000000001110000000000000000000000000000000000000011000000000000000000000000000000000000000000000000000000000000000000000000000000100000000000000000000000000000000000000000000000000000000000000000000000000000000000000000000000000000000000000000000000000000000000000000000000000000000000000000000000000000000000000000000000000000000000000000000000000000000000000000000000000000000000001100110000000000000000000000000000000000000000000000000000000000000011000000000000000000000000001000000000000000000000000000000000000000000000000000000000000000000000000001110000000000000000000000000011001100000000000000000000000000000000000000000000000000000000000000110000000000000000000000000101000000000000000000000000000000000000000000000000000000001100000000000000000000000101000000000000001100000000000000000000000000000000000000000000000000000000000000011010010000000000000000000000000001010000110000000000000000000000000000000000000000000000000100100000000000000000000010001000000000000011000000000000100000000000000000000000000000000000000000000000000001001100000000000000000000000000001000010010000000000000000000000000000000000000000000000001010000000000000000000000010100000000000000000000000000010100000000000000000000000000000000000000000000000000000000000000000000000000000000000000000011000000000000000000000000000000000000000001000000001000000000000000000001000010000000000000000000000000000101000000000000000000000000000000000000000000000000000000000000000000000000110011100000000000000000000000000000000000000000000000000000101000000000000000000000000000111100000000000000000000000000000000100000000000000000000000000000000000000000000000000000000000000000000000010101101000000000000000000000000110000000000000000000000000000110000000000000000000000000011000010000000000000000000000000000000000000000000000011000000000000000000000000000000000000000000000011000001110011100000000000000000000000010100000000000000000000000000000000000000000000000000000001101000110000000000000000000000000000000000000000000000110000000000000000000000000000000000000000000001001000000000000000000000000000000000000010000000000000000000000000000000000000000000000000000000001100000100000000000000000000000000000000000000000000000000000000000000000000000000000000000000000000010100000000000000000000000000000000000000000000000000000000000000000000000000000000000000000000000001111001100000000000000000000000000000000000000000000000000000000000000000000000000000000000000000000010000000011000000000000000000000000000000000000000000000000000000000000000000000000000000000000000000000000000111100000000000000000000000000000000000000000000000000000010000000000000000000000000000000000000010000000000000000000000000000000000000000000000000000000000000000000000000000000000000000000000000000001001100000000000000000000000000000000000000000000000000011110000000000000000000000000000000000001010001000000000000000000000000000000000000000000000000000000000000000000000000000000000000000000000000001001100000000000000000000000000000000000000000000000001100011000000000000000000000000000000000110101100000000000000000001100000011000000000000001100000000000000000000000000000000000000000000000000000010010000000000000000000000000000000000000000000001000000000110000000010000000000000000000000000100000000000000000000000011000000110000000000000100100000000000000000000000000000000000000000000000000000011000000000000000000000000000000000000000000000101100100011100000000100000000000000000000000000000000000001110000000000000001000000000000000000101000000000000000000000000000000000000000000000000000001100000000000000000000000000000100000000000000001001000000000000000001000000000000000000000000001100000000010001000000000000101000000000000000000100000000001000000000000000000000000000000000000000011111000000000000000000000000000001000000000000000010010110000000000110000000000000000000000000000100100000000100010000000000001001000000000000000000000000000101000000000000000000000000000000000000011110000000000000000000000000000000010000000000000000000011000000000001100000000011000000000000000000101000000000011000000000000001100000000000011100000000000001010000000000000000000000000000000000001110101000001110000000000000000000000000000000000000110001100000000000000000000110100011100000000000000100000000000000000000000000000000000001110000000000000000001000000000000000000000000000000000000101011000010010100000000000000000000000000000000000000111011000000000000000000000000000101101000000000000000000000000000000000000000000000000011000000000000000000000000000000000000000000000000000001101010010011101001000000000000000000000000000000000000000111110111000000000000000011000001010010000000110000000000000000000000000000000000000000100100000000000000000000000000000000000000000000000000000010100110110010110000000000000000000000000000000000000000011110111000000010000000000000000110000000010010000000000000000000000000000000000000000001000000000000000000000000000000000000000000000000000000001101100011001000000000000000000000000000000000000000000001110001000000000000000000000101010000000100100000000000011011011100000000000000000010001000000000000000000000000000000000000000000000000000000000000000001100000000000000000000000000000000000000000000110111000000000000000000000010001100000000110000000000000001000000000000000000000001101111100000000000000000000000000000000000000000000000000000010000000000000000000000000000000000000000000000000000000100011110000000000000110000100000000000000000000000000000000000000000000000000000011001001000000000000000000001000000000000000000000000000000000010000000000000000000000000000000000000000000000000000000111010100000101000001100000001000000000000000000000000100000000001000000000000000010100010000000000000000000101000000000000000000000000000000000000000000000000000000000000000000000000000000000000000000000110000000110000000000000000000000000000000000000000101000000000000000000000000011111000000000000000000001010000000000000000000000000000000000000000000000000000000000000000000000000000000000000000000011000000000000000000000000000000000000000000000000000100011011000000000000000000011000000000000000000000001000000000000000000000000000000000000000000000000000000000000000000000000000000000000000000000000000000000000000000000000000000000001000000000000000000001000000000000000000000000000000000000000000000000000000000000000000000000000000000000000000000000000000110000000000000000000000000000000000001000000000000000000000000000000000000010000000000000000000000000000000000000000000000000000000000000000000000000000000000000000000000000010000000000000000000000001100000000000000000000000000000000000110000000000000000000000000000000000000100000000000000000000000000000000000000000000000000000000000000000000000000000000000000000000000000100000000000000000000000000000000000000000000000000000111000001100000000000000011000000000000000000000000000000000000000000000000000000000000000000000000000000000000000000000000000000000000000000000001000000000000000000000000000000000000000000000000000000000000000000000000000001001000000001100000000000000000001100000000000000000000000000000000000000000000000000000000000000000000000000000000000000000000000000000000000000000000000000000000000000000000000000000000000000000000010010000000101000000000000000000110000000000000000000000000000000000000000000000000000000000000000000000000000000000000000000000000000000000000000000000000000000000000000000000000000000000000000000000011000000000100000000000000000000010000000000000000000000000000000000000000000000000000000000000000000000000000000000000000000000000000000000000000000001100000000000000000000000000000000000000000000000000000000000000000000000000000000000000000000000000000000000000000000000000000000000000000000000000000000000000000000000000000000000000000110000000000100100000000000000000000000000000000000000000000000000000000000000000000100000000000000000000000000000000000000000000000000000000000000000000000000000000000000000000000000000000000000000001100000000000110000000000000000000000000000000000000000000000000000000000000000000010100000000000000000000000000000000000000000000000000000000000000000000000000000000000000000000000000000000000000000000000000000000000000000000000000000000000000000000000000000000000000000000000000001010000000000000000000000000000000000000000000000000000000000000000000000000000000000000000000000000000000000000000000000000000000000000000000000000000000000000000000000000000000000000000000000000000101000000000000000000000000000000000000000000000000000000000000000000000000000000000000000000000000000000000000000000000000000000000000000000000000000000000000000000000000000000000000000000000000000000100000000000000000000000110000000000000000000000000000000000000000000000000000000000000000000000000010000000000000000000000000000000000000000000000000000000000000000000000000000000000000000000000000000000000000000000000000001100000000000000000000000000000000000000000000000000000000000000000000000000100000000000000000000000000000000000000000000000000000000000000000000000000000000000000000000000000000000000000000000000000000000000000000000000000000000000000000000000000000000000000000000000000000001000000000000000000000000000001000000000000000000000000000000000000000000000000000000000000000000000000000000000000000000000000000000000000000000000000000000000000000000000000000000000000000000000000000000000000000000000000000000101000000000000000000000000000000000000000000000000000000000000000000000000000000000000000000000000000000000000000000000000000000000000000000000000000000000000000000000000000000000000000000000000000001010000000000000000000000000000000000000000000000000000000000000000000000000000000000000000000110000000000000000000000000000000000000000000000000000000000000000000000000000000000000000000000000000000001000000000000000000000000000000000000000000000000000000000000000000000000000000000000000000000000000000000000000000000000000000000000000000000000000000000000000000000011100000000000000000000000000000000000000000000000000000000000000000000000000110000000000000000000000000000000000000000000000000000000000000000000000000000000000000000000000000000000000000000000000000000000000000000000000000000000000000000000000000011000000000000000000000000001100000000000000000000000000000000000000001100000000000000000000000000000000000000000000000000000000000000000000000000000000000000000000000000000000000000000000000000000000110000111000000000000000000000000000000000000000000000000000000000000101000000000000000000000000000000000000000000000000000000000000000000000000000000000000000110000000000000000000000011000000000000000000000000000000000000000000000000000000000000000000000000000000000011010000000000000000000000000000000000000000000000000000000000000000000000000000000000000001010000000000000000000000110000000000000000000000000000000000000000000000000000000000000000000000000000000000011000000000000000000000000000000000000000000000000000000000000000000000000000000000000000001100000000000000000000000000000000000000000000000000000000000000000000000000000000000000000000000000000000000010000000000000000000000000000000000000000000000000000000000000000000000000000000000000000000000000000000000000000000000000000000000000000000000000000000000000000000000000000000000000000000000000000000000000000000000000000000000000000000000000000000000000000000000000000