P1
200 200
0000000000000000000000000000000000000000000000000000000000000000000000000000000000000000000000000000000000000000100000000000000000000000000000000000000000000000000000000000000000000000010000000000000000000000000000000000000000000000000000000000000000000000000000000000000000000000000000000000000000000000010000010100000000000000000000000000000000000000000000000000000000000000000000001010000000000000011000000000000000000000000000000000000000000000000000000000000000000000000000000000000000000000000000001010000100100000000100000000000000000000000000000000000000000000000000000000000010100000000000000010000000000000000000000000000000000000000000000000000000000000000000000000000000000000000000000000000011000000110000000010100000000000000000000000000000000000100000000000000000000000010000000000000010000011100000000000000000000000000000000000000000000000000000000000000000000000000000000000000000000000000000000000000000101000000000000000000000000000011100010100000000000000000000000000011100000000100000001000000000000000000000000000000000000000000000000000000000000000000000011000000000000000000000000000000000000000000100000000000000000000000000000000000100100000000000000000000000000000000000001010010001000000000000000000000000000000000000000000000000000000000000000000000110000000000000000000000000000000000000000000000000000000000000000000000000000000110000000000000000000000000000000000000010110100000000000000000000000000000000000000000000000000000000000000000000000000000000000000000000000000000000000000001100000001100000000000000000000000000000000000000000001100000000000000000000000000100100010100000000000000000000000000000000000000000000000000000000000000000000000000000000000000000000000000000000000100100000100100000000000000000000000000000000000000000011000000000000000000000000001000100010000000000000000000000000000000000000000000000000000000000000000000000000000000000000000000000000000000000000110000000110000000000000000000000000000000000000000000000000000000000000000000000010110000000000000000000000000000000000000000000000000000000000000000000000000000000000000000000000000000000000000000000000000000000000000000000000000000000000000000000000000000000000000000000001100000101100000011000000000000000000000000000000000000000000000000000000000000000000000000000000000000000000000000000000000000000100000000000000000000000000000000000000000000000000000000000000000000100100000100000000110000000000000000000000000000000000000000000000000000000000000000000000100000000000000000000000000000000000000010100000000000000000000000000000000000000000000000000000000000000000000000000000000000000000000000000000000000000000000000000000000000000000000000000000000000001000000000000000000000000000000000000000101000000000000000000000000000000000000000000000000000000011000000000000010000000000000000000000000000000000000000000000000000000000000110000000000000000000000010000000000000000000000000000000000000000100000000000000000000000000000000000000000000000000000001001000000000010110000001100000000000000000000000000000000000000000000000000010010000000000000000000000000000000000000000000000000000000000000000000000000000000000000000000000000000000000000000000000010100000000011010000001011000000000000000000000000000000000000000000000000000101000000000000000000011100011100000000000000000000000000000000000000000000000000000000000000000000000000000000000000000000010000000000011000000011000000000000000000000000000000000000000000000000000000100000000000000000000000000000000000000000000000000000000000000000000000000000000000000000000000000000000000000000000000000000000000000100000000000000000000000000000000000000000000000000000000000000000000000000000000000000000000000000000000000000000000000000000000000000000000000000000000000000000000000000000000011000000000000000000000000000000000000000000000000000000000000000000000000000000000000000000000000000000000000000000000000000000000000000000000000000000000000000000000000000000000000000000000000000000110000000000100000000000111000000000000000000000000000000000000000000000000000000000000000000000000000000000000000000000000000000000000000000000000000000000000000000000000000000000000000000000000000000000000000001000000000001010000000000000000000000000000000000000000000000000000000000000000000000000000000000000011000000000000000000000000000000000000000000000000000000000000000000000000000000000000000000000000010000000000111000000000000000000000000000000000000000000000000000000000000000000000000000000000000000101100000000000000000000000000000000000000000000000000000000011100000000000000000000000000000000000000001100000000000000000000000000000000000000000000000000000000000000000000000000000000000000000000011010110000000000000000000000000000000000000000000000000000001000100000000000000000000000000000000000001000000000000000000000000000000000000000000000000000110000000000000000000000000000000000000000000001101100000000000000000000000000000000000000000000000000000100000100000000000000000000000000000000000111000100000000000000000000000000000000000000000000010010000000000000000000000000000000000000000000110011000000000000000000000000000000000000000000000000000001100000000000000000000000000000000000000011000001000000000000000000000000000000000000000000000100100000000000000000000000000000000000000000000101000000000000000000000000000000000000000000000000000000001001100000000000000000000000000000000000010000000000000000000000000000000000000000000000000000110000000000000000000000000000000000000000000001110000000000000000000000000000000000000000000000000000000011100000000000000000000000000000000000000011100000000000000000000000000000000000000000000000000000000000000000000000000000000000000000000000000000000000000000000000000000000001000000000000000000000000010101100001100000000000000000000000000000000000011000000000000000000000000100001100000000110000000000000000000000000000000000000000000100000000000000000000000000000000000000101000000000000000000000011111000100011000000000000000000000000000000000001110000000000000000000000000001100100000001100000000000000000000000000000000000000000011000000110000000000000000000000000000001010000000000000000000001010010000000000000000000000000000000000000000000001010000000000000000000000000011011000000000000000000011000000000000000000000000000000000000001100000000000000000000000000000001000000000000000000000110100001101000000000000000000000000000000000000000011010000000000000000000000000011100000000000000000001001000000000000000000000000000000000000000000000000000000000000000000000000000000000000000000000110000000100000000000000000000000000000000000000000010100000000010000000000000000000000000000000000000010100000000000000000000000000000000000000000000000011000000000000000000000000000000000000000000000100110000000000000000000000000000000000000000000000100000000001010000000000000000000000000000000000000010000000000000000000000000000000000000000000000001001000000000000000000000000000000000000000000000001100000000000000000000000001000000000000000000000111000000010010000000011000000000000000000000000000000000000000000000000000000000000000000000000000001100000000000000000000000000000000000000000000000100000000000000000000000000101000000000000000100001001000000011000000111011111000000000000000000000000000000000000000000000000001000000000000000000000000000101000000000000000000000000000000000000000000110000000000000000000000001010000000000000001000010010000000000000010011110001000000000000000000000000011000000000000000000000010000000000000000000000000001001000000000000000000000000000000000000100001100000000000000000000000001000000000000000101000110000000000000001000100101100000000000000000000000000110000000000000000000000100000000000000000000000000010100000000000000000000000000000000000010100000000000000000000000000000000000001110000000100000000000000000000001110110000000000000000000000000000000000000000000000000000000000000000000000000000000000000000000000000000000000000000000000000101000000000000000000000000000000000000000000000001000000000000000000000000000000000000000000000000010000000000000000000000000000000000000000000000000000001110000000000000000000000000000000000000000000100000000000000000000000000000000000000000000000000000000000000000000000000000000000000000000000001010000000000000000000000000000000000000000000000000000010011000000000000000000000000000000000000000000000000000000000000000000000000000000000000000000000000000000000000000000000000000000000000000000010010000000000000000000000000000000000000000000000000000100001000000000000000000000000000000000001100000001100000000000000000000000000000000000000000000000000000000000000000000000000000000000000011000011000000000000000000000000000000000000000000000000000000100001000000000000000000000000000000000100100000100100000000000000000000000000000000000000000000000000000000000000000000000000000000000000110000000000000000000000000000000000000000000000000000000000000100100000000000000000000000000000000000110000000110000000000000000000000000000000000000000000000000011000000000000000000000000000000000000000000000000000000000000000000000000000000000000000000000000000000000000000000000000000000000000000000000000000000000000000000011000000000000000000000000000000000110000000000000000000100000000000010000000000000000000000000000000000000000000000000000000000000000000000000000000000000000000000000000000000000100000000000000000001001000000000000000000000000000000000000000000000000000010110000000000100000000000000000000000000000000000000000000000000000000000000000000000000000000000000000000000000000000000011100000000000000000001100000000000000000000000000000000000000000000000001000000100000000001000000000000000000000000000000000000000000000000000000000000000000010000000000000000000000000000000000000000101000000000000000000000000000000000000000000000000000000000000000000000010000000100000000000000000000000000000000000000000000000000000000000000000000000000000100000000000000000000000000000000000101100000000000000000000000000000000000000000000000000000000000000000000000000100101100110001110001110000000000000000000000000000000000000000000000000000000000000001000000000000000000000000000000000001010000000000000000000000000000000000000000000000000000000000000000000000000000000011111000000000000000000000000000000000000000000000000000000000000000000000000000000000000000000000000000000000000000100000000000010000100000000000000000000000000000000000000000000000000000000000000000000100000000010000000000000000000000000000110000000000000000000000000000000000000000000000000000110000000000000000000110000000001000001001110000000000000000000000000000000000000000000000000000000000000000000000000100000000000000110000000000001100000000000000000000000000000000000000000000000000001100000000000000000000100000000010011100000100000000000000000000000000000000000000000000000000000000000000000000000001000000000000001100000000000000000000000000000000000000000000000000000000000000000000000000000000000000000000000000000000000111000000000000000000000000000000000000000000000000000000000000000000000000000000000000000000000000000000000000000000000000000000000000000000000000000000000000000000000000000000000000000000000000000000000000000000000000000000000000000000000000000000000000000000000011000000000000000000000000000000000000000000000000000000000000000000000000000000000001110000000000000000000000000000000000000000000000000000000000000000000000000000000000000000000000000000000000000000110001000000000000000000000110000011000000000000000000000000000000000000011000000000000000000000000000000000000000000000000000000000000000000000000000000000000000000000000000000000000000000000000000010011111000000000000001100010010000110000000000000000000000000000000000000101000000000000000000000000000000000000000000000000000000000000000000000000000000000000000000000000000000000000000000000000000001110001000000000000011000010100000000000000000000000000000000000000000000100000000000000000000000000000000000000000000000000000000000000000000000000000000000000000000000000000000000011000000000000000110011100000000000000000000010000000000000000000000000000000000000000000000000000000000000000000000000000000000000000000000000000000000000000000000000000000000000000000000000000000001001000000000000000000110000000000000000000000000000000000000000000000000001110000000000000000000000000000000000000000000000000000000000000000000000000000000000000000000000000000000000000000000000000010010000000000000001010000000000000000000000000000000000000000000000110000100000000000000000000000000000000000000000000000000000000000000000000000000000000000000000000000000000000000000000110000000000011000000000000000010000000000000000000000000000000000000000000000001100000001000000000000000000000000000000000000000001100000111000000000000000000000000000000000000000000000000000000000001100000000000000000000000000000011100000000000000000000000000000000000000000000000001000100000000000000000000000001100000000000000011000000000000000000000000000000000000000000000000000000000000000000000000000000000000000000000000000100000000000000000000000000000000000000000000000000100100000000000000000000000000100100000000000000000000000000000000000000000000000000000000000000000000000000000000000000000000000000000000000000010110000000000000000000000000000000000000000000000000000010000000000000000000000000000110000000000000000000000000000000000000000000000000000000000000000000000000000000000000000000000000000000000000000100010000000000000000000000000100000000000000000000010011000000000000000000000000000000000000000000000000000000000000000000000000000000000000000000000000000000000000000000000000000000000000000000000001001000000010000000000000000010100000000000000000000110111011000000000000000000000000000000000000000000000000000000000000000000000000000000000000000000000000000000000000000000000000000000000000000000000100000011010011000000000000101000000000000000000000001110001110000000000000000000000000000000000000000000000000000000000000000000000000000000000000000000000000000000000000000000110000000000000000000000000000100100110000000000000100000000000000000000000000101100010000000000000000000000000000000000000000000000000000000000000000000000000000000000000000000000000000000000000000010010000000000000000000000000001110000000000000000000000000000000000000000000000100000100000000000110000000000000000000000000000000000000000000000000000000000000000000000000000000000000000000000000000011000000000000000000000000000000000000000000000000000000000000000000000000011000111010100000000010010000000000000000000000000000000000000000010000000000000000000000000000000000000000000000000000000000000000000000000000000010000000000000000000000000000000000000000000000000000001111100011000000000011000000000000000000000000000000000000000011100000001100000000000000000000000000000000000000000000000000000000000000000000001101100000000000000000000000000000000000001100000000000011000000010000000000000000000000000000000000000000000000000000100100001100110000000000000000000000000000000000000000000000000000000000000000000001011000000000000000000000110000000011000100100000000000010000000000000000000000000000000000000000000000000000000000011000001000000010000000000000000000000000000000000000000000000000000000000000000000001100000000000000000000010010000001001001001000000000001101110000000000000000000000000000000000000000000000000000000110101011110000100000000000000000000000000000000000000000000000000000000000000000000011000000000000000000000011000000001010010100000000000010010000000000000000000000000000000000000000000000000000000000100010100000110000000000000000000000000000000000000000000000000000000000000000000001110000000000000000000000000000000001000101000000000000010000000000000000000000000000000000000000000001100000000000000101001100000000000000000000000000001000000000000000000000000000000000000000000000001001000000000000000000000000000000000000000000000000000000000000000000000000000000000000000000000000011000000000000001000010000100000000000000000000000101000000000000000000000000000000000000000000000001000000000000000000000000000000000000000001000000000000000000000000000000000000000000000000000000000000000000000000001001000011001010000000000000000000100000000000000000000000000000000000000001100000000000000000000000000000000000000000000000010000000001100000000000000000000000000000000000000000000000000000000000000010010000111000110000000000000000000000000000000000000000000000000000000111010100000000000000000000000000000000000000000000000100000000011000000000000000000000000000000000000000000000000000000000000000000000000110101000000000000000000000000000000000000000000000000000000000000010000000000000000000000000000000000000110000000000000000000000000000000000000000000000000000000000000000000000000000000000000000000001001000000000000000000000000000000000000000000000000000000001001101100000000000000000000000000000000000010010001100000000000000000000000000011000000000000000000000000000000000000000000000000000000000010100000000000000000000000000000000000000000000000000000000011100101000110000000100000000000000000000000100100100100000000000000000000000000110000000000000000000000000000000000000000000000000000000000011000000000000000000000000000000000000000000000000000000000000000111001100000111000000000000000000000000110000110000000000000000000000000000000000000000000000000000000000000000000000000000000000000000000000000000000000000000000000000000000000000000000000000000000010110001000011000000000000000000000000000000000000000000000000000000000000000000000000000000000000000000000000000000000000000000000000110000000000000000000000000000000000000000000000000000000000000001101100001001100000000000000000000000000000000000000000000000000000000110000000000000000000000000000000000000000000000000000000000000001100000000000000000000000000000000000001000000000000000000000000000011000000000100000000000000000000000000000000000000000000000000000010010000000000000000000000000000000000000000000000000000000000000000000000000000000000000000000000000000101000000000000000000000010011111000100010000000000000000000000000010000000000000000000000000000100100000000000000000000000000000000000000000000000000000000000000000000000000000000000000000000000000001010000000000000000000000110100100000001110000000000000000000000000100000000000000000000000000000110000000000000000000000000000000000000000000000000000000000000000000000000000000000000000000000000000001000000000000000000000000011110000000001000000000000000000000000001000000000000000000000000000000000000000000000000000000000000000000000000000000000000000000000000000000000000000000000000000000000000000000000000000000000000000011100000010010000000000000000000000000000000000000000000000000000000000000000000000000000000000000000000000000011000010000000000000000000000000000000000000000000000000000000000000000000000000000000011000100000011100000000000000000000000000000000000000000000000000001100000000000000000000000000000000000000000100111001010000000000000000000000000000000000000000000000000000100000000000000000000000001010011100000011000000000000000000000000000000000000000000000000000100100000000000000000000000000000000000000010100100000000000000000000000000000000000000000000000000000000001000000000000000000000000110111100110110001000000000000000000000000000000000000000000000000000110000000000000000000000000000000000000000101000011000000000000000000010000000000000001000000000000000000010000000000000000000000010000001000010000000000000000000000000000000000000000000000000000000000000000000000000000000000000000000000000000000000101110000000000000000001000000000000010000000000000000000000000000000000000000000011000000001000000001000000000000000000000000000000000000000000000000000000000000000000000000000000000000000000000000100000000000000000000000010000000000000100000000000000000000000000000000000000000000010000011001101101110000000000000000000000000000000000000000000000000000000000000000000000000000000000000000000010100000000000000001100000000011000000000000000000000000000000000000000000000000000000000000000011000100001000000000000000000000000000000000000000000000000000000000000000000000000000000000000000000000111000000000000000011000000001010000000111000111000000000000000000000000000000000000000000000000000000000000000000000000000000001000000000000000000000000000000000000000000000000010000000000000000000000100000000011110000000000000001110000000000000000000000000000000000000000000000000000000000010100000000000000000000000000000000101000000000000001110000000000000000000000000000000100000000000000000000000000000000011111000000000000000100000000001000000000000000000000000000000000000000000000000010000000000000000000000000000000001001000000000000001000000000000000000000000000000001000000000000000000000000000000000010110000000000000110000000000010000000000000000000000000000000000000000000000000000000000000000000000000000000000001100000000000001000000000000000000000000000000000000000000000000000000000000000000000000000000000000001100000000000100000000000000000000000000000000001000000000000000000000000000000000000000000000000000000000000000111000000000000000000000000000000000000000000000000000000000000000000000000000000000000000000000000000000000000000000000000000000000000010000000000000000000000000000000000000000000000000000000000000000000000000000000000000000000000000000000000000000000000000000000000000000000000000000000000000000000000000000000000000001100000000000000000000000000000000000000000000000001110000000000000000000000000011100000000000011100000000000000000000000000000000000000000000000011100000000000000000000000000000000000000000000000000100100001100000000000000000000000000000000000000000000000000000000000000000000000001110000000000000000000000000000000000000000000000000000000000001000100000000000000000000000000000000000011000000000000000100011000000000000000000000000000000000000000010000010000000000000000000000000010010000000000000100000000000000000000000000000000000000000000010001000000000000000000000000000000000001001000000000001010000000000000000000000000000000000000000000000100000100000000000000000000000000011000000000000001000000000000000000000000000000000111000000011000010000000000000000000000000000000000000001000000000000000000000000000000000000000000000000000000000001000001000000000000000000100001110000000000000000010000000000010000000000000000000000000000001100111000000000000000000000000000000000000000001000000000111000000000000000000000011000000000000000000000000000000000000000000000010100010100000000000000000000000000001010000000000000000000000000000110100000000011000000000000000000000000000100000000000000000000000000000000000110000110000000000000000000000000000000000000000000000101000011000000000000000000000000000010100000000000000000000000000010000000000000110000000110000000000000000001100000100000000010010000000000000001100000000000000000000000000000000000000000000000000000100000000001000000000000000000000000010000000000000000000000000001100100010100000000000010010000000000000000001000110000000000011100000000000011000000000000000000000000000000000000000000000000000000000000000001111000000000000000000000000000000000000000000000000000111000000100100011000000011000000000000000000000010000000000000000000000000000101000000000000000000000000000000000000000000000000000000000000000110001000000000000000000000000000000000000000000000000000110011110001000110000000000000000000000000000000000000000000000000000000000000010000000000000000000000000011100000000000000000000000000000000010001100011000000000000000000000000000000000000000000000000100010100010000000000000000000000000000000000000000000000000000000000000000001100011000000000000000000000000000000000000000000000000000000000011110000101100000000000000000000000000000000000000000000000100111001000000000000000000000000000000000000000000000000000000000000000000000001001000000000000000000000000100000000000000000000000000001000010000000111000000000000000000000000000000000000000000000000100001100000000000000000000000000000000000000000000000000000000011000000000000001010000000000000000000000001000000000000000000000000000101000000000000100000000000000000000000000000000000000000000000000000000000000000000000000000000000000000000000000000000000000001001000000000000001000000000000000000000000010000000000000000000000000001001000000000000000000000000000000000000000000000000000000000000000000000000000000000000000000000000000000000000000000000000000001010000000000000000000000000000000000000000000000000000000000000000000001010000000000000000000000000000000000000000000000000000000000000000000000000000000000000000000000000000000000000000000000000000001000000000000000000000000000000000000000000000000000000000000000000000011100100000000000000000000000000000000000000000000000000000000010000000000000000000000000000000001100000000000000000000000000000000000000000000000000000000000000000000000000000000000000000000000000000000010100000000000000000000000000000000000000000000000000000001010000000000000000000000000000000011000000000000000000000000000000000000000000000000000000000000000000000000000000000000000000000000000000000101000000000000000000000000000000000000000000000000000000010100000000000000000000000000000000000000000000000000000000000000000000000000000000000000000000000000000000000000000000000000000000000000000000100000000000000000000000000000000000000000000000000000000010000000000000000000000000000000000000000000001100000000000000000000000000000000000000000000000000000000000000000000000000000000000000000000000000000000000000000000000000000000000000000000000000000000000000000000000000000000000000000000000000000011000000000000000000000000000000000000000000000000000000000000000000000000000000000000000000000000000000000000000000000000000000000000000000000000000000000000000000000000000000000000000000000000000000000000000000000000000000000000000000000000000000000000000000000000000000000000000000000000000000000000000000000000000000000000000000000000000000000000000000000000000000000000000000000000000000000000000000000000000000000011000000000000000000000000000000000000000000000000000000000000000000000000000000000000000000000000000000000000110000000000000000000000000000000000000000000000000000000000000000000000000000000000000000110000000000000000000000000000000000000000000000000000000000000000000000000000000000000000000000000000000000001100000000000000000000000000000000000000000000000000000000000000000000000000000000000000000000000000000000000000000000000010000000000000000000000000000000000000000000000000000000000000000000000000000001000000000000000000000000000000000000000000000000000000110000000000000000000000000000000000000000000000000000000000000001010000000000000000000000000000000000000000000000000000000000000000000000000000001000000000000000000000000000000000000000000000000000001010000000000000000000000000000000000000000000000000000000000000010100000000000000000000000000000000000000000000000000000000000000000000000000000001100000000000000000000000000011000000000000000000000001000000000000000000000000000000000000000000000000000000000000000010000000000000000000000000000000001100000000000000000000000000000000000000000011000000000000000000000000000001001000000001100000011000000000000000000000000000000000000000000000000000000000000000000000000000000000000000000000000000000011000000000000000000000000011000000000000000100001000000000000000000000000001100000000011000001001000000000000000000000000000000000000000000000000111000000000000110000000110000000000000000000000000000000000000000000000000000000110000000000000010000010000000000000000000000000000000000000000000010100000000000000000000000000000000000000000000000000000000000000001100000010010000000000000000000000000000000000000000000000000000000000000000000000010000000000000000000000000000000000000000000000000010000000000000000000000000000000000000000000000000000000000000000000000000011000000000000000000000000000000000000000000000000000000000000000000000001000101000000000000000000000000000000000000000000000000000000000000000000000000000000000000000000000000000000000000000000000000000000000000000000000000000000000000000000000000000000000000000000000000110100011000000000000000000000000000000000000000000000000000000000000000000000000000000110000000000000000000000000000000000000000000000000000000000000000000000000000000000000000000000000000000000000001000010110000000000000000000000000000000000000000000000000000000000000000000000000000010010000000000000000000000000000000000000000000000000000000000000000000000000000000000000000000000000000000000000000011100000000000000000000000000000000000000000000000000000000000000000000000000000000101000000000000000000000000000000000000000000000000000000000000000000000000000001110000000000000000000000000000000100111011000000000000000000000000000000000000000000000000000000000000000000000000000000100000000000000000000000000000000000000000000000000000000000000000000000000000000000000000000000000000000000000001000001110000000000000000000000000000000000000000000000000000000000000000000000000000000000000000000000000000000000000000000000000000000000001100110000000000000000000000000000000000000000000000000000000010000000000000000000000000000000001000000000000000000000000000000000000000000000000000000000000000000000000001110000000000000000000000000011001100000000000000000000000000000000000000000000000000000011011000000000000000000000000000000101000000000000000000000000000000000000000000000000000000001100000000000000000000000000000000000000001100000000000000000000000000000000000000000000000000000000000000001110000000000000000000000000000001010000110000000000000000000000000000000000000000000000000100100000000000000000000000000000000000000011000000000000100000000000000000000000000000000000000000000000000001000000000000000000000000000000001000010010000000000000000000000000000000000000000000000001010000000000000000000000000000000000000000000000000000010100000000000000000000000000000000000000000000000000000000000000000000000000000000000000000011000000000000000000000000000000000000000001000000001000000000000000000000000010000000000000000000000000000101000000000000000000000000000000000000000000000000000000000000000000000000000000010000000000000000000000000000000000000000000000000000101000000000000000000000000000000001010000000000000000000000000000100000000000000000000000000000000000000000000000000000000000000000000000000000000100000000000000000000000110000000000000000000000000000110000000000000000000000000000000100010000000000000000000000000000000000000000000011000000000000000000000000000000000000000000000001000000000000100000000000000000000000010100000000000000000000000000000000000000000000000000000000000001000111100000000000000000000000000000000000000000110000000000000000000000000000000000000000000000101000000011101111000000000000000000000010000000000000000000000000000000000000000000000000000000000000010110111100000000000000000000000000000000000000000000000000000000000000000000000000000000000000010010000000000100000010100000000000000000000000000000000000000000000000000000000000000000000000000000000011110000000000000000000000000000000000000000000000000000000000000000000000000000000000000000000011000100000100110000001000000000000000000000000000000000000000000000000000000000000000000000000000000000000011000000000000000000000000000000000000000000000000000000000000000000000000000000000000000000000110100011101100000100000000000000000000000000000000000000000000000000000000000000000000000000000000000000000000000000000000000000000000000000000000000000000000000010000000000000000000000000000000000001001000011000001110000000000000000000000000000000000000000000000000000000000000000000000000000000000000000010010000000000000000000000000000000000000000000000000011010000000000000000000000000000000000011111001000000000000000000001100000011000000000000001100000000000000000000000000000000000000000000000000000011100000000000000000000000000000000000000000000000001010110000000000010000001100000000000000001011000000000111000000100011000000110000000000000100100000000000000000000000000000000000000000000000111000000000000000000000000000000000000000000000000000000110001100000000000100000000000000000000000001110000000001000000011000000000000000000000000000101000000000000000000000000000000000000011010000010111000010000000000000000000000000000100000000000000000100101001000000000001000000000000000000000000000000110000000111110000000000000000000000000000000100000000001000000000000000000000000001000000000101010001010001000000000000000000000001000000000000000011011010000000000110000011000000000000000000000000000001000011111000100000000000000000000000000000000000000101000000000000000000000000000000011000000000010000010000000000000000000000010000000000000001110110011000000001100000110011000000000000000000000000010000100100010000000000000000000000011100000000000001010000000000000000000000000100000001000000000000000010000000000000000000000000000000000000001101100000000000000000000001100000000000000000000010000000001111101000000011000000000000000000000000000000001000000000000000000000000000000111100001111100111000000000000000000000000000000000000000000000100000000011000000000000000100010000000000000000010000100000101000000000101111011000000000000000000000000000000000000000000000000000000000110000111000000000111000000000000000000000000000000000000000000000000000111100000001000000001011000000000110000010000010000000000000000000000000000111000000000000000000000000000000000000000000011000000000000100000011001000000000000000000000000000000000000000000000000000000011000000101111000110010000000010010000001001011000000000000000000000100001110000000000000000000000000000000000000000000110000000000000110000111010000000000000000000000000000000000000000000000000000000001100010000001001101100000000100100000000000100000000000000000000001000010110000000000000000000000000000000000000000001010000000000001100000010000000000000000000000000000000000000000000000000011100000001000010100010010100000000000110000000011011100000000000000000000011000000111000000000000000000000000000000000000000001111000000000000000000000000000000000000000000000000000000000000000000000000110000010000000101100100000000000000000000000000001101110000000001010000010001011000000000000000000000001000000000000000000000100000000000000000000000000000000000000000000000000000000000100000000000101010001000000000100010000000000000000000000000011000100010000000000000000010001000000000000000000000000101000000000000000000000000000000000000000000000000000000000000000000000000000000000100000000000010101000000000001111000000000000000000000000000010011100100000000000000000111100000000000000000000000001010000000000000000000000000000000000000000000000000000000000000000000000000000000001000000000000000000000000000001000000000000000000000000000000010010110000000000000000001001000000000000000000000000001000000000000000000000000000000000000000000000000000000000000000000000000000000000000000000000000000000000000000010000000000000000001000000000000010000000000000000000000001100000000000000000000000000000000000000000000000000000000000000000000000000000000000110000000000000000000000000000000000000000000000000000000000000000000000000010000000000000000000000000000000000000000000000000000000000000000000000000000000000000000000000000010000000000000000000000001100000000000000000000000000000000000110000000000000000000000000000000000000100000000000000000000000000000000000000000000000000000000000000000000000000000000000000000000000000100000000000000000000000000000000000000000000000000000111000001100000000000000011000000000000000000000000000000000000000000000000000000000000000000000000000000000000000000000000000000000000000000000001000000000000000000000000000000000000000000000000000000000000000000000000000001001000000001100000000000000000000000000000000000000000000000000000000000000000000000000000000000000000000000000000000000000000000000000000000000000000000000000000000000000000000000000000000000000000010010000000101000000000000000000000000000000000000000000000000000000000000000000000000000000000000000000000000000000000000000000000000000000000000000000000000000000000000000000000000000000000000000000011000000000100000000000000000000000000000000000000000000000000000000000000000000000000000000000000000000000000000000000000000000000000000000000000000001100000000000000000000000000000000000000000000000000000000000000000000000000000000001100000000000000000000000000000000000000000000000000000000000000000000000000000000000000000000000000000110000000000100100000000000000000000000000000000000000000000000000000000000000000000100000000000110000000000000000000000000000000000000000000000000000000000000000000000000000000000000000000000000000001100000000000110000000000000000000000000000000000000000000000000000000000000000000010100000000000010000000000000000000000000000000000000000000000000000000000000000000000000000000000000000000000000000000000000000000000000000000000000000000000000000000000000000000000000000000000000001010000000000000000000000000000000000000000000000000000000000000000000000000000000000000000000000000000000000000000000000000000000000000000000000000000000000000000000000000000000000000000000000000000101000000000000000000000000000000000000000000000000000000000000000000000000000000000000000000000000000000000000000000000000000000000000000000000000000000000000000000000000000000000000000000000000000000100000000000000000000000110000000000000000000000000000000000000000000000000000000000000000000000000010000000000000000000000000000000000000000000000000000000000000000000000000000000000000000000000000000000000000000000000000001010000000000000000000000000000000000000000000000000000000000000000000000000100000000000000000000000000000000000000000000000000000000000000000000000000000000000000000000000000000000000000000000000000000000000000000000000000000000000000000000000000000000000000000000000000000001000000000000000000000000000001000000000000000000000000000000000000000000000000000000000000000000000000000000000000000000000011000000000000000000000000000000000000000000000000000000000000000000000000000000000000000000000000000000101000000000000000000000000000000000000000000000000000000000000000000000000000000000000000011000000000000000000000000000000000000000000000000000000000000000000000000000000000000000000000000000000000001010000000000000000000000000000000000000000000000000000000000000000000000000000000000000000111000000000000000000000000000000000000000000000000000000000000000000000000000000000000000000000000000000000001000000000000000000000000000000000000000000000000000000000000000000000000000000000000000000001000000000000000000000000000000000000000000000000000000000000000000000000011100000000000000000000000000000000000000000000000000000000000000000000000000110000000000000000000000000000000000000000000000000000000000000000000000000000000000000000000000000000000000000000000000000000000000000000000000000000000000000000000000000011000000000000000000000000001100000000000000000000000000000000000000000010100010000000000000000000000000000000000000000000000000000000000000000000000000000000000000000000000000000000000000000000000000110000111000000000000000000000000000000000000000000000000000000000000000011000000000000000000000000000000000000000000000000000000000000000000000000000000000000110000000000000000000000011000000000000000000000000000000000000000000000000000000000000000000000000000000000000000110110000000000000000000000000000000000000000000000000000000000000000000000000000000001010000000000000000000000110000000000000000000000000000000000000000000000000000000000000000000000000000000000000000010000000000000000000000000000000000000000000000000000000000000000000000000000000000001100000000000000000000000000000000000000000000000000000000000000000000000000000000000000000000000000000000000000000000000000000000000000000000000000000000000000000000000000000000000000000000000000000000000000000000000000000000000000000000000000000000000000000000000000000000000000000000000000000000000000000000000000000000000000000000000000000000000000000000000000000000000000000