P1
200 200
0000000000000000000000000000000000000000000000000000000000000000000000000000000000000000000000000000000000000000100000000000000000000000000000000000000000000000000000000000000000000000010000000000000000000000000000000000000000000000000000000000000000000000000000000000000000000000000000000000000000000000010000010100000000000000000000000000000000000000000000000000000000000000000000001010000000000000000000000000000000000000000000000000000000000000000000000000000000000000000000000000000000000000000000001010000100100000000100000000000000000000000000000000000000000000000000000000000010100000000000000000000000000000000000000000000000000000000000000000000000000000000000000000000000000000000000000000000011000000110000000010100000000000000000000000000000100000100000000000000000000000010000100000000000000000000000000000000000000000000000000000000000000000000000000000000000000000000000000000000000000000000000000000000000101000000000000000000000000000001000010100000000000000000000000000001000011000000000000000000000000000000000000000000000000000000000000000000000000000000000011000000000000000000000000000000000000000000100000000000000000000000000000010000100100000000000000000000000000010001001000000000000000000000000000000000000000000000000000000000000000000000000000000000110000000000000000000000000000000000000000000000000000000000000000000000000000000110000000000000000000000000000000001010000000000000000000000000000000000000000000000000000000000000000000000000000000000000000000000000000000000000000000000001100000001100000000000000000000000000000000000000000001100000000000000000000001000000000000000000000000000000000000000000000000000000000000000000000000000000000000000000000000000000000000000000000000100100000100100000000000000000000000000000000000000000011000000000000000000000101000000000000000000000000000000000000000000000000000000000000000000000000000000000000000000000000000000000000000000000000110000000110000000000000000000000000000000000000000000000000000000000000000001010000000000000000000000000000000000000000000000000000000000000000000000000000000000000000000000000000000000000000000000000000000000000000000000000000000000000000000000000000000000000000000000000000110110000000000000000000000000000000000000000000000000000000000000000000000000000000000000000000000000000000000000000000000000000100000000000000000000000000000000000000000000000000000000000000000000000000100000000001000000000000000000000000000000000000000000000000000000000000000000000000000000000000000000000000000000000000000010100000000000000000000000000000000000000000000000000000000000000000000000011000000000111000000000000000000000000000000000000000000000000000000000000000000000011100000000000000000000000000000000000000101000000000000000000000000000000000000000000000000000000011000000000000000000000000001110000000000000000000000000000000000000000000000110000000000000000000000000000000000000000000000000000000000000000100000000000000000000000000000000000000000000000000000001001000000000000000000110000000000000000000000000000000000000000000000000000010010000000000000000000100000100000000000000000000000000000000000000000000000000000001110000000000000000000000000000000000010100000000000110000001110000000000000000000000000000000000000000000000000000101000000000000000000001000001000000000000000000000000000000000000000000000000000000010010000000000000000000000000000000000010000000000001100000000100000000000000000000000000000000000000000000000000000100000000000000000000010000010000000000000000000000000000000000000000000000000000001000110000000000000000000000000000000000000000000000000000000100000000000000000000000000000000000000000000000000000000000000000000000000000000000000000000000000000000000000000000000000000000000000000000001000000000000000000000000011000000000000000000000000000010001100000000000000000000000000000000000000000000000000000000000000000000000000000000000000000000000000000000000000000000000000000000000011001010111000000000000000000000110000000000000000000000000000100001100000000000000000000000000000000000000000000000000000000000000000000000000000000000000000000000000000000000000000000000000000000010000011011110000000000000000000000000000000000000000000000000001000001000000000000000000000000000000000000000000000000000000000000000000000000000000000000000000000000000000000000000000000000000000000100001000010000000000000000000000000000000000000000000000000000001000010000000000000000000000000000000000000000000000000000000000000000000000010000000000000000000000000000000000000000000000000000000001000001110010000000000000000000000000000000000000000000000000000000101000000000000000000000000000000000000000000000000000000000000000000000001100000000011000000000000000000000000000000000000000000000000110000100101110000000000000000000000000000000000000000000000000000100000000000000000000000000000000110000000000000000000000000000000000000010000110011010000000000000000000000000000000000000000000000000000000101100100000000000000000000000000000000000000000000000000000000000000000000000000000000000010010000000000000000000000000000000000010010000000110010110000000000000000000000000000000000000000000000100010010010000000000000000000000000000000000000000000000000000000000000000000000000000000010000100100000000000000000000000000000000000100100000000111011100000000000000000000000000000000000000000000000100100100000000000000000000000000000000000000000000000000000000000000000000000000000000000100000110000000000000000000000000000000000000110000000000000000000000000000000000000000000000000000000000000001110001001000000000000000000000000000000000000000000000000000000000000000000000000000000001000000000000000000000000000000000000000000000001000000000000000000000000000000000000001000000000000000000000000000010100001100000000000000000000000000000000000000000000000000000000000000001110000000000000000000000000000000000000000000000000000000010100000000000000000000000000000000000101000000000000000000000000000010000011000000000000000000000000000000000000000000000000000000000000000000000000000000000000000000000000000000000000000000000000000110000000000000000000000000000000000001010000000000000000000000000000000000000000000000000000000000000000000000000000000000000000000000000000000000000110000000000000011000000000000000000000000000000000000000000000000000000000000000000000001000000000000000000110000000000000000000000000000000000000000001110000000000000100000000000000000000000100000001100000000000001001000000000000000000000000000000000000000000000000000000000000000000000000000000000000000001010000000000000000000000000000000000000000000000000000000000100000010000000000000110110000000000000000000010100000000000000000000000000000000000000000000000000000000000000000000000000000000000000000001000000000000000000000000000000000000000000000000000000000010000001010000000000000000000000000000000000000010000000000000000000000000000000000000000000000000000000000000000000000000000000000000000000000000000000000000000000000000000001000000000000000000000000000000010010000000000101000000000000000000000000000000000000000000000000000000000000000000000000000000000000000000000000000000000000000000000000000010000000000000000000000000101000000000010100000110000000000011000000000001000100000000000000000000000000000000000000000000000000000000000000000000000000000000010000000000000000000000000000000000000001010000000000000000000000001010000000000100100000001110000000000000000000011001000000000000000000000000011000000000000000000000111000000000000000000000100000000100000000000000000000000000000000000100010100000000000000000000000001000000010010011000110001100000000000000000000011100000000000000000000000000110000000000000000000000000000000000000000010001000000001000000000000000000000000000000000010100010000000000000000000000000000000000100010010010000100000000000001100000000010000000000000000000000000000000000000000000000000000000000000000000011000000000000000000000000000000000000000000000000101000000000000000000000000000000000000001000010100011000000000000000010100000000000000000000000000010000000000000000000000000000000000000000000000001101000000101000000000000000000000000000000000000000100000000000000000000000000000000000000000000111000000000000000000000010000000000000000000000000001010000000000000000000000000000000000000000000000001011000111110001000000000000000000000000000000000000000000000000000000000000000000000000000000000000000000000000000000000000000000000000000000000000010010000000000000000000000000000000000000000000000001010011101000000100000000000000000000000000001100000001100000000000000000000000000000000000000000000000000000000000000000000000000000000000000011000011000000000000000000000000000000000000000000000000001100001000110101100000000000000000000000000011000000100100000000000000000000000000000000000000000000000000000000000000000000000000000000000000110000000000000000000000000000000000000000000000000000000001000100001101000000000000000000000000000000110000000110000000000000000000000000000000000000000000000000011000000000000000000000000000000000000000000000000000000000000000000000000000000000000000000000000010000000101110000000000000000000000000011000000000000001000000000000000000000000000000000000000000000110000000000000000000000000000000000000000000000000000000000000000000000000000000000000000000000111000000000000000000000000000000000000000101000000000001101100000000000000000000000000000000000000000000000000000000000000000000000000001110000000000000000000000000000000000000000000000000000000000000000000000000000000000000000000000000000010010000010000010001000000000000000000000000000000000000000000000000000000000000000000000000000000000000000000000000000000000000000000000000000000000000000000000000000000000000000000000000000000000000000010001010000000000000000000000000000000000000000000000000000000000000000000111000000110000000000010000000000000000000000000000000000000000000000000000000000000000000010000000000000000000000000000001000010100010000110000000000000000000000000000000000000000000000000000000000000000000001001100000000100000000000000000000000000000000000000000000000000000000000000000000100000000000000000000000000000010000111100100000000000000000000000000000000000000000000000000000000000000000000000000000011000000001000000000000000000000000000000000000000000000000000000000000000000001000000000000000000000000000001101000100011010000110000000000110000000000000000000000000000000000000000000000000000001110001100000000000000000000000000000000110000000000000000000000000000000000000000000000000000110000000000000000001011110000110010001110000000101100000000000000000000000000000000000000000000000000000110000111001110000000000000110000000000001100000000010000000000000000000000000000000000000000001100000000000000000011000000000000000001000000010000100000000000000000000000000000000000000000000000000001000000111000000000000000001100000000000000000000001100000000000000000000000000000000000000000000000000000000000000011000000000000000100100000010110000000000000000000000000000000000000000000000000000000000001010000000000000000000000000000000000000000010100000000000000000000000000000000010000000000000000000000000001001000000000000110101100000001100000000000000000000000000000000000000000000000000000000000001000000000000000000000000000000000000000000000000000000000000000000000000000000100000000000000000000000000001010000000000000100011000000000000000000000000000000000000000000000000000000000000000000000000000000000000000000110000011000000000000000000000000000000000000011000000000001000000000000000000000000000011000000000000100000010000000000000000000000000000000000000000000000000000000000000000000000000000000000001100010010000110000000000000000000000000000000000000101000000000000000000000000000000000000000000000000000000110000110000000000000000000000000000000000000000000000000000000000000000000000000000000000011000010100000000000000000000000000000000000000000000100000000000000000000000000000000000000000000000000000000001110110000000000000000000000000000000000000000000011000000000000000000000000000000000000000000010000000000000000000000000000100000000000000000000000000000000000000000000000000000000000000000000000000000001000000000000000000000000000000000000000000001001000000000000000000000000000000000000000000000000000000000000000000000001000000000000000000000000000000000000000000000000000000000000000000000000000000100011000000000000000000000000000000000000000010010000000000000000000000000000000000000000000000000000000000000000110000101000000000000000000000000000000000000000000000000001000000000000000000000000000100010000000000000000000000000000110000000000011000000000000000000000011100000000000000000000000000000000000000001100000100000000000000000000000000000000000000000001100000010000000000000000000000000000111000000000000000000000000000001100000000000000000000000000000000000000000000000000000000000000000000000000000000000001000000000000000000000000001100000000000000011000000100000000000000000000000000000000000000000000000000000000000000000000000000000000000000010000000000000000000000000000000000000000000000000000000000000000000000000000000000000100100000000000000000000000000000000000000000000000000000000000000000000000000000000000000000000000000000000000001110000000000000000000000000000000000000000000000000000000000000000000000000000000000000110000000000000000000000000000000000000000000000000000000000000000000000000000000000000000000000000000000000000111010000000000000000000000000000100000000000000000000000000000000000000000000000000000000000000000000000000000000000000000000000000000000000000000000000000000000000000000000000000000000000000000000010100100000000000000000000000000010100000000000000000000000000000000000000000000000000000000000000000000000000000000000000000000000000000000000000000000000000000000000000000000000000000000000000000000110010000000000000000000000000000101000000000000000000000000000000000000000000000000000000000000000000000000000000000000000111000000000000000000000000000000000000000000000000000000000110000000000000000000000000000000001000000000000000100000000000000000000000000000000000000000000000000000000000000000000000000000000000000000000000000110000000000000000000000000000000000000000000000010010000000000000000100000000000001101100000000000000000100011100000000000000000000011101000000000110000000000000000000000000000000000000000000000000010010000000000000000000000000000000000000000000000011000000000000010110010000000000000000000000000000000110101000000000000000000000110000000100000010010000000000000000000000000000000000000000000000000101000000000000000000000000000000000000000000000000000000000000001001100100000000000101000000000000000001101010101100000000000000001110100001100000011000000000000000000000000000000000000000000000000000100000000000000000000000000000000000000000000000000000000000000010000001000000000001110000000000000000100100100011000000000000000100001010010100000000000000000000000000000000000000000000000000000000000000000000000000000000000000000000000000000000000000000000000001101011110000000000010001000000000110000110000100110000000000000000111000000010000000000000000000000000000000000000000000000000000000000000000000000000000000000000000000000000000000000000000000000000010000001100000000010010010000000010010001100001110000000000000000001101110000000000000000000000000000000000000000000000000000000000110000000000001000000000000000000000000000000000000000000000000000000010001001000100001110000000000000011000000000000000000000000000000000000000000000000000000000000000000000000000000000000000000000001100000000000000000000000000000000000000000000000000000000000000000000000001100001000010000100000000000000000000000000000000000000000000000000000000000000000000000000000000000000001100000000000000000000000000000100000000000000000001000000000000000000000000000000000000000110010000010000001001000000000000000000000000000000000000000000000000000000000000000000000000000000000000000011000000000000000000000000000001100000000000000000101000000000000000000000000000000000000101000000000000000011100000000000000000000000000000000000000000000000000000000000000000000000000000000000000000000000000000000000000000011110011100000000000000000100000000000000000000000000000000000000110000000000000000000000000000000000000000000011000111000000000100000000000000000000000000000000000000000000000000000000000000000000011111000010000000000000000000000000000000000000000000000000000000000101100000000000000000000000000000000000000000110000000000000001000000000000000000000000000000000000000000000000000000000000000000001001000011000000000000000000000000000000000000000000000000000000000001000110000000000000000000000000000000000000000000000000000000000001110000000000000000000000000000000000000000000000000000000000000010000010000000000000000000000000000000000000000000000000000000000000010010110000000000000000000000000000000000010000000000000000000000001100000011000000000000000000000000000000000000000000000000000000001100000000100000000000000000000000000000000000000000000000000000000000000010000000000000000000000000000000011000000000000000000000001110000000110000000000000000000000000000000000000000000000000000000110000000100100000000000000000000000000000000000000000000000000000000001001000000000000000000000000000000000111000000000000000000000001100000000000000000000000000000000000000000000000000000000000000000101100001001000000000000000000000000000000000000000000000000000000000000110000000000000000000000000000000000000000000000000000000000100000000000000000000000000000000000000000000000000000000000000000000100000001000000000000000000000000000000000000000000000000000000000000000000000010000000000000000000000000000000000000000000000000000000110000000000000000000000000000000000000000000000000000000000000000000000000000000000000000000000000000001000000000000000000000110000000000000001010000000000000000000000000000000000000000000000000000010010000000000000000000000000000000000010000000000000000000000000000000000000000000000000000000000000000101000000000000000000001100000000000000100100000000000000000000000000000000000000000000000000000100100000000000000000000000000000000001110000000000000000000000000000000000000000000000000000000000000001010000000000000000000000000000000000011000000000000000000000000001110000000000000000000000000000110000000000000000000000000000000000110100000100011000000000000000000000000000000000000000000000000000001000000000000000000000000000000000001100000000000000000000000000000000000000000000000000000000000000000000000000000000000000000000001000000110101110011000000110000000000000000000000000000000000000000000000000000000000000000000011111000000100000000000000000000000000000000000000000000000000000000000000000000000000000000000000000000011000100000011111001000001010000000000000000000000000000000000000000000000000000000000010000000100001011110000000000000000000000000000000000000000000000000000001100000000000000000000000000000000000000111001000001000010100000010000000000000000000000000000000000000000000000000000000000001100011000000001100001000000000000000000000000000000000000000000000000000100100000000000000000000000000000000000000000110111101101110000000000000000000000000000000000000000000000011100000000000000000110100000010000011010110000000000000000000000000000000000000000000000000000110000000000000000000000000000000000000000001010001111111000000000000000000000000000000000000000000000000000000000000000000000101000001110000000100100000000000000000000000000000000000000000000000000000000000000000000000000000000000000000000000000010000100110000000000000000000000000000111000000000000000000000000000000000000000110000000000111011100000000000000000000000000000000000000000000000000000000000000000000000000000000000000000000000111000110011101100000000000000000000000000000000000000000000000000000000000000000000000000000000111100000000000000000000000000000000000000000000000000000000000000000000000000000000000000000000000000110011001110100111100001100000000000000000001000001000000000000000000000000000000000000000000001101010000000000000100000000000000000000000000000000000000000000000000000000000000000000000000000000000000010111101011101011000011000000000000011000010000010000000000000000000000000000000000000000000000100000000000000011100000000000000001000000000000000000000000000000000000000000000000000000000000000000000000011111011010110000000000000000000110000100000100000000000000000000000000000000000000000000000000000000010000001100000000000000101000000000000000000000000000000000000000000000001110000000000000000000000000110110001000000000000000000000000000000000000000000000000000000000000000000000000000000000000000000100001001000000000000001001000000000000011000000000000000000000000000000000000000000000000000000000011100100000000000000000000000000000000111000000000000000000000000000000000000000000000000000000000000000000111000000000000001100000000000011001000000000000000000000000000000000000000000000000000000001001101000100000000000000000001000000000000000000000000000000000000000000000000000000000000000000000000000010011000000000000000000000000001110000000000000000000000000000000000000000000000000000000000100011000000000000000000000000001000000000000000000000000000000000000000000000000000000000000000000000000011001100000000000000000000000001000001100000000000100000000000000000000000000000000000000000010000111000000110000000000000000100000000000000000000000000000000000000000000000000000000000000000000000000110001100000000000000000000000100001100000000000001000000000000000000000000000000000000000000100100001001010010000000000000000000000000000000000000000000000000001100000000000000000000000000000000000000000001000000000000000000000010000011000000000000010000000000000000000000000000000000000000001000011010000010100000000110000000000000000000000000000000000000000011000000000000000000000000000000000000000000000000000000000000000000100010000000000000000000000000000000000000000000000000000001000001000110010000010000000001100000010000000000000000000000000000000000000000000000000000000000000000000000000001110001110000000000000000000000000000000000000000011100000000000000000000000000000000010000001000100101000001000000011000000110000000000000000000000000000000000000000000000000000000000000000000000000000000000000000000000000111001100000000000000000000000000000000010000000000000000000000100000001110000100000011000000000000000110000000000000000000000000000000000000000000000000011000000000000000000000000000000000000000000000000000000000000001100000000000000000001010000000000000000000000000000000000000000000010000010000110011000000000000000000000000000000000000000000000110000110000000000000000000000000000000000000000000110100000011000000011000000000000000000010100000000000000000000000001000000000000000000000001100000101100000000000000000000000000000000110000000000001100000000000000000000000000000000000000000000000001000000000101000000000000000000000000000010000000000000000000000000000000000000000000000000010000001010000000000000000000000000000000001100000000011000000000000000000000000000000000000000000000000000000000000000100100100000000000000000000000000000000000000000000000001000000000000000000000000010000000000000000000000000000000000000000000000000000101000000000000000000000000000100000000000000000000000000000111000101110100000000000000000000000000000000000000000000000001000000001000000000000000000000000000000000000000000000000000000000000000000000010000000000000000000000000001000000000000000000000000000000110001000000100000100000000000000000000000000000000000000010010000000101000000000000000000000000000000000000000000000000000000000000000000001100011000000000000000000000010000000000000000000000000000011100000001010000010100000000000000000000000000000000000000011000000010011000000000000000000000000000000000000000000000000000000000000101000000001001000000000000000000000000000000000000000000000000011100000000001000000101000000000000000000000000000000000000000000001000001100000000000000000000000000000000000000000000000000000000000001010000000001010000000000000000000000011100000000000000000000000111000000000000000000100000000000000000000000000000000000000000001111000111000000000000000000000000000000000000000000000000000000000000010000000000001000000000000000000000000000000000000000000000000001110000000000000000000000000000000000000000000000000000000000000100001000110000000000000000000000000000000000000000000000000000000000000110000000000000000000000000000000000000000000000000000000000000000100000000000000000000000000000000000000000000000000000000000000001100000000000000000000000000000000000000000000000000000000000000000011100000000000000000000000000000000000000000000000000000000000000001110000000000100000000000000000000000000000000000000000000000000010000000000000000000000000000000001100000000000000000000000000000000011000000000000000000000000000000000000000000000000000000000000000000000111000011000000000000000000000000000000000000000000000000111000000000000000000000000000000000011000000000000000000000000000000000000000000000000000000000000000000000000000000000000000000000000000111000000001010000000000000000000000000000000000000000000000001010000000000000000000000000000000000000000000000000000000000000000000000000000000000000000000000000000000000000000000000000000000000000000100000000000000000000000000000000000000000000000000000000000011000000000000000000000000000000000000000000000001100000000000000000000000000000000000000000000000000000000000000000000000000000000000000000000000111011100000000000000000000000000000000000000000000000000000000000000000000000000000000000000000000000011000000000000000000000000000000000000000000000000000000000000000000000000000000000000000000000000000011000000000000000000000000000000000000000000000000000000000000000000000000000000000000000000000000000000000000000000000000000000000000000000000000000000000000000000000000000000000000000000000000010000010000000000000000000000000000000000000000000000000000000000000000000000000000000000000000000000000000000000000000000011000000000000000000000000000000000000000000000000000000000000000000000000001100011000000000000000000000000000000000000000000000000000000000000000000000000000000000000000000000000000000000000000000000110000000000000000000000000000000000000000000000000000000000000000000000000011000100000000000000000000000000000000000000000000000000000000000000000000000000000000000000000000000000000000000000000000000000000000000000000000000000000010000000000000000000000000000000000000000000000000000000000000000000000000000000000000000000000000000000000000000000000000000000000000110000000000000000000000000000000000000000000000000000000000000001010000000000000000000000000000000000000000000000000000000000000000000000000000000000000000000000000000000000000000000000000000000000001010000000000000000000000000000000000000000000000000000000000000010100000000000000000000000000000000000000000000000000000000000000000000000000000000000000000000000000000000000011000000000000000000000001000000000000000000000000000000000000000000000000000000000000000010000000000000000000000000000000001100000000000000000000000000000000000000000000000000000000000000000000000001001000000001100000011000000000000000000000000000000000000000000000000001000000000000000000000000000000000000000000000000000011000000000000000000000000011000000000000000000000000000000000000000000000001100000000011000001001000000000000000000000000000000000000000000000000010000000000000110000000110000000000000000000000000000000000000000000000000000000110000000000000000000100000000000000000000000000000000000000000000010100000000000000000000000000000000000000000000000000100000000000001100000010010000000000000000000000000000000000000000000000000000000000000000000000000010100000000000000000000000000000000000000000000010000000000000000000000000000000000000000000000000000000000000000000000000011000000000000000000000000000000000000000000000000000000000000000000000000000101000000000000000000000000000000000000000000000000000000000000000000000000000000000000000000000000000000000000000000000000000000000000000000000000000000000000000000000000000000000000000000000000000000100000000000000000000000000000000000000000000000000000000000000000000000000000000110000000000000000000000000000000000000000000000000000000000000000000000000000000000000000000000000000000000000000000000000000000000000000000000000000000000000000000000000000000000000000000000000000010010000000000000000000000000000000000000000000000000000000000000000000000000000010000000000000000000000000000000000000000111000000000000000000000000000000000000000000000000000000000000000000000000000101000000000000000000000000000000000000000000000000000000000000000000000000000000100000000000000000000000000000000000000000000000000000000000000000000000000000000000000000000000000000000000000000000000100000000000000000000000000000000011100000000000000000000000000000000000000000001000000000000000000000000000000000000011000001000000000000000000000000000000000000000000000000000000000000000000000000000000000000000000000000000010000001001000000000000000001100110000000000000000000000000000000000000000000000000000000000001000010000000000000000000000001000000000000000000000000000000000000000000000000000000000000000000000000000100000010001000000000000000011001100000000000000000000000000000000000000000000000000000000010100000100000000000000000000000101000000000000000000000000000000000000000000000000000000001100000000000000001000001100011000000000001100000000000000000000000000000000000000000000000000000000000000000010000000000000000000000000000001010000110000000000000000000000000000000000000000000000000100100000000000000000000011001110000000000011000000000000100000000000000000000000000000000000000000000000000000000111000000000000000000000000001000010010000000000000000000000000000000000000000000000001010000000000000000000000011000100000000000000000000000010100000000000000000000000000000000000000000000000000000000000000000000011000000000000000000011000000000000000000000000000000000000000001000000001000000000000000000000000001110000000000000000000000000101000000000000000000000000000000000000000000000000000000000000000000001010000001100000000000000000000000000000000000000000000000000000101000000000000000000000000000000000010000000010000000000000000000100000000000000000000000000000000000000000000000000000000000000000000001000000000000000000000000000000000110000000000000000000000000000110000000000000000000000000000000000011000001011000000000000000000000000000000000011000000000000100000000000000000000000000000000011000000000000000000000000000000000000010100000000000000000000000000000000000000000000000000000000000100000010000100110000000000000000000000000000000000110000000000110110000000000000000000000000000001001000000000000000000000000000000000000010000000000000000000000000000000000000000000000000000000000010000000000000001100000000000000000000000000000000000000000000000101000000000000000000000000000000010100000000000000011000000000000000000000000000000000000000000000000000000000000000000000000000000000100001000011100001100000000000000000000000000000000000000000000000100000000000000000000000000000000010000000000000001101000000000000000000000000000000000000000000000000000000000000000000000000000000000000010000100000011100000000000000000000000000000000000000000000000000000000000000000000000000000000000000000000000000000000000000000000000000000000000000000000000000000000000000000000000000000000000001001000000001110000100000000000000000000000000000000000000000000000011100000000000000000000000000000000000000000000000000000000000000000000000000000000000000000000000000000000000000000000000000000000001110000001000101001100000000000000000000000000000000000000000000000000000000000000000000000000000000000000000000000000000000000001100000011000000000000001100000000000000000000000000000000000000000000000000000010100000110000000000000000000000000000000000000000000000010000000000000000000001100000000000000000000000110000000000000011000000110000000000001000100000000000000000000000000000000000000000000000000000011110000000000000000000000000000000000000000000100000000100100000001110000110000100000000000000000000001100000000000000000001000000000000000100001000000000000000000000000000000000000000000000000000000111000000000000000000000000000000000000000000010100000011100000010000000010010001000000000000000011110111000000000000000000101000000000000000000100000000001000000000000000000000000000000000000000000000000011100000000000000000000011100000000000000011000000100000000100000000100000010101000000000001001111000000000000000000001001000000000001110100000000000101000000000000000000000000000000000000000000010000110000000000000000000000000000000000000000000000000110000000000000001000000100100000000000100000010000000000000000000001100000000000011001100000000001010000000000000000000000000000000000011111001100000010000000000000000000000000000000000000000000000001100000000000000001000000101000000000000100011000000000000000000000000000000000001110000000000000001000000000000000000000000000000000000010000100000000000000000000000000000000000000000000000000000000000000000000000000000100000111000000010001000000000000000000000000000000000000000011000000000000000000000000000000000000000000000000000000000011110000000000000000000000000000000000000000000000000000000000000000000000000000010111010010011110001010000000000000000000000000000000000000101010000000000000000000000000000000000000000000000000001000101110000000000000000000000000000000000000000000000000000000000000000000000000000000001101000111110001000000000000000000000000000000000000011100110000000000000000000000000000000000000000000000000110010001110000000000000000000000000000000000000000000000001000000000000000000000000000000000011001110100000000000000000000000000000000000000000010010100000000000000000000000000000000000000000000000001110000011100000000000000000000000000000000000000000000000101000000000000000000000000000110101000000110000000000000000000000000000000000000000000011000000000000000000000000000000000000000000000000000011000000000000000000000000000000000000000000000000000000011011000000000000000000110000001110100000000000000000000000000000000000000000000000000000111000000000000000000001000000000000000000000000000000111000000000000000000000000000000000000000000000000000000010010000000000011000001100000000000000000000000000000000001000000000000000000000000000000110011000000000000000101000000000000000000000000000000000000000000000000000000000000000000000000000000000000000011000000000000110000000000000000000000000000000000000000101000011000000000000000000000001110110000000000000001010000000000000000000000000000001100000000000000000000000000000000000000000000000000000000000000000000000000000000000000000000000000000000000000001001001001000000000000000000000001111100000000000000001000000000000000000000000000000000000000000000000000000000000000000000000000000000000000000000000000000000000000000000000000000000000000011100000001100010100000000000000000000000000100000000000000000000000000000000000000000000000000000000000000000000000000110000000000000000000000000000000000000000000000000000000000000000000000000111000100000000000000010000000000000000000000000000000000000000000000000000000000000000000000000000000000000000000000000000001100000000000000000000000000001000000000000000000000000000000000000000000000000000100000000000000000000000000000000000000000000000000000000000000000000000000000000000000000001110000000000000000000000000000000000000000000000000000010000000000000000000000011000000000000000000000000000000000000000000000000000000000000000000000000000000000000000000000000000000000000000000000000000000000000000000000000000000000000000000000000000000100000000000000000000001001000000001100000000000000000000000000000000000000000000000000000000000000000000000000000000000000000000000000000000000000000000000000000000000000000000000000000000000000000000000000000000000000000010010000000101000000000000000000000000000000000000000000000000000000000000000000000000000000000000000000000000000000000000000000000000000000000000000000000000000000000000000000000000000000000000000000011000000000100000000000000000000000000000000000000000000000000000000000000000000000000000000000000000000000000000000000000000000000000000000000000000001100000000000000000000000000000000000000000000000000000000000000000000000000000000000000000000000000000000000000000000000000000000000000000000000000000000000000000000000000000000000000000110000000000100100000000000000000000000000000000000000000000000000000000000000000000100000000000000000000000000000000000000000000000000000000000000000000000000000000000000000000000000000000000000000001100000000000110000000000000000000000000000000000000000000000000000000000000000000010100000000000000000000000000000000000000000000000000000000000000000000000000000000000000000000000000000000000000000000000000000000000000000000000000000000000000000000000000000000000000000000000000001010000000000000000000000000000000000000000000000000000000000000000000000000000000000000000000000000000000000000000000000000000000000000000000000000000000000000000000000000000000000000000000000000000101000000000000000000000000000000000000000000000000000000000000000000000000000000000000000000000000000000000000000000000000000000000000000000000000000000000000000000000000000000000000000000000000000000100000000000000000000000110000000000000000000000000000000000000000000000000000000000000000000000000000000000000000000000000000000000000000000000000000000000000000000000000000000000000000000000000000000000000000000000000000001100000000000000000000000000000000000000000000000000000000000000000000000001110000000000000000000000000000000000000000000000000000000000000000000000000000000000000000000000000000000000000000000000000000000000000000000000000000000000000000000000000000000000000000000000000000000000000000000000000000000000001000000000000000000000000000000000000000000000000000000000000000000000000000000000000000000000000000000000000000000000000000000000000000000000000000000000000000000000000000000000000000000000000000000101000000000000000000000000000000000000000000000000000000000000000000000000000000000000000000000000000000000000000000000000000000000000000000000000000000000000000000000000000000000000000000000000000001010000000000000000000000000000000000000000000000000000000000000000000000000000000000000000000000000000000000000000000000000000000000000000000000000000000000000000000000100000000000000000000000000000001000000000000000000000000000000000000000000000000000000000000000000000000000000000000000000000000000000000000000000000000000000000000000000000000000000000000000000000001000000000000000000000000000000000000000000000000000000000000000000000000000110000000000000000000000000000000000000000000000000000000000000000000000000000000000000000000000000000000000000000000000000010000000000000000000000000000000000000000000000011000001000000000000000000001100000000000000000000000000000000000000000000000000000000000000000000000000000000000000000000000000000000000000000000000000000000000000000000000000000000000000000000000000110000010000000000000000000000000000000000000000000000000000001000000000011000000000000000000000000000000000000000000000000000000000000000000000000000000000000110000000000000000000000011000000000000000000000100000000000000000000000000000000000000000000000000001100000000000110000000000000000000000000000000000000000000000000000000000000000000000000000000000001010000000000000000000000110000000000000000000000000000000000000000000000000000000000000000000000000000101010000000000000000000000000000000000000000000000000000000000000000000000000000000000000000000001100000000000000000000000000000000000000000000000000000000000000000000000000000000000000000000000000000010100000000000000000000000000000000000000000000000000000000000000000000000000000000000000000000000000000000000000000000000000000000000000000000000000000000000000000000000000000000000000000000000000000000000000000000000000000000000000000000000000000000000000000000000000000000