P1
200 200
0000000000000000000000000000000000000000000000000000000000000000000000000000000000000000000000000000000000000000100000000000000000000000000000000000000000000000000000000000000000000000010000000000000000000000000000000000000000000000000000000000000000000000000000000000000000000000000000000000000000000000010000010100000000000000000000000000000000000000000000000000000000000000000000001010000000000000000000000000000000000000000000000000000000000000000000000000000000000000000000000000000000000000000000001010000100100000000100000000000000000000000000000000000000000000000000000000000010100000000000000000000000000000000000000000000000000000000000000000000000000000000000000000000000000000000000000000000011000000110000000010100000000000000000000000000000000000100000000000000000000000010000000000100000000000000000000000000000000000000000000000000000000000000000000000000000000000000000000000000000000000000000000000000000101000000000000000000000000000011100010100000000000000000000000000011100100100000000000000000000000000000000000000000000000000000000000000000000000000000000011000000000000000000000000000000000000000000100000000000000000000000000000000000100100000000000000000000000000000010000100000000000000000000000000000000000000000000000000000000000000000000000000000000110000000000000000000000000000000000000000000000000000000000000000000000000000000110000000000000000000000000000000110110000000000000000000000000000000000000000000000000000000000000000000000000000000000000000000000000000000000000000000000001100000001100000000000000000000000000000000000000000001100000000000000000000000000000000000000000000000000000000000000000000000000000000000000000000000000000000000000000000000000000000000000000000000100100000100100000000000000000000000000000000000000000011000000000000000000000000000000000000000000000000000000000000000000000000000000000000000000000000000000000000000000000000000000000000000000000000110000000110000000000000000000000000000000000000000000000000000000000000000000000000000000000000000000000000000000000000000000000000000000000000000000000000000000000000000000000000000000000000000000000000000000000000000000000000000000000000000000000000000000000000000000000000110000000000000100000000000000000000000000000000000000000000000000000000000000000000000000000000000000000000000000000000000000000100000000000000000000000000000000000000000000000000000000000000000000000000010000000011100000000000000000000000000000000000000000000000000000000000000000000000100000000000000000000000000000000000000010100000000000000000000000000000000000000000000000000000000000000000000011011000000001101100000000000000000000000000000000000000000000000000000000000000000000001000000000000000000000000000000000000000101000000000000000011000000000000000000000000000000000000011000000000000000110000000001110000000000000000000000000000000000000000000000110000000000000000000000010000000000000000000000000000000000000000100000000000000001110000000000000000000000000000000000001001000000000000000000001100001000000000000000000000000000000000000000000000010010000000000000000000000000000000000000000000000000000000000000000000000000000000010011000000000000000000000000000000000010100000000000110000000100000000000000000000000000000000000000000000000000000101000000000000000000011100011100000000000000000000000000000000000000000000000000011100000000000000000000000000000000000000010000000000001100000000110000000000000000000000000000000000000000000000000000100000000000000000000000000000000000000000000000000000000000000000000000000000000000000010000000000000000000000000000000000000000000000000000000000000000000000000000000000000000000000000000000000000000000000000000000000000000000000000000000000000000000000000000000000000000000000000000001101000000000000000000000011000000000000000000000000000001010000000000000000000000000000000000000000000000000000000000000000000000000000000000000000000000000000000000000000000000000000000000000001000100001000000000000000000000110000000000000000000000000000010010000000000000000000000000000000000000000000000000000000000000000000000000000000000000000000000000000000000000000000000000000000000001011111001010100000000000000000000000000000000000000000000000000000011000000000000000000000000000000000000000000000000000000000000000000000000000000000000000000000000000000000000000000000000000000001101001011101100100000000000000000000000000000000000000000000000000000011000000000000000000000000000000000000000000000000000000000000000000000000000000001110000000000000000000000000000000000000000000000100110010001111100000000000000000000000000000000000000000000000000000010000000000000000000000000000000000000000000000000000000000000000000000000000000111100000000000000000000000000000000000000000000000000011000000111000000000000000000000000000000000000000000000000001100000000000000000000000000000000110000000000000000000000000000000000000010000000000001100000000000000000000000000000000000000000000000000001000000000000000000000000000000000000000000000000000000000001000000000000000000000000000000010010000000000000000000000000000000000001010000001110001110000000000000000000000000000000000000000000000000001000000000000000000000000000000000000000000000000000000000000000000000000000000000000000000100100000000000000000000000000000000000010100000001001001100000000000000000000000000000000000000000000111000000000000000000000000000000000000000000000000000000000000000000000000000000000000000001110000110000000000000000000000000000000000000010000000001011011000000000000000000000000000000000000000000000010000001000000000000000000000000000000000000000000000000000000000000000000000000010000000000000000000000000000000000000000000000000000000010000000000001000000000000000000000000001000000000000000000000111000101000001100000000000000000000000000000000000000000000000000000000000000001110000000000000000000000000000000000000000000000000000001010000000000000000000000000000000000000101000000000000000000000110000100000011000000000000000000000000000000000000000000000000000000000000000100000000000000000000000000000000000000000000000000000000000010000000000000000000000000000000000001010000000000000000000000000000000000000000000000000000000000000010000000000000000000000000000000000001011000000110000000000000011000000000000000000000000000000011000000000000000000000000000000000000001000000000000000000110000000000000000000000000000000000000000000100000000000000000000000000000000000110110000001100000000000001001000000000000000000000000000000000000000000000000000000000000000000000000000000000000000001010000000000000000000000000000000000000000001000000000000000000000010000000000001000000000000000000000000010100000000000000000000000000000000000000000000000000000000000000000000000000000000000000000001000000000000000000000000000000000000000000000000000000000000000001010000000000111000000000000000000000000010000000000000000000000000000000000000000000000000000000000000000000000000000000000000000000000000000000000000000000000000000001000000000000000000000000000000010010000000000110000000000000000000000000000000000000000000000000000000000000000000000000000000000000000000000000000000000000000000000000000010000000000000000000000000101000000000000000110000000000000011000000000000001100000000000000000000000000000000000000000000000001000000000000000000000000000000000000000000000000000000000000000000000001010000000000000000000000001010000000000000010111000000000000000000000000000100100000000000000000000000011000000000000000000000010000000000000000111000000000001110000000000000000000000000000000000100010100000000000000000000000001000000000000000000010000000000000000000000000000000000000000000000000000000110000000000000000000000100000000000000010010000000000000000000000000000000000000000000000010100010000000000000000000000000000000000000000011011100000000000000001100000001100000000000000000000000000000000000000000000000000000000000000000001101100000000000000000000000000000000000000000000000101000000000000000000000000000000000000000000000001100000000000000000010100000010010000000000000000010000000000000000000000000000000000000000000000110010000010100000000000000000000000000000000000000000100000000000000000000000000000000000000000000111110000000000000000000010000000011100000000000000001010000000000000000000000000000000000000000000000101000010010110000100000000000000000000000000000000000000000000000000000000000000000000000000000001100000000000000000000000000000000000000000000000000010010000000000000000000000000000000000000000000000100001000001000010110000000000000000000000000000100000001100000000000000000000000000000000000000000000000000000000000000000000000000000000000000011000011000000000000000000000000000000000000000000000000100100000100001000010000000000000000000000000010100000100100000000000000000000000000000000000000000000000000000000000000000000000000000000000000110000000000000000000000000000000000000000000000000000000000100000001010100000000000000000000000000000101100000110000000000000000000000000000000000000000000000000011000000000000000000000000000000000000000000000000000000000000000000000000000000000000000000001010000000010110111000000000000000000000000011011000111000000000000000000000000000000000000000000000000000110000000000000000000000000000000010000000000000000000000000000000000000000000000000000000000001110110000010000000000000000000000000000000000100010100000000000000000000000000000000000000000000000000000000000000000000000000000000000000100000000000000000000000000000000000000000000000000000000000001110000000000000000000000000000000000000010110001101100001100000000000000000000000000000000000000000000000000000000000001000000000000000001000000000000000000000000000000000000000000000000000000000000001000000000000000000000000000000000000000101100011000000110000000000000000000000000000000000000000000000000000000000000010000000000000000000000000000000000000000000000000000000000000000000000000000000000000000000000000000000000000000000000000000010111000000100000000000000000000000000000000000000000000000000000000000000100000111000000000001110000000000000000000000000000000000000000000000000000000000000000001110000000000000000000000000001000001000011000001010000000000011000000000000000000000000000000000000000000000000000010011000000000000000000000000000000000000000000000000000000000000000000000000000000000000000000000000000000000000010000000010110110001000000000000110000000000000000000000000000000000000000000000000001001101000011100000000000000000000000000000110000000110000000000000000000000000000000000000000000110000000000000000000001110111111100101000000000000000000000000000000000000000000000000000000000000000001001100001011000000000000000110000000000001100000001010000000000000000000000000000000000000000001100000000000000000010100000000100000000000000000000011000000000000000000000000000000000000000000000000001110000010000000000000000001100000000000000000000010000000000000000000000000000000000000000000000000000000000000000100110000000000010111110000000000000000000000000000000000000000000000000000000000000001000000011100000000000000000000000000000000000000000000000000000000000000000000000000000000000000000000000000000001000000000000001100100100000001100000000000000000000000000000000000000000000000000000000000000001000000000000000000000000000000000000000000000000000000000000000000000000001110000000000000000000000000000101000000000001000011000000011000000000000000000000000000000000000000000000000000000000000000000000000000000000110000011000000000000000000000000000000000000011000000000000000000000000000000000000001001000000000000011000000000000000000000000000000000000000000000000000000000000000000000000000000000000000001100010010000110000000000000000000000000000000000000101000000000000000000000000000000000000001110000000000000000000011000000000000000000000000000000000000000000000000000000000000000000000000000000000011000010100000000000000000000000000010000000000000000100000000000000000000000000000000000000001000000000000000000010111000000000000000000000000000000000000000000011000000000000000000000000000000000000000000010000000000000000000000000001110000000000000000000000000000000000000000000000000000000000000000000000000010100000000000000000000000000000000000000000000001001000000000000000000000000000000000000000000000000000000000000000000000101010000000000000000000000000000000000000000000000000000000000000000000000000010011111000000000000000000000000000000000000000010010000000000000000000000100000000000000000000000000000000000000000110011101110000000000000000000000000000000000000000000000000000000000000000000000000011000111000000000000000000000000000110000000000011000000000000000000000001000000000000000000000000000000000000000001100010101000000000000000000000000000000000000000001100000111000000000000000000000000011001100000000000000000000000000001100000000000000000000000000000000000010000000000000000000000000000000000000000000000011100000000000000000000000001100000000000000011000000000000000000000000000000000010101000000000000000000000000000000000000000000000000000001100000000000000000000000000000000000000000000000000000000000010000000000000000000000000100100000000000000000000000000000000000000000000000000011100000000000000000000000000000000000000000000000000000011100000000000000000000000000000000000000000000000000000000000000000000000000000000000000110000000000000000000000000000000000000000000000000000010000000000000000000000000000000000000000000000000000001000000000000000000000000000000000100000000000000000000000000000000000000000000000000000000000000000000000000000000000000000000000000000000000000000000000000000000000000000000000000000000000000000000011100000000000000010000000000000010100000000000000000000000000000000000000000000000000000000000000000000000000000000000000001000000000000000000000000000000000000000000000000000000000000000000000000000110000000000000001110000000000000100000000000000000000000000000000000000000000000000000000000000000000000000000000000000000010000000000000000000000000000000000000000000000000000000000110000000000000000110000000000000110100000000000000000010010000000000000000000000000000000000000000000000000000000000000000000000000000000000100000000110000000000000000000000000000000000000000000000010010000000000000001100000000000010000000000000000000000011111011000000000000000000000000000000000110000000000000000000000000000000000000000000000000010010000000000000000000000000000000000000000000000011000000000000000000100000000000100000000000000000000000100000001000000000000000111000110100000010010000000000000000000000000000000000000000000000000101000000000000000000000000000000000000000000000000000000000000001000010000000000000100000000000000001000110010100000000000000000101111010001100000011000000000000000000000000000000000000000000000000000100000000000000000000000000000000000000000000000000000000000000010000000010000000110000000000000000110010000001000010000000000001100010001010000000000000000000000000000000000000000000000000000000000000000000000000000000000000000000000000000000000000000000000000000000011010100000010011000000000000110101100000110001000000000000010100010100000000000000000000000000000000000000000000000000000000000000000000000000000000000000000000000000000000000000000000000000000001010100110010001000101100000000010010001101011011100000000000000001100000000000000000000000000000000000000000000000000000000000000110000000000000000000000000000000000000000000000000000000000000000001001011001101100111101100000000000011000001110110100000000000000000000011000000000000000000000000000000000000000000000000000000000001100000000000000000000000000000000000000000000000000000000000000000000010010000001100101010000000000000000000001100110000000000000000000000000000000000000000000000000000000000000001100000000000000000000000000000110000000000000000001000000000000000000000000000000000000100010110000000000010100000000000000000000000000000000000000000000000000000000000000000000000000000000000000000011000000000000000000000000000000010000000000000000101000000000000000000000000000000000000111101000000000000101110000000000000000000000000000001000000000000000000000000000000000000000000000000000000000000000000000000000000000000011010100000000000000000100000000000000000000000000000000000000010001100000000000100100000000000000000000000011000010000000000000000000000000000000000000000000000000000000000000000000000000000000000000010110000000000000000000000000000000000000000000000000000000000000001100000000001110000000000000000000000000110000100000000000000110000000000000000000000000000000000000000000000000000000000000000001100110000000000000000000000000000000000000000000000000000000000000000000100000000001000000000000000000000000000000000000000000000010110000000000000000000000000000000000000000000000000000000000000000011000000000000000000000000000000000000000000000000000000000000000000000000000000000000000000000000000000000000000000000000000000000101000000011000000000000000000000000000000000000000000000000000000011010000000000000000000000000000000000000000000000000000000000000000000000000000000000000000000000000000000000000000000000000000000000100000000110000000000000000000000000000000000000000000000000000000111000000011100000000000000000000000000000000000000000000000000000000000000000000000000000000000000000000000000000000000000000000000000000000000000000000000000000000000000000000000000000000000000000010000100001110000000000000000000000000000000000000000000000000000000000000000000000000000000000000000000000000000000000000000000000000000000000000000000000000000000000000000001110000000000000000000000010001000000000000000000000000000000000000000000000000000000000000000000000000000000000000000000000000000000000000000000000000000000000000110000000000000000000000000000000000100100000000000000000000000100010000000000000000000000000000000000001000000000000000000000110000000000000000000000000000000000000000000000000000000000000000000000010010000000000000000000000000000000001101000000000000000000000000010000000000000000000000000000000000000101000000000000000000001100000000000001000000000000000000000000000010000000000000000000000000000100100000000000000000000000000000000000000000000000000000000000000000000000000000000000000000000000000001010000000000000000000000000000000000101000000000000000000000000000100000000000000000000000000000110000000000000000000000000000000000000000011011000001110000110000000000000000000000000000000000000000001000000000000000000000000000000010010000000000000000000000000000001000000000000000000000000000000000000000000000000000000000000000000000000110101001000100011000000000000000000000000000000000000000000000000000000000000010000000000111110111000000000000000000000000000000000000000000000000000000000000000000000000000000000000000000000010000010001010011110000001000000000000000000000000000000000000000000000000000000000011100000011000001110000111000000000000000000000000000000000000000000000000001100000000000000000000000000000000000001000000000010100010000000000000000000000000000000000000000000000000100000000000000000100100000111100000001001110000000000000000000000000000000000000000000000000100100000000000000000000000000000000000000001000000101000000000000000000000000000000000000000000000000000001000000000000000001000111000110000010110100010000000000000000000000000000000000000000000000000110000000000000000000000000000000000000010000100000010000000000000000000000000000000001000000000000000000010000000000000000010101110000111111101000001000000000000000000000000000000000000000000000000000000000000000000000000000000000000000000110010000100100000000000000000000000000000000010000000000000000000000000000000000000010001100000000010111000000011100000000000000000000000000000000000000000000000000000000000000000000000000000000000001011100000001000000000000000000000000000000000100000000000000000000000000000000000000000000000000000010000010000100100000000000000000000000000000000000000000000000000000000000000000000000000000000000101001000001100001000001100000000000000000000000000000000000000000000000000000000000000000000000000000100010000001000000000000000000000000000000000000000000000000000000000000000000000000000000000000000110000000010000101000011000000000000011000111000111000000000000000000000000000000000000000000001010001001000000000110000000000000001000000000000000000000000000000000000000000000000010000000000000000001000000000000000000000000000000000000110000000000000000000000000000000000000000000000000000000001000000000000000001000000000000000101000000000000000100000000000000000000000000000000100000000000000000000000000000000011100000000000000000000000000001000000000000000000000000000000000000000000000000000000000000000000000000000000000001001000000000000011000000000000000000000000000000001000000000000000000000000000000000000000000000000000000000000000010000000000000000000000000000000000000000000000000000000000000000011100000000000000001100000000000011000000000000000000000000000000000000000000000000000000000000000000000000000000000000000000000000000100000000000000000000000000000000000000000000000000000000000000000100000000000000000000000000000000011000000000000000000000000000000000000000000000000000000000000000000000001000000000000000000000000000000000000000000000000000000000000000000000000000000000000000000010000100000000000000000000000000010100000000000000000000000000000000000000000000000000000000100000000000000011000000000000000000000000000000000000000000000000000000000000000000000000000000000000000000101011100000000000000000000001111111110000000000011100000000000000000000000000000000000000111000000000000001011000000000000000000000000000000000000000000000000001100000000000000000000000000000000000000110000000000000000000000000100100001100000000000000000000000000000000000000000000000000000010000000000000000111000000110000001100000000000000000000000000000000011000000000000000000000000000000000000000000000010000000000000000111110001001000000000000000100000000000000000000000000000000000000000000000000000001100000001110001100110000000000000000000000000000000000000000000000000000000000000000000000000110000100000000000000010110000001100000000000000001000000000000000000000000000000000111000000000000000000011100000010101100000010000000000000000000000000000000000000000000000000000000000000000000000001100001000000000000001000100000000000000000000000010000000000010000000000000000000000000000010000000000000001100000100000011100100000000000000000000000000000000000000000000000011000000000000000000000000000000000000000000011010000001110000001000000000000000000001010000000000000000000000000000110100000000000000000100100100100111000000000000000000000000000000000000000000110000110000000000000000000000000000000000000000001010000000111100000100000000000000000000010100000000000000000000000000000111000000000000000000110000000110000000000000000000000000000000110000000000001100000000000000000000000000000000000000000000000001000000110000110000010000000000000000000010000000000000000000000000000000100000000000000000001000001000100000000000000000000000000000001100000000011000000000000000000000000000000000000000000000000000000000001100000000010000000000000000000000000000000000000000000000000000000000110000000000000000000000010000000000000000000000000000000000000000000101000000000000000000000000000000000000000000000000000000000100100001000101000000000000000000000000000000000000000000000011000000001110000000000000000000000000000000000000000000000000000000000000000000010000000000000000000000000011100000000000000000000000000000100000001001011000100000000000000000000000000000000000000001010000000100100000000000000000000000000000000000000000000000000000000000000000001100011000000000000000000000000000000000000000000000000000001001000010001000010100000000000000000000000000000000000000011000000001011000000000000000000000000000000000000000000000000000000000000000000000001001000000000000000000000000100000000000000000000000000000110000011100000101000000000000000000000000000000000000000000000010000100000000000000000000000000000000000000000000000000000000000011000000000001010000000000000000000000001000000000000000000000000000000000000000000000100000000000000000000000000000000000000000000000110000000000000000000000000000000000000000000000000000000000000000101100000000001000000000000000000000000010000000000000000000000000000000000000000000000000000000000000000000000000000000000000000000010100000000000000000000000000000000000000000000000000000000000000000001000000000000000000000000000000000000000000000000000000000000000000000000000101000000000000000000000000000000000000000000000000000010000000000000000000000000000000000000000000000000000000000000000001110000000000000000000000000000000000000000000000000000000000000000000001000000000000000000000000000000000000000000000000000000000011100000000000000000000000000000001100000000000000000000000000000000000000000000000000000000000000000000000000000000000000000000000000000100011110000010000000000000000000000000000000000000000000000100000000000000000000000000000000000011000000000000000000000000000000000000000000000000000000000000000000000000000000000000000000000000000010110000000000000000000000000000000000000000000000000000000010001000000000000000000000000000000000000000000000000000000000000000000000000000000000000000000000000000000000000000000000000000000000000000101000101000111000000000000000000000000000000000000000000000011100000000000000000000000000000000000000000000001100000000000000000000000000000000000000000000000000000000000000000000000000000000000000000100000100000100000000000000000000000000000000000000000000000110000000000000000000000000000000000000000000000011000000000000000000000000000000000000000000000000000000000000000000000000000000000000000000000000000000000000000000000000000000000000000000000000000000000000000000000000000000000000000000000000000000000000000000000000000000000000000000000000000000000000000000000000000000000000000000000000000000000000000000000000000000000000000000000000000000000000000000000000000000000000000000000000000000000000000000000000000000000011000000000000000000000000000000000000000000000000000000000000000000000000000000010000000000000000000000000000000000000000000000000000000000000000000000000000000000000000000000000000000000000000000000110000000000000000000000000000000000000000000000000000000000000000000000000000000110000000000000000000000000000000000000000000000000000000000000000000000000000000000000000000000000000000000000000000000000000000000000000000000000000010000000000000000000000000000000000000000000000000000000000000000000000000000000000000000000000000000000000000000000000000000000000000110000000000000000000000000000000000000000000000000000000000000001010000000000000000000000000000000000000000000000000000000000000000000000000000000000000000000000000000000000000000000000000000000000001010000000000000000000000000000000000000000000000000000000000000010100000000000000000000000000000000000000000000000000000000000000000000000000000000000000000000000000000000000011000000000000000000000001000000000000000000000000000000000000000000000000000000000000000010000000000000000000000000000000001100000000000000000000000000000000000000000000000000000000000000000000000001001000000001100000011000000000000000000000000000000000000000000000000000000000000000000000000000000000000000000000000000000011000000000000000000000000011000000000000000000000000000000000000000000000001100000000011000001001000000000000000000000000000000000000000000000000111000000000000110000000110000000000000000000000000000000000000000000000000000000110000000000000000000100000000000000000000000000000000000000000000010100000000000000000000000000000000000000000000000000000000000000001100000010010000000000000000000000000000000000000000000000000000000000000000000000000010100000000000000000000000000000000000000000000010000000000000000000000000000000000000000000000000000000000000000000000000011000000000000000000000000000000000000000000000000000000000000000000000000000101000000000000000000000000000000000000000000000000000000000000000000000000000000000000000000000000000000000000000000000000000000000000000000000000000000000000000000000000000000000000000000000000000000100000000000000000000000000000000000000000000000000000000000000000000000000000000110000000000000000000000000000000001000000000000000000000000000000000000000000000000000000000000000000000000000000000000001000000000000000000000000000000000000000000000000000000000000000000000000000010010000000000000000000000000000000111000000000000000000000000000000000000000000000000000000000000000000000000000000000000010000000000000000000000000000000000000000000000000000000000000000000000000000101000000000000000000000000000000010101000000000000000000000000000000000000000001110000000000000000000000000000000000000000100000000000000000000000000000000000000000000000000000000000000000000000000000100000000000000000000000000000000100010000000000000000000000000000000000000000000000000000000000000000000000000000000000000000000000000000000000000000000000000000000000000000000000000000000000000000000000000000000000000000000000000011101001000000000000001100110000000000000000000000000000000000000000000000000000000000000000111000000000000000000000001000000000000000000000000000000000000000000000000000000000000000000000000001110000000000000000000000000011001100000000000000000000000000000000000000000000000000000000001011000000000000000000000000000101000000000000000000000000000000000000000000000000000000001100000000000000000000000000000100000000001100000000000000000000000000000000000000000000000000000000000000000010001000000000000000000000000001010000110000000000000000000000000000000000000000000000000100100000000000000000000000001000000000000011000000000000100000000000000000000000000000000000000000000000000000111000000000000000000000000000001000010010000000000000000000000000000000000000000000000001010000000000000000000000000100000000000000000000000000010100000000000000000000000000000000000000000000000000000000000000000000011000000000000000000011000000000000000000000000000000000000000001000000001000000000000000000000000011000100000000000000000000000101000000000000000000000000000001000000000000000000000000000000000000001010000000000000000000000000000000000000000000000000000000000000101000000000000000000000000000000000110110000000000000000000000000100000000000000000000000000000010000000000000000000000000000000000000001000000000000000000000000000000000110000000000000000000000000000110000000000000000000000000000000000101000000010000000000000000000000000000000000011000000000000000000000000000000000000000000000011000000000000000000000000000000000000010100000000000000000000000000000000000000000000000000000000000000000000000000110000000000000000000000000000000000110000000000000000000000000000000000000000000001001000000000000000000000000000000000000010000000000000000000000000000000000000000000000000000000000000000000001110001100000000000000000000000000000000000000000000000000000000000000000000000000000000010100000000000000000000000000000000000000000000000000000000000000000000000000000000000000000000000000000101000000100010000000000000000000000000000000000000000000000000100000000000000000000000000000000010000000000000000000000000000000000000000000000000000000000000000000000000000000000000000000000000000000010000000100000001000000000000000000000000000000000000000000001000100000000000000000000000000000000000000000000000000000000000000000000000000000000000000000000000000000000000000000000000000000000001100010000010100000011000000000000000000000000000000000000000000010110100000000000000000000000000000000000000000000000000000000000000000000000000000000000000000000000000000000000000000000000000000000110111000000010001111010000000000000000000000000000000000000000000000101000000000000000000000000000000000000001000000000000000000001100000011000000000000000000000000000000000000000000000000000000000000100000000000100011111100000000000000000000000000000000000000000000000100000000010000001000000000000000000000111000000000000000000011000000110000000000000000000000000000000000000000000000000000000000000111000001101011110011000000000000000000000000000000000000100000000000000000000100001111000000000000000000010011000000000000000000000001000000000000000100011000000000000000000000000000000000000000000000100000000010110110000000000000000000000100000000000000010100000000000000000001000110001000110000000000000111000000000000000000000000101000000000000011000000000000001000000000000000000000000000000000000000001000000001100000000000000000000001000000000000000011000001100000000000000010001100011000000000000000000000000000000000000000001001000000000001100000000000000101000000000000000000000000000000000000000000001100110000000000000000000000010000000000000000000000001010000000000000011110000000011000000000000000000000000000000000000001100000000000011100000000000001010000000000000000000000000000000000000010000010000000000000000000000000000000000000000000000000000011100000000000000010000000001001000000110001000000000000000000000000000000000000000000000000000000001000000000000000000000000000000000000000110011000000000000000000000000000000000000000000000000000000010000000000000000000000001110010000001110111000000000000000000000000000000000000000000000000000000000000000000000000000000000000000000000100000100000000000000000000000000000000000000000000000000010000000000000000000000000000110001000000000110001000000000000000000000000000000000000000000000000000000000000000000000000000000000000000000001000010000000000000000000000000000000000000000000000000001110000000000000000000000000001101110000000000101100000000000000000000000000000000000000000000000000000000000000000000000000000000000000000000000001000000000000000000000000000000000000000000000000000111110000000000000000000000000000000000000000000011000000000000000000000000000000000000000000000000000000000000000000000000000000000000000000010001000011100000000000000000000000000000000000000000000011000110000000000000000000000000000000000000000000000000000000000000000000000000000000000000110000000000000000000000000000000000000000000000000111000000000000000000000000000000000000000000000000000001110001110000000000000000110000000010000000000000000000000000000000000000000000000000000000000110000000000000000001000000000000000000000000000000000000000000000000000000000000000000000000000000000000001100011000000000011000001100000011010000000000000000000000001000000000000000000000000000000000000000000000000000101000000000000000000000000000000000000000000000000000000000000000000000000000000000000001111100000000000110000000000000011000000000000000100000000101000011000000000000000000000000000000000000000000001010000000000000000000000000000000000000000000000000000000000000000000000000000000000000001110000000000000000000000000000010000000000000011000000001001001001000000000000000000000000000000000000000000001000000000000000000000000000000000000000000000000000000000000000000000000000000000000000001000000000000000000000000000000000000000001000101000000001100010100000000000000000000000000000000000000000000000000000000000000000000000000000000000000000000000000000110000000000000000000000000000000000000000000000000000000000000000000000000010000000000000000000010000000000000000000000000000000000000000000000000000000000000000000000000000010000000000000000000000001100000000000000000000000000000000000000000000000000000000000000000000000000100000000000000000000000000000000000000000000000000000000000000000000000000000000000000000000000000100000000000000000000000000000000000000000000000000000111000000000000000000000011000000000000000000000000000000000000000000000000000000000000000000000000000000000000000000000000000000000000000000000001000000000000000000000000000000000000000000000000000000000000000000000000000001001000000001100000000000000000000000000000000000000000000000000000000000000000000000000000000000000000000000000000000000000000000000000000000000000000000000000000000000000000000000000000000000000000010010000000101000000000000000000000000000000000000000000000000000000000000000000000000000000000000000000000000000000000000000000000000000000000000000000000000000000000000000000000000000000000000000000011000000000100000000000000000000000000000000000000000000000000000000000000000000000000000000000000000000000000000000000000000000000000000000000000000001100000000000000000000000000000000000000000000000000000000000000000000000000000000000000000000000000000000000000000000000000000000000000000000000000000000000000000000000000000000000000000110000000000100100000000000000000000000000000000000000000000000000000000000000000000100000000000000000000000000000000000000000000000000000000000000000000000000000000000000000000000000000000000000000001100000000000110000000000000000000000000000000000000000000000000000000000000000000010100000000000000000000000000000000000000000000000000000000000000000000000000000000000000000000000000000000000000000000000000000000000000000000000000000000000000000000000000000000000000000000000000001010000000000000000000000000000000000000000000000000000000000000000000000000000000000000000000000000000000000000000000000000000000000000000000000000000000000000000000000000000000000000000000000000000101000000000000000000000000000000000000000000000000000000000000000000000000000000000000000000000000000000000000000000000000000000000000000000000000000000000000000000000000000000000000000000000000000000100000000000000000000000110000000000000000000000000000000000000000000000000000000000000000000000000010000000000000000000000000000000000000000000000000000000000000000000000000000000000000000000000000000000000000000000000000001100000000000000000000000000000000000000000000000000000000000000000000000000100000000000000000000000000000000000000000000000000000000000000000000000000000000000000000000000000000000000000000000000000000000000000000000000000000000000000000000000000000000000000000000000000000001000000000000000000000000000001000000000000000000000000000000000000000000000000000000000000000000000000000000000000000000000000000000000000000000000000000000000000000000000000000000000000000000000000000000000000000000000000000000101000000000000000000000000000000000000000000000000000000000000000000000000000000000000000000000000000000000000000000000000000000000000000000000000000000000000000000000000000000000000000000000000000001010000000000000000000000000000000000000000000000000000000000000000000000000000000000000000000000000000000000000000000000000000000000000000000000000000000000000000000000000000000000000000000000000000001000000000000000000000000000000000000000000000000000000000000000000000000000000000000000000000000000000000000000000000000000000000000000000000000000000000000000000000011100000000000000000000000000000000000000000000000000000000000000000000000000110000000000000000000000000000000000000000000000000000000000000000000000000000000000000000000000000000000000000000000000000000000000000000000000000000000000000000000000000011000000000000000000000000001100000000000000000000000000000001100000000000000000000000000000000000000000000000000000000000000000000000000000000000000000000000000000000000000000000000000000000000000000110000111000000000000000000000000000000000000000000000000000111100000000011000000000000000000000000000000000000000000000000000000000000000000000000000000000000110000000000000000000000011000000000000000000000000000000000000000000000000000000000000000000000000011101000000000110000000000000000000000000000000000000000000000000000000000000000000000000000000000001010000000000000000000000110000000000000000000000000000000000000000000000000000000000000000000000000011101000000000000000000000000000000000000000000000000000000000000000000000000000000000000000000000001100000000000000000000000000000000000000000000000000000000000000000000000000000000000000000000000000011100000000000000000000000000000000000000000000000000000000000000000000000000000000000000000000000000000000000000000000000000000000000000000000000000000000000000000000000000000000000000000000000000000011000000000000000000000000000000000000000000000000000000000000000000000000000