P1
200 200
0000000000000000000000000000000000000000000000000000000000000000000000000000000000000000000000000000000000000000100000000000000000000000000000000000000000000000000000000000000000000000010000000000000000000000000000000000000000000000000000000000000000000000000000000000000000000000000000000000000000000000010000010100000000000000000000000000000000000000000000000000000000000000000000001010000000000000000000000000000000000000000000000000000000000000000000000000000000000000000000000000000000000000000000001010000100100000000100000000000000000000000000000000000000000000000000000000000010100000000000000000000000000000000000000000000000000000000000000000000000000000000000000000000000000000000000000000000011000000110000000010100000000000000000000000000000000000100000000000000000000000010000000000000000000000000000000000000000000000000000000000000000000000000000000000000000000000000000000000000000000000000000000000000000101000000000000000000000000000011100010100000000000000000000000000011100000000000000000000000000000000000000000000000000000000000000000000000000000000000000011000000000000000000000000000000000000000000100000000000000000000000000000000000100100000000000000000000000000000000000000000000000000000000000000000000000000000000000000000000000000000000000000000000110000000000000000000000000000000000000000000000000000000000000000000000000000000110000000000000000000000000000000000000000000000000000000000000000000000000000000000000000000000000000000000000000000000000000000000000000000000000000000000001100000001100000000000000000000000000000000000000000001100000000000000000000000000000000000000000000000000000000000000000000000000000000000000000000000000000000000000000000000000000000000000000000000100100000100100000000000000000000000000000000000000000011000000000000000000000000000000010000000000000000000000000000000000000000000000000000000000000000000000000000000000000000000000000000000000000000110000000110000000000000000000000000000000000000000000000000000000000000000011100000100100000000000000000000000000000000000000000000000000000000000000000000000000000000000000000000000000000000000000000000000000000000000000000000000000000000000000000000000000000000000000000001001000001001000011000000000000000000000000000000000000000000000000000000000000000000000000000000000000000000000000000000000000000100000000000000000000000000000000000000000000000000000000000000000000011001000001000000110000000000000000000000000000000000000000000000000000000000000000000000100000000000000000000000000000000000000010100000000000000000000000000000000000000000000000000000000000000000001011110000000111000000000000000000000000000000000000000000000000000000000000000000000000001000000000000000000000000000000000000000101000000000000000000000000000000000000000000000000000000011000000000000010000000001110000000000000000000000000000000000000000000000000110000000000000000000000010000000000000000000000000000000000000000100000000000000000000000000000000000000000000000000000001001000000000101100000000000000000000000000000000000000000000000000000000000010010000000000000000000000000000000000000000000000000000000000000000000000000000000000000000000000000000000000000000000000010100000000000110000000000110000000000000000000000000000000000000000000000000101000000000000000000011100011100000000000000000000000000000000000000000000000000000000000000000000000000000000000000000000010000000000001000000000011010000000000000000000000000000000000000000000000000100000000000000000000000000000000000000000000000000000000000000000000000000000000000000000000000000000000000000000000000000000000000000000000000101101100000000000000000000000000000000000000000000000000000000000000000000000000000000000000000000000000000000000000000000000000000000000000000000000000000000000000000011000000000000000000000000000000000110000000000000000000000000000000000000000000000000000000000000000000000000000000000000000000000000000000000000000000000000000000000000000100000100000000000000000000110000000000000000000000000000001000100000000000000000000000000000000000000000000000000000000000000000000000000000000000000000000000000000000000000000000000000000000000000011000101000000000000000000000000000000000000000000000000000010010000000000000000000000000000000000000000000000000000000000000000000000000000000000010000000000000000000000000000000000000000000000000001000001110000000000000000000000000000000100000000000000000001010000000000000000000000000000000000000000000000000000000000000000000000000000011000001100000000000000000000000000000000000000000000000000001100000000000000000000000000000000000110000000000000000000011100000000000000000000000000000000000000000000000000000000000000000000000000001111100011010000000000000000000000000000000000000000000000000001000000000000000000000000000000000001110000000000000000000010000000000000000000000000000000000110000000000000000000000000000000000000000101100110000111000000000000000000000000000000000000000000000000000000000000000000000000000000000000000000000000000000000000000000000000000000000000000000000010010000000000000000000000000000000000000001100011000001000000000000000000000000000000000000000000000000000000000000000000000000000000000000000000100000000000000000000000000000000000000000000000000000100100000000000000000000000000000000000000000000001011100000000000000000000000000000000000000000000000000000000000000000000000000000000000000000101110000000000000000000000000000000000000000000000000000110000000000000000000000000000000000000000001110111111000000000000000000000000000000000000000000000000000000000110000000000000000000000000000110001000000000000000000000000000000000000010101000111000000000000000000000000000000000000000000000000011010110000000000000000000000000000001000000000000000000000000000010100001100000000000000000000000000000000000000110000000000000000000000010010010001000100000000000000000000000000000000000000000001100011111000000000000000000000000000000101000000000000000000000000000010000011000000000000000000000000000000000000001110000000000000000000001100000110100001000000000000000000000000000000000000000000011000010100000000000000000000000000000001010000000000000000000000000000000000000000000000000000000000000000000000000001010000000000000000000011000010101000000000000000011000000000000000000000000000000000000010000000000001000000000000000000001000000000000000000110000000000000000000000000000000000000000000000000000000010110000000000000000000011111000000000000000000001001000000000000000000000000000000000000000000000000010000000000000000000000000000000000000001010000000000000000000000000000000000000000000000000000001001000000010000000000000010000001000100000000000010100000000000000000000000000000000000000000000000001010000000000000000000000000000000000000001000000000000000000000000000000000000000000000000000000010010000001010000000000000000111010000000000000000010000000000000000000000000000000000000000000000000000000000000000000000000000000000000000000000000000000000000000000000000000001000000000000000000000111000000010010000000000000001000000000000000000000000000000000000000000000000000000000000000000000000011100000000000000000000000000000000000000000000010000000000000000000000000101000000000000000111001110000000011000000000000000000000000000000000000000000000000000000000000000001000000000000000000000001011000000000000000000000000000000000000000000001010000000000000000000000001010000000000001001000001000000000000000000000000000000000000000000000000000011000000000000000000000010000000000000000000000100010001110000000000000000000000000000000000100010100000000000000000000000001000000000000010001100110000000000000000000000000000000000000000000000000000110000000000000000000000100000000000000000011100000000000000000000000000000000000000000000010100010000000000000000000000000000000001110000100010010000000000000001100000000000000000000000000000000000000000000000000000000000000000000000000000000001000001000000000000000000000000000000000000000101000000000000000000000000000000000000000000000000011100000000000000010100000000000000000000000000010000000000000000000000000000000000000000000000000001100001001000000000000000000000000000000000000000100000000000000000000000000000000000000000000000000010000000000000000010000000000000000000000000001010000000000000000000000000000000000000000000000011111100001001000000000000000000000000000000000000000000000000000000000000000000000000000000000000000000000000000000000000000000000000000000000000000010010000000000000000000000000000000000000000000000000110000001011000000000000000000000000000000001100000001100000000000000000000000000000000000000000000000000000000000000000000000000000000000000011000011000000000000000000000000000000000000000000000000000010000010010000000000000000000000000000000011000000100100000000000000000000000000000000000000000000000000000000000000000000000000000000000000110000000000000000000000000000000000000000000000000000000011100000011011000000000000000000000000000000000000000110000000000000000000000000000000000000000000000000011000000000000000000000000000000000000000000000000000000000000000000000000000000000000000000000000000000000100000000000000000000000000000000000000000000000000000000011000000000000000000000000000000000110000000000000000000000000000000010000000000000000000000000000000000000000000000000000000000000000000000001000000000000000000000000000000000000000000000000000111001001000000000000000000000000000000000000000000000000000000000000000000100000000000000000000000000000000000000000000000000000000000000000000000100000000000000000000000000000010000000011000000000001001001100000000000000000000000000000000000000000000000001000000000000000001000000000000000000000000000000000000000000000000000000000000000000010010000000000000000000000000000000111100000110000000001100110000000000000000000000000000000000000000000000000000010000000000000000000000000000000000000000000000000000000000000000000000000000000000001001000000000000000000000000000000001010100000000000000010100100000000000000000000000000000000000000000000000000000100000000000100110001110000000000000000000000000000000000000000000000000000000000000001100000000000000000000000000000000000011100000000011000101000000000000000000000000000000000000000000000000000000000000000000011110000000000000000000000000000000000000000000000000000000000000000000000000000000000000000000000000000001110000011100000001001000000000000000000000000000000000000000000000000000000000000000000000001001000010000000000000000000000000000110000000000000000000000000000000000000000000000000000110000000000000000000001110000001000010001001000100000000000000000000000000000000000000000000000000000000000011000000100000000000000110000000000001100000000000000000000000000000000000000000000000000001100000000000000000010101000000111111000000010011000000000000000000000000000000000000000000000000000000000000000000001000000000000001100000000000000000000000000000000000000000000000000000000000000000000000000000000000000111100000011010000000100100010000000000000000000000000000000000000000000000000000000000000000000000000000000000000000000000000000000000000000000000000000000000000000000000000000000000000000000000000001000000000010100000000000000000000000000000000000000000000000000000000000000000000000000011000000000000000000000000000000000000000000000000000000000000000000000000000000001110000000000000000000000000000000000000011000000101000000000000000000000000000000000000000000000000000000000000000001001000000000000000000000110000011000000000000000001110000000000000000011000000000000000000000000000000000000000000000000000000000001010010000000000000000000000000000000000000000000000000000000000000001000000000000000001100010010000110000000000000000010000000000000000000101000000000000000000000000000000000000000000000000000000000011001100000000000000000000000000000000000000000000000000000000000001110000000000000000011000010100000000000000000000000010000000000000000000100000000000000000000000000000000000000000000000000000000000001001000000000000000000000000000000000000000000011000000000000000011000000000000000000000000010000000000000000000000000000000000000000000000000000000000000000000000000000000000000000000000000000000000011100000000000000000000000000000000000000000001001000000000000001010000000000000000000000000000000000000000000000000000000000000000000000000000000000000000000000000000000000000000000000000000000000000000000000000000000000000000000000000000000000010010000000000000011000000000000000000000000000000000000000000000000110000000000000000000000000000000000000000000000000000000000000000000000000000000000000000000000000000000000000000000000110000000000011000000000000001000001110000000000000000000000000000000000000000001100000000000000000000000000000000000000000000000001100000111000000000000000000000000000000000000000000000000000000000001100000000000000000000000000001011100010000000000000000000000000000000000000000000000000000000000000000000000000001100000000000000011000000000000000000000000000000000000000000000000000000000000000000000000000000000000000000000001000111000110000000000000000000000000000000000000000000001110000000000000000000000000100100000000000000000000000000000000000000000000000000000000000000000000000000000000000000000000000000000000000000100100000100000000000000000000000000000000000000000000000010110000000000000000000000000110000000000000000000000000000000000000000000000000000000000000000000000000000000000000000000000000000000000000001001000000010000000000000000000100000000000000000000000000001000000000000000000000000000000000000000000000000000000000000000000000000000000000000000000000000000000000000000000000000000000000000000000010100000000001000000000000000010100000000000000000000000000100000000000000000000000000000000000000000000000000000000000001000000000000000000000000000000000000000000000000000000000000000000000000000000110000000010010000000000000000101000000000000000000000000010100000000000000000000000000000000000000000000000000000000000010000000000000000000000000000000000000000000000000000000000110000000000000000000000000000010000000000000000000100000000000000000000000000111110000000000000000000000000000000000000000000000000000000000100000000110000000000000000000000000000000000000000000000010010000000000000000000000000001000000000000000000000000000000000000000000000001001100000000000000110000000000000000000000000000000000000000000000000010010000000000000000000000000000000000000000000000011000000000000000000010000000011101000000000000000000000010100000000000000000100000110000000000010010000000000000000000000000000000000000000000000000101000000000000000000000000000000000000000000000000000000000000000000000100000000000111000000000000000000000001000000000000000001000111110000000000011000000000000000000000000000000000000000000000000000100000000000000000000000000000000000000000000000000000000000000000000001000000001000011000000000000000000110000100000000000000100000010100011100000000000000000000000000000000000000000000000000000000000000011000000000000000000000000000000000000000000000000000000000000000000000000000000100000000000110000000101111000000000000001000000110000000000000000000000000000000000000000000000000000000000000000000000011000000000000000000000000000000000000000000000000000000000000000000000000001110000000000010010000000000010000000000000010110001000000000000000000000000000000000000000000000000000000000000110000000000100000000000000000000000000000000000000000000000000000000000000000000000000001000000000000011000000000010001000000000000100000100000000000000000000000000000000000000000000000000000000000001100000000001000000000000000000000000000000000000000000000000000000000011100000011100000000000000000000000000000110101010000000000000000010000000000000000000000000000000000000000001100000000000000000000000011000000010000000000000001000000000000000000000000000000000001101000100000000000000000000000000000000000001000011000000000000000100100000000000000000000000000000000000000000011000000000000000000000001101011110100000000000000101000000000000000000000000000000000011101000100000000000000000000000000000000000000001000001000000000000111000000000000000000000000000000000000000000000000000000000000000000001001101010100000000000000100000000000000000000000000000000001001101000100000000000000000000000000000000000010010000010000000000001110000000000000000000000000000000000000000000000000000000000000000000001101001101100000000000000000000000000000000000000000000000010010000001000000000000000000000000000000000001111000000100000000000000000000000000000000000000000000000000000000000000000000000000000000000001010011011000000000000000000000000000000000000000000000000100100001000000000000000000000000000000000000110000000000000000000000000000000000000000000000000000000000000000000000000000000000000000001101001100001000000000000000000000000000000000000000000000000000001000010010000000000000000000000000000000010010001100000000000000000000000000011000000000000000000000000000000000000000000000000000000010010000000000000000000000000000000000000000000000000000000000000000000000001000000000000000000000000000000100100100100000000000000000000000000110000000000000000000000000000000000000000000000000000000011100000000000000000000000000000000000000000000000000000000010100000001110010000000000000000000000000000000110000110000000000000000000000000000000000000000000000000000000000000000000000000000000000000000000000000000000000000000000000000000000000000000000000000000000000000100000000000000000000000000000000000000000000000000000000000000000000000000000000000000000000000000000000000000000000000000000000000000000000000000000000000000000000000000000000000000000001010000001001000000000000000000000000000000000000000000000000000000000000000110000000000000000000000000000000000000000000000000000000000000000000000000000000000000000000000000000001000000000000000000000000000010010001000000000000000000000000000000000000000000000000000000000010010000000000000000000000000000000000000000000000000000000000000000000000000000000000000000000000000000101000000000000000000000011000011001110001100000000000000000000000010000000000000000000000000000100100000000000000000000000000000000000000000000000000000000000000000000000000000000000000000000000000001010000000000000000000001110000100000000000000000000000000000000000100000000000000000000000000000110000000000000000000000000000000000000000000000001000000000000000000000000000000000000000000000000000001000000000000000000000000100000000000001110000000000000000000000001000000000000000000000000000000000000000000000000000000000000000000000000000000111000000000000000000000000000000000000000000000000000000000000000000000000010010001011000000110000000000000000000000000000000000000000000000000000000000000000000000000000000000000000000000000000000010111000000000000000000000000000000000000000000000000000000000000000000000000000010110100000011000000000000000000000000000000000000000000000000000001100000000000000000000000000000000000000000000000001100001000000000000000000000000000000000000000000000000100000000000000000000000100101100000001000111000000000000000000000000000000000000000000000000100100000000000000000000000000000000000000000000000001000011000000000010000000000000000000000000000000000001000000000000000000000001110011010000011011101000000000000000000000000000000000000000000000000110000000000000000000000000000000000000001110000000010110100000000001100000000000000001000000000000000000010000000000000000000000000000000100000110001010000000000000000000000000000000000000000000000000000000000000000000000000000000000000000010010000000100000000000000010100000000000000010000000000000000000000000000000000000000000000001011000001001101111000000000000000000000000000000000000000000000000000000000000000000000000000000000000000100100000000111000000000000000000000000000000100000000000000000000000000000000000000000000000001000000010000001111100000000000000000000000000000000000000000000000000000000000000000000000000000000000000000000000000100000001100000000000000000000000000000000000000000000000000000000000000000000000000000000010011000001000000000000000000000000000000000000000000000000000000000000000000000000000000000000000011000000000000000011000000000000000000111000111000000000000000000000000000000000000000000000000000000000000001010000000000000001000000000000000000000000000000000000000000000000010000000000000000000000010000000011000000000000000000001110000000000000000000000000000000000000000000000000000000000000000000011101011000000000000000101000000000000000000000000000000000000000000000000100000000000000000000000000000000110000000000000000010000100000001000000000000000000000000000000000000000000000000000000000000110001000000000000000001001000000000000000000000000000000000000000000000001000000000000000000000000000000000000000000000000000100000100000010000000000000000000000000000000000000000000000000000000000000000010000000000000000001100000000000000000000000000000000000000000000000000000000000000000000000000000000000000000000000000000000001000000100000000000000000000000000000000000000000000000000000000000000111000000000000000000000000000000010000000000000000000000000000000000000000000000000000000000000000000100000000000000000000011000000000000000000000000000000000000000000000000000000000000000000000000000000000000000000000000000000000000010000000000000000000000000000000000000000000000000000000000000000010000000000000000000010001000000000000000000000000000000000000000000000000000000000000000000000000000000001110000000000000000000000011100010000000000011100000000000000000000000000000000000000000000001101111000000000000000101100100000000000000000000000000000000001100000000000000000000000000000000000000000000000000000000000000000000011001100000000000000000000000000000000000000000000000000000000000001111001000000000000001000100000000000000000000000000000000000011000000000000000000000000000000000000000010000010000000000000000000000000000000000000000000100000000000000000000000000000000000000000000001111110000000000000000101000000000000000000000000000000000000000000000000000000000000000000000000000000100000100000000000000000011100011000000000000000001000000000000000000000000000000000111000000000000001000001000000000001110000000000000000000000000000000000000000000000000000000000000000000000000000001000001000000000000000000000000001000000000000000010000000000010000000000000000000000000000000000000000000101000000000000000000000000000000000000000000000000000000000000000000011000000000000000000000000000000000000000000000010001000010000000100000000000000000001010000000000000000000000000000000000000000001010000000000000000000000000000110000000000000000100000000000000110000110000000000000000000000000000000000000000000000100001000000000011000000000000000000010100000000000000000000000000000000000000000001000000110000000000000000011000010000000000000110100000000000001100000000000000000000000000000000000000000000000000000110001000000001001000000000000000000010000000000000000000000000000000000000000000000000010010000000000000000100000100000000000110000100000000011000000000000000000000000000000000000000000000000000000000100100000000011000000000000000000000000000000000000000000000000011000000000000000000000011000000000000000000111110000000000000000001000000000101000000000000000000000000000000000000000000000000000000000000000000000010000000000000000000000000000000000000000000000000100000000000000000000000000000000000000000000000000000000000100110000000000000010000000000000000000000000011100000000000000000000000000000000010000000000000000000000000000000000000000000000000000000001001100000000000000000000000000000000000000000000000000000000101100010000000001100011000000000000000000000000000000000000000000000000000001100100001100000000000000000000000000000000000000000000000000001000100000000000000000000000000000000000000000000000000000000111110000000000000001001000000000000000000000000100000000000000000000000000010010100011000000011000000000000000000000000000000000000000000011011100000000000000000000000000000000000000000000000000000000111100100000000000001010000000000000000000000001000000000000000000000000000011010000000000000110000000000000000000000000000000000000000001010110011000000000000000000000000000000000000000000000000000000000101100000000000001000000000000000000000000010000000000000000000000000000111100000000000010010000000000000000000000000000000000000000100000011001000000000000000000000000000000000000000000000000000000001010000000000000000000000000000000000000000000000000000000000000000000000000100000000000111000000000000000000000000000000000000000000101000001001000000000000000000000000000000000000000000000000000000001000000000000000000000000000000000000000000000000000000000000000000000100011100000000110010000000000000000000000000000000000000000001010000001100000000000000000000000001100000000000000000000000000000000000000000000000000000000000000000000000000000000000000000000000000010100000010000110100000000000000000000000000000000000000000000001010000000000000000000000000000000011000000000000000000000000000000000000000000000000000000000000000000000000000000000000000000000000000101000010011001101100000000000000000000000000000000000000000000010100000000000000000000000000000000000000000000000000000000000000000000000000000000000000000000000000000000000000000000000000000000000000000011100010000100000000000000000000000000000000000000000000000010000000000000000000000000000000000000000000001100000000000000000000000000000000000000000000000000000000000000000000000000000000000000000000100011100000000000000000000000000000000000000000000000000000000000000000000000000000000000000000000000000011000000000000000000000000000000000000000000000000000000000000000000000000000000000000000000000001010000000000000000000000000000000000000000000000000000000000000000000000000000000000000000000000000000000000000000000000000000000000000000000000000000000000000000000000000000000000000000000000000001110000000000000000000000000000000000000000000000000000000000000000000000000000000000000000000000000000000000000000000000000011000000000000000000000000000000000000000000000000000000000000000000000000101100000000000000000000000000000000000000000000000000000000000000000000000000000000000000000000000000000000000000000000000000110000000000000000000000000000000000000000000000000000000000000000000000001110000000000000000000000000000000000000000000000000000000000000000000000000000000000000000000000000000000000000000000000000000000000000000000000000000000000010000000000000000000000000000000000000000000000000000000000000000000000000000000000000000000000000000000000000000000000000000000000000110000000000000000000000000000000000000000000000000000000000000001010000000000000000000000000000000000000000000000000000000000000000000000000000000000000000000000000000000000000000000000000000000000001010000000000000000000000000000000000000000000000000000000000000010100000000000000000000000000000000000000000000000000000000000000000000000000000000000000000000000000000000000011000000000000000000000001000000000000000000000000000000000000000000000000000000000000000010000000000000000000000000000000001100000000000000000000000000000000000000000000000000000000000000000000000001001000000001100000011000000000000000000000000000000000000000000000000000000000000000000000000000000000000000000000000000000011000000000000000000000000011000000000000000000000000000000000000000000000001100000000011000001001000000000000000000000000000000000000000000000000111000000000000110000000110000000000000000000000000000000000000000000000000000000110000000000000000000100000000000000000000000000000000000000000000010100000000000000000000000000000000000000000000000000000000000000001100000010010000000000000000000000000000000000000000000000000000000000000000000000000010100000000000000000000000000000000000000000000010000000000000000000000000000000000000000000000000000000000000000000000000011000000000000000000000000000000000000000000000000000000000000000000000000000101000000000000000000000000000000000000000000000000000000000000000000000000000000000000000000000000000000000000000000000000000000000000000000000000000000000000000000000000000000000000000000000000000000100000000000000000000000000000000000000000000000000000000000000000000000000000000110000000000000000000000000000000000000000000000000000000000000000000000000000000000000000000000000000000000000000000000000000000000000000000000000000000000000000000000000000000000000000000000000000010010000000000000000000000000000000000000000000000000000000000000000000000000000000000000000000000000000000000000000000000000000000000000000000000000000000000000000000000000000000000000000000000000000101000000000000000000000000000000000000000000000000000000000000000000000000000001110000000000000000000000000000000000000000000000000000000000000000000000000000000000000000000000000000000000000000000000100000000000000000000000000000000000000000000000000000000000000000000000000000000000000000000000000000000000000000000000000000000000000000000000000000000000000000000000000000000000000000000000000000000000000000000000000000000000000000000000000000000000001100110000000000000000000000000000000000000000000000000000000000000111000000000000000000000000001000000000000000000000000000000000000000000000000000000000000000000000000001110000000000000000000000000011001100000000000000000000000000000000000000000000000000000000000000100000000000000000000000000101000000000000000000000000000000000000000000000000000000001100000000000000000000000000000000000000001100000000000000000000000000000000000000000000000000000000000000001100000000000000000000000100000001010000110000000000000000000000000000000000000000000000000100100000000000000000000011011000000000000011000000000000100000000000000000000000000000000000000000000000000011000000000000000000000001100000001000010010000000000000000000000000000000000000000000000001010000000000000000000000100010000000000000000000000000010100000000000000000000000000000000000000000000000000000000000000000000000001011100000000000011000000000000000000000000000000000000000001000000001000000000000000000010000111000000000000000000000000000101000000000000000000000000000000000000000000000000000000000000000000000000000001100000000000000000000000000000000000000000000000000000101000000000000000000000000010100001000000000000000000000000000000100000000000000000000000000000000000000000000000000000000000000000000000011000011000000000000000000000000110000000000000000000000000000110000000000000000000000001100000011100000000000000000000000000000000000000000000011000000000000000000000000000000000000000000000011000011011000110000000000000000000000010100000000000000000000000000000000000000000000000000000111000111000000000000000000000000000000000000000000000000110000000000000000000000000000000000000000000001001000010100000000000000000000000000000010000000000000000000000000000000000000000000000000000000010110001110000000000000000000000000000000000000000000000000000000000000000000000000000000000000000000010100001101100000000000000000000000000000000000000000000000000000000000000000000000000000000000000000001100000000000000000000000000000000000000000000000000000000000000000000000000000000000000000000000010000000001000000000000000000000000000000000000000000000000000000000000000000000000000000000000000000100000001010011000000000000000000000000000000000000000000000000011111000000000000000000000000000000000001000000000000000000000000000000000000000000000000000000000000000000000000000000000000000000000000000000100001011000000000000000000000000000000000000000000000000110110000000000000000000000000000000000100000100000000000000000000000000000000000000000000000000000000000000000000000000000000000000000000000000000000011000000000000000000000000000000000000000000011000000001000000000000000000000000000000001010100000000001000000000001100000011000000000000001100000000000000000000000000000000000000000000000000001100000100000000000000000000000000000000000000000011110001110011100000010000000000000000000000001010000000000111000000000011000000110000000000000100100000000000000000000000000000000000000000000000000000101110000000000000000000000000000000000000000001000010101101010000000100000000000000000000000000010000000010010000000000000001000000000000000000101000000000000000000000000000000000000000000000000000000001000000000000000000000000000100000000000000001111101110011000000001000000000000000000000000011100000000011010000000000000101000000000000000000100000000001000000000000000000000000000000000000000000000000000000000000000000000000001000000000000000001011101000000000110000000001000110000000000000100100000000001100000000000001001000000000000000000000000000101000000000000000000000000000000000001000000001000111000000000000000000000010000000000000000000000000000000001100000001101101100000000000000101000000000001000000000000001100000000101011100000000000001010000000000000000000000000000000000101000000111010010000000000000000000000000000000000000100000000000000000000000000011001011000000000000000100000000000000000000000000000000000010010100000000000000001000000000000000000000000000000000001010000100000001000000000000000000000000000000000000001000000000000000000000000000000000000011000000000000000000000000000000000000000000000000100011000000000000000000000000000000000000000000000000000000100011111000000000000000000000000000000000000000000000000000000000000000000000000000000001100000000110000000000000000000000000000000000000011000110000000000000000000000000000000000000000000000000000011001100000100000000000000000000000000000000000000000000000000000000000000000000000000000000000000010010000000000000010000000000000000000000100001100000000000000000000000000000000000000000000000000000101110010000001000000000000000000000000000000000000000000010000000000000000000000000000010111000000100100000000000001010011100000000000000000110111000000000000000000000000000000000000000000000000000000100011000000010000000000000000000000000000000000000000001000000000000000000000000000000001010000000110000000000000010100000000000000000000001101110100000000000000000000000000000000000000000000000000000000000010000000000000000000000000000000000000000000000010110000100000000000000110000000000000000000000000000000000110000000000000000000000000000000110000000000000000001000000000000000000000000000000000000000000000000000000000000000000000000000000000000000010010010000000011000001100000000000000000000000000000000011100000000000000000000000000000011000000000000000000101000000000000000000000000000000000000000000000000000000000000000000000000000000000000000010100101000000110000000000000000000000000000000000000000001000011000000000000000000000000000000000000000000001010000000000000000000000000000000000000000000000000000000000000000000000000000000000000000010001110000000000000000000000000000000000000000000000001100001001000000000000000000000000000000000000000000001000000000000000000000000000000000000000000000000000000000000000000000000000000000000000000000000000000000000000000000000000000000001000000000000000000010100000000000000000000000000000000000000000000000000000000000000000000000000000000000000000000000000000110000000000000000000000000000000000000000000000000000000000000000000000000010000000000000000000010000000000000000000000000000000000000000000000000000000000000000000000000000010000000000000000000000001100000000000000000000000000000000000000000000000000000000000000000000000000100000000000000000000000000000000000000000000000000000000000000000000000000000000000000000000000000100000000000000000000000000000000000000000000000000000111000000000000000000000011000000000000000000000000000001100000000000000000000000000000000000000000000000000000000000000000000000000000000000000001000000000000000000000000000000000000000000000000000000000000000000000000000001001000000001100000000000000000110000000000000000000000000000000000000000000000000000000000000000000000000000000000000000000000000000000000000000000000000000000000000000000000000000000000000000000000010010000000101000000000000000000010000000000000000000000000000000000000000000000000000000000000000000000000000000000000000000000000000000000000000000000000000000000000000000000000000000000000000000000011000000000100000000000000000000000000000000000000000000000000000000000000000000000000000000000000000000000000000000000000000000000000000000000000000001100000000000000000000000000000000000000000000000000000000000000000000000000000000000000000000000000000000000000000000000000000000000000000000000000000000000000000000000000000000000000000110000000000100100000000000000000000000000000000000000000000000000000000000000000000100000000000000000000000000000000000000000000000000000000000000000000000000000000000000000000000000000000000000000001100000000000110000000000000000000000000000000000000000000000000000000000000000000010100000000000000000000000000000000000000000000000000000000000000000000000000000000000000000000000000000000000000000000000000000000000000000000000000000000000000000000000000000000000000000000000000001010000000000000000000000000000000000000000000000000000000000000000000000000000000000000000000000000000000000000000000000000000000000000000000000000000000000000000000000000000000000000000000000000000101000000000000000000000000000000000000000000000000000000000000000000000000000000000000000000000000000000000000000000000000000000000000000000000000000000000000000000000000000000000000000000000000000000100000000000000000000000110000000000000000000000000000000000000000000000000000000000000000000000000010000000000000000000000000000000000000000000000000000000000000000000000000000000000000000000000000000000000000000000000000001100000000000000000000000000000000000000000000000000000000000000000000000000100000000000000000000000000000000000000000000000000000000000000000000000000000000000000000000000000000000000000000000000000000000000000000000000000000000000000000000000000000000000000000000000000000001000000000000000000000000000001000000000000000000000000000000000000000000000000000000000000000000000000000000000000000000000000000000000000000000000000000000000000000000000000000000000000000000000000000000000000000000000000000000101000000000000000000000000000000000000000000000000000000000000000000000000000000000000000000000000000000000000000000000000000000000000000000000000000000000000000000000000000000000000000000000000000001010000000000000000000000000000000000000000000000000000000000000000000000000000000000000000000000000000000000000000000000000000000000000000000000000000000000000000000000000000000000000000000000000000001000000000000000000000000000000000000000000000000000000000000000000000000000000000000000000000000000000000000000000000000000000000000000000000000000000000000000000000011100000000000000000000000000000000000000000000000000000000000000000000000000110000000000000000000000000000000000000000001000000000000000000000000000000000000000000000000000000000000000000000000000000000000000000000000000000000000000000000000000000011000000000000000000000000001100000000000000000000000000000000000000110010000000000000000000000000000000000000000000000000000000000000000000000000000000000000000000000000000000000000000000000000000000110000111000000000000000000000000000000000000000000000000000000000010000010000000000000000000000000000000000000000000000000000000000000000000000000000000000000110000000000000000000000011000000000000000000000000000000000000000000000000000000000000000000000000000000001100101000000000000000000000000000000000000000000000000000000000000000000000000000000000000001010000000000000000000000110000000000000000000000000000000000000000000000000000000000000000000000000000000001100010000000000000000000000000000000000000000000000000000000000000000000000000000000000000001100000000000000000000000000000000000000000000000000000000000000000000000000000000000000000000000000000000001110000000000000000000000000000000000000000000000000000000000000000000000000000000000000000000000000000000000000000000000000000000000000000000000000000000000000000000000000000000000000000000000000000000000000000000000000000000000000000000000000000000000000000000000000000