P1
200 200
0000000000000000000000000000000000000000000000000000000000000000000000000000000000000000000000000000000000000000100000000000000000000000000000000000000000000000000000000000000000000000010000000000000000000000000000000000000000000000000000000000000000000000000000000000000000000000000000000000000000000000010000010100000000000000000000000000000000000000000000000000000000000000000000001010000000000000011000000000000000000000000000000000000000000000000000000000000000000000000000000000000000000000000000001010000100100000000100000000000000000000000000000000000000000000000000000000000010100000000000000010000000000000000000000000000000000000000000000000000000000000000000000000000000000000000000000000000011000000110000000010100000000000000000000000000000100000100000000000000000000000010000100000000010000011000000000000000000000000000000000000000000000000000000000000000000000000000000000000000000000000000000000000000000101000000000000000000000000000001000010100000000000000000000000000001000000000110000110100000000000000000000000000000000000000000000000000000000000000000000011000000000000000000000000000000000000000000100000000000000000000000000000010000100100000000000000000000000000010000000001010011000000000000000000000000000000000000000000000000000000000000000000000000110000000000000000000000000000000000000000000000000000000000000000000000000000000110000000000000000000000000000000000000001100001101000000000000000000000000000000000000000000000000000000000000000000000000000000000000000000000000000000000001100000001100000000000000000000000000000000000000000001100000000000000000000000000100010011100000000000000000000000000000000000000000000000000000000000000000000000000000000000000000000000000000000000100100000100100000000000000000000000000000000000000000011000000000000000000000000001000100000000000000000000000000000000000000000000000000000000000000000000000000000000000000000000000000000000000000000110000000110000000000000000000000000000000000000000000000000000000000000000000000010110000000000000000000000000000000000000000000000000000000000000000000000000000000000000000000000000000000000000000000000000000000000000000000000000000000000000000000000000000000000000000000001100000111000000011000000000000000000000000000000000000000000000000000000000000000000000000000000000000000000000000000000000000000100000000000000000000000000000000000000000000000000000000000000000000011000000000000000110000000000000000000000000000000000000000000000000000000000000000000000000000000000000000000000000000000000000010100000000000000000000000000000000000000000000000000000000000000000000110000000000000000000000000000000000000000000000000000000000000000000000000000000000000011100000000000000000000000000000000000000101000000000000000000000000000000000000000000000000000000011000000000000110000110000000000000000000000000000000000000000000000000000000110000000000000000000000000000000000000000000000000000000000000000100000000000000000000000000000000000000000000000000011001001000000000100100000001100000000000000000000000000000000000000000000000000010010000000000000000000100000100000000000000000000000000000000000000000000000000000000000000000000000000000000000000000000010100000000001001000011010000000000000000000000000000000000000000000000000000101000000000000000000001000001000000000000000000000000000000000000000000000000000000000000000000000000000000000000000000000010000000000011000000001000000000000000000000000000000000000000000000000000000100000000000000000000010000010000000000000000000000000000000000000000000000000000000000000000000000000000000000000000000000000000000000000000000000000000000000000000000000000000000000000000000000000000000000000000000000000000000000000000000000000000000000000000000000000000000000000000000000000000000000000000000011000000000000000000010000000000000000000000000000000000000000000000000000000000000000000000000000000000000000000000000000000000000000000000000000000000000000000000000000000000000000000000000000000000110000000000000000000000011000000000000000000000000000000000000000000000000000000000000000000000000000000000000000000000000000000000000000000000000000000000000000000000000000000000000000000000000000000000000000011100000000001100000000000000000000000000000000000000000000000000000000000000000000000000000000000000001000000000000000000000000000000000000000000000000000000000000000000000000000000000000000000000000000000000000010000000000000000000000000000000000000000000000000000000000000000000000000000000000000001101000000000000000000000000000000000000000000000000000000000001000000000000000000000000000000000000000001100001000000000000000000000000000000000000000000000000000000000000000000000000000000000000000000010100000000000000000000000000000000000000000000000000000001101100000000000000000000000000000000000000001001000000000000000000000000000000000000000000000110000000000000000000000000000000000000000000100101100000000000000000000000000000000000000000000000000000011011000000000000000000000000000000000000111110100000000000000000000000000000000000000000000010010000000000000000000000000000000000000000000010010000000000000000000000000000000000000000000000000000000100110000000000000000000000000000000000001001110000000000000000000000000000000000000000000000100100000000000000000000000000000000000000000000111000000000000000000000000000000000000000000000000000000001001000000000000000000000000000000000000010010010000000000000000000000000000100000000000000000110000000000000000000000000000000000000000000000100000000000000000000000000000000000000000000000000000000001100000000000000000000000000000000000000011010000101000000000000000000000100100000000000000000000000000000000000000000000000000000000000000000000000000000000000000000000000001000000000000000000000000010001000001100000000000000000000000000000000000010001000000000000000000000000001100000000110000000000000000000000000000000000000000010100000000000000000000000000000000000000101000000000000000000000011001111000011000000000000000000000000000000000000100000000000000000000000010100100100000001100000000000000000000000000000000000000000011000000110000000000000000000000000000001010000000000000000000001010011011000000000000000000000000000000000000000001000000000000000000000000000011011000000000000000000011000000000000000000000000000000000000001100000000000000000000000000000001000000000000000000000010000000101000000000000000000000000000000000000000001110000000000000000000000000001000000000000000000001001000000000000000000000000000000000000000000000000000000000000000000000000000000000000000000000111000000100000000000000000000000000000000000000000010100000000010000000000000000000000000000000000000010100000000000000000000000000000000000000000000000011000000000000000000000000000000000000000000000000010000000000000000000000000000000000000000000000010000000001010000000000000000000000000000000000000010000000000000000000000000000000000000000000000001001000000000000000000000000000000000000000000000001100000000000000000000000001000000000000000000000110000000010010000000011000000000000000000000000000000000000000000000000000000000000000000000000000001100000000000000000000000000000000000000000000000100000000000000000000000000101000000000000000000000011000000011000000010010011000000000000000000000000000000000000000000000000000000000000000000000000000000011000000000000000000000000000000000000000000110000000000000000000000001010000000000000011100001110000000000000011010010110000000000000000000000000011000000000000000000000111000000000000000000000000001110000000000000000000000000000000000000100000100000000000000000000000001000000010000000000000110000000000000000110100101100000000000000000000000000110000000000000000000000000000000000000000000000000001100000000000000000000000000000000000010100000000000000000000000000000000000000100000001010000000000000000000001100110000000000000000000000000000000000000000000000000000000000000000000000000000010000000000000000000000000000000000000000000101000000000000000000000000000000000000001000000001000000000000000000000000000000000000000000000000010000000000000000000000000000000000000000000000000000000100000000000000000000000000000000000000000000100000000000000000000000000000000000000000000000000000000000000000000000000000000000000000000000001010000000000000000000000000000000000000000000000000000010011000000000000000000000000000000000000000000000000000000000000000000000000000000000000000000001010000000000000000000000000000000000000000000010010000000000000000000000000000000000000000000000000000011101000000000000000000000000000000000001100000001100000000000000000000000000000000000000000000000000000000000000000000000000000000000000011000011000000000000000000000000000000000000000000000000000000111110001100000000000000000000000000000100100000100100000000000000000000000000000000000000000000000000000000000000000000000000001000000000110000000000000000000000000000000000000000000000000000000000000001100000000000000000000000000000000000110000000110000000000000000000000000000000000000000000000000011000000000000000000000000000000000000000000000000000000000000000000000000000000000000000000000000000000000000000000000000000000000000000000000000000000000000000000011000000000000000000000000000000000110000000000000000000000000000000000000000000000000000000000000000000000000000000000000000000000000000000000000000000000000000000000000000000000000000000000000000001001000000000000000000000000000000000000000000000000000011100000000001110000000000000000000000000000000000000000000000000000000000000000000000000000000000000000000000000000000000011100000000000000000001100000000000000000000000000000000000000000000000001011101100000000000000000000000000000000000000000000000000000000000000000000000000000000000000000000000000000000000000000000001001000000000000000000000000000000000000000000000000000000000000000000000011110110010000010000010000000000000000000000000000000000000000000000000000000000000001110000000000000000000000000000000000011000000000000000000000000000000000000000000000000000000000000000000000000000011000100100000100000100000000000000000000000000000000000000000000000000000000000000000000000000000000000000000000000000001110001000000000000000000000000000000000000000000000000000000000000000000000000000000111000001000001000000000000000000000000000000000000000000000000000000000000000000000000000000000000000000000000000100000000000000110100000000000000000000000000000000000000000000000000000000000000001100000000000000000000000000000000000000000110000000000000000000000000000000000000000000000000000110000000000000000000111000000001111111001100000000000000000000000000000000000000000000000000000000000000000000000001110000000000000110000000000001100000000000000000000000000000000000000000000000000001100000000000000000000000100000011000000001100000000000000000000000000000000000000000000000000000000000000000000000000000000000000001100000000000000000000000000000000000000000000000000000000000000000000000000000000000000000000000000000000000110000000000000000000000000000000000000000000000000000000000000000000000000000000000000000000000000000000000000000000000000000000000000000000000000000010000000000000000000000000000000000000000000000000000000000000000000000000000000000000000000000000000000000000000001000000000000000000000000000000000000000000000000000000000000000000000000000000000000100000000000000000000000000000000000000000000000000000000000000000000000000000000000000000000000000000000000000000110000000000000000000000000110000011000000000000000000000000000000000000011000000000001000000000000000000000000000000000000000000000000000000000000000000000000000000000000000000000000000000000000000001000111000000000000001100010010000110000000000000000000000000000000000000101000000000000000000000000000000000000000000000000000000000000000000000000000000000000000000000000000000000000000000000000000101011001000000000000011000010100000000000000000000000000000000000000000000100000000000000000000000000000000000000000000000000000000000000000000000000000000000000000000000000000000000011000000000000000010011100000000000000000000010000000000000000000000000000000000000000000000000000000000000000000000000000000000000000000000000000000000000000000000000000000000000000000000000000000001001000000000000000010000000000000000000000000000000000000000000000000000001100000000000000000000000000000000000000000000000000000000000000000000000000000000000000000000000000000000000000000000000000010010000000000000001110000000000000000000000000000000000000000000000110000101100000000000000000000000000000000000000000000000001000000000000000000000000000000000000000000000000000000000000110000000000011000000000000000000100000000000000000000000000000000000000000000001100001111000000000000000000000000000000000000000001100000010000000000000000000000000000000000000000000000000000000000001100000000000000000000000000000011100000000000000000000000000000000000000000000000001110000000000000000000000000001100000000000000011000000100000000000000000000000000000000000000000000000000000000000000000000000000000000000000000000000000000000000000000000000000000000000000000000000101000000000000000000000000000100100000000000000000000000000000000000000000000000000000000000000000000000000000000000000000000000000000000000000010001000000000000000000000000000000000000000000000000000100000100000000000000000000000110000000000000000000000000000000000000000000000000000000000000000000000000000000000000000000000000000000000000000111100000000000000000000000000100000000000000000000000011000000000000000000000000000000000000000000000000000000000000000000000000000000000000000000000000000000000000000000000000000000000000000000000000111000000010000000000000000010100000000000000000001110000011000100000000000000000000000000000000000000000000000000000000000000000000000000000000000000000000000000000000000000000000000000000000000000000000000001010011000000000000101000000000000000000000110011101010000000000000000000000000000000000000000000000000000000000000000000000000000000000000000000000000000000000000000000110000000000000000000000000000110100110000000000000100000000000000000000000110100101000000000000000000000000000000000000000000000000000000000000000000000000000000000000000000000000000000000000000000010010000000000000000000000000000110000000000000000000000000000000000000000001100000111100000000000110000000000000000000000000000000000000000000000000000000000000000000000000000000000000000000000000000011000000000000000000000000000000000000000000000000000000000000000000000000001001111010000000000010010000000000000000000000000000000000000000101000000000000000000000000000000000000000000000000000000000000000000000000000000010000000000000000000000000000000000000000000000000000000000000001100000000011000000000000000000000000000000000000000010010000000000000000000000000000000000000000000000000000000000000000000000000000000111000000000000000000000000000000000000001100000000000011000000100000000000000000000000000000000000000000000000000000100000010111100000000000000000000000000000000000000000000000000000000000000000000001011000000000000000000000110000000011000011000000000000010010000000000000000000000000000000000000000000000000000000011010101001101100000000000000000000000000000000000000000000000000000000000000000000000000000000000000000000010010000001001000110000000000001000100000000000000000000000000000000000000000000000000000000010101011010011100000000000000000000000000000000000000000000000000000000000000000000010000000000000000000000011000000001010001100000000000010001000000000000000000000000000000000000000000000000000000000011010100001000000000000000000000000000000000000000000000000000000000000000000000000110100000000000000000000000000000001000100000000000000011000000000000000000000000000000000000000000001100000000000000111001000000000000000000000000000001000000000000000000000000000000000000000000000001000100000000000000000000000000000000000100110000000000000000000000000000000000000000000000000000000011000000000000000000010000100000000000000000000000101000000000000000000000000000000000000000000000001100000000000000000000000000000000000000000000000000000000000000000000000000000000000000000000000000000000000000000001111000111001010000000000000000000100000000000000000000000000000000000000000100000000000000000000000000000000000000000000000100000000001100000000000000000000000000000000000000000000000000000000000000001100000000011100000000000000000000000000000000000000000000000000000000110110100000000000000000000000000000000000000000000000110000000011000000000000000000000000000000000000000000000000000000000000000000000000011101000000000000000000000000000000000000000000000000000000001100010000000000000000000000000000000000000110000000000000000000000000000000000000000000000000000000000000000000000000000000000000000000001100000000000000000000000000000000000000000000000000000000001101011000001000001000000000000000000000000010010001100000000000000000000000000011000000000000000000000000000000000000000000000000000000000001100000000000000000000000000000000000000000000000000000000011000001000100000001000000000000000000000000100100100100000000000000000000000000110000000000000000000000000000000000000000000000000000000000001000000000000000000000000000000000000000000000000000000000000000110001000000111000000000000000000000000110000110000000000000000000000000000000000000000000000000000000000000000000000000000000000000000000000000000000000000000000000000000000000000000000000000000000000100001000000000000000000000000000000000000000000000000000000000000000000000000000000000000000000000000000000000000000000000000000000110000000000000000000000000000000000000000000000000000000000000001101000001011010000000000000000000000000000000000000000000000000000000110000000000000000000000000000000000000000000000000000000000000001100000000000000000000000000000000000001000000000000000000000000011001000001110000000000000000000000000000000000000000000000000000000010010000000000000000000000000000000000000000000000000000000000000000000000000000000000000000000000000000101000000000000000000000011010010000110011000000000000000000000000000000000000000000000000000000100100000000000000000000000000000000000000000000000000000000000000000000000000000000000000000000000000001010000000000000000000000110100100000110000000000000000000000000001110000000000000000000000000000110000000000000000000000000000000000000000000000000000000000000000000000000000000000000000000000000000001000000000000000000000000001110000001100100000000000000000000000000000000000000000000000000000000000000000000000000000000000000000000000000000000000000000000000000000000000000000000000000000000000000000000000000000000000000000000000000001110000000000000000000000000000000000000000000000000000000000000000000000000000000000000000000000000001000000000000000000000000000000000000000000000000000000000000000000000000000000000000001000100000001000000000000000000000000000000000000000000000000000001100000000000000000000000000000000000000000000110001110000000000000000000000000000000000000000000000000000000000000000000000000000000110010100000000000000000000000000000000000000000000000000000000000100100000000000000000000000000000000000000011100010011100000000000000000000000000000000000000000000000000011100000000000000000000000110101000100000110000000000000000000000000000000000000000000000000000110000000000000000000000000000000000000000110000001101100000000000000101000000000000000000000000000000000000000000000000000000000001000001011011111110000000000000000000000000000000000000000000000000000000000000000000000000000000000000000000000000001000110100000000000001000000000000000111000000000000000000000000000000000000000000011100001101011101010000000000000000000000000000000000000000000000000000000000000000000000000000000000000000000000000010000000000000000000000101000000000000000000000000000000000000000000000000000000000000000001000111001110000000000000000000000000000000000000000000000000000000000000000000000000000000000000000000010010000000001000001100000000010000000001000001000000000000000000000000000000000000000000000000001000000000000000000000000000000000000000000000000000000000000000000000000000000000000000000000000000000111000000010000000011000000001010000000010000010000000000000000000000000000000000000000000000100010000000000000000000000000000001000000000000000010000000000000000000000000000000000000000000000000000000000000000010000000000000000001100000000100000100000000000000000000000000000000000000000000010000000000100000000000000000000000101000000000000000100000000000000000000000000000001110000000000000000000000000000000011110000000000000000100000000000000000000000000000000000000000000000000000000000011000000001000000000000000000000001001000000000000010100000000000000000000000000000000000000000000000000000000000000000000110000000000000110000000000111000000000000000000000000000000000000000000000000000000000000000000000000000000000001100000000000000000000000000000000000000000000000000000000000000000000000000000000000000000000000000001000000000000000000000000000000000000000000000010100000000000000000000000000000000000000000000000000000000000000011100000000000000000000000000000000000000000000000000000000000000000000000000000000000000000000000000000000000000000000000000000011000010000000000000000000000000000000000010000000000000000000000000001100000000000000100000000000000000000000000000000000000000000000000000000000000000000000000000000000000000000000000000001000000000000000000000000000000000000000000000000000100000000000000000000000000011000000000000001000000000000000000000000000000000000000000000000001000000000000000000000000000000000000000000000000000101100001100000000000000000000000000000000000000000001000000000000000000000000000000110000000000010000000000000000000000000000000000000000000000000111000000000000000000000000000000000000010000000000000111000011000000000000000000000000000000000000000000000000000000000000000000000000001100000000000000000000000000000000000000000000000001000000000011011000000000000000000000000000000000000110000000000000110000000000000000000000000000000000000000000001110001110000000000000000000000000011000000000000011100000000000000000000000000000000010000000000011100000000000000000000000000000000000010110000000000000000000000000000000000000000000000000000000000000000000000000000000000000100001100000000000000000000000000000010000000000000000000000100000001110010000000000000000000000000000000000000001110000000000011000000000000000000000011000000000000000000000000000000000000000000000010100001100000000000000000000000000001010000000000000000000000000000100000000000011000000000000000000000000000100100110000000001100000000000000000110000110000000000000000000000000000000000000000000000101000001000000000000000000000000000010100000000000000000000000000010001000000000110000000110000000000000000001111101100000000011010000000000000001100000000000000000000000000000000000000000000000000000100000000000000000000000000000000000010000000000000000000000000001000100001100000000000010010000000000000000000011100000000000001100000000000011000000000000000000000000000000000000000000000000000000000000000000111000000000000000000000000000000000000000000000000000010010000111000011000000011000000000000000000000000000000000000000000000000000101000000000000000000000000000100000000000000000000000000000000000110010000000000000000000000000000000000000000000000000000100000100001000110000000000000000000000000000000000000000000000000000000000000010000000000000000000000000001000000000000000000000000000000000001001100011000000000000000000000000000000000000000000000000100110101100000000000000000000000000000000000000000000000000000000000000000001100011000000000000000000000010000000000000000000000000000000000011100000101000000000000000000000000000000000000000000000000100001111000000000000000000000000000000000000000000000000000000000000000000000001001000000000000000000000000000000000000000000000000000001000000000000011000000000000000000000000000000000000000000000000110000000000000000000000000000000000000000000000000000000000000011000000000000001010000000000000000000000011100000000000000000000000000101000000000000000000000000000000000000000000000000000000000000000000000000000000000000000000000000000000000000000000000000000001001000000000000001000000000000000000000000000000000000000000000000000001001000000001010000000000000000000000000000000000000000000000000000000000000000000000000000000000000000000000000000000000000000001010000000000000000000000000000000000000000000000000000000000000000000001110000000000000000000000000000000000000000000000000000000000000000000000000000000000000000000000000000000000000000000000000000001000000000000000000000000000000000000000000000000000000000000000000000001000100000000000000000000000000000000000000000000000000000000010000000000000000000000000000000001100000000000000000000000000000000000000000000000000000000000000000000000000000000000000000000000000000000010100000000000000000000000000000000000000000000000000000001010000000000000000000000000000000011000000000000000000000000000000000000000000000000000000000000000000000000000000000000000000000000000000000101000000000000000000000000000000000000000000000000000000010100000000000000000000000000000000000000000000000000000000000000000000000000000000000000000000000000000000000000000000000000000000000000000000100000000000000000000000000000000000000000000000000000000010000000000000000000000000000000000000000000001100000000000000000000000000000000000000000000000000000000000000000000000000000000000000000000000000000000000000000000000000000000000000000000000000000000000000000000000000000000000000000000000000000011000000000000000000000000000000000000000000000000000000000000000000000000000000000000000000000000000000000000000000000000000000000000000000000000000000000000000000000000000000000000000000000000000000000000000000000000000000000000000000000000000000000000000000000000000000000000000000000000000000000000000000000000000000000000000000000000000000000000000000000000000000000000000000000000000000000000000000000000000000000011000000000000000000000000000000000000000000000000000000000000000000000000000000000000000000000000000000000000110000000000000000000000000000000000000000000000000000000000000000000000000000000000000000110000000000000000000000000000000000000000000000000000000000000000000000000000000000000000000000000000000000001100000000000000000000000000000000000000000000000000000000000000000000000000000000000000000000000000000000000000000000000010000000000000000000000000000000000000000000000000000000000000000000000000000000000000000000000000000000000000000000000000000000000000110000000000000000000000000000000000000000000000000000000000000001010000000000000000000000000000000000000000000000000000000000000000000000000000001000000000000000000000000000000000000000000000000000001010000000000000000000000000000000000000000000000000000000000000010100000000000000000000000000000000000000000000000000000000000000000000000000000101000000000000000000000000000011000000000000000000000001000000000000000000000000000000000000000000000000000000000000000010000000000000000000000000000000001100000000000000000000000000000000000000000000011000000000000000000000000001001000000001100000011000000000000000000000000000000000000000000000000001000000000000000000000000000000000000000000000000000011000000000000000000000000011000000000000000110110000000000000000000000000001100000000011000001001000000000000000000000000000000000000000000000000010000000000000110000000110000000000000000000000000000000000000000000000000000000110000000000000010001100000000000000000000000000000000000000000000010100000000000000000000000000000000000000000000000000100000000000001100000010010000000000000000000000000000000000000000000000000000000000000000000000011011000000000000000000000000000000000000000000000010000000000000000000000000000000000000000000000000000000000000000000000000011000000000000000000000000000000000000000000000000000000000000000000000000000100000000000000000000000000000000000000000000000000000000000000000000000000000000000000000000000000000000000000000000000000000000000000000000000000000000000000000000000000000000000000000000000000011101011000000000000000000000000000000000000000000000000000000000000000000000000000000110000000000000000000000000000000000000000000000000000000000000000000000000000000000000000000000000000000000000001101000110000000000000000000000000000000000000000000000000000000000000000000000000000010010000000000000000000000000000000000000000000000000000000000000000000000000000010000000000000000000000000000000001101100000000000000000000000000000000000000000000000000000000000000000000000000000000101000000000000000000000000000000000000000000000000000000000000000000000000000000100000000000000000000000000000000010001011000000000000000000000000000000000000000000000000000000000000000000000000000000100000000000000000000000000000000000000000000000000000000000000000000000000000001000000000000000000000000000000000110000100000000000000000000000000000000000000000000000000000000000000000000000000000000000000000000000000000000010000000000000000000000000001100110000000000000000000000000000000000000000000000000000001100000000000000000000000000000000001000000000000000000000000000000000000000000000000000000000000000000000000000100000000000000000000000000011001100000000000000000000000000000000000000000000000000000001000100000000000000000000000000000101000000000000000000000000000000000000000000000000000000001100000000000000001000000000000000000000001100000000000000000000000000000000000000000000000000000000000000001110000000000000000000000000000001010000110000000000000000000000000000000000000000000000000100100000000000000000000000000000000000000011000000000000100000000000000000000000000000000000000000000000000000000000000000000000000000000000001000010010000000000000000000000000000000000000000000000001010000000000000000000000000000000000000000000000000000010100000000000000000000000000000000000000000000000000000000000000000000000000000000000000000011000000000000000000000000000000000000000001000000001000000000000000000000000000000000000000000000000000000101000000000000000000000000000000000000000000000000000000000000000000000000000000010000000000000000000000000000000000000000000000000000101000000000000000000000000000000001110000000000000000000000000000100000000000000000000000000000000000000000000000000000000000000000000000000000001010000000000000000000000110000000000000000000000000000110000000000000000000000000000000011100000000000000000000000000000000000000000000011000000000000000000000000000000000000000000000001000000000000000000000000000000000000010100000000000000000000000000000000000000000000000000000000000001000100000000000000000000000000000000000000000000110000000000000000000000000000000000000000000000101000000011001110000100000000000000000010000000000000000000000000000000000000000000000000000000000000010100111100000000000000000000000000000000000000000000000000000000000000000000000000000000000000010010000000110100011000100000000000000000000000000000000000000000000000000000000000000000000000000000000011000001000000000000000000000000000000000000000000000000000000000000000000000000000000000000000011000100000100111111101000000000000000000000000000000000000000000000000000000000000000000000000000000000000111111000000000000000000000000000000000000000000000000000000000000000000000000000000000000000000010100001000101111100000000000000000000000000000000000000000000000000000000000000000000000000000000000000010110000000000000000000000000000000000000000000000000000010000000000000000001000000000000000001100100010000000000000000000000000000000000000000000000000000000000000000000000000000000000000000000000000011011000000000000000000000000000000000000000000000000001010000000000000000100100000000000000001100010100000000000000000001100000011000000000000001100000000000000000000000000000000000000000000000000000001000000000000000000000000000000000000000000000000000110100000000000000000000100000000000000000011000000000010000000000011000000110000000000000100100000000000000000000000000000000000000000000000100000000000000000000000000000000000000000000000000000001011001000000000001110010001000000000000000001100000000001110000011100000000000000000000000000101000000000000000000000000000000000000001000000010111000000000000000000000000000000000000000000000000000100100110000000000000000000000000000000000000000000110000000111000100000000000000000000000000000100000000001000000000000000000000000000111110000100010001110110000000000000000000000011100000000000000010001001100000000110000001000000000000000000000000001010000000001111000000000000000000000000100000000000000101000000000000000000000000011111111000100000011011110000000000000000000000000000000000000000100100010000000001100000110011000000000000000000000111110001100001110000011000000000000000001000000000000001010000000000000000000000000110010001000000100001000000000000000000000000000000000000000000001001000000000000000000000000101000000000000000000001110000000101100000000000000000001100000010000000000000001000000000000000000000000000000010010001000100011001100000000000000000000000000000000000000001010000000110000000000000001000010000000000000000010011110000101000000010101100011000000000000000000000000000000000000000000000000001000000110000011010010001000000000000000000000000000000000000000000000000000100011000000000000000001010000000000110000011110000000000000000101100111100000110000000000000000000000000000000000000000000000000000000000100000011000100000000000000000000000000000000000000000000000000000011000000111001000010110000000010010000001011011000000000000011101111000000110000000000000000000000000000000000000000000110000000000000110000011001000000000000000000000000000000000000000000000000000010001000001110110000111000000000100100000000110100000000000000111111001000000001000000000000000000000000000000000000000001100010000000000100000001000000000000000000000000000000000000001000000000011010000011000011001100010000000000000110001100001000010000000000000111000010000110010000000000000000000000000000000000000000000101000000000000000000000000000000000000000000000000000000000010000000000010000011100000000011000100000000000000000000000010101000110000000001100000010000000100000000000000000000001000000000000000000000100000000000000000000000000000000000000000000000000000000000000000000000111011110000000001000110000000000000000000000000001010011010000000000000000010001100000000000000000000000101000000000000000000000000000000000000000000000000000000000000000000000000000000001110000000000010100000000000000000000000000000000000000000000001110110100000000000000000010100000000000000000000000001010000000000000000000000000000000000000000000000000000000000000000000000000000000000000000000000000000000000000011100000000000000000000000000000010000010000000000000000001001000000000000000000000000001000000000000000000000000000000000000000000000000000000000000000000000000000000000000000000000000000000000000000000000000000000000000000000000000011000000000000000000000001100000000000000000000000000000000000000000000000000000000000000000000000000000000000110000000000000000000000000000000000000000000000000000000000000000000000000111000000000000000000000000000000000000000000000000000000000000000000000000000000000000000000000000000000000000000000000000001100000000000000000000000000001000000110000000000000000000000000000000000000000000000000000000000000000000000000000000000000000000000000000000000000000000000000000000000000001110000000000000000000000000000000000000000000000000000010000001100000000000000011000000000000000000000000000000000000000000000000000000000000000000000000000000000000000000000000000000000000000000000000000000000000000000000000000000000000000000000000000000100000000000000000000001001000000001100000000000000000000000000000000000000000000000000000000000000000000000000000000000000000000000000000000000000000000000000000000000000000000000000000000000000000000000000000000000000000010010000000101000000000000000000000000000000000000000000000000000000000000000000000000000000000000000000000000000000000000000000000000000000000000000000000000000000000000000000000000000000000000000000011000000000100000000000000000000000000000000000000000000000000000000000000000000000000000000000000000000000000000000000000000000000000000000000000000001100000000000000000000000000000000000000000000000000000000000000000000000000000000001100000000000000000000000000000000000000000000000000000000000000000000000000000000000000000000000000000110000000000100100000000000000000000000000000000000000000000000000000000000000000000100000000000010100000000000000000000000000000000000000000000000000000000000000000000000000000000000000000000000000001100000000000110000000000000000000000000000000000000000000000000000000000000000000010100000000000100000000000000000000000000000000000000000000000000000000000000000000000000000000000000000000000000000000000000000000000000000000000000000000000000000000000000000000000000000000000000001010000000000000000000000000000000000000000000000000000000000000000000000000000000000000000000000000000000000000000000000000000000000000000000000000000000000000000000000000000000000000000000000000000101000000000000000000000000000000000000000000000000000000000000000000000000000000000000000000000000000000000000000000000000000000000000000000000000000000000000000000000000000000000000000000000000000000100000000000000000000000100000000000000000000000000000000000000000000000000000000000000000000000000000000000000000000000000000000000000000000000000000000000000000000000000000000000000000000000000000000000000000000000000000001100000000000000000000000000000000000000000000000000000000000000000000000001110000000000000000000000000000000000000000000000000000000000000000000000000000000000000000000000000000000000000000000000000001100000000000000000000000000000000000000000000000000000000000000000000000000000000000000000000000000000001000000000000000000000000000000000000000000000000000000000000000000000000000000000000000000000011000000000000000000000000000000000000000000000000000000000000000000000000000000000000000000000000000000101000000000000000000000000000000000000000000000000000000000000000000000000000000000000000011000000000000000000000000000000000000000000000000000000000000000000000000000000000000000000000000000000000001010000000000000000000000000000000000000000000000000000000000000000000000000000000000000000010000000000000000000000000000000000000000000000000000000000000000000000000000100000000000000000000000000000001000000000000000000000000000000000000000000000000000000000000000000000000000000000000000000010000000000000000000000000000000000000000000000000000000000000000000000000001000000000000000000000000000000000000000000000000000000000000000000000000000110000000000000000000000000000000000000000011001110000000000000000000000000000000000000000000000000000000000000000000000000010000000000000000000000000000000000000000000000011000001000000000000000000001100000000000000000000000000000000000000000000101100000000000000000000000000000000000000000000000000000000000000000000000000000000000000000000000000000000000000000000000000110000010000000000000000000000000000000000000000000000000000000000000000011011000000000000000000000000000000000000000000000000000000000000000000000000000000000110000000000000000000000011000000000000000000000100000000000000000000000000000000000000000000000000000000000000000010100000000000000000000000000000000000000000000000000000000000000000000000000000000001010000000000000000000000110000000000000000000000000000000000000000000000000000000000000000000000000000000000000000010000000000000000000000000000000000000000000000000000000000000000000000000000000000001100000000000000000000000000000000000000000000000000000000000000000000000000000000000000000000000000000000000000000000000000000000000000000000000000000000000000000000000000000000000000000000000000000000000000000000000000000000000000000000000000000000000000000000000000000000000000000000000000000000000000000000000000000000000000000000000000000000000000000000000000000000000000000