P1
200 200
0000000000000000000000000000000000000000000000000000000000000000000000000000000000000000000001110000000000000000100000000000000000000000000000000000000000000000000000000000000000000000010000000000000000100000000000000000000000000000000000000000000000000000000000000000000000000000000000000111001100000000010000010100000000000000000000000000000000000000000000000000000000000000000000001010000000000000011100000000000000000000000000000000000000000000000000000000000000000000000000000000000000101000000000001010000100100000000100000000000000000000000000000000000000000000000000000000000010100000000000001101100000000000000000000000000000000000000000000000000000000000000000000000000000000000000001000000000011000000110000000010100000000000000000000000000000100000100000000000000000000000010000000000000001110000000000000000000000000000000000000000000000000000000000000000000000000000000000000000000000000000000000000000000000101000000000000000000000000000001000010100000000000000000000000000000000000000001000000000000000000000000000000000000000000000000000000000000000000000000000011000000000111000000000000000000000000000000100000000000000000000000000000010000100100000000000000000000000000000000000000000000000000000000000000000000000000000000000000000000000000000000000000000000110000000000000000000000000000000000000000000000000000000000000000000000000000000110000000000000000000000000000011100000000100000000000000000000000000000000000000000000000000000000000000000000000000000000000000000000000000000000000000000001100000001100000000000000000000000000000000000000000001100000000000000000100100000011100000000000000000000000000000000000000000000000000000000000000000000000000000000000000000000000000000000000000000100100000100100000000000000000000000000000000000000000011000000000000000000101000001101100000000000000000000000000000000000000000000000000000000000000000000000000000000000000000000000000000000000000000110000000110000000000000000000000000000000000000000000000000000000000001001010000001110000000000000000000000000000000000000000000000000000000000000000000000000000000000000000000000000000000000000000000000000000000000000000000000000000000000000000000000000000000000000000001101000000001000000000000000000000000000000000000000000000000000000000000000000000000000000000000000000000000000000000000000000000000100000000000000000000000000000000000000000000000000000000000000000001110000000000000000000000000000000000000000000000000000000000000000000000000000000000000000000000000000000000000000000000000000000010100000000000000000000000000000000000000000000000000000000000000000001000000000000000000000000000000000000000000000000000000000000000000000000000000000000000011100000000000000000000000000000000000000101000000000000000000000000000000000000000000000000000000000000000000000000000000000000000000000000000000000000000000000000000000000000110000000000000000000000000000000000000000000000000000000000000000100000000000000000000000000000000000000000000000000000000000000001100000000000000000000000000000000000000000000000000000000000000000010010000000000000000000100000100000000000000000000000000000000000000000000000000000000000000000000000000000000000000000000000000000101100000000000000000000000000000000000000000000000000000000000000000101000000000000000000001000001000000000000000000000000000000000000000000000000000000000000000000000000000000000000000000000000000011010000000000000000000000000000000000000000000000000000000000000000000100000000000000000000010000010000000000000000000000000000000000000000000000000000000000000000000000000000000000000000000000000000011000000000000000000000000000000000000000000000000000000000000000000000000000000000000000000000000000000000000000000000000000000000000000000000000000000000000000000000000000000000000000000001100000000000000000110000000000000000000000000000000000000000000000000000000000000000000000000000000000011100000000000000000000000000000000000000000000000000000000000000000000000000000000000000110000011000000000000000001100000000000000000000000000000000000000000000000000000000000000000000000000000000000000000000000000000000000000000000000000000000000000000000000000000000000000000000000000010110000000000000000000011100000000000000000000000000000000000000000000000000000000000000000000000000000000000000000000000000000000000000000000000000000000000000000000000000000000000000000000000000000101100000000110000000000000000000000000000000000000000000000000000000000000000000000000000000000000000000000000000000000000000000000000000000000000000000000000000000000000000000000000000000000000000000000000000001100000000000000000000000000000000000000000000000000000000000000000000000000000000000000000000000000000000000000000000000000000000000000000000000000000000000000000000000000000000000000000000000000000000000000000000000000000000000000000000000000000000000000110000000000000000000000000000000000000000000000000000000000000000000000000000000000000000000000000000000000000000000000000000000000000000000000000000000000000000000000000000000000000000000000000000010010000000000000000000000000000000000000000000011100000000000000000000000000000000000000000000000000000000000000000000000000000000000000000000000000000000000000010000000000000000000000000000000000000100100000000000000000000000000000000000000000000000000000000000000000000000000000000000000000000000000000000000010000000000000000000000000000000000000000000000001010000000000000000000000000000000000000110000000000000000000000000000000000000000000000000100000000000000000000000000000000000000000000000000000000001010000000000000000000000000000000000000000000000010100000000000000000000000000000000000000000000000000000000000000000000000000000001001100001000000000000000000000000000001000000000000000000000000000100100000010000000000000001000000000000000000000000010000000000000000000000000000000000110000000000000000000000000000000000000000000100000000010000000000000011100000000000101000000000000000000000110000110000001100111000000000000000000000000000000000000000000000000000000000000000000000001100000000000000000000000000000000000000000010011110100000000000000000100110000000001010000000000000000000000000110000000010000000000000000000000000000000000000000000000000000000000000000000000000000000000000000011000000000000000000000000000000011101101100000000000000001101100000000001000000000000000000000000001000000000001100000000000000000000000000000000000000000000000000000000000000000000000000000000000001001000000000000000000000000000000010000000000000000000000001100100000000000000000000000000000000000000110010000010011000000000000010000000000000000000111000000010000000000000000000000000000000000000010100000000000000000000000000000000000000000000000011000000001111100000000000000000000000000000000000110000100000111000000000000010100000000000000000000000000001010000000000000000000000000000000000000010000000000000000000000000000000000000000000000001001000000000001000000000000000000000000000000000011000001000000000000000000000101000000000000000000010100000010010000000000000000000000000000000000000000000000000000000000000000000000000000000000000001100000000111110000000000000000000000000000000000010000000000000000000000000000000000000000000000001000000000011000000000000000000000000000000000000000000000000000000000000000000000000000000000000000000000000010110100000000000000000000000000000000000110110000000000000000000000000000000000000000000010001000000000000000000000000000000000000000000000000011000000000000000000000111000000000000000000000000000001000000000000000000000000000000000000000000000000000000000000000000000000000010000000000000000000000000000000000000000000000000000000000000000000110000000000000000000000000000000000000000000000000000001000110000000000000000000000000000000000000000000000000000000000000000000000100000000000001100100000000000000000000000000000000000000000000000000000000000000000000000000000000000000000000000000000000000000001000000000000000000000000000000000000000000000000000000000110000000001000000000000000000000000000000000000001000000000000000000010000000000000000000000000000000000000000000000000000000000000000000011110000000000000000000000000000000010000000000000000000000010010000000000000000000000000000000000000000000001101100000000000000001010000000000000000000000000000000000000000000000000000000000000000000010000000000000000000000000000000011000000000000000000000000110110000000000000000000000000000000000000000000000000100000000000000010010000000000000000000000000000000000000000000000000000000000000000000000000000000000000000000000000000011000000000000000000000110100100000000000000000000000000000000000000000000000001000000000011000011000000000000000000000000000000000000000000000000000000001110000000000000000000000000000000000000000000000000000000000000000010110110000000000000000000000000000000000000000000010101010000000000110000000000000000000000000000000000000000000000000000000000000000000000000000000000000000000000000000000000000000000000000000000000100010000000000000000000000000011000000000000000000011100000000000000000000000000000000000000000000000000000000000000000000000000000000000000000000000000000000000000000000000000000000000000000000000000110100000000000000000000000000110000000000000000000000001100000000000000000000000000000000000000000000000000000000000000000000000000000000000000000000000000000000000000001110000000000000000000000000000110000000000000000000000000000000000000000000000000000011000000000000000000000000000000000000000000000000000000000000000000000000000000000000000000000000000000000000000001000000000000000000000000000000000000000000000000000000000000000000000000000000001001000010000000000000000000000000000000000000000000000000000000000000000000000000000000000000000000000000000000000000000000000000000000000000000000000000000000000000000000000000000000000000000000000001110001010000000000000000000000000000000000000000000000000000000000000000000001110000000000000000000100000000000000000000000000000000000000000000000000000000000000000000000000000000000000000000000000001000100010000000000000000000000000000000000000000000000000000000010000000000000000000000000000000010100000000110111111111110110000000000000000000000000000000000000000000000000000000000000000000000000000001001000000000000000000000000000000000000000000000000000000000110000000000000000000000000000000100100000001101101010101101100000000000000000000000000000000000000000000000000000000000000000000000001100100000000000000000000000000000000000110000000000000000000000010100000000000000000000000000110000110000000100001000000010000100000000000000000000000000000000000000000000000000000000000000000000000111000110000000000000000000110000000000001100000000000000000000000000000000000000000000000000001100000000000000100010110110100010000000000000000000000000000000000000000000000000000000000000000000000010001111000000000000000000001100000000000000000000000000000000000000000000000000000000000000000000000000000000000011001000100110000000000000000000000000000000000000000000000000000000000000000000000000011101000000000000000000000000000000000000000000000000000000011000000000000000000000000010000000000000000000000000110110001101100000000000000000000000000000000000000000000000000000000000000000000000000011110000000000000000000000000000000000000000000000000000000110000000000000000000000000100000000000000000000000000000000000000000000000000000000000000000000000000000000000000000000000000000000000000000001000000000000000000000000110000011000000000000000000000000000000000000010000000000001000000000000000000000100000000000000000000000000000000000000000000000000000000000000000000000000000000000000000000000000011000000000001100010010000110000000000000000000000000000000000001100000000000000000000000000000000010101000000000000000000000000000000000000000000000000000000000000000000000000000000000000000000000000011000000000011000010100000000000000000000000000000000000000000010000000000000000000000000000000000010110000000000000000000000000000000000000000000000000000000000000000000000011000000000000000000010100000000000000000000010000000000000000000000000000000000000000000111010000000000000000000000000000000000000000000000000000000000000000000000000000000000000000000000000000000001001000000000000000000111000000000000000000000000000000000000000000000000000000000000000001000010000000000000000000000000000000000000000000000001100000000000000000000000000000000000000000000000000000010010000000000000000000100000010000000000000000000000000000000000000000000000000000000000011110010000000000000000000000000000000000000000000000000100000000000000000000000000000000000000000110000000000011000000000000000000000001001000000000000000000000000000000000000000000000000000000000000100001000000000000000000000001100000000000000001000100010000000000000000000000000000000000000000001100000000000000000000000000000000000000000000000000000000000000000000000000000000001000000000000000000110110000001100000000000000011000000000000000010100111000000000000000000000000000000000000000000000000000000000000000000000000000001001000000000000000000000000000000000000000000000101000000000000000001100000000100100000000000000000000000000000000111001000000000000000000000000000000000000000000000000000000000000000000000000000000100000010000000000000000000000000000000000000000011010000000000000000000000000000110000000000000000000000000000000000000000000000000000000000000000000000000000000000000000000000000000000000000000000000000000010000000000000000000000000000000011100000100000000000000000000000000000000000000000000000000000000000000000000000000000000000000000000000000000000000000000000000000000000000000000000000000000000000000010000000000000000000000000000000000000111000111000000000000000000000000000000000000000000000000000000000000000000000000000000000000000000000000000000000000000000000000000000000000000000000000001100000000000000000000000000000000000000000000010010000000000000000000000000000000000000000000000000000000000000000000100000000000000000000000000000000000000000000000000000110000000000000000000000000011010110000000000000000000000000000000000000000001101100000000000000000000000000000000000000000000000000000000000000011000000000000000000000000000000000000000000000000000010010000000000000000000000000001110000000000000000000000000000000000000000001101100000000000000000110000000000000000000000000000000000000000000000110000000000000000000000000000000000000000000000000000011000000000000000000000000000001000000000000000000000000000000000000000010010000000000000000000010010000000000000000000000000000000000000000000000000000000000000000000000000000000000000000000000000000000000000000000000000000000000000000000000000000010000000000000000000011000011000000000000000000011000000000000000000000000000000000000000000000000000000000000000000000000000000000000000000000000000000000000000000000000000000000000000000000000000011011000000000000000000001001000000000000000000000000000000000000000000000000000000000000000010000000000000000000000000000000000000000000000000000000000000000000000000000000000000000000000000000000000110110000000000000000000000011011000000000000000000000000000000000000000000000000000000000001010000000000000000000000000000000000000000000000000000000000000000000000000000000000000000000000000000000000000100000000000000000000000001101100000000000000000000000000000000000000000000000000000000010100000000000000000000000000000000000000000000000000000000000000000000000000000000000000000000000000000001000011000000000000000000000001001000000000000000000000000000000000000000000000000000000000000010000000000011000000000000000000000000000000000000000000000000000000000000000000000000000000000000000000000100100000000000000000000001110001110000000000000000000000000000000000000000001100000000000000000000000010010000000000000000000001000000000000000000000000000000000000000000000000000000000000000000000000000000000000000000000000000100000000000000000000000000000000000000000000000011000000000000000000000001000010000000000000000000101000000000000000000000000000000000000000000000001110000000000000000000000000000000000000000000000001101000000000000000000000000000000000000000000000000000000000000000000000110110110000000000000000000100000000000000000000000000000000000000000000000010010000000000000000000000000000000000000000000000001010000000000000000000000000000000000000000000000000000000000000000000010000011000000000000000000000000000000000000000000000000000000000000000000010001100000000000000000000000000000000000000000000000001000000000000000000000000000000000000000000000000000000000000000000000000010000000000000000000000000000000000000000000000000000000000000000000000111000000000000000000000000000000000000000000000000000000000000000000000000000000000000000000000000000000000000000000000000010000000000000000000000000000000000000000000000000000000000000000000000000000100000000000000000000000000000001110001100000000000000000000000000011000000000000000000000000000000000000000000000000000000000000100000000000000000000000000000000000000000000000000000000000000000000000000000000000000000000000000000000000100100000000000000000000000000110000000000000000000000000000000000000000000000000000000100001000000000000000000000000000000000000000000000000000000000000000000001000000000000000000000000000000000000000110000000000000010000000000000000000000000000000000000000000000000000000000000000000000010010000000000000000000000000000000000000000000000000000000000000000000111111010000000000000000000000000000000000000000000000000110000000000000000000000000000000000000000000000000000000000000000000000111000000000000000000000000000000000000000000000000000000000000001000010000000010000000000000000000000000000000000000000000000000000000110000000000000000000000000000000000000000000000000000000000000000000000000000000000000000000000000000000000000000000000000000000101000010000001000000000000000000000000000000000000000000000000000000010010000000000000000000000000000000000000000000000000000000000000000000000000000000000000000000000000000111000000000000000000000010010000100000000000000000000000000000000000000000000000000000000000000100100000000000000000000000000000000000000000000000000000000000000000000000000000000000000000000000110001110000000000000000000000011000000000100000000000000000000000000001110000000000000000000000000000110000000000000000000000000000000000000000000000000000000000000000000000000000000000000000000100000000000000000000000000000000000000000000110000000000000000000000000000000000000000000000000000000000000000000000000000000000000000000000000000000000000000000000000000000000000000000000000000000001000111000000001100000000000000000000000000000010000000000000000000000000000000000000000000000000000000000000000000000000000000000000000000000000000000000000000001110000000000000000000000000000000000010000000000000011000000000000000000000011100010100000000000000000000000000000000000000000000000000000001100000000000000000000000000000000000000000000000000000000100011000000000000000000000000000000000000000000000000000000000000000000000001101000000100000000000000000000000000000000000000000000000000000100100000000000000000000000000000000000000000110000000000000000101110000000000000000000000000000000011100011100011000000000000000000000110010001010000000000000000000000000000000000000000000000000000000110000000000000000000000000000000000000000010010000000000011000010100000000000000000000000000000000000000000000000000000000000000000001111000000100000000000000000000000000000000000000000000000000000000000000000000000000000000000000000000000000010100000000111001110010100000000000000000111000000000000000000000000000000000000000000000000101000111000000000000000000000000000000000000000000000000000000000000000000000000000000000000000000000000000010000000010010000110000000000000000000000000000000000000000000000000000000000000000000000000110000000000000000000000000000000000000000000000000000000000000000000000000000000000000000000000000000000000000000000100010010100010000000000000001000001000000000000000000000000000000000000000000000011000001100000000000000000000000000000000000000000000000000000000000000000000000000000000000000000000000000000000000011010100011110000000000000000010000010000000000000000000000000110000000000000000000111000010000000000000000000000000001000000000000000000000000000000000000000000000000000000000000000000000000000000000110111000001100000000000000000100000100000000000000000000000001100000000000000000000000000000000000000000000000000000101000000000000000000000000000000000000000000000001110000000000000000000000000000000100100000110000000000000000000000000000000000000000000000000000000000000000000000000000000000000000000000000000000001001000000000000000000000000000000000000000000000000000000000000000000000000000000000000100011000000000000000000000111000000000000000000000000000000000000000000000000000000000000000000000000000000000001100000000000000000000000000000000000000000000000000000000000000000000000000000000001101000000000000000000000000000000000000000000000000000000000000000000000000000000000000000000000000000000000000000000000000000000000000000000000000000000000000000000000000000000000000000000000000000010001000000000000000000000000000000000000000000000000011100000000000000000000000000000000000000000000010000000000000000000000000000000000000000000000000000000000000000000000000000000000000000000000000010100000000000000000000000000000000000000000000000000101000000000000000000000000000000000000000000000100000000000000000000000000000000000000000000000000000000000000000000000000000000000000000000000000010000000000000000000000000000000000000000000000000000000100000000000000000000000000000000000000000001000000000000000000000000000000000000000000010000000000000000000000000000000000000000000000000000000000000000000000000000000000000000000000000000000011000001000000000000000000000000000000000000000000000000000000000000000000000000000000000000001110000000000000000000000000000000000001000000000000000000000000000000000000000000000000000001100000000000110100010000000000000000000000000000000000000001110001110000000000000000000000000000000000000110110000000000000000000000000000000000010000000000000000000000000000000000000000000000000000101000000000000111110000000000000000000000000000000000000000000000000000000000000000000100000000000000000000111000000000000010000000000000000000000100000000000000000000000000000000000000000000000000001001001000000000000000000000000000000011000000000000000000000000000000000000000000000010100000000000000000000100000000000001010000000000000000000000000000000000000011100011100000000000000000000000000001110001000000000001011010000000110000110000000000000000000000000000000000000000000000101000000000000000001000000000000000010100000000000000000000000000000000000000000000000001100000000000000000000000010010011000000000010000100000001100000000000000000000000000000010010000000000000000000100000000000000000101000000000000000010000000000000000000000000000000000000100000100000100100000000000000000000000001101100000000000101101000000000000000000000000000000000000011100111000000000000000000000000000000000111110000000000000000000000000000000000000000000000000000001000001000000110000000000000000000000000011110000000000000000000000000000000000000000000000000000100001001000000000000000000000000001100000011000100000000000000000000000000000000000000000000000000000010000010000000000000000000000000000000000000000000000111110000000000000000000000000000000000000001000000000000000000000000000000000011000000110011010000000000000000000000000000000000000000000000000000000000000000000000000000000000000000000000000000110011010001000000000000011000000000000000000000010000000000000000000000000000000000000000000000110000000000000000000000000000000000000000000000000000000011100000000000000000000000000000000000000000001100110000010000000000001001000000000000000000000000000000000000000000000000000000000000001100011100000000000000000000000000000000000000000000000000000000000000000000000000000000000000000000000000000000000000000100000000000001010000000000000000000000011100000000000000000000000000000000000010100100000000000000000000000000000000000000000000000000000000000000000000000000000000000000000000000000000000000000010100000000000000001000000000000000000000000000000000000000000000000000000000000000100001110000000000000000000000000000000000000000000000000000000000000000000000000000000000000000000000000000000000000111000000000000000000000000000000000000000000000000000000000000000000000000000000000101000000000000000000000000000000000000000000000000000000000000000000000000000000000000000000000000000000000000000000000000000000000000000000000000000000000000000000000000000000000000000000000000000000100000000000000000000000000000000000000000000000000010000000000000000000000000000000001100000000000000000000000000000000000000000000000000000000000000000000000000000000000000000000000000000000000000000000000000000000000000000000000000000000000000000001010000000000000000000000000000000011000000000000000000000000000000000000000000000000000000000000000000000000000000000000000000000000000000000000000000000000000000000000000000000000000000000000000000010100000000000000000000000000000000000000000000000000000000000000000000000000000000000000000000000000000000000000000000000000000000000000000000000000000000000000000000000000000000000000000000000000000010000000000000000000000000000000000000000000001100000000000000000000000000000000000000000000000000000000000000000000000000000000000000000000000000000000000000000000000000000000000000000000000000000000000000000000000000000000000000000000000000000011000000000000000010000000000000000000000000000000000000000000000000000000000000000000000000000000000000000000000000000000000000000000000000000000000000000000000000000000000000000000000000000000000000000000000000000001010000000000000000000000000000000000000000000000000000000000000000000000000000000000000000000000000000000000001000000000000000000000000000000000000000000000000000000000000000000000000000000000000000010100000000000000000000000000000000000000000000000000000000000000000000000000000000000000000000000000000000000101000000000000000000000000000000000000000000000000000000000000000000000000000000000000000010000000000000000000000000000000001000000000000000000000000000000000000000000000000000000000000000000000000010011000000000000000000000000000000000000000000000000000000000000000000000000000000000000000000000000000000000000000000000000010000000000000000000000000000000000000000000000000000000000000000000000000100001000000000000000000000000000000000000000000000000000000110000000000000000000000000000000000000000000000000000000000000000000000000000000000000000000000000000000000000000000000000000000000000000010000010000000000000000000000000000000000000000000000000000001010000000000000000000000000000000000000000000000000000000000000101010000000000000000000000000000000000000000000000000000000000000000000100000001100000000000000000000000000000011000000000000000000000001000000000000000000000000000000000000000000000000000000000000001111100000000000000000000000000000001100000000000000000000000000000000010100000000000000000000000000000000000001001000000001100000011000000000000000000000000000000000000000000000000001000000000000001101110110000000000000000000000000000011000000000000000000000000011000000101001001000000000000000000000000000000001100000000011000001001000000000000000000000000000000000000000000000000010000000000000001101011000000000000000000000000000000000000000000000000000000000110000000100001010000000000000000000000000000000000000000000000000010100000000000000000000000000000000000000000000000000100000000000110111101111011000000000000000000000000000000000000000000000000000000000000000000001000000000000000000000000000000000000000000000000000010000000000000000000000000000000000000000000000000000000000000000000110101100000000000000000000000000000000000000000000000000000000000000000000000000000000000000000000000000000000000000000000000000000000000000000000000000000000000000000000000000000000000000000000000011011101100000000000000000000000000000000000000000000000000000000000000000000000000000000000000000000000000000000000001000000000000000000000000000000000000000000000000110000000000000000000000000000000011111100000000000000000000000000000000000000000000000000000000000000000000000000000000000000000000000000000000000000100001000000000000000000000000000000000000000000010010000000000000000000000000000000001101000000000000000000000000000000000000000010000000000000000000000000000000000001000000000000000000000000000000000100100000000000000000000000000000000000000000000101000000000000000000000000000000000001000000000000000000000000000000000000000000100000000000000000000000000000000000101000000000000000000000000000000000011000000000000000000000000000000000000000000000100000000000000000000000000000000010000000000000000000000000000000000000000000001000000000000000000000000000000000000100000000000000000000000000000000000000000000000000000000000000000000000000000000000000000000000000000000000010000000000000000000000000001100110000000000000000000000000000000000000000000000000000000000000000000000000000000000000000001000000000000000000000000000000000000000000000000000000000000000000000000000100000000000000000000000000011001100000000000000000000000000000000000000000000000000000000000000000000000000000000000000000101000000000000000000000000000000000000000000000000000000001100000000000000001000000000000000000000001100000000000000000000000000000000000000000000000000000000000000000000000000000000000000000000000001010000110000000000000000000000000000000000000000000000000100100000000000000000000000000000000000000011000000000000100000000000000000000000000000000000000000000000000000000000000000000000000000000000001000010010000000000000000000000000000000000000000000000001010000000000000000000000000000000000000000000000000000010100000000000000000000000000000000000000000000000000000000000000000000000000000000000000000011000000000000000000000000000000000000000001000000001000000000000000000000000000000000000000000000000000000101000000000000000000000000000000000000000000000000000000000000000000000000000110000000000000000000000000000000000000000000000000000000101000000000000000000000000000000000000000000000000000000000000000100000000000000000000000000000000000000000000000000000000000000000000000000010010000000000000000000000000110000000000000000000000000000110000000000000000000000000000000010000000000000000000000000000000000000000000000011000000000000000000000000000000000000000000000001000000000100100000000000000000000000010100000000000000000000000000000000000000000000000000000000000000100000000000000000000000000000000000000000000000110000000000000000000000000000000000000000000000101000000000110000000000000000000000000010000000000000000000000000000000000000000000000000000000000000001000110000000000000000000000000000000000000000000000000000000000000000000000000000000000000000010010000000000000000000000000000000000000000000000000000000000000000000000000000000000000000000000000000000010010000000000000000000000000000000000000000000000000000000000000000000000000000000000000000011000000000000000000000000000000000000000000000000000000000000000000000000000000000000000000000000000000000101000000000000000000000000000000000000000000000000000000000000000000000000000000000000000000000000000000000000000000000000000000000000000000000000010000000100000000000000000000000000000000000000000000100000000000000000000000000000000000000000000000000000000000000000000000000010000000000000000000000000000000000000000000000000000000000000000000001100000001100000000000000000000000000000000000000011000000000000000000000000000000000000000000000000000000000000000000000000000001110000000000000000000000001100000000000001000100000000011000000000000000010001000000000000000000000000000000000000000000110000000000000000000000000000000000000000000000000000000000000000000000000000010011000000000000000000000100100000000100001010100000000110000000000011110000000111100000000000000000000000000000000000000000000000000000000000000000000000000000000000000000000000000000000000000011100010010000000000000000000000101000000110100101001100000000000000000001000010010001101100000000000000000000000000000000000000000000000110000000000000000000000000000000000000000000000000000000000001000010100000000000000000000000000100000001000011110110000000000000000000001001000100011010000000000000000000000000000000000000000000000001100000000000000000000000011100000000000000000000000000000000010000000010000000000000000000000000000000011010010000000000000000000000000000001001000111000000000000000000000000000000000000000000100000000000000000000000000000000000000000000000000000000000000000000110000011000000000000000000000000000000000000100010000000000000000000000000001110000000100000000000000000000000000000000000000000011000000000100000000000000000000000000000000000000000000000000000000000000000100000000000000000000000000000000000000011100000000000000000000000110000000000000000000000000000000000000000000000000000001100100000010100000000000000000000000000000000011000000000000000000000000100010000000000000000000000000000000000000000001100000000000000000001000110001101100000000000000000000000000001100000000000000001101110001001000000000000000000000000000000000110000000000000000000000000010000000000000000000000110000000000000000000010100000000000000001100011100011111000000000000000000000000000011000000000000000000011000001100000000000000000000000000000000000000001010001010000000000000000000000000000000000010010000000000000001011011101100000000000001111000001101100000000000000000000000000000000000000000000000000000000000000000000000000000000000000000000000000100100010010000000000000000000000000000000000100100110001100000011110101000100000000000001110011001100000000000000000000000000000000000000000000000000000000000000000000000000000000000000000000000000000101000101000000000000000000000000000000000000110001100100100000010000110010000000000000010000000010000000000000000000000000000000000000000000000000000000000000000000000000000000000000000000000000000000000000000000000000000000000000000000000000000000000000101000000000000100100000000000000111011111100000000000000001000000000000000000000000000000000000000000000000000000000000000000000000000000000000000000000000000000000000000000000000000000000000000000000100000000000000111000000000000001000001100000000000000000101000000000000000000000000000000000000000000000000000000000000000000000000000000000000000000000000000000000000000000000000000000000000000000000000000000000000110000000000000001000000000000000000000001010000000000000000000000000000000000000000000000000000000000000000000000000000000000001010001010000000000000000000000000000000000000000000000000001000000000000000000000000000000000000000000000000000001000000000000000000000000000000000000000000000000000000000000000000000000000000000000100100010010000000000000000000000000000000000000000000000000011000000000000000000000001000000000000000000000000000000000000000000000000000000000000000000000000000000000000110000000000000000000000000000101000101000000000000000000000000000000000000111000000000000111000000000000000000000010000000000000000000000000000000000000000000000000000000000000000000000000000000000001100000000000000000000000000000000000000001000000000000000000000000000000000000000000000000010000000000000000000000100000000000000000000000000000000000000000000000000000000001110000000000000000000000000000000000000000000000000000000000000000001000000000011000000000000000000000000000000000000001000000000100000000000000000000000000000000000000000000000000000000000000000000000000000000000000000000000000000000000000000000000000000000000000011010000000001001000000001100000000000000000000001100010000000011100000111000111000000000000000000000000000000000000000000000000000000000000000000000000000000000000000000000000000000000000000000000001110010000000010010000000101000000000000000000000011000000000011001000000000000000000000000000000000000000000000000000000000000000000000000000000000000000000000000000000000000000000000000000000000000100000000000000011000000000100000000000000000000000000010000000100100011100001000000000000000000000000000000000000000000000000000000000000000000000000000000000000000001100000000000000000000000000000001001011000000000000000000000000000000000000000000001001000000000001010000100010000000000000000000000000000000000000000000000000000000000000000000000000000110000000000100100000000000000000000000000000010100000000000000000000000000000000000100000000000001110000000001000000001000100000000000000000000000000000000000000000000000000000000000000000000000000001100000000000110000000000000000000000000000000000000000000000000000000000000000000010100000000000000000000000001100010100000000000000000000000000000000000000000000000000000000000000000000000000000000000000000000000000000000000000000000000000000000000000000000000000000000000000000001010000000000000000000000000001000110000000000000000000000000000000000000000000000000000000000000000000000000000000000000000000000000000000000000000000000000000000000000000000000000000000000000000000101000000000000000000000000000001010000000000000000000000000000000000000000000000000000000000000000000000000000000000000000000000000000000000000000000000000000000000000000000000000000000000000000000000100000000000000000000000000000001110000000000000000000000000000000000000000000000000000000000000000000000000000000000000000000000000000000000000000000000000000000000000000000000000000000000000000000000000000000000000000000000000000000000000000000000000000000000000000000000000000000000000000000000001110000000000000000000000000000000000000000000000000000000000000000000000000000000000000000000000000000000000000000000000000000000000000000000000000000000000000000000000000000000000000000000000000000000000000000000000000000000000001000000000000000000000000000000000000000000000000000000000000000000000000000000000000000000000000000000000000000000000000000000000000000000000000000000000000000000000000000000000000000000000000000000101000000000000000000000000000000000000000000000000000000000000000000000000000000000000000000000000000000000000000000000000000000000000000000000000000000000000000000000000000000000000000000000000000001010000000000000000000000000000000000000000000000000000000000000000000000000000000000000000000000000000000000000000000000000000000000000000000000000000000000000000000000100000000000000000000000000000001000000000000000000000000000000000000000000000000000000000000000000000000000000000000000000000000000000000000000000000000000000000000000000011100000000000000000000000001000000000000000000000000000000000000000000000000000000000000000000000000000110000000000000000000000000000000000000000000000000000000000000000000000000000000000000000000001000100000000000000000000000010000000000000000000000000000000000000000000000011000001000000000000000000001100000000000000000000000000000000000000000000000000000000000000000000000000000000000000000000100000000000000000000000000000000000000000000000000000000000000000000000000000110000010000000000000000000000000000000000000000000000000000000000000000000000000000000000000000000000000000000000000000000100100000000000000000000000000000000110000000000000000000000011000000000000000000000100000000000000000000000000000000000000000000000000000000000000000000000000000000000000000000000000000000000000000000100000000000000000000000000000000001010000000000000000000000110000000000000000000000000000000000000000000000000000000000000000000000000000000000000000000000000000000000000000000000000000000000000000000000000000000000000000000000000000001100000000000000000000000000000000000000000000000000000000000000000000000000000000000000000000000000000000000000000000000000000000000000000000000000000000000000000000000000000000000000000000000000000000000000000000000000000000000000000000000000000000000000000000000000000000000000000000000000000000000000000000000000000000000000000000000000000000000000000000000000000000000000000