P1
200 200
0011100000000000000000000000000000000000000000000000000000000000000000000000000000000000010000000000000000000000100000000000000000000000000000000000000000000000000000000000000000000000010000000000000000101100000000000000000000000000000000000000000000000000000000000000000000000000000000000000000000000000010000010100000000000000000000000000000000000000000000000000000000000000000000001010000000000000000011000000000000000000000000000000000000000000000000000000000000000000000000000000000000100000000000001010000100100000000100000000000000000000000000000000000000000000000000000000000010100000000000000000000000000000000000000000000000000000000000000000000000000000000000000000000000000000000001000000000011000000110000000010100000000000000000000000000000000000100000000000000000000000010000000000000001100000000000000000000000000000000000000000000000000000000000000000000000000000000000000101010000000000000000000000000000101000000000000000000000000000011100010100000000000000000000000000011100000000001100000000000000000000000000000000000000000000000000000000000000000000000000011000000000010100000000000000000000000000000100000000000000000000000000000000000100100000000000000000000000000000000000000111000000000000000000000000000000000000000000000000000000000000000000000000000110000000000000000000000000000000000000000000000000000000000000000000000000000000110000000000000000000000000000000100000000010000000000000000000000000000000000000000000000000000000000000000000000000000000000000000000000000000000000000000001100000001100000000000000000000000000000000000000000001100000000000000000010100000001000000000000000000000000000000000000000000000000000000000000000000000000000000000000000000000000000000000000000000100100000100100000000000000000000000000000000000000000011000000000000000000101000001010101000000000000000000000000000000000000000000000000000000000000000000000000000000000000000000000000000000000000000110000000110000000000000000000000000000000000000000000000000000000000000000100000010110100000000000000000000000000000000000000000000000000000000000000000000000000000000000000000000000000000000000000000000000000000000000000000000000000000000000000000000000000000000000000010000000000000000000000000000000000000000000000000000000000000000000000000000000000000000000000000000000000000000000000000000000000000100000000000000000000000000000000000000000000000000000000000000000100000000000111000000000000000000000000000000000000000000000000000000000000000000000000000000100000000000000000000000000000000000000010100000000000000000000000000000000000000000000000000000000000000001100000000000000000000000000000000000000000000000000000000000000000000000000000000000000000001000000000000000000000000000000000000000101000000000000000000000000000000000000000000000000000000000001000000000000000000000000000000000000000000000000000000000000000000000000110000000000000000000000010000000000000000000000000000000000000000100000000000000000000000000000000000000000000000000000000000101000101001000000000000000000000000000000000000000000000000000000000000010010000000000000000000000000000000000000000000000000000000000000000000000000000000000000000000000000000000000000000000000000010000001000111000000000000000000000000000000000000000000000000000000000000101000000000000000000011100011100000000000000000000000000000000000000000000000000000000000000000000000000000000000000000000000011000000001101000000000000000000000000000000000000000000000000000000000000100000000000000000000000000000000000000000000000000000000000000000000000000000000000000000000000000000000000000000000000000000110000010010010000000000000000000000000000000000000000000000000000000000000000000000000000000000000100000000000000000000000000000000000000000000000000000000000000000000000000000000000000011000001100000000000100101000000000000000000000000000000000000000000000000000000000000000000000000000000000000001000000000000000000000000000000000000000000000000000000000000000000000000000000000000000110000011000000000000000000000000000000000000000000000000000000000000000000000000000000000000000000000000000000010000000000000000000000000000000000000000000000000000000000000000000000000000000000000000000000000000000000100000000000000000000000000000000000000000000000000000000000000000000000000000000000000000000000000000000000000000000000000000000000000000000000000000000000000000000000000000000000000000000000110000001000011000000000000000000000000000000000000000000000000000000000000000000000000000000000000000000000000000000000000000000000000000000000000000000000000000000000000000000000000000000000000000001100000011011001000000000000000000000000000000000000000000000000000000000000000000000000000000000000000000000000000000000000000000000000000000000000000000000000000000000000000000000000000000000000000000000000000001001000000000000000000000000000000000000000110000000000000000000000000000000000000000000000000000000000000000000000000000000000000000000000000000000000000000000000000000000000000000000000000000000000010001000000000000000000000000000000000000010010000000000000000000000000000000000000000001110000000000000000000000000000000000000000000000000000000000011000000000000000000000000000000000000000000000000010010000000000000000000000000000000000000100100000000000000000000000000000000000000000100010000000000000000000000000000000000000000000000000000000000101100000000000000000000000000000000000000000000000100010000000000000000000000000000000000000110000000000000000000000000000000000000000010000010000000000000000000000000000000000000000000000000000000000011000000000000000000000000000000000000000000000001101000000000000000000000000000000000000000000000000000000000000000000000000000000111000001000000000000000000000000000000001000000000000000000000000110100000001100000000000000000000000000000000000000011100000000000000000000000000000000000110000000000000000000000000000000000000000011000011100000000000000000000000000000000101000000000000000000000000001000000011000000000000000000000000000000000000000000000000000000000000000000000000000001100000000000000000000000000000000000000000000000000000000000000000000000000000000001010000000000000000000000000010000000000000000000000000000000000000000000000000000000000000000000000000000000000000000000000000011000000000000000000000000000001000010000000000000000000000000000000000001000000000000000000000000100100000000000000000000000000000000000000000000000011000000000000000000000000000000000000000000000001001000000000000000000000000000001101100000000000000000000000000000000000000000000000000000000000001010000000000000000000000000000000000000000000000001010110000010000000000000000000000000000000000000010100000000000000000000000000000011100000000000000011000000000000000000000000000000000000000000000000000000000000000000000000000000000000000000000000011110000001010000000000001000000000000000000000000010000000000000000000000000000000000000000000000001001000000000000000000000000000000000000000000000000000000000000000000000000001000000000000000000001001000000010010000000000101000000000000000000000000000000000000000000000000000000000000000000000000001100000000000000000000000000000000000000000000000000000000000000000000000000101000000000000000000010100000000011000000000011011000000000000000000000000000000000000000000000000001000000000000000000000000000010000000000000000000000000000000000000000000000000000000000000000000001010000000000000000000100000000000000000000000000000000000000000000000000000011000000000000000000000010000000000000000000000000000100111000000000000000000000000000000000000000000000000000000000000000001000000000000000000000000000000000000000000010010000000000000000000000000000110000000000000000000000100000000000000000000000000001110110000000000000000000000000000000000000000000000000000000000000000000000001110000000000000000000000000000000001101000000000000000000000000000000000000000000000000000000000000000000000000000000000000100100000000000000000000000000000000000000000000000000000000000000000000000000000000000000000000000000000000000010100000000000000000000010000000000000000000000000000000000000000000000000000000000000010010000000000000000000000000000000100000000000000000000000000000000000000000000000000000000000000000000000000000010100000000000000000001010000000000000000000000000000000000000000000000000000000000000010100000000000000000000000000000010100000000000000000000000000000000000000000000000000000000000000000000000000000101000000000000000000010010000000000000000000000000000000000000000000000000000000010000000000000000000000000000000000001000000000000000000000000000000000000000000000000000000000000000000000000000000001011000000000000011000011000000000000000000000000000000000000000000000000000000000100000000000000000000000000000000000110000111000000000000000000000000000000000000000000000000000000000000000000000000001001100000000000110000000000000000000000000000000000000000000000000000000000000001000000000000000000000000000000000001101010110000000000000000000000000000000000000000000000000000011000000000000000000011011000000000000000000000000000000000000000000000000000000000000000000000000000000000000000000000000000000000000000011010100000000000000000000011000000000000000000000000000000000110000000000000000000110001000000000000000000000000000000000000000000000000000000000000000000000000000000000000000000000000000000000000000001111000000000000000000001001000000000000000000000000000000000000000000000000000000010010000000000000000000000000000000000000000000000000000000000000000011100000000000000000000000000000000000001100000000010000001000000000000001100000000000000000000000000000000000000000000000000000000000100000000000000000000000000000000000000000000000000000000000000000001000000010000000000000000000000000001000001100000000000100100000000000000000000000000000000000000000000000000000000000000000000000110000000010000000000000000000000000000000000000000000000000000000000100000000100000000000000000000100001000000000100000000001100010000000000000000000000000000000000000000000000000000000000000000000000000000001100000000000000000000000000000000000000000000000000000000000000000001000000000000000000010100010011111001000000001110100100000000000000000000000000000000000000000000000000000000000000000000000000000001000000000000000000000000000000000000000000000000000000000000000000000000000000000000000100100100010010111000000000010001000000000000000000000000000000000000000000000000000000000000000000000000000000000000000000000000000000000000110000000000000000000000000000000000000000000000000000110000110000010000000000000000000001000000000000000000000000000000000000000000000000000000000000000000000000000000000000000000000000110000000000001100000000000000000000000000000000000000000000000000001100000000000100001000000000001000010000000000000000000000000000000000000000000000000000000000000000000000000000000000000000000000001100000000000000000000000000000000000000000000000000000000000000000000000000000000110010000000000010011000000000000000000000000000000000000000000000000000000000000000000000000001100000000000000000000000000000000000000000000000000000011000000000000000000000000000000000000000000000000011000000000000011000000000000000000000000000000000000000000000000000000000000000000000000000011000000100000000000000000000000000000000000000000000000110000000000000000000000001110000000000000000000000000000000000000000000000000000000000000000000000000000000000000000000000000000000000000000000000010001000000000000000110000011000000000000000000000000000000000000011000000000000000000000000000000000000000000000000000000000000000000000000000000000000000000000000000000000000000000000000000000000000000000000000001100010010000110000000000000000000000000000000000000101000000000000000000000000000000000000000000000000000000000000000000000000000000000000000000000000000000000000000000000000000000000000000000000000011000010100000000000000000000000000000000000000000000111000000000000000000000000000000000000000000000000000000000000000000000000000000000000000000000000000000000011000000000000000000000000000000000000000000010000000000000000000000010000000000000000000000110000000000000000000000000000000000000000000000000000000000000000000000000000000000000000000000000000000001001000000000000000000110110000000000000000000000000000000000000000001110000000000000000000000000000000000000000000000000000000000000000000000000000000000000000000000000000000000000000000000000000000010010000000000000000001100100000000000000000000000000000000000000000101010000000000000000000000000000000000000000000000000000000000000000000000000000000000000000000000000000000000000000000110000000000011000000000000000000001110000000000000000000000000000000000000000001100110000000000000000000000000000000000000000000001100000111000000000000000000000000000000000000000000000000000000000001100000000000000000000000000000000000000000000000000000000000000000000000000000111001110000000000000000000000000001100000000000000011000000000000000000000000000000000000000000000000000000000000000000000000000000000000000000000000000000000000000000000000000000000000000000000000000110010010000000000000000000000000100100000000000000000000000000000000000000000000000000000000000000000000000000000000000000000000000000000000000000000000000000000000000000000000000000000000000000100000010110100000000000000000000000000110000000000000000000000000000000000000000000000000000000000000000000000000000000000000000000000000000000000000000000010000000000000000000000000000000000000000001000000110110000000000000000000000000000000000000000000000000000000000000000000000000000000000000000000000000000000000000000000000000000000000000000000000001000000000000000000000000000000000000000000010000110000000000000000000000000000000000000000000000000000000000000000000000000000000000000000000000000000000000000000000000000000000000000000000000000000110000000100000000000000000011000000000000000000001100000001100000000000000000000000000000000000000000000000000000000000000000000000000000000000000000000000000000000000000000000110000000000000000000000111100010011000000000000001001000000000000000000000111000000000000000000000000000000000000000000000000000000000000000000000000000000000000000000000000000000000000000000000000010010000000000000000000000111000100001000000000000000010000000000000011000000000000000000000000000110000000000000000000000000000000000000000000000000000000000000000000000000000000000000000000000000000011000000000000000000000010000001000010000000000001000110000000000001010000000000000000000000000010010000000000000000000000000000000000000000000000000000000000000000000000000000000000000000000000000000000000000000000000000000101100001001000000000000000001000000000000110000000000000000000000000000011000000000000000000000000000000000000000000000000000000000000000000000000000000000000000000000000000000000000000000000000000010011000000110000000000000000100000000000000101000000000000000000000000000000000000000000000000000000000000000000000010000000000000000000000000000000000000000000000000000000000000000000000000000000000110110000000000000000000001100000000000000000110000000000000000000000000000000000000000000000000000000000000000000001010000000000000000000000000000000000000000000000000000000000000000000000000000000011100000000000000000000000000000110000000000000000000111000000000000000000000000000000000000000000000000000000000000010100000000000000000000000000000000000000000000000000000000000000000000000000000000011010000000000000000000000010100010000000000000000110000000110000000000000000000000000000000000000000000000000000000010000000110000000000000000000000000000000000000000000000000000000000000000000000000010010000000000000000000000111100100000000000000001100000000000000000000000000000000000000000000000001100000000000000000000011110000000000000000000000001000000000000000000000000000000000000000000000000100000000000000000000000011000011000000000000000000110110000000000000000000000000000000000000000000011000000000000000000000100110000000000000000000000101000000000000000000000000000000000000000000000000101000000000000000000000101111000000000000000000001011010000000000000000000000000000000000000000000000000000000000000000000001100000000000000000000000100000000000000000000000000000000000000000000000000100000000000000000000000101110000000000000000001100100100000000000000000000000000000000000000000000000000000000000000000000011000000000000000000000000000000000000000000000000000000000000000000001110000000000000000000000000000000000000000000000000111001110000000000000000000000000000000000000000000000000000000000000000000100000000000000000000000000000000000000000000000000000000000000000000000110100010000000000000000000000000000010000000000000000110000000000000000000000000000000000000000000000000000000000000000000000000000010000000000000000000000000000000000000000000000000000000000000000011010001100000000000000000000000000000100001100000000001100000000000000011000000000000000000000000000000000000000000000000000000010000100000000000000000000000000000000000000000000000000000000000001000001000100000000000000000000000000000001000100100000000000000000000000000110000000000000000000000000000000000000000000000000000000010000000000000000000000000000000000000000000000000000000000000000111000010111110000000000000000000000000000000000110000000000000011000000000000000000000000000000000000000000000000000000000000000000000000000000000000000000000000000000000000000000000000000000000000011111001101001011000000000000000000000000000000000000000000000000000000000000000000000000000000000000000000000000000000000000000000000000000000000000000000000000000000000000000000000000000000000000000000000010010001110000000000000000000000000000000000000000000000000000000110000000000000000000000000000000000000000000000000000000000000001000000000000000000000000000000000000001000000000000000000000000000000101000010100000000000000000000000000000000000000000000000000000010010000000000000000000000000000000000000000000000000000000000001101100000000000000000000000000000000000101000000000000000000000000000000000000000000000000000000000000000010000000000000000000000000000100100000000000000000000000000000000000000000000000000000000000000000000000000000000000000000000000000001010000000000000000000000000000000000000000000000000000000000000000100000000000000000000000000000110000000000000000000000000000000000000000000000000000000000000000101000000000000000000000000000000000001000000000000000000000000000000000000000000000000000000000000000001000000000000000000000000000000000000000000000000000000000000000000000000000000000000000000000100010000000000000000000000000000000000000000000000000000000000000000000000000000000000000000000000000000000000000000000000000000000000000000000000000000000000000000000000000000000000000000000000000001001100000000000000000000000000000000000000000000000000000000000000000000000000000000000000000000000000000000000000000000000000000001100000000000000000000000000000000000000000000000000000000000000000001110000000000000000000000000000000000100000000000000000000000000000001000000000000000000000000000000000000000000000000000000000000100100000000000000000000000000000000000000000110000000000000000000000001000000000000000000000000000000000001000000000000000000000000000000010000000000000000000000000000000000000000000000000000000000000110000000000000000000000000000000000000000010010000000000000001100000000000000000000001000000000000000000010000000000000000000000000000000000000000000000000000000000000000000000000000000000000000000000000000000000000000000000000000000000000000010100001110000000011000000000000000000000010000000000000000000000000000000000000000000000000001100000000000000000000000000000000000000000000000000000000000000000000000000000000000000000000000000000000010000100010000000000000000000000000000000100000000000000000000000000000000000000000000000000001100100000000000000000000000000000000000000000000000000000000000000000000000000000000000000000000000000000000001000100000000000000000000000000000000000000000000000000000000000000000000000000000000100011000100000000000000000000000000000000000000000000000000000000000000000000000000000000000000000000000000000000010001000000010000000000000000000111000111000000000000000000000001010000000000000000001010000001000000000000000000000000001000000000000000000000000000000000000000000000000010000000000000000000000000000011100000001010000000000000000000000000000000000000000000000011000100000000000000000000010000000000000000000000000000000101000000000000000000000000000000000000000000000000100000000000000000000000000000000000000010010000000000000000000001000000000000000000000001000000000000000000000000011000000000000000000000000000000001001000000000000000000000000000000000000000000000001000000000000000000000000000000000000000000100000000000000000000010000000000000000000000010000100000000000000000000000000000000000000000000000000000001100000000000000000000000000000000000000000000000000000000000000000000000000000000000001100101100000000000000000000100000000000000000000001000011000000000000000000000000000000000000000000000000000000000000000000000000000000000000000000000000000000000000000000000000000000000000000111000011011001000000000000000000000000000000000000000000110010000000000000000000000000000000000000000000000000000000000000000000000000000000000000000000000000000000000000000000000000000000000000000000110001000110110000000000000000000000000000000000000000011100010000000000000000000000000000000000000000001110000000000000000000000000000000000000000011100000000000000000000000000000000000000000000000000111000110111000000000000000000000000000000000000000000000010000000000000000000000000000000000000000000000000000000000000000000000000000000000000000000000000000000000000000000000000000000000000000000000100000000000000000000000000000000000000000000000000101001100100000000000000000000000000000000000000010000010000000000000000000000000000000000000000000100000000000000000000000000000000000000000000000000000001000000000000000000000000000000000000100000010010011011000000000000000000000000000000000000000100000100000000000000000000000000000000000000000001000000000000000000000000000000000111000000000000010000001000000000000000000000000000000000101000000100000110000000000000000000000000000000000000000001000001000000000000000000100000000000000000000000010000000000010000000000000000000000000000000000000010000000100000000000000000000000000000000010000000001110000000011000000000011000000000000000000000000000000000000000000000010100000000000000000000000000000000001010000000000000000000000000000000000000010000001000000000000000000000000000001000100000101111100000000101000110000110000000000000000000000000000000000000000000000101000000000000000000000000000000000010100000000000000000000000000000000000000001111010001100000000000000000000000000011100010000000000000000010001100000000000000000000000000000000000000000000000000000100000000000000000000000000000000000010000000000000000000000000000000000000100100000000100100000000000000000000001011011100100100000000000010100000000000000000000000000000000000000000000000000000000000000000001000001100000000000000000000000000000000000000000000000000000000001111111000000110000000000000000000000010000010101010000000000000110000000000000000000000000000000000000000000000000000000000000000000111000010100000000000000000000000000000000000000000000000000000000010000010000000000000000000000000000000000000111000000001111000000000000000000000000000000000000011100000000000000000000000000000000011010000001000000000000000000000000000000000000000000000000000000000000100000000000000000000000000000000000000000110000000110001100000000000011000000000000000000000000000000000000000000000000000000000111000000010000000000000000000000000000000000000000000000000000000000001000000000000000000000000000000000000000000000000100001001000000000001001000000000000000000000000100000000000000000000000000000000110000011100000000000000000000000000000000000000000000000000000000000010000000000000000000000000000000000000000000000001010000100000000000001010000000000000000000000001000000000000000000000000000000011000100000010000000000000000000000000000000000000000000000000000000000000000000000000000000000000000000000000000000000010000100000000000000001000000000000000000000000010000000000000000000000000000000110100000011000000000000000000000000000000000000000000000000000000000000000000000000000000000000000000000000000000000000001010000000000000000000000000000000000000000000000000000000000000000000000000000000000000000000000000000000000000000000000000000000000000000000000000000000000000000000000000000000000000000000000000000001000011000000000000000000000000000000000000000000000000000000000000000000000000110111100000000000000000000000000000000000000000000000000010000000000000000000000000000000001100000000000000000000000000001000100000000000000000000000000000000000000000000000000000000000000000000000000000000000000000000000000000000000000000000000000000000001010000000000000000000000000000000011000000000000000000000000000010001000000000000000000000000000000000000000000000000000000000000000000000000000000000000000000000000000000000000000000000000000000000010100000000000000000000000000000000000000000000000000000000000000011100000000000000000000000000000000000000000000000000000000000000000000000000000000000000000000000000000000000000000000000000000000000010000000000000000000000000000000000000000000001100000000000000000000000000000000000000000000000000000000000000000000000000000000000000000000000000000000000000000000000000000000000000000000000000000000000000000000000000000000000000000000000000000011000000000000000010000000000000000000000000000000000000000000000000000000000000000000000000000000000000000000000000000000000000000000000000000000000000000000000000000000000000000000000000000000000000000000000000000001010000000000000000000000000000000000000000000000000000000000000000000000000000000000000000000000000000000000000000000000000000000000000000000000000000000000000000000000000000000000000000000000000000010100000000000000000000000000000000000000000000000000000000000000000000000000000000000000000000000000000000000000110000000000000000000000000000000000000000000000000000000000000000000000000000000000000010000000000000000000000000000000000000000000000000000000000000000000000000000000000000000000000000000000000000001100000000000000000000000000000000000000000000000000000000000000000000000000000000000000000000000000000000000000000000000010000000000000000000000000000000000000000000000000000000000000000000000000000000000000000000000000000000000000000000000000000000000000110000000000000000000000000000000000000000000000000000000000000001010000000000000000000000000000000000000000000000000000000000000000000000000000000000000000000000000000000000000000000000000000000000001010000000000000000000000000000000000000000000000000000000000000010100000000000000000000000000000000000000000000000000000000000000000000100000000000000000000000000000000000000011000000000000000000000001000000000000000000000000000000000000000000000000000000000000000010000000000000000000000000000000001100000000000000000000000000000000010100000000000000000000000000000000000001001000000001100000011000000000000000000000000000000000000000000000000000000000000000000000000000000000000000000000000000000011000000000000000000000000011000000101000000000000000000000000000000000000001100000000011000001001000000000000000000000000000000000000000000000000111000000000000110000000110000000000000000000000000000000000000000000000000000000110000000100111011100000000000000000000000000000000000000000000000010100000000000000000000000000000000000000000000000000000000000000001100000010010000000000000000000000000000000000000000000000000000000000000000001000001000000000000000000000000000000000000000000000000010000000000000000000000000000000000000000000000000000000000000000000000000011000000000000000000000000000000000000000000000000000000000000000000010000010000000000000000000000000000000000000000000000000000000000000000000000000000000000000000000000000000000000000000000000000000000000000000000000000000000000000000000000000000000000000000000000000010001000000000000000000000000000000000000000000000000000000000000000000000000000000000000110000000000000000000000000000000000000000000000000000000000000000000000000000000000000000000000000000000000000011100000000000000000000000000000000000000000000000000000000000000000000000000000000000010010000000000000000000000000000000000000000000000000000000000000000000000000000000000000000000000000000000000000000001000000000000000000000000000000000000000000000000000000000000000000000000000000000101000000000000000000000000000000000000000000000000000000000000000000000000000001110000000000000000000000000000000000101000000000000000000000000000000000000000000000000000000000000000000000000000000000100000000000000000000000000000000000000000000000000000000000000000000000000000000000000000000000000000000000000000000100000000000000000000000000000000000000000000000000000000000000000000000000000000000000000000000000000000000000000000000000000000000000001100110000000000000000000000000000000000000000000000000000000000000000000000000000000000000000001000000000000000000000000000000000000000000000000000000000000000000000000001110000000000000000000000000011001100000000000000000000000000000000000000000000000000000000000000000000000000000000000000000101000000000000000000000000000000000000000000000000000000001100000000000000000000000000000000000000001100000000000000000000000000000000000000000000000000000000000000000000000000000000000000000000000001010000110000000000000000000000000000000000000000000000000100100000000000000000000000000000000000000011000000000000100000000000000000000000000000000000000000000000000000000000000000000000000000000000001000010010000000000000000000000000000000000000000000000001010000000000000000000000000000000000000000000000000000010100000000000000000000000000000000000000000000000000000000000000000000000000000000000000000011000000000000000000000000000000000000000001000000001000000000000000000000000000000000000000000000000000000101000000000000000000000000000000000000000000000000000000000000000000000000000110000000000000000000000000000000000000000000000000000000101000000000000000000000000000000000000000000000000000000000000000100000000000000000000000000000000000000000000000000000000000000000000000000010010000000000000000000000000110000000000000000000000000000110000000000000000000000000000000000000000000000000000000000000000000000000000000011000000000000000000000000000000000000000000000001000000000100100000000000000000000000010100000000000000000000000000000000000000000000000000000000000001110000000000000000000000000000000000000000000000110000000000000000000000000000000000000000000000101000000000110000000000000000000000000010000000000000000000001000000000000000000000000000000000000000000000110000000000000000000000000000000000000000000000000000000000000000000000000000000000000000010010000000000000000000000000000000000000000000000000000000000101000000000000000000000000000000000000000000010010000000000000000000000000000000000000000000000000000000000000000000000000000000000000000011000000000000000000000000000000000000000000000000000000000011011000000000000000000000000000000000000000000101000000000000000000000000000000000000000000000000000000000000000000000000000000000000000000000000000000000000000000001111000000000000000000000000000000010010000000000000000000000000000000000000000000100000000000000000000000000000000000000000000000000000000000000000000000000000000000000000000000000000000000000001100011001100000000000000000000000000000100100000000000000000000000000000000000000000000000000000000000000000000000000000000000000000000000000000000000000000000000000000000000000000000000001100000001100000110000110000011000000000000000000010000000000000000000000000000000000000000000000000000000000000000000000000000000000000000000000000000000000000000000000000000000000000000000000000000100100000100001100011111000000110000000000000000001000000000000000000000000000000000000000000000000000000000000000000000000000000000000000000000000000000000000000111000000110000000000000000000000000000101000110001000110001100000000000000000000000000000000000000000000000000000000000000000000000000001000000110000000000000000000000000100000000000000000000000000011000100000001110000000000000000000000000100001100100001100000000000000000000000000000000100100001000000000000000000000000000000000000000101000001100000000000000000000000001000000000000000000000000001100101000000011110000000000000000000000000000011100101010000000000000000000000000000000000000000101000000000000000000000000000000001100010010000000000000000000000000000000010000000000000000000000000001000001000000000110000000000000000000000000000001000110010000000000000000000001000000000000000001010000000000000000000000000000001100100011000000000100000000000000000000000000000000000000000000000000001100100010000001100000000000000000000000000000000000000000000001000000000001101101110000000000001000000000000000000000000000000010011100000000000010100000000000000000000000000000000011000011000001100000001000010100110000000000000000000000000000000000000011100000010000000000011011010011000000000000000000000000000000001100000000100001000000000001001000000000000000000000000000000000110000011000110000000000000000000000000000000000000110000000000000000000000000000111000000001100110110010000000000000000000000000000000011000000000111110000000000001100000000000000000000000000000000000000100101001000000000000000000000000000000000000010010000000000000001100000000000011000000001010000011100000000000000000000000000000000000000000000011000000000000000000000000000000000000000000000000000001110110010011100000000000000000000000000000000100100110001100000100100000110001001000000001000000000000000000000000000000000000000000000000000000000000000000000000000000000000000000000000000000000000001010000010001000000000000000000000000000000000110001100100100001001000001100010100000000000000000000000000000000000000000000000000000000000000000000000000000000000000000000000000000000000000000000000001101101100000000000000000000000000000000000000000000000101000001100001000111110000000000000000000000000000000000001000000000000000000000000000000000000000000000000000000000000000000000000000000000000000000000010000000000000000000000000000000000000000000000100000000000100011110000000000000000000000000000000000000101000000000000000000000000000000000000000000000000000000000000000000000000000000000000110100000000000000000000000000000000000000000000000000000000000000001000011000000000000000000000000000000000000001010000000000000000000000000000000000000000000000000000000000000000000000000000000000010100100000000000000000000000000000000000000000000000000000001100000001110000000000010000000000000000000000000000001000000000000000000000000000000000000000000000000000000000000000000000000000000000001110011000000000000000000000000000000000000000001000000000000011000000000000000000001011000000000000000000000000000000000000000000000000000000000000000000000000000000000000110000000000000000000000000010010000001000000000000000000000000000000000000010000000000000000000000000000000000010110000000000000000000000000000000000000000000000000000000000010000000000000000000000001100000000000000000000000000000101111111000000000000000000000000000000000000100000000000000000000000000000000001001110000000000000000000000000000000000000000000000000000000000100000000000000000000000000000000000000000000000000000011011111010000000000000011000000000000000000000000000000000000000000000000000110001101101000000000000000000000000000000000000000000000000000000001000000000000000000000000000000000000000000000000000000000000111110000000000001001000000001100000000000000000000000000000000000000000000110100000000000000000000000000000000000000000000000000000000000000000000000000000000000000000000000000000000000000000000000000001100000000000010010000000101000000000000000000000000000000000000000000000011001100000000000000000000000000000000000000000000000000000000000000000000000000000000000000000000000000000000000000000000000001000000000000011000000000100000000000000000000000000000000000000000000011011000000000000000000000000000000000000000000000000000000000000000000000000000000000000000001100000000000000000000000000000000000000000000000000000000000000000000000000000000000000000000000000000000011100000000000000000000000000000000000000000000000000000000000000000000000000000110000000000100100000000000000000000000000000000000000000000000000000000000000000000100000000000000000000000000000000000000000000000000000000000000000000000000000000000000000000000000000000000000000001100000000000110000000000000000000000000000000000000000000000000000000000000000000010100000000000000100000000000000000000000000000000000000000000000000000000000000000000000000000000000000000000000000000000000000000000000000000000000000000000000000000000000000000000000000000000000001010000000000000110110000000000000000000000000000000000000000000000000000000000000000000000000000000000000000000000000000000000000000000000000000000000000000000000000000000000000000000000000000000000101000000000000011011100000000000000000000000000000000000000000000000000000000000000000000000000000000000000000000000000000000000000000000000000000000000000000000000000000000000000000000000000000000000100000000000000111110000000000000000000000000000000000000000000000000000000000000000000000000000000010000000000000000000000000000000000000000000000000000000000000000000000000000000000000000000000000000000000000000000111000000000000000000000000000000000000000000000000000000000000000000000000000000000100000000000000000000000000000000000000000000000000000000000000000000000000000000000000000000000000000000000000000000100000000000000000000000000000000000000000000000000000000000000000000000000000000001000000000000000000000000000001000000000000000000000000000000000000000000000000000000000000000000000000000000000000000000000000000000000000000000000000000000000000000000000000000000000000000000000000000000000000000000000000000000101000000000000000000000000000000000000000000000000000000000000000000000000000000000000000000000000000000000000000000000000000000000000000000000000000000000000000000000000000000000000000000000000000001010000000000000000000000000000000000000000000000000000000000000000000000000000000000000000000000000000000000000000000000000000000000000000000000000000000000000000000000000000000000000000000000000000001000000000000000000000000000000000000000000000000000000000000000000000000000000000000000000000000000000000000000000000000000000000000001010110000000000000000000000000011100000000000000000000000000000000000000000000000000000000000000000000000000110000000000000000000000000000000000000000000000000000000000000000000000000000000000000000010100000000000000000000000000000000000000000000000000000000000000000000000000000011000000000000000000000000001100000000000000000000000000000000000000000000000000000000000000000000000000000000000000000001001000000000000000000000000000000000000000000000000000000000000000000000000000110000111000000000000000000000000000000000000000000000000000000000000000000000000000000000000000000000000000000000000000100010000000000000000000000000000000000110000000000000000000000011000000000000000000000000000000000000000000000000000000000000000000000000000000000000000000000000000000000000000000000000000000000000001111000000000000000000000000000000000001010000000000000000000000110000000000000000000000000000000000000000000000000000000000000000000000000000000000000000000000000000000000000000000000000000000000000001000000000000000000000000000000000000001100000000000000000000000000000000000000000000000000000000000000000000000000000000000000000000000000000000000000000000000000000000000000000000000000000000000000000000000000000000000000000000000000000000000000000000000000000000000000000000000000000000000000000000000000000000000000000000000000000000000000000000000000000000000000000000000000000000000000000000000000000000000000000