P1
200 200
0000000000000000000000000000000000000000000000000000000000000000000000000000000000000000000000000000000000000000100000000000000000000000000000000000000000000000000000000000000000000000010000000000000000000000000000000000000000000000000000000000000000000000000000000000000000000000000000000000000000000000010000010100000000000000000000000000000000000000000000000000000000000000000000001010000000000000110000100000000000000000000000000000000000000000000000000000000000000000000000000000000000000000000000001010000100100000000100000000000000000000000000000000000000000000000000000000000010100000000000001000101000000000000000000000000000000000000000000000000000000000000000000000000000000000000000000000000011000000110000000010100000000000000000000000000000100000100000000000000000000000010000100000000010101010000000000000000000000000000000000000000000000000000000000000000000000000000000000000000000000000000000000000000000101000000000000000000000000000001000010100000000000000000000000000001000000000011011000000000000000000000000000000000000000000000000000000000000000000000000011000000000000000000000000000000000000000000100000000000000000000000000000010000100100000000000000000000000000010000000000011000000000000000000000000000000000000000000000000000000000000000000000000000110000000000000000000000000000000000000000000000000000000000000000000000000000000110000000000000000000000000000000000000001100111000000000000000000000000000000000000000000000000000000000000000000000000000000000000000000000000000000000000001100000001100000000000000000000000000000000000000000001100000000000000000000000000010010001000000000000000000000000000000000000000000000000000000000000000000000000000000000000000000000000000000000000100100000100100000000000000000000000000000000000000000011000000000000000000000000000100101001000000000000000000000000000000000000000000000000000000000000000000000000000000000000000000000000000000000000110000000110000000000000000000000000000000000000000000000000000000000000000000000000000000010000000000000000000000000000000000000000000000000000000000000000000000000000000000000000000000000000000000000000000000000000000000000000000000000000000000000000000000000000000000000000000000010010100100000000000000000000000000000000000000000000000000000000000000000000000000000000000000000000000000000000000000000100000000000000000000000000000000000000000000000000000000000000000000000000000100100010000000000000000000000000000000000000000000000000000000000000000000000000000000000000000000000000000000000000000010100000000000000000000000000000000000000000000000000000001000000000000110000001100111000000000000000000000000000000000000000000000000000000000000000000000000011100000000000000000000000000000000000000101000000000000000000000000000000000000000000000000000000101100000000001011000000000000000000000000000000000000000000000000000000000000110000000000000000000000000000000000000000000000000000000000000000100000000000000000000000000000000000000000000000000000110010000000010000110000000000000000000000000000000000000000000000000000000000010010000000000000000000100000100000000000000000000000000000000000000000000000000000000000000000000000000000000000000000001101000000000000001000000000000000000000000000000000000000000000000000000000000101000000000000000000001000001000000000000000000000000000000000000000000000000000000000000000000000000000000000000000000011010000000000000000000000000000000000000000000000000000000000000000000000000000100000000000000000000010000010000000000000000000000000000000000000000000000000000000000000000000000000000000000000000000001000000000000011000000000000000000000000000000000000000000000000000000000000000000000000000000000000000000000000000000000000000000000000000000000000000000000000000000000000000000000000000000011000000000000000010001000000000000000000000000000000000000000000000000000000000000000000000000000000000000000000000000000000000000000000000000000000000000000000000000000000000000000000000000000000000110000000000000000110000000000000000000000000000000000000000000000000000000000000000000000000000000000000000000000000000000000000000000000000000000000000000000000000000000000000000000000000000000000000000000000011100001000100000000000000000000000000000000000000000000000000000000000000000000000000000000000000000000000000000000000000000000000000000000000000000000000000000001000000000000000000000000000000000000000000100110000000000000000000000000000000000000000000000000000000000000000000000000000000000000000000011000000000000000000000000000000000000000000000000000000000101100000000000000000000000000000000000000000000011000000000000000000000000000000000000000000000000000000000000000000000000000000000000000001110000000000000000000000000000000000000000000000000000000011011111000000000000000000000000000000000000000000011000000000000000000000000000000000000000000110000000000000000000000000000000000000011000110000000000000000000000000000000000000000000000000000000000010011010000000000000000000000000000000000000010001010000000000000000000000000000000000000000010010000000000000000000000000000000000000000011000000000000000000000000000000000000000000000000000000000000000001100000000000000000000000000000000000000011010100000000000000000000000000000000000000000100100000000000000000000000000000000000001100000000000000000000000000000000000000000000000000000000000000001000000000000000000000000000000000000000000000001001100000000000000000000000000000000000000000110000000000000000000000000000000000000011000000000000000000000000000000000000000000000000000000000000000000000000000000000000000000000000000000000000000000111000000000000000000000000000000000000000000000000000000000000000000000000000000000110000000000000000000000000000000000000001000000000000000000000000000010000001100000000000000000000000000000000000000000000000000000000000000011100000000000110000000000000000000000000000000000000000000000000000000000000000000000000000000000101000000000000000000000000000110000011000000000000000000000000000000000000000000000000000000000000000100100000000001100000000000000000000000000000000000000000000000000110000000000000000000000000000001010000000000000000000000001101100000000000000000000000000000000000000000000000000000000000000000000011011000000000000000000000011000000000000000000000000000000000000001100000000000000000000000000000001000000000000000000000000011011000000000000000000000000000000000000000000000110000000000000000000001010000000000000000000000001001000000000000000000000000000000000000000000000000000000000000000000000000000000000000000000000000001000000000000000000000000000000000000000000000010100000000010000000000010100000000000000000000000010100000000000000000000000000000000000000000000000011000000100000000000000000000000000000000000000000000000000000000000000000000000000000000000000000010000000001010000000000011100000000000000000000000010000000000000000000000000000000000000000000000001001000010100000000000000000000000000000000000000000000000000000000000000000001000000000000000000000000011000010010000000000010110000000000000000000000000000000000000000000000000000000000000000000000001100000100100000000000000000000000000000000000000000000000000000000000000000101000000000000000001100001000000011000000000000011100000000000000000000000000000000000000000000000000000000000000000000000000000000010000000000000000000000000000000000000000000000000000000000000000001010000000000000001001100010000000000000000000000000000000000000000000000000011000000000000000000000111000000000000000000000000000011010000000000000000000000000000000000000000000000000000000000000000001000000010000000010010011000000000000000000000001000000000000000000000000000110000000000000000000000000000000000000000000000000001011100000000000000000000000000000000011100000000000000000000000000000000000000100000000100000110110000000000000110110110000000000000000000000000000000000000000000000000000000000000000000000000000000100010000000000000000000000000000000001000100000000000000000000000000000000000001000000000100101110000000000000001010000111000000000000000010000000000000000000000000000000000000000000000000000000000001101100000000000000000000000000000000010001000000000000000000000000000000000000000000000000101000000000000000000001001000111000000000000001010000000000000000000000000000000000000000000000000000000000001110000000000000000000000000000000011000001100000000000000000000000000000000000000000000000110000000000000000000000001110000000000000000010010000000000000000000000000000000000000000000000000001000000001000000000000000000000000000000001000010000100000000000000000000000000000000000000000000000000000000000000000000000000110010000000011000011000000000000000000000000000000000000000000000000000011001110000000000000000000000000000000000010001010001000000000000000000000000000000000000000000000000000000000000000000000000000010000000000110000000000000000000000000000000000000000000000000000000001010000000000000000000000000000000000000000100001000010000000000000000000000000000000000000000000000000011000000000000000000000000010000000000000000000000000000000000000000000000000000000000000000000000000000000000000000000000000000000000000000110000011000000000000000011000000000000000000000000000000000110000000000000000001110000000000000000000000000000000000000000000000000000000000000000000000000000000000000000000000000000000000000000000000010001000000000000000001001000000000000000000000000000000000000000000000000000011100000000001110000000000000000000000000000000000000000000000000000000000000000000000000000000000000000000000000000000000100010000000000000000001100000000000000000000000000000000000000000000000000001000100000000000000000000000000000000000000000000000000000000000000000000000000000000000000000000000000000000000000000000000111000000000000000000000000000000000000000000000000000000000000000000000000001101000000010000010000000000000000000000000000000000000000000000000000000000000001110000000000000000000000001000000000000000000000000000000000000000000000000000000000000000000000000000000000000000000011100000000100000100000000000000000000000000000000000000000000000000000000000000000000000000000000000000001101000000000000000000000000000000000000000000000000000000000000000000000000000000000000000000000000000001000001000000000000000000000000000000000000000000000000000000000000000000000000000000000000000110000000000001111100001000001000000000000000000000000000000000000000000000000000000000000000000000000000000000000000000000000000000000000110000000000000000000000000000000000000000000000000000110000010100000000000101101100101100111000000000000000000000000000000000000000000000000000000000000000000000000000001110000000000000110000000000001100000000000000000000000000000000000000000000000000001100000000011010000000001010001011110001000000000000000000000000000000000000000000000000000000000000000000000000000000000000000000001100000000000000000000000000000000000000000000000000000000000000000000000000000010001000000000000001111001100000000000000000000000000000000000000000000000000000000000000000000001100000000000000000000000000000000000000000000000000000011000000000000000000000000010000000000000000000111000000011000000000001110000000000000000000000000000000000000000000000000000000000000000000000011000000000000000000000000000000000000000000000000000000110000000000000000000000000100000000000000000011000000000000000000000000000000000000000000000000000000000000000000000000000000000000000000000000000000000000000000000000110000011000000000000000000001000000000000000011000000000001000000000000000000110000000000000000000000000000000000000000000000000000000000000000000000000000000000000000000000000000000000000000001100010010000110000000000000000000101000000000000000101000000000000000000000000000000000000000000000000000000000000000000000000000000000000000000000000000000000000000000000000000000000011000000000000011000010100000000000000000000000010010000000000000000100000000000000000000000000000000000000000000000000000000000000000000000000000000000000000000000000000000000011000000000000000111000110000000000000000000010000000000000000000000000100000000000000000000000000000000000000000000000000000000000000000000000000000000000000000000000000000000000000000000000000000001001000000000000001001000000000000000000000000000000000000000000000000000111000000000000000000000000000000000000000000000000000000000000000000000000000000000000000000000000000000000000000000000000000010010000000000000100000000000000000000000000000000000000000000000000110000010000000000000000000000000000000000000000000000000001000000000000000000000000000000000000000000000000000000000000110000000000011000000000000000001100000000000000000000000000000000000000000000001100000000000000000000000000000000000000000000000001100000010000000000000000000000000000000000000000000000000000000000001100000000000000000000000000100011000000000000000000000000000000000000000000000000000000000000000000000000000000001100000000000000011000000100000000000000000000000000000000000000000000000000000000000000000000000000000000000000001000000000000000000000000000000000000000000000000000000000000000000000000000000000000100100000000000000000000000000000000000000000000000000000000000000000000000000000000000000000000000000000000000000000100000000000000000000000000000000000000000000000000000010000000000000000000000000000110000000000000000000000000000000000000000000000000000000000000000000000000000000000000000000000000000000000000000001110000000000000000000000000100000000000000000001100010110000000000000000000000000000000000000000000000000000000000000000000000000000000000000000000000000000000000000000000000000000000000000000000000001100000010000000000000000010100000000000000000100010110100000000000000000000000000000000000000000000000000000000000000000000000000000000000000000000000000000000000000000000000000000000000000000000000011100000110001000000000000101000000000011100000001000010000000000000000000000000000000000000000000000000000000000000000000000000000000000000000000000000000000000000000000000000110000000000000000000000111000000001110000000000000100000000001000000000010000000000000000000000000000000000000000000000000000000000000000000000000000000000000000000000000000000000000000000000000000010010000000000000000000000110000010101000000000000000000000000010001000000000000000000000000000000110000000000000000000000000000000000000000000000000000000000000000000000000000000000000000000000000000011000000000000000000000001001000101010000000000000000000000000100001100000000000110000000000000010010000000000000000000000000000000000000000000000000000000000000000000000000000000000000000000000000000000000000000000000000000001001000000010000000000000000000000000100011000000000010100000000000000011000000000000000000000000000000000000000000000011100000000000000000000000000000000000000000000000000000000000000000000000001110000000000000000000000000000000000000000010000000000000001000000000000000000000000000000000000000000000000000000000010000000100000000000000000000000000000000000000000000000000000000000000000000000000000001100000000000000000110000000011000000100001000001101100000000000000000000000000000000000000000000000000000000001010100000100000000000000000000000000000000000000000000000000000000000000000000000000000101000000000000000010010000001001000000000010000011100000000000000000000000000000000000000000000000000000000000010100001000100000000000000000000000000000000000000000000000000000000000000000000000000010100000000000000000011000000001010000000100000000000000000000000000000000000000000000000000000000000000000000000011000101000010000000000000000000000000000000000000000000000000000000000000000000000000101000000000000000000000000000001000000011100000000000000000000000000000000000000000000000000000001100000000000000001000100000100000000000000000000001000000000000000000000000000000000000000000000000000100000000000000000000000000000000000000000000000000000000000000000000000000000000000000000000000011000000000000000001000000001000000000000000000000101000000000000000000000000000000000000000000000000000000000000000000000000000000000000000000000000000000000000000000000000000000000000000000000000000000000000000000000001000001000000000000000000000000100000000000000000000000000000000000000000001000000000000000000000000000000000000000000000000000000101100000000000000000000000000000000000000000000000000000000000000000001100100001110000000000000000000000000000000000000000000000000000000000001110000000000000000000000000000000000000000000000000000000001000000000000000000000000000000000000000000000000000000000000000000000000000000000000000000000000000000000000000000000000000000000000000001111101000000000000000000000000000000000110000000000000000001100000000000000000000000000000000000000000000000000000000000000000000000000010000000000000000000000000000000000000000000000000000000000000100100001100000000000000000000000000000010010001100000000000000000000000000011000000000000000000000000000000000000000000000000000000000000100000000000000000000000000000000000000000000000000000000000000010000011000000000000000000000000000000100100100100000000000000000000000000110000000000000000000000000000000000000000000000000000000000001000000000000000000000000000000000000000000000000000000000001101000000110000100000000000000000000000000110000110000000000000000000000000000000000000000000000000000000000000000000000000000000000000000000000000000000000000000000000000000000000000000000000000000011111101010000111100000000000000000000000000000000000000000000000000000000000000000000000000000000000000000000000000000000000000000000000110000000000000000000000000000000000000000000000000000000000000000001010000010000100000000000000000000000000000000000000000000000000000110000000000000000000000000000000000000000000000000000000000000001100000000000000000000000000000000000001000000000000000000000000000000100000111010000000000000000000000000000000000000000000000000000010010000000000000000000000000000000000000000000000000000000000000000000000000000000000000000000000000000101000000000000000000000000000000000000000000000000000000000000000000000000000000000000000000000100100000000000000000000000000000000000000000000000000000000000000000000000000000000000000000000000000001010000000000000000000000000000000000000000000000000000000000000001110000000000000000000000000000110000000000000000000000000000000000000000000000000000000000000000000000000000000000000000000000000000001000000000000000000000000000000000000000000000000000000000000000000000000000000000000000000000000000000000000000000000000000000000000000000000000000000000000000000000000000000000000000000000000000000000000000000000000000000000000000000000000000000000000000000000000000000000000000000000000000000000000000000000000000000000000000000000000000000000000000000000000000000000000000000000000000000000000000000000000000000000000000000000000000000000000000000000000000000000000000000000000000000000001100000000000000000000000000000000000000000011100000000000000000000000000000000000000000000000000000000000000000000000000000000000000001011000000000000000000000000000000000000000000000000000000000000100100000000000000000000000000000000000000001010110000000000000000000000000000000000000000000000000000000011100000000000000000000000000010110000000000000000000000000000000000000000000000000000000000000110000000000000000000000000000000000000000010000000000000000000000000000000000000000000000000000000000000000000000000000000000000000000001000000000000000000000000000000000000000000000000000000000000000000000000000000000000000000000000000000000011000101110000101000000000101000000000000111000000000000000000000000000000000000000000000110100000011000000000000000000000000000000000000000000000000000000000000000000000000000000000000000000000000000000001011111001010000000010010000000000000000000000000000000000000000000000000000000000010001100001101000000000000000000000000000000000000000000000000000000000000000000000000000000000000000000000000000110110001010010010000000100100000000001000001000000000000000000000000000000000000000000001011000001010000000000000000000000000000000000000000000000000000000000000000000000000000000000000000000000000000101000000000110100000010001000000000010000010000000000000000000000000000000000000000000001100000001100000000000000000000000001000000000000000000000000000000000000000000000000000000000000000000000000000100000000010001100000010100000000000100000100000000000000000000000000000000000000000000000000000000000000000000000000000000101000000000000000000000000000000000000000000000001110000000000000000000000000000000000101110000000010000000000000000000000000000000000000000000001000000000000000000000000000000000000000000000000000001001000000000000000000000000000000000000000000000000000000000000000000000000000000000000111000000000000000000000000111000000000000000000000000000101000000000000000000000000000000000000000000000000000001100000000000000000000000000000000000000000000000000000000000000000000000000000000000000000000000000000000000000000000000000000000000000000000000000000000000000000000000000000000000000000000000000000000000000000000000000000000000000000000000000000000000000000000000000000000000000000000000000000000000000000000000000000000000000000000000010000011011000000000000000000000000000000000000010000000000000000000000000000000000000000000100000000000000000000000000000000000000000000000000000000000000000000000000000000000000000000000000000100011010000101101000000000000000000000000000000000000100000000000000000000000000000111000000000001000000000000000000000000000000000000000000000000000000000000000000000000000000000000000000000000000001001100000101000100000000000000000000000000000000000001000000000000000000000000000010010000000000010000000000000000000000000000000000000000000000001010000000000000000000000000000000000000000000000010000000010011010000000000000000000000000000000000000000000000000000000000000000000000100010000000000000000000000000000000000000000000000001000000000001000000000000000000000000000000000000000000000100011000001000010100000000000000000000000000000000000001110001110000000000000000000000011001000000000000011100000000000000000000000000000000010000000000000000000000000000000000000000000000000001100010000011001000000011000000000000000000000000000000000000000000000000000000000000000100000001000000000000000000000000000010000000000000000000000100000000001100110000000000000000000000000000000000000000100100001110000000000000001000000011000000000000000000000000000000000000000000000010100000001100000000000000000000000001010000000000000000000000000000000100100000001100000000000000000000000000011000110001000000100000000001000001110000110000000000000000000000000000000000000000000000101000000011100000000000000000000000010100000000000000000000000000000011010000000011000000110000000000000000001111101000110000011000000000000000001100000000000000000000000000000000000000000000000000000100000000111000000000000000000000000010000000000000000000000000000000110010000000110000010010000000000000000110000010011100001101000000000000000000000000000000000000000000000000000000000000000000000000000000000000000000000000000000000000000000000000000000000000000000100111110000001100000011000000000000000000110000100000000001000000000001100010000000000000000000000000000100000000000000000000000000000000000000000000000000000000000000000000000000000000000000000000000101101000000010000000000000000000000000000110110000000000011000000000001011000000000000000000000000000001000000000000000000000000000000000001110000000000000000000000000000000000000000000000000000000001010000000000000000000000000000000000000001100000000000001110000000000011000000011000000000000000000000010000000000000000000000000000000000100010000000000000000000000000000000000000000000000000000000000000000000000010000000000000000000000000000000000000000011000000000000100000001001000000000000000000000000000000000000000000000000000000010000010000110000000000000000000000000000000000000000000000000000000000000000000000000000000000000000000000000000000000000000011000000000000001010000000000000000000000011100000000000000000000000000000100000100001100000000000000000000000000000000000000000000000000000000000000000000000000000000000000000000000000000000000000001001000000000000001000000000000000000000000000000000000000000000000000000001000001000000000000000000000000000000000000000000000000000000000000000000000000000000000000000000000000000000000000000000000001010000000000000000000000000000000000000000000000000000000000000000000000001000100000000000000000000000000000000000000000000000000000000000000000000000000000000000000000000000000000000000000000000000001000000000000000000000000000000000000000000000000000000000000000000000000001110000000000000000000000000000000000000000000000000000000010000000000000000000000000000000001100000000000000000000000000000000000000000000000000000000000000000000000000000000000000000000000000000000000000000000000000000000000000000000000000000000000000000001010000000000000000000000000000000011000000000000000000000000000000000000000000000000000000000000000000000000000000000000000000000000000000000000000000000000000000000000000000000000000000000000000000010100000000000000000000000000000000000000000000000000000000000000000000000000000000000000000000000000000000000000000000000000000000000000000000000000000000000000000000000000000000000000000000000000000010000000000000000000000000000000000000000000001100000000000000000000000000000000000000000000000000000000000000000000000000000000000000000000000000000000000000000000000000000000000000000000000000000000000000000000000000000000000000000000000000000011000000000000000000000000000000000000000000000000000000000000000000000000000000000000000000000000000000000000000000000000000000000000000000000000000000000000000000000000000000000000000000000000000000000000000000000000000000000000000000000000000000000000000000000000000000000000000000000000000000000000000000000000000000000000000000000000000000000000000000000000000000000000000000000000000000000000000000000000000000000011000000000000000000000000000000000000000000000000000000000000000000000000000000000000000000000000000000000000110000000000000000000000000000000000000000000000000000000000000000000000000000000000000000110000000000000000000000000000000000000000000000000000000000000000000000000000000000000000000000000000000000001100000000000000000000000000000000000000000000000000000000000000000000000000000000000000000000000000000000000000000000000010000000000000000000000000000000000000000000000000000000000000000000000000000000000000000000000000000000000000000000000000000000000000110000000000000000000000000000000000000000000000000000000000000001010000000000000000000000000000000000000000000000000000000000000000000000000000000000000000000000000000000000000000000000000000000000001010000000000000000000000000000000000000000000000000000000000000010100000000000000000000000000000000000000000000000000000000000000000000000000000000000000000000000000000000000011000000000000000000000001000000000000000000000000000000000000000000000000000000000000000010000000000000000000000000000000001100000000000000000000000000000000000000000000000000000000000000000000000001001000000001100000011000000000000000000000000000000000000000000000000001000000000000000000000000000000000000000000000000000011000000000000000000000000011000000000000000000100000000000000000000000000001100000000011000001001000000000000000000000000000000000000000000000000010000000000000110000000110000000000000000000000000000000000000000000000000000000110000000000000000001000000000000000000000000000000000000000000000010100000000000000000000000000000000000000000000000000100000000000001100000010010000000000000000000000000000000000000000000000000000000000000000000000000101000000000000000000000000000000000000000000000010000000000000000000000000000000000000000000000000000000000000000000000000011000000000000000000000000000000000000000000000000000000000000000000000000010000000000000000000000000000000000000000000000000000000000000000000000000000000000000000000000000000000000000000000000000000000000000000000000000000000000000000000000000000000000000000000000000000001000100000000000000000000000000000000000000000000000000000000000000000000000000000000110000000000000000000000000000000000000000000000000000000000000000000000000000000000000000000000000000000000000000010010000000000000000000000000000000000000000000000000000000000000000000000000000000010010000000000000000000000000000000000000000000000000000000000000000000000000000010000000000000000000000000000000000011100000000000000000000000000000000000000000000000000000000000000000000000000000000101000000000000000000000000000000000000000000000000000000000000000000000000000000100000000000000000000000000000000000000000000000000000000000000000000000000000000000000000000000000000000000000000000000100000000000000000000000000000000000000000000000000000000000000000000000000000001000000000000000000000000000000000000000000000000000000000000000000000000000000000000000000000000000000000000000000000000000000000000000000000000010000000000000000000000000001100110000000000000000000000000000000000000000000000000000000000000000000000000000000000000000001000000000000000000000000000000000000000000000000000000000000000000000000000100000000000000000000000000011001100000000000000000000000000000000000000000000000000000000000000000000000000000000000000000101000000000000000000000000000000000000000000000000000000001100000000000000001000000000000000000000001100000000000000000000000000000000000000000000000000000000000000000000000000000000000000000000000001010000110000000000000000000000000000000000000000000000000100100000000000000000000000000000000000000011000000000000100000000000000000000000000000000000000000000000000000000000000000000000000000000000001000010010000000000000000000000000000000000000000000000001010000000000000000000000000000000000000000000000000000010100000000000000000000000000000000000000000000000000000000000000000000000000000000000000000011000000000000000000000000000000000000000001000000001000000000000000000000000000000000000000000000000000000101000000000000000000000000000000000000000000000000000000000000000000000000000110000000000000000000000000000000000000000000000000000000101000000000000000000000000000000000000000000000000000000000000000100000000000000000000000000000000000000000000000000000000000000000000000000010010000000000000000000000000110000000000000000000000000000110000000000000000000000000000000010000000000000000000000000000000000000000000000011000000000000000000000000000000000000000000000001000000000100100000000000000000000000010100000000000000000000000000000000000000000000000000000000000000100000000000000000000000000000000000000000000000110000000000000000000000000000000000000000000000101000000000110000000000000000000000000010000000000000000000000000000000000000000000000000000000000000001000110000000000000000000000000000000000000000000000000000000000000000000000000000000000000000010010000000000000000000000000000000000000000000000000000000000000000000000000000000000000000000000000000000010010000000000000000000000000000000000000000000000000000000000000000000000000000000000000000011000000000010110100010000000000000000000000000000000000000000000000000000000000000000000000000000000000000101000000000000000000000000000000000000000000000000000000000000000000000000010000000000000000000000000011110000011010000000000000000000000000000000000000000000000000000000000000000000000000000000000000100000000000000000000000000000000000000000000000000000000000010000000000000100000000000000000000000001100001000010100000000001000000000000000000000000000000000000000000000000000000000000000000000000001000000000000000000000000000000000000000000000000000000000001000000000000001000000000000000000000000010000011000101010000000110000011000000000000000000000000000000000000000000000000000000000000000000011100000000000000000000000000000000000000000000000000000000001000000000000000000000000000000000000000001000111111000100000111100000110000000000000000000000000000000000000000000000000000000000000000001111100000000000000000000000000000000000000000000000000000001110000000001110001110000000000000000000000010000000000000000010001000000000000001100001110000000000000000000000000000000000000000000000000100000110010000000000000000000000000000000000000000000000001101100000000000000000000000000000000000000000010010101000010001001110000000000001110110100010000000001000000000000000000000000000000000000011001001100100000000000000000000000011100000000000000000000000000000000110000001000100000000000000000000000000101000000100011111000000000000011111000010010000000101000000000000000000000000111000000001110101011010000000000000000000000000000000000000000000000001010110000001100000100000100000000000000000000000000110110110000000000000000000001000000000000000000001010000000000000000000000001111000000001100100110000100000000000000000000000000000000000000000000110001100000000000000000000100000000000000000000000100011111000000000000000000000001000010000010001000001000000000000000000000000000011000000001000001000010100000000000000000000000000000000000000000000110000000000000000000001000100000000000000000000001111100011000000000000000000000000000001000100010000000000000000000000000001100110100000000001111100001001000000000000000000000000000000000001110000000100000000000000000100101001000000000000110000000001010000000000000000100000001000000000010011110110000000000000000000000000000001110000000000001110000001100000000000000000000000000000000000101001000000000000001000000001000100010000000000010010000000000000100010000000001100000111000000001110000000000000000000000000000000000000011000000000000001000000000000000000000000000000000000000000001010101100000001000011000000001000001000000000000100100110001100001000000000000001100001001000000011000000000000000000000000000000000000000000000000000000000000000000000000000000000000000000000000000011110000111100110000111000000001000100000000000000110001100100100010001100000100001100000011000000000000000000000000000000000000000000000000000000000000000000000000000000000000000000000000000000000000010000000000100101111000000000001110000000000000000000000000101000011010000001000100000001100000000000000000000000000001000000000000000000000000000000000000000000000000000000000000000000000000000000000011100000000000001100000000000000000000000000000000000000000100000000000000010100000000010000000000000000000000000000101000000000000000000000000000000000000000000000000000000000000000000000000000000000001000000001000011000000000000000000000000000000000000000000000000000000000010000000000000000000000000000000000000001010000000000000000000000000000000000000000000000000000000000000000000000000000000000000001010110000000000000000000000000000000000000000000000000001100000000000000000000000000000000000000000000000000001000000000000000000000000000000000000000000000000000000000000000000000000000000000000000001000000000000000000000000000000000000000000000000000000011000000000000000000000000000000000000000000000000000000000000000000000000000000000000000000000000000000000000110000000000000000000000000000000000000000000000000000000000000000000000000111000000000000000000000000000000000000000000000000000000000000000000000000000000000000000000000000000000000000000000000000001100000000000000000000000000001000000110000000000000000000000000000000000000000000000000000000000000000000000000000000000000000000000000000000000000000000000000000000000000001110000000000000000000000000000000000000000000000000000010000001100000000000000011000000000000000000000000000000000000000000000000000000000000000000000000000000000000000000000000000000000000000000000000000000000000000000000000000000000000000000000000000000100000000000000000000001001000000001100000000000000000000000000000000000000000000000000000000000000000000000000000000000000000000000000000000000000000000000000000000000000000000000000000000000000000000000000000000000000000010010000000101000000000000000000000000000000000000000000000000000000000000000000000000000000000000000000000000000000000000000000000000000000000000000000000000000000000000000000000000000000000000000000011000000000100000000000000000000000000000000000000000000000000000000000000000000000000000000000000000000000000000000000000000000000000000000000000000001100000000000000000000000000000000000000000000000000000000000000000000000000000000000000000000000000000000000000000000000000000000000000000000000000000000000000000000000000000000000000000110000000000100100000000000000000000000000000000000000000000000000000000000000000000100000000000000000000000000000000000000000000000000000000000000000000000000000000000000000000000000000000000000000001100000000000110000000000000000000000000000000000000000000000000000000000000000000010100000000000000000000000000000000000000000000000000000000000000000000000000000000000000000000000000000000000000000000000000000000000000000000000000000000000000000000000000000000000000000000000000001010000000000000001100000000000000000000000000000000000000000000000000000000000000000000000000000000000000000000000000000000000000000000000000000000000000000000000000000000000000000000000000000000000101000000000000000010100000000000000000000000000000000000000000000000000000000000000000000000000000000000000000000000000000000000000000000000000000000000000000000000000000000000000000000000000000000000100000000000000000100000000000000000000000000000000000000000000000000000000000000000000000000000000000000000000000000000000000000000000000000000000000000000000000000000000000000000000000000000000000000000000000000000000000100000000000000000000000000000000000000000000000000000000000000000000000000001110000000000000000000000000000000000000000000000000000000000000000000000000000000000000000000000000000000000000000000000000100000000000000000000000000000000000000000000000000000000000000000000000000000000000000000000000000000000001000000000000000000000000000000000000000000000000000000000000000000000000000000000000000011001000000000000000000000000000000000000000000000000000000000000000000000000000000000000000000000000000000000101000000000000000000000000000000000000000000000000000000000000000000000000000000000000000011100000000000000000000000000000000000000000000000000000000000000000000000000000000000000000000000000000000001010000000000000000000000000000000000000000000000000000000000000000000000000000000000000000010000000000000000000000000000000000000000000000000000000000000000000000000000100000000000000000000000000000001000000000000000000000000000000000000000000000000000000000000000000000000000000000000000000000000000000000000000000000000000000000000000000000000000000000000000000000001000000000000000000000000000000000000000000000000000000000000000000000000000110000000000000000000000000000000000000000000000000000000000000000000000000000000000000000000000000000000000000000000000000010000000000000000000000000000000000000000000000011000001000000000000000000001100000000000000000000000000000000000000000000000000000000000000000000000000000000000000000000000000000000000000000000000000000000000000000000000000000000000000000000000000110000010000000000000000000000000000000000000000000000000000000000000000000000000000000000000000000000000000000000000000000000000000000000000000000000000000000110000000000000000000000011000000000000000000000100000000000000000000000000000000000000000000000000000000000000000000000000000000000000000000000000000000000000000000000000000000000000000000000000000001010000000000000000000000110000000000000000000000000000000000000000000000000000000000000000000000000000000000000000000000000000000000000000000000000000000000000000000000000000000000000000000000000000001100000000000000000000000000000000000000000000000000000000000000000000000000000000000000000000000000000000000000000000000000000000000000000000000000000000000000000000000000000000000000000000000000000000000000000000000000000000000000000000000000000000000000000000000000000000000000000000000000000000000000000000000000000000000000000000000000000000000000000000000000000000000000000