P1
200 200
0000000000000000000000000000000000000000000000000000000000000000000000000000000000000000000100000000000000000000100000000000000000000000000000000000000000000000000000000000000000000000010000000000000000000000000000000000000000000000000000000000000000000000000000000000000000000000000000000011110000000000010000010100000000000000000000000000000000000000000000000000000000000000000000001010000000000000001000000000000000000000000000000000000000000000000000000000000000000000000000000000000000100010000000001010000100100000000000000000000000000000000000000000000000000000000000000000000010100000000000000010000000000000000000000000000000000000000000000000000000000000000000000000000000000000000000100000000011000000110000000000000000000000000000000000000000000000100000000000000000000000010000000000000001100000000000000000000000000000000000000000000000000000000000000000000000000000000000000001011000000000000000000000000000000000000000000000000000000000011100010100000000000000000000000000001000000000000000000000000000000000000000000000000000000000000000000000000000000000000000011000000000111000000000000000000000000000000100000000000000000000000000000000000100100000000000000000000000000100111000001100111000000000000000000000000000000000000000000000000000000000000000000000000110000000001110000000000000000000000000000011100000000000000000000000000000000000110000000000000000000000000000100001000000000000000000000000000000000000000000000000000000000000000000000000000000000000000000000000000000000000000000000000000001111100000000000000000000000000000000000000000000001100000000000000000100010000011000000000000000000000000000000000000000000000000000000000000000000000000000000000000000000000000000000000000000000000110001100000000000000000000000000000000000000000000011000000000000000000111000000010000000000000000000000000000000000000000000000000000000000000000000000000000000000000000000000000000000000000000000000111110000000000000000000000000000000000000000000000000000000000000000000000000000100000000000000000000000000000000000000000000000000000000000000000000000000000000000000000000000000000000000000000000000111000000000000000000000000000000000000000000000000000000000000000000000000000000000000000000000000000000000000000000000000000000000000000000000000000000000000000000000000000000000000000000000000000000100000000000000000000000000000000000000000000000000000000000000000000000000000000000000000000000000000000000000000000000000000000000000000000000000000000000000000000000000000000000000000000000000000000000000000000000000000000000000000000000000000000000000000000000000000000000000000000000000000000000000000000000000000000000000000000000000000000000000000000001000000000000000000000000000000000000000000000000000000000000000000000000000000000000000000000000000000000000000000000000000000000000000000000000000000000000000000000000000000110000000000000000000000111000000000000000000000000000000000000000000000000000000000000000000000000000000000000000000010000000000000000000000000000000000000000000000000000000000000000000000000000000010010000000000000000000010101000000000000000000000000000000000000000000000000000000000000000000000000000000000000000010010000000000000010000000000000000000000000000000000000000000000000000000000000000101000000000000000000001110111000000000000000000000000000000000000000000000000000000000000000000000000000000000000001000000000000001111010000000000000000000000000000000000000000000000000000000000000000100000000000000000000001010100000000000000000000000000000000000000000000000000000000000000000000000000000000000000010000100000000000010000000000000000000000000000000000000000000000000000000000000000000000000000000000000000001110000000000000000000000000000000000000000000000000000000000000000000000000000000000000000100000000000000001001110000000000000000000000000000000000000000000000000000000000000000000000000000000000000001000000000000000000000000000000000000000000000000000000000000000000000000000000000000000000110001000000011011110000000000000000000000000000000000000000000000000000000000000000000000000000000000000000000000000000000000000000000000000000000000000000000000000000000000000000000000000000000000001000000100000000000000000000000000000000000000000000000000000000000000000000000000000000000000000000000000000000000000000000000000000000000000000000000000000000000000000000000000000000000000000000110000011001000000000000000000000000000000000000000000110000000000000000000000000000000000000000000000000000000000000000000000000000000000000000000000000000000000000000000000000000000000000000000000001010000010001000000000000000000000000000000000000000001100000000000000000000000000000000000000000000000000000000000000000000000000000000000000000000000000000000000000000000000000000000000000000000000000110000010100000000000000000000000000000000000000000110000000000000110000000000000000000000000000000000000000000000000000000000000000000000000000000000000000000000000000000000000000000000000000000000000000001001000000000000000000000000000000000000000011000000000000010010000000000000000000000000000000000000000000000000000000000000000000000000000000000000000000000000000000000000000000000000000000000000000010000000000000000000010000000000000000000000110000000000000100100000000000000000000000000000000000000000000000000000000000000000000000000000000000000000000000000000000000010000000000000000000000000001100000000000000000001010000000000000000000000000000000000000110000000000000000000000000000000000000000000001010000000000000000000000000000000000000000000000000000000000001010000000000000000000000010000000000000000000000010100000000000000000000000000000000000000000000000000000000000000000000000000000001000010010000000000000000000000000000001000000000000000000000000000110110000000000000000000000110000000000000000000000010000000000000000000000000000000000110000000000000000000000000000000000000000000101000101000000000000000000000000000000101000000000000000000000000011010000000000000000000000110001000000000000000000000000000000000000000000000000000000001100000000000000000000000000000000000000000010010000000000000000000000000000000000001010000000000000000000000000100100000000000000000000010000001000000000000000000000000000000000000000001100000000000000000000000011000000000000000000000000000000011000000000000000000000000000000000000001000000000000000000000000000001000111000100000000000000000010000000000000000000000000000000000000000011000000000000000000000001001000000000000000000000000000000000000000000000000000000000010000000000000000000000000000000000000001110111000011100000000000100000100000000000000000000000000010000000000000010000000000000000000000010100000000000000000000000000000000000000000000000011000000011010000000000000000000000000000000000000010010100000001000000000000000000000000000000000000000000001010000000000000000000000000000000000000010000000000000000000000000000000000000000000000001001000001000100000000000000000000000000000000000000011000001011000000000000000111000000000000000000000000000010010000000000000000000000000000000000000000000000000000000000000000000000000000000000000001100000110000000000000000000000000000000000000000000000000000101110000000000000000000000000000000000000000000011000000000000000000000000000000000000000000000000000000000000000001000000000000000000000000000000101110000000000000000000000000000000000000001000100000111100000000000000000000000000000000000000000000000000000000000000000000000000000000000000011000000000000000000000010000000000000000000000000000001000010000000000000000000000000000000000000010000011101011000000000000000000000000000000000011100000000000000000000000000000000000000000000000000110000000000000000000000100000000000000000000000000000001100100000000000000000000000000000000000001010000011100000000000000000000001110000000000001001000000000000000000000000000000000000000000000000000000000000000000000000000000000000000000000000000000000001111000000000000000000000000000000000000111011010000000000000000110000000000000000000000010001000000000000000000000000000000000000000010000000000000000000000000000000000000000000000000000000000000000000000000000000000000000000000000000000000000000000000000000000010000000000000000000000001100100000000000000000000000000000000000000001010000000000000000000000000000000000000000000000000000000000000000000000000000000000000000000000000000000000000000000000000000000101100000000000000000000000100000000000000000000000000000000000000000010010000000000000000000000000000000000000000000000000000000010000000000000000000000000000000000000000000000000000000000000000000110110000000000000000000000000110000000000000000000000000000000000011000011000000000000000000000000000000000000000000000000000000000100000000000000000000000000000000000000000000000000000000000000000010010000000000000000000000000001110000000000000000000000000000000000110000000000000000000000000000000000000000000000000000000000000001000000000000000000000000000000000000000000000000000000000000000000101100000000000000000000000000011100000000000000000000110000000000000000000000000000000000000000000000000000000000000000000000000000000000000000000000000000000000000000000000000000000000000000000000000010000000000000000000000000000000000000000000000000011000000000000000000000000000000000000000000000000000000000000000000000000000000000000000000000000000000000000000000000000000000000000000000000000000000000000000000000000000000000000000000000000000000011100000000000000000000000000110000000000000000000000000000000000000000000000000000000000000000000000000000000000000000000000000000000000000000000000000000000000000000000000000000000000000000000000000011000000000000000000000000000000000000000000000000000000000000000000000000000010000000000000000000000000000000000000010000000000000000000000000000000000000000000000000000000000000000000000000000000000011000000000000000000000000000000000000000000000000000000000000000000000000000100000000000000000000100000000000000001110000000000000000000000000000000000000000000000000000000000000000000000000000000000011000100000000000000000000000011000000000000000000000000000000000000000000001000000000000000000010100000000000000111110000000000000000000000000000000000000000000000000000000000000000000000000000000000001100100000000000000000000000000000000000000000000000000000000000000000000000000000000000000000100100000000000011000110000000000000000000000000000000000000000000000000000000000000000000000000000000000100011100000000000000000000000000000110000000000000000000000000000000000000000000000000000110000110000000000001100000110000000000000000000000000000000000000000000000000000000000000000000000000000000100000000000000000000000110000000000001100000000000000000000011000000000000000000000000000001100000000000000000001100011000000000000000000000000000000000000000000000000000000000000000000000000000000000100001000000000000000001100000000000000000000000000000000100010000000000000000000000000000000000000000000000000001000100000000000000000000000000000000000000000000000000000000000000000000000000000000001111100000000000000000000000000000000000000000000000000010000100000000000000000000000000000000000000000000000000000000000000000000000000000000000000000000000000000000000000000000000000000000000000000000111000000000000000000000000000000000000000000000000000100100000000000000000000001110000000000000000000100000000000000000011000000000000000000000000000000000000000000000000000000000000000000000000000000000000000000000000000110000011000000000000000000000000100000000000000000000000000000000000000000000011100000000000000001111000000000000000000000000000000000000000000000000000000000000000000000000000000000000000000001100010010000110000000000000000000000000000000000000000000000000000000000000000000001111100000000000000000000000000000000000000000000000000000000000000000000000000000000000000000000000000000000000000011000010100000000000000000000000000000000000000011110010100000000000000000000000000000001100000000000000000000000000000000000000000000000000000000000000000000000011000000000000000000000111000000000000000000010000000000000000000000000000000000000001001110001000000000000000000000000000000011100000000000000000000000000000000000000000000000000000000000000000000001001000000000000000000001110000000000000000000000000000000000000000000000000000000000000001000000000000000000000000000000000000000000000000001000000000000000000000000000000000000000000000000000000000010010000000000000000001000001000000000000000000000000000000000000000000000000000000000100101110000000000000000000000000000000000000000000000111000000000000000000000000000000000000000000000110000000000011000000000000000000010101010000000000000000000000000000000000000000000000000000000000000000000000000000000000000000001100000000000000000010101000000000000000000000000000000000000000000001100000000000000000000000000000000000000000000000000000000000000000000000000000000000000000000000000000000000000001100000000000000011000000000000000000100011000000000000000000000000000000000000000000000000000000000000000000000000000000101010100000000000000000000000000000000000010000000000000000000000000000000000100100000000000000000000000000000000001100100000000000000000000000000000000000000000000000000000000000000000000000000000001000001000000000000000000000000000000000100001000000000000000000000000000000000110000000000000000000000000000000000001110000000000000000000000000000000000000000000000000000000000000000000000000000000000111000000000000000000000000000000000001000001000000000000000000000000000000000000000000000000000000000000000000000001000000000000000000000000000000000000000000000000000000000000000000000000000000000001110000000000000000000000000000000000010000100000000000000000000000000000000000000000000000000000000000000000000000000000000000000000000000000000000000000000000000000000000000000000000000000000000000000000000000000000000000000000000000000000100000000000000000000000000000000000000000000000000000000000000000000000000000000000000000000000000000000000000000000000000000000110000000000000000000000000000000000000000000000000000000000000000000000000011100000000000000000000000000000000000000000000000000000000000000000000000000000000000000000000000000000000000000000000000010010000000000000000000000000000000000000000000000000000000000000000000000001001000000000000000000110000000000000000000000000000000000000000000000000000000000000000000000000000000000000000000000000000011000000000000000000000000000000000000000000000000000000000000000000000000100010000000000000000010010000000000000000000000000000000000000000000000000000000000000000000000000000000000000000000000000000000000000000000000000000000000000000000000000000000000000000000000000000001000000000000000000000011000000000000000000000000000000000000000000000000000000000000000000000000000000000000000000000000000000000000000000000000000000000000000000000000000000000000000000000000000000010001000000000000000000000000000000000000000000000000000000000000010000000000000000000000000000000000000000000000000000000000000000000000000000000000000000000000000000000000000000000000000000000000000010010000000000000000000000000000000000000000000000000000000000001010000000000000000000000000000000000000000000000000000000000000000000000000000000000000000000000000000000001110000000000000000000000000011100000000000000000000000000000000000000000000000000000000000010100000000000000000000000000000000000000000000000000000000000000000000000000000000000000000000000000000000100100000000000000000000000000000000000000000000000000000000000000000000000000000000000000000010000000001000000000000000000000000000000000000000000000000000000000000000000000000000000000000000000000011011000000000000000000000000000000000000000000000000000000000000000000000000001100000000000000000000001111100000000000000000000001000000000000000000000000000000000000000000000000000000000000000000001001000000000000000000000000000000000000000000000000000000000000000000000000000011000000000000000000000011011100000000000000000000101000000000000000000000000000000000000000000000000000000000000000000001010000000000000000000000000000000000000000000000000000000000000000000000000000000000000000000000000000110010000000000000000000000100000000000000000000000000000000000000000000000000000000000000000000001000000000000000000000000000000000000000000000000000000000000000000000000000000000000000000000000000000111000000000000000000000000000000000000000000000000000000000000000000000000000000000000000000000000000000000000000000000000000000000000000000000000000000000000000000000000000000000000000000000000000000100000000000000000000000000000000000000000000000000000000000000000000000000000000000000000000000000000000010000000000000000000000000101000000000000000000000000000000000000000000000000000000000000000000000000000000000000011000000000000000000000000000000000000000000000000000000000000000000000000000000000000100001100000000000000000001100000011000000000000000000000000000000000000000000000000000000000000000000000000000001001100000000000000000000000000000000000000000000000000010000000000000000000000000000001000100100000000000000000001000000110000000000000000000000000000000000000000000000000000000000000000000000000000010011000000000000000000000000000000000000000000000000001110000000000000000000000000000000000110000000000000000000000000000000000000000000000000000000000000000000000000000000000000000000000000000000000011000000000000000000000000000000000000000000000000000110100000000000000000000000000000000000000000000000000111000000000000000000000000000000000000000000000000000000000000000000000000000000000000001100000000000000000000000000000000000000000000001000000001000000000000000000000000000000000000000000000000000000000000110000000000000000000000000000000000000000000000000000000000000000000000000000000100000000000000000000000000000000000000000000000101000001110000000000000000000000000000000000000000000000000000000000010010000000000000000000000000000000000000000000000000000000000000000000000000000000110000000000001000000000000000000000000000000010010000000000000000000000000000000000000010000000000000000000000000000100100000000000000000000000000000000000000000000000000000000000000000000000000000000000000000000111000011100000000000000000000000011000000000000000000000000000000000000000100000000000000000000000000000110000000000000000000000000000000000000000000000000000000000000000000000000000000000000000000010101000110100000000000000000000000000000000000000000000000000000000000000001000000000000000000000000000000000000000000000000000000000000000000000000000000000000000000000000000000000000000000000000001110111000000010000000000000000000000000000001000000000000000000000000000000000000000000000000000000000000000000000000000000000000000000000000000000000000000000000000111000000000000000000000000000000001010100001000100000000000000000000000000000101000000000000000000000000000000000000000000000000000000001100000000000000000000000000000000000000000000000000000000000001110000000000000000000000000000000001110000100010000000000000000000000000000000110000000000000000000000000000000000000000000000000000000100100000000000000000000000000000000000000000110000000000000001000011000000000000000000000000000000001000000001000000000000000000000000011100000000000000000000000000000000000000000000000000000000000000110000000000000000000000000000000000000000010010000000000000010101110000000000000000000000000000000000000011100000000000000000000000000000000000000000000000000000000000000000000000000000000000000000000000000000000000000000000000000000000000000010100000000000000110001000000000000000000010000000000000000000000000000000000000000000000000001100000000000000000000000000000000000000000000000000000000000000000000000000000000000000000000000000000000010000000000000000010100000000000000000001110000000000000000000000000000000000000000000000100001000000000000000000000000000000000000000000000000000000000000000000000000000000000000000000000000000000000000000000000000000101000000000000000000101010000000000000000000000000000000000000000000000000010000000000000000000000000000000000000000000000000000000000000000000000000000000000000000000000000000000000000000000000000101000000000000000000011101110000000000000000000000000110000000000000000001001000000000000000000000000000000001000000000000000000000000000000000000000000000000010000000000000000000000000000000000000001100000000000000000000010101000000000000000000000000001100000000000000000001000000000000000000000000000000000101000000000000000000000000000000000000000000000000100000000000000000000000000000000011100000000000000000000000000011100000000000000000000000000000000000000000000000000000000000000000000000000000000001001000000000000000000000000000000000000000000000001000000000000000000000000000000000111000000000000000000000000000010000000000000000000000000000000000000000000000000000000000000000000000000000000000001100000000000000000000000000000000000000000000000000000000000000000000000000000000001001000000000000000000000000000000000000000000000000000000000000000000000000000000000000000000000000000000000000000000000000000000000000000000000000000000000000000000000000000000000000000000000000000000001000000000000000000000000000000000000000000000000000000000000000000000000000000000000000000000000000000000000000000000000000000000000000000000000000000000000000000000000000000000000000000000000000001100000000000000000000000000000000000000000000000000000000000000000000000000000000000000000000000000000000000000000000000000000000000000000000000000000000000000000010000000000000000000000000000000000000000000000000000000000000000000000000000000000000000000000000000000000000000000000000000000000000011100000000000000000000000000000000000000000000000000000000000000100000000000000000000000000000000000000000000000000000000000000000000000000000000000000000000000000000000000000000000000000000000000001000100000000000000000000000000000000000000000000000000000000000000000000000000000000000000000000000000000000000000000000000000000000000000000000000000000000000000000000000000000000000000000000000000010001000000000000000000000000000000000000011011000000000000000000000000000000000000111000000000000000000000000000000000000000000000000000000000000000000000100000000000000000000000000000000000000000000100010000000000000000000100000000000000001100110000000000000010000000000000000000000000000000000000000100000100000000000000000000000000000110000000000000011100000000000000000011000000000000000000000000111000000000000000000010100000000000001101010000000000000001010000000000000000000000000000000000000001000001000000000000000000000000000010010000000000000101100000000000110000110000000000000000000000000000000000000000000000101000000000000011100000000000000000010100000000000000000000000000000000000000010000010001100000000000000000000001101100000000000000001100000000001100000000000000000000000000000000000000000000000000000100000000000000000000000000000000000010000000000000000000000000000000000000000000000000100100000000000000000000000100000000000000010110000000000000000000000000000000000000000010000000000000000000000000000000000000000000000000000000000000000000000000000000000000000000000000011100011100000110000000000000000000000000000000000000000111000000000000000000000000000000000000000001110000000000000000000000000000001100000000000000000000000000000000000000000000000000000000000000000000000000000000000000000000000000000000000000000000000000100000000000000000000000000000000000000000110110000000000000000000000000000011000000000100000000000000000000000000000000000000000000000000000000000100000000000000000000000000000000000000000000110000000000000000000000011000000000000000000000000111000000000000000000000000000000000000000011100000000000000000000000000000000000000000000000000000000001000000000000000000000000000000000000000000001100000000000000000000001001000000000000000000000000100000000000000000000000000000000000000001000100000000000000000000000000000000000000000000000000000000010000000000000000000000000000000000000000000000000000000000000000000001010000000000000000000000000000000000000000000000000000000000000000001100100000000000000000000000000000000000000000000000000000000000000000000000000000000000000000000000000000000000000000000000000000001000000000000000000000000000000000000000000000000000000000000000000001010000000000000000000000000000000000000000000000000000000000000000000000000000000000000000000000000000000000000000000000000000000000000000000000000000000000000000000000000000000000000000000000000000001100000000000000000000000000000000000000000000000000000000000000000000000000000000000000000000000000000000000000000000000000000000000000000000000000000000000000000000000000000000000000000000000000000000000000000000000000000000000000000000000000000010000000000000000000000000000000001100000000000000000000000000000000000000000000000000010000000000000000000000000000000000000000000000000000000000000000000000000000000000000000000000000000000000000001010000000000000000000000000000000011000000000000000000000000000000000000000000000000000010000000000000000000000000000000000000000000000000000000000000000000000000000000000000000000000000000000000000010100000000000000000000000000000000000000000000000000000000000000000000000000000000000000000000000000000000000000000000000000000000000000000000000000000000000000000000000000000000000000000000000000000010000000000000000000000000000000000000000000001100000000000000000000000000000000000000000000000000000000000000000000000000000000000000000000000000000000000000000000000000000000000000100000000000000000000000000000000000000000000000000011000000000011000000000000000010000000000000000001000000000000000000000000000000000000000000000000000000000000000000000000000000000000000000000000000100000000000000000000000000000000000000000000000000110000000000000000011000000001010000000000000000001000000000000000000000000000000000000000000000000000000000000000000000000000000000000000000000110001000000000000000000000000000000000000000000000000001000000000000000010000100000010100000000000000000000000000000000000000000000000000000000000000000000000000000000000000000000000000000000000000011100100000000000000000000000000000000000000000000000000000001100000000000100001000000010000000000000000000000000000000000000000000000000000000000000000000000000000000000000000000000000000000000000001110000000000000000000000000000000000000000000000000000000000011100000000001000010000000000000000000000000000000000000000000000000000000000000000000000000000000000000000000000000000000000000000000000110001100000000000000000000000000000000000000000000000000110000110000000000000110000000000000000000000000000000000000000000000000000000000000000000000000000000000000000000000000000000000000000000000000111110000000000000000000000000000000000000000000000000001010011000000000000000000000000000000000000000000000000000000000000000000000000000000000000000000000000000000000000000000000000000000000100000000111000000000000000000000000000000000000000000000000000001000000000000000000000000000000000000000000000000000000000000000000000000000000000000000000000000001100000000000000000000000000000000010100000000100000000000000000000000000000000000000001100000011000000000000000000000000000000000000000000000000000000000000000000000110000000000000000000000000000000011000000000000000000000000011000000101000011000000000000000000000000000000000010000000011000001001000000000000000000000000000000000000000000000000111000000000000000010010000000000000000000000000000000000000000000000000000000000110000000100001001000000000000000000000000000000001010000000000000010100000000000000000000000000000000000000000000000000000000000000000001101100000000000000000000000000000000000000000000000000000000000000000000000001100000000000000000000000000000000000010000000000000010000000000000000000000000000000000000000000000000000000000000000000010010000000000000000000000000000000000000000000000000000000000000000000000000000000000000000000000000000000000010000100000000000000000000000000000000000000000000000000000000000000000000000000000000000011000000000000000000000000000000000000000000000000000000000000000000000000000000000000000000000000000000000000100101000000000000000000000000000000000000000000000000110000000000000000000000000000000000000000000000000000000000000000000000000000000000000000000000000000000000000000000000000000000000000000000000000010110111000000000000000000000000000000000000000000010010000000000000000000000000000000000000000000000000000000000000000000000000000000000000000000000000000000000000000001000000000000000000000000000001101001100000000000000000000000000000000000000000000101000000000000000000000000000000000000000000000000000000000000000000000000000001110000000000000000000000000000000000101000000000000000000000000000001100010000000000000000000000000000000000000000000000100000000000000000000000000000000110000000000000000000001000000000000000000000000000000000000000000000000000000000000100000000000000000000000000000011011000000000000000000000000000000000000000000000000000000000000000000000000000000001100000000000000000000101100000000000000000000000000000000000000000000000000000000000000000000000000000000000000000001100000000000000000000000000000000000000000000000000000000000000000000000001110000000000000000000000000010001000000000000000000000000000000000000000000000000000000000000000000000000000000000000000000000000000000000000000000000000000000000000000000000000000001100000000000000000000000000000000000000001100010010000000000000000000000000000000000000000000000000000000000000000000000000000000000000000000000000110000000000000000000000000000000000000000000000000100100000000000000000000000000000000000000011000000000000100000000000000000000000000000000000000000000000000000000000000000000000000000000000000000010010000000000000000000000000000000000000000000000001010000000000000000000000000000000000000000000000000000010100000000000000000000000000000000000000000000000000000000000000000000000000000000000000000011000000000000000000000000000000000000000001000000001000000000000000000000000000000000000000000000000000000101000000000000000000000000000000000000000000000000000000000000000000000000000110000000000000000000000000000000000000000000000000000000101000000000000000000000000000000000000000000000000000000000000000100000000000000000000000000000000000000000000000000000000000000000000000000010010000000000000000000000000110000000000000000000000000000110000000000000000000000000000000000000000000000000000000000000000000000000000000011000000000000000000000000000000000000000000000001000000000100100000000000000000000000010100000000000000000000000000000000000000000000000000000000000001110000000000000000000000000000000000000000000000110000000000000000000000000000000000000000000000101000000000110000000000000000000000000010000000000000000000000000000000000000000000000000000000000000000000110000000000000000000000000000000000000000000000000000000000000000000000000000000000000000010010000000000000000000000000000000000000000000000000000000000000000000000000000000000000000000000000000000010010000000000000000000000000000000000000000000000000000000000000000000000000000000000000000011000000000000000000000000000000000000000000000000000000000000000000000000000000000000000000000000000000000101000000000000000000000000000000000000000000000000000000000000000000000000000000000000000000000000000000000000000000000000000000000000000000000000000000000000000000000000000000000000000000000000000000100000000000000000000000000000000000000000000000000000000000000000000000000000000000000000000000000000000000000000000000000000000000000000000000000000000000000000000000000000000000000000000000000011000000000000000000000000000000000000000000000000000000000000000000000000000000000000000000000000000000001100000000000000000000000000011000000000000000000000000000000000000000000000000000000000000000110000000000000000000000000000000000000000000000000000000000000000000000000000000100000000000000000000000100100000000000011010000000000110000000000000000110110000000000000000000000000000000000000000000000000000000000000000000000000000000000000000000000000000000000000000000000000011100000000000000000000000101000000000010100110000000000000000000000000001000100000000000000000000000000000000000000000000000000000110000000000000000000000000100000000000000000000000000000000000000001011000000000000000000000000100000000001101101110000000000000000000000000010001000000000000000000000000000000000000000000000010000001100000000000000000000000001000000000000000000000000000000000000000110011000000000000000000000000000000000000001010000000000000000000000000000010100000000000000000000000000000000000000000000000110000000000000000000000000000000010000000000000000000000000000000000000000111100000000000000000000000000000000000000000100000000000000000000000000000010000000000000000000000000000000000000000000000000010000000100000000000000000000000000000000000000000000000000000000000000000111000000000000000000000000000000000000000000000000000000000000011000000000000000000000000000000000000000000000000000000000001100000010100000000000000000000000000000000000000000000000000000000000000000000000000000000000000000000000000000000000000000000000000000000011011100000000000000000000000000000000001100000000000000000011100001001000000000000000000000000000000000111000000010000000000000000000000000000000000000000110000000000000000011010000000000000000000000101000100000000000000000000000000000000011000000000000000000100000001100000000000000000000000000000000001010000001110000000000000000000000000000000000000010010000000000000000100100000000000000000000011011110000000000000000000000000000000000000000000000000000110010000000000000000000000000000000000000000100000000110110000000000000000000000000000000000000100100110001100000000111000010000000000000000111000000000000000000000000000000000000000000000000000000011111000000000000000000000000000000000000000001000100001010100000000000000000000000000000000000000110001100100100000000110001010000000000000000000000000000000000000000000000000000000000000000000000001111000000000000000000000000000000000000000000010000000001110000000000000000000000000000000000000000000000000101000000001100010100000000000000000001100000000000000000001000000000000000000000000000000101000000000000000000000000000000000000000000000000000000000000000000000000000000000000000000000000000000000000100000000111000010000000000000000000100100000000000000000101000000000000000000000000000001010000000000000000000000000000000000000000000000000000000111000000000000000000000000000000000000000000000000000000000001000000000000000000000000000001000000000000000001010000000000000000000000000000001000000000000000000000000000000000000000000000000000000010101000000000000000000000000000000000000000000000000000000001110000000000000000000000000011100000000000000000001000000000000000000000000000000000000000000000000000000000000000000000000000000000000000110110000000000000000000000000000000000000001000000000000000010000000000000000000000000000000000000000000000000000000000000000000000000000000000000000000000000000000000110000000000000000000000000000000111000000000000000000000000000000000000000010000000000000101100000000000000000000000000000000000000000000000000000000000000000000000000000000010000000000000000000000001100000000000000000000000000000000100000000000000000000000000000000000000000100000000000001110000000000000000000001110000000000000000000000000000000000000000000000000000000000100000000000000000000000000000000000000000000000000000000000000000000000000000011000000000000000000000000000000000001000000000000000000000100010000000000000000000000000000000000000000000000000000000001000000000000000000000000000000000000000000000000000000000000000000000000000001001000000001100000000000000000000000000000000000000000000001000100000000000000000000000000000000000000000000000000000000000000000000000000000000000000000000000000000000000000000000000000000011000000010010000000101000000000000000000000000000000000000100000000010001000000000000000000000000000000000000000000000000000000000000000000000000000000000000000000000000000000000000000000000000000001111100000011000000000100000000000000000000000000000000000011100000000011100000000000000000000000000000000000000000000000000000000000000000000000000000000000000001100000000000000000000000000000000000111000000000000000000000000000000000000000000000000000000000110100000000000000000000000000000000000000000000000000000000000000000000000000000000000000110000000000100100000000000000000000000000000000000100110000000000000000000000000000100000000000000000000000011001100000000000000000000000000000000000000000000000000000000000000000000000000000000000001100000000000110000000000000000000000000000000000000001000000000000000000000000000010100000000000000000000000011110000000000000000000000000000000000000000000000000000000000000000000000000000000000000000000000000000000000000000000000000000000000000001000100000000000000000000000000001010000000000000000000000000111000000000000000000000000000000000000000000000000000000000000000000000000000000000000000000000000000000000000000000000000000000000000000001001000000000000000000000000000101000000000000000000000000000000000000000000000000000000000000000000000000000000000000000000000000000000000000000000000000000000000000000000000000000000000000000000000000110000000000000000000000000000100000000000000000000000000000000001100000000000000000000000000000000000000000000000000000000000000010000000000000000000000000000000000000000000000000000000000000000000000000000000000000000000000000000000000000000000000000000000000000011000000000000000000000000000000000000000000000000000000000000000100000000000000000000000000000000000000000000000000000000000000000000000000000000000000000000000000000000000000000000000000000000000000000000000000000000000000000000000000000000000000000000000000000001000000000000000000000000000001000000000000000000000000000000000000000000000000000000000000000000000000000000000000000000000000000000000000000000000000000000000000000000000000000000000000000000000000000000000000000000000000000000101000000000000000000000000000000000000000000000000000000000000000000000000000000000000000000000000000000000000000000000000000000000000000000000000000000000000000000000000000000000000000000000000000001010000000000000000000000000000000000000000000000000000000000000000000000000000000000000000000000000000000000000001000000000000000000000000000001000000000000000000000000000000000000000000000000000000001000000000000000000000000000000000000000000000000000000000000000000000000000000000000000000000000000000000000000101000000000000000000000000000100010000000000000000000011100000000000000000000000000000000000000000000000000000000000000000000000000110000000000000000000000000000000000000000000000000000000000000000001001000000000000000000000000111000010000000000000000000000000000000000000000000000000000000000000000000011000000000000000000000000001100000000000000000000000000000000000000000000000000000000000000000000010000000000000000000000010000000000000000000000000000000000000000000000000000000000000000000000000000110000111000000000000000000000000000000000000000000000000000000000000000000000000000000000000000000100000000000000000000001100000010000000000000000000000000000110000000000000000000000011000000000000000000000000000000000000000000000000000000000000000000000000000000000000000000000000000000000000110101000000000000000000000001000001000000000000000000000000000001010000000000000000000000110000000000000000000000000000000000000000000000000000000000000000000000000000000000000000000000000000000000000000100000000000000000000000010001000000000000000000000000000000001100000000000000000000000000000000000000000000000000000000000000000000000000000000000000000000000000000000000000000000000000000000010110110000000000000000000000000011001000000000000000000000000000000000000000000000000000000000000000000000000000000000000000000000000000000000000000000000000000000000000000000000000000000000000000000111000000000000000000000000000000001110000000000