P1
200 200
0000000000000000000000000000000000000000000000000000000000000000000000000000000000000000000000000000000000000000100000000000000000000000000000000000000000000000000000000000000000000000010000000000000000000000000000000000000000000000000000000000000000000000000000000000000000000000000000000010100000000000010000010100000000000000000000000000000000000000000000000000000000000000000000001010000000000000000000000000000000000000000000000000000000000000000000000000000000000000000000000000000001001000000000001010000100100000000000000000000000000000000000000000000000000000000000000000000010100000000000000000000000000000000000000000000000000000010000000000000000000000000000000000000000000000001001000000000011000000110000000000000000000000000000000000000000100000100000000000000000000000010000000000000001110000000000000000000000100000000000000010000000000000000000000000000000000000000000000011010000000000000000000000000000000000000000000000000000000000001000010100000000000000000000000000001000000000100010000000000000000000001000000000000010100000000000000000000000000000000000011000000000011000000000000000000000000000000000000000000000000000000000000010000100100000000000000000000000000011000000001000100000000000000000000000000000000000010000000000000000000000000000000000000110000000000000000000000000000000000000000011000000000000000000000000000000000000110000000000000000000000000000010011000010001000000000000000000000000000000000000000000000000000000000000000000000000000000000000000000000000000000000000000000001001000000000000000000000000000000000000000000000001100000000000000000001010000011100000000000000000000000000000000000000000000000000000000000000000000000000000000000000000000000000000000000000000000011011000000000000000000000000000000000000000000000011000000000000000000001000000000000000000000000000000000000000000000000000000000000000000000000000000000000000000000000000000000000000000000000000000010100000000000000000000000000000000000000000000000000000000000000000000000000000000000000000000000000000000000000000000000000000000000000000000000000000000000000000000000000000000000000000000000000000010000000000000000000000000000000000000000000000000000000000000000000000000000000000000000000000000000000000000000000000000000000000000000000000000000000000000000000000000000000000000000000000000000000000000000000000000000000000000000000000000000000000000000000000000000000000000000000000000000000000000000000000000000000000000000000000000000000000000000000000000000000000000000000000000000000000000000000000000000000000000000000000000000000000000000000000000000000000000000000000000000000000000000000000000000000000000000000000000000000000000000000000000000000000000000000000000000000000000000000000000000000000000000000000000000000000000000000000000000000000000000000000000000000000000000000000000000000000000000000000000000000000000110000000000000000000000010000000000000000000000000000000000000000000000000000000000000000000000000000000000000000000000000000000000000000000000000000000000000000000000000000000000000000000000000000010010000000000000000000001010000000000000000000000000000000000000000000000000000000000000000000000000000000000000000000000000000000001100000000000000000000000000000000000000000000000000000000000000000101000000000000000000000100010000000000000000000000000000000000000000000000000000000000000000000000000000000000000000011100000000000111100000000000000000000000000000000000000000000000000000000000000000100000000000000000000000101000000000000000000000000000000000000000000000000000000000000000000000000000000000000000001101100000000011000010000000000000000000000000000000000000000000000000000000000000000000000000000000000000000100000000000000000000000000000000000000000000000000000000000000000000000000000000000000000010011000000000101100010000000000000000000000000000000000000000000000000000000000000000000000000000000000000000000000000000000000000000000000000000000000000000000000000000000000000000000000000000000000111000000000001000000100000000000000000000000000000000000000000000000000000000000000000000000000000000000000000000000000000000000000000000000000000000000000000000000000000000000000000000000000000000000000000000000001001001000000000000000000000000000000000000000000000000000000000000000000000000000000000000000000000000000000000000000000000000000000000000000000000000000000000000000000000000000000110000100110000000000001000000000000000000000000000000110000000000000000000000000000000000000000000000000000000000000000000000000000000000000000000000000000000000000000000000000000000000000000000000010010001110110000000000000000000000000000000000000000001100000000000000000000000000000000000000000000000000000000000000000000000000000000000000000000000000000000000000000000000000000000000000000000000000100000001000000000000000000000000000000000000000000000000000000000110000000000000000000000000000000000000000000000000000000000000000000000000000000000000000000000000000000000000000000000000000000001000011000000000000000000000000000000000000000000000010000000000000010010000000000000000000000000000000000000000000000001000000000000000000000000000000000000000000000000000000000000000000000000000000010000011101000000000000000000010000000000000000000001010000000000000100100000000000000000000000000000000000000000000000101000000000000000000000000000000000000000000000000000000000001000000000000000000000000000100000000000000000001010000000000000000000000010000000000000110000000000000000000000000000000000000000000000011100000000000000000000000000000000000000000000000000000000000101000000000000000000100010000000000000000000000010100000000000000000001001000000000000000000000000000000000000000000000000000000001000001110000000000000000000000000000001000000000000000000000000000011000000000000000000000111100000000000000000000000010000000000000000000010010000000000110000000000000000000000000000000000000000000101000001110000000000000000000000000000101000000000000000000000000000001000000000000000000000000100000000000000000000000000000000000000000001100100000000001100000000000000000000000000000000000000000010010000001010000000000000000000000000001010000000000000000000000000000100000000000000000000000011100000000000000000000000000000000000000000001001000000000000000000000011000000000000000000000000000000011000000001000000000000000000000000000001000000000000000000000000000101001000000000000000000001101100000000000000000000000000000000000000000001100000000000000000000001001000000000000000000000000000000000000000000000000000000000000000000000000000000000000000000000000000000111100011000000000000001110000000000000000000000000000010000000000000000000000000000000000000010100000000000000000000000000000000000000000000000011000000000010000000000000000000000000000000000000001001001101001000000000000001000000000000000000000000000001010000000000000000000000000000000000000010000000000000000000000000000000000000000000000001001000001011000000000000000000000000000000000000000110001000110011000000000000000000000000000000000000000000010010000000000000000000000000000000000000000000000000000000000000000000000000000000000000001100000010000100000000000000000000000000000000000000000111011100110000000000000000000000000000000000000000000011000000000000000000000000000000000000000000000000000000000000000000000000000000000000000000000000101101000000000000000000000000000000000000000011001011001110000000000000000000000000000000000000000000000000000000000000000000000000000000000000011000000000000000000000111000000000000000000000000000000010100000000000000000000000000000000000000010001101110000000000000000000000010000000000000000000000000000000000000000000000000000000000000000000110000000000000000000000000000000000000000000000000000000011000000000000000000000000000000000000000101001000000000000000000000000000100000000000000010000000000000000000000000000000000000000000000000000000000000000000000000000000000000000000000000000000000000100000000000000000000000000000000000000010000010000000000000000100000000001000000000000001110000000000000000000000000000000000000000010000000000000000000000000000000000000000000000000000000000000000000000000000000000000000000000000000000000010011000000000000000010110000000000000000000000100110000000000000000000000000000000000000001010000000000000000000000000000000000000000000000000000000000000000000000000000000000000000000000000000000000100000000000000000000101100000000000000000000001000100000000000000000000000000000000000000010010000000000000000000000000000000000000000000000000000000000000000000000000000000000000000000000000000000000000000000000000000110110000000000000000000000001101000000000000000000000000000000000011000011000000000000000000000000000000000000000000000000000000001110000000000000000000000000000000000000000000000000000000000000000010010000000000000000000000000000110000000000000000000000000000000000110000000000000000000000000000000000000000000000000000000000000000000000000000000000000000000000000000000000000000000000000000000000011100000000000000000000000000000000000000000000000000110000000000000000000000000000000000000000000000000000000000000000000000000000000000000000000000000000000000000000000000000000000000000000000000000110000000000000000000000000000000000000000000000000001000000000000000000000000000000000000000000000000000000000000000000000000000000000000000000000000000000000000000000000000000000000000000000000000000000000000000000000000000000000000000000000000000000001101100000000000000000000000010000000000000000000000000000000000000000000000000000000000000000000000000000000000000000000000000000000000000000000000000000000000000000000000000000000000000000000000000001000000000000000000000000001110110000000000000000000000000000000000000000000000000000000000000000000000000000000000000000000000000000000000000000000000000000000000000000000000000000000000000000000000000000100000000000000000000011011100000000000000000000000000000000000000000001110000000000000000000100000000000000000100000000000000000000000000000000000000000000000000000000000000000000000000000000000100000100000000000000000000000010000000000000000000000000000000000000000000000000000000000000000010100000000000000010100000000000000000000000000000000000000000000000000000000000000000000000000000000010001001000000000000000000000000000000000000000000000000000000000000000000000000000000000000000000100100000000000001000100000000000000000000000000000000000000000000000000000000000000000000000000000000011011100000000000000000000000000000000110000000000000000000000000000000000000000000000000000110000110000000000000010001000000000000000000000000000000000000000000000000000000000000000000000000000000000010001000000000000000000110000000000001100000000000000000000000000000000000000000000000000001100000000000000000000110110000000000000000000000000000000000000000000000000000000000000000000000000000000000011010000000000000000001100000000000000000000000000000000000110000000000000000000000000000000000000000000000000000000000000000000000000000000000000000000000000000000000000000000000000000000000000000000110100000000000000000000000000000000000000000000000000000101100000000000000000000010000000000000000000000000000000000000000000000000000000000000000000000000000000000000000000000000000000000000000000000010000000000000000000000000000000000000000000000000000011100000000000000000000000100000000000000000000000000000000000000010000000000000000000000000000000000000000000000000000000000000000000000000000000000000000000000000000110000011000000000000000000000000011000000000000000000000001000000000000000000000000000000000000001010000000000000000000000000000000000000000000000000000000000000000000000000000000000000000000001100010010000110000000000000000000000000000000001010010100000000000000000000000000000111000000000000001100010000000000000000000000000000000000000000000000000000000000000000000000000000000000000000000011000010100000000000000000000000000000000000000001100000100000000000000000000000000010001000000000000000011000000000000000000000000000000000000000000000000000000011000000000000000000000000000000000000000000010000000000000000000000000000000000000000010000001000000000000000000000000001000001000000000000000000000000000000000000000000000000000000000000000000000001001000000000000000000000100000000000000000000000000000000000000000000000000000000000000111101000000000000000000000000000001000100000000000000000000000000000000000000000000000000000000000000000000000010010000000000000000000110110000000000000000000000000000000000000000000000000000000000001001000000000000000000000000000000011110000000000000110100000000000000000000000000000000000000000000110000000000011000000000000000000001101100000000000000000000000000000000000000000000000000000000000011000000000000000000000000000001100011000000000000010001000000000000000000000000000000000000000000001100000000000000000000000000000000000000000000000000000000000000000000000000000000000000000000000000000000000000001100000000000000011000000000000000000100100000000000000000000000000000000000000000000000000000000000000000000000000000000011011000000000000000000000000000000000000110000000000000000000000000000000000100100000000000000000000000000000000000111000000000000000000000000000000000000000000000000000000000000000000000000000000000110110000000000000000000000000000000000001110000000000000000000000000000000000110000000000000000000000000000000000000000000000000000000000000000000000000000000000000000000000000000000000000000000000000010000000000000000000000000000000000000100100000000000000000000000000000000000000000000000000000000000000000000000000000000000000000000000000000000000000000000000000000000000000000000000000000000000000000000000000000000000000000000000000000111000000000000000000000000000000000000000000000000000000000000000000000000000000000000000000000000000000000000000000000000000000000000000000000000000000000000000000000000000000000000000000000000000001100000000000000000000000000000000000000000000000000000000000000000000000000000000000000000000000000000000000000000000000000000000110000000000000000000000000000000000000000000000000000000000000000000000000000000000000000000000000000000000000000000000000000000000000000000000000000000000000000000000000000000000000000000000000000010010000000000000000000000000000000000000000000000000000000000000000000000000011000000000000000000110000000000000000000000000000000000000000000000000000000000000000000000000000000000000000000000000000011000000000000000000000000000000000000000000000000000000000000000000000000011010000000000000000010010000000000000000000000000000000000000000000000000000000000000000000000000000000000000000000000000000000000000000000000000000000000000000000000000000000000000000000000000000000110000000000000000000011000000000000000000000000000000000000000000000000000000000000000000000000000000000000000000000000000000000000000000000000000000000000000000000000000000000000000000000000000000001101000000000000000000000000000000000000000000000000000000000000010000000000000000000000000000000000000000000000000000000000000000000000000000000000000000000000000000000000000000000000000000000000000000110000000000000000000000000000000000000000000000000000000000001010000000000000000000000000000000000000000000000000000000000000000000000000000000000000000000000000000000000100000000000000000000000000000000000000000000000000000000000000000000000000000000000000000010100000000000000000000000000000000000000000000000000000000000000000000000000000000000000000000000000000000010100000000000000000000000000000000000000000000000000000000000000000000000000000000000000000010000000001000000000000000000000000000000000000000000000000000000000000000000000000000000000000000000000001000000000000000000000000000000000000000000000000000000000000000000000000000001100000000000000000000000011000000000000000000000001000000000000000000000000000000000000000000000000000000000000000000000010100000000000000000000000000000000000000000000000000000000000000000000000000011000000000000000000000001001000000000000000000000101000000000000000000000000000000000000000000000000000000000000000000001001000000000000000000000000000000000000000000000000000000000000000000000000000000000000000000000000000001010000000000000000000000100000000000000000000000000000000000000000000000000000000000000000000001100000000000000000000000000000000000000000000000000000000000000000000000000000000000000000000000000000011000000000000000000000000000000000000000000000000000000000000000000000000000000000000000000000000000000000000000000000000000000000001000000000000000000000000000000000000000000000000000000000000000000000000000000000000000000000000000000000000000000000000000000000000000000000000000000000000000000000000000000000000000000000000000000010100000000000000000000000000000000000000000000000000000000000000000000000000000000000110000000000000000000000000000000000000000000000000000000000000000000000000000000000001110001100000000000000000000110000011000000000000000000000000000000000000000000000000000000000000000000000000000010100011000000000000000000000000000000000000000000000000000000000000000000000000000000000000100100000000000000000000000000110000000000000000000000000000000000000000000000000000000000000000000000000001110101110000000000000000000000000000000000000000000000000000000000000000000000000000000000000110000000000000001000000000000000000000000000000000000000000000000000000000000000000000000000000000000000011000111000000000000000000000000000000000000000000000000011100000000000000000000000000000000000000000000000000010000000000000000000000000000000000000000000000000000000000000000000000000000000000000000100000100000000000000000000000000000000000000001000000001001000000000000000000000000000000000000000000000000000100000110000000000000000000000000000000000000000000000000000000000000000000000000000000011101110000000000000000000000000000000000000000101000000010001000000000000000000000000000000000000000000000000000000010010000000000000000000000000000000000000000000000000000000000000000000000000000000000011000000000000000000000000000000000000000010010000000100100000000000000000000000000000000000000000000000000000000100100000000000000000000000000000000000000000000000000000000000000000000000000000000000000000000010000001100000000000000000000000011000000000101000000000000000000000000001110000000000000000000000000000110000000000000000000000000000000000000000000000000000000000000000000000000000000000000000000001010000100100000000000000000000000000000000000000000000000000000000000000000000000000000000000000000000000000000000000000000000000000000000000000000000000000000000000000000000000000000000000000000000100010011011100000000000000000000000000000001000000000000000000000000000000000000000000000000000000000000000000000000000000000000000000000000000000000000000000000000000000000000000000000000000000000000101000111110000000000000000000000000000000101000000000000000000000000000000000000000000000000000000001100000000000000000000000000000000000000000000000000000000000000100000000000000000000000000000000000100000111000000000000000000000000000000000110000000000000000000000000000000000000000000000000000000100100000000000000000000000000000000000000000110000000000000000011100000000000000000000000000000000000000000100000000000000000000000000000000000000000000000000000000001001000000000000000000000000000000110000000000000000000000000000000000000000010010000000000000001101100000000000000000000000000000000000000000000000000000000000000000000011000000000000000000000000000100000000000000000000000000000000000000000000000000000000000000000000000000000010100000000000000000010000000000000000000000000000000000000000000000000000000000000000000011001000000000000000000000000000000100000000000000000000000000000000000000000000000000000000000000000000000000010000000000000000101000000000000000000000100000000000000000000000000000000000000000000000110110000000000000000000000000010010000000000000000000000000000000000000000000000000000000000000000000000000000000000000000000001010000000000000000000010100000000000000000000000000000000000000000000000111000000000000000000000000000001000000000000000000000000000000000000000000000000000000000000000000000000000000000000000001101101000000000000000000001000100000000000000000000000000110000000000000000000000000000000000000000000000000100001000000000000000000000000000000000000000000000000000000000000000000000000000000000000000000010000000000000000000001010000000000000000000000000001100000000000000000000000000000000000000000000000000000101000000000000000000000000000000000000000000000000000000000000000000000000000000000001000000000000000000000000000001000000000000000000000000000000000000000000000000000000000000000000000000000000000001001000000000000000000000000000000000000000000000011100000000000000000000000000000000010000110000000000000000000000000000000000000000000000000000000000000000000000000000000000000000000000000000000000001100000000000000000000000000000000000000000000001000100000000000000000000000000000000110100000000000000000000000000000000000000000000000000000000000000000000000000000000000000000000000000000000000000000000000000000000000000000000000000000000000000000000000000000000000000000000000000000101000000000000000000000000000000000000000000000000000000000000000000000000000000000000000000000000000000000000000000000000000000000000000000000000000000000000000110110000000000000000000000000000000000100000000000000000000000000000000000000000000000000000000000000000000000000000000000000000000000000000000000000000000000000000000000000000000000000000000000000000010000000000000000000000000000000000000000000000000000000000000000000000000000000000000000000000000000000000000000000000000000000000000000000000000000000000000000000000000000000000000000000000000000000000000000000000000000000000000000000000000000000000000000000000000000000000000000000000000000000000000000000000000000000000000000000000111000000000000000000000000000000000000000000000000000000000000000000000000000000001000000000000000000000000000000000000000000000000000000000000000000000000000000000000000000000000000000000000000000001010000000000000000000000000000000000000000111000000000000000000000000000000000000010000000000000000000000000000000000000000000000000110000000000000000000000000000000000000000000000000000000000000000011100000000000000000000100000000000000001100000000000000000010000000000000000000000100000000000000000000000000000000000000000000000000000110000000000000011000000000000000000011000000000000000000000000000000000000000000000010100000000000000111001000000000000001010000000000000000000000000000000000000000000011100000000000000000000000000010010000000000000101000000000000110000110000000000000000000000000000000000000000000000101000000000000001000000000000000000010100000000000000000000000000000000000000111000000001100000000000000000000000011000000000000000011000000000001100000000000000000000000000000000000000000000000000000100000000000000001100000000000000000010000000000000000000000000000000000000010001000000100100000000000000000000000100000000000000010100000000000000000000000000000000000000000010000000000000000000000000000000000000000000000000000000000000000000000000000000000000000000000000000100010000000110000000000000000000000000000000000000000110000000000000000000000000000000000000000000100000000000000000000000000000001100000000000000000000000000000000000000000000000000000000000000000001000100000000000000000000000000000000000000000000000000000000000000000000000000000000000000000000010100000000000000000000000000000011000000000000000000000000000000000000000000000000000000000000000000001110000000000000000000000000000000000000000000110000000000000000000000011000000000000000000000000010000000000000000000000000000000000000000001000000000000000000000000000000000000000000000000000000000000000000000000000000000000000000000000000000001100000000000000000000001001000000000000000000000000100000000000000000000000000000000000000000101000000000000000000000000000000000000000000000000000000000000000000000000000000000000000000000000000000000000000000000000000000001010000000000000000000000000000000000000000000000000000000000000000011011000000000000000000000000000000000000000000000000000000000000000000000000000000000000000000000000000000000000000000000000000000001000000000000000000000000000000000000000000000000000000000000000000110100000000000000000000000000000000000000000000000000000000000000000000000000000000000000000000000000000000000000000000000000000000000000000000000000000000000000000000000000000000000000000000000000001011000000000000000000000000000000000000000000000000000000000000000000000000000000000000000000000000000000000000000000000000000000000000000000000000000000000000000000000000000000000000000000000000000000110000000000000000000000000000000000000000000000010000000000000000000000000000000001100000000000000000000000000000000000000000000000000110000000000000000000000000000000000000000000000000000000000000010000000000000000000000000000000000000000000000001010000000000000000000000000000000011000000000000000000000000000000000000000000000000110010000000000000000000000000000000000000000000000000000000000000000000000000000000000000000000000000000000000000010100000000000000000000000000000000000000000000000000000000000000000000000000000000001000100000000000000000000000000000000000000000000000000000000000000000000000000000000000000000000000000000000000000010000000000000000000000000000000000000000000001100000000000000000000000000000000000100010000000000000000000000000000000000000000000000000000000000000000000000000000000000000000000010100000000000000000000000000000000000000000000000000000000000000011000000000000000010000000000000000001001100000000000000000000000000000000000000000000000000000000000000000000000000000000000000000000011000000000000000000000000000000000000000000000000000111000000000000000001000000001010000000000000000001100000000000000000000000000000000000000000000000000000000000000000000000000000000000000000000000100000000000000000000000000000000000000000000000000010110000000000000000110000000010100000000000000000000000000000000000000000000000000000000000000000000000000000000000000000000000000000000000000011000000000000000000000000000000000000000000000000000000110011000000000000011100000000010000000000000000000000000000000000000000000000000000000000000000000000000000000000000000000000000000000000000001001000000000000000000000000000000000000000000000000000011000011000000000000011000000000000000000000000000000000000000000000000000000000000000000000000000000000110000000000000000000000000000000000000011011000000000000000000000000000000000000000000000000000100100000000000000000010000000000000000000000000000000000000000000000000000000000000000000000000000000000000000000000000000000000000000000000000010010000000000000000000000000000000000000000000000000000111011100000000000000000000000000000000000000000000000000000000000000000000000000000000000000000000000000000000000000000000000000000000100000000011000000000000000000000000000000000000000000000000000000110000000000000000000000000000000000000000000000000000000000000000000000000000000000000000000000001100000000000000000000000000000000010100000000000000000000000000000000000000000000000001100000011000000000000000000000000000000000000000000000000001000000000000000001110000000000000000000000000000000011000000000000000000000000011000000101000011000000000000000000000000000000000000000000011000001001000000000000000000000000000000000000000000000000010000000000000000000000000000000000000000000000000000000000000000000000000000000110000000100001001000010000000000000000000000000000000000000000000010100000000000000000000000000000000000000000000000000100000000000000000110000000000000000000000000000000000000000000000000000000000000000000000000001100000100000000000000000000000000011100000000000000010000000000000000000000000000000000000000000000000000000000000000000001100000000000000000000000000000000000000000000000000000000000000000000000000000000000000000000000000000000000001001110000000000000000000000000000000000000000000000000000000000000000000000000000000000011000000000000000000000000000000000000000000000000000000000000000000000000000000000000000000000000000000000000010010010000000000000000000000000000000000000000000000110000000000000000000000000000000000000000000000000000000000000000000000000000000000000000000000000000000000000000000000000000000000000000000000000101010010000000000000000000000000000000000000000000010010000000000110000000000000000000000000000000000000000000000000000000000000000010000000000000000000000000000000000001000000000000000000000000000000000001000000000000000000000000000000000000000000000101000000000000000000000000000000000000000000000000000000000000000000000000000000100000000000000000000000000000000000101000000000000000000000000000000101100000000000000000000000000000000000000000000000100000000000000000000000000000000110000000000000000000000000000000000000000000001000000000000000000000000000000000000100000000000000000000000000000001110000000000000000000000000000000000000000000000000000000000000000000000000010000001100000000000000000000010000000000000000000000000000000000000000000000000000000000000000000000000000000000000000000000000000000000000000000000000000000000000000000000000000000000000000000000000100000000000000000000000000001110000000000000000000000000000000000000000000000000000000000000000000000000000000000000000000000000000000000000000000000000000000000000000000000000000001100000000000000001000000000000000000000001100100010000000000000000000000000000000000000000000000000000000000000000000000000000000000000000000000000110000000000000000000000000000000000000000000000000100100000000000000000000000000000000000000011001101110000100000000000000000000000000000000000000000000000000000000000000000000000000000000000000000010010000000000000000000000000000000000000000000000001010000000000000000000000000000000000000000000001110000010100000000000000000000000000000000000000000000000000000000000000000000000000000000000000000011000000000000000000000000000000000000000001000000001000000000000000000000000000000000000000000000011100000101000000000000000000000000000000000000000000000000000000000000000000000000000110000000000000000000000000000000000000000000000000000000101000000000000000000000000000000000000000000000000000000000000000100000000000000000000000000000000000000000000000000000000000000000000000000010010000000000000000000000000110000000000000000000000000000110000000000000000000000000000000010000000000000000000000000000000000000000000000011000000000000000000000000000000000000000000000001000000000100100000000000000000000000010100000000000000000000000000000000000000000000000000000000000000100000000000000000000000000000000000000000000000110000000000100000000000000000000000000000000000101000000000110000000000000000000000000010000000000000000000000000000000000000000000000000000000000000001000110000000000000000000000000000000000000000000000000000010100000000000000000000000000000000010010000000000000000000000000000000000000000000000000000000000000000000000000000000000000000000000000000000010010000000000000000000000000000000000000000000000000000100000000000000000000000000000000000011000000000000000000000000000000000000000000000000000000000000000000000000000000000000000000000000000000000101000000000000000000000000000000000000000000000000000000100000000000000000000000000000000000000000000000000000000000000000000000000000000000000000000000000000000000000000000000000000000000000000000000100000000000000000000000000000000000000000000000000000000000000000000100000000000000000000000000000000000000000000000000000000000000000000000000000000000000000000000000000000000000000000000000000011000000000000000000000000000000000000000000000000000000000000000000000010100000000000000000000000000000001100000000000000000000000000011000000000000000000000000000000000000000000000000000000000000000110000000000000000000000000000000000000000000000000000000000000000000000001000000000000000000000000000000100100000000000000010000000000110000000000000000110110000000000000000000000000000000000000000000000000000000000000000000000000000000000000000000000000000000000000000000100000011000000000000000000000000101000000000001011010000000000000000000000000001000100000000000000000000000000000000000000000000000000000110000000000000000000000000000000000000000000000000000000000000000001001000000000000000000000000100000000000101010010000000000000000000000000001110000000000000000000000000000000000000000000000000000001100000000000000000000000011100000000000000000000000000000000000000011011000000000000000000000000000000000011010011000000000000000000000000000000000000000000000000000000000000000000000000000000100000000000000000000000000000000000000000000000000000000000000000000000000001000000000000000000000000000000000000111110000000000000000000000000000000000000000000000000000000000000000000000000000000111010000000100000000000000000000000000000000000000000000000000000000000000000000000000000000000000000000000000000001111100000000000000000000001000010000000000000000000000000000110000000000000000000010100000000010100000000000000000000000000000000000000000000000000000000000000000000000000000000000000000000000000000001001100000000000000000000110000100000000000000000000000000000000001100000000000000000001000001001000000000000000000000000000000000000000000000000000000000000000000000000000000000000110000000000000000001110000000000000000000010000010000000000000000000000000000000000011000000000000001110010000001100000000000000000000000000000000000100000000100000000000000000000000000000000000000010010000000000000000001000000000000000000000010100011000000000000000000000000000000000000000000000000000110100000000000000000000000000000000000000000110110000011100000000000000000000000000000000000000100100110001100000000000000010000000000000000001101110000000000000000000000000000000000000000000000000000010000000000000000000000000000000000000000001101100001000100000000000000000000000000000000000000110001100100100000000000001010000000000000000001111000000000000000000000000000000000000000000000000001000000000000000000000000000000000000000000000000010000001110000000000000000000000000000000000000000000000000101000000001100010100000000000000000110110000000000000000001000000000000000000000000000000101000000000000000000000000000000000000000000000000010100000000000000000000000000000000000000000000000000000000100010100011000010000000000000000001100100000000000000000101000000000000000000000000000001010000000000000000000000000000000000000000000000000000100111000000000000000000000000000000000000000000000000000000100100000000000000000000000000000110000000000000000001010000000000000000000000000000001000000000000000000000000000000000000000000000000000110010001000000000000000000000000000000000000000000000000000010001000000000000000000000000000000000000000000000000001000000000000000000000000000000000000000000000000000000000000000000000000000000000000000011100000000000000000000000000000000000000000000000000000010010000000000000000000000000000000000000000000000000000000000000000000000000000000000000000000000000000000000110000000000000000000000000000000010000000000000000000000000000000000000000111000000000000111000000000000000000000000000000000000000000000000000000000000000000000000000000000000000000000000000000000001100000000000000000000000000000000000000000000000000000000000000000000000000000000000000000000000000000000000000000000000000000000000000000000000000000000000000000000000000001110000000000000000000000000000000000000000000000000000000000000000000000000000011000000000000000000000000000000000000000000000000000000000011100000000000000000000000000000000000000000000000000000000000000000000000000000000000000000000000000000000000000000000000000000000000000001001000000001100000000000000000000000000000000000000000000000101000000000000000000000000000000000000000000000000000000000000000000000000000000000000000000000000000000000000000000000000000000000000000010010000000101000000000000000000000000000000000000000000000001110000000000000000000000000000000000000000000000000000000000000000000000000000000000000000000000000000000000000000000000000000000110000000011000000000100000000000000000000000000000000000001100000000000000000000000000000000000000000000000000000000000000000000000000000000000000000000000000001100000000000000000000000000000000000110010000000000000000000000000000000000000000000000000000000100100000000000000000000000000000000000000000000000000000000000000000000000000000000000000110000000000100100000000000000000000000000000000000000110000000000000000000000000000100000000000000000000000011011000000000000000000000000000000000000000000000000000000000000000000000000000000000000001100000000000110000000000000000000000000000000000100011000000000000000000000000000010100000000000000000000000001000000000000000000000000000000000000000000000000000000000000000000000000000000000000000000000000000000000000000000000000000000000000000000100110000000000000000000000000001010000000000000000000000000000000000000000000000000000000000000000000000000000000000000000000000000000000000000000000000000000000000000000000000000000000000000000000000110000000000000000000000000000101000000000000000000000000000000000000000000000000000000000000000000000000000000000000000000000000000000000000000000000000000000000000000000000000000000000000000000000000000000000000000000000000000000100000000000000000000000000000000001100000000000000000000000000000000000000000000000000000000000000000000000000000000000000000000000000000000000000000000000000000000000000000000000000000000000000000000000000000000000000000000000000000011000000000000000000000000000000000000000000000000000000000000001110000000000000000000000000000000000000000000000000000000000000000000000000000000000000000000000000000000000000000000000000000000000000000000000000000000000000000000000000000000000000000000000000000000000000000000000000000000000001000000000000000000000000000000000000000000000000000000000000000000000000000000000000000000000000000000000000000000000000000000000000000000000000000000000000000000000000000000000000000000000000000000101000000000000000000000000000000000000000000000000000000000000000000000000000000000000000000000000000000000000000000000000000000000000000000000000000000000000000000000000000000000000000000000000000001010000000000000000000000000000000000000000000000000000000000000000000000000000000000000000000000000000000000000000000000000000000000000000000000000000000000000000000000100000000000000000000000000000001000000000000000000000000000000000000000000000000000000000000000000000000000000000000000000000000000000000000000000000000000000000000000000000001100000000000000000000001000000000000000000000000000000000000000000000000000000000000000000000000000110000000000000000000000000000000000000000000000000000000000000000011110000000000000000000000000100110110000000000000000000010000000000000000000000000000000000000000000000011000001000000000000000000001100000000000000000000000000000000000000000000000000000000000000000110010000000000000000000000010100100100000000000000000000000000000000000000000000000000000000000000000000110000010000000000000000000000000000000000000000000000000000000000000000000000000000000000110000100100000000000000000000000100110000000000000000000000000000000110000000000000000000000011000000000000000000000100000000000000000000000000000000000000000000000000000000000000000000000000000000001110010110000000000000000000000000101000000000000000000000000000000001010000000000000000000000110000000000000000000000000000000000000000000000000000000000000000000000000000000000000000000000000000000011100110000000000000000000000000000110000000000000000000000000000000001100000000000000000000000000000000000000000000000000000000000000000000000000000000000000000000000000000000000000000000000000000000011000000000000000000000000000000001100100000000000000000000000000000000000000000000000000000000000000000000000000000000000000000000000000000000000000000000000000000000000000000000000000000000000000000011000000000000000000000000000000000110000000000