P1
200 200
0000000000000000000000000000000000000000000000000000000000000000000000000000000000000000000000000000000000000000100000000000000000000000000000000000000000000000000000000000000000000000010000000000000000000000000000000000000000000000000000000000000000000000000000000000000000000000000000000000000000000000010000010100000000000000000000000000000000000000000000000000000000000000000000001010000000000000000000000000000000000000000000000000000000000000000000000000000000000000000000000000000000000000000000001010000100100000000100000000000000000000000000000000000000000000000000000000000010100000000000000000000000000000000000000000000000000000000000000000000000000000000000000000000000000000000000000000000011000000110000000010100000000000000000000000000000000000100000000000000000000000010000000000000000000000000000000000000000000000000000000000000000000000000000000000000000000000000000000000000000000000000000000000000000101000000000000000000000000000011100010100000000000000000000000000011100011000000000000000000000000000000000000000000000000000000000000000000000000000000000011000000000000000000000000000000000000000000100000000000000000000000000000000000100100000000000000000000000000000001001000000000000000000000000000000000000000000000000000000000000000000000000000000000110000000000000000000000000000000000000000000000000000000000000000000000000000000110000000000000000000000000000000001010000000000000000000000000000000000000000000000000000000000000000000000000000000000000000000000000000000000000000000000001100000001100000000000000000000000000000000000000000001100000000000000000000010100000000000000000000000000000000000000000000000000000000000000000000000000000000000000000000000000000000000000000000000100100000100100000000000000000000000000000000000000000011000000000000000000000101000000000000000000000000000000000000000000000000000000000000000000000000000000000000000000000000000000000000000000000000110000000110000000000000000000000000000000000000000000000000000000000000000001010000000000000000000000000000000000000000000000000000000000000000000000000000000000000000000000000000000000000000000000000000000000000000000000000000000000000000000000000000000000000000000000000000110110000000000000000000000000000000000000000000000000000000000000000000000000000000000000000000000000000000000000000000000000000100000000000000000000000000000000000000000000000000000000000000000000000010010000000011100000000000000000000000000000000000000000000000000000000000000000000000100000000000000000000000000000000000000010100000000000000000000000000000000000000000000000000000000000000000000000011000000000000000000000000000000000000000000000000000000000000000000000000000000000001000000000000000000000000000000000000000101000000000000000000000000000000000000000000000000000000011000000000000000000000000001010000000000000000000000000000000000000000000000110000000000000000000000010000000000000000000000000000000000000000100000000000000000010000000000000000000000000000000000001001000000000000000000101000001000000000000000000000000000000000000000000000010010000000000000000000000000000000000000000000000000000000000000000000000000000000001110000000000000000000000000000000000010100000000000110000001010000000000000000000000000000000000000000000000000000101000000000000000000011100011100000000000000000000000000000000000000000000000000000110011000000000000000000000000000000000010000000000001100000010100000000000000000000000000000000000000000000000000000100000000000000000000000000000000000000000000000000000000000000000000000000000000000001110000000000000000000000000000000000000000000000000000000000100000000000000000000000000000000000000000000000000000000000000000000000000000000000000000000000000000000000000000000000000000000000000100001011000000000000000000000011000000000000000000000000000011001110000000000000000000000000000000000000000000000000000000000000000000000000000000000000000000000000000000000000000000000000000000000000001010001000000000000000000000110000000000000000000000000000110010100000000000000000000000000000000000000000000000000000000000000000000000000000000000000000000000000000000000000000000000000000000001000111100010000000000000000000000000000000000000000000000000001100001100000000000000000000000000000000000000000000000000000000000000000000000000000000000000000000000000000000000000000000000000000001110001000000100000000000000000000000000000000000000000000000000000000110000000000000000000000000000000000000000000000000000000000000000000000110000000000000000000000000000000000000000000000000000000000100001111111010000000000000000000000000000000000000000000000000000011000000000000000000000000000000000000000000000000000000000000000000000001100000000111000000000000000000000000000000000000000000000000000000110101110000000000000000000000000000000000000000000000000000100000000000000000000000000000000110000000000000000000000000000000000000110000000010011000000000000000000000000000000000000000000000000100001101000100000000000000000000000000000000000000000000000000000000000000000000000000000000000010010000000000000000000000000000000000001110000000000010010000000000000000000000000000000000000000000000000011010000000000000000000000000000000000000000000000000000000000000000000000000000000000000000100100000000000000000000000000000000000100100000001111110100000000000000000000000000000000000000000000001100101110000000000000000000000000000000000000000000000000000000000000000000000000000000001110000110000000000000000000000000000000000000111000000000100010000000000000000000000000000000000000000000000001110011000000000000000000000000000000000000000000000000000000000000000000000000010000000000000000000000000000000000000000000000000000000010100000000000000000000000000000000000001000000000000000000000001000010100001100000000000000000000000000000000000000000000000000000000000000000100000000000000000000000000000000000000000000000000000000110000000000000000000000000000000000000101000000000000000000000000000010000011000000000000000000000000000000000000000000000000000000000000000001000000000000000000000000000000000000000000000000000000000110000000000000000000000000000000000001010000000000000000000000000000000000000000000000000000000000000010000000000000000000000000000000000000000000000110000000000000011000000000000000000000000000000000000000000000000000000000000000000000001000000000000000000110000000000000000000000000000000000000000000100000000000000000000000000000000000001110000001100000000000001001000000000000000000000000000000000000000000000000000000000000000000000000000000000000000001010000000000000000000000000000000000000000001000000000000001100000010000000000000011100000000000000000000010100000000000000000000000000000000000000000000000000000000000000000000000000000000000000000001000000000000000000000000000000000000000000000000000000000000000001010000000000000110000000000000000000000010000000000000000000000000000000000000000000000000000000000000000000000000000000000000000000000000000000000000000000000000000001000000000000000000000000000000010010000000000010000000000000000000000000000000000000000000000000000000000000000000000000000000000000000000000000000000000000000000000000000010000000000000000000000000101000000000001000000000010000000011000000000011001000000000000000000000000000000000000000000000000001000000000000000000000000000000000000000000000000000000000000000000000001010000000000000000000000001010000000001100100010101010000000000000000000010001000000000000000000000000011000000000000000000000010000000000000000000000000000001110000000000000000000000000000000000100010100000000000000000000000001000000000011111100100000100000000000000000000100100000000000000000000000000110000000000000000000000100000000000000000100000000000000000000000000000000000000000000000010100010000000000000000000000000000000001110011011010000010000000000001100000000111000000000000000000000000000000000000000000000000000000000000000000110100000000000000000000000000000000000000000000000101000000000000000000000000000000000000000000110110010000000000000000010100000000000000000000000000010000000000000000000000000000000000000000000000001001100000101000000000000000000000000000000000000000100000000000000000000000000000000000000000000101000000000000000000000010000000000000000000000000001010000000000000000000000000000000000000000000000011001001000010000000000000000000000000000000000000000000000000000000000000000000000000000000000000100000000000000000000000000000000000000000000000000010010000000000000000000000000000000000000000000000001001010001010100110000000000000000000000000001100000001100000000000000000000000000000000000000000000000000000000000000000000000000000000000000011000011000000000000000000000000000000000000000000000000000110101101110001100000000000000000000000000100100000100100000000000000000000000000000000000000000000000000000000000000000000000000000000000000110000000000000000000000000000000000000000000000000000000011000100001001000000000000000000000000000000000000000110000000000000000000000000000000000000000000000000011000000000000000000000000000000000000000000000000000000000000000000000000000000000000000000000010110000001111100000000000000000000000000010000000000000011100000000000000000000000000000000000000000000110000000000000000000000000000000010000000000000000000000000000000000000000000000000000000000000011000000000001000000000000000000000000001101000000000001111100000000000000000000000000000000000000000000000000000000000000000000000000000100000000000000000000000000000000000000000000000000000000000000100000000000000000000000000000000000000000111000010000011011000000000000000000000000000000000000000000000000000000000001000000000000000001000000000000000000000000000000000000000000000000000000000000000000000000000000000000000000000000000000000010001110000010000000000000000000000000000000000000000000000000000000000000010000000110000000000000000000000000000000000000000000000000000000000000000000000000000000000000000000000000000000000000000000110001110000000000000000000000000000000000000000000000000000000000000000000100000001111100000001110000000000000000000000000000000000000000000000000000000000000000001110000000000000000000000000000010000100100100000110000000000000000000000000000000000000000000000000000000000000000000101110000000000000000000000000000000000000000000000000000000000000000000000000000000000000000000000000000000000001101000000100000000101000000001110000000000000000000000000000000000000000000000000000011100100100010000000000000000000000000000110000000000000000000000000000000000000000000000000000110000000000000000000011110000111000000010000000011010000000000000000000000000000000000000000000000000000100000100000100000000000000110000000000001100000000110000000000000000000000000000000000000000001100000000000000000010001000000000000000000000011000100000000000000000000000000000000000000000000000000001100000001101000000000000001100000000000000000000001010000000000000000000000000000000000000000000000000000000000000001000000000000001110110000001101000000000000000000000000000000000000000000000000000000000001010000000000000000000000000000000000000000010000000000000000000000000000000000000000000000000000000000000001001000000000000110000000000011100000000000000000000000000000000000000000000000000000000000001000000000000000000000000000000000000000000000000000000000000000000000000000001110000000000000000000000000011010000000000000110100100000000000000000000000000000000000000000000000000000000000000000000000000000000000000000110000011000000000000000000000000000000000000011000000000000000000000000000000000000000011000000000000001000000000000000000000000000000000000000000000000000000000000000000000000000000000000000001100010010000110000000000000000000000000000000000000101000000000000000000000000000000000000000000000000000000100010001000000000000000000000000000000000000000000000000000000000000000000000000000000000011000010100000000000000000000000000000000000000000000100000000000000000000000000000000000000000000000000000000000110010000000000000000000000000000000000000000000011000000000000000000000000000000000000000000010000000000000000000000000000000000000000000000000000000000000000000000000000000000000000000000000000000001101100000000000000000000000000000000000000000001001000000000000000000000000000000000000000000000000000000000000000000000011100000000000000000000000000000000000000000000000000000000000000000000000000000110011000000000000000000000000000000000000000010010000000000000000000000100000000000000000000000000000000000000000110000101000000000000000000000000000000000000000000000000000000000000000000000000000000110010000000000000000000000000000110000000000011000000000000000000000001000000000000000000000000000000000000000001100001110000000000000000000000000000000000000000001100000111000000000000000000000000000111000000000000000000000000000001100000000000000000000000000000000000010000000000000000000000000000000000000000000000000000000000000000000000000001100000000000000011000000000000000000000000000000000000100000000000000000000000000000000000000000000000000000000111000000000000000000000000000000000000000000000000000000000000000000000000000000000000100100000000000000000000000000000000000000000000000000000000000000000000000000000000000000000000000000000000000010000000000000000000000000000000000000000000000000000000000000000000000000000000000000000110000000000000000000000000000000000000000000000000000000000000000000000000000000000000000000000000000000000000000010000000000000000000000000000100000000000000000000000000000000000000000000000000000000000000000000000000000000000000000000000000000000000000000000000000000000000000000000000000000000000000000000010000100000000000000000000000000010100000000000000000000000000000000000000000000000000000000000000000000000000000000000000001000000000000000000000000000000000000000000000000000000000000000000000000000110000000000000000000000000000000101000000000000000000000000000000000000000000000000000000000000000000000000000000000000000010000000000000000000000000000000000000000000000000000000000110000000000000000100000000000000011100000000000000100000000100000000000000000000000100000000000000000000000000000000000000000000000000000000100000000110000000000000000000000000000000000000000000000010010000000000000001000000000000000111000000000000000001100011000000000000000000000001000000000000110000000000000000000000000000000000000000000000000010010000000000000000000000000000000000000000000000011000000000000001101100000000000010110000000000000000100101000100000000000000000100001001110000010010000000000000000000000000000000000000000000000000101000000000000000000000000000000000000000000000000000000000000001111101110000000000101000000000000000010001010011100000000000000010011010011000000011000000000000000000000000000000000000000000000000000100000000000000000000000000000000000000000000000000000000000000010000001100000000011011000000000000000100101100000100000000000000100000100010100000000000000000000000000000000000000000000000000000000000000000000000000000000000000000000000000000000000000000000000001110001001000000000110110000000000110001001001100010000000000000001001000000010000000000000000000000000000000000000000000000000000000000000000000000000000000000000000000000000000000000000000000000000010101100010000000110100000000000010010001100001111000000000000000001001100000000000000000000000000000000000000000000000000000000000110000000000000000000000000000000000000000000000000000000000000000000000000001000000001010000000000000011000000000001000000000000000000000001000000000000000000000000000000000000000000000000000000000001100000000000000000000000000000000000000000000000000000000000000000000010011100011100010100000000000000000000000000000000000000000000000000000000000000000000000000000000000000000001100000000000000000000000000000110000000000000000001000000000000000000000000000000000000001110011000000000011001000000000000000000000000000000000000000000000000000000000000000000000000000000000000000011000000000000000000000000110010010000000000000000101000000000000000000000000000000000000000000000000000000011100000000000000000000000000000001000000000000000000000000000000000000000000000000000000000000000000000000000000000000010000100000000000000000100000000000000000000000000000000000000010000000000000000010000000000000000000000000011000010000000000000000000000000000000000000000000000000000000000000000000000000000000010000101001000000000000000000000000000000000000000000000000000000000100110000000000000000000000000000000000000000110000100000000000000010000000000000000000000000000000000000000000000000000000000000001001010001000000000000000000000000000000000000000000000000000000000011010011000000000000000000000000000000000000000000000000000000000001010000000000000000000000000000000000000000000000000000000000000001110000000000000000000000000000000000000000000000000000000000000000000000110000000000000000000000000000000000100000000000000000000000100000000011000000000000000000000000000000000000000000000000000000001100000000000000000000000000000000000000000000000000000000000000000000011010000000000000000000000000000000010000000000000000000000001000000000110000000000000000000000000000000000000000000000000000000100100000011100000000000000000000000000000000000000000000000000000000000011100000000000000000000000000000000101000000000000000000000000100000000000000000000000000000000000000000000000000000000000000001101000001110000000000000000000000000000000000000000000000000000000000000110000000000000000000000000000000000100000000000000000000000010000000000000000000000000000000000000000000000000000000000000000000110000000000000000000000000000000000000000000000000000000000000000000000000000010000000000000000000000000000000000000000000000000000000110000000000000000000000000000000000000000000000000000000000000000000000000000000000000000000000000000001000000000000000000000110000000000000001010000000000000000000000000000000000000000000000000000010010000000000000000000000000000000000111000000000000000000000000000000000000000000000000000000000000000101000000000000000000001100000000000001111000000000000000000000000010000000000000000000000000000100100000000000000000000000000000000010010000000000000000000000000000000000000000000000000000000000000001010000000000000000000000000000000000101000000000000000000000000000100000000000000000000000000000110000000000000000000000000000000000100100001100101000000000000000000000000000000000000000000000000000001000000000000000000000000000111000001000000000000000000000000000001000000000000000000000000000000000000000000000000000000000000000010010000011010000111000000110000000000000000000000000000000000000000000000000000000000000000000011111000000100000000000000000000000000000000000000000000000000000000000000000000000000000000000000000000100100010000000001001000011000000000000000000000000000000000000000000000000000000000000110000000101111011111000000000000000000000000000000000000000000000000000001100000000000000000000000000000000000000101001001111000000100000001000000000000000000000000000000000000000100000000000000000010010000000000010000001000000000000000000000000000000000000000000000000000100100000000000000000000000000000000000000101100111000000000000000000000000000000000000000000000000000000001000000000000000000100100000111000011001111000000000000000000000000000000000000000000000000000110000000000000000000000000000000000000000001010001000000000000000000000000000000000001000000000000000000010000000000000000001101100001110000000000100000000000000000000000000000000000000000000000000000000000000000000000000000000000000000000001100111010000001000000000000000000000000000010000000000000000000000000000000000000000110000001110001011100000000000000000000000000000000000000000000000000000000000000000000000000000000000000000000001111101001110100000000000000000000000000000000100000000000000000000000000000000000000000000000001100010010000000000000000000000000000000000000000000000000000000000000000000000000000000000000000000000010000000000000000000001100000000000000000000000000000000000000000000000000000000000000000000000101011000000000001110000000000000000000000000000000000000000000000000000000000000000000000000000000000000101100000000001000100011000000000000011000111000111000000000000000000000000000000000000000000001100000000000000010010000000000000001000000000000000000000000000000000000000000000000010000000000000000000000000000000000000000000000000000000110000000000000000000000000000000000000000000000000000000000000000000000000100100000000000000101000000000000000000000000000000000000000000000000100000000000000000000000000000000011100000000000000000000000000001000000000000000000000000000000000000000000000000000000000000000000100000000000000001001000000000000111000000000000000000000000000000001000000000000000000000000010000110000000000000000000000000000000010000000000000000000000000000000000000000000000000000000000000000001100100000000000001100000000000100010000000000000000000000000000000000000000000000000000000001100000000000000000000000000000000000000100000000000000000000000000000000000000000000000000000000000000000110001000000000000000000000000001011110000000000000000000000000000000000000000000000000000000100100000000000000000000000000011000000000000000000000000000000000000000000000000000000000000000000000000010101000000000000000000000000000000001000000000000000000000000000000000000000000000000000000011001101000000110000000000000000000000000000000000000000000000000000000000000000000000000000000000000000000110010100000000000000000000000100001000000000000011100000000000000000000000000000000000000001110010001000010010000000000000000000000000000000000000000000000000001100000000000000000000000000000000000000000011000000000000000000000011000111000000000000000000000000000000000000000000000000000000001100111011000010100000000110000000000000000000000000000000000000000011000000000000000000000000000000000000000010000010000000000000000000000000000000000000000000100000000000000000000000000000000000000001000000111000011000000010010000011000000000000000000000000000000000000000000000000000000000000000000000000000100000100000000000000001000100000000000000000000001000000000000000000000000000000000111000001100100100000011100000011000000101000000000000000000000000000000000000000000000000000000000000000000000000001000001000000000000000010000000000000000000000000010000000000010000000000000000000000000000001110000100000011000000100000000010000000000000000000000000000000000000000000000000011000000000000000000000000000000000000000000010010000000000000001100000000000000000001010000000000000000000000000000001000000000000110000110000111100100000000000000000000000000000000000000000000110000110000000000000000000000000000000000000000000110000000011000000011000000000000000000010100000000000000000000000000000000000000000000000001100000101010000000000000000000000000000000110000000000001100000000000000000000000000000000000000000000000001100000000101000000000000000000000000000010000000000000000000000000000000000000000000000000010000000011000000000000000000000000000000001100000000011000000000000000000000000000000000000000000000000000000000001000110101100000000000000000000000000000000000000000000000000000000000000000000000000000000000000000000000000000000000000000000000000000000101000000000000000000000000000000000000000000000000000000000101001101111100000000000000000000000000000000000000000000000011000000001000000000000000000000000000000000000000000000000000000000000000000000010000000000000000000000000011100000000000000000000000000000001000100101100000100000000000000000000000000000000000000001010000000101100000000000000000000000000000000000000000000000000000000000000000001100011000000000000000000000000000000000000000000000000000000100000000110000010100000000000000000000000000000000000000011000000001001000000000000000000000000000000000000000000000000000000000000000000000001001000000000000000000000000100000000000000000000000010000000000001000000101000000000000000000000000000000000000000000001100000000000000000000000000000000000000000000000000000000000000000011000000000001010000000000000000000000001000000000000000000000001000100000000000000000100000000000000000000000000000000000000000001111000100100000000000000000000000000000000000000000000000000000000000110000000000001000000000000000000000000010000000000000000000000001001000000000000000000000000000000000000000000000000000000000000010001001010000000000000000000000000000000000000000000000000000000000000000000000000000000000000000000000000000000000000000000000000000000000000000000000000000000000000000000000000000000000000000000000001100000000000000000000000000000000000000000000000000000000000000000010010000000000000000000000000000000000000000000000000000000000000001100001000001100000000000000000000000000000000000000000000000001011000000000000000000000000000000001100000000000000000000000000000000101000000000000000000000000000000000000000000000000000000000000000000000010000001100000000000000000000000000000000000000000000000101100000000000000000000000000000000011000000000000000000000000000000000000000000000000000000000000000000000000000000000000000000000000000111000100000010000000000000000000000000000000000000000000000010010000000000000000000000000000000000000000000000000000000000000000000000000000000000000000000000000000000000000000000000000000000000000001110000001110010000000000000000000000000000000000000000000000011000000000000000000000000000000000000000000000001100000000000000000000000000000000000000000000000000000000000000000000000000000000000000000000000010010100000000000000000000000000000000000000000000000000000000000000000000000000000000000000000000000011000000000000000000000000000000000000000000000000000000000000000000000000000000000000000000000001000100100000000000000000000000000000000000000000000000000000000000000000000000000000000000000000000000000000000000000000000000000000000000000000000000000000000000000000000000000000000000000000000000110001010000000000000000000000000000000000000000000000000000000000000000000000000000000000000000000000000000000000000000000011000000000000000000000000000000000000000000000000000000000000000000000000000010011000000000000000000000000000000000000000000000000000000000000000000000000000000000000000000000000000000000000000000000110000000000000000000000000000000000000000000000000000000000000000000000000011000110000000000000000000000000000000000000000000000000000000000000000000000000000000000000000000000000000000000000000000000000000000000000000000000000000010000000000000000000000000000000000000000000000000000000000000000000000000000000000000000000000000000000000000000000000000000000000000110000000000000000000000000000000000000000000000000000000000000001010000000000000000000000000000000000000000000000000000000000000000000000000000000000000000000000000000000000000000000000000000000000001010000000000000000000000000000000000000000000000000000000000000010100000000000000000000000000000000000000000000000000000000000000000000000000000000000000000000000000000000000011000000000000000000000001000000000000000000000000000000000000000000000000000000000000000010000000000000000000000000000000001100000000000000000000000000000000000000000000000000000000000000000000000001001000000001100000011000000000000000000000000000000000000000000000000000000000000000000000000000000000000000000000000000000011000000000000000000000000011000000000000000000000000000000000000000000000001100000000011000001001000000000000000000000000000000000000000000000000111000000000000110000000110000000000000000000000000000000000000000000000000000000110000000000000000000100000000000000000000000000000000000000000000010100000000000000000000000000000000000000000000000000000000000000001100000010010000000000000000000000000000000000000000000000000000000000000000000000000010100000000000000000000000000000000000000000000010000000000000000000000000000000000000000000000000000000000000000000000000011000000000000000000000000000000000000000000000000000000000000000000000000000101000000000000000000000000000000000000000000000000000000000000000000000000000000000000000000000000000000000000000000000000000000000000000000000000000000000000000000000000000000000000000000000000000000100000000000000000000000000000000000000000000000000000000000000000000000000000000110000000000000000000000000000000000000000000000000000000000000000000000000000000000000000000000000000000000000000000000001000000000000000000000000000000000000000000000000000000000000000000000000000010010000000000000000000000000000000000000000000000000000000000000000000000000000000000000000000000000000000000000000000000010000000000000000000000000000000000000000000000000000000000000000000000000000101000000000000000000000000000000000100000000000000000000000000000000000000000001110000000000000000000000000000000000000000100000000000000000000000000000000000000000000000000000000000000000000000000000100000000000000000000000000000000011100000000000000000000000000000000000000000000000000000000000000000000000000000000001000000000000000000000000000000000000000000000000000000000000000000000000000000000000000000000000000000000000000001001100000000000000001100110000000000000000000000000000000000000000000000000000000000001000111000000000000000000000001000000000000000000000000000000000000000000000000000000000000000000000000001110000011011100000000000000011001100000000000000000000000000000000000000000000000000000000001100000000000000000000000000000101000000000000000000000000000000000000000000000000000000001100000000000000000000000010000000000000001100000000000000000000000000000000000000000000000000000000000000000010001000000000000000000000000001010000110000000000000000000000000000000000000000000000000100100000000000000000000000001001000000000011000000000000100000000000000000000000000000000000000000000000000000000010000000000000000000000000001000010010000000000000000000000000000000000000000000000001010000000000000000000000111000100000000000000000000000010100000000000000000000000000000000000000000000000000000000100000000000011000000000000000000011000000000000000000000000000000000000000001000000001000000000000000000000000001110000000000000000000000000101000000000000000000000000000000000000000000000000000000000000000000001010000000000000000000000000000000000000000000000000000000000000101000000000000000000000000000000000010000000011000000000000000000100000000000000000000000000000000000000000000000000000000000000000000001000000000000000000000000000000000110000000000000000000000000000110000000000000000000000000000000000011000001001000000000000000000000000000000000011000000000001110000000000000000000000000000000011000000000000000000000000000000000000010100000000000000000000000000000000000000000000000000000000000000000110000000001000000000000000000000000000000000110000000000110110000000000000000000000000000001001000000000000000000000000000000000000010000000000000000000000000000000000000000000000000000000000011000000000110000000000000000000000000000000000000000000000000001101100000000000000000000000000000010100000000000000111000000000000000000000000000000000000000000000000000000000000000000000000000000000000000000011000000010000000000000000000000000000000000000000000000100000000000000000000000000000000010000000000000001100000000000000000000000000000000000000000000000000000000000000000000000000000000000000110000101110110100000000000000000000000000000000000000000000000000100000000000000000000000000000000000000000000000000000000000000000000000000000000000000000000000000000000000000000000000000000000000101100000000110100110000000000000000000000000000000000000000000000001000000000000000000000000000000000000000000000000000000000000000000000000000000000000000000000000000000000000000000000000000000000001110000000010110000100000000000000000000000000000000000000000000000110000000000000000000000000000000000000000000000000000000000001100000011000000000000000100000000000000000000000000000000000000000000001000000010101100111000000000000000000000000000000000000000000000000000000000010000000000100000000000000000000000110000000000000011000000110000000000000000100000000000000000000000000000000000000000000000000000100010000000000000000000000000000000000000000000100000000000000000000100000110000100000000000000000110000010000000000000000001000000000000000000011000000000000000000000000000000000000000000000000000000100100100000000000000000000000100000000000000010100000010100000000001000010100011000000000000000011000001000000000000000000101000000000000001100000000000001000000000000000000000000000000000000000000001000010100000000000000000000001000000000000000011000000100000000000000001110000110010000000000001100000000000000000000000001001000000000001011100000000000101000000000000000000000000000000000000111000110000100000000000000000000000010000000000000000000000001010000000000000001100000100110000000000110010010000000000000000000001100000000000000011100000000001010000000000000000000000000000000000011110001100000100000000000000000000000000000000000000000000000001100000000000000000000000100000000000001100001000000000000000000000000000000000000000000000000000001000000000000000000000000000000000000110110000000000000000000000000000000000000000000000000000000000000000000000000000000000010001000000011001100100000000000000000000000000000000000100010000000000000000000000000000000000000000000000000000000010001000000000000000000000000000000000000000000000000000000000000000000000000000000010000000010001001100000000000000000000000000000000000000001111000000000000000000000000000000000000000000000000011001100001000000000000000000000000000000000000000000000000000000000000000000000000000000111101001000010001000000000000000000000000000000000000010010010000000000000000000000000000000000000000000000000000000000000000000000000000000000000000000000000000000000001000000000000000000000000000000110011001000100000000000000000000000000000000000000000100010100000000000000000000000000000000000000000000000010010000010100000000000000000000000000000000000000000000001101100000000000000000000000000100111100000110000000000000000000000000000000000000000000100010000000000000000000000000000000000000000000000000100000000010000000000000000000000000000000000000000000000011011000000000000000000110000001011100000000000000000000000000000000000000000000000000000000000000000000000000001000000000000000000000000000000101000000000000000000000000000000000000000000000000000000110010000000000011000001100000001000000000000000000000000001000000000000000000000000000000000111000000000000000101000000000000000000000000000001000000000000000000000000000000000000000000000000000000000011000000000000110000000000000000000000000000000000000000101000011000000000000000000000000000001000000000000001010000000000000000000000000000000000000000000000000000000000000000000000000000000000000000000000000000000000000000000000000000000000000000100000001001001001000000000000000000000010000100000000000000001000000000000000000000000000000000000000000000000000000000000000000000000000000000000000000000000000000000000000000000000000000000001000011000000001100010100000000000000000000000000100000000000000000000000000000000000000000000000000000000000000000000000000110000000000000000000000000000000000000000000000000000000000000000000000000010000101000000000000010000000000000000000000000000000000000000000000000000000000000000000000000000010000000000000000000000001100000000000000000000000000000000000000000000000000000000000000000000000000100000000000000000000000000000000000000000000000000000000000000000000000000000000000000000000000000100000000000000000000000000000000000000000000000000000111000000000000000000000011000000000000000000000000000000000000000000000000000000000000000000000000000000000000000000000000000000000000000000000001000000000000000000000000000000000000000000000000000000000000000000000000000001001000000001100000000000000000000000000000000000000000000000000000000000000000000000000000000000000000000000000000000000000000000000000000000000000000000000000000000000000000000000000000000000000000010010000000101000000000000000000000000000000000000000000000000000000000000000000000000000000000000000000000000000000000000000000000000000000000000000000000000000000000000000000000000000000000000000000011000000000100000000000000000000000000000000000000000000000000000000000000000000000000000000000000000000000000000000000000000000000000000000000000000001100000000000000000000000000000000000000000000000000000000000000000000000000000000000000000000000000000000000000000000000000000000000000000000000000000000000000000000000000000000000000000110000000000100100000000000000000000000000000000000000000000000000000000000000000000100000000000000000000000000000000000000000000000000000000000000000000000000000000000000000000000000000000000000000001100000000000110000000000000000000000000000000000000000000000000000000000000000000010100000000000000000000000000000000000000000000000000000000000000000000000000000000000000000000000000000000000000000000000000000000000000000000000000000000000000000000000000000000000000000000000000001010000000000000000000000000000000000000000000000000000000000000000000000000000000000000000000000000000000000000000000000000000000000000000000000000000000000000000000000000000000000000000000000000000101000000000000000000000000000000000000000000000000000000000000000000000000000000000000000000000000000000000000000000000000000000000000000000000000000000000000000000000000000000000000000000000000000000100000000000000000000000110000000000000000000000000000000000000000000000000000000000000000000000000010000000000000000000000000000000000000000000000000000000000000000000000000000000000000000000000000000000000000000000000000001100000000000000000000000000000000000000000000000000000000000000000000000000100000000000000000000000000000000000000000000000000000000000000000000000000000000000000000000000000000000000000000000000000000000000000000000000000000000000000000000000000000000000000000000000000000001000000000000000000000000000001000000000000000000000000000000000000000000000000000000000000000000000000000000000000000000000000000000000000000000000000000000000000000000000000000000000000000000000000000000000000000000000000000000101000000000000000000000000000000000000000000000000000000000000000000000000000000000000000000000000000000000000000000000000000000000000000000000000000000000000000000000000000000000000000000000000000001010000000000000000000000000000000000000000000000000000000000000000000000000000000000000000000000000000000000000000000000000000000000000000000000000000000000000000000000000000000000000000000000000000001000000000000000000000000000000000000000000000000000000000000000000000000000000000000000000000000000000000000000000000000000000000000000000000000000000000000000000000011100000000000000000000000000000000000000000000000000000000000000000000000000110000000000000000000000000000000000000000000000000000000000000000000000000000000000000000000000000000000000000000000000000000000000000000000000000000000000000000000000000011000000000000000000000000001100000000000000000000000000000000000000000000000000000000000000000000000000000000000000000000000000000000000000000000000000000000000000000000000000000000000000000000000000110000111000000000000000000000000000000000000000000000000000010000000000011000000000000000000000000000000000000000000000000000000000000000000000000000000000000110000000000000000000000011000000000000000000000000000000000000000000000000000000000000000000000000000111000000000110000000000000000000000000000000000000000000000000000000000000000000000000000000000001010000000000000000000000110000000000000000000000000000000000000000000000000000000000000000000000000001010000000000000000000000000000000000000000000000000000000000000000000000000000000000000000000000001100000000000000000000000000000000000000000000000000000000000000000000000000000000000000000000000000000100000000000000000000000000000000000000000000000000000000000000000000000000000000000000000000000000000000000000000000000000000000000000000000000000000000000000000000000000000000000000000000000000000000000000000000000000000000000000000000000000000000000000000000000000000000000