P1
200 200
0000000000000000000000000000000000000000000000000000000000000000000000000000000000000000000000000000000000000000100000000000000000000000000000000000000000000000000000000000000000000000010000000000000000000000000000000000000000000000000000000000000000000000000000000000000000000000000000000000000000000000010000010100000000000000000000000000000000000000000000000000000000000000000000001010000000000000000000000000000000000000000000000000000000000000000000000000000000000000000000000000000000000000000000001010000100100000000100000000000000000000000000000000000000000000000000000000000010100000000000000000000000000000000000000000000000000000000000000000000000000000000000000000000000000000000000000000000011000000110000000010100000000000000000000000000000100000100000000000000000000000010000100000000000000000000000000000000000000000000000000000000000000000000000000000000000000000000000000000000000000000000000000000000000101000000000000000000000000000001000010100000000000000000000000000001000000000000000000000000000000000000000000000000000000000000000000000000000000000000000011000000000000000000000000000000000000000000100000000000000000000000000000010000100100000000000000000000000000010000000000000000000000000000000000000000000000000000000000000000000000000000000000000000110000000000000000000000000000000000000000000000000000000000000000000000000000000110000000000000000000000000000000000000000000000000000000000000000000000000000000000000000000000000000000000000000000000000000000000000000000000000000000000001100000001100000000000000000000000000000000000000000001100000000000000000000010000000000000000000000000000000000000000000000000000000000000000000000000000000000000000000000000000000000000000000000000100100000100100000000000000000000000000000000000000000011000000000000000000001110000000110000000000000000000000000000000000000000000000000000000000000000000000000000000000000000000000000000000000000000110000000110000000000000000000000000000000000000000000000000000000000000000000010000001110000000000000000000000000000000000000000000000000000000000000000000000000000000000000000000000000000000000000000000000000000000000000000000000000000000000000000000000000000000000000000001101100000000100011000000000000000000000000000000000000000000000000000000000000000000000000000000000000000000000000000000000000000100000000000000000000000000000000000000000000000000000000000000000000000001100000000000110000000000000000000000000000000000000000000000000000000000000000000000000000000000000000000000000000000000000010100000000000000000000000000000000000000000000000000000000000000000000000000000000111000000000000000000000000000000000000000000000000000000000000000000000000011100000000000000000000000000000000000000101000000000000000000000000000000000000000000000000000000011000000000000000000000011111000000000000000000000000000000000000000000000000110000000000000000000000000000000000000000000000000000000000000000100000000000000000000000000000000000000000000000000000001001000000000000000000001000000000000000000000000000000000000000000000000000010010000000000000000000100000100000000000000000000000000000000000000000000000000000000000000000000000000000000000000000000010100000000000100000000010001100000000000000000000000000000000000000000000000101000000000000000000001000001000000000000000000000000000000000000000000000000000000000000000000000000000000000000000000000010000000000001100000000001010000000000000000000000000000000000000000000000000100000000000000000000010000010000000000000000000000000000000000000000000000000000000000000000000000000000000000000000000000000000000000000000000010000000000000000000000000000000000000000000000000000000000000000000000000000000000000000000000000000000000000000000000000000000000000000000000000000000000000000000000011000000000000000000000000000000111000000000000000000000000000000000000000000000000000000000000000000000000000000000000000000000000000000000000000000000000000000000000000001100001110000000000000000000110000000000000000000000000000010001000000000000000000000000000000000000000000000000000000000000000000000000000000000000000000000000000000000000000000000000000000000000000101000100000000000000000000000000000000000000000000000000000101110000000000000000000000000000000000000000000000000000000000000000000000000000000000000000000000000000000000000000000000000000000000000011000001001000000000000000000000000000000000000000000000000000011000000000000000000000000000000000000000000000000000000000000000000000000000000000011100000000000000000000000000000000000000000000000000010100001100000000000000000000000000000010000000000000000000000000000000000000000000000000000000000000000000000000000000000000000000000000000000010010100000000000000000000000000000000000000000000000000011000000000000000000000000000000000000100000000000000000001100000000000000000000000000000000000110000000000000000000000000000000000000000000001010110010000000000000000000000000000000000000000000000000000000000000000000000000000000000000000000000000000000000000100000000000000000000000000000000010010000000000000000000000000000000000000011100000000000000000000000000000000000000000000000000000000000000000000000000000000000000000000000000000000000000000000000000000000000000000000000000000000000100100000000000000000000000000000000000000010011100000111000000000000000000000000000000000000000000000000000000000000000000000000000000000000000011010000000000000000000000000000000000000000000011100000110000000000000000000000000000000000000000011110000000000000000000000000000000000000000000000000000000000000000110000000000000000000000000000000110100000000000000000000000000000000001000010001011000000000000000000000000000000000000000000000000011100000000000000000000000000000000001000000000000000000000000000010100001100000000000000000000000001110000000000000000000000000000000000010101111100100000000000000000000000000000000000000000000001100000000000000000000000000000000000000101000000000000000000000000000010000011000000000000000000000000000000000000000011100000000000000000000011011010110000000000000000000000000000000000000000000000011000000000000000000000000000000000000001010000000000000000000000000000000000000000000000000000000000000000000000000001111000000000000000000001100110001100000000000000011000000000000000000000000000000000000000000000000011100000000000000000001000000000000000000110000000000000000000000000000000000000000000000000000000010010000000000000000000010101000010000000000000001001000000000000000000000000000000000000000000000000001000000000000000000000000000000000000001010000000000000000000000000000000000000000000000000000000101100000010000000000000110000001000000000000000010100000000000000000000000000000000000000000000000001010000000000000000000000000000000000000001000000000000000000000000000000000000000000000000000000100111000001010000000000000101000000000000000000000010000000000000000000000000000000000000000000000000001110000000000000000000000000000000000000000000000000000000000000000000000001000000000000000011001100000000010010000000000000001010000000000000000000000000000000000000000000000000000000000000000000000001110000000000000000000000000000000000000000000010000000000000000000000000101000000000000000101000000000000011000000000000000000000000000000000000000000000000000000000000000000000000000000000000000000000100010000000000000000000000000000000000000001010000000000000000000000001010000000000000110010000000000000000000000000000000000000000000000000000000011000000000000000000000111000000000000000000010000000000100000000000000000000000000000000000100010100000000000000000000000001000000010000110110010000000000000000000000000000000000000000000000000000000110000000000000000000000000000000000000000011010000000001000000000000000000000000000000000010100010000000000000000000000000000000000100000011101010000000000000001100000000000000000000000000000000000000000000000000000000000000000000000000000000010100001100000000000000000000000000000000000000101000000000000000000000000000000000000001000000000110110000000000000010100000000000000000000000000010000000000000000000000000000000000000000000000000100010000111100000000000000000000000000000000000000100000000000000000000000000000000000000000000000001101100000000000000010000000000000000000000000001010000000000000000000000000000000000000000000000001000000000010100000000000000000000000000000000000000000000000000000000000000000000000000000000000000000100000000000000000000000000000000000000000000010010000000000000000000000000000000000000000000000010000000010011100000000000000000000000000000001100000001100000000000000000000000000000000000000000000000000000000000000000000000000000000000000011000011000000000000000000000000000000000000000000000000000110000011000100000000000000000000000000000011000000100100000000000000000000000000000000000000000000000000000000000000000000000000000000000000110000000000000000000000000000000000000000000000000000000010010000111111000000000000000000000000000000000000000110000000000100000000000000000000000000000000000000011000000000000000000000000000000000000000000000000000000000000000000000000000000000000000000000011000000010010000000000000000000000000000000000000000000000000010101111000000000000000000000000000000000110000000000000000000000000000000000000000000000000000000000000000000000000000000000000000000000000000000001000000000000000000000000000000000000000000000000000101111001000000000000000000000000000000000000000000000000000000000000000001110000000000000000000000000000000000000000000000000000000000000000000001010000000000000000000000000000110110000011000000000000001001100000000000000000000000000000000000000000000000000000000000000000000000000000000000000000000000000000000000000000000000000000000000000001010000000000000000000000000000010000100000110000000011100000110000000000000000000000000000000000000000000000000111000000000011100000010000000000000000000000000000000000000000000000000000000000000000101000000000000000000000000000000010110000000000000000000100000000000000000000000000000000000000000000000000000000000000000011111000000100000000000000000000000000000000000000000000000000000000000000001010000000000000000000000000000011110000101000000011001101100000000000000000000000000000000000000000000000000000000000000000100000000001000000000000000000000000000000000000000000000000000000000000000000000000000000000000000000000000100000010010000001101000110110000000000000000000000000000000000000000000000000000000000000010011100000000000000000000000000000000110000000000000000000000000000000000000000000000000000110000000000000001111000010100000010010000000100100000000000000000000000000000000000000000000000000000000000011111001110000000000000110000000000001100000000000000000000000000000000000000000000000000001100000000000000000101100000011101101100000110000110000000000000000000000000000000000000000000000000000000000000000000000000000000001100000000000000000000000000000000000000000000000000000000000000000000000000000000000010000100000100110010000000010010000000000000000000000000000000000000000000000000000000000000000000000000000000000000000000000000000000000000000000000000000000000000000000000010000000000000000000000000011011000001000001000001101100000000000000000000000000000000000000000000000000000000000000000000000000000000000000000000000000000000000000000110000000000000000000000000000000100000000000000000000000000000000000001100100001101100000000000000000000000000000000000000000000000000000000000000001010000000000000000000000110000011000000000000000011000000000000000000011000000000001000000000000000000000000000000000000000110000000010010000000000000000000000000000000000000000000000000000000000001100100000000000000001100010010000110000000000000000001000000000000000000101000000000000000000000000000000000000000000000000000000000111000111000000000000000000000000000000000000000000000000000000000010001000000000000000011000010100000000000000000000000000000000000000000000100000000000000000000000000000000000000000000000000000000000000001000000000000000000000000000000000000000000011000000000000000101100000000000000000000000010000000000000000000000000000000000000000000000000000000000000000000000000000000000000000000000000000000000010110000000000000000000000000000000000000000001001000000000000000000000000000000000000000000000000000000000000000000000000000000000000000000000000000000000000000000000000000000000000000000000000000000101000000000000000000000000000000000000000000010010000000000001100011101000000000000000000000000000000000000000000110000000000000000000000000000000000000000000000000000000001000000000000000000000000000100000000000000000000000000000000110000000000011000000000000000000111011000000000000000000000000000000000000000001100000000000000000000000000000000000000000000000001100000010000000000000000000000000000000000000000000000000000000000001100000000000000000000000000000001010001000000000000000000000000000000000000000000000011100000000000000000000000001100000000000000011000000100000000000000000000000000000000000000000000000000000000000000000000000000000000000000010101001110111000000000000000000000000000000000000000000000011000000000000000000000000100100000000000000000000000000000000000000000000000000000000000000000000000000000000000000000000000000000000000000000001110101110000000000000000000000000000000000000000000000101000000000000000000000000110000000000000000000000000000000000000000000000000000000000000000000000000000000000000000000000000000000000000000001111000010000000000000000000100000000000000000000000000000110000000000000000000000000000000000000000000000000000000000000000000000000000000000000000000000000000000000000000000000000000000000000000011100000000000000000000000000010100000000000000000000000001111000000000000000000000000000000000000000000000000000000000000000000000000000000000000000000000000000000000000000000000000000000000000000000111000000001000000000000000000101000000000000000000000000010000000000000000000000000000000000000000000000000000000000000111000000000000000000000000000000000000000000000000000000000110000000000000000001000000000001000000000000000000100000000000000000000000001010000000000000000000000000000000000000000000000000000000000000000000000110000000000000000000000000000000000000000000000010010000000000000000000000000010011100000000000000000000000000000000000000000000000000000000000000110000000000000000000000000000000000000000000000000010010000000000000000000000000000000000000000000000011000000000000000000000000000110000100000000000000000000111000000000000000000000000001000000000010010000000000000000000000000000000000000000000000000101000000000000000000000000000000000000000000000000000000000000000000001110000001101000110000000000000000001110000000000000000000000000110000100000011000000000000000000000000000000000000000000000000000100000110000000000000000000000000000000000000000000000000000000000000000000000000000000100000000000000000110000000000000000000000000011000001000000000000000000000000000000000000000000000000000000000000000001100000000000000000000000000000000000000000000000000000000000000000000000000100111000000000110000000001100000000000000000000000100000010000000000000000000000000000000000000000000000000000000000000000001000000000000000000000000000000000000000000000000000000000010000000000000001011000000000010010000000100011000000000000010000000000000000000000000000000000000000000000000000000000000000000110000000000100000000000000000000000000000000000000000000000000000000001110000000100000001000000000000011000000000000000000000000000100000000000000000000000000000000000000000000000000000000000000000001100011100010000000000000000000000000000000000000000000000000000000000110010000001000000010000000000000000000000001000000000000000000000000000000000000000000000000000000000000000001100000000000000000000000111000100010000000000000001000000000000000000000000000000000000001001100000010000000000000000000000000000000000101000000000000000001111000000000000000000000000000000000000000011000000000000000000000010000001000001000000000000101000000000000000000000000000000000010010100010000000000000000000000000000000000010101000000000000000001000100000000000000000000000000000000000000000000000000000000000000000011011000000001000000000000100000000000000000000000000000000010001100100000000000000000000000000000000000000100010000111000000000010010000000000000000000000000000000000000000000000000000000000000000000000110000000000000000000000000000000000000000000000000000000111010000101000000000000000000000000000000000100000000000000000000000011100000000000000000000000000000000000000000000000000000000000000000110000000100000000000000000000000000000000000000000000000000001100000001100000000000000000000000000000000000000110000000000000000000000000000000000000000000000000000000000000000000000000000000000000001010101111000000000000000000000000000000000000000000000000000000000000000100000000000000000000000000000000100000001100000000000000000000000000011000000000000000000000000000000000000000000000000000000010101011000111000000000000000000000000000000000000000000000000000000000011000000000000000000000000000000000100100100100000000000000000000000000110000000000000000000000000000000000000000000000000000000110011000000000000000000000000000000000000000000000000000000000000000000100000000000000000000000000000000000110000110000000000000000000000000000000000000000000000000000000000000000000000000000000000000111000000000000000000000000000000000000000000000000000000000000000000111000000000000000000000000000000000000000000000000000000000000000000000000000000000000000000000000000000000000000000000000000000000100000000000000000000000000000000000000000000000000000000000000000001100110000000000000000000000000000000000000000000000000000000000000110000000000000000000000000000000000000000000000000000000000000000000000000000000000000000000000000000001000000000000000000000000000011001001000000000000000000000000000000000000000000000000000000000010010000000000000000000000000000000000000000000000000000000000000000000000000000000000000000000000000000101000000000000000000000111000000000000010000000000000000000000000000000000000000000000000000000100100000000000000000000000000000000000000000000000110000000000000000000000000000000000000000000000000001010000000000000000000011010000000110101010000000000000000000000001110000000000000000000000000000110000000000000000000000000000000000000000000000000000000000000000000000000000000000000000000000000000001000000000000000000000010010100111001000010000000000000000000000000000000000000000000000000000000000000000000000000000000000000000000000000000011000100000000000000000000000000000000000000000000000000000000000000000000000001110010010100010000100000000000000000000000000000000000000000000000000000000000000000000000000000000000000000000000000000100011100000000000000000000000000000000000000000000000000000000000000000000000011001101110000101000000000000000000000000000000000000000000000000000001100000000000000000000000000000000000000001000000000011000000000000000000000000000000000000000000000000000000000000000000000000000101100011000000000111000000000000000000000000000000000000000000000000100100000000000000000000000000000000000000111000000000110011100000001110000000000000000000000000000000000011100000000000000000000011010001000001010010000000000000000000000000000000000000000000000000000110000000000000000000000000000000000000010011000000100110100000000010000000000000000000000000000000000000000000000000000000000000010100010110010000110000000000000000000000000000000000000000000000000000000000000000000000000000000000000000000111100000000000010000000000010000000000000000111000000000000000000000000000000000000000000010001010100000110110000000000000000000000000000000000000000000000000000000000000000000000000000000000000000000001010000011100110000000000000000000000000000000000000000000000000000000000000000000000000000000000000101110000000110000000000000000000000000000000000000000000000000000000000000000000000000000000000000010010000000011100001100000000000000000001000001000000000000000000000000000000000000000000000000000000110100000000010000000000000000000000000000000000000000000000000000000000000000000000000000000000000100100000000111000011000000000000011000010000010000000000000000000000000000000000000000000000000000000010100001001000000000000001000000000000000000000000000000000000000000000000000000000000000000000000110000000010100000000000000000000100000100000100000000000000000000000000000000000000000000000000000000110001001100000000000000101000000000000000000000000000000000000000000000001110000000000000000000000000000000110000000000000000000000010000000000000000000000000000000000000000000000000000000000000000001100011100000000000000001001000000000000000000000000000000000000000000000000000000000000000000000000000000000000000000000000000000000000000111000000000000000000000000000000000000000000000000000000000000000110000000000000000001100000000000000000000000000000000000000000000000000000000000000000000000000000000000000000000000000001010000000000000000000000000000000000000000000000000000000000000000000000000001000000000000000000000000000000000000000000000000000000000000000000000000000000000000000000000000000001000000000000000000010100000000000000000000000000000000000000000000000000000000000000000000000000000000010000000000000000000000001111110000000000000100000000000000000000000000000000000000000000001110010100000000000000000011000000000000000000000000000000000000000000000000000000000000000000000000000000000100000000000000000000000110111100000000000001000000000000000000000000000000000000000000000010000100100000000000000000000000000000000000000000000000000000001100000000000000000000000000000000000000000001000000000000000000000011000010100000000000010000000000000000000000000000000000000000000000111000001100000000000000010000000000000000000000000000000000000011000000000000000000000000000000000000000000000000000000000000000000001110000000000000000000000000000000000000000000000000000001000000000000000001000000000000010000100000000000000000000000000000000000000000000000000000000000000000000000000001110001110000000000000000000110000000000000000000011100000000000000000000000000000000010000000000000001110001000000000010010000000000000000000000000000000000000000000000000000000000000000000000000000000000000000000000000000000101000000000000000000000000000000000010000000000000000000000100000000000000000000101000000000011100000000000000000000000000000000000000000000000000000011000000000000000000000000000000000000000000000010010000000000000100000000000000000001010000000000000000000000000000000000000000001010000000000000000000000000000000000000000000000000000000000000110000110000000000000000000000000000000000000000000000100001100000000110110000000000000000010100000000000000000000000000000000000000000001000000110000000000000000011000100000000000000000010000000000001100000000000000000000000000000000000000000000000000001010011000000011111000000000000000000010000000000000000000000000001000000000000000000000010010000000000000000100001000000000000000001100000000011000000000000000000000000000000000000000000000000000000001100000000000110110000000000000000000000000000000000000000000000110000000000000000000000011000000000000000001100000000000000000000000000000000101000000000000000000000000000100000000000000000000000000000000000000000100000000000000000000000000000000000000000000000001000000000000000000000000000000000000000000000100000000000000001100000000000000010000000000000000000000000001000000000000000000000000000000011110000101100000000000000000000000000000000000000000000000000000000000000000000000000000000000000000000000000000000000000001000000000000001100011000000000000000000000010000000000000000000000000000011000011000000000000000000000000000000000000000000000000000000111111010000000000000000000000000000000000000000000000000000000000010000000000000001001000000000000000000000000000000000000000000000000000100010000011000000011000000000000000000000000000000000000000001101001101000000000000000000000000000000000000000000000000000000000011010000000000001010000000000000000000000011100000000000000000000000000000000010000000011001100000000000000000000000000000000000000011010000111000000000000000000000000000000000000000000000000000000000100110000000000001000000000000000000000000000000000000000000000000000010000100100000000010001000000000000000000000000000000000000000001000010001000000000000000000000000000000000000000000000000000000011011000000000000000000000000000000000000000000000000000000000000000000100001010000000100000000000000000000000000000000000000000000000000000111001000000000000000000000000000000000000000000000000000000011100000000000000000000000000000000000000000000000000000000000000000001101100000000001100001000000000000000000000000000000000000000000100000111100000000000000000000000001100000000000000000000000000000000000000000000000000000000000000000000000000000000000000000000000000000100000001111100000100000000000000000000000000000000000000000010001000010000000000000000000000000011000000000000000000000000000000000000000000000000000000000000000000000000000000000000000000000000000000000000010011000010000000000000000000000000000000000000000000110110000000000000000000000000000000000000000000000000000000000000000000000000000000000000000000000000000000000000000000000000000000000000000000000100011001000000000000000000000000000000000000000000000110000000000000000000000000000000000000000000001100000000000000000000000000000000000000000000000000000000000000000000000000000000000000000000110001010011000000000000000000000000000000000000000000000000000000000000000000000000000000000000000000000011000000000000000000000000000000000000000000000000000000000000000000000000000000000000000000010000011100000000000000000000000000000000000000000000000000000000000000000000000000000000000000000000000000000000000000000000000000000000000000000000000000000000000000000000000000000000000000000000000100010000000000000000000000000000000000000000000000000000000000000000000000000000000000000000000000000000000000000000000000000011000000000000000000000000000000000000000000000000000000000000000000000001101100000000000000000000000000000000000000000000000000000000000000000000000000000000000000000000000000000000000000000000000000110000000000000000000000000000000000000000000000000000000000000000000000001011000000000000000000000000000000000000000000000000000000000000000000000000000000000000000000000000000000000000000000000000000000000000000000000000000000000010000000000000000000000000000000000000000001100000000000000000000000000000000000000000000000000000000000000000000000000000000000000000110000000000000000000000000000000000000000000000000000000000000001010000000000000000000000000000000000000000000000000000000000000000000000000000000000000000000000000000000000000000000000000000000000001010000000000000000000000000000000000000000000000000000000000000010100000000000000000000000000000000000000000000000000000000000000000000000000000000000000000000000000000000000011000000000000000000000001000000000000000000000000000000000000000000000000000000000000000010000000000000000000000000000000001100000000000000000000000000000000000000000000000000000000000000000000000001001000000001100000011000000000000000000000000000000000000000000000000001000000000000000000000000000000000000000000000000000011000000000000000000000000011000000000000000000000000000000000000000000000001100000000011000001001000000000000000000000000000000000000000000000000010000000000000110000000110000000000000000000000000000000000000000000000000000000110000000000000000000100000000000000000000000000000000000000000000010100000000000000000000000000000000000000000000000000100000000000001100000010010000000000000000000000000000000000000000000000000000000000000000000000000010100000000000000000000000000000000000000000000010000000000000000000000000000000000000000000000000000000000000000000000000011000000000000000000000000000000000000000000000000000000000000000000000000000101000000000000000000000000000000000000000000000000000000000000000000000000000000000000000000000000000000000000000000000000000000000000000000000000000000000000000000000000000000000000000000000000000000100000000000000000000000000000000000000000000000000000000000000000000000000000000110000000000000000000000000000000000000000000000000000000000000000000000000000000000000000000000000000000000000000000000000000000000000000000000000000000000000000000000000000000000000000000000000000010010000000000000000000000000000000000000000000000000000000000000000000000000000010000000000000000000000000000000000000000000000000000000000000000000000000000000000000000000000000000000000000000000000101000000000000000000000000000000000000000000000000000000000000000000000000000000100000000000000000000000000000000000000000100000000000000000000000000000000000000000000000000000000000000000000000000000100000000000000000000000000000000000000000000000000000000000000000000000000000001000000000000000000000000000000000000000001000000000000000000000000000000000000000000000000000000000000000000000000000000000000000000000000000000010000000000000000000000000001100110000000000000000000000000000000000000000000000000000000000000101000000000000000000000000001000000000000000000000000000000000000000000000000000000000000000000000000000100000000000000000000000000011001100000000000000000000000000000000000000000000000000000000000000100000000000000000000000000101000000000000000000000000000000000000000000000000000000001100000000000000001000000000000000000000001100000000000000000000000000000000000000000000000000000000000000001100001000000000000000000000000001010000110000000000000000000000000000000000000000000000000100100000000000000000000010011000000000000011000000000000100000000000000000000000000000000000000000000000000011000000000000000000000000000000001000010010000000000000000000000000000000000000000000000001010000000000000000000001000010000000000000000000000000010100000000000000000000000000000000000000000000000000000000000000000000000001110000000000000011000000000000000000000000000000000000000001000000001000000000000000011000111011100000000000000000000000000101000000000000000000000000000000000000000000000000000000000000000000000000011000000000000000000000000000000000000000000000000000000000101000000000000000000000000110000101010000000000000000000000000000100000000000000000000000000000000000000000000000000000000000000000000001111100111000000000000000000000000110000000000000000000000000000110000000000000000000000010100010100000000000000000000000000000000000000000000000011000000000000000000000000000000000000000000000011000010001100110000000000000000000000010100000000000000000000000000000000000000000000000000000000000000000000000000000000000000000000000000000000000000110000000000000000000000000000000000000000000001001000000001000000000000000000000000000010000000000000000000000000000000000000000000000000000000000000000000000000000000000000000000000000000000000000000000000000000011100000000000000000000000000000010100001000010000000000000000000000000000000000000000000000000000000000000000000000000000000000000000010111000000000110000000000000000000000000000000000000000000000000000100000000000000000000000000000010000010001000000000000000000000000000000000000000000000000000000000000000000000000000000000000000000101000000000011000000000000000000000000000000000000000000000000100001100000000000000000000000000000000000111100000000000000000000000000000000000000000000000000000000000000000000000000000000000000000000000000000000010110000000000000000000000000000000000000000000000000110100000000000000000000000000000000000000000000000100000000000000000000000000000000000000000000000000000000000000000000000000000000000000000000001100100000000000000000000000000000000000000000000000000001100000000000000000000000000000001100000000000110110000000001100000011000000000000001100000000000000000000000000000000000000000000000000000000000111000000000000000000000000000000000000000000001000000011000000000000000000000000000000011000000000001101100000000011000000110000000000000100100000000000000000000000000000000000000000000000000000001011000000000000000000000000000000000000000001000000000001010000001110000000000000000000000000011000000010001100000000000001000000000000000000101000000000000000000000000000000000000000000000000000000001010100000000000000000000000000000000000000010100011000001000000000000001110111000000000000000111000000101011000000000000101000000000000000000100000000001000000000000000000000000000000000000000000001001010100000000000000000000011100000000000000011000010000010000110000000011101110000000000000010010000000100010000000000001001000000000011100000000000000101000000000000000000000000000000000000100000010110101100000000000000000000000000000000000000000000000110000001100000001000000000000000000000101100000000111100000000000001100000000011000100000000000001010000000000000000000000000000000000001100011101100100000000000000000000000000000000000000000000000000000000000000000010001001001000000000000100000000000010000000000000000000000000000010000000000000001000000000000000000000000000000000000000101001000000000000000000000000000000000000000000000000000000000000000000000000100110000001000000000000000000000000000000000000000000000000000100010000000000000000000000000000000000000000000000000000111010100000000000000000000000000000000000000000000000000000000000000000000000000010000110101000000110000000000000000000000000000000000000111011111000000000000000000000000000000000000000000000000000110001100000000000000000000000000000000000000000000000000000000000000000000000000000000001100001000010010000000000000110000100000000000000001101100000000000000000000000000000000000000000000000000000000110011000000000000000000000000000000000000000000000000000000000000000000000000000000000010111100000100100000000000010011001000000000000000011000110010000000000000000000000000000000000000000000000000000110001000000000000000000000000000000000000000000000000000111000000000000000000000000000010000000000110000000000001000001010000000000000000001111100010000000000000000000000000000000000000000000000000000110100000000000000000000000000000000000000000000000000000000111000000000000000110000000000000000000000000000000001000000000000000000000000001011000010000000000000000001000000000000000000000000000000000110000000000000000000000000000000000000000000000000000010000001000000011000001100000000000000000000000000000000010001000000000000000000000000000010100000000000000000101000000000000000000000000000000000000000000000000000000000000000000000000000000000000000010000000000000110000000000000000000000000000000000000000011100011000000000000000000000000111000000000000000001010000000000000000000000000000000000000000000000000000000000000000000000000000000000000000011000000000000000000000000000000000000000000000000000000000001001000000000000000000000000000000000000000000001000000000000000000000000000000000000000000000000000000000000000000000000000000000000000000000011000000000000000000000000000000000000000000000000000000010100000000000000000000000000000000000000000000000000000000000000000000000000000000000000000000000000000110000000000000000000000000000000000000000000000000000000000000000000000000111000000000000000000010000000000000000000000000000000000000000000000000000000000000000000000000000000000000000000000000000001100000000000000000000000000001000000000000000000000000000000000000000000000000000001100000000000000000000000000000000000000000000000000000000000000000000000000000000000000001110000000000000000000000000000000000000000000000000000010000000000000000000000011000000000000000000000000000010100000000000000000000000000000000000000000000000000000000000000000000000000000000000000000000000000000000000000000000000000000000000000000000000100000000000000000000001001000000001100000000000000000100000000000000000000000000000000000000000000000000000000000000000000000000000000000000000000000000000000000000000000000000000000000000000000000000000000000000000000000010010000000101000000000000000000000000000000000000000000000000000000000000000000000000000000000000000000000000000000000000000000000000000000000000000000000000000000000000000000000000000000000000000000011000000000100000000000000000000000000000000000000000000000000000000000000000000000000000000000000000000000000000000000000000000000000000000000000000001100000000000000000000000000000000000000000000000000000000000000000000000000000000000000000000000000000000000000000000000000000000000000000000000000000000000000000000000000000000000000000110000000000100100000000000000000000000000000000000000000000000000000000000000000000100000000000000000000000000000000000000000000000000000000000000000000000000000000000000000000000000000000000000000001100000000000110000000000000000000000000000000000000000000000000000000000000000000010100000000000000000000000000000000000000000000000000000000000000000000000000000000000000000000000000000000000000000000000000000000000000000000000000000000000000000000000000000000000000000000000000001010000000000000000000000000000000000000000000000000000000000000000000000000000000000000000000000000000000000000000000000000000000000000000000000000000000000000000000000000000000000000000000000000000101000000000000000000000000000000000000000000000000000000000000000000000000000000000000000000000000000000000000000000000000000000000000000000000000000000000000000000000000000000000000000000000000000000100000000000000000000000110000000000000000000000000000000000000000000000000000000000000000000000000000000000000000000000000000000000000000000000000000000000000000000000000000000000000000000000000000000000000000000000000000001100000000000000000000000000000000000000000000000000000000000000000000000001110000000000000000000000000000000000000000000000000000000000000000000000000000000000000000000000000000000000000000000000000000000000000000000000000000000000000000000000000000000000000000000000000000000000000000000000000000000000001000000000000000000000000000000000000000000000000000000000000000000000000000000000000000000000000000000000000000000000000000000000000000000000000000000000000000000000000000000000000000000000000000000101000000000000000000000000000000000000000000000000000000000000000000000000000000000000000000000000000000000000000000000000000000000000000000000000000000000000000000000000000000000000000000000000000001010000000000000000000000000000000000000000000000000000000000000000000000000000000000000000000000000000000000000000000000000000000000000000000000000000000000000000000000100000000000000000000000000000001000000000000000000000000000000000000000000000000000000000000000000000000000000000000000000000000000000000000000000000000000000000000000000000000000000000000000000000001000000000000000000000000000000000000000000000000000000000000000000000000000110000000000000000000000000000000000000000000000000000000000000000000000000000000000000000000000000000000000000000000000000010000000000000000000000000000000000000000000000011000001000000000000000000001100000000000000000000000000000000000010110000000000000000000000000000000000000000000000000000000000000000000000000000000000000000000000000000000000000000000000000000000000110000010000000000000000000000000000000000000000000000000000000001001100111000000000000000000000000000000000000000000000000000000000000000000000000000000000000110000000000000000000000011000000000000000000000100000000000000000000000000000000000000000000000000000000010000001100000000000000000000000000000000000000000000000000000000000000000000000000000000000001010000000000000000000000110000000000000000000000000000000000000000000000000000000000000000000000000000000110000110000000000000000000000000000000000000000000000000000000000000000000000000000000000000001100000000000000000000000000000000000000000000000000000000000000000000000000000000000000000000000000000000010000000000000000000000000000000000000000000000000000000000000000000000000000000000000000000000000000000000000000000000000000000000000000000000000000000000000000000000000000000000000000000000000000000001100000000000000000000000000000000000000000000000000000000000000000000