P1
200 200
0000000000000000000000000000000000000000000000000000000000000000000000000000000000000000000000000000000000000000100000000000000000000000000000000000000000000000000000000000000000000000010000000000000000000000000000000000000000000000000000000000000000000000000000000000000000000000000000000000000000000000010000010100000000000000000000000000000000000000000000000000000000000000000000001010000000000000000000000000000000000000000000000000000000000000000000000000000000000000000000000000000000000000000000001010000100100000000100000000000000000000000000000000000000000000000000000000000010100000000000000000000000000000000000000000000000000000000000000000000000000000000000000000000000000000000000000000000011000000110000000010100000000000000000000000000000000000100000000000000000000000010000000000000000000000000000000000000000000000000000000000000000000000000000000000000000000000000000000000000000000000000000000000000000101000000000000000000000000000011100010100000000000000000000000000011100010000000000000000000000000000000000000000000000000000000000000000000000000000000000011000000000000000000000000000000000000000000100000000000000000000000000000000000100100000000000000000000000000000000110000000000000000000000000000000000000000000000000000000000000000000000000000000000110000000000000000000000000000000000000000000000000000000000000000000000000000000110000000000000000000000000000000001110000000000000000000000000000000000000000000000000000000000000000000000000000000000000000000000000000000000000000000000001100000001100000000000000000000000000000000000000000001100000000000000000000000000000000000000000000000000000000000000000000000000000000000000000000000000000000000000000000000000000000000000000000000100100000100100000000000000000000000000000000000000000011000000000000000000000000000000000000000000000000000000000000000000000000000000000000000000000000000000000000000000000000000000000000000000000000110000000110000000000000000000000000000000000000000000000000000000000000000000000000000000000000000000000000000000000000000000000000000000000000000000000000000000000000000000000000000000000000000000000000000000000000000000000000000000000000000000000000000000000000000000000000011100000000000000000000000000000000000000000000000000000000000000000000000000000000000000000000000000000000000000000000000000000100000000000000000000000000000000000000000000000000000000000000000000000010100000000000000000000000000000000000000000000000000000000000000000000000000000000000100000000000000000000000000000000000000010100000000000000000000000000000000000000000000000000000000000000000000000011000000000111000000000000000000000000000000000000000000000000000000000000000000000001000000000000000000000000000000000000000101000000000000000000000000000000000000000000000000000000011000000000000000000000000000000000000000000000000000000000000000000000000000110000000000000000000000010000000000000000000000000000000000000000100000000000000000000000000000000000000000000000000000001001000000000000000000000000010010000000000000000000000000000000000000000000010010000000000000000000000000000000000000000000000000000000000000000000000000000000000000000000000000000000000000000000000010100000000000110000000111000000000000000000000000000000000000000000000000000101000000000000000000011100011100000000000000000000000000000000000000000000000000000001000000000000000000000000000000000000010000000000001100000110111100010000000000000000000000000000000000000000000000100000000000000000000000000000000000000000000000000000000000000000000000000000000000111000000000000000000000000000000000000000000000000000000001110000001000000000000000000000000000000000000000000000000000000000000000000000000000000000000000000000000000000000000000000000000000000000011000100000000000000000000000011000000000000000000000000000010000100100000000000000000000000000000000000000000000000000000000000000000000000000000000000000000000000000000000000000000000000000000000001000111100000000000000000000000110000000000000000000000000000110001000000000000000000000000000000000000000000000000000000000000000000000000000000000001100000000000000000000000000000000000000000000000110000111100000000000000000000000000000000000000000000000000000010011000000000000000000000000000000000000000000000000000000000000000000000000000000000011000000000000000000000000000000000000000000000011100000000000000000000000000000000000000000000000000000000000000001100000000000000000000000000000000000000000000000000000000000000000000000011000000011001100000000000000000000000000000000000000000000011000000010010000000000000000000000000000000000000000000000000000010000000000000000000000000000000000000000000000000000000000000000000000000100110000011011000000000000000000000000000000000000000000000010001100100100000000000000000000000000000000000000000000000000000000000000000000000000000000000000110000000000000000000000000000000000000011000011101000011000000000000000000000000000000000000000000000011001000111000000000000000000000000000000000000000000000000000000000000000000000000000000000000010010000000000000000000000000000000000001100000010011101100000000000000000000000000000000000000000000000011100000000000000000000000000000000000000000000000000000000000000000000000000000000000000000000100100000000000000000000000000000000000001100000010001110000000000000000000000000000000000000000000000000010000000000000000000000000000000000000011100000000000000000000000000000000000000000000001110000110000000000000000000000000000000000000001101000000011000000000000000000000000000000000000000000000000000000000110000000000000000000000000000000111000000000000000000000000000000000000010000000000000000000000000000000000000000000000000000000001010000000000000000000000000000000000001000000000000000000000000000010100001100000000000000000000000011011000000000011000000000000000000000000100000000000000000000000000000000000000000000000000000000001000000000000000000000000000000000000101000000000000000000000000000010000011000000000000000000000000011100000000000000000000000000000000000001000000000000000000000000000000000000000000000000000000000010000000000000000000000000000000000001010000000000000000000000000000000000000000000000000000000000000111000000000000000000000000000000000000000000000110000000000000011000000000000000000000000000000000000000000000000000000000000000000000001000000000000000000110000000000000000000000000000000000000000000100000000000001000000000000000000000000000000001100000000000001001000000000000000000000000000000000000000000000000000000000000000000000000000000000000000001010000000000000000000000000000000000000000000000000000000011000000010000000000000001000000000000000000000010100000000000000000000000000000000000000000000000000000100000000000000000000000000000000000001000000000000000000000000000000000000000000000000000001000000000001010000000000001111000000000000000000000010000000000000000000000000000000000000000000000000000001000000000000000000000000000000000000000000000000000000000000000000000001000000000000010000010000010000010010000000000100010000000000000000000000000000000000000000000000000000000000000000000000000000000000000000000000000000000000000000000000000010000000000000000000000000101000000000001010000011000000000011000000000001001000000000000000000000000000000000000000000000000001000000000000000000011000000000000000000000000000000000000000000000000001010000000000000000000000001010000000000000100000000110000000000000000000001110000000000000000000000000011000000000000000000000010000000000000000001111100000001110000000000000000000000000000000000100010100000000000000000000000001000000000001100000011110000000000000000000000000000000000000000000000000000110000000000000000000000100000000000000000101001000000000000000000000000000000000000000000010100010000000000000000000000000000000001110011010001000000000000000001100000000000000000000000000000000000000000000000000000000000000000000000000000001000010010000000000000000000000000000000000000000101000000000000000000000000000000000000000000001100001000000000000000010100000000000000000000000000010000000000000000000000000000000000000000000000000001001100100000000000000000000000000000000000000000100000000000000000000000000000000000000000000000000010000000000000000010000000000000000000000000001010000000000000000000000000000000000000000000000010010011001001110000000000000000000000000000000000000000000000000000000000000000000000000000000000000000000000000000000000000000000000000000000000000010010000000000000000000000000000000000000000000000011100111000011011000000000000000000000000000001100000001100000000000000000000000000000000000000000000000000000000000000000000000000000000000000011000011000000000000000000000000000000000000000000000000001101100000110101000000000000000000000000000011000000100100000000000000101000000000000000000000000000000000000000000000000000000000000000000000110000000000000000000000000000000000000000000000000000000010110000000001010000000000000000000000000000000000000110000000001000100010000000000000000000000000000000011000000000000000000000000000000000000000000000000000000000000000000000000000000000000000000000011000000000000100000000000000000000000000000000000000000000000010000001000000000000000000000000000000000110000000000000000000000000000000010000000000000000000000000000000000000000000000000000000000000000000000000000000000000000000000000000000011000000000000010000000000000000000000000000000000000000000000000000000000000000000000000000000100000000000000000000000000000000000000000000000000000000000000000000000000000000000000000000000000000011010000000000001011001011000100000000000000000000000000000000000000000000000001000000000000000001000000000000000000000000000000000000000000000000000000000000000000001000000000000000000000000000000000010000000000011010110000000000100000000000000000000000000000000000000000000000010000000000000000000000000000000000000000000000000000000000000000000000000000000000000101010000000000000000000000000000000000000011100000100100000010001000000000000000000000000000000000000000000000000100000000100000000001110000000000000000000000000000000000000000000000000000000000000000111100000000000000000000000000000010001100010010001001100000000000000000000000000000000000000000000000000000000000000000011010000000000000000000000000000000000000000000000000000000000000000000000000000110000000000000000000000000000000100110001100100010111010001000000000000000000000000000000000000000000000000000000000001100110000010000000000000000000000000000110000000000000000000000000000000000000000000000000000110000000000000000001000011000001000100010010000101100000000000000000000000000000000000000000000000000000011100110000100000000000000110000000000001100000000000000000000000000000000000000000000000000001100000000000000000000000000000001001010001100000011000000000000000000000000000000000000000000000000000000100000010001000000000000001100000000000000000000000110000000000000000000000000000000000000000000000000000000000000010000000000000000000111000110110000000000000000000000000000000000000000000000000000001000101100000000000000000000000000000000000000000001010000000000000000000000000000000000000000000000000000000000001101000000000000001101011000000000000000000000000000000000000000000000000000000000000010001010000000000000000000000000000000000000000000010000000000000000000000000000000001110000000000000000000000000000110000000000101111001100000000000000000000000000000000000000000000000000000000000000010000000000000000000000000110000011000000000000000000000000000000000000011000000000000000000000000000000000000000000000000000000100011001100100000000000000000000000000000000000000000000000000000000000000000000000000000001100010010000110000000000000000000000000000000000000101000000000000000000000000000000000000000000000000000000000010100001000000000000000000000000000000000000000000000000000000001100010000000000000000011000010100000000000000000000000000000000000000000000100000000000000000000000000000000000000000000000000000000000001000000000000000000000000000000000000000000000011000000000000100000000000000000000000000000010000000000000000000000000000000000000000000000000000000000000000000000000000000000000000000000000000000000000101000000000000000000000000000000000000000001001000000000000000000000000000000000000000000000000000000000000000000000001000000000000000000000000000000000000000000000000000000000000000000000000000000001010000000000000000000000000000000000000000010010000000000001001000000100000000000000000000000000000000000000000110000101000000000000000000000000000000000000000000000000000000000000000000000000000000011100000000000000000000000000000110000000000011000000000000000100000001000000000000000000000000000000000000000001100010001000000000000000000000000000000000000000001100000111000000000000000000000000000000000000000000000000000000000001100000000000000000000000000000000000010000000000000000000000000000000000000000000000001000000000000000000000000001100000000000000011000000000000000000000000000000000000000000000000000000000000000000000000000000000000000000000000000000000000000000000000000000000000000000000000000000000000000000000000000000000000100100000000000000000000000000000000000000000000000000000000000000000000000000000000000000000000000000000000000000000000000000000000000000000000000000000000000000000000000000000000000000000000000000000110000000000000000000000000000000000000000000000000000000000000000000000000000000000000000000000000000000000000011100000000000000000000000000000100000000000000000000000000000000000000000000000000000000000000000000000000000000000000000000000000000000000000000000000000000000000000000000000000000000000000000000001000100000000000000000000000000010100000000000000000000000001000000000000000000000000000000000000000000000000000000000000001000000000000000000000000000000000000000000000000000000000000000000000000000100000100000000000000000000000000101000000000000000000000000010000000000000000000000000000000000000000000000000000000000000010000000000000000000000000000000000000000000000000000000000110000000000000000100000000000000001000000000000000100000000000000000000000000000000010000000000000000000000000000000000000000000000000000000100000000110000000000000000000000000000000000000000000000010010000000000000000000000000000000110000000000000000000000000000000000000000000000011110000000000110000000000000000000000000000000000000000000000000010010000000000000000000000000000000000000000000000011000000000000000001000000000000000100000000000000000001101110000000000000000000001101010000000010010000000000000000000000000000000000000000000000000101000000000000000000000000000000000000000000000000000000000000000111001010000000000000000000000000000000101010110000000000000000000101000110000000011000000000000000000000000000000000000000000000000000100000000100000000000000000000000000000000000000000000000000000001001001000000000001100000000000000000011000000110000000000000000011000101011100000000000000000000000000000000000000000000000000000000000000010000000000000000000000000000000000000000000000000000000000100000000000000000011010000000000110000011000011000000000000000000010101100000000000000000000000000000000000000000000000000000000000000000000000010000000000000000000000000000000000000000000000000000001101010000000000001111100000000010010000000000100000000000000000000011110000000000000000000000000000000000000000000000000000000000110000000010101000000000000000000000000000000000000000000000000000000011010110000000000110010000000000011000000000000000000000000000000000010000000000000000000000000000000000000000000000000000000000001100000000010100000000000000000000000000000000000000000000000000000000000101000011100000111000000000000000000000000000000000000000000000000000000000000000000000000000000000000000001100000000000000000000000000001000100000000000000001000000000000000000000000000000000000000011100000000000000100000000000000000000000000000000000000000000000000000000000000000000000000000000000000000011000000000000000000000000000000001000000000000000101000000000000000000000000000000000000110110000000000000000000000000000000000000000000000001000000000001000000000000000000000000000000000000000000000000000000000000000000000000000100010000000000000000100000000000000000000000000000000000001101110000000000000000000000000000000000000000011000010000000000100000000000000000000000000000000000000000000000000000000000000000000001100001000100000000000000000000000000000000000000000000000000000011000110000000000000000000000000000000000000001010000100000000010010000000000000000000000000000000000000000000000000000000000000000000100001100001000000000000000000000000000000000000000000000000000000001101010000000000000000000000000000000000000000000000000000000010011100000000000000000000000000000000000000000000000000000000000000001001101010011000000000000000000000000000000000000000000000000000000011001010000000000000000000000000000000000000000000000000000000001001000000011000000000000000000000000000000000000000000000000000000010100101110110000000000000000000000000000000000000000000000000000000000111010000000000000000000000000000000001110000000000000000000011100000000110000000000000000000000000000000000000000000000000000000000010000011100000000000000000000000000000000000000000000000000000000000001000000000000000000000000000000000011100000000000000000000010000000000000000000000000000000000000000000000000000000000000000000100100000000000000000000000000000000000000000000000000000000000000000000000000000000000000000000000000000000100000000000000000000000000000000000000000000000000000000000000000000000000000000000000000000110000000000000000000000000000000000000000000000000000000000000000000000000000000000000000000000000000000000000000000000000000000000000110000000000000000000000000000000000000000000000000000000000000000000000000000000000000000000000000000001000000000000000000000110000000000000001100000000000000000000000000000000000000000000000000000010010000000000000000000000000000000000000000000000000000000000000000000000000000000000000000000000000000101000000000000000000001100000001010000100100000000000000000000000010000000000000000000000000000100100000000000000000000000000000000000000000000000000000000000000000000000000000000000000000000000000001010000000000000000000000000000010001001001100000000000000000000000100000000000000000000000000000110000000000000000000000000000000000011100000011110000000000000000000000000000000000000000000000000000001000000000000000000000000000000100001011011000000000000000000000001000000000000000000000000000000000000000000000000000000000000000001001000001100100011000000000000000000000000000000000000000000000000000000000000000000000000100000000000011110100000000000000000000000000000000000000000000000000000000000000000000000000000000000000000011000100110010001001000000110000000000000000000000000000000000000000000000000000000000001000101100000010000011100000000000000000000000000000000000000000000000001100000000000000000000000000000000000000000111000100100010100000011000000000000000000000000000000000000000100000000000000000000100011100101100101000011000000000000000000000000000000000000000000000000100100000000000000000000000000000000000000000100000110000010000000001000000000000000000000000000000000000001000000000000000000001000000001001100000100000000000000000000000000000000000000000000000000000110000000000000000000000000000000000000000000000000000000000000000000000000000000000001000000000000000000010000000000000000000011000001111001001111000000000000000000000000000000000000000000000000000000000000000000000000000000000000000000000000000100000011100000000000000000000000000000010000000000000000000000000000000000000000000000000010001000001000000000000000000000000000000000000000000000000000000000000000000000000000000000000000000001011111100000100100000000000000000000000000000100000000000000000000000000000000000000000010010010101100000010000000000000000000000000000000000000000000000000000000000000000000000000000000000000000000100000000100010011000001100000000000000000000000000000000000000000000000000000000000000000000000110000000000110000000000000000000000000000000000000000000000000000000000000000000000000000000000000000000100000010000000110000011000000000000011000111000111000000000000000000000000000000000000000000000000000000000000001000000000000000001000000000000000000000000000000000000000000000000010000000000000000000000000100011000000000000000000000000110000000000000000000000000000000000000000000000000000000000000000000100000111000000000000000101000000000000000000000000000000000000000000000000100000000000000000000001010000010010000000000000000000000000000001000000000000000000000000000000000000000000000000000000000001101000001000000000000001001000000000000000000000000000000000000000000000001000000000000000000000000000000011000000000000000000000000000000010000000000000000000000000000000000000000000000000000000000000000001110000000000000001100000000000000110000000000000000000000000000000000000000000000000000000000010000110000000000000000000000000000000100000000000000000000000000000000000000000000000000000000000000011011000000000000000000000000000000010100000000000000000000000000000000000000000000000000000000001110011100000000000000000000111000000000000000000000000000000000000000000000000000000000000000000000000001000000000000000000000000000000001101000000000000000000000000000000000000000000000000000000000110100111000000000000000000010000000000000000000000000000000000000000000000000000000000000000000000000000000001110000000000000000000000001101000000000000011100000000000000000000000000000000000000000011000001000011100000000000000000000000000000000000000000000000000001100000000000000000000000000000000000000000000000000000000000000000001101100000000000000000000000000000000000000000000000000000000000011010000100001000000000000000011000000000000000000000000000000000011000000000000000000000000000000000000000010000010000000000000000000011100000000000000000000100000000000000000000000000000000000000000011100010001110000000000110000000000000000000000000000000000000000000000000000000000000000000000000000000000100000100000000000000000000110000000000000000000001000000000000000000000000000000000111000000010000011000101000000011000001100000000000000000000000000000000000000000000000000000000000000000000000000001000001000000000000000110000000000000000000000000010000000000010000000000000000000000000000000000000011111101000000011111001000000000000000000000000000000000000000000000000000011000000000000000000000000000000000000000000000011100000000000001100000000000000000001010000000000000000000000000000000000000011001010000001111100010000000000000000000000000000000000000000000000110000110000000000000000000000000000000000000000000111000000010000000011000000000000000000010100000000000000000000000000000000000000000011000000110000001000000000000000000000000000000000110000000000001100000000000000000000000000000000000000000000000001110000000110000000000000000000000000000010000000000000000000000000011100000000000000000000010010001100000000000000000000000000000000001100000000011000000000000000000000000000000000000000000000000000000111011000110000000000000000000000000000000000000000000000000000001100000000000000000000000011000000000000000000000000000000000000000000000000000101000000000000000000000000000000000000000000000000000000111000100110010100000000000000000000000000000000000000000000000010000000000000000000000000000000000000000000010100000000000000001100000000000000010000000000000000000000000011100000000000000000000000000010000000000100100000000000000000000000000000000000000000000011100000000110000000000000000000000000000000000010000000000000000000100000000000001100011000000000000000000000000000000000000000000000000000011100000001010000011000000000000000000000000000000000000000000000000001011000000000000000000000000000000000000000000000000000110000000011000000001001000000000000000000000000100000000000000000000000000000000000000000000011000000000000000000000000000000000000000000000001010000000000000000000000000000000000000000000000000000000000000000110000000001010000000000000000000000001000000000000000000000000000100000000000000000000000000000000000000000000000000000000000000110000000000000000000000000000000000000000000000000000000000000010000010010000000001000000000000000000000000010000000000000000000000000011000000000000000000000000000000000000000000000000000000000000010101001011000000000000000000000000000000000000000000000000000000100001110000000000000000000000000000000000000000000000000000000000000001000000000000000000000000000000000000000000000000000000000000000100000001000000000000000000000000000000000000000000000000000000000000011100000000000000000000000000000000000000000000000000000000000000010101011000000011000000000000000000000000000000000000000000000001010000000000000000000000000000000001100000000000000000000000000000000000000000000000000000000000000000000000000000000000000000000000000011010110000000000000000000000000000000000000000000000000000000000100000000000000000000000000000000011000000000000000000000000000000000000000000000000000000000000000000000000000000000000000000000000000010101100001110000000000000000000000000000000000000000000000001000000000000000000000000000000000000000000000000000000000000000000000000000000000000000000000000000000000000000000000000000000000000000000000000000100001000000000000000000000000000000000000000000000011000000000000000000000000000000000000000000000001100000000000000000000000000000000000000000000000000000000000000000000000000000000000000000000000001000001000000000000000000000000000000000000000000000000000000000000000000000000000000000000000000000011000000000000000000000000000000000000000000000000000000000000000000000000000000000000000000000000010001010000000000000000000000000000000000000000000000000000000000000000000000000000000000000000000000000000000000000000000000000000000000000000000000000000000000000000000000000000000000000000000000000011100000000000000000000000000000000000000000000000000000000000000000000000000000000000000000000000000000000000000000000011000000000000000000000000000000000000000000000000000000000000000000000000001100000000000000000000000000000000000000000000000000000000000000000000000000000000000000000000000000000000000000000000000000110000000000000000000000000000000000000000000000000000000000000000000000000011000000000000000000000000000000000000000000000000000000000000000000000000000000000000000000000000000000000000000000000000000000000000000000000000000000000010000000000000000000000000000000000000000000000000000000000000000000000000000000000000000000000000000000000000000000000000000000000000110000000000000000000000000000000000000000000000000000000000000001010000000000000000000000000000000000000000000000000000000000000000000000000000000000000000000000000000000000000000000000000000000000001010000000000000000000000000000000000000000000000000000000000000010100000000000000000000000000000000000000000000000000000000000000000000000000000000000000000000000000000000000011000000000000000000000001000000000000000000000000000000000000000000000000000000000000000010000000000000000000000000000000001100000000000000000000000000000000000000000000000000000000000000000000000001001000000001100000011000000000000000000000000000000000000000000000000000000000000000000000000000000000000000000000000000000011000000000000000000000000011000000000000000000000000000000000000000000000001100000000011000001001000000000000000000000000000000000000000000000000111000000000000110000000110000000000000000000000000000000000000000000000000000000110000000000000000000100000000000000000000000000000000000000000000010100000000000000000000000000000000000000000000000000000000000000001100000010010000000000000000000000000000000000000000000000000000000000000000000000000010100000000000000000000000000000000000000000000010000000000000000000000000000000000000000000000000000000000000000000000000011000000000000000000000000000000000000000000000000000000000000000000000000000101000000000000000000000000000000000000000000000000000000000000000000000000000000000000000000000000000000000000000000000000000000000000000000000000000000000000000000000000000000000000000000000000000000100000000000000000000000000000000000000000000000000000000000000000000000000000000110000000000000000000000000000000000000000000000000000000000000000000000000000000000000000000000000000000000000000000000001000000000000000000000000000000000000000000000000000000000000000000000000000010010000000000000000000000000000000000000000000000000000000000000000000000000000000000000000000000000000000000000000000000010000000000000000000000000000000000000000000000000000000000000000000000000000101000000000000000000000000000000000000000000000000000000000000000000000000000001110000000000000000000000000000000000000000100000000000000000000000000000000000000000000000000000000000000000000000000000100000000000000000000000000000000000000000000000000000000000000000000000000000000000000000000000000000000000000000000000000000000000000000000000000000000000000000000000000000000000000000000000000000000000000000000000000000000000000000010000000000000000001100110000000000000000000000000000000000000000000000000000000000111000111000000000000000000000001000000000000000000000000000000000000000000000000000000000000000000000000001110000001110000000000000000011001100000000000000000000000000000000000000000000000000000000001000000000000000000000000000000101000000000000000000000000000000000000000000000000000000001100000000000000000000000100110000000000001100000000000000000000000000000000000000000000000000000000000000001110001000000000000000000000000001010000110000000000000000000000000000000000000000000000000100100000000000000000000001100000000000000011000000000000100000000000000000000000000000000000000000000000000011000010000000000000000000000000001000010010000000000000000000000000000000000000000000000001010000000000000000000000000100000000000000000000000000010100000000000000000000000000000000000000000000000000000000100000000000011000000100000000000011000000000000000000000000000000000000000001000000001000000000000000000000000000000000000000000000000000000101000000000000000000000000000000000000000000000000000000000000000000001010000011000000000000000000000000000000000000000000000000000000101000000000000000000000000000001100001110000000000000000000000000100000000000000000000000000000001000000000000000000000000000000000000010000000110000000000000000000000000110000000000000000000000000000110000000000000000000000000000111000001000000100000000000000000000000000000000000011000000000000101000000000000000000000000000000011000000000000000000000000000000000000010100000000000000000000000000000000000000000000000000000000001100000000000011100000000000000000000000000000000000110000000000011100000000000000000000000000000001001000000000000000000000000000000000000010000000000000000000000000000000000000000000000000000000000000000000000001001000000000000000000000000000000000000000000000000000000000000000000000000000000000010100000000000000000000000000000000000000000000000000000000000000000000000000000000000000000000000000001011000000110110000000000000000000000000000000000000000000000000000000000000000000000000000000000010000000000000000111000000000000000000000000000000000000000000000000000000000000000000000000000000000011100000011000000000000000000000000000000000000000000000000000000000001000000000000000000000000000000000000000000001000000000000000000000000000000000000000000000000000000000000000000000000000000000000010000000011001010100000000000000000000000000000000000000000000000001100000000000000000000000000000000000000000000001000000000000000000000000000000000000000000000000000000000000000000000000000000000000000000000000010001000000000000000000000000000000000000000000000000011100000000000000000010000000000000000000000000110000000000001100000011000000000000001100000000000000000000000000000000000000000000000000000001110100010000000000000000000000000000000000000000000000000110000000010000000001010000000000000000000000100100000000000011000000110000000000000100100000000000000000000000000000000000000000000000000000011100010000000000000000000000000000000000000000100000000000000000000100000110000000000000000000000000001000100000000000000001000000000000000000101000000000000000000000000000000000000000000000000000000101000000000000000000000000000100000000000000010100000000110000000001000001001001110000000000000000000010010000000000000000101000000000000001000100000000001000000000000000000000000000000000000000000000001000000000000000000000000001000000000000000011000000011000001110000000011000110010000000000011001100000000000000000000001001000000000000011000000000000101000000000000000000000000000000000001100000100000111000000000000000000000010000000000000000000000000011000001100000000011011110000000000010001001000000000000000000000001100000000000001001000000000001010000000000000000000000000000000000100100000110000001000000000000000000000000000000000000000000000000000000000000000000000000101100000000000101010000000000000000000000000000000000000000110000000000001000000000000000000000000000000000000000110000001000010000000000000000000000000000000000000000000000000000000000000000000001110010110000010000111000000001000000000000000000000000000001101000000000000000000000000000000000000000000000000010000000010001111000000000000000000000000000000000000000000000000000000000000000000000000000111110000100000000000000010100000000000000000000000000010000000000000000000000000000000000000000000000000000000100001011000000000000000000000000000000000000000000000000000000000000000000000000000000000000110010010000000000000101000000000000000000000000001101100000000000000000000000000000000000000000000000001001010111100000000000000000000000000000000000000000000000000000000000000000000000000000000001111000100100000000000000000000000000000000000000000010011000000000000000000000000000000000000000000000000010011100000000000000000000000000000000000000000000000000000000000000000000000000000000000110011100000110000000000000000000000000000000000000000000011000000000000000000000000000000000000000000000000000100111100000000000000000000000000000000000000000000000000001110000000000000000000110000001000000000000000000000000000000000000000000000000000000000000010000000000000000001000000000000000000000000000000011111000000000000000000000000000000000000000000000000000010010000000000011000001100000001001000000000000000000000000000000000000000000000000000000001100000000000000000101000000000000000000000000000000100110000000000000000000000000000000000000000000000000000011000000000000110000000000000000000000000000000000000000111000011000000000000000000000000100100000000000000001010000000000000000000000000000000111000000000000000000000000000000000000000000000000000000000000000000000000000000000000000000000000000000000000001010001001000000000000000000000000110000000000000000001000000000000000000000000000000001100000000000000000000000000000000000000000000000000000000000000000000000000000000000000000000000001000000100000001100010100000000000000000000000000100000000000000000000000000000000000000000000000000000000000000000000000000110000000000000000000000000000000000000000000000000000000000000000000000000010000011000000000000010000000000000000000000000000000000000000000000000000000000000000000000000000010000000000000000000000001100000000000000000000000000000000000000000000000000000000000000000000000000100000101000000000000000000000000000000000000000000000000000000000000000000000000000000000000000000100000000000000000000000000000000000000000000000000000111000000000000000000000011000000000000000000000000000000000000000000000000000000000000000000000000000000000000000000000000000000000000000000000001000000000000000000000000000000000000000000000000000000000000000000000000000001001000000001100000000000000000000000000000000000000000000000000000000000000000000000000000000000000000000000000000000000000000000000000000000000000000000000000000000000000000000000000000000000000000010010000000101000000000000000000000000000000000000000000000000000000000000000000000000000000000000000000000000000000000000000000000000000000000000000000000000000000000000000000000000000000000000000000011000000000100000000000000000000000000000000000000000000000000000000000000000000000000000000000000000000000000000000000000000000000000000000000000000001100000000000000000000000000000000000000000000000000000000000000000000000000000000000000000000000000000000000000000000000000000000000000000000000000000000000000000000000000000000000000000110000000000100100000000000000000000000000000000000000000000000000000000000000000000100000000000000000000000000000000000000000000000000000000000000000000000000000000000000000000000000000000000000000001100000000000110000000000000000000000000000000000000000000000000000000000000000000010100000000000000000000000000000000000000000000000000000000000000000000000000000000000000000000000000000000000000000000000000000000000000000000000000000000000000000000000000000000000000000000000000001010000000000000000000000000000000000000000000000000000000000000000000000000000000000000000000000000000000000000000000000000000000000000000000000000000000000000000000000000000000000000000000000000000101000000000000000000000000000000000000000000000000000000000000000000000000000000000000000000000000000000000000000000000000000000000000000000000000000000000000000000000000000000000000000000000000000000100000000000000000000000110000000000000000000000000000000000000000000000000000000000000000000000000010000000000000000000000000000000000000000000000000000000000000000000000000000000000000000000000000000000000000000000000000001100000000000000000000000000000000000000000000000000000000000000000000000000100000000000000000000000000000000000000000000000000000000000000000000000000000000000000000000000000000000000000000000000000000000000000000000000000000000000000000000000000000000000000000000000000000001000000000000000000000000000001000000000000000000000000000000000000000000000000000000000000000000000000000000000000000000000000000000000000000000000000000000000000000000000000000000000000000000000000000000000000000000000000000000101000000000000000000000000000000000000000000000000000000000000000000000000000000000000000000000000000000000000000000000000000000000000000000000000000000000000000000000000000000000000000000000000000001010000000000000000000000000000000000000000000000000000000000000000000000000000000000000000000000000000000000000000000000000000000000000000000000000000000000000000000000000000000000000000000000000000001000000000000000000000000000000000000000000000000000000000000000000000000000000000000000000000000000000000000000000000000000000000000000000000000000000000000000000000011100000000000000000000000000000000000000000000000000000000000000000000000000110000000000000000000000000000000000000000000000000000000000000000000000000000000000000000000000000000000000000000000000000000000000000000000000000000000000000000000000000011000000000000000000000000001100000000000000000000000000000000010010000000000000000000000000000000000000000000000000000000000000000000000000000000000000000000000000000000000000000000000000000000000000110000111000000000000000000000000000000000000000000000000000001000110000011000000000000000000000000000000000000000000000000000000000000000000000000000000000000110000000000000000000000011000000000000000000000000000000000000000000000000000000000000000000000000000010001000000110000000000000000000000000000000000000000000000000000000000000000000000000000000000001010000000000000000000000110000000000000000000000000000000000000000000000000000000000000000000000000000100010000000000000000000000000000000000000000000000000000000000000000000000000000000000000000000001100000000000000000000000000000000000000000000000000000000000000000000000000000000000000000000000000000100100000000000000000000000000000000000000000000000000000000000000000000000000000000000000000000000000000000000000000000000000000000000000000000000000000000000000000000000000000000000000000000000000000010000000000000000000000000000000000000000000000000000000000000000000000000