P1
200 200
0000000000000000000000000000000000000000000000000000000000000000000000000000000000000000001001010000000000000000100000000000000000000000000000000000000000000000000000000000000000000000010000000000000001110000000000000000000000000000000000000000000000000000000000000000000000000000000000000111100100000000010000010100000000000000000000000000000000000000000000000000000000000000000000001010000000000000100010000000000000000000000000000000000000000000000000000000000000000000000000000000000001101110000000001010000100100000000100000000000000000000000000000000000000000000000000000000000010100000000000001000100000000000000000000000000000000000000000000000000000000000000000000000000000000000000000000000000011000000110000000010100000000000000000000000000000000000100000000000000000000000010000000000000010001000000000000000000000000000000000000000000000000000000000000000000000000000000000000001100000000000000000000000000000101000000000000000000000000000011100010100000000000000000000000000000000000000011100000000000000000000000000000000000000000000000000000000000000000000000000011000000000010000000000000000000000000000000100000000000000000000000000000000000100100000000000000000000000000000100000000000000000000000000000000000000000000000000000000000000000000000000000000000000110000000000100000000000000000000000000000000000000000000000000000000000000000000110000000000000000000000000000011100000001110000000000000000000000000000000000000000000000000000000000000000000000000000000000000000000000000000000000000000001100000001100000000000000000000000000000000000000000001100000000000000000100100000100010000000000000000000000000000000000000000000000000000000000000000000000000000000000000000000000000000000000000000100100000100100000000000000000000000000000000000000000011000000000000000001101100001000100000000000000000000000000000000000000000000000000000000000000000000000000000000000000000000000000000000000000000110000000110000000000000000000000000000000000000000000000000000000000000101010000010001000000000000000000000000000000000000000000000000000000000000000000000000000000000000000000000000000000000000000000000000000000000000000000000000000000000000000000000000000000000000000001000100000011100000000000000000000000000000000000000000000000000000000000000000000000000000000000000000000000000000000000000000000000100000000000000000000000000000000000000000000000000000000000000000010010000000000000000000000000000000000000000000000000000000000000000000000000000000000000000100000000000000000000000000000000000000010100000000000000000000000000000000000000000000000000000000000000000011100000000000000000000000000000000000000000000000000000000000000000000000000000000000000001000000000000000000000000000000000000000101000000000000000000000000000000000000000000000000000000000000000000000000000000000000000000000000000000000000000000000000000000000000110000000000000000000000010000000000000000000000000000000000000000100000000000000000000000000000000000000000000000000000000000000001110000000000000000000000000000000000000000000000000000000000000000010010000000000000000000000000000000000000000000000000000000000000000000000000000000000000000000000000000000000000000000000000000001100100000000000000000000000000000000000000000000000000000000000000000101000000000000000000011100011100000000000000000000000000000000000000000000000000000000000000000000000000000000000000000000000000010011000000000000000000000000000000000000000000000000000000000000000000100000000000000000000000000000000000000000000000000000000000000000000000000000000000000000000000000000000000000000000000000000000111000000000000000000000000000000000000000000000000000000000000000000000000000000000000000000000100000000000000000000000000000000000000000000000000000000000000000000000000000000000000000000001100000000000000000110000000000000000000000000000000000000000000000000000000000000000000000000000000000001000000000000000000000000000000000000000000000000000000000000000000000000000000000000000111000011000000000000000100100000000000000000000000000000000000000000000000000000000000000000000000000000000000010000000000000000000000000000000000000000000000000000000000000000000000000000000000000010000000000000000000000001110000000000000000000000000000000000000000000000000000000000000000000000000000000000000000000000000000000000000000000000000000000000000000000000000000000000000000000000000000001100000000110000000000010000000000000000000000000000000000000000000000000000000000000000000000000000000000000000000000000000000000000000000000000000000000000000000000000000000000000000000000000000000000000000001100000000000000000000000000000000000000000000000000000000000000000000000000000000000000000000000000000000000000000000000000000000000000000000000000000000000000000000000000000000000000000000000000000000000000000000000000000000000000000000000000000000000000110000000000000000000000000000000000000000000000100000000000000000000000000000000000000000000000000000000000000000000000000000000000000000000000000000000000000000000000000000000000000000000000000000010010000000000000000000000000000000000000000000001000000000000000000000000000000000000000000000000000000000000000000000000000000000000000000000000000000000000000010000000000000000000000000000000000000100100000000000000000000000000000000000000000000010000000000000000000000000000000000000000000000000000000000000010000000000000000000000000000000000000000000000001010000000000000000000000000000000000000110000000000000000000000000000000000000000000000000000000000000000000000000000000000000000000000000000000000001010000000000000000000000000000000000000000000000010100000000000000000000000000000000000000000000000000000000000000000000000000000000000000011100000000000000100000000000001000000000000000000000000000100100000110001000000000000000000000000000000000000010000000000000000000000000000000000110000000000000000000000000000000000000000000111000100000000000000000011110000000000101000000000000000000000000010110000001100010000000000000000000000000000000000000000000000000000000000000000000000001100000000000000000000000000000000000000000010010010110000000000000001000010000000001010000000000000000000000000111000000010111100000000000000000000000000000000000000000000000000000000000000000000000000000000000011000000000000000000000000000000010000101100000000000000001000010000000001000000000000000000000000001010000000011100000000000000000000000000000000000001000000000000000000000000000000000000000000000001001000000000000000000000000000000111000000000000000000000010000010000000000000000000000000000000000010100000000100010000000000000100000000000000000000010000000010000000000000000000000000000000000000010100000000000000000000000000000000000000000000000011000000011110100000000000000000000000000000000001111001110000111100000000000000110000000000000000001010000001010000000000000000000000000000000000000010000000000000000000000000000000000000000000000001001000000000000100000000000000000000000000000000010000000000000100000000000000000000000000000000000000000000010010000000000000000000000000000000000000000000000000000000000000000000000000000000000000001100000000100011000000000000000000000000000000000000000000000000000000000000000000000000000000000001100000000011000000000000000000000000000000000000000000000000000000000000000001000000000000000000000000000000010000100000000000000000000000000000000000110000000000000000000000000000000000000000000000000000000000000000000000000000000000000000000000000000011000000000000000000000010000000000000000000000000000001110101000000000000000000000000000000000000000000000000000000000000000000000000000000000000110000000000000000000000000000000000000000000000000000110000000000000000000000100000000000000000000000000000000000000000000000000000000000000000000000000000000000000000000000000000000001110000000000000000000000000000000000000000000000000000000000000000000000000000000000000000000000000000000000000000000000000000000001000000000000000000000000000000000000000000000000000000000110000000000000000000000000000000000000000000000011100000000000000000010000000000000000000000000000000000000000000000000000000000000000000011010000000000000000000000000000000100000000000000000000000010011000000000000000000000000000000000000000000000111100000000000000001010000000000000000000000000000000000000000000000000000000000000000000110000000000000000000000000000000010000000000000000000000000010110000000000000000000000000000000000000000000000000100000000000000010010000000000000000000000000000000000000000000000000000000010000000000000000000000000000000000000000000111000000000000000000000100000100000000000000000000000000000000000000000000000001100000000011000011000000000000000000000000000000000000000000000000000000000100000000000000000000000000000000000000000000000000000000000000000010100110000000000000000000000000000000000000000000000100100000000000110000000000000000000000000000000000000000000000000000000000000001000000000000000000000000000000000000000000000000000000000000000000100010000000000000000000000000011000000000000000000011101110000000000000000000000000000000000000000000000000000000000000000000000000000000000000000000000000000000000000000010000000000000000000000000000110100000000000000000000000000110000000000000000000010001100000000000000000000000000000000000000000000000000000000000000000000000000000000000000000000000000000000000000001110000000000000000000000000001110000000000000000000000000000000000000000000000000000101000000000000000000000000000000000000000000000000000000000000000000000000000000000000000000000000000000000000000011100000000000000000000000000000000000000000000000000000000000000000000000000000000101000010000000000000000000000000000000000000000000000000000000000000000000000010000000000000000000000000000000000000000000000000000000000000000000000000000000000000000000000000000000000000000000000001010001110000000000000000000000000000000000000000000000000000000000000000000000100000000000000000000100000000000001111111110000000000000000000000000000000000000000000000000000000000000000000000000000011100111110000000000000000000000000000000000000000000000000000000011000000000001000000000000000000010100000000110100101010010110000000000000000000000000000000000000000000000000000000000000000000000000110011000000000000000000000000000000000000000000000000000000000001010000000000000000000000000000000100100000010100001010100001010000000000000000000000000000000000000000000000000000000000000000000000010100101000000000000000000000000000000000110000000000000000000000000100000000000000000000000000110000110000000101001010101010010100000000000000000000000000000000000000000000000000000000000000000000000100000010000000000000000000110000000000001100000000000000000000000000000000000000000000000000001100000000000000000010110110100000000000000000000000000000000000000000000000000000000000000000000000000010000101100000000000000000001100000000000000000000000000000000000000000000000000000000000000000000000000000000000110000000000011000000000000000000000000000000000000000000000000000000000000000000000000010000000000000000000000000000000000000000000000000000000000011000000000000000000000000000000000000000000000000000111110001111100000000000000000000000000000000000000000000000000000000000000000000000000100010000000000000000000000000000000000000000000000000000000110000000000000000000000001110000000000000000000000000000000000000000000000000000000000000000000000000000000000000000000000000000000000000000001100000000000000000000000110000011000000000000000000000000000000000000110000000000000000000000000000000000100000000000000000000000000000000000000000000000000000000000000000000000000000000000000000000000000011100000000001100010010000110000000000000000000000000000000000001100000000000000000000000000000000010101000000000000000000000000000000000000000000000000000000000000000000000000000000000000000000000000111000000000011000010100000000000000000000000000000000000000000100100000000000000000000000000000000011110000000000000000000000000000000000000000000000000000000000000000000000011000000000000000000010100000000000000000000010000000000000000000000000000000000000000001100000000000000000000000000000000000000000000000000000000000000000000000000000000000000000000000000000000000001001000000000000000000101000000000000000000000000000000000000000000000000000000000000000010000110000000000000000000000000000000000000000000000000100000000000000000000000000000000000000000000000000000010010000000000000000001110000000000000000000000000000000000000000000000000000000000000000110101110000000000000000000000000000000000000000000000010100000000000000000000000000000000000000000110000000000011000000000000000000000000000000000000000000000000000000000000000000000000000000000000000100001100000000000000000000001100000000000000000100011110000000000000000000000000000000000000000001100000000000000000000000000000000000000000000000000000000000000000000000000000000001000000000000000001011110000001100000000000000011000000000000000110111111000000000000000000000000000000000000000000000000000000000000000000000000000000000000000000000000000000000000000000000000000001101000000000000000001110000000100100000000000000000000000000000000101001000000000000000000000000000000000000000000000000000000000000000000000000000000000000000000000000000000000000000000000000100000011000000000000000000000000000000110000000000000000000000000000000000100000000000000000000000000000000000000000000000000000000000000000000000000000000000000000010000000000000000000000000000000001000000000011000000000000000000000000000000000000000000000000000000000000000000000000000000000000000000000000000000000000000000000000000000000000000000000000000000000000000000000000000000000000000000010000001100110000000000000000000000000000000000000000000000000000000000000000000000000000000000000000000000000000000000000000000000000000000000000000000000000001110001000000000000000000000000000000000000000011110000000000000000000000000000000000000000000000000000000000000000001100000000000000000000000000000000000000000000000000000110000000000000000000000000010010100000000000000000000000000000000000000000100001000000000000000000000000000000000000000000000000000000000000000000100000000000000000000000000000000000000000000000000010010000000000000000000000000010001000000000000000000000000000000000000000001101110000000000000000110000000000000000000000000000000000000000000000110000000000000000000000000000000000000000000000000000011000000000000000000000000000011100000000000000000000000000000000000000100010010000000000000000010010000000000000000000000000000000000000000000000000000000000000000000000000000000000000000000000000000000000000000000000000000000000000000000000000000111000000000000000000001100110000000000000000000011000000000000000000000000000000000000000000000000000000000000000000000000000000000000000000000000000000000000000000000000000000000000000000000000000010001000000000000000000010001001000000000000000000000000000000000000000000000000000000000000010000000000000000000000000000000000000000000000000000000000000000000000000000000000000000000000000000000000110001000000000000000000000011011100000000000000000000000000000000000000000000000000000000001010000000000000000000000000000000000000000000000000000000000000000000000000000000000000000000000000000000000010010000000000000000000000100001000000000000000000000000000000000000000000000000000000000010100000000000000000000000000000000000000000000000000000000000000000000000000000000000000000000000000000000000011000000000000000000000001111000000000000000000000000000000000000000000000000000000000000010000000000011000000000000000000000000000000000000000000000000000000000000000000000000000000000000000000000000110000000000000000000000011001100000000000000000000000000000000000000000001100000000000000000000000000111000000000000000000001000000000000000000000000000000000000000000000000010000000000000000000000000000000000000000000000000000011000000000000000000000000000000000000000000011000000000000000000000011011011000000000000000000101000000000000000000000000000000000000000000000001110000000000000000000000000000000000000000000000001100000000000000000000000000000000000000000000000000000000000000000000000111010010000000000000000000100000000000000000000000000000000000000000000000110010000000000000000000000000000000000000000000000011010000000000000000000000000000000000000000000000000000000000000000000001011011100000000000000000000000000000000000000000000000000000000000000000010111100000000000000000000000000000000000000000000000001000000000000000000000000000000000000000000000000000000000000000000000000000000000000000000000000000000000000000000000000000000000000000000000000101000000000000000000000000000000010000000000000000000000000000000000000000000000000000000000000000000000000000000000000000000000000000000000000000000000000000000000000000000000000000000000000000000001110000000000000000000000000000000100001100000000000000000000000000011000000000000000000000000000000000000000000000000000000000000000000000000000000000000000000000000000000000000000000000000000000000000000000000000000000000000000000001000100100000000000000000000000000110000000000000000000000000000000000000000000000000000000000011100000000000000000000000000000000000000000000000000000000000000000011011000000000000000000000000000000000000110000000000000011000000000000000000000000000000000000000000000000000000000000000000000110010000000000000000000000000000000000000000000000000000000000000000000111110000000000000000000000000000000000000000000000000000110000000000000000000000000000000000000000000000000000000000000000000000111000000000000000000000000000000000000000000000000000000000000001000010011101110000000000000000000000000000000000000000000000000000000110000000000000000000000000000000000000000000000000000000000000000100000000000000000000000000000000000001000000000000000000000000101000110000000000000000000000000000000000000000000000000000000000000010010000000000000000000000000000000000000000000000000000000000000000000000000000000000000000000000000000101000000000000000000000010010000000000000000000000000000000000000010000000000000000000000000000100100000000000000000000000000000000000000000000000000000000000000000000000000000000000000000000000000001010000000000000000000000011000000001000000000000000000000000000000100000000000000000000000000000110000000000000000000000000000000000000000000000000000000000000000000000000000000000000000000000010000001000000000000000000000000000000000011000000000000000000000000000001000000000000000000000000000000000000000000000000000000000000000000000000000000000000010000000000000000000000000000000000011100010000000001100000000000000000000000100001010000000000000000000000000000000000000000000000000000000000000000000000000000000000000000000000000000000000000000001111000000000000000000000000000000000000000100000000011000000000000000000000110100001110000000000000000000000000000000000000000000000000000001100000000000000000000000000000000000000000000000000000000011011110000000000000000000000000000000000100000100001010000000000000000000010001100001100000000000000000000000000000000000000000000000000000100100000000000000000000000000000000000000000110000000000001100101010000000000000000000000000000000001000001000000000000000000000000000000010000111000000000000000000000000000000000000000000000000000000110000000000000000000000000000000000000000010010000000001111101010010000000000000000001000000000000010000010000000000000000000000000001000100010110000000000000000000000000000000000000000000000000000000000000000000000000000000000000000000000000010100000000111011110111000000000000000000010000000000000000000000000000000000000000000000000001000011000000000000000000000000000000000000000000000000000000000000000000000000000000000000000000000000000010000000010011010011010000000000000000000100000000000000000000000000000000000000000000000000010001000000000000000000000000000000000000000000000000000000000000000000000000000000000000000000000000000000000000000100010010000000000000000000000000000000000000000000000000000000000000000000000000000000001100000000000000000000000000000000000000000000000000000000000000000000000000000000000000000000000000000000000000010110010011000000000000000111000111000000000000000000000000110000000000000000000101000011000000000000000000000000001000000000000000000000000000000000000000000000000010000000000000000000000000000000000101000100000000000000000000000000000000000000000000000000001100000000000000000000100000000000000000000000000000000101000000000000000000000000000000000000000000000000100000000000000000000000000000001111000001001000000000000000000001000000000000000000000000000000000000000000000000000000000000000000000000000000000001001000000000000000000000000000000000000000000000001000000000000000000000000000000000110100011100000000000000000000010000000000000000000000000000000000000000000000000000000000000000000000000000000000001100000000000000000000000000000000000000000000000000000000000000000000000000000000001111100000000000000000000000000100000000000000000000000100000000000000000000000000000000000000000000000000000000000000000000000000000000000000000000000000000000000000000000000000000000000000000000000010011000000000000000000000000000000000000000000000000010100000000000000000000000000000000000000000000000000000000000000000000000000000000000000000000000000000000000000000000000000000000000000000000000011100000000000000000000000000000000000000000000000000101100000000000000000000000000000000000000000001110000000000000000000000000000000000000000000000000000000000000000000000000000000000000000000000000010000000000000000000000000000000000000000000000000000001000000000000000000000000000000000000000000000000000000000000000000000000000000000000000111000000000000000000000000000000000000000000000000000000000000000000000000000000000000000000000000000000011100011100000000000000000000000000000000000000010000010000000000000000000000000000000000000010001000000000000000000000000000000000000000000000000000000000000000000000000000000000000000001100000000000000100100000000000000000000000000000000000000000100000100000000000000000000000000000000000000100010000000000000000000000000000000000111000000000000000000000000000000000000000000000000000101100000000001101100000000000000000000000000000000000000000001000001000000000000000000100000000000000000001000100000000000010000000000000000000000000000000000000000100000100000000000000000000000000001001000000000000110110000000000000000011000000000000000000000000000000000000000000000010100000000000000000001110000000000001010000000000000000000000000000000000000001000001000000000000000000000000000011011011100000000000100100000000110000110000000000000000000000000000000000000000000000101000000000000000001000000000000000010100000000000000000000000000000000000000010000010001100000000000000000000000010011001000000000110000110000001100000000000000000000000000000010010000000000000000000100000000000000000001000000000000000010000000000000000000000000000000000000000000000000100100000000000000000000000010000010000000000010010000000000000000000000000000000000000000111100000000000000000000000000000000001101011000000000000000000000000000000000000000000000000000011100011100000110000000000000000000000000010011000000001101100000000000000000000000000000000000000000001001000000000000000000000000001100000000000000000000000000000000000000000000000000000000000000000000000000000000000000000000000000000000000011000000001101100000000000000000000000000000000000000011100000000000000000000000000000000011000000110000000000000000000000000000000000000000000000000000000000000100000000000000000000000000000000000000000000110000010010000000000000011000000000000000000000000000000000000000000000000000000000000000011000000000000000000000000000000000000000000000000000000000000001000000000000000000000000000000000000000000001100111000111000000000001001000000000000000000000000100000000000000000000000000000000000001100010100000000000000000000000000000000000000000000000000000000010000000000000000000000000000000000000000000000000000001000000000000001010000000000000000000000001000000000000000000000000000000000000110001000000000000000000000000000000000000000000000000000000000000000000000000000000000000000000000000000000000000000010110000000000000001000000000000000000000000010000000000000000000000000000000000000101011100000000000000000000000000000000000000000000000000000000000000000000000000000000000000000000000000000000000000101000000000000000000000000000000000000000000000000000000000000000000000000000000000110001000000000000000000000000000000000000000000000000000000000000000000000000000000000000000000000000000000000000000100000000000000000000000000000000000000000000000000000000000000000000000000000000000100000000000000000000000000000000000000000000000000010000000000000000000000000000000001100000000000000000000000000000000000000000000000000000000000000000000000000000000000000000000000000000000000000000000000000000000000000000000000000000000000000000001010000000000000000000000000000000011000000000000000000000000000000000000000000000000000000000000000000000000000000000000000000000000000000000000000000000000000000000000000000000000000000000000000000010100000000000000000000000000000000000000000000000000000000000000000000000000000000000000000000000000000000000000000000000000000000000000000000000000000000000000000000000000000000000000000000000000000010000000000000000000000000000000000000000000001100000000000000000000000000000000000000000000000000000000000000000000000000000000000000000000000000000000000000000000000000000000000000000000000000000000000000000000000000000000000000000000000000000011000000000000000010000000000000000000000000000000000000000000000000000000000000000000000000000000000000000000000000000000000000000000000000000000000000000000000000000000000000000000000000000000000000000000000000000001010000000000000000000000000000000000000000000000000000000000000000000000000000000000000000000000000000000000001000000000000000000000000000000000000000000000000000000000000000000000000000000000000000010100000000000000000000000000000000000000000000000000000000000000000000000000000000000000000000000000000000000101100000000000000000000000000000000000000000000000000000000000000000000000000000000000000010000000000000000000000000000000000000000000000000000000000000000000000000000000000000000000000000000000000011111000000000000000000000000000000000000000000000000000000000000000000000000000000000000000000000000000000000000000000000000000000000000000000000000000000000000000000000000000000000000000000000000001100001000000000000000000000000000000000000000000000000000000110000000000000000000000000000000000000000000000000000000000000001010000000000000000000000000000000000000000000000000000000000000000000000000000011000000000000000000000000000000000000000000000000000001010000000000000000000000000000000000000000000000000000000000000101010000000000000000000000000000000000000000000000000000000000000000000100000001100000000000000000000000000000011000000000000000000000001000000000000000000000000000000000000000000000000000000000000000000000000000000000000000000000000001100000000000000000000000000000000010100000010000000000000000000000000000001001000000001100000011000000000000000000000000000000000000000000000000000000000000000001000000010000000000000000000000000000011000000000000000000000000011000000101000010000000000000000000000000000000001100000000011000001001000000000000000000000000000000000000000000000000111000000000000100000000010000000000000000000000000000000000000000000000000000000110000000100001010000000000000000000000000000000000000000000000000010100000000000000000000000000000000000000000000000000000000000000000100000001000000000000000000000000000000000000000000000000000000000000000000000001000000000000000000000000000000000000000000000000000010000000000000000000000000000000000000000000000000000000000000000010000000001000000000000000000000000000000000000000000000000000000000000000000000000000000000000000000000000000000000000000000000000000000000000000000000000000000000000000000000000000000000000000000000010000000100000000000000000000000000000000000000000000000000000000000000000000000000000000000000000000000000000000000000000000000000000000000000000000000000000000000000110000000000000000000000000000000110000000000000000000000000000000000000000000000000000000000000000000000000000000000000000000000000000000000000000000110000000000000000000000000000000000000000000000010010000000000000000000000000000000000001000000000000000000000000000000000000000000000000000000000000000000000000000001000000000000000000000000000000000001110000000000000000000000000000000000000000000101000000000000000000000000000000000011100000000000000000000000000000000000000001110000000000000000000000000000000000101000000000000000000000000000000000011000000000000000000000000000000000000000000000100000000000000000000000000000000000000000000000000000000000000000000000000000000000000000000000000000000000000000000100000000000000000000000000000000000000000000000000000000000000000000000000000000000000000000000000000000000000000000000000000000000000001100110000000000000000000000000000000000000000000000000000000000000000000000000000000000000000001000000000000000000000000000000000000000000000000000000000000000000000000001110000000000000000000000000011001100000000000000000000000000000000000000000000000000000000000000000000000000000000000000000101000000000000000000000000000000000000000000000000000000001100000000000000000000000000000000000000001100000000000000000000000000000000000000000000000000000000000000000000000000000000000000000000000001010000110000000000000000000000000000000000000000000000000100100000000000000000000000000000000000000011000000000000100000000000000000000000000000000000000000000000000000000000000000000000000000000000001000010010000000000000000000000000000000000000000000000001010000000000000000000000000000000000000000000000000000010100000000000000000000000000000000000000000000000000000000000000000000000000000000000000000011000000000000000000000000000000000000000001000000001000000000000000000000000000000000000000000000000000000101000000000000000000000000000000000000000000000000000000000000000000000000000110000000000000000000000000000000000000000000000000000000101000000000000000000000000000000000000000000000000000000000000000100000000000000000000000000000000000000000000000000000000000000000000000000010010000000000000000000000000110000000000000000000000000000110000000000000000000000000000000000000000000000000000000000000000000000000000000011000000000000000000000000000000000000000000000001000000000100100000000000000000000000010100000000000000000000000000000000000000000000000000000000000001110000000000000000000000000000000000000000000000110000000000000000000000000000000000000000000000101000000000110000000000000000000000000010000000000000000000000000000000000000000000000000000000000000000000110000000000000000000000000000000000000000000000000000000000000000000000000000000000000000010010000000000000000000000000000000000000000000000000000000000000000000000000000000000000000000000000000000010010000000000000000000000000000000000000000000000000000000000000000000000000000000000000000011000000000000000000000000000000000000000000000000000000000000000000000000000000000000000000000000000000000101000000000000000000000000000000000000000000000000000000000000000000000000000000000000000000000000000000000000000000000000000000000000000000000000110000000110000000000000000000000000000000000000000000100000000000000000000000000000000000000000000000000000000000000000000000000111000000000000000000000000000000000000000000000000000000000000000000001110000011100000000000000000000000000000000000000011000000000000000000000000000000000000000000000000000000000000000000000000000001011000000000000000000000001100000000000000000100000000011000000000000000100000100000000000000000000000000000000000000000110000000000000000000000000000000000000000000000000000000000000000000000000100010011000000000000000000000100100000001100011110110000000110000000000011111000001100110000000000000000000000000000000000000000000000000000000000000000000000000000000000000000000000000000000000000011000011110000000000000000000000101000000111001000000100000000000000000001000010000010000100000000000000000000000000000000000000000000000110000000000000000000000000100000000000000000000000000000000001010001010000000000000000000000000100000010000110011111000000000000000000000001101110100011000000000000000000000000000000000000000000000001100000000000000000000000001000000000000000000000000000000000110000011000000000000000000000000000000000011101100100000000000000000000000000101000000000000000000000000000000000000000000000000001100000000000000000000000000000000010000000000000000000000000000000000110000011000000000000000000000000000000000001011010000000000000000000000000000110000001110000000000000000000000000000000000000000101100000000100000000000000000000000000000000000000000000000000000000000100001110000000000000000000000000000000000000000000000000000000000000000111000010000000000000000000000000000000000000000000000001000100000010100000000000000000000000000000000011000000000000000000000000000000000000000000000000000000000000000000000000000000000000000000010000000001000100000000000000000000000000001100000000000000011100010001001000000000000000000000000000000000110000000000000000000000000000000000000000000000000110000000000000000000000010000000000000001000110100000000000000000000000000000000000011000000000000000000110100001100000000000000000000000000000000000000000100000100000000000000000000000000000000000010010000000000000001000000110100000000000010000000101000010000000000000000000000000000000000000000000000000000000000000000000000000000000000000000000000000110110110110000000000000000000000000000000000100100110001100000010010100010100000000000000010000000010000000000000000000000000000000000000000000000000000000000000000000000000000000000000000000000000000010000010000000000000000000000000000000000000110001100100100000110000011011000000000000100011000000000000000000000000000000000000000000000000000000000000000000000000000000000000000000000000000000000000000000000000000000000000000000000000000000000000000000101000000000001100110000000000001100001000100000000000000001000000000000000000000000000000000000000000000000000000000000000000000000000000000000000000000000000000000000000000000000000000000000000000000100000000000000100100000000000001010000000000000000000000101000000000000000000000000000000000000000000000000000000000000000000000000000000000000000000000000000000000000000000000000000000000000000000000000000000000001010000000000000000000000000000000000000001010000000000000000000000000000000000000000000000000000000000000000000000000000000000000100000100000000000000000000000000000000000000000000000000001100000000000000000000000000000000000000000000000000001000000000000000000000000000000000000000000000000000000000000000000000000000000000000110110110110000000000000000000000000000000000001000000000000100100000000000000000000000000000000000000000000000000000000000000000000000000000000000000000000000000000000000110000000000000000000000000000010000010000000000000000000000000000000000000010000000000000101000000000000000000000111000000000000000000000000000000000000000000000000000000000010000000000000000000000001100000000000000000000000000000000000000000000000000000000000000000000000000100000000000000011000000000000000000000000000000000000000000000000000000000000000000000000000000000100000000000000000000000000000000000000000000000000000000000000000101000000000011000000000000000000000000000000000000010000000001110000001000001000000000000000000000000000000000000000000000000000000001000000000000000000000000000000000000000000000000000000000000000101011000000001001000000001100000000000000000000001100000000000110100000010000010000000000000000000000000000000000000000000000000000000000000000000000000000000000000000000000000000000000000000000000001011000000000010010000000101000000000000000000000011000000000011001000111100000100000000000000000000000000000000000000000000000000000000000000000000000000000000000000000000000000000000000000000000000100111100000000011000000000100000000000000000000000110000000000111100001100000000000000000000000000000000000000000000000000000000000000000000000000000000000000000000001100000000000000000000000000000011000000000000000000000000000000000000000000000000000101100000000010100010100111000000000000000000000000000000000000000000000000000000000000000000000000000110000000000100100000000000000000000000000000001000000000000000000000000000000000000100000000000001110000000000011000011000000000000000000000000000000000000000000000000000000000000000000000000000000001100000000000110000000000000000000000000000000000000000000000000000000000000000000010100000000000001000000000001100010100000000000000000000000000000000000000000000000000000000000000000000000000000000000000000000000000000000000000000000000000000000000000000000000000000000000000000001010000000000000000000000000011101110000000000000000000000000000000000000000000000000000000000000000000000000000000000000000000000000000000000000000000000000000000000000000000000000000000000000000000101000000000000000000000000000001000100000000000000000000000000000000000000000000000000000000000000000000000000000000000000000000000000000000000000000000000000000000000000000000000000000000000000000000100000000000000000000000000000001110000000000000000000000000000000000000000000000000000000000000000010000000000000000000000000000000000000000000000000000000000000000000000000000000000000000000000000000000000000000000000000000000000001000000000000000000000000000000000000000000000000000000000000000000100000000000000000000000000000000000000000000000000000000000000000000000000000000000000000000000000000000000000000000000000000000000000000000000000000000000000000000000000000000000000000000000000000001000000000000000000000000000001000000000000000000000000000000000000000000000000000000000000000000000000000000000000000000000000000000000000000000000000000000000000000000000000000000000000000000000000000000000000000000000000000000101000000000000000000000000000000000000000000000000000000000000000000000000000000000000000000000000000000000000000000000000000000000000000000000000000000000000000000000000000000000000000000000000000001010000000000000000000000000000000000000000000000000000000000000000000000000000000000000000000000000000000000000000000000000000000000000000000100000000000000000000000000000000000000000000000000000000001000000000000000000000000000000000000000000000000000000000000000000000000000000000000000000000000000000000000000000000000000000000000000000011100000000000000000000000011100000000000000000000000000000000000000000000000000000000000000000000000000110000000000000000000000000000000000000000000000000000000000000000000000000000000000000000000001111000000000000000000000000000000000000000000000000000000000000000000000000011000000000000000000000000001100000000000000000000000000000000000000000000000000000000000000000000000000000000000000000000110000000000000000000000000000000000000000000000000000000000000000000000000000110000111000000000000000000000000000000000000000000000000000000000000000000000000000000000000000000000000000000000000000000100000000000000000000000000000000000110000000000000000000000011000000000000000000000000000000000000000000000000000000000000000000000000000000000000000000000000000000000000000000000000000000000000000000000000000000000000000000000000000001010000000000000000000000110000000000000000000000000000000000000000000000000000000000000000000000000000000000000000000000000000000000000000000000000000000000000000000000000000000000000000000000000000001100000000000000000000000000000000000000000000000000000000000000000000000000000000000000000000000000000000000000000000000000000000000000000000000000000000000000000000000000000000000000000000000000000000000000000000000000000000000000000000000000000000000000000000000000000000000000000000000000000000000000000000000000000000000000000000000000000000000000000000000000000000000000000